<svg xmlns="http://www.w3.org/2000/svg" width="7.35" height="12.7" viewBox="0 0 7.35 12.7">
  <defs>
    <style>
      .cls-1 {
        fill: #a38319;
      }
    </style>
  </defs>
  <g id="グループ_1141" data-name="グループ 1141" transform="translate(1 1)">
    <path id="線_33" data-name="線 33" class="cls-1" d="M5.35,6.35a1,1,0,0,1-.707-.293L-.707.707a1,1,0,0,1,0-1.414,1,1,0,0,1,1.414,0l5.35,5.35A1,1,0,0,1,5.35,6.35Z"/>
    <path id="線_34" data-name="線 34" class="cls-1" d="M0,6.35a1,1,0,0,1-.707-.293,1,1,0,0,1,0-1.414l5.35-5.35a1,1,0,0,1,1.414,0,1,1,0,0,1,0,1.414L.707,6.057A1,1,0,0,1,0,6.35Z" transform="translate(0 5.35)"/>
  </g>
</svg>
