<svg xmlns="http://www.w3.org/2000/svg" width="6.526" height="11.053" viewBox="0 0 6.526 11.053">
  <defs>
    <style>
      .cls-1 {
        fill: #306e1d;
      }
    </style>
  </defs>
  <g id="グループ_1139" data-name="グループ 1139" transform="translate(1 1)">
    <path id="線_33" data-name="線 33" class="cls-1" d="M4.526,5.526a1,1,0,0,1-.707-.293L-.707.707a1,1,0,0,1,0-1.414,1,1,0,0,1,1.414,0L5.233,3.819a1,1,0,0,1-.707,1.707Z"/>
    <path id="線_34" data-name="線 34" class="cls-1" d="M0,5.526a1,1,0,0,1-.707-.293,1,1,0,0,1,0-1.414L3.819-.707a1,1,0,0,1,1.414,0,1,1,0,0,1,0,1.414L.707,5.233A1,1,0,0,1,0,5.526Z" transform="translate(0 4.526)"/>
  </g>
</svg>
