<svg xmlns="http://www.w3.org/2000/svg" xmlns:xlink="http://www.w3.org/1999/xlink" width="319.491" height="265.523" viewBox="0 0 319.491 265.523">
  <defs>
    <style>
      .cls-1 {
        fill: none;
      }

      .cls-2 {
        clip-path: url(#clip-path);
      }

      .cls-3 {
        fill: #2f253f;
      }

      .cls-4 {
        fill: #ca7d93;
      }

      .cls-5 {
        fill: #c86b37;
      }

      .cls-6 {
        fill: #512a00;
      }

      .cls-7 {
        fill: #aa998a;
      }

      .cls-8 {
        fill: #9ec3bc;
      }

      .cls-9 {
        fill: #ffdbb0;
      }

      .cls-10 {
        fill: #d8735b;
      }

      .cls-11 {
        fill: #a56a7e;
      }

      .cls-12 {
        fill: #ffd56e;
      }

      .cls-13 {
        fill: #7c6351;
      }

      .cls-14 {
        fill: #7c9c81;
      }

      .cls-15 {
        fill: #5d725f;
      }

      .cls-16 {
        fill: #960b0b;
      }

      .cls-17 {
        fill: #fffff3;
      }

      .cls-18 {
        fill: #91afaa;
      }

      .cls-19 {
        clip-path: url(#clip-path-2);
      }

      .cls-20 {
        fill: #7194b8;
      }

      .cls-21 {
        fill: #fff;
      }

      .cls-22 {
        fill: #6b5136;
      }

      .cls-23 {
        fill: #b5a388;
      }

      .cls-24 {
        fill: #cdb893;
      }
    </style>
    <clipPath id="clip-path">
      <rect id="長方形_687" data-name="長方形 687" class="cls-1" width="172.534" height="265.523"/>
    </clipPath>
    <clipPath id="clip-path-2">
      <rect id="長方形_688" data-name="長方形 688" class="cls-1" width="131.134" height="209.486"/>
    </clipPath>
  </defs>
  <g id="グループ_1007" data-name="グループ 1007" transform="translate(-263.462 -6858.835)">
    <g id="グループ_705" data-name="グループ 705" transform="translate(263.462 6858.835)">
      <g id="グループ_704" data-name="グループ 704" class="cls-2">
        <path id="パス_6888" data-name="パス 6888" class="cls-3" d="M114.391,198.99c0,2.665,5.121,4.825,11.437,4.825s11.437-2.16,11.437-4.825-5.121-4.825-11.437-4.825-11.437,2.161-11.437,4.825" transform="translate(-23.422 -39.755)"/>
        <path id="パス_6889" data-name="パス 6889" class="cls-4" d="M132.164,196.984c-.735-1.838-1.36-3.059-2.833-2.833s-1.866.189-2.266-.907c-.453-1.247-1.835-.647-2.833.227-.907.793,1.144,1.388.01,2.521s-1.483,2.578-.35,5.185,2.493,7.932,4.193,7.479c1.875-.5,4.771-1.577,6.007-3.059,1.134-1.36-1.247-6.913-1.927-8.613" transform="translate(-25.225 -39.421)"/>
        <path id="パス_6890" data-name="パス 6890" class="cls-5" d="M125.828,205.058c6.317,0,11.437-2.161,11.437-4.825v11.258H114.391V200.233c0,2.664,5.121,4.825,11.437,4.825" transform="translate(-23.422 -40.998)"/>
        <path id="パス_6891" data-name="パス 6891" class="cls-5" d="M114.391,213.147c0,2.665,5.121,4.825,11.437,4.825s11.437-2.16,11.437-4.825-5.121-4.825-11.437-4.825-11.437,2.16-11.437,4.825" transform="translate(-23.422 -42.654)"/>
        <path id="パス_6892" data-name="パス 6892" class="cls-6" d="M140.958,206.132q-.276,3.539-.316,7.09c0,.332-.453.124-.45-.121q.039-3.606.32-7.2c.023-.292.464,0,.446.235" transform="translate(-28.704 -42.133)"/>
        <path id="パス_6893" data-name="パス 6893" class="cls-6" d="M135.733,206.918a84.781,84.781,0,0,1-.435,9.521c-.029.293-.469,0-.445-.235a83.693,83.693,0,0,0,.43-9.407c0-.332.448-.124.45.121" transform="translate(-27.611 -42.306)"/>
        <path id="パス_6894" data-name="パス 6894" class="cls-6" d="M128.768,207.365c-.056,3.191-1.1,6.314-.806,9.517.03.329-.428.12-.45-.121-.3-3.208.749-6.324.806-9.517.006-.332.454-.124.45.121" transform="translate(-26.097 -42.398)"/>
        <path id="パス_6895" data-name="パス 6895" class="cls-6" d="M122.3,208.6l-.064,5.584c0,.332-.452.124-.45-.121l.064-5.584c0-.332.453-.124.45.121" transform="translate(-24.936 -42.652)"/>
        <path id="パス_6896" data-name="パス 6896" class="cls-6" d="M117.269,205.237a40.2,40.2,0,0,0,.575,9.245c.058.321-.408.113-.449-.121a40.684,40.684,0,0,1-.572-9.358c.016-.29.459,0,.446.235" transform="translate(-23.907 -41.95)"/>
        <path id="パス_6897" data-name="パス 6897" class="cls-7" d="M113.89,206.331c.375-.353.853.07,1.1.371,1.993,2.376,5.136,2.942,7.883,3.083a32.574,32.574,0,0,0,4.809-.03,23.962,23.962,0,0,0,4.74-1.043c1.323-.413,3.8-1.542,4.579-2.941.518-.927.872,1.168.415,1.985A5.95,5.95,0,0,1,134,210.349a26.371,26.371,0,0,1-5,1.234,28.569,28.569,0,0,1-5.456.142,16.677,16.677,0,0,1-5.084-.9,10.633,10.633,0,0,1-4.5-3.179,1.079,1.079,0,0,1-.066-1.315" transform="translate(-23.279 -42.084)"/>
        <path id="パス_6898" data-name="パス 6898" class="cls-8" d="M114.954,204.076a4.556,4.556,0,0,1,.36-1.87,2.088,2.088,0,0,1,1.893-1.169c1.572-.157,2.363,1.505,5.083,1.258,1.729-.157,2.843,1.126,3.629,2.279.283.415.3.582.159.643-.247.108-.989-.123-1.626.078-1,.314-1.271,3.341-1.428,5.646s.055,3.47-.891,3.615c-1.362.21-5.659-.891-6.707-2.043-.988-1.086-.524-5.921-.472-8.437" transform="translate(-23.505 -41.16)"/>
        <path id="パス_6899" data-name="パス 6899" class="cls-3" d="M135.617,319.189c-1.427-1.627-4.6-7.277-2.251-8.685,1.225-.735,9.541,4.131,10.438,4.113a1.375,1.375,0,0,1,1.126,1.719c-.231,1.666-.3,3.048-.643,3.453-.972,1.132-1.773,1.2-3.858,1.256-1.892.055-3.477-.148-4.813-1.856" transform="translate(-27.135 -63.56)"/>
        <path id="パス_6900" data-name="パス 6900" class="cls-9" d="M133.5,310.122c1.719-2.823,3.91-1.163,6.724-.076,1.814.7,4.566,2.077,4.857,3.181a2.992,2.992,0,0,1-.7,3.177c-.95,1.126-3.388,1.927-6.457,1.235-1.326-.3-6.009-4.916-4.425-7.518" transform="translate(-27.268 -63.178)"/>
        <path id="パス_6901" data-name="パス 6901" class="cls-9" d="M123.021,219.049c2.377-1.813-5.112-7.362-5.311-8.285s-.044-1.874-.335-3.157c-.557-2.45-1.854-3.63-1.815-.721.019,1.374-1.871-2.419-2.6-2.649s-1.578-.565-1.866.165-.543,1.165-.951,1.2a1.24,1.24,0,0,0-1.147.983c-.171.72-.167,1.425-.5,1.689s-.153.919.138,1.557,1.114,2.622,2.491,2.911,2.348-.032,3.268,1.062,4.905,8.079,8.622,5.243" transform="translate(-22.18 -41.76)"/>
        <path id="パス_6902" data-name="パス 6902" class="cls-9" d="M186.059,203.246c1.247-2.717,3.724-8.153,3.757-9.1s-.587-1.9-.231-3.166-.231-2.565,1.676-2.914,1.394-.831,2.067-1.186,1.453-.835,1.866-.168.741,1.049,1.149,1.012a1.241,1.241,0,0,1,1.3.764c.3.678.418,1.373.788,1.574s.314.877.141,1.557-.631,2.778-1.935,3.307-2.316.385-3.027,1.625-4.511,12.221-6.99,15.481c-2.274,2.992-1.839-6.012-.565-8.791" transform="translate(-37.881 -38.162)"/>
        <path id="パス_6903" data-name="パス 6903" class="cls-9" d="M151.207,196.53c.316,0,3.481-.156,3.876-.2a27.886,27.886,0,0,0,1.121,3.819,35.425,35.425,0,0,0,2.31,3.948c-.7,1.1-8.891,1.17-10.488.142.825-.41,2.293-3.142,2.515-4.3s.672-2.975.666-3.409" transform="translate(-30.308 -40.199)"/>
        <path id="パス_6904" data-name="パス 6904" class="cls-10" d="M169.649,188.751c1.046.044,3.363,1.264,3.712,2.895a9.064,9.064,0,0,1-.39,4.733c-.445,1.053-1.625,2.668-.66,3.483s3.906.952,5.08,2.208,1.112,4.9-.659,4.757c-2.053-.164-1.878-3.221-3.147-3.77s-4.421-.227-5.084-2.435c-.575-1.915.231-1.983,1.029-2.852a2.694,2.694,0,0,0,.417-3.431,8.024,8.024,0,0,1-1.311-3.982c.084-1.078.08-1.276,1.013-1.606" transform="translate(-34.461 -38.647)"/>
        <path id="パス_6905" data-name="パス 6905" class="cls-11" d="M170.08,186.121c.655-.448,1.647-.639,1.7-.056s-.66.713.029,1.1,1.446-.188,1.427.605c-.014.559-.913.507-.939,1-.021.391.76.9.609,1.251-.188.437-1.237-.337-1.547.441s-.047,1.859-.932,1.487c-.614-.258-.9-1.692-1.368-1.09s-1.809,1.1-1.716.442c.118-.829.458-1.59-.066-1.435-.809.24-1.726-.52-.95-.867.8-.355,1.35-.833.744-1.254-1.293-.9-.131-1.225.209-1.089s.732.006.447-.555c-.441-.87.326-.958.68-.291.243.457.426-.976,1.1-1.012.524-.029.032,1.52.577,1.324" transform="translate(-33.995 -37.837)"/>
        <path id="パス_6906" data-name="パス 6906" class="cls-4" d="M170.8,186.4c.759-.231,1.762-.117,1.635.454s-.843.483-.3,1.059,1.435.253,1.18,1c-.18.53-1.022.212-1.194.672-.137.367.457,1.084.208,1.376-.31.361-1.079-.692-1.608-.042s-.6,1.76-1.334,1.141c-.508-.43-.354-1.886-.979-1.45s-2.056.509-1.77-.091c.36-.756.912-1.381.366-1.389-.844-.013-1.492-1.012-.647-1.112.864-.1,1.536-.391,1.085-.973-.965-1.245.241-1.208.525-.977s.7.224.592-.4c-.161-.961.6-.816.736-.074.095.509.7-.8,1.351-.638.508.13-.424,1.46.155,1.436" transform="translate(-33.981 -37.869)"/>
        <path id="パス_6907" data-name="パス 6907" class="cls-9" d="M162,188.934c3.451-4.546,5.711-11.244-.028-15.074s-10.2.608-11.747,1.761c-1.893,1.413-1.8,3.379-3.161,5.776-1.185,3.987-.847,4.833-.646,5.844a9.981,9.981,0,0,0,3.394,5.421c1.469,1.039,4.218.946,5.89.542a11.911,11.911,0,0,0,3.776-1.629,2.419,2.419,0,0,0,1.725-.134,3.652,3.652,0,0,0,1.484-1.522.749.749,0,0,0-.687-.985" transform="translate(-29.938 -35.285)"/>
        <path id="パス_6908" data-name="パス 6908" class="cls-10" d="M165.548,175.056c3.2,4.447,1.051,9.09.192,11.506-.387,1.089-.775,3.484-2.214,5.005A7.965,7.965,0,0,1,156.2,193.8c-1.408-.537-4.013-.829-4.078-1.571-.138-1.563-2.725-.128-3.424-2.2-.745-2.212,3.626-4.755,3.559-6.423-.055-1.35-.759-1.414-1.514-1.158s-.613-3.082-.554-3.676c.124-1.261-2.238-3.133.309-5.136a10.585,10.585,0,0,1,15.052,1.42" transform="translate(-30.428 -35.034)"/>
        <path id="パス_6909" data-name="パス 6909" class="cls-10" d="M148.931,185.091c-.812-.661-3.354-1.286-4.7-.3a9.066,9.066,0,0,0-2.848,3.8c-.366,1.083-.553,3.074-1.816,3.044s-3.555-1.88-5.267-1.718-4.082,2.927-2.663,4c1.645,1.24,3.543-1.163,4.857-.733s3.458,2.764,5.419,1.552c1.7-1.051,1.144-1.637,1.123-2.817A2.692,2.692,0,0,1,145,189.075a8.03,8.03,0,0,0,3.622-2.11c.653-.863.787-1.008.308-1.874" transform="translate(-26.864 -37.731)"/>
        <path id="パス_6910" data-name="パス 6910" class="cls-11" d="M152.661,181.458c.655-.448,1.647-.639,1.7-.056s-.661.713.029,1.1,1.446-.188,1.427.605c-.014.559-.913.507-.939,1-.021.391.76.9.609,1.251-.188.437-1.237-.337-1.547.441s-.047,1.859-.932,1.488c-.614-.258-.9-1.693-1.368-1.091s-1.809,1.1-1.716.442c.118-.829.458-1.59-.067-1.435-.809.24-1.726-.52-.95-.867.8-.355,1.35-.833.745-1.254-1.293-.9-.131-1.225.209-1.089s.732.006.447-.555c-.441-.87.326-.958.68-.291.243.457.426-.976,1.1-1.012.524-.029.032,1.52.577,1.324" transform="translate(-30.428 -36.882)"/>
        <path id="パス_6911" data-name="パス 6911" class="cls-4" d="M153.383,181.741c.759-.231,1.762-.117,1.635.454s-.843.483-.3,1.059,1.435.253,1.181,1c-.181.53-1.023.211-1.2.671-.137.367.457,1.084.208,1.376-.31.361-1.079-.691-1.608-.042s-.6,1.76-1.334,1.141c-.508-.43-.354-1.886-.979-1.45s-2.056.509-1.77-.091c.36-.756.912-1.381.366-1.389-.844-.013-1.492-1.012-.647-1.112.864-.1,1.537-.391,1.085-.973-.965-1.245.241-1.208.525-.977s.7.224.592-.4c-.161-.962.6-.817.736-.075.095.509.7-.8,1.351-.638.508.13-.424,1.46.155,1.436" transform="translate(-30.414 -36.915)"/>
        <path id="パス_6912" data-name="パス 6912" class="cls-12" d="M180.155,223.939a6.492,6.492,0,0,1-2.041,4.472,9.528,9.528,0,0,1-5.9,3.108c-3.734.2-7.1-3.878-8.773-.534-1.321,2.634,1.88,7.926,3,10.4.8,1.812,1.024,6.935.88,9.214-.39,6.08-1.88,9.112-2.845,13.981-.669,3.354-2.388,22.06-2.854,28.022-.135,1.711-12.643,1.262-20.79.229-7.054-.881-8.061-2.007-7.6-5.785.094-.7.229-5.258.4-10.805.06-1.965.118-4.057.186-6.14.22-7.223.475-14.405.7-16.26.763-6.106,2.913-14.862,3.481-20.891.39-4.193,1.253-7.707.237-8.486-1.042-.8-4.505,7.766-10.332,9.3a7.559,7.559,0,0,1-1.524.228c-3.362.127-8.139-3.675-9.79-8.061a8.389,8.389,0,0,1-.567-3.641c.144-1.575,1.956-16.633,4.734-13.66,5.2,5.538,10.89-3.734,17.978-4.649,1.787-.237,3.794-1.584,4.073-2.38.839-2.354,2.956-2.049,6.546-1.855,2.549-.093,2.507,3.108,3.531,3.091a21.269,21.269,0,0,1,7.6,2.447c.195.119.373.246.55.365.009,0,.009.008.018.008a13.8,13.8,0,0,0,5.3,2.464,5.39,5.39,0,0,0,2.371.085c3.87-1.271,3.336-6.038,3.819-6.419,1.279-1.016,4.793,4.674,5.42,8.477.33,2.024.711,3.845,1.05,5.6a58.41,58.41,0,0,1,1.135,8.079" transform="translate(-23.751 -40.871)"/>
        <path id="パス_6913" data-name="パス 6913" class="cls-8" d="M141.14,216.952a2.638,2.638,0,0,0-.824-1.047,3.866,3.866,0,0,0-1.6-.607c-.462,0-.6-.146-.849-.519a2.355,2.355,0,0,0-1.2-.752,3.558,3.558,0,0,0-1.559-.084l-.007,0h-.006a3.567,3.567,0,0,0-1.4.689,2.354,2.354,0,0,0-.81,1.164c-.087.443-.152.631-.577.811a3.865,3.865,0,0,0-1.231,1.186,2.628,2.628,0,0,0-.346,1.287,3.328,3.328,0,0,0,.5,1.585,2,2,0,0,1,.538,1.208,2.943,2.943,0,0,0,.632,1.428,3.692,3.692,0,0,0,1.117.794,3.609,3.609,0,0,0,1.316.207,6.11,6.11,0,0,0,1.715-.655,1.207,1.207,0,0,1,1.032-.212,6.108,6.108,0,0,0,1.835-.071,3.626,3.626,0,0,0,1.129-.707,3.7,3.7,0,0,0,.715-1.169,2.945,2.945,0,0,0,.02-1.561,2.01,2.01,0,0,1,.02-1.322,3.332,3.332,0,0,0-.161-1.655" transform="translate(-26.767 -43.793)"/>
        <path id="パス_6914" data-name="パス 6914" class="cls-13" d="M137.543,217.062c0-.116,0-.5.081-.006a12.685,12.685,0,0,1,.133,1.761c-.025.217-.016.135-.047-.278-.029-.4-.167-1.478-.167-1.478" transform="translate(-28.162 -44.392)"/>
        <path id="パス_6915" data-name="パス 6915" class="cls-13" d="M138.725,217.538c.039-.126.276-.592.152-.09s-.478,1.588-.553,1.765,0-.038.021-.188.38-1.488.38-1.488" transform="translate(-28.315 -44.476)"/>
        <path id="パス_6916" data-name="パス 6916" class="cls-13" d="M134.8,220.5c-.1-.027-.425-.114.014-.08a9.976,9.976,0,0,1,1.538.262c.181.072.113.045-.248-.017s-1.3-.165-1.3-.165" transform="translate(-27.557 -45.13)"/>
        <path id="パス_6917" data-name="パス 6917" class="cls-13" d="M138.038,223.18c0,.113-.083.555-.1.111s.01-1.425.029-1.589.006.033.028.16.047,1.319.047,1.319" transform="translate(-28.241 -45.381)"/>
        <path id="パス_6918" data-name="パス 6918" class="cls-13" d="M139.9,221.884c.077.041.332.173-.029.076a7.159,7.159,0,0,1-1.236-.483c-.135-.1-.084-.06.206.052s1.059.355,1.059.355" transform="translate(-28.371 -45.336)"/>
        <path id="パス_6919" data-name="パス 6919" class="cls-13" d="M134.932,219.007c-.107-.077-.475-.449-.037-.173s1.356.957,1.5,1.084-.035-.016-.17-.08-1.291-.832-1.291-.832" transform="translate(-27.577 -44.786)"/>
        <path id="パス_6920" data-name="パス 6920" class="cls-13" d="M136.327,217.66c-.033-.111-.146-.475.076-.03a12.638,12.638,0,0,1,.656,1.64c.042.215.026.134-.128-.251-.148-.37-.6-1.358-.6-1.358" transform="translate(-27.901 -44.516)"/>
        <path id="パス_6921" data-name="パス 6921" class="cls-13" d="M139.894,218.4c.085-.1.484-.439.175-.024s-1.058,1.278-1.2,1.411.018-.033.093-.164.929-1.223.929-1.223" transform="translate(-28.423 -44.671)"/>
        <path id="パス_6922" data-name="パス 6922" class="cls-13" d="M137.443,220.283c.121-.264.348-.321.627-.047a.385.385,0,0,1,.031.418.426.426,0,0,1-.626.047.488.488,0,0,1-.032-.418" transform="translate(-28.134 -45.057)"/>
        <path id="パス_6923" data-name="パス 6923" class="cls-13" d="M140.53,221c.13.018.631.173.114.135s-1.646-.206-1.832-.251.038,0,.188-.01,1.531.126,1.531.126" transform="translate(-28.407 -45.222)"/>
        <path id="パス_6924" data-name="パス 6924" class="cls-13" d="M135.331,221.892c-.083.026-.356.114-.033-.074a7.161,7.161,0,0,1,1.212-.54c.164-.028.1-.018-.182.109s-1,.5-1,.5" transform="translate(-27.671 -45.304)"/>
        <path id="パス_6925" data-name="パス 6925" class="cls-13" d="M136.7,223.067c-.046.1-.294.479-.139.062s.565-1.309.647-1.452-.007.032-.037.157-.471,1.233-.471,1.233" transform="translate(-27.951 -45.378)"/>
        <path id="パス_6926" data-name="パス 6926" class="cls-13" d="M139.105,223.044c.049.1.17.535-.044.146s-.62-1.284-.675-1.439.019.027.095.131.624,1.163.624,1.163" transform="translate(-28.331 -45.391)"/>
        <path id="パス_6927" data-name="パス 6927" class="cls-8" d="M158.721,250.088a2.633,2.633,0,0,0-.823-1.047,3.875,3.875,0,0,0-1.6-.608c-.462,0-.6-.146-.849-.519a2.352,2.352,0,0,0-1.2-.752,3.558,3.558,0,0,0-1.559-.084l-.006,0h-.007a3.555,3.555,0,0,0-1.4.689,2.354,2.354,0,0,0-.81,1.164c-.087.443-.152.631-.577.811a3.873,3.873,0,0,0-1.231,1.186,2.638,2.638,0,0,0-.346,1.287,3.337,3.337,0,0,0,.5,1.585,2,2,0,0,1,.538,1.208,2.943,2.943,0,0,0,.632,1.428,3.692,3.692,0,0,0,1.117.794,3.6,3.6,0,0,0,1.317.207,6.1,6.1,0,0,0,1.715-.655,1.2,1.2,0,0,1,1.031-.211A6.128,6.128,0,0,0,157,256.5a3.625,3.625,0,0,0,1.13-.707,3.7,3.7,0,0,0,.713-1.169,2.929,2.929,0,0,0,.021-1.561,2.016,2.016,0,0,1,.02-1.322,3.323,3.323,0,0,0-.161-1.655" transform="translate(-30.367 -50.578)"/>
        <path id="パス_6928" data-name="パス 6928" class="cls-13" d="M155.125,250.2c0-.116,0-.5.081-.006a12.665,12.665,0,0,1,.132,1.761c-.024.217-.015.135-.046-.278-.029-.4-.167-1.477-.167-1.477" transform="translate(-31.762 -51.177)"/>
        <path id="パス_6929" data-name="パス 6929" class="cls-13" d="M156.306,250.674c.039-.126.276-.592.152-.09s-.478,1.589-.553,1.765,0-.038.021-.188.38-1.488.38-1.488" transform="translate(-31.915 -51.261)"/>
        <path id="パス_6930" data-name="パス 6930" class="cls-13" d="M152.381,253.638c-.1-.027-.425-.114.014-.08a9.881,9.881,0,0,1,1.538.262c.181.072.113.045-.248-.017s-1.3-.165-1.3-.165" transform="translate(-31.157 -51.915)"/>
        <path id="パス_6931" data-name="パス 6931" class="cls-13" d="M155.62,256.316c0,.113-.083.555-.1.111s.01-1.425.029-1.589.006.033.028.16.047,1.319.047,1.319" transform="translate(-31.841 -52.165)"/>
        <path id="パス_6932" data-name="パス 6932" class="cls-13" d="M157.48,255.02c.077.041.332.173-.029.076a7.185,7.185,0,0,1-1.236-.483c-.135-.1-.084-.06.206.052s1.059.355,1.059.355" transform="translate(-31.97 -52.121)"/>
        <path id="パス_6933" data-name="パス 6933" class="cls-13" d="M152.514,252.143c-.107-.077-.475-.449-.037-.173s1.356.957,1.5,1.084-.035-.016-.17-.08-1.291-.832-1.291-.832" transform="translate(-31.177 -51.57)"/>
        <path id="パス_6934" data-name="パス 6934" class="cls-13" d="M153.909,250.8c-.033-.111-.146-.475.076-.03a12.594,12.594,0,0,1,.656,1.64c.042.214.026.134-.128-.251-.148-.37-.6-1.358-.6-1.358" transform="translate(-31.501 -51.3)"/>
        <path id="パス_6935" data-name="パス 6935" class="cls-13" d="M157.476,251.536c.085-.1.484-.439.175-.024s-1.058,1.277-1.2,1.411.018-.033.093-.164.929-1.223.929-1.223" transform="translate(-32.023 -51.456)"/>
        <path id="パス_6936" data-name="パス 6936" class="cls-13" d="M155.025,253.419c.119-.264.348-.321.626-.047a.382.382,0,0,1,.031.418.426.426,0,0,1-.626.047.487.487,0,0,1-.031-.418" transform="translate(-31.734 -51.841)"/>
        <path id="パス_6937" data-name="パス 6937" class="cls-13" d="M158.111,254.136c.13.018.631.173.114.135s-1.646-.206-1.832-.251.038,0,.188-.01,1.531.126,1.531.126" transform="translate(-32.007 -52.007)"/>
        <path id="パス_6938" data-name="パス 6938" class="cls-13" d="M152.913,255.028c-.083.026-.356.114-.033-.074a7.085,7.085,0,0,1,1.212-.539c.164-.029.1-.018-.182.108s-1,.5-1,.5" transform="translate(-31.271 -52.089)"/>
        <path id="パス_6939" data-name="パス 6939" class="cls-13" d="M154.284,256.2c-.046.1-.294.479-.139.062s.565-1.309.647-1.452-.007.032-.037.157-.471,1.233-.471,1.233" transform="translate(-31.551 -52.162)"/>
        <path id="パス_6940" data-name="パス 6940" class="cls-13" d="M156.686,256.18c.048.1.17.535-.044.146s-.62-1.284-.675-1.439.019.027.095.131.624,1.163.624,1.163" transform="translate(-31.93 -52.176)"/>
        <path id="パス_6941" data-name="パス 6941" class="cls-7" d="M147.188,209.589a1.322,1.322,0,1,1-1.267-1.375,1.322,1.322,0,0,1,1.267,1.375" transform="translate(-29.596 -42.632)"/>
        <path id="パス_6942" data-name="パス 6942" class="cls-7" d="M156.759,220.163a2.2,2.2,0,1,1-2.111-2.292,2.2,2.2,0,0,1,2.111,2.292" transform="translate(-31.194 -44.609)"/>
        <path id="パス_6943" data-name="パス 6943" class="cls-7" d="M150.686,273.864a2.2,2.2,0,1,1-2.111-2.292,2.2,2.2,0,0,1,2.111,2.292" transform="translate(-29.951 -55.604)"/>
        <path id="パス_6944" data-name="パス 6944" class="cls-7" d="M162.729,265.161a1.377,1.377,0,1,1-1.319-1.432,1.376,1.376,0,0,1,1.319,1.432" transform="translate(-32.755 -53.998)"/>
        <path id="パス_6945" data-name="パス 6945" class="cls-7" d="M176.463,256.8a1.377,1.377,0,1,1-1.319-1.432,1.376,1.376,0,0,1,1.319,1.432" transform="translate(-35.567 -52.286)"/>
        <path id="パス_6946" data-name="パス 6946" class="cls-7" d="M183.146,228.744a1.322,1.322,0,1,1-1.267-1.375,1.322,1.322,0,0,1,1.267,1.375" transform="translate(-36.958 -46.554)"/>
        <path id="パス_6947" data-name="パス 6947" class="cls-8" d="M130.537,234.281a4.411,4.411,0,0,1-.857,2.015,2.657,2.657,0,0,0-.856,1.526,3.368,3.368,0,0,1-.77,1.513,7.113,7.113,0,0,1-1.52.227c-3.361.127-8.14-3.676-9.794-8.06a3.62,3.62,0,0,1,.382-1.306,3.47,3.47,0,0,1,1.212-1.272,5.213,5.213,0,0,1,2.176-.6c.6.06.8-.114,1.178-.576a3.177,3.177,0,0,1,1.674-.844,4.706,4.706,0,0,1,2.055.087h.007c.006,0,.006,0,.013.006a4.722,4.722,0,0,1,1.754,1.071,3.156,3.156,0,0,1,.917,1.633c.06.589.127.844.662,1.138a5.068,5.068,0,0,1,1.466,1.707,3.444,3.444,0,0,1,.3,1.734" transform="translate(-23.902 -46.444)"/>
        <path id="パス_6948" data-name="パス 6948" class="cls-13" d="M125.414,230.947c.012-.153.056-.653-.106-.018a16.65,16.65,0,0,0-.39,2.3c0,.288,0,.18.095-.359.088-.518.4-1.92.4-1.92" transform="translate(-25.577 -47.218)"/>
        <path id="パス_6949" data-name="パス 6949" class="cls-13" d="M123.727,231.408c-.037-.17-.289-.813-.188-.137s.433,2.146.51,2.387,0-.05-.006-.248-.316-2-.316-2" transform="translate(-25.29 -47.291)"/>
        <path id="パス_6950" data-name="パス 6950" class="cls-13" d="M128.093,235.8c.134-.024.572-.1-.008-.107a12.97,12.97,0,0,0-2.053.155c-.245.072-.153.045.329.009.463-.035,1.732-.057,1.732-.057" transform="translate(-25.778 -48.258)"/>
        <path id="パス_6951" data-name="パス 6951" class="cls-13" d="M124.061,238.921c-.011.149.041.74.122.158s.163-1.874.157-2.091-.012.041-.056.206-.224,1.727-.224,1.727" transform="translate(-25.401 -48.506)"/>
        <path id="パス_6952" data-name="パス 6952" class="cls-13" d="M121.339,236.991c-.107.045-.456.187.029.1a9.468,9.468,0,0,0,1.682-.483c.19-.111.118-.069-.276.045-.379.109-1.435.335-1.435.335" transform="translate(-24.799 -48.433)"/>
        <path id="パス_6953" data-name="パス 6953" class="cls-13" d="M128.105,233.822c.15-.088.679-.532.07-.223s-1.9,1.09-2.1,1.24.047-.016.233-.084,1.8-.934,1.8-.934" transform="translate(-25.798 -47.807)"/>
        <path id="パス_6954" data-name="パス 6954" class="cls-13" d="M126.737,231.882c.057-.142.251-.606-.1-.049a16.554,16.554,0,0,0-1.063,2.073c-.082.276-.051.172.2-.314.24-.468.961-1.711.961-1.711" transform="translate(-25.704 -47.413)"/>
        <path id="パス_6955" data-name="パス 6955" class="cls-13" d="M121.834,232.371c-.1-.142-.583-.636-.227-.052s1.234,1.808,1.4,2-.02-.046-.1-.227-1.07-1.721-1.07-1.721" transform="translate(-24.873 -47.51)"/>
        <path id="パス_6956" data-name="パス 6956" class="cls-13" d="M125.019,235.18c-.125-.362-.417-.464-.816-.139a.5.5,0,0,0-.093.546.56.56,0,0,0,.816.139.642.642,0,0,0,.093-.546" transform="translate(-25.402 -48.085)"/>
        <path id="パス_6957" data-name="パス 6957" class="cls-13" d="M120.412,235.741c-.173.008-.849.15-.166.164s2.188-.068,2.438-.1-.05-.008-.246-.036-2.026-.024-2.026-.024" transform="translate(-24.559 -48.268)"/>
        <path id="パス_6958" data-name="パス 6958" class="cls-13" d="M127.369,237.517c.107.045.454.193.052-.094a9.4,9.4,0,0,0-1.525-.857c-.212-.057-.132-.036.226.165s1.247.786,1.247.786" transform="translate(-25.754 -48.431)"/>
        <path id="パス_6959" data-name="パス 6959" class="cls-13" d="M125.667,238.916c.048.141.328.665.175.1s-.581-1.788-.672-1.986.006.042.03.211.467,1.677.467,1.677" transform="translate(-25.621 -48.516)"/>
        <path id="パス_6960" data-name="パス 6960" class="cls-13" d="M122.434,238.611c-.076.128-.289.682.04.2s.973-1.61,1.064-1.807-.029.032-.141.16-.963,1.451-.963,1.451" transform="translate(-25.04 -48.51)"/>
        <path id="パス_6961" data-name="パス 6961" class="cls-8" d="M178.121,215.788a5,5,0,0,1-1.2,2.209,3.01,3.01,0,0,0-1.145,1.633,4.475,4.475,0,0,1-1.352,1.935,5.691,5.691,0,0,1-1.888.856,5.533,5.533,0,0,1-2.015-.08,9.122,9.122,0,0,1-2.35-1.473,2.223,2.223,0,0,0-.669-.475,2.2,2.2,0,0,0-.8-.134,9.125,9.125,0,0,1-2.7-.643,5.43,5.43,0,0,1-1.473-1.373,5.681,5.681,0,0,1-.723-1.941,4.459,4.459,0,0,1,.429-2.323,3.093,3.093,0,0,0,.355-1.968,5.094,5.094,0,0,1,.717-2.41,4.057,4.057,0,0,1,1.526-1.312,5.954,5.954,0,0,1,2.55-.435c.683.134.924-.041,1.406-.522a2.783,2.783,0,0,1,1.085-.589c.194.121.375.241.549.362.014,0,.014.006.02.006a13.774,13.774,0,0,0,5.3,2.47,2.009,2.009,0,0,1,.147.71c-.006.682.041.984.616,1.372a5.788,5.788,0,0,1,1.479,2.116,3.915,3.915,0,0,1,.141,2.008" transform="translate(-33.128 -42.331)"/>
        <path id="パス_6962" data-name="パス 6962" class="cls-13" d="M172.962,211.158c.032-.173.14-.738-.118-.033a19.112,19.112,0,0,0-.708,2.573c-.028.329-.018.205.149-.4.16-.581.678-2.142.678-2.142" transform="translate(-35.242 -43.157)"/>
        <path id="パス_6963" data-name="パス 6963" class="cls-13" d="M171.063,211.476c-.021-.2-.237-.959-.2-.177s.248,2.495.309,2.779,0-.057.022-.284-.131-2.317-.131-2.317" transform="translate(-34.984 -43.193)"/>
        <path id="パス_6964" data-name="パス 6964" class="cls-13" d="M175.534,217.024c.154-.011.662-.045,0-.122a14.907,14.907,0,0,0-2.358-.058c-.288.054-.18.034.374.048.532.013,1.981.133,1.981.133" transform="translate(-35.427 -44.393)"/>
        <path id="パス_6965" data-name="パス 6965" class="cls-13" d="M170.523,220.087c-.029.168-.037.848.122.195s.4-2.117.418-2.366-.017.046-.086.229-.454,1.942-.454,1.942" transform="translate(-34.911 -44.599)"/>
        <path id="パス_6966" data-name="パス 6966" class="cls-13" d="M167.689,217.626c-.126.038-.542.161.021.121a10.741,10.741,0,0,0,1.973-.358c.229-.1.142-.064-.32.019-.445.081-1.674.218-1.674.218" transform="translate(-34.28 -44.498)"/>
        <path id="パス_6967" data-name="パス 6967" class="cls-13" d="M175.74,214.8c.181-.084.835-.528.1-.246s-2.288,1.025-2.538,1.173.056-.014.276-.069,2.157-.858,2.157-.858" transform="translate(-35.465 -43.911)"/>
        <path id="パス_6968" data-name="パス 6968" class="cls-13" d="M174.37,212.4c.082-.155.355-.662-.1-.067a19.23,19.23,0,0,0-1.45,2.242c-.123.305-.077.191.262-.336.327-.506,1.291-1.839,1.291-1.839" transform="translate(-35.372 -43.417)"/>
        <path id="パス_6969" data-name="パス 6969" class="cls-13" d="M168.8,212.358c-.1-.173-.591-.791-.252-.086s1.2,2.2,1.365,2.44-.018-.055-.09-.27-1.023-2.084-1.023-2.084" transform="translate(-34.486 -43.395)"/>
        <path id="パス_6970" data-name="パス 6970" class="cls-13" d="M172.091,215.94c-.1-.427-.421-.577-.915-.251a.575.575,0,0,0-.168.611.642.642,0,0,0,.915.251c.234-.19.168-.611.168-.611" transform="translate(-35.007 -44.126)"/>
        <path id="パス_6971" data-name="パス 6971" class="cls-13" d="M166.789,216.049c-.2-.011-.985.073-.208.167s2.5.174,2.791.161-.056-.015-.276-.069-2.307-.259-2.307-.259" transform="translate(-34.039 -44.236)"/>
        <path id="パス_6972" data-name="パス 6972" class="cls-13" d="M174.519,218.857c.116.063.5.273.071-.1a10.7,10.7,0,0,0-1.641-1.152c-.235-.09-.146-.056.239.214.37.26,1.331,1.039,1.331,1.039" transform="translate(-35.385 -44.545)"/>
        <path id="パス_6973" data-name="パス 6973" class="cls-13" d="M172.419,220.256c.038.166.3.8.188.132s-.458-2.105-.538-2.341,0,.049.01.244.34,1.965.34,1.965" transform="translate(-35.224 -44.627)"/>
        <path id="パス_6974" data-name="パス 6974" class="cls-13" d="M168.707,219.577c-.1.138-.408.745.023.228s1.293-1.723,1.42-1.938-.037.033-.179.167-1.264,1.543-1.264,1.543" transform="translate(-34.502 -44.591)"/>
        <path id="パス_6975" data-name="パス 6975" class="cls-7" d="M123.538,221.4a1.322,1.322,0,1,1-1.267-1.375,1.322,1.322,0,0,1,1.267,1.375" transform="translate(-24.753 -45.05)"/>
        <path id="パス_6976" data-name="パス 6976" class="cls-8" d="M194.515,220.045a58.011,58.011,0,0,1,1.138,8.081,6.484,6.484,0,0,1-2.042,4.465,5.041,5.041,0,0,1-.87-.837,6.407,6.407,0,0,1-1-2.176,5.037,5.037,0,0,1,.281-2.717,3.526,3.526,0,0,0,.227-2.31,5.885,5.885,0,0,1,.616-2.845,4.621,4.621,0,0,1,1.64-1.654c.007,0,.007-.006.014-.006" transform="translate(-39.246 -45.054)"/>
        <path id="パス_6977" data-name="パス 6977" class="cls-8" d="M172.237,276.235a2.968,2.968,0,0,0-.091-1.5,4.355,4.355,0,0,0-1.091-1.59c-.429-.3-.459-.519-.453-1.027a2.662,2.662,0,0,0-.631-1.471,4.031,4.031,0,0,0-1.391-1.079l-.009,0-.006,0a4.014,4.014,0,0,0-1.742-.262,2.649,2.649,0,0,0-1.5.559c-.365.355-.546.487-1.057.381a4.356,4.356,0,0,0-1.9.308,2.976,2.976,0,0,0-1.148.969,3.766,3.766,0,0,0-.553,1.793,2.262,2.262,0,0,1-.278,1.466,3.317,3.317,0,0,0-.332,1.73,4.165,4.165,0,0,0,.524,1.455A4.065,4.065,0,0,0,161.665,279a6.871,6.871,0,0,0,2.011.5,1.357,1.357,0,0,1,1.093.468,6.926,6.926,0,0,0,1.746,1.113,4.08,4.08,0,0,0,1.5.071,4.159,4.159,0,0,0,1.414-.624,3.306,3.306,0,0,0,1.023-1.434,2.271,2.271,0,0,1,.869-1.214,3.755,3.755,0,0,0,.915-1.637" transform="translate(-32.77 -55.138)"/>
        <path id="パス_6978" data-name="パス 6978" class="cls-13" d="M169.687,273.361c.076-.107.323-.459.079.046a14.276,14.276,0,0,1-1.009,1.719c-.162.185-.1.115.136-.288.227-.387.794-1.477.794-1.477" transform="translate(-34.534 -55.926)"/>
        <path id="パス_6979" data-name="パス 6979" class="cls-13" d="M170.441,274.659c.117-.091.637-.372.2.014s-1.465,1.165-1.649,1.28.029-.033.141-.159,1.309-1.136,1.309-1.136" transform="translate(-34.586 -56.199)"/>
        <path id="パス_6980" data-name="パス 6980" class="cls-13" d="M165.234,274.785c-.074-.089-.32-.379.064-.065a11.2,11.2,0,0,1,1.257,1.232c.12.182.075.114-.22-.175s-1.1-.992-1.1-.992" transform="translate(-33.802 -56.22)"/>
        <path id="パス_6981" data-name="パス 6981" class="cls-13" d="M166.221,279.355c-.075.1-.435.461-.167.037s.925-1.315,1.048-1.454-.015.033-.077.165-.8,1.253-.8,1.253" transform="translate(-33.98 -56.897)"/>
        <path id="パス_6982" data-name="パス 6982" class="cls-13" d="M169.075,279.34c.045.087.2.374-.076.051a8.01,8.01,0,0,1-.834-1.242c-.064-.177-.04-.11.156.181s.755,1.01.755,1.01" transform="translate(-34.425 -56.931)"/>
        <path id="パス_6983" data-name="パス 6983" class="cls-13" d="M166.318,273.482c-.049-.14-.151-.722.077-.185s.641,1.758.692,1.969-.022-.037-.107-.184-.662-1.6-.662-1.6" transform="translate(-34.04 -55.912)"/>
        <path id="パス_6984" data-name="パス 6984" class="cls-13" d="M168.347,273.129c.041-.124.17-.534.089.021a14.18,14.18,0,0,1-.446,1.942c-.1.225-.061.141.043-.315.1-.438.314-1.648.314-1.648" transform="translate(-34.384 -55.87)"/>
        <path id="パス_6985" data-name="パス 6985" class="cls-13" d="M171.036,276.33c.143-.038.732-.1.177.091s-1.8.5-2.016.538.038-.02.191-.092,1.648-.537,1.648-.537" transform="translate(-34.626 -56.571)"/>
        <path id="パス_6986" data-name="パス 6986" class="cls-13" d="M167.738,276.319c.281-.168.528-.075.611.359a.432.432,0,0,1-.24.408.48.48,0,0,1-.61-.359c-.021-.225.239-.408.239-.408" transform="translate(-34.295 -56.56)"/>
        <path id="パス_6987" data-name="パス 6987" class="cls-13" d="M170.229,278.927c.109.1.473.565.019.2s-1.394-1.249-1.538-1.411.037.022.181.112,1.338,1.1,1.338,1.1" transform="translate(-34.533 -56.849)"/>
        <path id="パス_6988" data-name="パス 6988" class="cls-13" d="M164.727,276.567c-.094-.029-.4-.123.017-.09a8,8,0,0,1,1.47.279c.17.079.107.049-.239-.017s-1.249-.173-1.249-.173" transform="translate(-33.687 -56.607)"/>
        <path id="パス_6989" data-name="パス 6989" class="cls-13" d="M165.072,278.5c-.109.066-.581.254-.169-.032s1.365-.85,1.533-.93-.027.025-.135.122-1.229.84-1.229.84" transform="translate(-33.73 -56.821)"/>
        <path id="パス_6990" data-name="パス 6990" class="cls-13" d="M167.509,279.906c-.021.126-.187.606-.134.107s.251-1.589.3-1.768,0,.037,0,.182-.169,1.479-.169,1.479" transform="translate(-34.268 -56.957)"/>
        <path id="パス_6991" data-name="パス 6991" class="cls-8" d="M152.285,291.068a4.189,4.189,0,0,1-1.99,3.184,8.587,8.587,0,0,1-2.54.669,2.044,2.044,0,0,0-.763.153,1.946,1.946,0,0,0-.609.466,8.814,8.814,0,0,1-2.193,1.439,5.166,5.166,0,0,1-1.9.127,5.419,5.419,0,0,1-1.8-.763,4.155,4.155,0,0,1-1.321-1.795,2.713,2.713,0,0,0-1-1.423c.06-1.965.118-4.057.186-6.14.466-.355.5-.652.483-1.261a3.311,3.311,0,0,1,.771-1.872,4.993,4.993,0,0,1,1.736-1.4h.008l.009-.008a5.118,5.118,0,0,1,2.2-.365,3.383,3.383,0,0,1,1.913.678,1.214,1.214,0,0,0,1.346.457,5.432,5.432,0,0,1,2.414.356,3.749,3.749,0,0,1,1.474,1.2,4.8,4.8,0,0,1,.737,2.261,2.8,2.8,0,0,0,.381,1.847,4.26,4.26,0,0,1,.457,2.185" transform="translate(-28.29 -57.756)"/>
        <path id="パス_6992" data-name="パス 6992" class="cls-13" d="M144.977,286.466c-.033-.162-.15-.694.111-.033a17.954,17.954,0,0,1,.73,2.415c.033.31.021.193-.15-.374-.165-.545-.691-2.008-.691-2.008" transform="translate(-29.673 -58.581)"/>
        <path id="パス_6993" data-name="パス 6993" class="cls-13" d="M146.93,286.717c.016-.188.2-.912.184-.173s-.175,2.364-.226,2.633-.006-.054-.028-.267.07-2.193.07-2.193" transform="translate(-30.069 -58.603)"/>
        <path id="パス_6994" data-name="パス 6994" class="cls-13" d="M142.211,292.068c-.146-.007-.627-.027-.006-.116a14.271,14.271,0,0,1,2.227-.111c.273.045.17.028-.352.054-.5.025-1.869.173-1.869.173" transform="translate(-29.053 -59.752)"/>
        <path id="パス_6995" data-name="パス 6995" class="cls-13" d="M147.573,294.843c.033.158.055.8-.11.187s-.429-1.991-.452-2.225.018.043.087.214.475,1.824.475,1.824" transform="translate(-30.099 -59.933)"/>
        <path id="パス_6996" data-name="パス 6996" class="cls-13" d="M149.749,292.462c.12.033.516.139-.018.114a10.122,10.122,0,0,1-1.873-.291c-.219-.092-.136-.057.3.01.422.066,1.587.166,1.587.166" transform="translate(-30.25 -59.834)"/>
        <path id="パス_6997" data-name="パス 6997" class="cls-13" d="M141.932,289.987c-.172-.075-.8-.48-.1-.23s2.187.915,2.427,1.048-.053-.011-.262-.059-2.06-.759-2.06-.759" transform="translate(-28.974 -59.311)"/>
        <path id="パス_6998" data-name="パス 6998" class="cls-13" d="M143.461,287.677c-.081-.144-.351-.617.1-.065a17.974,17.974,0,0,1,1.423,2.084c.125.285.078.178-.256-.311-.32-.47-1.263-1.707-1.263-1.707" transform="translate(-29.342 -58.835)"/>
        <path id="パス_6999" data-name="パス 6999" class="cls-13" d="M148.8,287.5c.087-.166.54-.762.237-.087s-1.081,2.11-1.233,2.338.016-.052.079-.257.917-1.994.917-1.994" transform="translate(-30.25 -58.783)"/>
        <path id="パス_7000" data-name="パス 7000" class="cls-13" d="M145.86,290.962c.085-.406.385-.555.858-.259a.544.544,0,0,1,.173.573.608.608,0,0,1-.858.259c-.226-.174-.173-.573-.173-.573" transform="translate(-29.864 -59.49)"/>
        <path id="パス_7001" data-name="パス 7001" class="cls-13" d="M150.357,290.938c.188-.015.933.045.2.153s-2.359.223-2.634.218.052-.015.259-.072,2.173-.3,2.173-.3" transform="translate(-30.266 -59.569)"/>
        <path id="パス_7002" data-name="パス 7002" class="cls-13" d="M143.436,293.772c-.108.062-.462.27-.069-.093a10.188,10.188,0,0,1,1.523-1.128c.219-.091.137-.056-.22.208s-1.233,1.012-1.233,1.012" transform="translate(-29.317 -59.891)"/>
        <path id="パス_7003" data-name="パス 7003" class="cls-13" d="M145.792,295.044c-.033.158-.262.759-.174.129s.383-2,.452-2.225,0,.047,0,.231-.275,1.865-.275,1.865" transform="translate(-29.811 -59.964)"/>
        <path id="パス_7004" data-name="パス 7004" class="cls-13" d="M149,294.326c.1.127.4.694-.017.216s-1.262-1.6-1.387-1.8.036.03.173.153S149,294.326,149,294.326" transform="translate(-30.212 -59.923)"/>
        <path id="パス_7005" data-name="パス 7005" class="cls-7" d="M169.043,297.993a2.2,2.2,0,1,1-2.111-2.292,2.2,2.2,0,0,1,2.111,2.292" transform="translate(-33.71 -60.545)"/>
        <path id="パス_7006" data-name="パス 7006" class="cls-7" d="M150.073,306.359a1.377,1.377,0,1,1-1.319-1.432,1.376,1.376,0,0,1,1.319,1.432" transform="translate(-30.164 -62.434)"/>
        <path id="パス_7007" data-name="パス 7007" class="cls-7" d="M145.147,261.021a1.377,1.377,0,1,1-1.319-1.432,1.376,1.376,0,0,1,1.319,1.432" transform="translate(-29.155 -53.151)"/>
        <path id="パス_7008" data-name="パス 7008" class="cls-14" d="M143.226,235.63c.125-1.245,25.979,2,26.442,2.335.389.286-.872,3.42-.146,5.323.633,1.66,1.691,2.972.574,3.749s-27.462-.723-28.188-.847-1-.681-.5-1.683c.229-.455.421-2.111.947-3.84.631-2.074.709-5.036.868-5.036" transform="translate(-28.901 -48.187)"/>
        <path id="パス_7009" data-name="パス 7009" class="cls-15" d="M157.324,237.5c-3.14-1.367-10.192-2.183-12.727.437s-3.738,1.5-2.025,4.352c.288.479.639,1.009,1.039,1.554,1.979,2.7,5.156,5.759,7.767,4.647,3.14-1.335,4.024-7.677,5.114-7.9s.646-1.851.832-3.094" transform="translate(-29.028 -48.365)"/>
        <path id="パス_7010" data-name="パス 7010" class="cls-15" d="M163.665,237.852c3.136-1.375,10.186-2.21,12.728.4s3.742,1.492,2.037,4.346a20.082,20.082,0,0,1-2.949,3.626,17.263,17.263,0,0,1-3.6,2.814,4.38,4.38,0,0,1-3.715.627c-3.142-1.327-2.568-8.508-3.659-8.724s-.651-1.85-.841-3.093" transform="translate(-33.51 -48.434)"/>
        <path id="パス_7011" data-name="パス 7011" class="cls-14" d="M156.573,233.573c-2.3-1.669-4.29-2.671-6.3-2.3s-4.686-1.016-4.159,1.531-.865,5.222,2.092,5.09,7.273-2.092,8.512-1.5,1.291-1.851-.148-2.824" transform="translate(-29.904 -47.338)"/>
        <path id="パス_7012" data-name="パス 7012" class="cls-14" d="M165.617,234.481c2.37-1.568,4.4-2.484,6.39-2.021s4.725-.811,4.089,1.71.638,5.254-2.311,4.994-7.175-2.4-8.438-1.868-1.21-1.906.27-2.815" transform="translate(-33.671 -47.572)"/>
        <path id="パス_7013" data-name="パス 7013" class="cls-15" d="M159.915,234.551a3.184,3.184,0,0,1,3.391.084c.891.482,1.322.146.786,1.946s.714,4.455-1.278,4.049-3.781.427-3.741-1.148-.313-3.876.841-4.931" transform="translate(-32.566 -47.931)"/>
        <path id="パス_7014" data-name="パス 7014" class="cls-3" d="M164.162,316.595c.62-1.92-.376-5.028,2.612-5.6,1.867-.359,3.262.487,4.791,2.849s1.81,3.724,1.792,7.071.618,5.152-2.806,4.911c-2.844-.2-5.093-3.563-5.695-4.99s-1.2-2.854-.7-4.238" transform="translate(-33.573 -63.659)"/>
        <path id="長方形_682" data-name="長方形 682" class="cls-5" d="M3.3,0H163.927a3.3,3.3,0,0,1,3.3,3.3v0a3.3,3.3,0,0,1-3.3,3.3H3.3A3.3,3.3,0,0,1,0,3.3v0A3.3,3.3,0,0,1,3.3,0Z" transform="translate(5.309 2.164)"/>
        <path id="パス_7015" data-name="パス 7015" class="cls-16" d="M159.3,103.828c-7.059.357-61.2-1.048-66.659-2.72-1.338-.41-1.733-7.979-1.915-17.62-.015-.494-.023-1-.03-1.5-.3-17.529-.061-40.8-3.5-41.03-2.044-.137-2.728,22.992-7.127,40.718-.137.517-.266,1.026-.4,1.528-2.348,8.821-5.692,16.039-10.706,17.909-14.672,5.447-57.009,1.466-68.961.418,6.519-13.456,14.261-33.2,15.037-58.21a218.926,218.926,0,0,0-.623-25.263l19.816-.076,9.877-.045,39.572-.152,9.878-.046,39.572-.152,9.878-.045,16.085-.061c3.275.289,2.105,56.79,3.777,71.059,2.3,19.7,3.488,14.946-3.564,15.3" transform="translate(0 -3.578)"/>
        <rect id="長方形_683" data-name="長方形 683" class="cls-16" width="9.875" height="18.693" transform="translate(34.228 0)"/>
        <rect id="長方形_684" data-name="長方形 684" class="cls-16" width="9.875" height="18.693" transform="translate(83.678 0)"/>
        <rect id="長方形_685" data-name="長方形 685" class="cls-16" width="9.875" height="18.693" transform="translate(133.127 0)"/>
        <path id="パス_7016" data-name="パス 7016" class="cls-17" d="M93.486,93.761c-.137.517-.266,1.026-.4,1.528h-.076c-7.91-.358-23.2-1.209-26.191-5.882-5.319-8.327,7.5-14.482,7.933-12.521C75,78.032,62.767,81.2,67.8,88.586c2.766,4.073,19.717,4.871,25.264,5.152l.425.023" transform="translate(-13.417 -15.667)"/>
        <path id="パス_7017" data-name="パス 7017" class="cls-17" d="M135.882,90.968c-2.606,3.792-13.631,4.658-21.8,4.878-.015-.494-.022-1-.03-1.5,7.234-.182,18.562-1.063,20.88-4.224,5.28-7.2-6.831-10.8-6.535-11.937.494-1.945,13.091,4.658,7.484,12.788" transform="translate(-23.352 -15.937)"/>
        <path id="パス_7018" data-name="パス 7018" class="cls-17" d="M81.8,75.4a.865.865,0,0,1-.523-.236.524.524,0,0,1,.1-.851c7.934-4.974,4.488-11.937,2.639-14.7-3.688-5.51-.1-10.625,4.8-13.044a.9.9,0,0,1,1.051.208.527.527,0,0,1-.212.833c-4.337,2.143-7.533,6.646-4.306,11.468,4.292,6.411,3.2,12.317-3,16.2a.867.867,0,0,1-.545.118" transform="translate(-16.605 -9.517)"/>
        <path id="パス_7019" data-name="パス 7019" class="cls-17" d="M95.075,76.945a.865.865,0,0,1-.523-.236.523.523,0,0,1,.1-.85c7.934-4.975,4.488-11.938,2.639-14.7-3.688-5.511-.1-10.625,4.8-13.044a.894.894,0,0,1,1.051.208.527.527,0,0,1-.212.833C98.59,51.3,95.393,55.8,98.621,60.624c4.291,6.411,3.2,12.317-3,16.2a.875.875,0,0,1-.546.118" transform="translate(-19.324 -9.834)"/>
        <path id="パス_7020" data-name="パス 7020" class="cls-17" d="M119.457,76.784a.861.861,0,0,1-.544-.183.522.522,0,0,1,.014-.856c7.4-5.745,3.269-12.327,1.153-14.891-4.222-5.113-1.163-10.561,3.466-13.459a.9.9,0,0,1,1.068.1.528.528,0,0,1-.129.85c-4.1,2.567-6.83,7.368-3.136,11.842,4.913,5.948,4.416,11.935-1.362,16.424a.867.867,0,0,1-.53.172" transform="translate(-24.175 -9.678)"/>
        <rect id="長方形_686" data-name="長方形 686" class="cls-5" width="22.874" height="11.258" transform="translate(5.032 119.536)"/>
        <path id="パス_7021" data-name="パス 7021" class="cls-5" d="M29.2,163.228c0,2.665-5.121,4.825-11.437,4.825s-11.436-2.16-11.436-4.825,5.121-4.825,11.436-4.825,11.437,2.16,11.437,4.825" transform="translate(-1.296 -32.433)"/>
        <path id="パス_7022" data-name="パス 7022" class="cls-3" d="M29.2,149.071c0,2.665-5.121,4.825-11.437,4.825s-11.436-2.16-11.436-4.825,5.121-4.825,11.436-4.825,11.437,2.16,11.437,4.825" transform="translate(-1.296 -29.534)"/>
        <path id="パス_7023" data-name="パス 7023" class="cls-6" d="M8.327,156.213q.276,3.539.316,7.09c0,.332.453.124.45-.121q-.041-3.606-.32-7.2c-.022-.292-.464,0-.445.235" transform="translate(-1.705 -31.912)"/>
        <path id="パス_7024" data-name="パス 7024" class="cls-6" d="M13.521,157a84.756,84.756,0,0,0,.435,9.52c.029.293.469,0,.445-.234a83.7,83.7,0,0,1-.43-9.407c0-.332-.448-.124-.45.121" transform="translate(-2.767 -32.085)"/>
        <path id="パス_7025" data-name="パス 7025" class="cls-6" d="M20.377,157.446c.056,3.191,1.1,6.313.806,9.517-.03.329.428.121.45-.121.3-3.208-.749-6.323-.806-9.517-.006-.332-.454-.124-.45.121" transform="translate(-4.172 -32.177)"/>
        <path id="パス_7026" data-name="パス 7026" class="cls-6" d="M27.046,158.683l.064,5.584c0,.332.452.124.45-.121l-.064-5.584c0-.332-.452-.124-.45.121" transform="translate(-5.538 -32.43)"/>
        <path id="パス_7027" data-name="パス 7027" class="cls-6" d="M31.934,155.317a40.2,40.2,0,0,1-.575,9.245c-.058.321.408.113.449-.121a40.639,40.639,0,0,0,.571-9.359c-.015-.29-.458,0-.445.235" transform="translate(-6.42 -31.728)"/>
        <path id="パス_7028" data-name="パス 7028" class="cls-7" d="M5.9,157.837a5.959,5.959,0,0,0,3.416,2.593,26.431,26.431,0,0,0,5,1.234,28.632,28.632,0,0,0,5.456.142,16.7,16.7,0,0,0,5.084-.9,10.635,10.635,0,0,0,4.5-3.18,1.075,1.075,0,0,0,.066-1.315c-.375-.353-.852.069-1.1.37-1.993,2.377-5.135,2.943-7.882,3.084a32.472,32.472,0,0,1-4.81-.031,23.914,23.914,0,0,1-4.74-1.042c-1.323-.413-3.8-1.543-4.578-2.941-.518-.927-.872,1.167-.416,1.985" transform="translate(-1.165 -31.863)"/>
        <path id="パス_7029" data-name="パス 7029" class="cls-8" d="M24.266,152.375c2.72.247,3.511-1.415,5.083-1.257,1.1.11,2.2.523,2.253,3.039s.516,7.35-.472,8.437c-1.048,1.153-5.345,2.253-6.707,2.044-.946-.146-.734-1.31-.891-3.616s-.432-5.331-1.427-5.646-2.253.433-1.467-.72,1.9-2.437,3.629-2.279" transform="translate(-4.175 -30.939)"/>
        <path id="パス_7030" data-name="パス 7030" class="cls-9" d="M89.146,138.939c-.1-.561,1.665-5.464,1.7-5.575a22.032,22.032,0,0,1,2.6-6.111c.886-1.179,5.173-6.783,5.592-7.645s.5-1.8-.134-2.133c-.41-.212-.8.546-.992.495-.179-.082.078-.515.087-1.015.021-1.08.239-1.7-.81-1.68s-1.681.344-1.884-.308,1.173-1.975.4-2.487-1.511.488-2.249,1.219a31.008,31.008,0,0,0-2.5,4.044,9.653,9.653,0,0,1-1.051,1.3c-.457.426-1.119-.835-1.863-.55s.2,6.636.19,7.737c0,.266-3.862,9.751-4.105,10.976-.3,1.506,5.247,3.081,5.012,1.734" transform="translate(-17.224 -23.002)"/>
        <path id="パス_7031" data-name="パス 7031" class="cls-3" d="M69.159,325c1.47-1.678,4.74-7.5,2.321-8.955-1.263-.757-9.837,4.259-10.761,4.241a1.418,1.418,0,0,0-1.161,1.773c.238,1.718.3,3.142.662,3.56,1,1.168,1.828,1.233,3.977,1.3,1.951.056,3.585-.153,4.962-1.914" transform="translate(-12.19 -64.695)"/>
        <path id="パス_7032" data-name="パス 7032" class="cls-9" d="M71.437,315.653c-1.773-2.911-4.031-1.2-6.932-.078-1.87.723-4.708,2.142-5.007,3.28a3.087,3.087,0,0,0,.719,3.276c.98,1.161,3.494,1.987,6.659,1.273,1.367-.309,6.195-5.069,4.562-7.75" transform="translate(-12.147 -64.301)"/>
        <path id="パス_7033" data-name="パス 7033" class="cls-12" d="M82.851,161.731c.129,8.061-2.142,15.462-9.194,16.906-9.566,1.96-8.593-2.515-12.264-6.391-2.583-2.735-.737,1.429.319,9.848a129.384,129.384,0,0,1,1.072,13.859c.037,2.736.045,5.9.037,9.377,0,.137.008.274,0,.41v1.17c-.022,4.87-.076,10.288-.182,15.926-.008.319-.015.631-.015.942-.182,10.03-.5,20.728-.942,30.34-.03.608-.053,1.208-.084,1.8,0,.046-.007.091-.007.137q-.069,1.368-.137,2.69c-.115,2.181-.236,4.293-.365,6.291-.1,1.535-.205,3.016-.312,4.422-.7,9.24-3.32,9.407-4.46,9.536-4.346.494-12.1,1.36-15.326,1.277-1.61-.038-16.974,1.5-16.974-2.941q0-2.28.045-5.121c0-.425.015-.866.023-1.315.03-1.61.084-3.32.137-5.121.03-.775.045-1.572.076-2.371.008-.364.015-.736.03-1.109.152-4.323.35-9,.547-13.76.061-1.367.115-2.758.183-4.133.015-.327.03-.639.037-.965,0-.167.015-.334.015-.5.031-.616.061-1.239.084-1.855.03-.631.06-1.268.091-1.9.167-3.6.327-7.142.479-10.493v-.008c.03-.9.076-1.792.115-2.666.2-4.825.387-9.156.486-12.6.023-.745.038-1.459.06-2.113.053-2.538.053-4.383-.022-5.288-.342-3.868-1.421-7.918-2.257-12.909-.152-.912-.3-1.847-.433-2.834-.06-.38-.114-.775-.159-1.171-.091-.737-.167-1.5-.235-2.272a.365.365,0,0,0-.449-.06c-.41.175-1.011.767-3.358-.22C16.07,185.087,9.528,172.8,8.275,170.537c-.479-.852.03-2.561.911-4.6.251-.569.525-1.178.814-1.785.007-.008.015-.015.015-.023.988-2.067,2.142-4.278,2.933-6.154.152-.357.289-.707.4-1.026a11.079,11.079,0,0,0,.4-1.246c.038-.152.076-.3.122-.456a28.571,28.571,0,0,1,1.542-4.08c.107-.243.213-.494.335-.744.159-.342.312-.684.464-1.018a34.032,34.032,0,0,0,2.461-6.481c.015-.083.038-.16.053-.243a29.168,29.168,0,0,1,3.336-8.563c.144-.258.3-.517.463-.775a35.833,35.833,0,0,1,3.632-4.939,18.543,18.543,0,0,1,9.544-5.5c1.383-.213,2.461-3.07,3.624-3.169,1.239.031,4.841.32,7.682.183,1.732-.091.927,2.181,3.564,3.13,2.142.767,4.787,2.971,7.317,5.486.38.372.752.744,1.117,1.132.1.1.2.2.289.3.289.3.585.608.866.912.6.646,1.178,1.292,1.732,1.922a17.774,17.774,0,0,1,2.439,3.951c.235.472.456.973.677,1.49,1.633,3.754,2.264,3.4,2.682,2.743.806-1.268,1.664-9.467,3.063-10.219,2.363-1.254,8.085,12.05,8.882,14.148a49.809,49.809,0,0,1,2.135,7.416,50.307,50.307,0,0,1,1.086,9.4" transform="translate(-1.657 -24.516)"/>
        <path id="パス_7034" data-name="パス 7034" class="cls-18" d="M30.317,251.919a3.525,3.525,0,0,0,1.324-.547,3.136,3.136,0,0,0,.717-.608c.92-1.051,1.321.564,2.054,2.486.138.359.284.724.445,1.083.777,1.707,3.121-1.191,3.607-3.455a3.465,3.465,0,0,0,.072-.469c.187-2.024,2.594.216,4.523.547a2.2,2.2,0,0,0,.748.018c2.595-.44.859-2.394.156-4.609a5.831,5.831,0,0,1-.184-.713c-.247-1.31.715-1.858,1.667-2.282.849-.389,1.682-.678,1.575-1.359s-1.157-.976-2.105-1.315a2.675,2.675,0,0,1-1.49-.9c-.4-.712.142-1.439.569-2.192a1.774,1.774,0,0,0,.215-1.893c-1.047-1.737-1.927-.076-3.623.546a3.208,3.208,0,0,1-1.016.223c-2.093.112-1.133-1-1.567-2.227a2.113,2.113,0,0,0-.3-.539c-.778-1.021-2.147-.213-3.213,1.142a8.092,8.092,0,0,0-1.045,1.757c-.6.78-1.27-.393-1.971-1.4V235.2a8.275,8.275,0,0,0-.5-.66c-.016.655-.033,1.365-.058,2.112-.1,3.438-.278,7.776-.485,12.6-.036.871-.08,1.764-.117,2.666" transform="translate(-6.207 -47.759)"/>
        <path id="パス_7035" data-name="パス 7035" class="cls-8" d="M30.95,236.486c-.1,3.438-.278,7.776-.485,12.6a.059.059,0,0,0,.032-.015c1.025-.631,1.1.5,1.175,2.134.031.618.061,1.321.145,2.017.142,1.168,1.416.8,2.626-.138a6.941,6.941,0,0,0,2.057-2.5c.442-1.061,1.149-.62,1.994.133.861.761,1.862,1.841,2.868,1.981,1.645.232,1.828-.643,1.727-1.9a16.586,16.586,0,0,1-.164-3.182,1.581,1.581,0,0,1,1.067-1.409c1.2-.488,2.973-.115,3.119-1.1.1-.692-.825-1.284-1.637-1.9a2.662,2.662,0,0,1-1.134-1.292,1.513,1.513,0,0,1,.6-1.381c.678-.655,1.61-1.257,1.365-2.282-.351-1.451-1.161-1.123-2.287-.81a4.344,4.344,0,0,1-2.372.16c-1.38-.357-1.245-.832-1.036-1.506A2.419,2.419,0,0,0,40.7,234.4c-.362-1-1.49-.922-2.669-.31a7.981,7.981,0,0,0-2.257,1.805c-.651.455-.957-.293-1.252-1.2-.344-1.119-.651-2.492-1.482-2.218-.964.317-1.3,1.543-1.534,2.563v.008c-.173.767-.289,1.412-.559,1.444" transform="translate(-6.238 -47.591)"/>
        <path id="パス_7036" data-name="パス 7036" class="cls-18" d="M55.25,302.208c-.072.114-.144.22-.216.334-1.248,1.883,1.345,2.469,3.14,1.286a3.31,3.31,0,0,0,.709-.608c.92-1.051,1.322.563,2.054,2.486.138.358.284.724.445,1.082.777,1.708,3.121-1.191,3.607-3.455a3.434,3.434,0,0,0,.072-.468c.187-2.024,2.594.216,4.523.547l.2.028c.111-1.409.216-2.888.313-4.42.133-2,.252-4.113.366-6.293a1.294,1.294,0,0,1-.513-.476c-.4-.711.142-1.439.569-2.193.032-.052.056-.107.088-.16.03-.593.052-1.194.082-1.8-1.026-1.621-1.905,0-3.579.617a3.252,3.252,0,0,1-1.016.223c-2.085.112-1.14-1-1.567-2.22a2.154,2.154,0,0,0-.3-.547c-.778-1.013-2.147-.213-3.213,1.143a8.071,8.071,0,0,0-1.044,1.757c-.605.78-1.271-.393-1.972-1.4-.537-.776-1.092-1.445-1.657-1.05a1.937,1.937,0,0,0-.705,1.449c-.124,1.008.134,2.17.059,2.717-.038.3-.172.42-.522.219-1.841-1.055-3.552.147-1.749,1.525a4.65,4.65,0,0,0,.479.328c1.643.972.856,1.94-.236,2.146a1.137,1.137,0,0,0-.233.072c-1.153.481-2.992,2.868,1.47,3.059a1.59,1.59,0,0,1,.346.039c1.714.272,1.223,2.088,0,4.041" transform="translate(-10.66 -58.5)"/>
        <path id="パス_7037" data-name="パス 7037" class="cls-8" d="M55.332,298a10.1,10.1,0,0,1-1.723,1.733c-1.5,1.222-.033,2.375,1.719,2.309a3.594,3.594,0,0,0,1.739-.514c1.026-.631,1.1.5,1.184,2.134.024.618.061,1.321.145,2.017.142,1.168,1.408.8,2.618-.138a6.948,6.948,0,0,0,2.057-2.5c.441-1.054,1.148-.613,1.994.133.861.768,1.862,1.849,2.876,1.989,1.645.224,1.821-.651,1.72-1.911a16.686,16.686,0,0,1-.164-3.182,1.6,1.6,0,0,1,.677-1.21c.133-2,.252-4.113.366-6.293.044-.886.088-1.78.133-2.689-.023.007-.046.014-.077.021a4.337,4.337,0,0,1-2.372.159c-1.38-.356-1.245-.824-1.036-1.505a2.42,2.42,0,0,0,.087-1.695c-.362-1-1.49-.922-2.67-.3a7.839,7.839,0,0,0-2.256,1.8c-.651.455-.957-.293-1.252-1.2-.344-1.119-.651-2.492-1.482-2.218-.972.317-1.31,1.55-1.534,2.57s-.352,1.835-.886,1.26a2.7,2.7,0,0,0-1.477-.86c-1.037-.164-1.66.724-.292,2.245a2.567,2.567,0,0,1,.351.472c.683,1.1-.247,1.621-1.224,1.505a2.176,2.176,0,0,0-1.047.238c-.967.455-1.794,1.492.01,2.546a8.782,8.782,0,0,0,1.282.57c1.385.5,1.323,1.458.534,2.527" transform="translate(-10.739 -58.331)"/>
        <path id="パス_7038" data-name="パス 7038" class="cls-18" d="M59.445,184.485c.942-1.167,2.635-2.053,3.042-1.024s-.808,1.652.654,1.979,2.516-1.127,2.913.32c.281,1.021-1.377,1.416-1.158,2.318.174.72,1.866,1.213,1.784,1.935-.1.894-2.423.063-2.562,1.64s.927,3.393-.878,3.2c-1.253-.134-2.554-2.577-3.07-1.231S57.49,196.6,57.3,195.357c-.238-1.565-.037-3.129-.9-2.562-1.335.876-3.411,0-2.193-1.055,1.247-1.076,1.991-2.243.666-2.676-2.833-.926-.9-2.146-.214-2.086s1.328-.388.507-1.249c-1.274-1.335.068-1.913,1.072-.9.689.7.243-2,1.439-2.431.933-.337.885,2.735,1.766,2.084" transform="translate(-10.929 -37.341)"/>
        <path id="パス_7039" data-name="パス 7039" class="cls-8" d="M60.865,184.448c1.249-.832,3.129-1.171,3.209-.068s-1.264,1.334.033,2.084,2.737-.322,2.684,1.176c-.037,1.058-1.737.939-1.8,1.866-.049.739,1.418,1.716,1.124,2.379-.364.823-2.331-.665-2.934.8s-.13,3.515-1.795,2.793c-1.156-.5-1.668-3.222-2.562-2.092s-3.447,2.039-3.256.8c.241-1.566.9-3-.093-2.715-1.536.436-3.254-1.022-1.777-1.66,1.512-.655,2.571-1.546,1.435-2.356-2.426-1.73-.221-2.318.42-2.054s1.384.028.857-1.04c-.816-1.655.638-1.8,1.291-.534.449.871.829-1.835,2.1-1.89.991-.043.027,2.874,1.062,2.516" transform="translate(-10.879 -37.251)"/>
        <path id="パス_7040" data-name="パス 7040" class="cls-18" d="M9.468,174.971a2.916,2.916,0,0,0,1.536-.4,1.272,1.272,0,0,1,.211-.087c1.066-.36,1.338.826,1.233,2.321-.01.084-.012.177-.022.262-.142,1.455,1.519,1,2.181-.219a2.109,2.109,0,0,0,.222-.565c.206-.882.935-.078,1.932.794.189.158.386.325.59.484.962.748,1.427-1.632,1.007-3.077a1.627,1.627,0,0,0-.094-.288c-.519-1.215,1.559-.657,2.763-1.052a1.512,1.512,0,0,0,.429-.221c1.351-1.04-.239-1.626-1.317-2.685a3.5,3.5,0,0,1-.323-.355c-.54-.677-.155-1.284.251-1.815.374-.484.77-.907.5-1.26s-.952-.2-1.6-.115a1.734,1.734,0,0,1-1.132-.058c-.449-.288-.357-.864-.344-1.42a1.154,1.154,0,0,0-.451-1.152c-1.125-.674-1.123.536-1.9,1.412a2.184,2.184,0,0,1-.52.435c-.578.349-.816.289-.981.077-.116.321-.255.665-.4,1.024-.793,1.878-1.948,4.088-2.939,6.154,0,.008-.008.015-.016.023-.285.61-.561,1.213-.814,1.785" transform="translate(-1.939 -33.551)"/>
        <path id="パス_7041" data-name="パス 7041" class="cls-8" d="M11.425,174.588a6.5,6.5,0,0,1-.46,1.524c-.483,1.161.716,1.367,1.694.8a2.366,2.366,0,0,0,.837-.821c.394-.669.788-.043,1.322.864.208.344.437.736.7,1.112.432.627,1.048.025,1.455-.883a4.323,4.323,0,0,0,.419-2.057c-.068-.735.472-.7,1.178-.535a4.479,4.479,0,0,0,2.253.27c1.012-.369.855-.921.417-1.61a10.5,10.5,0,0,1-1.069-1.777,1.031,1.031,0,0,1,.181-1.129c.532-.643,1.666-.971,1.449-1.578-.152-.436-.868-.484-1.521-.592a1.789,1.789,0,0,1-1.032-.394.961.961,0,0,1-.069-.981c.184-.582.53-1.206.08-1.711-.639-.725-1-.294-1.556.233a2.9,2.9,0,0,1-1.307.81c-.9.218-.961-.1-1.043-.55a1.671,1.671,0,0,0-.47-1,.652.652,0,0,0-.52-.19c-.042.154-.084.3-.118.452a12.045,12.045,0,0,1-.392,1.248c-.116.321-.255.665-.4,1.024-.793,1.878-1.948,4.088-2.939,6.154,0,.008-.007.015-.016.023.827-.065,1.054.488.934,1.295" transform="translate(-2.148 -33.658)"/>
        <path id="パス_7042" data-name="パス 7042" class="cls-18" d="M63.435,140.953a2.509,2.509,0,0,0,.672-.045c.977-.208.519.884.108,2.286-.068.26-.144.536-.205.813-.293,1.312,2.291.656,3.528-.425a1.762,1.762,0,0,0,.245-.233c.974-1.08,1.382,1.236,2.345,2.246a1.626,1.626,0,0,0,.417.326c1.668.858,1.513-1,2.066-2.565a3.66,3.66,0,0,1,.189-.481c.421-.854,1.206-.751,1.927-.594.652.146,1.249.338,1.483-.1s-.246-1.039-.632-1.635a1.94,1.94,0,0,1-.474-1.16.712.712,0,0,1,.164-.374,17.78,17.78,0,0,0-2.437-3.946c-.556-.63-1.134-1.276-1.736-1.923-.109.051-.211.111-.313.169-.535.142-.577-.414-.553-1.085-.09-.1-.188-.205-.286-.3-.368-.387-.737-.759-1.114-1.137a.545.545,0,0,0-.095.09c-.491.521-.849,1.291-1.125,1.578-.142.158-.274.163-.39-.1-.608-1.388-2.08-1.438-1.646.122a4.032,4.032,0,0,0,.138.389c.518,1.262-.344,1.473-1.061,1.124a.871.871,0,0,0-.153-.058c-.859-.221-2.947.347-.472,2.365a2.14,2.14,0,0,1,.188.174c.843.891-.21,1.715-1.737,2.3a2.6,2.6,0,0,1-.264.1c-1.517.542-.3,1.975,1.223,2.073" transform="translate(-12.595 -26.78)"/>
        <path id="パス_7043" data-name="パス 7043" class="cls-8" d="M62.489,138.734a2.521,2.521,0,0,0,1.209.453c.853.074.406.758-.249,1.722-.248.364-.521.774-.771,1.208-.418.723.462,1.052,1.55,1.031a4.819,4.819,0,0,0,2.25-.54c.7-.415.914.145,1.074.928a4.855,4.855,0,0,0,.792,2.356c.844.83,1.317.41,1.8-.343a12.035,12.035,0,0,1,1.264-1.89,1.14,1.14,0,0,1,1.218-.349c.89.237,1.738,1.206,2.236.709.355-.354.08-1.086-.119-1.785a1.861,1.861,0,0,1-.1-1.213,1.047,1.047,0,0,1,.946-.518c.115-.021.247-.033.371-.045-.226-.515-.446-1.013-.682-1.49a17.743,17.743,0,0,0-2.436-3.945c-.555-.631-1.134-1.276-1.735-1.924-.278-.307-.573-.607-.866-.915-.091-.1-.188-.2-.285-.3-.41.345-.683.524-.736.076a1.842,1.842,0,0,0-.474-1.122c-.511-.529-1.25-.3-1.122,1.161a2,2,0,0,1,0,.417c-.076.916-.829.821-1.335.338a1.557,1.557,0,0,0-.7-.317c-.746-.149-1.66.091-1.077,1.455a5.794,5.794,0,0,0,.48.876c.574.869.13,1.392-.763,1.663a6.807,6.807,0,0,1-1.735.252c-1.382.052-1.035,1.349,0,2.052" transform="translate(-12.609 -26.736)"/>
        <path id="パス_7044" data-name="パス 7044" class="cls-7" d="M27.851,206.424a.31.31,0,0,0,.054,0,.289.289,0,0,0,.238-.332c-.089-.541-.183-1.062-.275-1.577a42.959,42.959,0,0,1-.821-7.336c-.11-4.563,1.527-9.619,2.313-12.048a.289.289,0,1,0-.55-.179c-.8,2.46-2.453,7.579-2.341,12.24a43.26,43.26,0,0,0,.83,7.424c.091.513.184,1.031.274,1.57a.289.289,0,0,0,.278.242" transform="translate(-5.418 -37.827)"/>
        <path id="パス_7045" data-name="パス 7045" class="cls-4" d="M29.2,279.285l16.327.388a1.109,1.109,0,0,0,1.249-.9c.013-.517-.526-.946-1.2-.962l-.794-.018a.971.971,0,1,1,.045-1.874l6.622.157a1.117,1.117,0,0,0,1.256-.9c.012-.509-.534-.946-1.211-.962l-9.413-.223c-.678-.016-1.224-.446-1.212-.962a1.079,1.079,0,0,1,1.124-.9l.586.014a.949.949,0,1,0,.045-1.9l-13.006-.309-.091,1.9,1.472.035a1.079,1.079,0,0,1,1.081.951,1.116,1.116,0,0,1-1.256.9l-1.381-.033c0,.169-.015.332-.019.5-.008.324-.023.639-.038.963-.064,1.379-.12,2.766-.184,4.138" transform="translate(-5.978 -55.268)"/>
        <path id="パス_7046" data-name="パス 7046" class="cls-4" d="M51.487,219.73c-.012.517.525.946,1.2.962l6.622.157c.686.016,1.224.453,1.212.962a1.117,1.117,0,0,1-1.256.911l-.794-.019a.968.968,0,1,0-.045,1.866l13.282.316c.006-3.471,0-6.642-.039-9.373l-9.891-.235a.952.952,0,0,0-.045,1.9l.593.014a1.07,1.07,0,0,1,1.073.951,1.107,1.107,0,0,1-1.248.9l-9.421-.223a1.108,1.108,0,0,0-1.248.9" transform="translate(-10.542 -44.078)"/>
        <path id="パス_7047" data-name="パス 7047" class="cls-4" d="M28.2,308.494c-.01.447-.02.887-.023,1.319l7.409.176a.664.664,0,1,0,.029-1.28l-3.144-.075a.668.668,0,1,1,.03-1.288l.594.014a.764.764,0,0,0,.863-.619c.008-.355-.363-.649-.833-.66l-2.914-.069a.769.769,0,0,1-.832-.668.731.731,0,0,1,.77-.614l6.4.152a.656.656,0,0,0,.032-1.311l-8.241-.2c-.058,1.8-.107,3.507-.138,5.118" transform="translate(-5.769 -62.116)"/>
        <path id="パス_7048" data-name="パス 7048" class="cls-4" d="M18.3,155.373l7.5.178a.772.772,0,0,0,.872-.635c.009-.363-.363-.664-.84-.676l-.556-.013c-.47-.011-.849-.313-.84-.668a.777.777,0,0,1,.872-.635l4.625.11a.781.781,0,0,0,.879-.635c.009-.355-.37-.657-.848-.668l-6.576-.157c-.471-.011-.856-.313-.848-.676a.762.762,0,0,1,.787-.629l.408.01a.662.662,0,0,0,.678-.647.656.656,0,0,0-.647-.67l-3.007-.072a34.57,34.57,0,0,1-2.461,6.482" transform="translate(-3.747 -30.486)"/>
        <path id="パス_7049" data-name="パス 7049" class="cls-18" d="M63.52,248.1c.441-1.028,1.478-2.006,1.978-1.349s-.247,1.348.868,1.288,1.58-1.317,2.157-.358c.408.677-.7,1.295-.364,1.9.27.482,1.585.495,1.672,1.029.107.663-1.727.534-1.509,1.7s1.35,2.25.015,2.476c-.926.157-2.355-1.334-2.453-.264s-1.323,2.678-1.71,1.824c-.487-1.076-.658-2.24-1.164-1.659-.782.9-2.449.687-1.787-.314.678-1.024.977-2.014-.061-2.057-2.221-.093-1.082-1.359-.575-1.455s.876-.547.112-1c-1.183-.7-.336-1.388.589-.86.635.362-.229-1.485.543-2.037.6-.43,1.188,1.786,1.689,1.14" transform="translate(-12.252 -50.48)"/>
        <path id="パス_7050" data-name="パス 7050" class="cls-8" d="M64.623,247.77c.728-.849,2.01-1.473,2.29-.7s-.639,1.214.444,1.49,1.9-.784,2.165.3c.187.767-1.058,1.025-.915,1.7.115.541,1.365.946,1.288,1.482-.1.665-1.808-.007-1.946,1.167s.616,2.55-.725,2.367c-.931-.127-1.849-1.978-2.263-.985s-2.064,2.16-2.177,1.229c-.143-1.172.042-2.334-.615-1.931-1.016.623-2.543-.077-1.611-.834.954-.775,1.534-1.629.556-1.981-2.092-.752-.627-1.62-.114-1.559s1-.26.406-.92c-.919-1.024.094-1.425.82-.646.5.535.224-1.485,1.127-1.781.7-.231.6,2.059,1.271,1.593" transform="translate(-12.289 -50.401)"/>
        <path id="パス_7051" data-name="パス 7051" class="cls-18" d="M37.062,203.621c.441-1.028,1.478-2.006,1.978-1.35s-.247,1.349.868,1.289,1.58-1.317,2.157-.359c.408.677-.7,1.3-.363,1.9.27.482,1.584.495,1.671,1.029.107.663-1.727.534-1.509,1.695s1.35,2.251.015,2.476c-.926.157-2.355-1.334-2.453-.264s-1.323,2.678-1.71,1.824c-.487-1.076-.658-2.24-1.164-1.659-.782.9-2.449.687-1.787-.314.678-1.025.977-2.014-.061-2.057-2.221-.093-1.082-1.359-.575-1.455s.876-.547.112-1c-1.183-.7-.336-1.388.589-.86.635.361-.229-1.485.543-2.037.6-.43,1.188,1.785,1.689,1.14" transform="translate(-6.835 -41.371)"/>
        <path id="パス_7052" data-name="パス 7052" class="cls-8" d="M38.165,203.285c.728-.849,2.01-1.473,2.29-.7s-.639,1.214.444,1.49,1.9-.784,2.165.3c.187.767-1.058,1.025-.915,1.7.115.54,1.365.946,1.288,1.482-.1.665-1.808-.007-1.946,1.167s.616,2.55-.725,2.367c-.931-.127-1.849-1.978-2.263-.985s-2.064,2.16-2.177,1.229c-.143-1.172.042-2.334-.615-1.931-1.016.623-2.543-.077-1.611-.834.954-.775,1.534-1.629.556-1.981-2.092-.752-.627-1.62-.114-1.559s1-.26.406-.92c-.919-1.024.094-1.425.82-.646.5.535.224-1.485,1.127-1.781.7-.231.6,2.059,1.271,1.593" transform="translate(-6.872 -41.293)"/>
        <path id="パス_7053" data-name="パス 7053" class="cls-18" d="M40.976,133.1c.441-1.028,1.478-2.006,1.978-1.349s-.247,1.348.868,1.288,1.58-1.317,2.157-.358c.408.677-.7,1.295-.363,1.9.27.482,1.584.495,1.671,1.029.107.663-1.727.534-1.509,1.7s1.35,2.25.016,2.476c-.926.157-2.356-1.334-2.454-.264s-1.323,2.678-1.71,1.824c-.487-1.076-.658-2.24-1.163-1.659-.783.9-2.45.687-1.788-.314.678-1.024.977-2.014-.061-2.057-2.221-.093-1.082-1.359-.575-1.455s.876-.547.112-1c-1.183-.7-.336-1.388.589-.86.635.361-.229-1.485.543-2.037.6-.43,1.188,1.785,1.689,1.14" transform="translate(-7.636 -26.933)"/>
        <path id="パス_7054" data-name="パス 7054" class="cls-8" d="M42.079,132.77c.728-.849,2.01-1.473,2.29-.7s-.639,1.214.444,1.49,1.9-.784,2.165.3c.187.767-1.058,1.025-.915,1.7.115.54,1.365.946,1.288,1.482-.1.665-1.808-.007-1.947,1.167s.616,2.55-.725,2.367c-.93-.127-1.848-1.978-2.262-.985s-2.064,2.16-2.177,1.229c-.143-1.172.042-2.334-.615-1.931-1.016.623-2.543-.077-1.611-.834.954-.775,1.534-1.629.556-1.981-2.092-.752-.627-1.621-.114-1.559s1-.26.406-.92c-.92-1.024.094-1.425.82-.646.5.535.224-1.485,1.127-1.781.7-.231.6,2.059,1.271,1.593" transform="translate(-7.674 -26.855)"/>
        <path id="パス_7055" data-name="パス 7055" class="cls-4" d="M97.333,170.08,85.769,169.8a.966.966,0,1,1,.038-1.861l.8.015a1.109,1.109,0,0,0,1.254-.912c.015-.509-.525-.942-1.209-.957l-6.625-.159c-.676-.015-1.216-.449-1.2-.957a1.1,1.1,0,0,1,1.246-.9l9.422.22a1.106,1.106,0,0,0,1.246-.9,1.065,1.065,0,0,0-1.072-.95l-.592-.016a.95.95,0,0,1,.046-1.9l7.127.167a50.307,50.307,0,0,1,1.086,9.4" transform="translate(-16.139 -32.865)"/>
        <path id="パス_7056" data-name="パス 7056" class="cls-3" d="M34.237,315.738c1.742-1.908,2.726-5.777,5.822-5.257,1.934.325,2.7,1.816,2.658,5.059s-.613,4.876-2.674,8.617-2.581,6.012-5.577,4.407c-2.489-1.332-2.5-5.975-2.18-7.808s.639-3.666,1.952-5.017" transform="translate(-6.581 -63.561)"/>
        <path id="パス_7057" data-name="パス 7057" class="cls-4" d="M34.3,168.982c1.043.025,28.237,1.159,28.773,1.571.452.347.172,4.869.98,7.129.7,1.97,1.918,3.54.584,4.428s-32.324-1.532-33.176-1.7-1.162-.827-.543-1.994a25.5,25.5,0,0,0,2.007-4.334c.794-2.428,1.188-5.109,1.376-5.1" transform="translate(-6.264 -34.599)"/>
        <path id="パス_7058" data-name="パス 7058" class="cls-11" d="M44.1,164.881c-3.742-1.5-12.073-2.231-14.971.939s-4.351,1.893-2.239,5.191,3.281,6.314,6.933,4.636,8.124-6.8,9.4-7.1.7-2.2.877-3.672" transform="translate(-5.3 -33.497)"/>
        <path id="パス_7059" data-name="パス 7059" class="cls-11" d="M51.553,165.1c3.647-1.724,11.92-2.942,15,.051s4.456,1.632,2.543,5.049-2.9,6.5-6.646,5.039-8.513-6.309-9.8-6.527-.828-2.156-1.093-3.613" transform="translate(-10.556 -33.442)"/>
        <path id="パス_7060" data-name="パス 7060" class="cls-4" d="M43.056,160.318c-2.763-1.889-5.14-3-7.49-2.492s-5.551-1.04-4.846,1.941-.845,6.177,2.632,5.922,8.493-2.7,9.972-2.051,1.459-2.224-.268-3.32" transform="translate(-6.27 -32.29)"/>
        <path id="パス_7061" data-name="パス 7061" class="cls-4" d="M53.763,161.075c2.738-1.926,5.1-3.07,7.456-2.593s5.536-1.113,4.872,1.877.926,6.165-2.554,5.957-8.527-2.592-10-1.918-1.489-2.2.224-3.323" transform="translate(-10.74 -32.427)"/>
        <path id="パス_7062" data-name="パス 7062" class="cls-11" d="M47.044,161.382a3.75,3.75,0,0,1,4-.014c1.066.538,1.562.128.991,2.265s.989,5.222-1.37,4.81-4.437.629-4.442-1.228-.5-4.554.826-5.834" transform="translate(-9.444 -32.922)"/>
        <path id="パス_7063" data-name="パス 7063" class="cls-9" d="M45.912,108.579C44.046,102.949,44.076,95.6,51,93.766s9.828,4.027,10.958,5.679c1.387,2.025-.92,4.519,1.167,6.742-.175,4.318-.791,5.036-1.329,5.962a10.367,10.367,0,0,1-5.159,4.189c-1.793.527-4.465-.487-5.973-1.446a12.39,12.39,0,0,1-3.165-2.871,2.513,2.513,0,0,1-1.651-.711,3.793,3.793,0,0,1-.947-2,.777.777,0,0,1,1.006-.737" transform="translate(-9.186 -19.127)"/>
        <path id="パス_7064" data-name="パス 7064" class="cls-10" d="M49.166,90.27a14.965,14.965,0,0,0-6.612.834,12.75,12.75,0,0,0-4.525,4.71c-.93,1.885-1,4.7-.821,7.906.188,3.4,2.81,7.431,2.686,9.693-.114,2.057-3.248,3.213-3.145,4.209.089.86,2.763,1.629,4.707,2.021,3.028.608,15.709-1.363,17.6-2.836,1.208-.94-2.569-2.689-2.453-4.962.186-3.649-2.749-4.095-2.123-5.712.507-1.309.865-1.121,1.521-.616s.934-2.346,1.289-3.865c.451-1.93,2.254-4.455,1.8-6.372s-6.506-4.6-9.923-5.011" transform="translate(-7.524 -18.469)"/>
      </g>
    </g>
    <g id="グループ_707" data-name="グループ 707" transform="translate(451.818 6914.872)">
      <g id="グループ_706" data-name="グループ 706" class="cls-19">
        <path id="パス_7065" data-name="パス 7065" class="cls-13" d="M3.683,52.009c.661,1.521.59,2.732-.623,3.583s-2.1-.172-3.05-.766a1.953,1.953,0,0,0,2.033,2.2,3.508,3.508,0,0,0,3.273-3.68C5.2,52.623,4.9,52.06,3.683,52.009" transform="translate(125.792 -10.649)"/>
        <path id="パス_7066" data-name="パス 7066" class="cls-13" d="M1.628,38.92c1.614,3.2,1.411,4.352-1.043,5.953.769.9,1.128.948,1.825.227a4.626,4.626,0,0,0,.411-5.978c-.283-.374-.283-.374-1.194-.2" transform="translate(126.942 -7.946)"/>
        <path id="パス_7067" data-name="パス 7067" class="cls-13" d="M11.225,43.26c-.2-1.246-.628-2.464.468-3.16a14.317,14.317,0,0,1,2.97-1.069c-.181-.273-.3-.616-.433-.624a6.184,6.184,0,0,0-2.029.045,3.35,3.35,0,0,0-2.343,3.492c.035.729.18,1.367,1.366,1.316" transform="translate(108.634 -7.851)"/>
        <path id="パス_7068" data-name="パス 7068" class="cls-13" d="M16.2,52.909a2.857,2.857,0,0,0-.717-.064c-1.452.24-2.664.148-3.05-1.657-.124-.585-.663-.718-1.206-.338.282,2.328.961,3.073,2.917,3.2,1.474.1,1.785-.063,2.056-1.144" transform="translate(106.008 -10.368)"/>
        <path id="パス_7069" data-name="パス 7069" class="cls-13" d="M141.5,90.016a2.953,2.953,0,0,0,3.2,3.283,4.831,4.831,0,0,0,3.738-2.6c.219-.6.371-1.258-.682-1.51a4.013,4.013,0,0,1-2.691,2.883c-1.557.4-2.387-.794-3.562-2.051" transform="translate(-129.983 -18.26)"/>
        <path id="パス_7070" data-name="パス 7070" class="cls-13" d="M164.023,71.568a2.968,2.968,0,0,0-1.091.177,6,6,0,0,0-2.211,5.531c.282,1.183.685,1.489,1.856,1.4-1.212-3.221-1.21-3.227,1.446-7.107" transform="translate(-160.632 -14.654)"/>
        <path id="パス_7071" data-name="パス 7071" class="cls-13" d="M148.143,74.094a7.237,7.237,0,0,0,1.223-.614c1.843-1.4,2.429-1.4,4.3.056a2.5,2.5,0,0,0,.674.248,2.3,2.3,0,0,0-2.3-2.453,3.311,3.311,0,0,0-3.9,2.762" transform="translate(-141.019 -14.597)"/>
        <path id="パス_7072" data-name="パス 7072" class="cls-13" d="M160.788,86.379l-2.47,0c.153-.8.255-1.333.359-1.87.1-.5.2-1.009.341-1.734a3.431,3.431,0,0,0-1.781,3.439,2.444,2.444,0,0,0,2.394,1.536c.9.052,1-.068,1.156-1.375" transform="translate(-154.649 -16.949)"/>
        <path id="パス_7073" data-name="パス 7073" class="cls-13" d="M141.52,77.984c.8.607,1.681.961,1.971,1.591s0,1.545-.044,2.4a2.186,2.186,0,0,0,1.144-2.93c-.508-1.25-1.346-1.573-3.07-1.056" transform="translate(-126.191 -15.919)"/>
        <path id="パス_7074" data-name="パス 7074" class="cls-8" d="M146.813.018c.9.278-2.636,5.926-1.626,9.689.616,2.293,3.4,1.821,4.4,5.011.492,1.581-.916,3.1,1.187,4.643a16.754,16.754,0,0,1,7.293,7.132c1.579,3.1,2.286,9.563,1.765,9.839s-2.312-6.116-3.688-8.457c-2.046-3.481-6.348-4.6-7.952-5.926-2.811-2.327-.706-6.235-2.547-7.514a5.677,5.677,0,0,1-3.033-3.424c-2-5.814,3.01-11.359,4.206-10.992" transform="translate(-141.901 0)"/>
        <path id="パス_7075" data-name="パス 7075" class="cls-8" d="M124,6.663c.665.348-1.964,6.8-1.237,11.2.444,2.679,2.5,2.213,3.215,5.944.355,1.85-.687,3.576.855,5.424a17.774,17.774,0,0,1,5.339,8.491c1.15,3.645,1.643,11.168,1.259,11.473s-1.677-7.168-2.68-9.925c-1.492-4.1-4.654-5.521-5.83-7.11-2.059-2.783-.494-7.259-1.843-8.8a6.52,6.52,0,0,1-2.218-4.063C119.411,12.5,123.118,6.2,124,6.663" transform="translate(-98.269 -1.359)"/>
        <path id="パス_7076" data-name="パス 7076" class="cls-9" d="M83.163,46.659c-.315.007-3.47-.029-3.866-.056a27.689,27.689,0,0,1-.977,3.842,35.382,35.382,0,0,1-2.157,4.014c.734,1.064,8.892.842,10.445-.238-.837-.378-2.4-3.045-2.659-4.192s-.777-2.937-.787-3.369" transform="translate(-16.042 -9.542)"/>
        <path id="パス_7077" data-name="パス 7077" class="cls-9" d="M110.406,129.167c-.585.566-3.645.092-4.361-.141-.778-.252-1.845-.64-1.992-1.228-.231-.923-.635-.821-.581-2.151.039-.969-.262-.9-.681-1.977-.184-.472-.424-2.854.115-3.355.476-.441,1.88-.732,3.92-1.867s4.632,10.178,3.581,10.719" transform="translate(-61.086 -24.236)"/>
        <path id="パス_7078" data-name="パス 7078" class="cls-20" d="M42.466,31.176c.117,1.657.545,3.376,1.369,3.823,1.1.6,1.521-.54,1.93-1.049.578-.718.755.735,2.645,1.273,1.19.338,10.9-.311,12.99-.478s4.82-.038,5.246-1.48.666-5.774-.7-7.336c-1.586-1.817-16.973.411-17.744.609-1.855.476-2.266,2.362-2.963,1.466-.621-.8-1.39-1.031-1.893-.633-.587.464-1.008,2.064-.884,3.805" transform="translate(30.4 -5.164)"/>
        <path id="パス_7079" data-name="パス 7079" class="cls-21" d="M48.8,29.042c-1.89.3-1.619,2.027-2.437,2.686-1.128.909-2.122.249-2.437,1.243-.158.5,1.989,1.94,3.505,1.914.507-.009,9.816-.527,10.8-.53a15.045,15.045,0,0,0,4.264-.526c.622-.371.75-2.183.558-4.08s-.19-2.753-1.532-3.024-8.325.157-9.042.627a11.336,11.336,0,0,1-3.68,1.691" transform="translate(33.065 -5.455)"/>
        <path id="パス_7080" data-name="パス 7080" class="cls-21" d="M71.57,32.334c0-.121-.01-.245-.015-.372a4.436,4.436,0,0,0-.825-2.644.186.186,0,0,0-.269.258,4.067,4.067,0,0,1,.721,2.4,4.919,4.919,0,0,1-.337,2.725.186.186,0,1,0,.321.188,4.634,4.634,0,0,0,.4-2.558" transform="translate(3.561 -5.991)"/>
        <path id="パス_7081" data-name="パス 7081" class="cls-3" d="M90.178,257.317c1.835-2.093,5.913-9.359,2.895-11.169-1.575-.945-12.271,5.312-13.424,5.29a1.767,1.767,0,0,0-1.448,2.211c.3,2.142.38,3.92.826,4.441,1.25,1.457,2.28,1.538,4.961,1.615,2.433.071,4.472-.19,6.19-2.387" transform="translate(-25.185 -50.379)"/>
        <path id="パス_7082" data-name="パス 7082" class="cls-9" d="M94.116,245.656c-2.211-3.631-5.028-1.5-8.647-.1-2.333.9-5.874,2.671-6.246,4.091a3.848,3.848,0,0,0,.9,4.086c1.222,1.448,4.358,2.477,8.306,1.588,1.706-.384,7.727-6.322,5.69-9.668" transform="translate(-26.228 -49.887)"/>
        <path id="パス_7083" data-name="パス 7083" class="cls-3" d="M66.233,257.506c1.835-2.093,5.913-9.359,2.9-11.169-1.576-.945-12.271,5.312-13.425,5.29a1.767,1.767,0,0,0-1.448,2.211c.3,2.142.38,3.92.826,4.44,1.25,1.458,2.28,1.539,4.961,1.616,2.433.071,4.472-.19,6.19-2.387" transform="translate(17.803 -50.418)"/>
        <path id="パス_7084" data-name="パス 7084" class="cls-9" d="M70.171,245.845c-2.211-3.631-5.028-1.5-8.648-.1-2.332.9-5.873,2.671-6.245,4.091a3.851,3.851,0,0,0,.9,4.087c1.222,1.447,4.358,2.477,8.306,1.587,1.706-.384,7.727-6.322,5.69-9.668" transform="translate(16.76 -49.926)"/>
        <path id="パス_7085" data-name="パス 7085" class="cls-9" d="M43.506,44.794A43.276,43.276,0,0,0,42.313,39.8c-.588-2.532-3.624-3.251-4.229-4.267-.6-.547-1.22-2.1-.252-2.506.474-.2.663.34.838-.019,0,0-.906-1.108-.719-1.837.2-.791.524-1.881,1.1-2.064.907-.288.78-.686,2.111-.715.97-.021.884-.318,1.93-.8.46-.213,2.822-.6,3.356-.1.471.447.848,1.83,2.109,3.795s-1.014,5.638-1.054,6.981c-.014.452,3.623,12.764,4.844,16.889,1.112,4.733-5.2,4.814-6.651-.888-.169-1.077-2.132-9.109-2.191-9.48" transform="translate(48.97 -5.579)"/>
        <path id="パス_7086" data-name="パス 7086" class="cls-9" d="M77,38.322c-3.707-4.956-6.107-12.236.146-16.346s11.059.738,12.724,2c2.042,1.547.583,4.779,3.384,6.288,1.255,4.333.882,5.247.655,6.342a10.814,10.814,0,0,1-3.721,5.851c-1.6,1.115-4.582.993-6.391.543A12.9,12.9,0,0,1,79.713,41.2a2.624,2.624,0,0,1-1.87-.158,3.961,3.961,0,0,1-1.6-1.662A.812.812,0,0,1,77,38.322" transform="translate(-21.29 -4.168)"/>
        <path id="パス_7087" data-name="パス 7087" class="cls-22" d="M99.543,24c.048-.612-1.276-1.179-2.364-2.933-1.05-1.691-2.814-3.207-6.153-2.305a5.23,5.23,0,0,1-2.9-.3c-1.472-.55-3.233.828-4.84,1.339s-3.47,3.456-4.021,4.124c-1.5,1.817-1.611,4.781-1.524,7.176a12.938,12.938,0,0,0,1.149,4.542,3.463,3.463,0,0,0,.878.99,7.257,7.257,0,0,0,1,2.229,11.392,11.392,0,0,0,3.3,2.3c.879.361,4.655,2.877,6.311,3.093,1.47.192,2.547.383,2.7-.333.32-1.51,3.132.677,4.064-1.268.647-1.352-.394-2.306-.614-4.09-.065-.526-1.563-1.561-1.629-3.321-.048-1.264,1.4-1.213,2.111-.876.158.075.682-.081.393-.48-.546-.755-2.01-2.445-1.452-2.942A11.18,11.18,0,0,0,99.543,24" transform="translate(-30.22 -3.753)"/>
        <path id="パス_7088" data-name="パス 7088" class="cls-14" d="M85.47,49.385c-6.564,8.354-11.694,5.042-15.613,3.305s-2.758-1.43-3.282-2.577-3.552-.047-5.3,0-4.56.076-4.775,1.668c-.742,1.463-3.943.215-7.541,2.1C41.61,57.739,28.777,73.163,25.4,81.311s-1.79,12.581,1.79,15.714c9.715,8.5,16.691,7.719,17.009,11.235.091,1.008-3.408,9.569-4.026,15.476-1.027,9.82,4.876,23.976,4.294,40.148-.3,8.2-2.226,47.918,3.4,48.528a98.533,98.533,0,0,0,12.952,0,128.365,128.365,0,0,0,17.117-1.524c6.06-.848,3.958-43.974,3.958-43.974.04-2.916.928-31.357.924-40.062,0-9.633-2.795-43.657-.328-44.641.508-.2,2.357,7.719,4.476,10.443,8.354,10.741,17.078-6.706,20.289-11.04,5.967-8.056-7.579-33.671-9.548-39.086C96.51,39.241,87.368,46.97,85.47,49.385" transform="translate(3.659 -8.543)"/>
        <path id="パス_7089" data-name="パス 7089" class="cls-23" d="M104.718,117.524a.3.3,0,0,0,.3-.256c.371-2.631.3-11.029.249-16.587-.014-1.557-.026-2.9-.026-3.858a.3.3,0,0,0-.6,0c0,.955.012,2.3.026,3.863.049,5.539.122,13.91-.243,16.5a.3.3,0,0,0,.253.337.264.264,0,0,0,.042,0" transform="translate(-57.208 -19.764)"/>
        <path id="パス_7090" data-name="パス 7090" class="cls-24" d="M56.323,115.723a8.021,8.021,0,0,1,.328,4.241c-.328,2.7-2.688,2.8.852,3.362s20.141,1.548,23.934,1.528a99.26,99.26,0,0,0,11.462-.775c2.528-.376,3.7,1.648,3.338-.811s1.565-8.323-1.055-7.948-15.779,1.441-19.1,1.426-19.833-2.319-19.757-1.023" transform="translate(-9.646 -23.608)"/>
        <path id="パス_7091" data-name="パス 7091" class="cls-23" d="M80.255,113.733c2.834-.27,7.717-1.575,8.666.834s3.349,4.181.3,5.059-8.484,2.822-9.821,1.525-4.574-6.828.859-7.419" transform="translate(-20.987 -23.165)"/>
        <path id="パス_7092" data-name="パス 7092" class="cls-23" d="M68.213,113.836c2.4-.326,8.841-3.662,9.657-.755s2.64,5.709.476,5.352-6.767-1.043-8.419-.856-2.593-2.556-1.714-3.741" transform="translate(-2.211 -22.912)"/>
        <path id="パス_7093" data-name="パス 7093" class="cls-23" d="M98.792,116.483c-4.2-.045-9.447-1.5-8.676,1.621s-2.227,8.372,2.058,6.339,8.241-2.164,8.98-4.134-.249-3.716-2.362-3.826" transform="translate(-41.681 -23.773)"/>
        <path id="パス_7094" data-name="パス 7094" class="cls-8" d="M89.144,51.882a7.806,7.806,0,0,0-5.109-2.461c-2.126-.15-2.53,1.331-4.7.56-2.723-.97-5.968-1.268-7.236.335-.952,1.2-6.076,2.41-6.713,5.669s2.984-1.641,8.8-1.939A66.779,66.779,0,0,1,81.8,53.9c3.432.149,5.5.156,8.877,1.38,3.393,1.23,5.013,1.791,2.946-.783-2.275-2.835-3.282-1.417-4.476-2.612" transform="translate(-15.343 -10.07)"/>
      </g>
    </g>
  </g>
</svg>
