<svg xmlns="http://www.w3.org/2000/svg" width="182" height="544" viewBox="0 0 182 544">
  <defs>
    <style>
      .cls-1 {
        fill: #fff;
      }

      .cls-2 {
        fill: #306e1d;
      }
    </style>
  </defs>
  <g id="グループ_1143" data-name="グループ 1143" transform="translate(-1932 8509)">
    <path id="パス_8755" data-name="パス 8755" class="cls-1" d="M18,0H28A18,18,0,0,1,46,18V389a18,18,0,0,1-18,18H18A18,18,0,0,1,0,389V18A18,18,0,0,1,18,0Z" transform="translate(1932 -8372)"/>
    <path id="パス_8758" data-name="パス 8758" class="cls-1" d="M18,0H28A18,18,0,0,1,46,18V356a18,18,0,0,1-18,18H18A18,18,0,0,1,0,356V18A18,18,0,0,1,18,0Z" transform="translate(1998 -8438)"/>
    <path id="パス_8761" data-name="パス 8761" class="cls-1" d="M18,0H28A18,18,0,0,1,46,18V427a18,18,0,0,1-18,18H18A18,18,0,0,1,0,427V18A18,18,0,0,1,18,0Z" transform="translate(2068 -8509)"/>
    <path id="パス_8759" data-name="パス 8759" class="cls-2" d="M-6.048,2.232A1.293,1.293,0,0,1-7,1.836a1.293,1.293,0,0,1-.4-.948V-2.76a.057.057,0,0,0-.048-.06.072.072,0,0,0-.072.012,25.308,25.308,0,0,1-1.776,2.5.984.984,0,0,1-.852.348,1,1,0,0,1-.8-.468l-.048-.1a1.576,1.576,0,0,1-.24-1.08,1.663,1.663,0,0,1,.48-1.008A19.277,19.277,0,0,0-8.3-5.664a.08.08,0,0,0,.012-.108.118.118,0,0,0-.108-.06H-9.6a1.207,1.207,0,0,1-.9-.384,1.266,1.266,0,0,1-.372-.912,1.226,1.226,0,0,1,.372-.9A1.226,1.226,0,0,1-9.6-8.4h1.992a.191.191,0,0,0,.216-.216V-10.2q0-.216-.192-.12a4.313,4.313,0,0,0-.444.192,4.313,4.313,0,0,1-.444.192,1.281,1.281,0,0,1-1.056.024,1.4,1.4,0,0,1-.768-.744l-.048-.144a1.262,1.262,0,0,1-.012-1.008,1.114,1.114,0,0,1,.708-.672A45.7,45.7,0,0,0-3.72-15.1a.081.081,0,0,0,.024-.06q0-.036-.024-.036H-8.592a1.266,1.266,0,0,1-.924-.4,1.266,1.266,0,0,1-.4-.924,1.266,1.266,0,0,1,.4-.924,1.266,1.266,0,0,1,.924-.4h6.744a.191.191,0,0,0,.216-.216v-.36a1.293,1.293,0,0,1,.4-.948,1.293,1.293,0,0,1,.948-.4H.288a1.293,1.293,0,0,1,.948.4,1.293,1.293,0,0,1,.4.948v.36a.191.191,0,0,0,.216.216H8.592a1.266,1.266,0,0,1,.924.4,1.266,1.266,0,0,1,.4.924,1.266,1.266,0,0,1-.4.924,1.266,1.266,0,0,1-.924.4H3.72a.077.077,0,0,0-.048.072,44.432,44.432,0,0,0,5.952,2.64,1.236,1.236,0,0,1,.744.684,1.146,1.146,0,0,1-.024,1l-.048.144a1.356,1.356,0,0,1-.756.732A1.351,1.351,0,0,1,8.5-9.936,37.462,37.462,0,0,1,1.8-13.56q-.168-.12-.168.1v2.736a1.333,1.333,0,0,1-.4.96,1.275,1.275,0,0,1-.948.408H-.288a1.275,1.275,0,0,1-.948-.408,1.333,1.333,0,0,1-.4-.96v-2.736q0-.192-.192-.072a36.619,36.619,0,0,1-5.064,2.88.081.081,0,0,0-.024.06q0,.036.024.036h1.2a1.314,1.314,0,0,1,.96.408,1.314,1.314,0,0,1,.408.96v.576A.191.191,0,0,0-4.1-8.4H-2.88a1.226,1.226,0,0,1,.9.372,1.226,1.226,0,0,1,.372.9,1.266,1.266,0,0,1-.372.912,1.207,1.207,0,0,1-.9.384h-.888A.081.081,0,0,0-3.84-5.8q-.024.036.024.084.768.624,1.992,1.68a1.362,1.362,0,0,1,.468.9,1.3,1.3,0,0,1-.276.972,1.1,1.1,0,0,1-.84.408,1.129,1.129,0,0,1-.888-.336q-.1-.1-.252-.264t-.3-.3q-.144-.132-.264-.252-.1-.048-.144.072V.888a1.275,1.275,0,0,1-.408.948,1.333,1.333,0,0,1-.96.4Zm10.776,0a1.333,1.333,0,0,1-.96-.4A1.275,1.275,0,0,1,3.36.888v-3.24a.077.077,0,0,0-.048-.072q-.048-.024-.072,0A26.258,26.258,0,0,1,.624.48,1.126,1.126,0,0,1-.312.768a1.278,1.278,0,0,1-.864-.5A1.425,1.425,0,0,1-1.44-.768a1.572,1.572,0,0,1,.5-.96,22.623,22.623,0,0,0,3.528-3.96q.1-.144-.1-.144H.648a1.246,1.246,0,0,1-.912-.384,1.246,1.246,0,0,1-.384-.912,1.207,1.207,0,0,1,.384-.9A1.266,1.266,0,0,1,.648-8.4h2.5a.191.191,0,0,0,.216-.216v-.576a1.314,1.314,0,0,1,.408-.96,1.314,1.314,0,0,1,.96-.408h.36a1.275,1.275,0,0,1,.948.408,1.333,1.333,0,0,1,.4.96v.576a.191.191,0,0,0,.216.216H9.6a1.226,1.226,0,0,1,.9.372,1.226,1.226,0,0,1,.372.9,1.266,1.266,0,0,1-.372.912,1.207,1.207,0,0,1-.9.384H7.608q-.192,0-.072.168A20.543,20.543,0,0,0,10.7-2.136a1.589,1.589,0,0,1,.5.984A1.531,1.531,0,0,1,10.968-.1l-.1.12a1.135,1.135,0,0,1-.84.516A1.126,1.126,0,0,1,9.1.216,25.909,25.909,0,0,1,6.576-2.64a.1.1,0,0,0-.1-.036.057.057,0,0,0-.048.06v3.5a1.293,1.293,0,0,1-.4.948,1.293,1.293,0,0,1-.948.4ZM-1.416,15.288a7.548,7.548,0,0,0-4.416,2.556A7.292,7.292,0,0,0-7.44,22.632a6.862,6.862,0,0,0,.744,3.24q.744,1.416,1.416,1.416a1.064,1.064,0,0,0,.7-.324,4.34,4.34,0,0,0,.8-1.176,14.327,14.327,0,0,0,.864-2.136,33.308,33.308,0,0,0,.864-3.408q.444-2.124.8-4.788a.122.122,0,0,0-.036-.132A.122.122,0,0,0-1.416,15.288ZM-5.28,30.312A4.528,4.528,0,0,1-8.856,28.08a8.978,8.978,0,0,1-1.632-5.448,9.78,9.78,0,0,1,3.168-7.56,11.774,11.774,0,0,1,8.28-2.9A9.462,9.462,0,0,1,7.788,14.76a8.753,8.753,0,0,1,2.7,6.6,10.416,10.416,0,0,1-1.74,6.2,7.7,7.7,0,0,1-4.764,3.108,1.272,1.272,0,0,1-1.044-.216,1.446,1.446,0,0,1-.588-.912L2.3,29.328a1.2,1.2,0,0,1,.192-.984,1.566,1.566,0,0,1,.84-.624q4.1-1.272,4.1-6.36a6.138,6.138,0,0,0-1.452-4.14,6.141,6.141,0,0,0-3.8-2.076.2.2,0,0,0-.264.168q-.48,3.624-1.08,6.3a28.918,28.918,0,0,1-1.26,4.32A10.1,10.1,0,0,1-1.9,28.572,4.858,4.858,0,0,1-3.5,29.94,4.127,4.127,0,0,1-5.28,30.312ZM-8.832,56.568a1.314,1.314,0,0,1-.96-.408,1.314,1.314,0,0,1-.408-.96V45.48a1.314,1.314,0,0,1,.408-.96,1.314,1.314,0,0,1,.96-.408h6.984q.216,0,.216-.192V41.592a1.293,1.293,0,0,1,.4-.948,1.293,1.293,0,0,1,.948-.4H.288a1.293,1.293,0,0,1,.948.4,1.293,1.293,0,0,1,.4.948V43.92q0,.192.216.192H8.832A1.394,1.394,0,0,1,10.2,45.48V55.2a1.394,1.394,0,0,1-1.368,1.368h-.48a1.23,1.23,0,0,1-1.2-1.2.148.148,0,0,0-.168-.168H1.848a.191.191,0,0,0-.216.216v5.712a1.293,1.293,0,0,1-.4.948,1.293,1.293,0,0,1-.948.4H-.288a1.293,1.293,0,0,1-.948-.4,1.293,1.293,0,0,1-.4-.948V55.416a.191.191,0,0,0-.216-.216H-6.984a.148.148,0,0,0-.168.168,1.151,1.151,0,0,1-.36.84,1.151,1.151,0,0,1-.84.36ZM6.96,46.848H1.848q-.216,0-.216.192v5.328q0,.192.216.192H6.96a.17.17,0,0,0,.192-.192V47.04A.17.17,0,0,0,6.96,46.848Zm-14.112.192v5.328a.17.17,0,0,0,.192.192h5.112q.216,0,.216-.192V47.04q0-.192-.216-.192H-6.96A.17.17,0,0,0-7.152,47.04Zm5.736,28.248a7.548,7.548,0,0,0-4.416,2.556A7.292,7.292,0,0,0-7.44,82.632a6.862,6.862,0,0,0,.744,3.24q.744,1.416,1.416,1.416a1.064,1.064,0,0,0,.7-.324,4.34,4.34,0,0,0,.8-1.176,14.328,14.328,0,0,0,.864-2.136,33.308,33.308,0,0,0,.864-3.408q.444-2.124.8-4.788a.122.122,0,0,0-.036-.132A.122.122,0,0,0-1.416,75.288ZM-5.28,90.312A4.528,4.528,0,0,1-8.856,88.08a8.978,8.978,0,0,1-1.632-5.448,9.78,9.78,0,0,1,3.168-7.56,11.774,11.774,0,0,1,8.28-2.9A9.462,9.462,0,0,1,7.788,74.76a8.753,8.753,0,0,1,2.7,6.6,10.416,10.416,0,0,1-1.74,6.2,7.7,7.7,0,0,1-4.764,3.108,1.272,1.272,0,0,1-1.044-.216,1.446,1.446,0,0,1-.588-.912L2.3,89.328a1.2,1.2,0,0,1,.192-.984,1.566,1.566,0,0,1,.84-.624q4.1-1.272,4.1-6.36a6.138,6.138,0,0,0-1.452-4.14,6.141,6.141,0,0,0-3.8-2.076.2.2,0,0,0-.264.168q-.48,3.624-1.08,6.3a28.918,28.918,0,0,1-1.26,4.32A10.1,10.1,0,0,1-1.9,88.572,4.858,4.858,0,0,1-3.5,89.94,4.127,4.127,0,0,1-5.28,90.312Zm11.688,11.52a1.275,1.275,0,0,1,.948.408,1.333,1.333,0,0,1,.4.96v5.208q0,5.856-2.7,8.94t-8.46,3.924a1.417,1.417,0,0,1-1.068-.24,1.418,1.418,0,0,1-.612-.912l-.048-.312a1.194,1.194,0,0,1,.18-.972,1.24,1.24,0,0,1,.852-.54q4.728-.792,6.576-2.976t1.848-6.84V103.2a1.394,1.394,0,0,1,1.368-1.368Zm-12.816,10.8a1.293,1.293,0,0,1-.948-.4,1.293,1.293,0,0,1-.4-.948V103.2a1.333,1.333,0,0,1,.4-.96,1.275,1.275,0,0,1,.948-.408h.648a1.314,1.314,0,0,1,.96.408,1.314,1.314,0,0,1,.408.96v8.088a1.275,1.275,0,0,1-.408.948,1.333,1.333,0,0,1-.96.4Zm14.16,22.752a1.291,1.291,0,0,1,.912.48,1.228,1.228,0,0,1,.288.984q-.816,6.5-4.008,9.684t-9.72,4.236a1.408,1.408,0,0,1-1.056-.228,1.386,1.386,0,0,1-.6-.9l-.072-.288a1.212,1.212,0,0,1,.2-1,1.3,1.3,0,0,1,.876-.564q5.352-.96,7.9-3.456t3.264-7.752a1.409,1.409,0,0,1,.516-.924,1.321,1.321,0,0,1,1-.324Zm-2.64-4.632a1.216,1.216,0,0,1,.972-.072,1.335,1.335,0,0,1,.756.648q.12.216.336.636t.336.636a1.216,1.216,0,0,1,.072.972,1.158,1.158,0,0,1-.648.708,1.217,1.217,0,0,1-.948.048,1.257,1.257,0,0,1-.732-.624q-.12-.216-.336-.636t-.336-.636a1.189,1.189,0,0,1-.084-.948A1.211,1.211,0,0,1,5.112,130.752Zm2.976.408a1.242,1.242,0,0,1,.648-.744,1.3,1.3,0,0,1,1.008-.072,1.259,1.259,0,0,1,.768.624l.348.7.324.648a1.19,1.19,0,0,1,.072.96,1.244,1.244,0,0,1-.648.72,1.216,1.216,0,0,1-.972.072,1.335,1.335,0,0,1-.756-.648q-.216-.432-.7-1.3A1.265,1.265,0,0,1,8.088,131.16Zm-14.784,9.7q-1.008-2.28-2.64-5.832A1.228,1.228,0,0,1-9.372,134a1.275,1.275,0,0,1,.708-.732l.528-.216a1.419,1.419,0,0,1,1.056-.024,1.309,1.309,0,0,1,.768.72q1.656,3.552,2.712,5.9a1.224,1.224,0,0,1,.024,1.032,1.226,1.226,0,0,1-.744.72l-.552.216a1.419,1.419,0,0,1-1.056-.024A1.4,1.4,0,0,1-6.7,140.856Zm1.488,70.416a1.293,1.293,0,0,1-.948-.4,1.293,1.293,0,0,1-.4-.948V192.792a1.293,1.293,0,0,1,.4-.948,1.293,1.293,0,0,1,.948-.4h.648a1.333,1.333,0,0,1,.96.4,1.275,1.275,0,0,1,.408.948v5.184q0,.216.168.24A120.252,120.252,0,0,1,8.592,201.7a1.364,1.364,0,0,1,.78.7,1.31,1.31,0,0,1,.06,1.056l-.144.456a1.361,1.361,0,0,1-1.7.84Q1.9,202.752-3.024,201.5a.1.1,0,0,0-.12.036.207.207,0,0,0-.048.132v8.256a1.275,1.275,0,0,1-.408.948,1.333,1.333,0,0,1-.96.4Zm5.28,12H7.68a1.394,1.394,0,0,1,1.368,1.368v.072A1.394,1.394,0,0,1,7.68,226.08H.072a1.275,1.275,0,0,1-.948-.408,1.333,1.333,0,0,1-.4-.96v-.072a1.333,1.333,0,0,1,.4-.96A1.275,1.275,0,0,1,.072,223.272Zm-6.888,17.88a1.5,1.5,0,0,1-1.056-.252,1.386,1.386,0,0,1-.6-.9,42.476,42.476,0,0,1,0-17.28,1.386,1.386,0,0,1,.6-.9,1.5,1.5,0,0,1,1.056-.252l.456.048a1.1,1.1,0,0,1,.84.5,1.2,1.2,0,0,1,.192.984,40.992,40.992,0,0,0,0,16.512,1.2,1.2,0,0,1-.192.984,1.1,1.1,0,0,1-.84.5Zm10.824-.84A9.5,9.5,0,0,1-1.332,239a4.017,4.017,0,0,1-1.956-3.492,6.714,6.714,0,0,1,2.064-4.2,1.294,1.294,0,0,1,.984-.444,1.51,1.51,0,0,1,1.032.348l.12.072a1.137,1.137,0,0,1,.456.888,1.313,1.313,0,0,1-.336.96A4.031,4.031,0,0,0-.12,235.392q0,2.04,4.128,2.04a23.092,23.092,0,0,0,3.912-.36,1.358,1.358,0,0,1,1.56,1.08v.1a1.439,1.439,0,0,1-.216,1.056,1.248,1.248,0,0,1-.864.576A22.34,22.34,0,0,1,4.008,240.312ZM-9.36,265.9a1.29,1.29,0,0,1-.96-.348,1.28,1.28,0,0,1-.432-.924,1.269,1.269,0,0,1,.36-.96,1.32,1.32,0,0,1,.936-.432q.144,0,.48-.012t.48-.012q.192,0,.192-.216v-9.36a1.275,1.275,0,0,1,.408-.948,1.333,1.333,0,0,1,.96-.4h4.3q.168,0,.264-.216.048-.168.144-.48t.144-.48a1.64,1.64,0,0,1,.648-.888,1.563,1.563,0,0,1,1.056-.288l.552.048a1.1,1.1,0,0,1,.852.48,1.1,1.1,0,0,1,.156.96q-.024.1-.1.336t-.1.336q-.048.192.144.192h6a1.333,1.333,0,0,1,.96.4,1.275,1.275,0,0,1,.408.948v6.888q0,.048.06.072a.127.127,0,0,0,.108,0q.144-.12.4-.348t.276-.252a1.036,1.036,0,0,1,1.584.192,1.664,1.664,0,0,1,.228,1.056,1.354,1.354,0,0,1-.492.936q-1.008.888-2.016,1.632a.347.347,0,0,0-.144.312v3.96q0,1.008-.036,1.584a4.238,4.238,0,0,1-.2,1.08,1.857,1.857,0,0,1-.384.72,1.861,1.861,0,0,1-.732.384,4.427,4.427,0,0,1-1.1.2q-.588.036-1.62.036-.96,0-2.928-.072a1.383,1.383,0,0,1-.948-.42,1.485,1.485,0,0,1-.444-.948,1.183,1.183,0,0,1,.348-.912,1.13,1.13,0,0,1,.9-.36q1.776.072,2.52.072a2.725,2.725,0,0,0,1.248-.156q.192-.156.192-1.044v-1.992a.115.115,0,0,0-.072-.108.1.1,0,0,0-.12.012,57.484,57.484,0,0,1-13.584,5.688,1.413,1.413,0,0,1-1.08-.1,1.489,1.489,0,0,1-.744-.816l-.024-.072a1.123,1.123,0,0,1,.072-.984,1.162,1.162,0,0,1,.792-.6,53.229,53.229,0,0,0,11.064-4.056.069.069,0,0,0,.024-.048q0-.024-.048-.024Q-3.72,265.632-9.36,265.9Zm4.272-10.944v.864q0,.216.192.216H5.088a.191.191,0,0,0,.216-.216v-.864a.191.191,0,0,0-.216-.216H-4.9Q-5.088,254.736-5.088,254.952Zm0,3.384v.912q0,.216.192.216H5.088a.191.191,0,0,0,.216-.216v-.912a.191.191,0,0,0-.216-.216H-4.9Q-5.088,258.12-5.088,258.336Zm0,3.432v1.1q0,.192.168.192,5.9-.264,10.008-.576a.191.191,0,0,0,.216-.216v-.5a.191.191,0,0,0-.216-.216H-4.9Q-5.088,261.552-5.088,261.768Zm-3.624,23.9a1.266,1.266,0,0,1-.912-.372,1.207,1.207,0,0,1-.384-.9,1.207,1.207,0,0,1,.384-.9,1.266,1.266,0,0,1,.912-.372H-5.04q.168,0,.264-.216l.432-1.152a1.559,1.559,0,0,1,.7-.852,1.551,1.551,0,0,1,1.08-.2l.408.1a1.185,1.185,0,0,1,.792.564,1.1,1.1,0,0,1,.1.948q-.048.12-.132.324t-.108.276q-.048.216.144.216h8.5a1.272,1.272,0,1,1,0,2.544H-2.424a.28.28,0,0,0-.288.192q-.336.792-.816,1.8,0,.048.024.048h.024a6.635,6.635,0,0,1,2.448-.5A4.256,4.256,0,0,1,3.216,289.9a.24.24,0,0,0,.312.144q1.92-.384,3.552-.6a1.236,1.236,0,0,1,.96.264,1.212,1.212,0,0,1,.48.888,1.357,1.357,0,0,1-.288.984,1.294,1.294,0,0,1-.888.5q-2.088.312-3.216.552-.216.048-.168.24.144,1.272.168,2.16a1.25,1.25,0,0,1-.372.96,1.275,1.275,0,0,1-.948.408h-.48a1.333,1.333,0,0,1-.96-.4,1.362,1.362,0,0,1-.432-.948q-.024-.648-.072-1.32,0-.216-.192-.168-3.864,1.344-3.864,2.9a1.619,1.619,0,0,0,.36,1.092,3.068,3.068,0,0,0,1.56.708,15.167,15.167,0,0,0,3.36.288,37.768,37.768,0,0,0,4.632-.36,1.286,1.286,0,0,1,1,.276,1.237,1.237,0,0,1,.492.9,1.407,1.407,0,0,1-.3,1.02,1.339,1.339,0,0,1-.924.516,41.458,41.458,0,0,1-4.9.288q-4.512,0-6.5-1.068a3.527,3.527,0,0,1-1.992-3.324q0-3.7,6.48-5.856.216-.048.12-.24A2.025,2.025,0,0,0-1.752,289.7q-2.256,0-5.208,3.792a1.509,1.509,0,0,1-.936.564,1.462,1.462,0,0,1-1.056-.18l-.192-.12a1.26,1.26,0,0,1-.576-.816,1.2,1.2,0,0,1,.192-.984A42.785,42.785,0,0,0-6,285.888a.182.182,0,0,0-.012-.144.115.115,0,0,0-.108-.072Zm-1.9,36.36a1.616,1.616,0,0,1-.264-.408,1.153,1.153,0,0,1,.024-.948,1.162,1.162,0,0,1,.7-.636,28.987,28.987,0,0,0,5.016-2.232.054.054,0,0,0,.012-.06.055.055,0,0,0-.06-.036H-9.432a1.159,1.159,0,0,1-.852-.348,1.159,1.159,0,0,1-.348-.852,1.159,1.159,0,0,1,.348-.852,1.159,1.159,0,0,1,.852-.348h7.608q.216,0,.216-.192v-1.1a.17.17,0,0,0-.192-.192q-2.832.1-6.024.144a1.207,1.207,0,0,1-.888-.36,1.394,1.394,0,0,1-.408-.888,1.154,1.154,0,0,1,.324-.876,1.122,1.122,0,0,1,.852-.372,126.983,126.983,0,0,0,15.48-.888,1.387,1.387,0,0,1,.972.216,1.263,1.263,0,0,1,.564.792,1.092,1.092,0,0,1-.156.9,1.06,1.06,0,0,1-.756.492q-2.376.336-6.336.624a.191.191,0,0,0-.216.216v1.3q0,.192.216.192H9.432a1.2,1.2,0,1,1,0,2.4H5.184a.055.055,0,0,0-.06.036.054.054,0,0,0,.012.06,28.981,28.981,0,0,0,5.04,2.232,1.205,1.205,0,0,1,.708.636,1.124,1.124,0,0,1,.036.948,1.338,1.338,0,0,1-.264.432.294.294,0,0,0-.072.336,1.116,1.116,0,0,1,.048.384,1.188,1.188,0,0,1-1.176,1.176H7.416a.358.358,0,0,0-.312.192,11.751,11.751,0,0,1-2.712,3.192q-.144.144.048.192,2.232.792,4.512,1.728a1.045,1.045,0,0,1,.636.7,1.01,1.01,0,0,1-.156.936l-.12.168a1.584,1.584,0,0,1-.912.636,1.508,1.508,0,0,1-1.1-.108q-3.1-1.416-5.616-2.352a.574.574,0,0,0-.36.024,33.247,33.247,0,0,1-9.528,2.5,1.49,1.49,0,0,1-1.044-.24,1.547,1.547,0,0,1-.636-.864,1.1,1.1,0,0,1,.132-.936,1.081,1.081,0,0,1,.8-.5,37.572,37.572,0,0,0,6.384-1.248q.12-.072.024-.12-1.128-.312-2.832-.744a.4.4,0,0,0-.36.072l-.048.048a1.9,1.9,0,0,1-2.256.144l-.144-.072a.863.863,0,0,1-.468-.732.9.9,0,0,1,.348-.8q1.3-1.1,1.848-1.656.048-.1-.072-.144H-9.456a1.131,1.131,0,0,1-.828-.348,1.131,1.131,0,0,1-.348-.828,1.359,1.359,0,0,1,.072-.432A.282.282,0,0,0-10.608,322.032Zm14.52,2.088q.12-.168-.1-.168H-2.16a.387.387,0,0,0-.312.144q-.432.5-.936,1.008a.13.13,0,0,0-.036.12.116.116,0,0,0,.084.1q2.112.456,4.248,1.08a.374.374,0,0,0,.36-.048A9.736,9.736,0,0,0,3.912,324.12ZM.24,320.592H-.312q-.144,0-.1.192a.721.721,0,0,1-.1.672q-.1.144.072.144H7.344q.048,0,.048-.036t-.048-.06a28.572,28.572,0,0,1-5.568-3.288q-.168-.12-.168.1v.936a1.275,1.275,0,0,1-.408.948A1.333,1.333,0,0,1,.24,320.592Zm-2.016-2.352a26.947,26.947,0,0,1-5.5,3.264.081.081,0,0,0-.024.06q0,.036.048.036h2.832a.389.389,0,0,0,.336-.168,3,3,0,0,1,.192-.24,3,3,0,0,0,.192-.24,2.029,2.029,0,0,1,2.136-.864l.1.024a.078.078,0,0,0,.1-.024.06.06,0,0,0,0-.1,1.324,1.324,0,0,1-.24-.744v-.936q0-.048-.06-.072A.127.127,0,0,0-1.776,318.24Zm8.16,38.136a.306.306,0,0,0-.048-.336,4.893,4.893,0,0,0-1.272-1.02,2.811,2.811,0,0,0-1.224-.252,2.313,2.313,0,0,0-1.524.468,1.5,1.5,0,0,0-.564,1.212,1.541,1.541,0,0,0,.552,1.236,2.188,2.188,0,0,0,1.464.468A2.613,2.613,0,0,0,6.384,356.376Zm-16.536-2.424q2.328-2.712,4.08-4.584a.488.488,0,0,0,.144-.36v-1.752q0-.216-.192-.216h-3a1.226,1.226,0,0,1-.9-.372,1.226,1.226,0,0,1-.372-.9,1.266,1.266,0,0,1,.372-.912,1.207,1.207,0,0,1,.9-.384h3a.17.17,0,0,0,.192-.192v-1.968a1.275,1.275,0,0,1,.408-.948,1.333,1.333,0,0,1,.96-.4h.168a1.293,1.293,0,0,1,.948.4,1.293,1.293,0,0,1,.4.948v3.96q0,.048.06.072a.093.093,0,0,0,.108-.024,15.334,15.334,0,0,1,3.552-2.364,7.662,7.662,0,0,1,3.1-.684,5.549,5.549,0,0,1,4.776,2.076q1.536,2.076,1.536,6.732a14.315,14.315,0,0,1-.384,3.5.415.415,0,0,0,.072.384q.408.48.792,1.008a1.392,1.392,0,0,1,.276,1.008,1.465,1.465,0,0,1-.468.936,1.16,1.16,0,0,1-.936.312,1.137,1.137,0,0,1-.864-.48q-.024,0-.048-.048l-.024-.048q-.1-.1-.24.024a5.443,5.443,0,0,1-4.488,2.112A5.015,5.015,0,0,1,.3,359.6a3.994,3.994,0,0,1-1.332-3.132A4.029,4.029,0,0,1,.276,353.34a5,5,0,0,1,3.492-1.188,5.41,5.41,0,0,1,3.024.912q.144.1.144-.1,0-.144.012-.432t.012-.456a9.541,9.541,0,0,0-.768-4.56A2.784,2.784,0,0,0,3.6,346.248a5.368,5.368,0,0,0-2.688.888A21.94,21.94,0,0,0-2.88,350.3a.484.484,0,0,0-.168.336v9.528a1.293,1.293,0,0,1-.4.948,1.293,1.293,0,0,1-.948.4H-4.56a1.333,1.333,0,0,1-.96-.4,1.275,1.275,0,0,1-.408-.948v-6.456a.081.081,0,0,0-.036-.072.079.079,0,0,0-.084,0q-1.32,1.464-1.968,2.232a1.3,1.3,0,0,1-.924.48,1.209,1.209,0,0,1-.972-.336l-.1-.12a1.425,1.425,0,0,1-.456-.948A1.324,1.324,0,0,1-10.152,353.952Z" transform="translate(2091 -8456)"/>
    <path id="パス_8757" data-name="パス 8757" class="cls-2" d="M-1.536-.864q.216,0,.216-.192v-.888q0-.192-.216-.192H-6.624A1.063,1.063,0,0,1-7.4-2.46a1.063,1.063,0,0,1-.324-.78A1.063,1.063,0,0,1-7.4-4.02a1.063,1.063,0,0,1,.78-.324h5.088q.216,0,.216-.192V-5.3q0-.192-.216-.192H-6.192a.367.367,0,0,0-.312.168,17.66,17.66,0,0,1-1.632,1.9,1.23,1.23,0,0,1-.96.348,1.249,1.249,0,0,1-.912-.468l-.144-.144a1.366,1.366,0,0,1-.324-1,1.466,1.466,0,0,1,.444-.972A20.3,20.3,0,0,0-7.464-8.952a.1.1,0,0,0,.012-.12.115.115,0,0,0-.108-.072h-.168a1.275,1.275,0,0,1-.948-.408,1.333,1.333,0,0,1-.4-.96V-17.64a1.333,1.333,0,0,1,.4-.96,1.275,1.275,0,0,1,.948-.408H7.728a1.275,1.275,0,0,1,.948.408,1.333,1.333,0,0,1,.4.96v7.128a1.333,1.333,0,0,1-.4.96,1.275,1.275,0,0,1-.948.408H1.752q-.168,0-.072.144a1.44,1.44,0,0,1,.288.84v.048q0,.216.192.216H8.568a1.159,1.159,0,0,1,.852.348,1.159,1.159,0,0,1,.348.852,1.159,1.159,0,0,1-.348.852,1.159,1.159,0,0,1-.852.348H2.16a.17.17,0,0,0-.192.192v.768a.17.17,0,0,0,.192.192H7.7a1.063,1.063,0,0,1,.78.324,1.063,1.063,0,0,1,.324.78,1.063,1.063,0,0,1-.324.78,1.063,1.063,0,0,1-.78.324H2.16a.17.17,0,0,0-.192.192v.888a.17.17,0,0,0,.192.192H9.288a1.226,1.226,0,0,1,.9.372,1.226,1.226,0,0,1,.372.9,1.226,1.226,0,0,1-.372.9,1.226,1.226,0,0,1-.9.372H-9.288a1.226,1.226,0,0,1-.9-.372,1.226,1.226,0,0,1-.372-.9,1.226,1.226,0,0,1,.372-.9,1.226,1.226,0,0,1,.9-.372ZM-5.88-16.3v1.032a.191.191,0,0,0,.216.216H5.664a.191.191,0,0,0,.216-.216V-16.3a.191.191,0,0,0-.216-.216H-5.664A.191.191,0,0,0-5.88-16.3Zm0,3.552v1.128q0,.192.216.192H5.664q.216,0,.216-.192v-1.128q0-.192-.216-.192H-5.664Q-5.88-12.936-5.88-12.744ZM-1.536-7.9a.191.191,0,0,0,.216-.216V-8.16A1.44,1.44,0,0,1-1.032-9q.1-.144-.072-.144H-4.272q-.192,0-.192.216a1.376,1.376,0,0,1-.144.624l-.06.12-.06.12a.08.08,0,0,0-.012.108.118.118,0,0,0,.108.06ZM.312,31.2q-4.44,0-6.7-1.488A4.878,4.878,0,0,1-8.64,25.368q0-3.12,3.72-5.592a.3.3,0,0,0,.12-.288v-.072q-.912-3.864-1.368-6.432a1.329,1.329,0,0,1,.228-1.02,1.3,1.3,0,0,1,.876-.564l.6-.1a1.269,1.269,0,0,1,1.008.24,1.452,1.452,0,0,1,.576.888q.528,2.832,1.152,5.424.048.24.24.144a52.724,52.724,0,0,1,7.824-2.5,1.341,1.341,0,0,1,1.032.18,1.209,1.209,0,0,1,.576.852l.048.216A1.313,1.313,0,0,1,7.8,17.784a1.333,1.333,0,0,1-.864.6,36.268,36.268,0,0,0-9.144,3.264Q-5.28,23.424-5.28,25.2q0,3.12,5.592,3.12a48.083,48.083,0,0,0,6.408-.432,1.311,1.311,0,0,1,1,.264,1.28,1.28,0,0,1,.516.888l.024.168a1.36,1.36,0,0,1-.276,1.02,1.294,1.294,0,0,1-.9.54A48.473,48.473,0,0,1,.312,31.2ZM-10.176,61.368a1.136,1.136,0,0,1-.48-.864,1.357,1.357,0,0,1,.288-.984A10.175,10.175,0,0,0-8.46,55.656a25.24,25.24,0,0,0,.54-5.9V42.24a1.314,1.314,0,0,1,.408-.96,1.314,1.314,0,0,1,.96-.408H7.512A1.394,1.394,0,0,1,8.88,42.24V58.32A19.551,19.551,0,0,1,8.8,60.468a1.955,1.955,0,0,1-.516,1.14,1.742,1.742,0,0,1-1.068.54,16.993,16.993,0,0,1-2,.084q-1.512,0-2.736-.048a1.43,1.43,0,0,1-.984-.432,1.53,1.53,0,0,1-.456-.984,1.239,1.239,0,0,1,.36-.936,1.162,1.162,0,0,1,.936-.384q1.7.072,2.232.072a1.723,1.723,0,0,0,.972-.156,1.723,1.723,0,0,0,.156-.972V55.248a.191.191,0,0,0-.216-.216H-4.8a.235.235,0,0,0-.24.216,12.746,12.746,0,0,1-2.784,6.168,1.452,1.452,0,0,1-.972.492,1.4,1.4,0,0,1-1.044-.3Zm5.448-17.64v2.664a.191.191,0,0,0,.216.216H5.472a.191.191,0,0,0,.216-.216V43.728a.191.191,0,0,0-.216-.216H-4.512A.191.191,0,0,0-4.728,43.728Zm0,7.392q0,.768-.024,1.152,0,.216.192.216H5.472a.191.191,0,0,0,.216-.216v-2.9a.191.191,0,0,0-.216-.216H-4.512a.191.191,0,0,0-.216.216Zm3.312,24.168a7.548,7.548,0,0,0-4.416,2.556A7.292,7.292,0,0,0-7.44,82.632a6.862,6.862,0,0,0,.744,3.24q.744,1.416,1.416,1.416a1.064,1.064,0,0,0,.7-.324,4.34,4.34,0,0,0,.8-1.176,14.328,14.328,0,0,0,.864-2.136,33.308,33.308,0,0,0,.864-3.408q.444-2.124.8-4.788a.122.122,0,0,0-.036-.132A.122.122,0,0,0-1.416,75.288ZM-5.28,90.312A4.528,4.528,0,0,1-8.856,88.08a8.978,8.978,0,0,1-1.632-5.448,9.78,9.78,0,0,1,3.168-7.56,11.774,11.774,0,0,1,8.28-2.9A9.462,9.462,0,0,1,7.788,74.76a8.753,8.753,0,0,1,2.7,6.6,10.416,10.416,0,0,1-1.74,6.2,7.7,7.7,0,0,1-4.764,3.108,1.272,1.272,0,0,1-1.044-.216,1.446,1.446,0,0,1-.588-.912L2.3,89.328a1.2,1.2,0,0,1,.192-.984,1.566,1.566,0,0,1,.84-.624q4.1-1.272,4.1-6.36a6.138,6.138,0,0,0-1.452-4.14,6.141,6.141,0,0,0-3.8-2.076.2.2,0,0,0-.264.168q-.48,3.624-1.08,6.3a28.918,28.918,0,0,1-1.26,4.32A10.1,10.1,0,0,1-1.9,88.572,4.858,4.858,0,0,1-3.5,89.94,4.127,4.127,0,0,1-5.28,90.312Zm6.5,25.176a3.54,3.54,0,0,0-1.836.36,1.219,1.219,0,0,0-.564,1.1q0,1.68,2.232,1.68a2.047,2.047,0,0,0,1.584-.552,2.546,2.546,0,0,0,.5-1.752v-.264a.28.28,0,0,0-.192-.288A5.021,5.021,0,0,0,1.224,115.488Zm.144,5.88a6.455,6.455,0,0,1-4.116-1.128,3.969,3.969,0,0,1-1.4-3.288,3.767,3.767,0,0,1,1.32-3.036,6.45,6.45,0,0,1,4.2-1.116,8.447,8.447,0,0,1,1.56.144q.216.048.216-.168v-2.5q0-.192-.216-.192H-2.016a1.266,1.266,0,0,1-.924-.4,1.266,1.266,0,0,1-.4-.924,1.266,1.266,0,0,1,.4-.924,1.266,1.266,0,0,1,.924-.4H2.928a.191.191,0,0,0,.216-.216V105q0-.192-.216-.192h-4.92a1.275,1.275,0,0,1-.948-.408,1.333,1.333,0,0,1-.4-.96,1.333,1.333,0,0,1,.4-.96,1.275,1.275,0,0,1,.948-.408H8.9a1.275,1.275,0,0,1,.948.408,1.362,1.362,0,0,1,0,1.92,1.275,1.275,0,0,1-.948.408H6.384q-.216,0-.216.192v2.232a.191.191,0,0,0,.216.216H8.928a1.32,1.32,0,0,1,0,2.64H6.384q-.216,0-.216.192v3.912a.367.367,0,0,0,.168.312A28.019,28.019,0,0,1,9.6,117.36a1.355,1.355,0,0,1,.384.96,1.314,1.314,0,0,1-.408.96l-.072.1a1.326,1.326,0,0,1-.972.372,1.371,1.371,0,0,1-.972-.42q-.96-.96-1.392-1.344-.12-.12-.168.1a3.99,3.99,0,0,1-1.584,2.448A5.193,5.193,0,0,1,1.368,121.368Zm-8.808-.24a1.538,1.538,0,0,1-1.068-.252A1.365,1.365,0,0,1-9.12,120a42.476,42.476,0,0,1,0-17.28,1.365,1.365,0,0,1,.612-.876,1.538,1.538,0,0,1,1.068-.252l.288.024a1.184,1.184,0,0,1,.84.516,1.17,1.17,0,0,1,.192.972,40.992,40.992,0,0,0,0,16.512,1.17,1.17,0,0,1-.192.972,1.184,1.184,0,0,1-.84.516ZM.312,151.2q-4.44,0-6.7-1.488a4.878,4.878,0,0,1-2.256-4.344q0-3.12,3.72-5.592a.3.3,0,0,0,.12-.288v-.072q-.912-3.864-1.368-6.432a1.329,1.329,0,0,1,.228-1.02,1.3,1.3,0,0,1,.876-.564l.6-.1a1.269,1.269,0,0,1,1.008.24,1.452,1.452,0,0,1,.576.888q.528,2.832,1.152,5.424.048.24.24.144a52.723,52.723,0,0,1,7.824-2.5,1.341,1.341,0,0,1,1.032.18,1.209,1.209,0,0,1,.576.852l.048.216a1.313,1.313,0,0,1-.192,1.032,1.333,1.333,0,0,1-.864.6,36.268,36.268,0,0,0-9.144,3.264Q-5.28,143.424-5.28,145.2q0,3.12,5.592,3.12a48.081,48.081,0,0,0,6.408-.432,1.311,1.311,0,0,1,1,.264,1.28,1.28,0,0,1,.516.888l.024.168a1.36,1.36,0,0,1-.276,1.02,1.294,1.294,0,0,1-.9.54A48.474,48.474,0,0,1,.312,151.2Zm-6.72,22.632a1.293,1.293,0,0,1-.948-.4,1.293,1.293,0,0,1-.4-.948v-9.456a1.293,1.293,0,0,1,.4-.948,1.293,1.293,0,0,1,.948-.4H-6a1.333,1.333,0,0,1,.96.4,1.275,1.275,0,0,1,.408.948v3.36a.042.042,0,0,0,.048-.048q2.568-4.176,6.816-4.176a5.762,5.762,0,0,1,4.692,2.076,8.93,8.93,0,0,1,1.716,5.844q0,5.568-3,8.292t-9.528,2.964a1.318,1.318,0,0,1-1-.372A1.46,1.46,0,0,1-5.352,180l-.024-.168a1.252,1.252,0,0,1,.348-.948,1.3,1.3,0,0,1,.924-.42q5.112-.192,7.248-2.136t2.136-6.24a6.389,6.389,0,0,0-.864-3.66,2.858,2.858,0,0,0-2.5-1.236,5.53,5.53,0,0,0-4.1,2.076,9.85,9.85,0,0,0-2.4,5.22,1.654,1.654,0,0,1-.5.96,1.384,1.384,0,0,1-.984.384ZM4.608,198.744a1.348,1.348,0,0,1,1.056-.1,1.318,1.318,0,0,1,.816.672q.264.48.792,1.488a1.288,1.288,0,0,1,.048,1.032,1.318,1.318,0,0,1-.7.768,1.349,1.349,0,0,1-1.056.048,1.411,1.411,0,0,1-.792-.7q-.12-.216-.768-1.416a1.234,1.234,0,0,1-.1-1.008,1.317,1.317,0,0,1,.672-.792Zm5.712-.288q.792,1.512.816,1.56a1.311,1.311,0,0,1-.6,1.8l-.072.048a1.412,1.412,0,0,1-1.848-.624q-.12-.24-.384-.744t-.408-.744a1.319,1.319,0,0,1-.108-1.032,1.2,1.2,0,0,1,.66-.792l.072-.024A1.386,1.386,0,0,1,9.5,197.8,1.276,1.276,0,0,1,10.32,198.456ZM-9,195.84a1.293,1.293,0,0,1-.948-.4,1.293,1.293,0,0,1-.4-.948v-.168a1.314,1.314,0,0,1,.408-.96,1.314,1.314,0,0,1,.96-.408q8.208-.024,16.968-.408a1.346,1.346,0,0,1,.984.36,1.286,1.286,0,0,1,.456.936v.168a1.362,1.362,0,0,1-.348,1,1.466,1.466,0,0,1-.948.492q-5.112.648-7.668,2.664a6.069,6.069,0,0,0-2.556,4.92,5.055,5.055,0,0,0,1.62,3.984,6.245,6.245,0,0,0,4.308,1.44,12.765,12.765,0,0,0,1.584-.1,1.4,1.4,0,0,1,1,.288,1.28,1.28,0,0,1,.516.888l.024.216a1.386,1.386,0,0,1-.264,1.02,1.255,1.255,0,0,1-.888.54,20.71,20.71,0,0,1-2.136.12,9.808,9.808,0,0,1-6.7-2.184,7.446,7.446,0,0,1-2.5-5.9,7.618,7.618,0,0,1,1.356-4.356A10.545,10.545,0,0,1-.288,195.7q.024,0,.024-.048H-.288Q-4.008,195.792-9,195.84ZM5.28,230.88a1.394,1.394,0,0,1,1.368,1.368v3.408q0,.216.192.216h.24q.5,0,.588-.156a3.415,3.415,0,0,0,.084-1.044v-4.44a.17.17,0,0,0-.192-.192H-1.56a.17.17,0,0,0-.192.192v6.96a1.314,1.314,0,0,1-.408.96,1.314,1.314,0,0,1-.96.408h-.168a1.275,1.275,0,0,1-.948-.408,1.333,1.333,0,0,1-.4-.96v-8.376a1.131,1.131,0,0,1,.348-.828,1.131,1.131,0,0,1,.828-.348.148.148,0,0,0,.168-.168V222.12a1.314,1.314,0,0,1,.408-.96,1.314,1.314,0,0,1,.96-.408H8.04a1.394,1.394,0,0,1,1.368,1.368v5.352a.148.148,0,0,0,.168.168,1.106,1.106,0,0,1,1.1,1.1v5.736a14.686,14.686,0,0,1-.168,2.712,1.462,1.462,0,0,1-.636,1.032,3.7,3.7,0,0,1-1.668.264q-.216,0-1.608-.048A1.367,1.367,0,0,1,5.628,238a1.5,1.5,0,0,1-.42-1l-.024-.7q0-.192-.216-.192h-2.9q-.192,0-.192.168a1.111,1.111,0,0,1-.336.816,1.083,1.083,0,0,1-.792.336H.624a1.226,1.226,0,0,1-.9-.372,1.226,1.226,0,0,1-.372-.9v-3.912a1.314,1.314,0,0,1,.408-.96,1.314,1.314,0,0,1,.96-.408Zm-1.008,3.072v-.84a.17.17,0,0,0-.192-.192H2.088q-.216,0-.216.192v.84a.191.191,0,0,0,.216.216H4.08Q4.272,234.168,4.272,233.952Zm2.208-6.528v-.96q0-.192-.216-.192H4.176q-.216,0-.216.192v.96a.191.191,0,0,0,.216.216H6.264A.191.191,0,0,0,6.48,227.424Zm0-3.432v-.552a.191.191,0,0,0-.216-.216H-.192a.191.191,0,0,0-.216.216v3.984a.191.191,0,0,0,.216.216H1.08q.192,0,.192-.216v-1.872a1.275,1.275,0,0,1,.408-.948,1.333,1.333,0,0,1,.96-.4H6.264A.191.191,0,0,0,6.48,223.992ZM-9.912,221.88a1.362,1.362,0,0,1,1-.36,1.333,1.333,0,0,1,.948.432q.744.768,2.232,2.4a1.32,1.32,0,0,1,.348,1,1.378,1.378,0,0,1-.444.948l-.024.048a1.246,1.246,0,0,1-.972.348,1.378,1.378,0,0,1-.948-.444q-1.1-1.224-2.28-2.424a1.248,1.248,0,0,1-.372-.948,1.213,1.213,0,0,1,.42-.924Zm.312,10.128a1.266,1.266,0,0,1-.924-.4,1.266,1.266,0,0,1-.4-.924,1.266,1.266,0,0,1,.4-.924,1.266,1.266,0,0,1,.924-.4h2.688a1.293,1.293,0,0,1,.948.4,1.293,1.293,0,0,1,.4.948v6.072a.687.687,0,0,0,.12.36,3.453,3.453,0,0,0,1.416,1.344,8.548,8.548,0,0,0,2.724.636,53.841,53.841,0,0,0,5.436.2h5.5a1.169,1.169,0,0,1,.888.384,1.2,1.2,0,0,1,.336.912,1.3,1.3,0,0,1-.432.912,1.355,1.355,0,0,1-.96.384H4.2a41.021,41.021,0,0,1-6.948-.444A7.2,7.2,0,0,1-6.384,239.9a.255.255,0,0,0-.312-.024q-1.008.888-2.04,1.656a1.2,1.2,0,0,1-.984.192,1.162,1.162,0,0,1-.792-.6l-.1-.168a1.42,1.42,0,0,1-.168-1.056,1.343,1.343,0,0,1,.6-.888q.528-.36,1.488-1.128a.389.389,0,0,0,.168-.336V232.2q0-.192-.216-.192ZM3.648,257.784a1.348,1.348,0,0,1,1.056-.1,1.318,1.318,0,0,1,.816.672q.264.48.792,1.488a1.288,1.288,0,0,1,.048,1.032,1.318,1.318,0,0,1-.7.768,1.349,1.349,0,0,1-1.056.048,1.411,1.411,0,0,1-.792-.7q-.12-.216-.768-1.416a1.234,1.234,0,0,1-.1-1.008,1.317,1.317,0,0,1,.672-.792Zm4.008,2.5q-.12-.24-.384-.744t-.408-.744a1.319,1.319,0,0,1-.108-1.032,1.2,1.2,0,0,1,.66-.792l.072-.024a1.386,1.386,0,0,1,1.056-.108,1.276,1.276,0,0,1,.816.66q.792,1.512.816,1.56a1.311,1.311,0,0,1-.6,1.8L9.5,260.9a1.412,1.412,0,0,1-1.848-.624Zm-.7-6.768a1.394,1.394,0,0,1-1.368,1.368H-5.832a1.314,1.314,0,0,1-.96-.408,1.314,1.314,0,0,1-.408-.96v-.072a1.314,1.314,0,0,1,.408-.96,1.314,1.314,0,0,1,.96-.408H5.592A1.394,1.394,0,0,1,6.96,253.44ZM-.168,271.128a13.324,13.324,0,0,1-6.744-1.44,4.331,4.331,0,0,1-2.448-3.84q0-2.232,2.76-5.16a1.374,1.374,0,0,1,.984-.468,1.5,1.5,0,0,1,1.056.324l.168.12a1.1,1.1,0,0,1,.468.864,1.2,1.2,0,0,1-.324.936q-1.824,1.944-1.824,3.048A2.246,2.246,0,0,0-4.536,267.5a10.27,10.27,0,0,0,4.368.744,31.9,31.9,0,0,0,6.672-.792,1.306,1.306,0,0,1,1.02.18,1.206,1.206,0,0,1,.564.828l.048.192a1.376,1.376,0,0,1-.18,1.044,1.281,1.281,0,0,1-.852.612A36.25,36.25,0,0,1-.168,271.128ZM.6,292.92a2.04,2.04,0,0,0,.672-1.56A2,2,0,0,0,.6,289.812a2.467,2.467,0,0,0-1.728-.612,2.467,2.467,0,0,0-1.728.612,2,2,0,0,0-.672,1.548,2,2,0,0,0,.672,1.548,2.467,2.467,0,0,0,1.728.612A2.5,2.5,0,0,0,.6,292.92Zm-9.72-7.32a1.226,1.226,0,0,1-.9-.372,1.226,1.226,0,0,1-.372-.9,1.266,1.266,0,0,1,.372-.912,1.207,1.207,0,0,1,.9-.384H.744q.216,0,.216-.192v-1.08a1.314,1.314,0,0,1,.408-.96,1.314,1.314,0,0,1,.96-.408H2.64a1.314,1.314,0,0,1,.96.408,1.314,1.314,0,0,1,.408.96v1.056q0,.216.192.216H9.12a1.207,1.207,0,0,1,.9.384,1.266,1.266,0,0,1,.372.912A1.27,1.27,0,0,1,9.12,285.6H4.2q-.192,0-.192.216v4.344a1.034,1.034,0,0,0,.072.408,8.376,8.376,0,0,1,.552,3.024,7.282,7.282,0,0,1-1.776,5.256q-1.776,1.848-5.88,2.5a1.258,1.258,0,0,1-1.02-.264,1.534,1.534,0,0,1-.588-.912v-.1A1.218,1.218,0,0,1-4.4,299.1a1.325,1.325,0,0,1,.876-.54,9.277,9.277,0,0,0,3.7-1.164,3.442,3.442,0,0,0,1.392-2.172.107.107,0,0,1,.012-.048.106.106,0,0,0,.012-.048V295.1H1.512a4.822,4.822,0,0,1-3.12.984,4.918,4.918,0,0,1-3.564-1.332,4.516,4.516,0,0,1-1.38-3.4,4.467,4.467,0,0,1,1.4-3.408,5.094,5.094,0,0,1,3.636-1.32,5.389,5.389,0,0,1,2.4.552q.024,0,.024.012t.024.012a.021.021,0,0,0,.024-.024v-1.368a.191.191,0,0,0-.216-.216Z" transform="translate(2021 -8384)"/>
    <path id="パス_8756" data-name="パス 8756" class="cls-2" d="M7.368-9.768q0-3.552-3.816-4.056-.192-.048-.192.168v6.624q0,.792-.024,1.152a.258.258,0,0,0,.048.144.1.1,0,0,0,.12.048Q7.368-6.24,7.368-9.768ZM-8.64-2.64a1.314,1.314,0,0,1-.96-.408,1.314,1.314,0,0,1-.408-.96v-11.52a1.275,1.275,0,0,1,.408-.948,1.333,1.333,0,0,1,.96-.4h.168a1.293,1.293,0,0,1,.948.4,1.293,1.293,0,0,1,.4.948v3.816a.021.021,0,0,0,.024.024q.048,0,.048-.024A10.236,10.236,0,0,1,0-16.608a.227.227,0,0,0,.192-.24V-18A1.314,1.314,0,0,1,.6-18.96a1.314,1.314,0,0,1,.96-.408h.432a1.314,1.314,0,0,1,.96.408A1.314,1.314,0,0,1,3.36-18v1.032q0,.24.216.24a8.12,8.12,0,0,1,5.2,2.052A6.583,6.583,0,0,1,10.56-9.768a6.528,6.528,0,0,1-1.944,5.04A8.641,8.641,0,0,1,3.024-2.736a.264.264,0,0,0-.264.192A6.032,6.032,0,0,1,1.332-.2a7.946,7.946,0,0,1-2.508,1.62,1.433,1.433,0,0,1-1.092.048A1.485,1.485,0,0,1-3.12.744L-3.24.552a1.153,1.153,0,0,1-.084-.984,1.288,1.288,0,0,1,.66-.744,5.045,5.045,0,0,0,2.04-1.68q.1-.192-.1-.24a8.942,8.942,0,0,1-3.5-1.9,1.333,1.333,0,0,1-.456-.984,1.55,1.55,0,0,1,.336-1.056l.048-.1a1.068,1.068,0,0,1,.864-.456,1.313,1.313,0,0,1,.96.336A7.091,7.091,0,0,0,0-5.9.1.1,0,0,0,.12-5.94a.207.207,0,0,0,.048-.132q.024-.312.024-.96v-6.456a.207.207,0,0,0-.048-.132.1.1,0,0,0-.12-.036,8.609,8.609,0,0,0-4.908,3.288,11.856,11.856,0,0,0-2.268,6.36,1.483,1.483,0,0,1-.456.972,1.333,1.333,0,0,1-.96.4Zm.816,22.128v-.072a1.313,1.313,0,0,1,.192-1.032,1.333,1.333,0,0,1,.864-.6A39.587,39.587,0,0,1,.72,16.68q7.392,0,7.392,6.168,0,7.368-11.232,7.752a1.4,1.4,0,0,1-1.02-.372,1.332,1.332,0,0,1-.468-.972v-.024a1.176,1.176,0,0,1,.324-.948,1.3,1.3,0,0,1,.924-.42q4.44-.168,6.408-1.356a3.794,3.794,0,0,0,1.968-3.444,3.248,3.248,0,0,0-1.092-2.712,5.64,5.64,0,0,0-3.492-.864A35.162,35.162,0,0,0-6.192,20.52a1.33,1.33,0,0,1-1.02-.18A1.281,1.281,0,0,1-7.824,19.488ZM.936,51.1a1.257,1.257,0,0,1-.948-.3,1.266,1.266,0,0,1-.468-.9,1.344,1.344,0,0,1,.312-1,1.276,1.276,0,0,1,.912-.492q3.7-.384,7.248-.408a1.254,1.254,0,0,1,.936.4,1.314,1.314,0,0,1,.384.948,1.352,1.352,0,0,1-1.344,1.344Q4.152,50.76.936,51.1ZM8.16,57.984a1.311,1.311,0,0,1,1,.264,1.28,1.28,0,0,1,.516.888,1.388,1.388,0,0,1-.264,1.032,1.267,1.267,0,0,1-.888.528,28.039,28.039,0,0,1-3.72.264A10.065,10.065,0,0,1-.492,59.748a3.575,3.575,0,0,1-1.98-3.108,4.157,4.157,0,0,1,1.416-2.856,1.491,1.491,0,0,1,1-.444,1.717,1.717,0,0,1,1.068.276.926.926,0,0,1,.444.744,1.067,1.067,0,0,1-.3.84,1.68,1.68,0,0,0-.6,1.128q0,.84,1.14,1.38a7.374,7.374,0,0,0,3.108.54A25.067,25.067,0,0,0,8.16,57.984ZM-9,61.008a1.2,1.2,0,0,1-.8-.6A1.146,1.146,0,0,1-9.888,59.4a127.228,127.228,0,0,0,3.5-13.1q.048-.216-.144-.216h-1.7a1.314,1.314,0,0,1-.96-.408,1.314,1.314,0,0,1-.408-.96,1.275,1.275,0,0,1,.408-.948,1.333,1.333,0,0,1,.96-.4H-6a.227.227,0,0,0,.24-.192q.192-.912.264-1.368a1.531,1.531,0,0,1,.564-.924,1.407,1.407,0,0,1,1.02-.3l.312.024a1.2,1.2,0,0,1,.888.492,1.234,1.234,0,0,1,.24,1q-.024.192-.1.528t-.1.528a.145.145,0,0,0,.036.144.172.172,0,0,0,.132.072H4.32a1.333,1.333,0,0,1,.96.4,1.275,1.275,0,0,1,.408.948,1.314,1.314,0,0,1-.408.96,1.314,1.314,0,0,1-.96.408H-3a.241.241,0,0,0-.264.192A123.881,123.881,0,0,1-6.864,60.1a1.354,1.354,0,0,1-.684.828,1.517,1.517,0,0,1-1.068.156Zm2.592,22.824a1.293,1.293,0,0,1-.948-.4,1.293,1.293,0,0,1-.4-.948V73.032a1.293,1.293,0,0,1,.4-.948,1.293,1.293,0,0,1,.948-.4H-6a1.333,1.333,0,0,1,.96.4,1.275,1.275,0,0,1,.408.948v3.36a.042.042,0,0,0,.048-.048q2.568-4.176,6.816-4.176a5.762,5.762,0,0,1,4.692,2.076A8.93,8.93,0,0,1,8.64,80.088q0,5.568-3,8.292t-9.528,2.964a1.318,1.318,0,0,1-1-.372A1.46,1.46,0,0,1-5.352,90l-.024-.168a1.252,1.252,0,0,1,.348-.948,1.3,1.3,0,0,1,.924-.42q5.112-.192,7.248-2.136t2.136-6.24a6.389,6.389,0,0,0-.864-3.66,2.858,2.858,0,0,0-2.5-1.236,5.53,5.53,0,0,0-4.1,2.076,9.85,9.85,0,0,0-2.4,5.22,1.654,1.654,0,0,1-.5.96,1.384,1.384,0,0,1-.984.384ZM.312,121.2q-4.44,0-6.7-1.488a4.878,4.878,0,0,1-2.256-4.344q0-3.12,3.72-5.592a.3.3,0,0,0,.12-.288v-.072q-.912-3.864-1.368-6.432a1.329,1.329,0,0,1,.228-1.02,1.3,1.3,0,0,1,.876-.564l.6-.1a1.269,1.269,0,0,1,1.008.24,1.452,1.452,0,0,1,.576.888q.528,2.832,1.152,5.424.048.24.24.144a52.725,52.725,0,0,1,7.824-2.5,1.341,1.341,0,0,1,1.032.18,1.209,1.209,0,0,1,.576.852l.048.216a1.313,1.313,0,0,1-.192,1.032,1.333,1.333,0,0,1-.864.6,36.268,36.268,0,0,0-9.144,3.264Q-5.28,113.424-5.28,115.2q0,3.12,5.592,3.12a48.083,48.083,0,0,0,6.408-.432,1.311,1.311,0,0,1,1,.264,1.28,1.28,0,0,1,.516.888l.024.168a1.36,1.36,0,0,1-.276,1.02,1.294,1.294,0,0,1-.9.54A48.473,48.473,0,0,1,.312,121.2Zm3.96,17.184a1.355,1.355,0,0,1,.96-.384,1.311,1.311,0,0,1,1.32,1.32v4.272a.191.191,0,0,0,.216.216h.384q.312,0,.372-.072a1.041,1.041,0,0,0,.06-.48v-4.128a1.394,1.394,0,0,1,1.368-1.368h.12a1.394,1.394,0,0,1,1.368,1.368v5.064q0,1.3-.42,1.608a4.422,4.422,0,0,1-2.148.312q-.768,0-1.536-.048a1.337,1.337,0,0,1-.912-.408,1.462,1.462,0,0,1-.432-.936v-.048a.127.127,0,0,0-.144-.144.929.929,0,0,1-.684-.276.9.9,0,0,1-.276-.66V139.32A1.274,1.274,0,0,1,4.272,138.384Zm-15.624,6.84-.048-.12a1.38,1.38,0,0,1,.1-1.068,1.617,1.617,0,0,1,.792-.756,21.717,21.717,0,0,0,1.992-.96.358.358,0,0,0,.192-.312q.048-1.632.048-2.76,0-.1-.12-.048a.757.757,0,0,1-.636.1.892.892,0,0,1-.516-.408q-.6-1.08-1.464-2.472a1.291,1.291,0,0,1-.192-1.02,1.329,1.329,0,0,1,.6-.852,1.245,1.245,0,0,1,1.008-.192,1.249,1.249,0,0,1,.84.6,3.474,3.474,0,0,1,.192.3,3.474,3.474,0,0,0,.192.3.054.054,0,0,0,.06.012.055.055,0,0,0,.036-.06V132.84a1.314,1.314,0,0,1,.408-.96,1.314,1.314,0,0,1,.96-.408h6.84a.17.17,0,0,0,.192-.192,1.314,1.314,0,0,1,.408-.96,1.314,1.314,0,0,1,.96-.408h.48a1.275,1.275,0,0,1,.948.408,1.333,1.333,0,0,1,.4.96q0,.192.216.192H9.96a1.27,1.27,0,0,1,1.272,1.272,1.266,1.266,0,0,1-.372.912,1.207,1.207,0,0,1-.9.384H7.632q-.048,0-.048.024a.069.069,0,0,0,.024.048q1.2.5,2.832,1.032a1.316,1.316,0,0,1,.732.612,1.213,1.213,0,0,1,.132.924,1.095,1.095,0,0,1-1.44.768q-.84-.312-2.424-.984-.12-.048-.12.048a.692.692,0,0,1-.192.492.632.632,0,0,1-.48.2H-.48a.632.632,0,0,1-.48-.2.692.692,0,0,1-.192-.492q0-.1-.1-.048-1.464.624-3.144,1.224a.069.069,0,0,0-.024.048q0,.024.048.024H1.608a1.275,1.275,0,0,1,.948.408,1.333,1.333,0,0,1,.4.96v5.064a4.822,4.822,0,0,1-.1,1.224.22.22,0,0,0,.1.288l.024.024q.048,0,.048.024l1.152,1.008a1.275,1.275,0,0,1,.024,1.824,1.182,1.182,0,0,1-.9.384,1.3,1.3,0,0,1-.924-.36,22.06,22.06,0,0,0-1.92-1.632q-.168-.12-.168.1v1.608a1.775,1.775,0,0,0,.144.948,1.6,1.6,0,0,0,.888.2q.576.048,1.176.048.528,0,1.2-.048a4.6,4.6,0,0,0,1.044-.144.614.614,0,0,0,.372-.48,1.566,1.566,0,0,1,.564-.852,1.112,1.112,0,0,1,.924-.228l.72.144a.062.062,0,0,0,.084-.024.086.086,0,0,0,.012-.1,1.2,1.2,0,0,1,.48-1.68l.072-.048a1.386,1.386,0,0,1,1.056-.108,1.361,1.361,0,0,1,.84.66q.624,1.08,1.32,2.568a1.323,1.323,0,0,1,.06,1.032,1.274,1.274,0,0,1-.684.768,1.208,1.208,0,0,1-.984.06,1.288,1.288,0,0,1-.744-.66q-.264-.576-.888-1.68a.077.077,0,0,0-.072-.048.042.042,0,0,0-.048.048,3.991,3.991,0,0,1-.768,2.532,5.107,5.107,0,0,1-2.76.612q-.72.072-1.776.072-.816,0-1.776-.048a5.563,5.563,0,0,1-2.868-.528q-.516-.456-.516-2.376v-1.392q-.024-.024-.072,0A13.815,13.815,0,0,1-4.2,150.888a1.3,1.3,0,0,1-.888.588,1.4,1.4,0,0,1-1.056-.2,1.17,1.17,0,0,1-.552-.8A1.312,1.312,0,0,1-6.5,149.5a14.111,14.111,0,0,0,1.056-1.848,1.578,1.578,0,0,1,.78-.732,1.228,1.228,0,0,1,1.02-.012l.936.36a.03.03,0,0,0,.048,0,.069.069,0,0,0,.024-.048.444.444,0,0,1,.156-.336.5.5,0,0,1,.348-.144H-.072a.461.461,0,0,0,.336-.144l.336-.336a.078.078,0,0,0,.024-.1.077.077,0,0,0-.072-.048H-.1a1.039,1.039,0,0,1-.7-.312,1.147,1.147,0,0,1-.336-.7.823.823,0,0,1,.252-.66.929.929,0,0,1,.684-.276h.12q.264,0,.3-.048a.733.733,0,0,0,.036-.312v-.024a.191.191,0,0,0-.216-.216H-1.584q-.192,0-.192.216v.984a1.275,1.275,0,0,1-.408.948,1.333,1.333,0,0,1-.96.4h-.144a1.293,1.293,0,0,1-.948-.4,1.293,1.293,0,0,1-.4-.948v-6.96q0-.024-.048-.024a.114.114,0,0,1-.168-.072L-5.3,136.68a1.124,1.124,0,0,1,.024-.936,1.084,1.084,0,0,1,.7-.6q1.7-.528,2.976-1.032a.069.069,0,0,0,.024-.048q0-.024-.048-.024h-3.72q-.216,0-.216.192v6.576a27.269,27.269,0,0,1-.552,6.108,11.789,11.789,0,0,1-1.872,4.164,1.009,1.009,0,0,1-.852.468,1.185,1.185,0,0,1-.924-.4l-.216-.24a1.544,1.544,0,0,1-.42-1,1.547,1.547,0,0,1,.3-1.044A8.434,8.434,0,0,0-8.712,145.7a.1.1,0,0,0-.036-.12.1.1,0,0,0-.108-.024q-.264.144-.84.432a1.093,1.093,0,0,1-1,0A1.237,1.237,0,0,1-11.352,145.224Zm9.576-5.472v.168a.17.17,0,0,0,.192.192H.048q.216,0,.216-.192v-.168q0-.192-.216-.192H-1.584A.17.17,0,0,0-1.776,139.752Zm0,2.016v.168a.17.17,0,0,0,.192.192H.048q.216,0,.216-.192v-.168a.191.191,0,0,0-.216-.216H-1.584Q-1.776,141.552-1.776,141.768Zm6.816-6.336q.048,0,.048-.036t-.048-.06q-.624-.312-1.776-.984a.361.361,0,0,0-.36,0q-.576.336-1.824,1.008a.069.069,0,0,0-.024.048q0,.024.048.024ZM-.408,181.368q-4.08,0-5.64-1.98t-1.56-7.308q0-4.344.264-9.36a1.46,1.46,0,0,1,.444-.96,1.262,1.262,0,0,1,.972-.36h.576a1.28,1.28,0,0,1,.924.432,1.29,1.29,0,0,1,.348.96q-.24,5.16-.24,9.288a14.124,14.124,0,0,0,.42,3.948,3.051,3.051,0,0,0,1.212,1.824,4.532,4.532,0,0,0,2.28.468q4.152,0,6.768-5.664a1.468,1.468,0,0,1,.756-.732,1.351,1.351,0,0,1,1.044-.036l.312.144a1.309,1.309,0,0,1,.768.72,1.169,1.169,0,0,1,0,1.032Q5.952,181.368-.408,181.368Zm-1.008,13.92a7.548,7.548,0,0,0-4.416,2.556,7.292,7.292,0,0,0-1.608,4.788,6.862,6.862,0,0,0,.744,3.24q.744,1.416,1.416,1.416a1.064,1.064,0,0,0,.7-.324,4.34,4.34,0,0,0,.8-1.176,14.327,14.327,0,0,0,.864-2.136,33.308,33.308,0,0,0,.864-3.408q.444-2.124.8-4.788a.122.122,0,0,0-.036-.132A.122.122,0,0,0-1.416,195.288ZM-5.28,210.312a4.528,4.528,0,0,1-3.576-2.232,8.978,8.978,0,0,1-1.632-5.448,9.78,9.78,0,0,1,3.168-7.56,11.774,11.774,0,0,1,8.28-2.9,9.462,9.462,0,0,1,6.828,2.592,8.753,8.753,0,0,1,2.7,6.6,10.416,10.416,0,0,1-1.74,6.2,7.7,7.7,0,0,1-4.764,3.108,1.272,1.272,0,0,1-1.044-.216,1.446,1.446,0,0,1-.588-.912l-.048-.216a1.2,1.2,0,0,1,.192-.984,1.566,1.566,0,0,1,.84-.624q4.1-1.272,4.1-6.36a6.138,6.138,0,0,0-1.452-4.14,6.141,6.141,0,0,0-3.8-2.076.2.2,0,0,0-.264.168q-.48,3.624-1.08,6.3a28.919,28.919,0,0,1-1.26,4.32,10.1,10.1,0,0,1-1.476,2.64A4.858,4.858,0,0,1-3.5,209.94,4.127,4.127,0,0,1-5.28,210.312ZM-8.4,225.12a1.314,1.314,0,0,1-.96-.408,1.314,1.314,0,0,1-.408-.96,1.275,1.275,0,0,1,.408-.948,1.333,1.333,0,0,1,.96-.4h6.192a1.333,1.333,0,0,1,.96.4,1.275,1.275,0,0,1,.408.948v.168a2.681,2.681,0,0,1-1.08,2.136,11.1,11.1,0,0,0-2.844,3.552,8.925,8.925,0,0,0-1.068,4.08A4.937,4.937,0,0,0-4.6,237.312a4.662,4.662,0,0,0,3.468,1.248,4.906,4.906,0,0,0,3.852-1.512,6.412,6.412,0,0,0,1.356-4.416,20.839,20.839,0,0,0-1.536-7.8,1.947,1.947,0,0,1-.084-1.152,1.738,1.738,0,0,1,.588-.984l.12-.12a1.324,1.324,0,0,1,1-.312,1.519,1.519,0,0,1,.972.456,52.431,52.431,0,0,0,5.28,4.92,1.439,1.439,0,0,1,.516.924,1.327,1.327,0,0,1-.252,1.02l-.072.1a1.31,1.31,0,0,1-.888.54,1.193,1.193,0,0,1-.984-.276q-1.152-.936-2.352-2.064a.069.069,0,0,0-.048-.024v.048a20.136,20.136,0,0,1,.864,5.544,7.472,7.472,0,0,1-2.232,5.736,8.569,8.569,0,0,1-6.1,2.088A8.186,8.186,0,0,1-6.936,239.3a7.112,7.112,0,0,1-2.112-5.472,9.973,9.973,0,0,1,1.152-4.5,14.141,14.141,0,0,1,3.192-4.14.069.069,0,0,0,.024-.048.021.021,0,0,0-.024-.024ZM.312,271.2q-4.44,0-6.7-1.488a4.878,4.878,0,0,1-2.256-4.344q0-3.12,3.72-5.592a.3.3,0,0,0,.12-.288v-.072q-.912-3.864-1.368-6.432a1.329,1.329,0,0,1,.228-1.02,1.3,1.3,0,0,1,.876-.564l.6-.1a1.269,1.269,0,0,1,1.008.24,1.452,1.452,0,0,1,.576.888q.528,2.832,1.152,5.424.048.24.24.144a52.72,52.72,0,0,1,7.824-2.5,1.341,1.341,0,0,1,1.032.18,1.209,1.209,0,0,1,.576.852l.048.216a1.313,1.313,0,0,1-.192,1.032,1.333,1.333,0,0,1-.864.6,36.269,36.269,0,0,0-9.144,3.264Q-5.28,263.424-5.28,265.2q0,3.12,5.592,3.12a48.084,48.084,0,0,0,6.408-.432,1.311,1.311,0,0,1,1,.264,1.28,1.28,0,0,1,.516.888l.024.168a1.36,1.36,0,0,1-.276,1.02,1.294,1.294,0,0,1-.9.54A48.474,48.474,0,0,1,.312,271.2ZM2.28,296.592a1.261,1.261,0,0,1,.348.984,1.351,1.351,0,0,1-.468.96l-.072.048a1.28,1.28,0,0,1-1,.336,1.425,1.425,0,0,1-.948-.456q-.792-.864-1.608-1.68a1.212,1.212,0,0,1-.4-.948,1.213,1.213,0,0,1,.42-.924l.072-.072a1.438,1.438,0,0,1,1.02-.372,1.4,1.4,0,0,1,1,.42Q1.488,295.728,2.28,296.592Zm-11.448,4.92a1.293,1.293,0,0,1-.948-.4,1.293,1.293,0,0,1-.4-.948V282.72a1.333,1.333,0,0,1,.4-.96,1.275,1.275,0,0,1,.948-.408h4.9a1.275,1.275,0,0,1,.948.408,1.333,1.333,0,0,1,.4.96v5.616a1.246,1.246,0,0,1,.384-.912,1.246,1.246,0,0,1,.912-.384h4.08q.192,0,.192-.216v-1.776q0-.216-.192-.216H-.744a1.207,1.207,0,0,1-.888-.36,1.207,1.207,0,0,1-.36-.888,1.247,1.247,0,0,1,.36-.9,1.187,1.187,0,0,1,.888-.372H2.448a.17.17,0,0,0,.192-.192v-.768a1.275,1.275,0,0,1,.408-.948,1.333,1.333,0,0,1,.96-.4H4.44a1.333,1.333,0,0,1,.96.4,1.275,1.275,0,0,1,.408.948v.768a.17.17,0,0,0,.192.192H9.024a1.187,1.187,0,0,1,.888.372,1.247,1.247,0,0,1,.36.9,1.23,1.23,0,0,1-1.248,1.248H6q-.192,0-.192.216v1.776q0,.216.192.216H9.792a1.3,1.3,0,0,1,0,2.592H9.12q-.192,0-.192.216v1.464q0,.216.192.216h.672a1.266,1.266,0,0,1,.912.372,1.3,1.3,0,0,1,0,1.848,1.266,1.266,0,0,1-.912.372H9.12q-.192,0-.192.216v3.792q0,1.008-.036,1.584a4.615,4.615,0,0,1-.192,1.08,1.759,1.759,0,0,1-.372.72,1.854,1.854,0,0,1-.708.384,3.714,3.714,0,0,1-1.044.192q-.552.024-1.536.024-.192,0-1.68-.048a1.34,1.34,0,0,1-.936-.42,1.511,1.511,0,0,1-.432-.948,1.111,1.111,0,0,1,.348-.888,1.166,1.166,0,0,1,.9-.336q1.1.048,1.248.048a2.307,2.307,0,0,0,1.116-.144q.156-.144.156-1.056v-3.984q0-.216-.192-.216h-7.2a1.266,1.266,0,0,1-.912-.372,1.234,1.234,0,0,1-.384-.924V298.8a1.333,1.333,0,0,1-.4.96,1.275,1.275,0,0,1-.948.408H-7.464a.148.148,0,0,0-.168.168,1.113,1.113,0,0,1-.36.828,1.171,1.171,0,0,1-.84.348Zm1.536-17.232v4.752q0,.216.192.216h1.56q.192,0,.192-.216V284.28a.17.17,0,0,0-.192-.192H-7.44A.17.17,0,0,0-7.632,284.28Zm0,7.8v5.232q0,.216.192.216h1.56q.192,0,.192-.216V292.08a.17.17,0,0,0-.192-.192H-7.44A.17.17,0,0,0-7.632,292.08Zm4.7.744a1.234,1.234,0,0,1,.384-.924,1.266,1.266,0,0,1,.912-.372h7.2q.192,0,.192-.216v-1.464q0-.216-.192-.216h-7.2a1.246,1.246,0,0,1-.912-.384,1.246,1.246,0,0,1-.384-.912Zm-5.784,22.848a1.266,1.266,0,0,1-.912-.372,1.207,1.207,0,0,1-.384-.9,1.207,1.207,0,0,1,.384-.9,1.266,1.266,0,0,1,.912-.372H-5.04q.168,0,.264-.216l.432-1.152a1.559,1.559,0,0,1,.7-.852,1.551,1.551,0,0,1,1.08-.2l.408.1a1.185,1.185,0,0,1,.792.564,1.1,1.1,0,0,1,.1.948q-.048.12-.132.324t-.108.276q-.048.216.144.216h8.5a1.272,1.272,0,1,1,0,2.544H-2.424a.28.28,0,0,0-.288.192q-.336.792-.816,1.8,0,.048.024.048h.024a6.635,6.635,0,0,1,2.448-.5A4.256,4.256,0,0,1,3.216,319.9a.24.24,0,0,0,.312.144q1.92-.384,3.552-.6a1.236,1.236,0,0,1,.96.264,1.212,1.212,0,0,1,.48.888,1.357,1.357,0,0,1-.288.984,1.294,1.294,0,0,1-.888.5q-2.088.312-3.216.552-.216.048-.168.24.144,1.272.168,2.16a1.25,1.25,0,0,1-.372.96,1.275,1.275,0,0,1-.948.408h-.48a1.333,1.333,0,0,1-.96-.4,1.362,1.362,0,0,1-.432-.948q-.024-.648-.072-1.32,0-.216-.192-.168-3.864,1.344-3.864,2.9a1.619,1.619,0,0,0,.36,1.092,3.068,3.068,0,0,0,1.56.708,15.167,15.167,0,0,0,3.36.288,37.768,37.768,0,0,0,4.632-.36,1.286,1.286,0,0,1,1,.276,1.237,1.237,0,0,1,.492.9,1.407,1.407,0,0,1-.3,1.02,1.339,1.339,0,0,1-.924.516,41.458,41.458,0,0,1-4.9.288q-4.512,0-6.5-1.068a3.527,3.527,0,0,1-1.992-3.324q0-3.7,6.48-5.856.216-.048.12-.24A2.025,2.025,0,0,0-1.752,319.7q-2.256,0-5.208,3.792a1.509,1.509,0,0,1-.936.564,1.462,1.462,0,0,1-1.056-.18l-.192-.12a1.26,1.26,0,0,1-.576-.816,1.2,1.2,0,0,1,.192-.984A42.785,42.785,0,0,0-6,315.888a.182.182,0,0,0-.012-.144.115.115,0,0,0-.108-.072Z" transform="translate(1955 -8322)"/>
    <path id="パス_8760" data-name="パス 8760" class="cls-2" d="M-8.568-7.032a1.275,1.275,0,0,1-.948-.408,1.333,1.333,0,0,1-.4-.96v-.48a1.333,1.333,0,0,1,.4-.96,1.275,1.275,0,0,1,.948-.408H8.568a1.275,1.275,0,0,1,.948.408,1.333,1.333,0,0,1,.4.96v.48a1.333,1.333,0,0,1-.4.96,1.275,1.275,0,0,1-.948.408Z" transform="translate(2082 -8287) rotate(90)"/>
  </g>
</svg>
