<svg xmlns="http://www.w3.org/2000/svg" width="292.397" height="176.039" viewBox="0 0 292.397 176.039">
  <defs>
    <style>
      .cls-1 {
        fill: #c1dbb9;
      }

      .cls-2 {
        fill: #edbc32;
      }

      .cls-3 {
        fill: #fbe088;
      }

      .cls-4 {
        fill: #d9374b;
      }

      .cls-5 {
        fill: #2f253f;
      }

      .cls-6 {
        fill: none;
      }

      .cls-7 {
        fill: #282828;
      }

      .cls-8 {
        fill: #fbd8b5;
      }

      .cls-9 {
        fill: #fce952;
      }

      .cls-10 {
        fill: #6b6b6b;
      }

      .cls-11 {
        fill: #4aa3d5;
      }

      .cls-12 {
        fill: #a4cced;
      }
    </style>
  </defs>
  <g id="グループ_1147" data-name="グループ 1147" transform="translate(-3287.506 8349.145)">
    <path id="パス_8139" data-name="パス 8139" class="cls-1" d="M.465,34.817c4.81,22.2,34.807,34.654,86.9,28.151S197.945,18.6,185.22,3.489,129.8,28.266,79.177,11.241-4.344,12.616.465,34.817Z" transform="translate(3517.835 -8173.106) rotate(-171)"/>
    <path id="パス_8080" data-name="パス 8080" class="cls-2" d="M142.991,11.619c-.414-3.838,6.523-2.725,8.964-2.66s4.3-1.8,7.3.116c1.456.928-.009,3.889-2.563,5.365s-4.539,2.274-7.622,2.047-5.939-3.536-6.083-4.869" transform="translate(3242.863 -8321.176)"/>
    <path id="パス_8081" data-name="パス 8081" class="cls-3" d="M149.511,129.349c-.906.391-5.063,1.528-6.56.748-.045-.023-.085-.05-.127-.075a19.164,19.164,0,0,0,6.3-2.87c.763.915,1.064,1.906.39,2.2" transform="translate(3242.91 -8358.314)"/>
    <path id="パス_8082" data-name="パス 8082" class="cls-3" d="M132.915,106.245a18.1,18.1,0,0,0-1.172-3.962,146.908,146.908,0,0,1-7.9-14.583c-3.444-7.723-8.385-16.225-6.461-19.285,1.188-1.891,4.523-5.28,6.25-5.733,1.068-.28,2.748.626,2.6,1.858-.45,3.669,4.087,27.7,7.693,32.6a52.238,52.238,0,0,1,3.086,5.265,16.243,16.243,0,0,0,3.2,3.782,5.646,5.646,0,0,1,.838.814,19.16,19.16,0,0,1-6.3,2.87c-1.377-.811-1.556-2.479-1.83-3.631" transform="translate(3250.989 -8338.168)"/>
    <path id="パス_8083" data-name="パス 8083" class="cls-3" d="M126.346,136.758a17.33,17.33,0,0,1-4.829.307,23.537,23.537,0,0,0,4.749-2.558c.633,1.023.8,2.059.08,2.251" transform="translate(3249.563 -8360.611)"/>
    <path id="パス_8084" data-name="パス 8084" class="cls-3" d="M102.2,71.862c1.45-1.7,5.241-4.568,7.015-4.765,1.1-.122,2.629,1.018,2.3,2.215-.977,3.564.025,28,2.882,33.375a49.017,49.017,0,0,1,2.464,5.087c.305.787,1.285,3.557,2.44,4.776a5.685,5.685,0,0,1,.7.906,23.555,23.555,0,0,1-4.749,2.558,3.843,3.843,0,0,1-1.77-.519c-1.369-.988-.919-4.737-1.027-5.953-.123-1.4-4.371-9.521-6.658-17.662s-5.943-17.27-3.6-20.019" transform="translate(3255.831 -8339.56)"/>
    <path id="パス_8085" data-name="パス 8085" class="cls-3" d="M39.9,143.623c.605.871.785,1.74.155,1.988a17.768,17.768,0,0,1-3.847.8,9.646,9.646,0,0,0,3.693-2.787" transform="translate(3276.201 -8363.457)"/>
    <path id="パス_8086" data-name="パス 8086" class="cls-3" d="M12.992,71.09c8.2-8.21,6.274-9.143,6.079-9.8-.6-2.02-1.691-1.481-5.726-8.268-2.281-3.84-1.631-10.053-.208-15.123,1.587-5.684,6.512-12.945,19.419-14.553s16.356,7.376,25.514,6.381c6.078-.665,18.336,5.217,24.025,3.294a4.827,4.827,0,0,0,2.2-2.118,16.307,16.307,0,0,0,1.019-1.928,25.074,25.074,0,0,0,2.135-8.03c-.032-8.5,3.826-10.376,10.77-13.071,4.06-1.576,8.472-.413,11.988,4.859,2.937,4.406,6.2,9.476,8.226,9.773,1.97.288,2.237,4.55.637,6.708a9.483,9.483,0,0,1-6.907,3.992c-4.672.157-7.2-1.555-8.666,1.224a13.068,13.068,0,0,0-.9,2.612c-.173.666-.347,1.4-.521,2.188-.814,3.661-1.709,8.374-3.374,11.913-3.236,6.872-.35,10.089-8.261,14.965-7.991,4.921-30.056,5.191-39.412,4.543-7.047-.489-11.371-4.848-18.912,1.71-7.142,6.219-12.371,4.355-11.151,7.384,2.41,5.964,3.384,9.215,4.781,12.118.421.873,3.761,7.025,5.044,8.107a5.579,5.579,0,0,1,.973,1.062,9.639,9.639,0,0,1-3.693,2.787,5.222,5.222,0,0,1-2.734-.268c-1.47-.829-1.452-2.609-1.834-3.769A44.422,44.422,0,0,0,20.9,94.056c-3.094-5.787-8.488-14.574-10.076-17.576-1.548-2.931-.15-3.072,2.166-5.39" transform="translate(3284.329 -8320.869)"/>
    <path id="パス_8087" data-name="パス 8087" class="cls-3" d="M16.556,40.311c-.7-3.8-7.248-1.7-9.568-.935s-4.418.47-6.746,3.164c-1.129,1.306,1.9,1.642,4.77,2.324s4.224,2.957,7.112,1.856,4.675-5.091,4.431-6.409" transform="translate(3287.506 -8330.511)"/>
    <path id="パス_8088" data-name="パス 8088" class="cls-3" d="M124.148,27.3a6.171,6.171,0,0,1-2.134,1.922c-2.752,1.408-4.344-.71-7.27-1.077-2.076-.261-4.206-.341-4.923-.873,4.879-.916,10.161-2.667,14.327.028" transform="translate(3253.215 -8326.688)"/>
    <path id="パス_8089" data-name="パス 8089" class="cls-3" d="M109.7,24.845c-.294-.217-.356-.508-.072-.921,2.023-2.929,4.142-2.865,6.365-3.874s8.5-3.8,9.613-.1c.267.888-.3,3.151-1.578,4.928-4.166-2.7-9.448-.944-14.327-.028" transform="translate(3253.331 -8324.26)"/>
    <path id="パス_8090" data-name="パス 8090" class="cls-3" d="M167.7,29.505c-.541-.371-.921-.415-1.235-.133s-.89.51-.344.878,1.3.982,1.961.933.4-1.142-.382-1.679" transform="translate(3235.705 -8327.727)"/>
    <path id="パス_8091" data-name="パス 8091" class="cls-3" d="M155.882,42.308c.486.524.848.94.748,1.616s-.367,1.065-.684.792-.315-.756-.548.114-.353,1.77-.9.882-.743-1.541-.924-.972-.173,1.2-.6.489-.814-.98-.594-2.035.834-1.8,1.646-1.864a2.58,2.58,0,0,1,1.852.978" transform="translate(3239.945 -8331.517)"/>
    <path id="パス_8092" data-name="パス 8092" class="cls-4" d="M117.952,40.782c3.893,2.455,10.068,6.111,13.763,7.508a11.5,11.5,0,0,0,4.019.819c.174-.785.347-1.521.521-2.188a9.057,9.057,0,0,1-3.772-.662c-3.371-1.276-9.4-4.8-13.511-7.4a16.3,16.3,0,0,1-1.019,1.927" transform="translate(3250.676 -8330.744)"/>
    <path id="パス_8093" data-name="パス 8093" class="cls-2" d="M147.768,58.724a.991.991,0,1,0,1.4-.1.991.991,0,0,0-1.4.1" transform="translate(3241.442 -8336.841)"/>
    <path id="パス_8094" data-name="パス 8094" class="cls-2" d="M146.157,51.44a2.293,2.293,0,0,0-3.116-1c-1.428.772-1.107,2.641-.48,3.6a4.937,4.937,0,0,1,.585,3.446c-.292.578.1,1.439,1.488.559s3.1-1.71,4.163-2.455,1.113-1.528.1-1.677-2.241-1.729-2.741-2.472" transform="translate(3243.158 -8334.273)"/>
    <path id="パス_8095" data-name="パス 8095" class="cls-3" d="M120.777,2.838c.325,0,.7-.016,1.13-.037s.872-.032,1.355-.025h0a8.71,8.71,0,0,1,2.814.477,6.312,6.312,0,0,1,.759.332,6.664,6.664,0,0,1,1.9,1.468l.036.04c.107.118.208.237.305.349,1.354,1.586,1.676,2.468,3.235,2.247,1.459-.209,4.3-1.716,3.217-3.082a9.221,9.221,0,0,0-1.352-1.351c-.175-.149-.356-.294-.547-.432A15.507,15.507,0,0,0,130.174.895c-.258-.1-.519-.2-.78-.286a9.458,9.458,0,0,0-4.376-.531c-.047.006-.09.015-.137.025-.331.054-.651.123-.957.2-2.921.763-4.732,2.5-3.148,2.53" transform="translate(3249.977 -8318.612)"/>
    <path id="パス_8096" data-name="パス 8096" class="cls-2" d="M132.667,6.374c.107.118.208.237.305.348a12.1,12.1,0,0,0,3.3-1.068,9.259,9.259,0,0,0,1.8-1.117c-.176-.15-.356-.294-.548-.433A8.144,8.144,0,0,1,135.549,5.4a11.449,11.449,0,0,1-2.882.977" transform="translate(3246.081 -8319.894)"/>
    <path id="パス_8097" data-name="パス 8097" class="cls-2" d="M128.755,3.528a6.317,6.317,0,0,1,.759.332,11.474,11.474,0,0,0,3.334-2.688c-.258-.1-.519-.2-.779-.286a11.34,11.34,0,0,1-3.314,2.642" transform="translate(3247.303 -8318.889)"/>
    <path id="パス_8098" data-name="パス 8098" class="cls-2" d="M122.688,2.847c.413-.015.871-.032,1.355-.025h0A2.887,2.887,0,0,0,125,1.9a8.3,8.3,0,0,0,.645-1.673.479.479,0,0,0,.021-.077c-.33.054-.651.123-.957.2a7.308,7.308,0,0,1-.479,1.206,3.127,3.127,0,0,1-1.192,1.074c-.114.071-.232.146-.346.213" transform="translate(3249.197 -8318.659)"/>
    <path id="パス_8099" data-name="パス 8099" class="cls-3" d="M110.044,10.4c.731-.151,1.732-.526,2.9-.735a8.217,8.217,0,0,1,.971-.119,6.666,6.666,0,0,1,2.474.277,5.371,5.371,0,0,1,.75.29,6.92,6.92,0,0,1,1.3.775c.236.177.453.343.651.494s.383.3.554.442c2.158,1.717,2.265,2.094,3.455,1.712,1.686-.539,4.214-2.844,1.815-4.589a12.615,12.615,0,0,0-2.226-1.263c-.246-.114-.5-.219-.753-.319a18,18,0,0,0-2.455-.77c-.275-.063-.558-.12-.836-.169a12.218,12.218,0,0,0-3.533-.166,6.865,6.865,0,0,0-.944.168,5.824,5.824,0,0,0-.81.261c-3.268,1.331-5.045,4.072-3.311,3.711" transform="translate(3253.357 -8320.546)"/>
    <path id="パス_8100" data-name="パス 8100" class="cls-2" d="M123.5,11.91c.2.155.383.3.553.441A13.573,13.573,0,0,0,127.1,8.212c-.246-.115-.5-.22-.753-.32A14.531,14.531,0,0,1,123.5,11.91" transform="translate(3248.944 -8321.076)"/>
    <path id="パス_8101" data-name="パス 8101" class="cls-2" d="M119.574,9.924a5.286,5.286,0,0,1,.75.29,12.99,12.99,0,0,0,2.34-3.519c-.275-.063-.558-.12-.836-.17a12.82,12.82,0,0,1-2.254,3.4" transform="translate(3250.17 -8320.65)"/>
    <path id="パス_8102" data-name="パス 8102" class="cls-2" d="M114.565,9.691a8.076,8.076,0,0,1,.971-.118,20.73,20.73,0,0,0,1.194-3.287,6.873,6.873,0,0,0-.943.168,20.368,20.368,0,0,1-1.222,3.237" transform="translate(3251.734 -8320.575)"/>
    <path id="パス_8103" data-name="パス 8103" class="cls-3" d="M57.875,137.669a15.1,15.1,0,0,1-5.776,1.058,31.157,31.157,0,0,0,5.145-3.474c.924.957,1.357,2.088.631,2.415" transform="translate(3271.238 -8360.845)"/>
    <path id="パス_8104" data-name="パス 8104" class="cls-3" d="M41.067,117.719c-.347-1.365-6.246-8.681-10-16.259-3.829-7.737-6.823-8.794-4.948-11.884,1.158-1.911,8.209-3.391,8.741-2.271,1.666,3.515,3.336,18.484,7.021,23.336a49.172,49.172,0,0,1,3.249,4.624c.428.728,1.842,3.3,3.177,4.321a5.845,5.845,0,0,1,.645.576,31.162,31.162,0,0,1-5.146,3.474,2.407,2.407,0,0,1-.772-.206c-1.509-.756-1.669-4.528-1.97-5.71" transform="translate(3279.528 -8345.752)"/>
    <path id="パス_8105" data-name="パス 8105" class="cls-5" d="M149.271,28.971c.807-.48,1.092-.948.913-1.525s-.13-1.464-.937-.974-2.053,1.1-2.389,1.99,1.246,1.2,2.413.51" transform="translate(3241.665 -8326.833)"/>
    <path id="パス_8765" data-name="パス 8765" class="cls-6" d="M0,0H116.939V101.615H0Z" transform="translate(3287.506 -8318.612)"/>
    <path id="パス_8106" data-name="パス 8106" class="cls-7" d="M12.405,130.772c1.964.605,4.019,2.313,3.037,4.806s-1.83,5.243-5.109,6.815-6.151,1.117-9.052-.637-.392-2.917,2.766-4.095a16.039,16.039,0,0,0,8.358-6.889" transform="translate(3412.523 -8367.983)"/>
    <path id="パス_8107" data-name="パス 8107" class="cls-8" d="M39.415,76.967S27.729,74.622,27.33,75.488c-.2.431-3.745,13.595-7.164,24.711-3.449,11.206-6.871,23.636-7.335,24.545-.537,1.049.614,2.974,3.338,2.541a2.092,2.092,0,0,0,1.248-.888c.163-.256,5.122-11.874,9.413-21.964,4.551-10.7,12.686-26.719,12.585-27.465" transform="translate(3410.693 -8359.991)"/>
    <path id="パス_8108" data-name="パス 8108" class="cls-8" d="M54.651,89.751c1.684-2.757,6.876-11.11,6.981-11.743s1.027-2.709-.674-3.364c-1.97-.758-.853-1.342-3.374,1.178-3.289,3.287-9.544,9.42-9.928,11.309s4.714,5.93,6.995,2.621" transform="translate(3405.66 -8359.804)"/>
    <path id="パス_8109" data-name="パス 8109" class="cls-7" d="M64.88,74.411c1.078-.4.633-.33,2.579-.3s4.757-.923,3.618-2.655a4.442,4.442,0,0,0-6.215-1.315c-2.038,1.4-4.935.124-5.049,2.563s.567,2.7,2.173,3.033,1.759-.144,2.894-1.329" transform="translate(3403.908 -8359.141)"/>
    <path id="パス_8110" data-name="パス 8110" class="cls-8" d="M37.577,86.11c-3.37,4.428-4.952,13.592-4.586,15.315s.311,3.809,2.434,4.955a5.318,5.318,0,0,0,5.855-.009,18.3,18.3,0,0,0,5.935-5.742c1.836-2.8,5.095-7.216,5-9.256S39.143,83.729,37.577,86.11" transform="translate(3407.778 -8361.466)"/>
    <path id="パス_8111" data-name="パス 8111" class="cls-8" d="M43.487,29.7c.861.567,3.136,1.024,3.874.639-1.575,5.441,5.184,5.871,3.192,10.12-1.328,3.968-4.606,6.307-7.462,5.665a7.823,7.823,0,0,1-5.982-8.089c.5-3.05,7.6-4.926,6.378-8.336" transform="translate(3407.177 -8353.422)"/>
    <path id="パス_8112" data-name="パス 8112" class="cls-8" d="M53.363,33.976c.391-.948,5.05-2.224,7.121-4.355,5.017-5.163,13.033-13.645,13.341-14,.434-.505.075-2.131.348-2.843a1.426,1.426,0,0,1,1.394-1.132c.8-.042.3-1.312,1.01-1.784s1.229-.92,1.649-.543a1.554,1.554,0,0,0,1.112.415c.459.056,1.291.484,1.286.9a.886.886,0,0,0,.685.875,1.314,1.314,0,0,1,.679,1.292,2.975,2.975,0,0,0-.064,1.667,2.282,2.282,0,0,1-.357,1.771,1.8,1.8,0,0,1-2.007,1.2c-1.393-.03-3.443,0-3.906.359-.358.28-9.055,12.531-13.411,17.51C60.5,37.293,58.54,39.1,56.7,36.93a26.589,26.589,0,0,0-3.332-2.955" transform="translate(3404.835 -8350.466)"/>
    <path id="パス_8113" data-name="パス 8113" class="cls-8" d="M34.452,29.7c-2.826-2.581-3.147-4.425-4.01-6.246-3.413-7.2-8.772-16.878-8.967-17.141-.314-.423.478-2.408.614-2.9s.045-1.714-1.015-1.864A2.58,2.58,0,0,1,19.356.833c-.383-.346-.781-.984-1.5-.8s-.512.289-.72.519-.418.123-.9.134-.542.568-.673.867-.843.1-.989.109a1.428,1.428,0,0,0-.544,1.095c.01.483-.635.734-.28,1.7a3.647,3.647,0,0,0,.907,1.738,8.93,8.93,0,0,0,3.23,2c.379.105,2.359,4.663,4.479,9.7,1.79,4.252,3.946,10.485,5.057,13.032.5,1.158,5.048,11.19,5.148,11.275.233.2,4.548-2.469,5.749-2.429,2.091.069.146-7.781-3.866-10.07" transform="translate(3410.558 -8349.144)"/>
    <path id="パス_8114" data-name="パス 8114" class="cls-7" d="M39.513,15.776c-1.7,4.141-6.36,3.4-5.7,6.184s4.163,2.679,6.072,2.807,2.541-7.786,4.318-9.5Z" transform="translate(3407.661 -8351.344)"/>
    <path id="パス_8115" data-name="パス 8115" class="cls-8" d="M40.833,23.745a6.907,6.907,0,0,0,4.744,4.566,6.907,6.907,0,0,0,6.18-2.273c3.991-4.164,6.186-14.965-2.192-16.724s-10.711,9.014-8.731,14.431" transform="translate(3406.736 -8350.458)"/>
    <path id="パス_8116" data-name="パス 8116" class="cls-7" d="M51.448,6.963c-.96-.221-3.908-.832-5.4.291s-4.577,4.161-5,5.522-.82,1.857-.729,2.058,5.223-1.187,7.806.628a9.182,9.182,0,0,1,4.091,4.258c1.028,1.9-2.223,4.606.772,5.818.774.313,3.712,2.455,5.4-1.525.566-1.33-.666-6.8-1.175-9.749a11.294,11.294,0,0,0-3.289-6.082,7.121,7.121,0,0,0-2.475-1.218" transform="translate(3406.717 -8350.094)"/>
    <path id="パス_8117" data-name="パス 8117" class="cls-9" d="M56.261,15.74c.578-.607,1.283-.862,1.47-.141A15.523,15.523,0,0,1,58.2,18c0,.406-.009.908-1.065.455a4.881,4.881,0,0,0-1.764-.532c-.591-.081-.548,0-1.12.848s-.983,1.557-1.46,1.45-.736-.621-.989-1.636-.746-1.929-.032-1.828a9.176,9.176,0,0,1,1.9.478A1.247,1.247,0,0,0,55.02,17a9.6,9.6,0,0,0,1.241-1.257" transform="translate(3405.118 -8351.328)"/>
    <path id="パス_8118" data-name="パス 8118" class="cls-2" d="M55.219,16.68A.9.9,0,0,1,56,17.5c.126.663.1,1.074-.107,1.216-.389.266-.479.2-.85-.071s-.449-.614-.419-1.216.247-.7.592-.753" transform="translate(3404.654 -8351.547)"/>
    <path id="パス_8119" data-name="パス 8119" class="cls-10" d="M26.238,60.868a98,98,0,0,0,3.476-11.574c.2-1.132,1.359-5.44,1.368-7.691,0-.729-2.289-5.155-3.5-6.636-1.332-1.634,3.5-4.017,5.144-5.113,1.7-1.129,3.462-.089,4.567,1.341a25.007,25.007,0,0,0,3.588,3.719c1.389,1.2,4.392-.025,5.071-.456,2.5-1.586,9.663-3.627,10.96-3.121,3.225,1.317,7.269,5.7,4.671,7.222-5.243,3.079-6.416,2.166-7.846,8.065C53.14,49.1,47.166,62.283,46.5,64.8c-5.885,1.674-21.74-.922-20.264-3.933" transform="translate(3408.757 -8353.376)"/>
    <path id="パス_8120" data-name="パス 8120" class="cls-11" d="M12.183,89.023c.329-1.108,3.071-6.127,4.289-10.13S22.446,66.354,24,64.695c1.329-1.419,15.449,1.459,15.79,1.435,5.737-.42,6.233,3.653,6.253,4.746.021,1.218,7.123,20.384,7.977,24.309s-.817,3.6-2.833,2.662-6.173-.365-7.717.22a11.716,11.716,0,0,1-5.558.625c-1.787-.3-4.89-2.07-8.326-4.179s-8.463.221-10.2.092a9.044,9.044,0,0,1-5-1.433c-1.852-1.2-2.962-1.61-2.209-4.149" transform="translate(3410.802 -8358.407)"/>
    <path id="パス_8121" data-name="パス 8121" class="cls-7" d="M68.339,135.82c-.437.157-.906.321-1.374.477-2.32.774-3.948.477-4.183,1.9A3.475,3.475,0,0,0,66.7,141.8c2.259-.346,6.107-1.884,7.365-3.8-2.33.349-4.66.161-5.722-2.188" transform="translate(3403.481 -8368.711)"/>
    <path id="パス_8122" data-name="パス 8122" class="cls-8" d="M98.688,106.811c-7.923-.544-10.4-1.18-14.537,5.1-1.651,2.508-9.392,14.922-9.392,14.922-1.768,3.388-3.691,4.072-3.691,4.072-.333.15-1.007.41-1.791.692,1.062,2.35,3.392,2.537,5.722,2.188a2.832,2.832,0,0,0,.265-.487c.126-.312.237-.591.336-.847,0,0,10.938-11.45,15.3-15.421,1.726-1.573,13.692,1.435,15.606.484,4.923-3.385,3.485-9.156-7.815-10.7" transform="translate(3402.542 -8364.484)"/>
    <path id="パス_8123" data-name="パス 8123" class="cls-8" d="M135.965,118.615C133,123,124.938,126.534,123.778,133.589a4.291,4.291,0,0,0,2.573,4.578,5.06,5.06,0,0,0,5.561-.317,17.415,17.415,0,0,0,5.335-5.766c1.6-2.76,3.793-7.2,4.821-8.849,1.2-1.92-4.741-6.965-6.1-4.622" transform="translate(3394.698 -8366.145)"/>
    <path id="パス_8124" data-name="パス 8124" class="cls-8" d="M143.892,121.979a43.27,43.27,0,0,0,3.7-8.548c.111-.653,1.074-2.789-.676-3.473-2.029-.793-.874-1.389-3.487,1.2-3.411,3.373-6.616,6.856-7.023,8.8s5.119,5.425,7.49,2.023" transform="translate(3392.875 -8364.887)"/>
    <path id="パス_8125" data-name="パス 8125" class="cls-7" d="M150.414,109.734c1.114-.407.654-.336,2.661-.293s4.913-.926,3.747-2.718a4.582,4.582,0,0,0-6.4-1.391c-2.11,1.431-5.092.1-5.222,2.617s.57,2.783,2.225,3.14,1.815-.138,2.992-1.355" transform="translate(3391.607 -8364.208)"/>
    <path id="パス_8126" data-name="パス 8126" class="cls-8" d="M129.9,66.488c.885.59,3.229,1.073,3.993.68-1.654,5.6,5.317,6.084,3.238,10.456-1.391,4.086-4.786,6.481-7.727,5.8a8.07,8.07,0,0,1-6.128-8.376c.536-3.143,7.867-5.041,6.624-8.564" transform="translate(3394.764 -8358.723)"/>
    <path id="パス_8127" data-name="パス 8127" class="cls-8" d="M140.38,70.157c.522-.919,5.454-1.63,7.847-3.546,5.8-4.643,15.088-12.3,15.447-12.627.509-.461.349-2.172.72-2.865a1.472,1.472,0,0,1,1.573-.98c.821.058.476-1.305,1.262-1.7s1.375-.784,1.756-.344a1.6,1.6,0,0,0,1.086.567c.461.116,1.258.66,1.2,1.087a.915.915,0,0,0,.589.983,1.359,1.359,0,0,1,.531,1.411,3.06,3.06,0,0,0-.281,1.7,2.354,2.354,0,0,1-.591,1.768,1.861,1.861,0,0,1-2.208.967c-1.421-.21-3.524-.443-4.043-.132-.4.241-9.473,12.152-14.567,16.69-2.036,1.813-11.625,7.914-11.689,7.988-.169.2-1.772-1.791-.676-4.516.549-1.369,2.046-6.452,2.046-6.452" transform="translate(3392.649 -8356.045)"/>
    <path id="パス_8128" data-name="パス 8128" class="cls-8" d="M120.583,66.441c-2.9-2.677-3.223-4.582-4.1-6.464-3.482-7.446-8.959-17.458-9.158-17.731-.322-.437.506-2.481.649-2.986s.056-1.767-1.037-1.928a2.664,2.664,0,0,1-1.768-.75c-.393-.359-.8-1.019-1.546-.835s-.53.3-.746.532-.431.125-.929.133-.561.583-.7.891-.87.1-1.021.107a1.472,1.472,0,0,0-.567,1.126c.008.5-.659.754-.3,1.748a3.77,3.77,0,0,0,.926,1.8,9.223,9.223,0,0,0,3.322,2.082c.391.11,2.409,4.823,4.568,10.032,1.823,4.4,4.014,10.837,5.147,13.47.514,1.2,5.148,11.571,5.25,11.659.239.207,4.7-2.522,5.944-2.475,2.157.082.193-8.026-3.934-10.409" transform="translate(3398.224 -8354.289)"/>
    <path id="パス_8129" data-name="パス 8129" class="cls-7" d="M130.368,106.409a17.894,17.894,0,0,1,2.008,12.4c-1.453,6.473,1.407,13.472.1,14.291-1.582.991-12.842-.286-13.175-1.013-1.29-2.828-1.072-8.8-4.384-11.4-4.68-3.682-12.168-1.91-15-3.046-.853-.342-2.111-12.527-.76-12.787,5.371-1.032,13.747.793,15.915,1.488,1.191.383,15.291.068,15.291.068" transform="translate(3398.323 -8364.205)"/>
    <path id="パス_8130" data-name="パス 8130" class="cls-8" d="M138.741,64.656a6.929,6.929,0,0,1-11.685-4.346c-1.288-6.313,3.078-17.824,12.04-14.49s4.745,14.9-.354,18.837" transform="translate(3394.25 -8355.659)"/>
    <path id="パス_8131" data-name="パス 8131" class="cls-7" d="M134.134,45.764c.873-.46.374-1.267,2.344-.4s5.84,1.793,6.574,2.459,2.381,6.788,1.34,8.9c-.8,1.632,2.388,3.1-.313,4.232-.877.368,1.473,1.4-.181,2.212-1.035.507-4.025-.039-3.906-1.239s.648-2.719.058-2.97c-1.291-.551-1.249-1.922-.951-3.252s-1.017-3.248-2.154-3.709a30.4,30.4,0,0,1-3.52-1.274c-1.488-.75-3.324-1.067-3.069-2.281s2.483-1.784,3.779-2.677" transform="translate(3393.747 -8355.623)"/>
    <path id="パス_8132" data-name="パス 8132" class="cls-10" d="M128.864,49.933s10.916,6.026,12.4,7.214,6.366,4.891,6.932,5.31,1.337-.149.823-.9-3.5-2.549-3.945-3.163a1.834,1.834,0,0,1-.418-2.128c.416-1.094,1.655-2.914,1.346-4.655s-2.371-4.933-3.748-5.558a21.5,21.5,0,0,0-6-1.725c-1.726-.1-5.411,1.863-7.4,5.607" transform="translate(3393.958 -8355.529)"/>
    <path id="パス_8133" data-name="パス 8133" class="cls-12" d="M113.095,99.51a101.3,101.3,0,0,0,3.648-11.921c.208-1.167,1.431-5.6,1.453-7.926.007-.752-2.334-5.33-3.572-6.865-1.366-1.692,3.629-4.124,5.333-5.246,1.756-1.156,3.572-.073,4.7,1.408a25.766,25.766,0,0,0,3.681,3.856c1.427,1.244,4.53,0,5.233-.443,2.585-1.624,9.988-3.688,11.322-3.161,3.32,1.377,7.468,5.915,4.78,7.475-5.427,3.149-6.631,2.2-8.138,8.278-.632,2.546-6.865,16.118-7.562,18.711-6.08,1.7-22.422-1.067-20.883-4.166" transform="translate(3396.245 -8358.806)"/>
    <path id="パス_8766" data-name="パス 8766" class="cls-6" d="M0,0H152.557V124.514H0Z" transform="translate(3412.523 -8349.144)"/>
    <path id="パス_8145" data-name="パス 8145" class="cls-7" d="M19.9,59.315c.163-1.435-.673-1.6-1.561-1.752-1.746-.3-3.483-.671-5.233-.944a12.212,12.212,0,0,0-1.934-.012c-.162,2.9-.32,5.666-.467,8.431-.144,2.719-.816,5.418-.583,8.255,2.979-1.043,5.622.5,8.8.289-2.212-2.48-5.364-1-7.6-2.882.144-1.691.3-3.569.479-5.624l6.063,1.214c-.069-.431-.039-.9-.167-.948-1.77-.664-3.562-1.271-5.713-2.018.153-1.742.306-3.479.471-5.362L19.9,59.315" transform="translate(3511.009 -8403.656)"/>
    <path id="パス_8146" data-name="パス 8146" class="cls-7" d="M61.671,94.326c4.146-3.583,6.075-8.512,7.987-13.433.074-.191-.293-.553-.527-.962-1.564,1.845-1.468,4.413-3.653,6.187-.308-2.167-.659-3.979-.785-5.807-.061-.887-.083-1.511-1.732-1.506.514,3,1.006,5.8,1.466,8.608.082.5.254,1.185.013,1.506a47.87,47.87,0,0,1-3.567,4.235c-.584.612-2.043.92-1.239,1.958.706.912,1.477-.3,2.039-.785" transform="translate(3495.608 -8410.599)"/>
    <path id="パス_8147" data-name="パス 8147" class="cls-7" d="M53.074,85.722a2.957,2.957,0,0,0,1.895-1.414,22.668,22.668,0,0,0,.835-4.043l-.131-.041a21.053,21.053,0,0,0-.168-3,2.537,2.537,0,0,0-2.045-2.267c-1.171-.191-1.868.6-2.411,1.481-1.611,2.625-1.186,5.351-.241,8.041a1.926,1.926,0,0,0,2.265,1.242M52.962,76.3c.149-.116.439-.05.763-.075a21.764,21.764,0,0,1,.741,3.574,11.057,11.057,0,0,1-.448,3.618,1.245,1.245,0,0,1-2.226.192c-1.1-1.546-.382-6.1,1.171-7.309" transform="translate(3498.552 -8409.389)"/>
    <path id="パス_8148" data-name="パス 8148" class="cls-7" d="M35.567,89.4c3,2.457,3.97,2.008,4.989-1.441a3.82,3.82,0,0,0,.183-.672q.589-5.751,1.162-11.5l-.577-.062a2.941,2.941,0,0,0-.917,2.391c-.151,2.242-.227,4.494-.488,6.724a8.586,8.586,0,0,1-1.878,4.926l-4.014-3.685c-.514,1.838.7,2.633,1.542,3.322" transform="translate(3503.569 -8409.637)"/>
    <path id="パス_8149" data-name="パス 8149" class="cls-7" d="M34.779,73.249a4.883,4.883,0,0,1,.091,2.683,21.906,21.906,0,0,1-1.291,3.292c.685-.169,1.261-.141,1.4-.373a6.988,6.988,0,0,0,.882-5.781C35.045,70.485,33,70.025,31,71.839a5.555,5.555,0,0,1-.766.489c-.1-1.815-.1-1.815-.644-2.794-.694,2.016-.81,7.017.006,9.177A27.76,27.76,0,0,1,30.371,76a15.01,15.01,0,0,1,1.5-3.078,1.592,1.592,0,0,1,2.909.325" transform="translate(3505.09 -8407.704)"/>
    <path id="パス_8150" data-name="パス 8150" class="cls-7" d="M90.054,91.312c.677-1.737,1.317-3.488,2.036-5.208,1.758-4.2,1.772-4.194,1.16-5.734a1.794,1.794,0,0,0-.566.917c-1.141,2.937-2.3,5.867-3.4,8.818-.109.291.1.7.169,1.058l.6.149" transform="translate(3486.286 -8411.088)"/>
    <path id="パス_8151" data-name="パス 8151" class="cls-7" d="M84.7,76.911c-.439,3.24-.895,6.478-1.279,9.724-.027.223.468.508.811.854.786-2.723,1.383-9.307,1-10.5l-.534-.076" transform="translate(3488.107 -8410.008)"/>
    <path id="パス_8152" data-name="パス 8152" class="cls-7" d="M45.519,68.076a4.3,4.3,0,0,0-1.873-4.023,4.28,4.28,0,0,0,1.873,4.023" transform="translate(3500.527 -8405.993)"/>
    <path id="パス_8153" data-name="パス 8153" class="cls-7" d="M81.829,98.025c1.065-1,.837-1.828.276-2.887-1.014.877-1.2,1.658-.276,2.887" transform="translate(3488.791 -8415.699)"/>
  </g>
</svg>
