<svg id="グループ_803" data-name="グループ 803" xmlns="http://www.w3.org/2000/svg" xmlns:xlink="http://www.w3.org/1999/xlink" width="54.605" height="52.097" viewBox="0 0 54.605 52.097">
  <defs>
    <style>
      .cls-1, .cls-3 {
        fill: #292929;
      }

      .cls-1 {
        stroke: #292929;
      }

      .cls-2 {
        clip-path: url(#clip-path);
      }
    </style>
    <clipPath id="clip-path">
      <rect id="長方形_695" data-name="長方形 695" class="cls-1" width="54.605" height="52.097"/>
    </clipPath>
  </defs>
  <g id="グループ_730" data-name="グループ 730" class="cls-2" transform="translate(0 0)">
    <path id="パス_7112" data-name="パス 7112" class="cls-3" d="M28.241,38.483c.931.12,1.05.741,1.226,1.339.6,2.029,1.194,4.058,1.83,6.075.219.691.555,1.345.891,2.143a10.307,10.307,0,0,0,2.739-3.431c1.467-2.517,2.824-5.1,4.149-7.7,1.31-2.567,1.022-5.155.082-7.807-.989-2.793-5.339-3.379-7.167-2.123-2.713,1.864-4.04,4.271-3.452,7.6a1.962,1.962,0,0,1-.155,1.118,5.35,5.35,0,0,1-.8-3.8c.284-3.944,4.376-7.5,8-6.716a5.449,5.449,0,0,1,4.249,3.072,10.291,10.291,0,0,1,.093,9.257A75.467,75.467,0,0,1,34.11,47.807c-.164.234-.308.485-.492.7-.833.987-1.587.987-2.367-.069a5.118,5.118,0,0,1-.732-1.531c-.767-2.511-1.5-5.034-2.228-7.558a4.253,4.253,0,0,1-.05-.869" transform="translate(-7.81 -7.11)"/>
    <path id="パス_7112_-_アウトライン" data-name="パス 7112 - アウトライン" class="cls-3" d="M32.434,49.741a2.021,2.021,0,0,1-1.585-1,5.55,5.55,0,0,1-.809-1.683c-.761-2.491-1.489-5-2.23-7.564a2.361,2.361,0,0,1-.065-.679c0-.1,0-.2,0-.3l-.029-.6.593.077a1.828,1.828,0,0,1,1.61,1.584l.032.109c.587,1.994,1.193,4.054,1.827,6.066A13.013,13.013,0,0,0,32.32,47.1l.062.139a10.978,10.978,0,0,0,2.061-2.792l.05-.086c1.555-2.669,2.964-5.376,4.136-7.672,1.1-2.145,1.112-4.431.056-7.413a3.368,3.368,0,0,0-1.665-1.8,5.7,5.7,0,0,0-2.607-.617,3.9,3.9,0,0,0-2.14.541,7.9,7.9,0,0,0-2.8,3.054,6.492,6.492,0,0,0-.447,4.048,2.448,2.448,0,0,1-.188,1.4l-.341.8-.52-.7a5.845,5.845,0,0,1-.9-4.134,8.062,8.062,0,0,1,2.483-5.075,7.346,7.346,0,0,1,4.987-2.214,5.424,5.424,0,0,1,1.137.119,6.032,6.032,0,0,1,4.6,3.354,10.781,10.781,0,0,1,.087,9.683,76.482,76.482,0,0,1-5.861,10.358c-.051.072-.1.148-.152.227a5.192,5.192,0,0,1-.366.511A2.1,2.1,0,0,1,32.434,49.741Zm-.252-1.076a.517.517,0,0,0,.252.076c.218,0,.5-.192.8-.554a4.377,4.377,0,0,0,.295-.415c.054-.082.11-.167.169-.252A75.592,75.592,0,0,0,39.482,37.3a9.293,9.293,0,0,0,1-4.415,10.451,10.451,0,0,0-.589-3.129,9.468,9.468,0,0,1-.375,7.389c-1.179,2.308-2.6,5.031-4.163,7.721l-.05.086a10.482,10.482,0,0,1-2.824,3.5Zm-3.141-8.517c.647,2.237,1.289,4.434,1.955,6.615a4.628,4.628,0,0,0,.657,1.381c.025.033.051.067.078.1l0-.011c-.107-.254-.215-.5-.319-.728a13.737,13.737,0,0,1-.587-1.458C30.2,44.088,29.612,42.088,29.042,40.148Zm5.516-14.569c-2.577,0-5.192,2.148-6.128,4.757a8.712,8.712,0,0,1,3.278-3.765,4.837,4.837,0,0,1,2.706-.716,5.841,5.841,0,0,1,4.723,2.137,5.1,5.1,0,0,0-3.653-2.315A4.422,4.422,0,0,0,34.557,25.579Z" transform="translate(-7.81 -7.11)"/>
    <path id="パス_7113" data-name="パス 7113" class="cls-3" d="M6.139,67.139c1.288.1,2.582.153,3.863.3,3.4.394,6.847.606,10.189,1.3,4.468.932,8.991.63,13.475,1.048,1.747.163,3.521.02,5.282.046a6.624,6.624,0,0,1,1.245.333c-.507.383-.763.739-1.048.764a34.856,34.856,0,0,1-4.1.187c-2.8-.09-5.594-.2-8.377-.453-2.5-.227-4.971-.679-7.46-.994-3.511-.445-7.027-.853-10.54-1.283a17.733,17.733,0,0,1-2.027-.309c-.257-.062-.454-.365-.679-.558l.176-.386" transform="translate(-1.69 -19.033)"/>
    <path id="パス_7113_-_アウトライン" data-name="パス 7113 - アウトライン" class="cls-3" d="M35.661,71.631c-.215,0-.427,0-.631-.01-2.55-.082-5.513-.191-8.407-.455-1.566-.143-3.143-.375-4.668-.6-.921-.136-1.873-.277-2.809-.4-2.236-.283-4.513-.557-6.715-.821-1.253-.15-2.549-.306-3.823-.461l-.324-.039a14.791,14.791,0,0,1-1.76-.281,1.52,1.52,0,0,1-.719-.5c-.06-.064-.118-.124-.169-.168l-.284-.245.156-.341.176-.385.145-.318.348.027c.4.031.813.058,1.21.084.876.057,1.782.117,2.673.221.927.107,1.874.2,2.79.3a71.985,71.985,0,0,1,7.443,1.015,49.41,49.41,0,0,0,8.422.771c1.637.055,3.33.113,5,.268.564.053,1.179.077,1.935.077.468,0,.946-.009,1.409-.018s.952-.018,1.43-.018c.165,0,.318,0,.469,0a2.751,2.751,0,0,1,.817.182c.157.051.335.109.554.17l.977.271-.809.611c-.164.124-.3.249-.428.359a1.552,1.552,0,0,1-.878.5C38.163,71.521,36.887,71.631,35.661,71.631ZM22.1,69.577h0c1.512.223,3.075.454,4.613.594,2.867.261,5.812.37,8.348.451.193.006.395.009.6.009,1.091,0,2.153-.084,3.425-.193a.512.512,0,0,0,.086-.058.956.956,0,0,0-.232-.042c-.145,0-.293,0-.453,0-.468,0-.947.009-1.411.018s-.951.018-1.429.018c-.787,0-1.432-.026-2.028-.081-1.638-.153-3.316-.209-4.938-.264A64.979,64.979,0,0,1,22.1,69.577ZM7.428,67.729c.316.05.639.088.973.128l.328.039c1.273.156,2.568.311,3.82.461,2.2.264,4.482.538,6.722.822.711.09,1.429.192,2.135.3q-.66-.1-1.317-.241a71.232,71.232,0,0,0-7.339-1c-.92-.093-1.871-.189-2.805-.3C9.114,67.841,8.258,67.784,7.428,67.729Z" transform="translate(-1.69 -19.033)"/>
    <path id="パス_7114" data-name="パス 7114" class="cls-3" d="M53.858,61.878a8.376,8.376,0,0,1,.58-1.091c1.72-2.347,3.479-4.667,5.18-7.028A6.4,6.4,0,0,0,60.5,51.92a2.217,2.217,0,0,0-1.778-3.1c-1.9-.408-3.825-.676-5.741-.993a14.594,14.594,0,0,0-5.283-.192,6.188,6.188,0,0,1-1.742-.154l-.067-.435a4.034,4.034,0,0,1,.915-.431,21.086,21.086,0,0,1,7.832.246c1.46.268,2.926.522,4.367.871a2.883,2.883,0,0,1,2.335,3.573,7.614,7.614,0,0,1-.982,2.717c-1.676,2.524-3.476,4.966-5.25,7.424a4.682,4.682,0,0,1-.843.726l-.4-.3" transform="translate(-13.008 -13.14)"/>
    <path id="パス_7114_-_アウトライン" data-name="パス 7114 - アウトライン" class="cls-3" d="M54.281,62.812l-.437-.322-.284-.21-.343-.255.2-.378c.056-.107.108-.218.164-.335a4.877,4.877,0,0,1,.456-.819c.685-.934,1.386-1.879,2.065-2.792,1.027-1.383,2.09-2.813,3.112-4.233a5.9,5.9,0,0,0,.806-1.694,2.02,2.02,0,0,0-.077-1.63,1.936,1.936,0,0,0-1.328-.832c-1.387-.3-2.82-.525-4.206-.745-.5-.079-1.008-.16-1.512-.243a20.717,20.717,0,0,0-3.355-.357,8.934,8.934,0,0,0-1.749.162,2.252,2.252,0,0,1-.442.041,5.315,5.315,0,0,1-.93-.109c-.182-.032-.353-.063-.518-.08l-.384-.04-.181-1.182.332-.161c.081-.039.166-.088.257-.139a2.557,2.557,0,0,1,.782-.332,16.046,16.046,0,0,1,3.051-.277,27.045,27.045,0,0,1,4.966.523l.581.106c1.253.228,2.549.464,3.813.77A3.386,3.386,0,0,1,61.825,51.4a8.184,8.184,0,0,1-1.056,2.9c-1.4,2.1-2.9,4.178-4.353,6.185q-.454.628-.908,1.256a2.924,2.924,0,0,1-.669.618c-.092.068-.179.133-.257.2ZM49.54,46.967a21.543,21.543,0,0,1,3.518.37c.5.083,1.011.164,1.505.242,1.4.222,2.846.452,4.26.755a3.112,3.112,0,0,1,1.679.9,2.691,2.691,0,0,0-1.62-1.008c-1.236-.3-2.518-.533-3.757-.758l-.583-.106a26.1,26.1,0,0,0-4.785-.507,15.058,15.058,0,0,0-2.862.26l-.046.011a3.2,3.2,0,0,0,.5.049,1.267,1.267,0,0,0,.248-.022A9.921,9.921,0,0,1,49.54,46.967Z" transform="translate(-13.008 -13.14)"/>
    <path id="パス_7117" data-name="パス 7117" class="cls-3" d="M7.948,47.722c-.63,1.414-1.743,2.556-2.5,3.9C4.67,53.013,3.78,54.343,2.938,55.7L.34,59.891c-.148-.366-.4-.679-.327-.865A11.03,11.03,0,0,1,.947,57.2c1.541-2.462,3.082-4.926,4.677-7.353a29.748,29.748,0,0,1,1.909-2.365l.415.238" transform="translate(0 -13.461)"/>
    <path id="パス_7117_-_アウトライン" data-name="パス 7117 - アウトライン" class="cls-3" d="M.245,60.993l-.369-.915c-.041-.1-.1-.2-.148-.305a1.108,1.108,0,0,1-.181-.927,11.549,11.549,0,0,1,.976-1.908l.118-.189c1.479-2.362,3.007-4.8,4.565-7.174a16.672,16.672,0,0,1,1.333-1.691c.2-.234.41-.476.606-.716l.269-.329.374.215.408.234.393.224-.184.414A13.364,13.364,0,0,1,6.95,50.27a16.93,16.93,0,0,0-1.064,1.6c-.55.979-1.159,1.938-1.748,2.866-.256.4-.521.82-.776,1.231Z" transform="translate(0 -13.461)"/>
    <path id="パス_7119" data-name="パス 7119" class="cls-3" d="M37.295,39.866c1.413-.393,2.412-.979,2.52-2.627.093-1.434-1.125-2.069-1.766-3.18,1.164-.364,1.639.319,2.072.827a3.885,3.885,0,0,1-1.474,5.774c-.651.268-1.089.163-1.352-.794" transform="translate(-10.573 -9.626)"/>
    <path id="パス_7119_-_アウトライン" data-name="パス 7119 - アウトライン" class="cls-3" d="M38.116,41.288c-.629,0-1.068-.434-1.3-1.289l-.132-.48.48-.134c1.715-.477,2.089-1.16,2.155-2.178a2.466,2.466,0,0,0-.887-1.826,6.8,6.8,0,0,1-.814-1.071l-.312-.541.6-.186a2.562,2.562,0,0,1,.76-.125,2.23,2.23,0,0,1,1.762,1.011l.079.094a4.055,4.055,0,0,1,.738,3.588,4.23,4.23,0,0,1-2.4,2.973A1.907,1.907,0,0,1,38.116,41.288Zm-.155-1.1a.2.2,0,0,0,.155.1.954.954,0,0,0,.341-.09,3.231,3.231,0,0,0,1.811-2.283,3.058,3.058,0,0,0-.527-2.7l-.084-.1a2,2,0,0,0-.64-.58l.167.193a3.4,3.4,0,0,1,1.131,2.549A3.089,3.089,0,0,1,37.96,40.183Z" transform="translate(-10.573 -9.626)"/>
    <path id="パス_7121" data-name="パス 7121" class="cls-3" d="M23.321,46.42c-.355.266-.487.45-.609.443-2.32-.128-4.639-.277-7.191-.437.3-.385.482-.812.661-.811,1.995.005,3.991.049,5.982.155.353.019.687.375,1.156.65" transform="translate(-4.4 -12.931)"/>
    <path id="パス_7121_-_アウトライン" data-name="パス 7121 - アウトライン" class="cls-3" d="M22.719,47.363h-.036c-1.919-.105-3.847-.227-5.888-.355l-2.255-.141.589-.749c.093-.118.174-.243.253-.365.2-.313.413-.637.8-.637,2.186.005,4.152.057,6.009.156a1.918,1.918,0,0,1,.985.453c.127.09.258.184.4.265l.651.38-.6.452c-.121.09-.212.17-.292.239A.912.912,0,0,1,22.719,47.363Zm-3.525-1.208c1.052.065,2.083.127,3.109.184a.445.445,0,0,0-.164-.07C21.19,46.219,20.214,46.181,19.194,46.155Z" transform="translate(-4.4 -12.931)"/>
    <path id="パス_7122" data-name="パス 7122" class="cls-3" d="M34.673,34.07c.049.246.225.566.13.729-1.566,2.711-1.573,2.707.225,4.886-.492.787-1,.457-1.457-.015a3.684,3.684,0,0,1-.515-4.157,12.145,12.145,0,0,1,1.226-1.581l.391.138" transform="translate(-9.252 -9.619)"/>
    <path id="パス_7122_-_アウトライン" data-name="パス 7122 - アウトライン" class="cls-3" d="M34.381,40.659a1.717,1.717,0,0,1-1.172-.642,4.183,4.183,0,0,1-.593-4.744A6.975,6.975,0,0,1,33.5,34.09c.138-.16.268-.312.391-.467l.222-.282.338.121.382.135.275.1.056.279a1.932,1.932,0,0,0,.057.191,1.058,1.058,0,0,1,.016.887l-.016.027a5.926,5.926,0,0,0-1.067,2.347c.022.443.462.976,1.26,1.943l.229.278-.191.305A1.272,1.272,0,0,1,34.381,40.659Zm-.115-5.93-.011.013a6.14,6.14,0,0,0-.761,1.011,3.191,3.191,0,0,0,.437,3.571,1.143,1.143,0,0,0,.423.33,3.97,3.97,0,0,1-1.2-2.181C33.119,36.746,33.5,36.055,34.266,34.729Z" transform="translate(-9.252 -9.619)"/>
    <path id="パス_7123" data-name="パス 7123" class="cls-3" d="M14.7,15.929a9.8,9.8,0,0,1,3.722,2.327c.077.092-.1.4-.158.6C16.346,18.364,15,17.335,14.7,15.929" transform="translate(-4.168 -4.516)"/>
    <path id="パス_7123_-_アウトライン" data-name="パス 7123 - アウトライン" class="cls-3" d="M18.616,19.462l-.472-.121c-2.175-.558-3.607-1.764-3.929-3.31l-.2-.963,1.15.52a9.479,9.479,0,0,1,3.644,2.345.831.831,0,0,1,0,.9c-.024.059-.051.125-.062.164Zm-2.805-2.473A4.594,4.594,0,0,0,17.6,18.125,7.682,7.682,0,0,0,15.811,16.989Z" transform="translate(-4.168 -4.516)"/>
    <path id="パス_7124" data-name="パス 7124" class="cls-3" d="M31.723,7.81a43.943,43.943,0,0,1-.963,5.136,4.508,4.508,0,0,1,.963-5.136" transform="translate(-8.601 -2.214)"/>
    <path id="パス_7124_-_アウトライン" data-name="パス 7124 - アウトライン" class="cls-3" d="M30.873,14.22l-.554-1.039A5,5,0,0,1,31.4,7.427L32.5,6.5,32.213,7.91c-.132.649-.221,1.286-.307,1.9a18.7,18.7,0,0,1-.67,3.288Z" transform="translate(-8.601 -2.214)"/>
    <path id="パス_7125" data-name="パス 7125" class="cls-3" d="M22.938,11.836c1.106,1.347,1.126,2.623,1.434,3.957-1.081-.638-1.471-1.687-1.434-3.957" transform="translate(-6.502 -3.355)"/>
    <path id="パス_7125_-_アウトライン" data-name="パス 7125 - アウトライン" class="cls-3" d="M25.121,16.815l-1-.592c-1.445-.853-1.714-2.314-1.679-4.4l.022-1.361.864,1.052A6.693,6.693,0,0,1,24.7,14.886c.049.261.1.53.16.794Z" transform="translate(-6.502 -3.355)"/>
  </g>
</svg>
