<svg xmlns="http://www.w3.org/2000/svg" xmlns:xlink="http://www.w3.org/1999/xlink" width="215.051" height="65.588" viewBox="0 0 215.051 65.588">
  <defs>
    <style>
      .cls-1, .cls-5 {
        fill: #fff;
      }

      .cls-2 {
        clip-path: url(#clip-path);
      }

      .cls-3 {
        clip-path: url(#clip-path-2);
      }

      .cls-4 {
        clip-path: url(#clip-path-3);
      }

      .cls-5 {
        fill-rule: evenodd;
      }
    </style>
    <clipPath id="clip-path">
      <path id="パス_6381" data-name="パス 6381" class="cls-1" d="M28.253,40.025c-.052.1-.095.209-.148.313-.014.039-.03.083-.046.121-.5,2.866-.814,3.015-.575,5.909a41.437,41.437,0,0,0,.907,5.719,16.732,16.732,0,0,1-7.165,4.938c-.008.111-.009.227-.02.345.01.018.02.04.03.059a2.757,2.757,0,0,1,.445.668c1.087-.372,2.153-.759,3.181-1.208,0,.022,0,.043,0,.064a9.387,9.387,0,0,1,1.168-.433,3.2,3.2,0,0,1,1.142-.455c.307-.052.61-.1.91-.138a4.526,4.526,0,0,1,1.078-.138c.106,0,.2.018.305.025.063,0,.129,0,.2,0,.14-.01.279-.028.427-.028a4.441,4.441,0,0,1,.978.126c.146.022.287.031.433.057.177.033.348.083.524.133,3.48.371,7.066,1.542,10.456,2.392,3.142.777,6.532,1.048,8.863-1.7a4.276,4.276,0,0,0,.826-4.882A8.917,8.917,0,0,0,50.9,48.308c-.052-.08-.011-.03.039.02s.106.1.089.02a10.265,10.265,0,0,0-7.38-2.265A4.428,4.428,0,0,1,45.3,48.118a12,12,0,0,1,1,2.618,3.672,3.672,0,0,0,3.037,2.176c.627.095,1.234.235,1.838.386a4.1,4.1,0,0,1-4.1,4.488c-.079,0-.158-.009-.237-.016-.055,0-.1.016-.158.016a4.011,4.011,0,0,1-1.492-.272,5.014,5.014,0,0,1-.643-.048.85.85,0,0,0-.089-.017,4.726,4.726,0,0,1-.584-.138,4.012,4.012,0,0,1-.652-.181,28.278,28.278,0,0,1-6.511-1.736,30.5,30.5,0,0,0-7.263-1.577c.149-.155.3-.31.437-.479a23.649,23.649,0,0,0,8.455-6.012,15.588,15.588,0,0,0,3.153-7.144c.071-1.442.2-2.864.394-4.278a13.813,13.813,0,0,1,1.285-5.844c.052-.173.114-.341.178-.509-6.2,1.552-12.147,4.982-15.1,10.474" transform="translate(-21.207 -29.551)"/>
    </clipPath>
    <clipPath id="clip-path-2">
      <path id="パス_6382" data-name="パス 6382" class="cls-1" d="M28.682,3.184A25.524,25.524,0,0,1,54.13,27.21L31.017,9.34,29.889,8.209l-.147.143-.189-.143L28.427,9.672,21,17.1l2.368,2.362,6.661-6.66L54.034,31.364A25.5,25.5,0,0,1,3.471,32.5L15.938,20.031l4.122,4.12,2.368-2.367-6.36-6.357-.129.126-.125-.126L3.2,28.035A25.524,25.524,0,0,1,28.682,3.184m0-3.184A28.682,28.682,0,1,0,57.331,29.951l.128-.168-.121-.1c.013-.334.022-.667.022-1.009A28.712,28.712,0,0,0,28.682,0Z"/>
    </clipPath>
    <clipPath id="clip-path-3">
      <rect id="長方形_635" data-name="長方形 635" class="cls-1" width="142.604" height="65.587"/>
    </clipPath>
  </defs>
  <g id="グループ_789" data-name="グループ 789" transform="translate(-200.98 -21.961)">
    <g id="グループ_644" data-name="グループ 644" transform="translate(200.98 26.072)">
      <g id="グループ_641" data-name="グループ 641" transform="translate(13.843 19.29)">
        <g id="グループ_640" data-name="グループ 640" class="cls-2">
          <rect id="長方形_636" data-name="長方形 636" class="cls-1" width="31.679" height="29.994" transform="translate(0 0)"/>
        </g>
      </g>
      <g id="グループ_643" data-name="グループ 643" transform="translate(0 0)">
        <g id="グループ_642" data-name="グループ 642" class="cls-3">
          <rect id="長方形_637" data-name="長方形 637" class="cls-1" width="57.459" height="57.365" transform="translate(0 0)"/>
        </g>
      </g>
    </g>
    <g id="グループ_639" data-name="グループ 639" transform="translate(273.428 21.961)">
      <g id="グループ_638" data-name="グループ 638" class="cls-4" transform="translate(0 0)">
        <path id="パス_6313" data-name="パス 6313" class="cls-5" d="M179.573,44.672A43.162,43.162,0,0,1,179.7,50.1c0,1.807-.062,3.633,0,5.431.128,3.71.8,6.976,2.273,9.22.071.109.191.165.252.253.032.046-.041.219,0,.253.019.015.114-.019.127,0a5.148,5.148,0,0,0,.252.505,16.4,16.4,0,0,1,1.642,1.642c.068.108.185.106.253.253.021.046-.037.223,0,.253.01.008.124-.01.126,0a1.113,1.113,0,0,1-.505,1.263c-.048.034-.215.241-.253.253-.152.046-.347-.026-.505,0a1.267,1.267,0,0,1-.758,0,1.732,1.732,0,0,1-.379-.126,5.922,5.922,0,0,1-1.894-1.642c-.146-.177-.274-.369-.379-.505-.122-.159-.393-.341-.505-.506-.082-.121-.055-.264-.126-.379-.051-.08-.212-.181-.253-.253-.121-.214-.143-.535-.252-.758-.041-.083-.215-.182-.253-.253a3.155,3.155,0,0,1-.126-.379c-1.939-4.614-1.6-11.7-1.643-18.062h-12.5c-.248.238-.122.637-.126.884-.046,2.887.03,6.308-.126,9.221a3.04,3.04,0,0,1,0,.505c-.091.384-.171,1.328-.252,2.021a4.689,4.689,0,0,1,0,.505c-.025.106-.105.127-.126.253-.027.162.037.346,0,.505-.025.1-.1.127-.126.253-.1.561-.117,1.124-.253,1.642,0,.006-.108.049-.126.126a20.537,20.537,0,0,1-1.011,3.031c-.025.057-.119-.009-.125.126a.511.511,0,0,1,0,.126c-.043.084-.213.18-.253.253-.026.046.039.221,0,.253a1.307,1.307,0,0,0-.252.379c-.055.088-.2.174-.253.253s-.049.276-.126.379c-.047.062-.21.067-.253.126-.085.119-.043.27-.126.379-.11.144-.34.279-.506.505-.378.516-1.325,1.818-2.526,1.263-.563-.758.1-1.4.379-1.895.164-.283.312-.552.505-.884.04-.068.119.018.126-.126a1.632,1.632,0,0,1,.252-.505,12.515,12.515,0,0,0,.506-1.263c.021-.053.119.007.127-.126a1.834,1.834,0,0,1,.126-.631c.014-.012.119.015.126,0,.021-.046-.037-.223,0-.253.18-.147.258-.816.379-1.263.009-.033.12-.009.126-.126a1.618,1.618,0,0,1,0-.379c.146-.119,0-.379.126-.506s.1-.164.126-.379c0-.037-.025-.231,0-.253.124-.1.1-.171.127-.379,0-.038-.026-.231,0-.253.009-.007.124.009.126,0,.075-.42.077-.836.126-1.263.468-4.031,0-9.059.253-13.641.011-.2-.061-.482.126-.505.088-.431.262-.331.506-.379a13.66,13.66,0,0,1,2.273,0h11.116a27.06,27.06,0,0,1,4.294.126" transform="translate(-70.947 -25.085)"/>
        <path id="パス_6314" data-name="パス 6314" class="cls-5" d="M225.578,53.21c.036.111.568.214.758.252.269.055.608.042.884.126.041.013,0,.12.127.126.237.013.31.242.505.379.046.032.218-.042.253,0s.073.207.126.252a5.075,5.075,0,0,1,.758.632c.1.153.042.332.126.5.03.063.119-.013.126.127s.337.845.379,1.136a11.506,11.506,0,0,1-.126,2.526c-.008.07.1.676,0,.758-.2.163-.161,1.144-.252,1.642,0-.015-.112.065-.126.126-.02.084.06.456,0,.505a1.694,1.694,0,0,0-.252.632c-.022.074-.026.549-.127.631s-.087.1-.126.253c0,0-.115.37-.126.379a3.631,3.631,0,0,0-.379.631c-.071.125-.186.156-.253.253-.032.045.041.219,0,.252-.019.016-.113-.019-.126,0-.061.092-.051.278-.126.379-.047.063-.209.066-.252.126-.07.1-.046.271-.127.379-.052.07-.2.063-.252.126a7.274,7.274,0,0,1-.758.884c-.1.081-.275.062-.379.126-.084.052-.176.206-.253.252-.112.069-.239.052-.379.126-.065.035-.2.233-.252.253-.074.027-.176-.019-.253,0-.125.031-.367.069-.758.126-.143.021-.258.148-.505.126.039,0-.085-.115-.127-.126a2.608,2.608,0,0,1-.631-.126c-.146-.063-.149-.18-.253-.253-.045-.031-.219.042-.252,0a11.584,11.584,0,0,0-1.136-.884c-.2-.163-.318-.342-.506-.506-.382-.332-.918-.879-1.389-1.263-.264.059-.255.308-.379.505-.071.114-.19.162-.253.253-.031.046.042.219,0,.252-.018.015-.114-.019-.126,0-.225.357-.385.748-.631,1.137-.057.091-.193.171-.252.252a8.8,8.8,0,0,1-.506.758c-.086.1-.039.284-.126.379a1.811,1.811,0,0,1-1.516.253.862.862,0,0,1-.631-.506,1.367,1.367,0,0,1,0-1.515c.035-.065.119.015.126-.126a1.246,1.246,0,0,1,.126-.253c.055-.082.206-.178.253-.253.149-.238.23-.52.38-.758.043-.069.118.019.125-.126a1.2,1.2,0,0,1,.127-.252c.054-.083.2-.176.252-.253.159-.249.237-.53.379-.758.044-.07.119.019.127-.126a1.221,1.221,0,0,1,.126-.253c.054-.081.206-.177.252-.252.029-.046-.04-.22,0-.253a1.55,1.55,0,0,0,.379-.505c.047-.079.215-.183.253-.253.077-.145.049-.252.126-.379.042-.069.119.018.127-.126a1.176,1.176,0,0,1,.126-.253c.064-.1.206-.175.253-.253.1-.157.026-.347.126-.505.06-.095.181-.134.253-.253.051-.084.07-.164.126-.253.038-.059.107-.093.126-.126.062-.1.052-.254.127-.379.051-.086.2-.177.252-.253a1.3,1.3,0,0,0,.253-.505,1.223,1.223,0,0,1,.125-.252c.055-.081.207-.178.253-.253.028-.046-.04-.22,0-.253a8.634,8.634,0,0,0,1.137-1.895c-.782-.124-1.652.186-2.527.126a5.258,5.258,0,0,1-1.01-.126c-.038-.011-.007-.12-.126-.126a2.154,2.154,0,0,1-.631-.253,7.9,7.9,0,0,1-.884-.632,1.85,1.85,0,0,1-.632-.757c-.018-.049-.119,0-.126-.126a3.352,3.352,0,0,1,.126-1.263,2.451,2.451,0,0,1,1.011-.505c.625-.051.788.21,1.263.505.091.057.172.194.252.253a1.985,1.985,0,0,0,1.39.379c.558-.081,1.642-.188,2.4-.253.273-.023.616.077.884-.126.3-.069.288-.409.379-.631a2.35,2.35,0,0,0,.127-1.642,14.878,14.878,0,0,0-.632-1.768c-.319-.848-.864-1.72-.252-2.4.138-.153.3-.135.505-.252.073-.042.189-.223.252-.253a1.4,1.4,0,0,1,.758.126c.359.142.576.257.885.884.088.18.048.314.126.506.023.055.119-.007.126.126a.478.478,0,0,0,0,.126c.033.084.114.1.126.126.125.317.138.707.253,1.011.019.051.12,0,.126.126a6.308,6.308,0,0,0,.253.631c.025.076-.02.175,0,.253a6.954,6.954,0,0,1,.126,2.653m.253,2.778c-.478-.087-.955.2-1.516.126-.424.671-.81,1.491-1.137,2.021a4.126,4.126,0,0,0-.252.631c-.02.045-.223.073-.252.126-.095.171-.034.339-.127.505-.015.027-.091.071-.126.126-.09.142-.164.24-.252.379a1.617,1.617,0,0,0-.253.5c-.008.146-.081.057-.126.126a3.775,3.775,0,0,0-.252.632c-.02.045-.224.073-.253.126-.093.171-.031.341-.126.506-.02.034-.217.1-.253.126s.027.206,0,.252c-.01.018-.109-.014-.126,0-.1.082-.046.4-.126.506.472.487.888,1.06,1.389,1.516.148.135.342.121.505.252.141.113.242.267.379.379.273.223.5.579.884.631a3.228,3.228,0,0,0,1.263-1.011c.179-.2.62-.654.631-.884.01-.181.244-.211.253-.379.007-.137.1-.068.126-.126.09-.2.054-.531.126-.758,0-.012.114.009.126,0,.1-.079.11-.563.126-.631a13.985,13.985,0,0,0,.379-5.053c-.336-.234-.539-.546-1.011-.631" transform="translate(-96.617 -26.044)"/>
        <path id="パス_6315" data-name="パス 6315" class="cls-5" d="M15.374,53.223a14.782,14.782,0,0,0,2.4-.253c.162-.023.347.037.505,0a12.862,12.862,0,0,1,3.663-.252,10.441,10.441,0,0,1,2.4.758c.057.025-.009.119.126.126.192.01.438.238.632.379a1.7,1.7,0,0,1,.758,1.895c-.028.093-.356.132-.253.379-.07.126-.246.055-.379.126-.049.026-.221.245-.253.253a1.95,1.95,0,0,1-1.137-.126,2.44,2.44,0,0,0-.505-.253c-.085-.036-.182-.214-.253-.253-.138-.075-.252-.069-.379-.126a4.466,4.466,0,0,0-.884-.253c-.077-.019-.125-.126-.126-.126a11.458,11.458,0,0,0-3.158.253c-1.041.125-2.038.178-3.031.379a14.09,14.09,0,0,0-.126,3.158c0,1.989-.012,4.128,0,6.315a13.345,13.345,0,0,1,0,2.905c-.013.04-.12,0-.126.126-.026.492-.843.982-1.389,1.136a6.652,6.652,0,0,1-1.895.126c-.851-.021-2.836-.052-3.284-.632-.076-.1-.074-.278-.126-.379a2.573,2.573,0,0,1-.126-1.136c.01-.037.12-.007.126-.126a1.478,1.478,0,0,1,.379-.506c.175-.079.333-.032.505-.126.065-.036-.007-.1.126-.126a1.218,1.218,0,0,1,.379,0,10.611,10.611,0,0,0,2.526.252c.242-.27.122-.744.126-1.263.026-2.767-.019-6.235,0-9.22-.056-.184-.11.013-.252,0-.773.042-1.491.142-2.273.252-.122.018-.259-.026-.379,0s-.125.112-.253.126c-.262.03-.592-.033-.884,0a9.509,9.509,0,0,1-2.9,0,8.765,8.765,0,0,1-1.263-.379c-.041-.017-.023-.1-.126-.126-.249-.063-.391-.24-.632-.253-.163-.008-.158-.192-.252-.253-.152-.1-.458-.118-.631-.252a1.738,1.738,0,0,1-.505-1.768c.013-.038.209-.182.252-.253.066-.107.1-.23.253-.252s.171-.226.253-.253a4.905,4.905,0,0,1,1.136,0,2.807,2.807,0,0,0,.758.505,1.837,1.837,0,0,1,.253.126,1.071,1.071,0,0,0,.379.126,6.973,6.973,0,0,0,1.011.379,4.324,4.324,0,0,0,1.389,0c1.25-.294,3.287-.368,4.673-.631.127-1.39-.237-2.288-1.136-2.653-.07-.073-.069-.163-.126-.252-.085-.133-.014-.519-.126-.631-.163-.163-.1-.25,0-.632a1.6,1.6,0,0,1,.253-.505c.106-.107.238-.041.379-.126.071-.043.19-.223.253-.252.441-.206,1.116.11,1.642.505.109.082.219.345.379.505s.412.246.505.379c.115.164.135.522.253.758.042.084.212.181.252.252.026.047-.038.221,0,.253.286.234.269,1.386.253,1.895" transform="translate(-0.974 -26.942)"/>
        <path id="パス_6316" data-name="パス 6316" class="cls-5" d="M65.917,49.079c.045-.016,0-.114.126-.126a3.328,3.328,0,0,1,1.137.126c.052.02,0,.119.126.126a1.192,1.192,0,0,1,.253.126,4.375,4.375,0,0,0,2.9.758c-.025,0,.074-.113.126-.126.079-.02.173.018.253,0,.559-.126,1.759-.4,2.526-.506a7.085,7.085,0,0,0,.884-.126c.288-.065.78-.184,1.263-.253.164-.023.342.029.505,0,.123-.021.188-.128.379-.126.065,0,.711.095.884.126a9.882,9.882,0,0,1,2.147.758,6.667,6.667,0,0,1,1.011.506,1.5,1.5,0,0,1,.631,1.768c-.008.029-.12.013-.126.126-.014.274-.247.345-.505.506-.047.029-.219.243-.253.252-.67.173-1.18-.248-1.768-.505-.058-.025.009-.119-.126-.126-.27-.014-.949-.449-1.389-.505A12.884,12.884,0,0,0,74,52.237c-.563.06-1.246.254-1.894.379-.162.031-.346-.038-.505,0a8.227,8.227,0,0,1-2.526.253,5.547,5.547,0,0,1-.758-.126c-.031-.008-.012-.12-.126-.126a1.648,1.648,0,0,1-.379,0c-.086-.1-.34-.13-.631-.253-.056-.024.008-.119-.126-.126a2.773,2.773,0,0,1-.379-.126c-.085-.042-.181-.213-.253-.253-.046-.026-.221.038-.253,0-.014-.018.018-.116,0-.126-.046-.027-.22.039-.252,0-.208-.254-.814-.622-.884-1.137a1.3,1.3,0,0,1,.631-1.389c.069-.043-.019-.119.126-.126a.54.54,0,0,0,.126,0" transform="translate(-29.286 -27.092)"/>
        <path id="パス_6317" data-name="パス 6317" class="cls-5" d="M176.755,52.834v2.4a22.28,22.28,0,0,1,3.789.126,6.756,6.756,0,0,1,.126,2.147v2.273c0,1.551.239,3.153-.505,4.042A2.056,2.056,0,0,1,178.4,63.7c-.148-.188-.109-.564-.5-.505h-1.011c-.289.216-.046.964-.126,1.389v1.389c.028.141.947-.047,1.263-.126.319-.166-.331-.414-.252-.757-.36-.208.06-.686.126-.884.372-.106.58-.2.884,0a3.288,3.288,0,0,1,.379.126c.012.014-.015.12,0,.126a9.72,9.72,0,0,1,2.147,1.389,7.344,7.344,0,0,1,.885.758c.086.106.036.282.126.379a1.564,1.564,0,0,1,.505.758,3.762,3.762,0,0,1-.126,1.516c-.126.1-.251.154-.379.253a3.5,3.5,0,0,1-.253.252c-.177.07-.443-.036-.631,0a.257.257,0,0,1-.127.126c-.185.046-.3-.115-.506-.126a1.219,1.219,0,0,1-.757-.505,5.744,5.744,0,0,1-.252-.631c-.046-.081-.215-.182-.253-.253-.133-.247-.141-.718-.379-1.011A39.521,39.521,0,0,0,174.86,69c-.652.251-1.389.49-2.147.758a4.533,4.533,0,0,1-2.4.506c-.029-.008-.013-.12-.126-.126a2.031,2.031,0,0,1-.758-.506c-.031-.046.041-.219,0-.252-.328-.268-.307-1.215,0-1.768.037-.066.119.016.126-.126.018-.331.966-.551,1.516-.631a2.819,2.819,0,0,0,.379,0,17.627,17.627,0,0,1,2.526-.379,15.514,15.514,0,0,0,.126-3.158,1.6,1.6,0,0,0-1.01-.126c-.419.082-.624.166-.631.631a1.586,1.586,0,0,1-2.148-.126c-.288-2.533-.047-5.595-.126-8.336a22.286,22.286,0,0,1,3.79-.126c.262-.453.065-1.366.126-2.021-1.467-.13-2.869.37-4.168,0-.131-.5-.24-1.016.379-1.263.045-.018.224.035.252,0,.1-.123.172-.1.379-.126.038,0,.232.026.253,0a1.577,1.577,0,0,1,.631-.253c1.094-.278,2.283-.662,3.41-1.01.321-.1.581-.132.884-.253.045-.018.224.035.253,0a3.9,3.9,0,0,1,.884-.379c.045-.018.224.035.253,0,.1-.121.3-.126.631-.253.052-.02,0-.119.127-.126a.5.5,0,0,0,.125,0,1.446,1.446,0,0,1,1.138,0c.07.034.156.193.253.252a1.589,1.589,0,0,1,.252.126c.034.045-.042.219,0,.253.015.012.119-.015.126,0,.021.046-.037.223,0,.253.01.008.124-.01.126,0a3.675,3.675,0,0,1-.126,1.516c-.684.748-2.064.8-3.41.884M172.839,61.3h1.137a25.461,25.461,0,0,0,.126-4.042c-.239-.224-.834-.092-1.263-.126Zm3.915,0h1.137a25.468,25.468,0,0,0,.126-4.042c-.239-.224-.834-.092-1.263-.126Z" transform="translate(-76.213 -27.312)"/>
        <path id="パス_6318" data-name="パス 6318" class="cls-5" d="M127.023,63.074c.107-.081.423-.026.505-.126.012-.014-.015-.119,0-.126.174-.08.334-.031.505-.126.067-.037-.016-.119.126-.126.163-.009.159-.187.252-.253.046-.032.219.041.253,0s.086-.227.126-.253.22.041.253,0a6.331,6.331,0,0,1,1.01-.758c.071-.053-.021-.119.126-.126s.436-.35.631-.505c.124-.1.252-.154.379-.253.264-.2.506-.429.758-.631.154-.124.258-.284.379-.379.045-.035.219.042.253,0a3.521,3.521,0,0,1,.505-.506c.037-.031.092-.237.126-.252.057-.026.207.04.253,0,.241-.21.379-.532.631-.758.143-.128.375-.141.505-.253.295-.253.618-.663,1.011-1.011.207-.183.411-.426.631-.631.429-.4.878-.9,1.39-1.389.215-.208.674-.747.884-.758a2.715,2.715,0,0,1,.884-.126,1.145,1.145,0,0,1,1.011.631,1.522,1.522,0,0,1,.252.506c.076.614-.375,1.233-1.01,1.894a6.264,6.264,0,0,1-1.011.884c-.07.045.02.119-.126.126-.166.009-.21.221-.379.379-.8.74-1.473,1.316-2.274,2.021-.132.116-.252.278-.379.379s-.259.151-.379.253c-.273.234-.5.548-.758.758-.085.07-.258.246-.379.253-.175.009-.2.232-.379.379-.144.117-.364.132-.505.253-.1.088-.146.3-.253.379-.045.034-.218-.042-.252,0-.086.1-.147.367-.379.379a1.222,1.222,0,0,0-.253.126c-.162.12-.216.27-.379.379s-.326.126-.505.253c-.112.079-.254.295-.379.379-.083.057-.162.069-.253.126-.319.2-1,.613-1.516.884-.082.043-.167.072-.252.126a5.616,5.616,0,0,1-1.39.379c-.012,0-.027.121-.126.126a4.027,4.027,0,0,1-1.516-.126c-.054-.023.007-.12-.126-.126a2.23,2.23,0,0,1-.884-.632c-.1-.15-.04-.336-.126-.505-.027-.052-.243-.217-.253-.253a24.43,24.43,0,0,1,0-3.789,16.134,16.134,0,0,0-.253-4.421,5.194,5.194,0,0,0-.631-1.263c-.08-.121-.28-.031-.379-.126-.04-.039.042-.218,0-.253a1.579,1.579,0,0,1-.126-1.516,1.677,1.677,0,0,0,.126-.126c.064-.1.1-.245.252-.253.027,0,.1.014.126,0,.072-.042.19-.223.253-.253.688-.32,1.505.369,1.895.758a2.921,2.921,0,0,1,.379.631c.037.067.118-.017.126.126.006.112.192.274.253.379s.056.23.126.379c.028.06.238.208.253.253.091.3.015.39.126.757.047.156.036.376.126.758.395,1.679-.036,4.862.126,6.695" transform="translate(-55.28 -28.583)"/>
        <path id="パス_6319" data-name="パス 6319" class="cls-5" d="M110.6,56.191c.35.424.232,1.027.253,1.516.023.558.029,1.1,0,1.642-.036.675-.225,1.392-.253,2.021a2.019,2.019,0,0,1-.126.632c-.012.042.031.228,0,.253a7.8,7.8,0,0,0-.505,1.389c-.145.38-.315.745-.505,1.136-.1.2-.156.442-.253.631-.043.084-.213.181-.253.253-.026.046.039.221,0,.253-.016.013-.117-.018-.126,0-.094.175-.167.468-.252.631-.035.065-.119-.015-.126.126-.011.2-.241.407-.379.631-.053.086-.07.158-.126.253s-.055.285-.126.379c-.041.054-.22.074-.252.126-.125.207-.095.388-.253.631-.1.155-.275.221-.379.379-.08.121-.062.263-.126.379-.037.066-.119-.016-.126.126-.006.108-.192.28-.253.379-.051.082-.069.165-.126.252s-.194.172-.253.253c-.1.13-.12.3-.253.506-.045.07-.119-.02-.126.126-.011.213-.365.256-.379.5-.012.213-.366.256-.379.506-.01.186-.346.3-.505.505-.035.045.042.218,0,.253a1.729,1.729,0,0,0-.506.505A3.752,3.752,0,0,1,103.4,74a2.961,2.961,0,0,1-.253.252,1.668,1.668,0,0,1-.757.379,1.617,1.617,0,0,1-1.516-1.011A2.913,2.913,0,0,1,101,72.358a21.4,21.4,0,0,0,2.273-2.779c.347-.471.656-.972,1.011-1.516.046-.07.119.02.126-.126.009-.168.243-.2.253-.379s.243-.2.252-.379a1.214,1.214,0,0,1,.126-.252c.064-.1.207-.176.253-.253.1-.162.033-.335.126-.505.029-.054.232-.082.252-.126a4.232,4.232,0,0,1,.253-.632c.126-.2.21-.367.379-.631a2.706,2.706,0,0,0,.379-.757,1.615,1.615,0,0,1,.253-.506A8.794,8.794,0,0,0,107.7,61.5c.082-.332.2-.7.252-1.01.036-.2-.037-.428,0-.632.022-.12.112-.195.126-.379.107-1.391-.321-3.347,1.011-3.663a1.666,1.666,0,0,1,1.516.379" transform="translate(-45.425 -30.162)"/>
        <path id="パス_6320" data-name="パス 6320" class="cls-5" d="M250.47,65.442c-.008-.762-.723-1.1-1.136-1.516s-.787-.913-1.263-1.39L246.429,60.9a2.536,2.536,0,0,1-.506-.506c-.123-.191-.1-.355-.252-.505-.13-.129.115-.442.126-.505.017-.1-.046-.292,0-.379.071-.137.392-.295.505-.379a.952.952,0,0,1,.885-.252c.8.1,1.015.636,1.515,1.136,1.018,1.018,2.255,2.205,3.285,3.284a2.775,2.775,0,0,1,.505.506c.065.1.129.306.253.505.041.066.228.2.252.253a5.572,5.572,0,0,1,.126.758,3.133,3.133,0,0,1,.126.758c-.013.2-.1.215-.126.379a2.029,2.029,0,0,1-.126.631c-.029.062-.119-.012-.126.126a7.191,7.191,0,0,1-1.011,1.137c-.078.054-.442.163-.631.253a7,7,0,0,1-1.263.505c-.119.031-.259-.026-.379,0s-.125.11-.253.126a9.01,9.01,0,0,1-1.768,0,6.917,6.917,0,0,1-.884,0c-.035-.01-.185-.211-.252-.253a1.238,1.238,0,0,1-.506-1.136c0-.038-.026-.232,0-.253s.122.012.126,0c.207-.653.552-.9,1.389-1.011,1.165-.156,2.385.186,3.032-.631" transform="translate(-110.647 -31.33)"/>
        <path id="パス_6321" data-name="パス 6321" class="cls-5" d="M71.967,62.8a11.053,11.053,0,0,1-.126,2.147c-.007.029-.12.014-.126.126a.962.962,0,0,1-.126.379c-.066.181-.141.52-.253.758-.029.061-.119-.012-.126.126a2.864,2.864,0,0,1-.379.757c-.046.07-.119-.019-.126.127a1.635,1.635,0,0,1-.253.505c-.1.153-.281.248-.379.379-.06.082-.068.161-.126.253-.085.134-.368.3-.379.505-.009.176-.234.2-.379.379-.035.044.042.218,0,.253a4.161,4.161,0,0,0-.631.505c-.121.14-.133.365-.253.506-.231.27-.674.547-1.011.884-.906.906-1.759,1.8-2.779,2.653-.193.163-.491.415-.757.631-.141.114-.251.278-.379.379-.045.035-.218-.042-.253,0s-.08.219-.126.252c-.125.091-.359.162-.505.253-.069.043.019.119-.126.126-.168.009-.2.243-.379.252a2.287,2.287,0,0,1-.884.126,1.394,1.394,0,0,1-1.137-1.641c0-.038-.026-.232,0-.253a3.227,3.227,0,0,0,.253-.253,3.25,3.25,0,0,1,.379-.505c.045-.035.218.042.253,0a5.647,5.647,0,0,1,.884-.758c.124-.095.258-.152.379-.253.037-.031.091-.237.126-.253.059-.026.2.04.253,0,.124-.1.269-.286.379-.379.036-.031.092-.237.126-.253.057-.025.207.04.253,0,.215-.187.442-.453.632-.631.908-.858,1.681-1.717,2.526-2.653.195-.215.446-.4.631-.631s.319-.508.506-.758c.053-.071.118.021.126-.126.009-.168.243-.2.252-.379s.243-.2.253-.379.243-.2.252-.379c.011-.2.262-.381.379-.632a4.676,4.676,0,0,0,.126-.505c.016-.047.12,0,.126-.126.02-.385.154-.415.126-.884-.089-.331-.559-.147-.758-.126-1.32.135-2.971.481-4.546.631-.313.03-.658-.028-1.011,0a8.039,8.039,0,0,1-.884.126c-.2-.01-.215-.1-.379-.126a7.423,7.423,0,0,1-.884-.126c-.043-.012-.228.031-.253,0-.085-.1-.1-.087-.253-.126-.112-.028-.217-.086-.379-.126-.134-.034-.468-.237-.758-.379-1.029-.5-1.816-.892-1.642-2.021a1.5,1.5,0,0,1,2.653-.505c.567.055,1.047.408,1.642.505.039.007.23-.027.253,0,.006.007,0,.126,0,.126.238,0,.563-.111.884-.126,1.332-.064,2.781-.307,4.168-.505.162-.023.347.037.506,0s.356-.069.758-.126c.038-.005.231.027.253,0,.177-.217,1.2-.176,1.768-.253-.027,0,.075-.113.126-.126.335-.084,1.012-.054,1.516-.126.11-.015.208-.1.379-.126.728-.1,1.979-.177,2.905-.253a8.448,8.448,0,0,1,1.642-.126,5.834,5.834,0,0,1,1.137.253c.187.058.508.153.758.252.086.035.091.113.126.126.185.076.32.04.506.126.06.029-.012.119.126.126a1.624,1.624,0,0,1,.505.253,2.219,2.219,0,0,1,.379.252c.046.045.339.149.379.379a1.445,1.445,0,0,1,.126,1.516,1.56,1.56,0,0,1-1.768.632c-.041-.013,0-.12-.126-.126a1.624,1.624,0,0,1-.505-.253,2.7,2.7,0,0,0-.758-.379c-.154-.008-.8-.343-1.137-.379a5.61,5.61,0,0,0-1.263.126c-1.072.115-2.294.181-3.41.379" transform="translate(-25.864 -31.85)"/>
        <path id="パス_6322" data-name="パス 6322" class="cls-5" d="M7.2,67.24a4.845,4.845,0,0,1-.126,3.41,9.178,9.178,0,0,1-1.516,2.526c-.13.166-.348.313-.505.506s-.206.437-.379.631c-.286.321-.688.688-1.011,1.011-.5.5-1.5,1.648-2.273,1.641A1.446,1.446,0,0,1,0,75.449c.02-.657.484-.977,1.011-1.516a25.606,25.606,0,0,0,2.4-2.653c.054-.071.119.021.126-.126a1.23,1.23,0,0,1,.126-.253c.032-.044.235-.087.253-.126a3.313,3.313,0,0,1,.253-.632c.039-.059.233-.2.252-.253.044-.112.066-.393.126-.631.057-.221.1-.35.126-.505.119-.7-.028-1.146.379-1.516a1.71,1.71,0,0,1,.631-.379A2.251,2.251,0,0,1,7.2,67.24" transform="translate(0 -35.148)"/>
        <path id="パス_6323" data-name="パス 6323" class="cls-5" d="M31.9,66.992c.051-.02,0-.112.126-.126a5.648,5.648,0,0,1,2.526.379c.045.018.224-.035.252,0,.011.013-.014.12,0,.126.178.073.334.033.506.127.121.066.2.249.379.379.124.089.382.146.505.252.209.181.374.523.632.758.512.468,1.109.873,1.516,1.263.458.44.916,1.042,1.389,1.516.493.493,1.127.713,1.137,1.642a1.8,1.8,0,0,1-.379,1.137c-.041.038-.218-.043-.253,0-.015.019-.115.248-.126.253a1.98,1.98,0,0,1-1.263-.126c-.294-.11-.475-.394-.758-.632-.665-.56-1.436-1.31-2.147-2.021-.212-.212-.4-.548-.631-.758a5.111,5.111,0,0,0-.379-.379c-.044-.035-.218.042-.252,0a3.446,3.446,0,0,0-.758-.758,3.424,3.424,0,0,0-.884-.252c-.025-.006-.016-.121-.126-.126a3.193,3.193,0,0,1-.758,0s-.37-.115-.379-.126.017-.117,0-.126c-.23-.124-.49-.087-.505-.379,0-.074-.094-.248-.126-.379-.019-.075-.126-.129-.126-.126-.095-.667.408-1.5.758-1.516a.485.485,0,0,0,.126,0" transform="translate(-13.968 -35.153)"/>
        <path id="パス_6324" data-name="パス 6324" class="cls-5" d="M160.6,101.129c-.643,2.22-1.49,4.236-2.146,6.442.3.335.428-.219.631-.379.242-.19.4-.435.758-.379a1.844,1.844,0,0,1-2.4,1.263,12.633,12.633,0,0,1,.884-3.031c.323-.963.629-1.94,1.011-2.9.068-.447-.447-.311-.379-.758a11.488,11.488,0,0,1,1.642-.253" transform="translate(-70.921 -50.597)"/>
        <path id="パス_6325" data-name="パス 6325" class="cls-5" d="M106.128,101.822c-.286,1.44-.922,2.53-1.263,3.915.079.22.412-.208.632-.379.04-.031.09-.236.126-.253.066-.03.189.037.252,0,.044-.026.225-.247.252-.252a1.634,1.634,0,0,1,1.39.252c-.048.269.066.554,0,.758-.02.062-.231.079-.253.126-.108.241-.046.247-.253.379-.138.088-.237.162-.379.252a2.148,2.148,0,0,1-1.01.379c-.016.563.311.783.379,1.263.62.115.481-.529,1.01-.505a1.393,1.393,0,0,1-1.641,1.137c-.4-.406-.449-1.151-.758-1.642-.538.3-.642,1.042-.884,1.642h-.758a9.3,9.3,0,0,1,.631-2.4c.012-.032.1-.029.126-.126.065-.26.177-.458.252-.758.065-.26.178-.458.253-.758.065-.26.178-.458.253-.758.065-.26.178-.458.253-.758a2.8,2.8,0,0,0,.126-.505c.11-.4-.194-.395-.379-.505.308-.408.972-.459,1.641-.505M106,105.485c-.03.037-.207-.021-.253,0-.015.007.012.112,0,.126-.032.039-.206-.026-.252,0-.029.016-.219.217-.253.253a3.672,3.672,0,0,0-.758,1.01c.257.15.2.076.505,0,.1-.024.1-.115.126-.126.67-.245,1.323-.584,1.389-1.263a.329.329,0,0,0-.505,0" transform="translate(-46.384 -50.911)"/>
        <path id="パス_6326" data-name="パス 6326" class="cls-5" d="M200.133,101.822c-.286,1.441-.908,2.544-1.263,3.915.079.22.412-.208.631-.379.04-.031.09-.236.126-.253.068-.03.19.037.253,0,.044-.026.225-.247.253-.252a1.632,1.632,0,0,1,1.389.252c-.047.269.067.554,0,.758-.019.062-.231.079-.252.126-.108.241-.046.247-.252.379-.139.088-.237.162-.379.252a2.151,2.151,0,0,1-1.011.379c-.015.563.312.783.379,1.263.62.115.481-.529,1.011-.505a1.394,1.394,0,0,1-1.642,1.137c-.329-.472-.44-1.161-.758-1.642-.539.3-.642,1.042-.885,1.642h-.758a4.844,4.844,0,0,1,.379-1.642c.008-.025.1-.036.126-.126.065-.26.177-.458.252-.758.065-.26.178-.458.252-.758.065-.26.179-.458.253-.758.064-.26.178-.458.252-.758.065-.26.178-.458.253-.758a2.844,2.844,0,0,0,.126-.505c.11-.4-.195-.395-.379-.505.308-.408.973-.459,1.643-.505m-.127,3.663c-.03.037-.207-.021-.252,0-.016.007.012.112,0,.126-.032.039-.207-.027-.253,0-.095.054-.17.3-.253.379-.191.192-.493.292-.505.505s-.5.506,0,.506c.106-.174.345-.182.505-.253.108-.047.158-.077.253-.126a1.594,1.594,0,0,0,.505-.379c.225-.225.531-.369.506-.758a.329.329,0,0,0-.506,0" transform="translate(-88.728 -50.911)"/>
        <path id="パス_6327" data-name="パス 6327" class="cls-5" d="M124.861,102.052h2.653c-.019.486-.7.307-.884.631-.206.72-.44,1.413-.631,2.147.23.237.766.121,1.263.126.446,0,.969,0,1.39,0,.412-.093.38-.63.505-1.011a6.826,6.826,0,0,0,.379-1.136c.1-.562-.678-.249-.633-.758h2.779c.013.459-.772.249-1.01.631-.424,1.807-1.139,3.324-1.516,5.179-.114.534.713.128.631.631h-2.779c-.127-.38.281-.224.506-.253.751-.511.8-1.731,1.137-2.652-.485-.459-2.094-.265-2.779-.126a3.227,3.227,0,0,0-.379.884c-.018.045.035.224,0,.253-.117.1-.167.379-.252.758-.005.025-.121.016-.126.126-.009.168.007.337,0,.505-.076.5.874-.032.758.506h-2.9c.108-.354.657-.269.884-.506.554-1.761,1.147-3.484,1.641-5.3-.023-.4-.68-.162-.631-.631" transform="translate(-55.391 -51.014)"/>
        <path id="パス_6328" data-name="パス 6328" class="cls-5" d="M35.879,102.741H38.4c.035.457-.553.289-.758.505.172.88.343,1.762.505,2.653.322-.049.457-.419.631-.631a15.882,15.882,0,0,0,1.516-2.021c-.04-.3-.6-.075-.505-.505h2.273c.077.43-.414.284-.631.379-.156.069-.207.2-.379.253a14.434,14.434,0,0,0-1.516,1.768c-.134.163-.379.338-.505.505a8.122,8.122,0,0,0-1.263,2.905c.015.49.872.138.884.631H35.626c-.038-.459.674-.169.884-.379a1.151,1.151,0,0,0,.126-.252c.018-.045-.035-.224,0-.253.2-.162.246-.553.379-.884.018-.045-.035-.224,0-.253.011-.009.123.012.126,0,.055-.186-.095-.492.126-.505-.246-1.017-.426-2.1-.631-3.158-.053-.452-.734-.276-.758-.758" transform="translate(-16.047 -51.325)"/>
        <path id="パス_6329" data-name="パス 6329" class="cls-5" d="M169.68,102.741h4.546c-.261.5-.137,1.378-.757,1.516v-.884a3.909,3.909,0,0,0-1.768-.253c-.405.185-.408.772-.506,1.263-.2.137-.2.429-.252.631s-.209.364-.127.631c.338.329,1.114.025,1.516,0,.434-.114.256-.839.885-.758a5.858,5.858,0,0,0-.253.631c-.095.3-.178.608-.253.884-.012.042.031.228,0,.253s-.118-.016-.126,0c-.077.149-.043.491-.379.379v-.757a4.2,4.2,0,0,0-1.516-.126c-.415.428-.408,1.114-.631,1.894-.01.036-.12.008-.126.126-.009.179.036.359-.126.379a.639.639,0,0,0,.38.379c.223.029.632-.128.5.253h-2.9c.015-.447.716-.21.884-.506q.831-2.643,1.642-5.3c-.023-.4-.68-.162-.631-.631" transform="translate(-75.58 -51.325)"/>
        <path id="パス_6330" data-name="パス 6330" class="cls-5" d="M147.722,105.028a1.962,1.962,0,0,1-.252,1.011c.317.1,1.088-.246,1.01.252.077.5-.694.149-1.01.253-.312.168-.364.634-.506,1.011-.016.045.035.225,0,.253-.251.2-.325.946-.506,1.389.666-.008.671-.677,1.263-.758.15.362-.3.545-.505.758-.1.1-.147.294-.253.379-.044.035-.218-.042-.252,0-.02.024-.107.245-.126.253a3.454,3.454,0,0,1-1.137.126,1.908,1.908,0,0,1,0-.884c.007-.027.12-.015.126-.126a.488.488,0,0,1,0-.126,2.359,2.359,0,0,0,.126-.379c.094-.377.466-1.248.633-1.768-.054-.284-.671,0-.758-.253.115-.306.508-.334.884-.379.523-.235.369-1.147,1.263-1.011" transform="translate(-65.495 -52.348)"/>
        <path id="パス_6331" data-name="パス 6331" class="cls-5" d="M54.107,105.711a2.072,2.072,0,0,1-.253.884c.056.365.955-.112,1.011.252.085.548-.586.341-1.011.379a2.846,2.846,0,0,0-.631,1.263,7.846,7.846,0,0,0-.379,1.389c.6-.07.7-.65,1.263-.758.111.408-.352.655-.631.884s-1.062.944-1.768.505c.028-.118-.035-.263,0-.379s.084-.21.126-.379c.028-.112.086-.217.126-.379.027-.112.086-.217.126-.379.028-.111.086-.217.126-.379.028-.111.086-.216.126-.379.027-.109.113-.085.126-.126.071-.218,0-.61.253-.758-.016-.279-.536-.053-.758-.126-.01-.473.5-.431.884-.505.236-.142.268-.49.505-.631.046-.334.3-.454.758-.379" transform="translate(-23.287 -52.653)"/>
        <path id="パス_6332" data-name="パス 6332" class="cls-5" d="M91.223,105.718c.073.41-.086.587-.126.884.109.313.879-.037,1.011.252-.135.118-.04.467-.379.379h-.758c-.379.335-.33.9-.505,1.389-.01.029-.1.032-.126.126-.082.329-.26.749-.379,1.137.406.147.466-.256.631-.379s.469-.121.505-.379c.478.073.057.268-.126.505a2.706,2.706,0,0,1-.884.758c-.049.031-.216.242-.252.253-.274.076-.6-.059-.884,0,0-1.393.671-2.108.884-3.284.057-.352-.689.1-.632-.253,0-.383.443-.314.758-.379.584-.173.369-1.146,1.263-1.011" transform="translate(-40.068 -52.66)"/>
        <path id="パス_6333" data-name="パス 6333" class="cls-5" d="M140.6,106.88a2.7,2.7,0,0,1-.127,2.526c-.025.058-.119-.009-.126.126s-.389.434-.632.631c-.038.031-.091.237-.126.253-.067.03-.19-.037-.253,0-.046.027-.222.245-.252.253a2.4,2.4,0,0,1-1.642-.253,2.585,2.585,0,0,1,.126-2.526c.025-.058.119.009.126-.126a8.311,8.311,0,0,1,.758-.884c.046-.031.219.041.253,0,.012-.015-.016-.119,0-.126.045-.022.222.036.252,0a1.725,1.725,0,0,1,1.642.126m-1.263.126c-.068.247-.5.453-.506.631-.009.2-.192.378-.252.506a2.568,2.568,0,0,0-.379,2.147c.821.117,1.243-1.024,1.389-1.389a6.454,6.454,0,0,0,.253-.758c.092-.406.23-.785,0-1.137Z" transform="translate(-61.784 -53.064)"/>
        <path id="パス_6334" data-name="パス 6334" class="cls-5" d="M154.3,106.863a1.053,1.053,0,0,1-.505,1.263c-.08.06-.176.2-.253.252-.151.1-.325.063-.505.126-.029.01-.032.1-.127.126a4.774,4.774,0,0,1-1.01.252c.025.4-.086.928.125,1.137.844.169.947-.4,1.516-.506.073.2-.083.454-.253.632-.1.1-.258.035-.379.126-.166.124-.1.184-.379.252a3.01,3.01,0,0,1-1.263.126c0-.157-.187-.167-.252-.253s-.042-.421-.126-.505a.375.375,0,0,1-.126-.379.278.278,0,0,1,.126-.126c.052-.328-.036-.515.126-.758a11.937,11.937,0,0,1,.631-1.137,2.718,2.718,0,0,1,.379-.253c.08-.06.177-.2.253-.252.113-.075.236-.05.379-.126.045-.024.226-.247.252-.253a1.663,1.663,0,0,1,1.39.253m-2.274,1.642c.736-.171,1.591-.82,1.39-1.516-.865.1-1.035.9-1.39,1.516" transform="translate(-67.907 -53.047)"/>
        <path id="パス_6335" data-name="パス 6335" class="cls-5" d="M46.838,106.994c-.2,1.321-.9,2.131-1.137,3.41.065.242.207.018.253,0,.251-.1.537-.426.884-.506.12.247-.22.329-.379.506a1.729,1.729,0,0,1-1.768.758,2.015,2.015,0,0,1,.252-1.137c-.108-.381-.568.615-.884.631-.112.006-.274.192-.379.253a1.608,1.608,0,0,1-1.137.253c-.109-.1-.075-.346-.253-.379a2.132,2.132,0,0,1,.253-.884c.018-.045-.035-.224,0-.253.015-.012.119.016.126,0,.021-.046-.037-.222,0-.252a1.621,1.621,0,0,0,.379-.506c.046-.07.119.02.126-.126a3.057,3.057,0,0,1,.506-.631,6.031,6.031,0,0,1,.505-.506c.217-.151.616-.087.758-.379.364.015.827-.069,1.011.126-.106-.528.579-.647.884-.379m-1.895.631c-.08.329-.55.469-.758.758-.071.1-.076.291-.126.379a1.507,1.507,0,0,0-.253.506c-.1.386-.533.92-.252,1.263.375.026.524-.409.758-.631.084-.08.244.037.253-.126.008-.146.06-.057.126-.126a2.472,2.472,0,0,0,.505-.758,3.7,3.7,0,0,1,.253-.505.836.836,0,0,0,.126-.631.823.823,0,0,0-.631-.126" transform="translate(-19.049 -53.178)"/>
        <path id="パス_6336" data-name="パス 6336" class="cls-5" d="M84.036,107.007c-.362,1.238-.93,2.27-1.263,3.536.6.013.6-.579,1.137-.631.06.265-.275.723-.506.884-.046.032-.219-.041-.253,0a1.161,1.161,0,0,1-1.389.253,2.616,2.616,0,0,1,.379-1.137c0-.257-.359.118-.505.253a4.06,4.06,0,0,1-.506.505c-.081.054-.177.206-.252.253a1.6,1.6,0,0,1-1.137.253c-.056-.113-.111-.226-.253-.253-.181-.487.235-.919.253-1.263.008-.164.2-.157.252-.252.089-.158.024-.353.126-.506s.253-.212.379-.379a2.761,2.761,0,0,1,.631-.631c.091-.069.175-.2.253-.253.178-.122.519-.171.631-.379.5-.109.933.188,1.136,0-.059-.573.591-.345.884-.253m-1.894.631a3.977,3.977,0,0,0-1.516,2.9c.525,0,.79-.537,1.011-.758.1-.1.293-.139.379-.252.07-.093.076-.295.126-.379.019-.032.088-.066.126-.126a4.434,4.434,0,0,0,.506-1.136c-.241-.054-.229-.361-.631-.253" transform="translate(-35.786 -53.191)"/>
        <path id="パス_6337" data-name="パス 6337" class="cls-5" d="M98.559,107.007c-.362,1.238-.93,2.27-1.263,3.536.6.013.6-.579,1.137-.631.072.2-.088.461-.253.631-.1.1-.257.036-.379.126-.048.036-.081.229-.126.253-.145.076-.249.06-.379.126a1.009,1.009,0,0,1-1.01,0,2.608,2.608,0,0,1,.379-1.137c-.184-.253-.291.169-.379.253-.129.123-.264.283-.379.379-.079.066-.182.2-.253.253-.046.032-.219-.041-.253,0a1.187,1.187,0,0,1-1.263.379,2.215,2.215,0,0,1,.505-2.148c.073-.1.191-.169.253-.253.174-.236.224-.48.379-.631a3.334,3.334,0,0,1,.379-.253c.091-.069.175-.2.253-.253.194-.132.5-.157.631-.379.5-.109.933.188,1.136,0-.059-.573.591-.345.884-.253m-1.894.631a3.892,3.892,0,0,0-1.516,2.9c.525,0,.79-.537,1.011-.758.1-.1.293-.139.379-.252.07-.093.076-.295.126-.379.019-.032.088-.066.126-.126a4.45,4.45,0,0,0,.505-1.136c-.241-.054-.229-.361-.631-.253" transform="translate(-42.352 -53.191)"/>
        <path id="パス_6338" data-name="パス 6338" class="cls-5" d="M208.12,109.754c-.775.531-1.147,1.463-2.526,1.39a2.043,2.043,0,0,1,.379-2.021c.038-.06.107-.094.126-.126.05-.085.055-.285.126-.379a6.02,6.02,0,0,1,.885-.758c.326-.254.635-.439.884-.631.262.075.83-.157.883.126.345-.119.241-.686.885-.505a.636.636,0,0,1,0,.758,8.931,8.931,0,0,0-.379,1.011,12.484,12.484,0,0,0-.631,1.768c.064.242.207.018.252,0,.251-.1.537-.426.884-.506a1.264,1.264,0,0,1-.253.631c-.074.08-.3.051-.379.126a1.5,1.5,0,0,1-.758.506,1.063,1.063,0,0,1-.758-.126,2.415,2.415,0,0,1,.379-1.263m-.126-2.147a6.892,6.892,0,0,1-.506.631c-.135.17-.372.367-.379.505s-.092.062-.127.126a4.246,4.246,0,0,0-.252.884c-.01.035-.1.023-.126.126-.1.4-.1.412,0,.631.258.067.269-.176.379-.252.17-.118.391-.145.506-.253.093-.088.147-.167.252-.253.042-.034-.032-.207,0-.252s.2-.074.253-.126c.109-.118.126-.275.252-.379.041-.034-.032-.207,0-.253.073-.1.192-.1.252-.252a1.587,1.587,0,0,0,.126-.758.821.821,0,0,0-.631-.126" transform="translate(-92.548 -53.159)"/>
        <path id="パス_6339" data-name="パス 6339" class="cls-5" d="M59.6,108.309c-.766.176-.579-.6-1.263-.506-.322.143-.153.413-.126.506a2.123,2.123,0,0,0,.126.379c.036.048.229.081.253.126.184.354.514.668.505,1.137a2,2,0,0,1-.126.631c-.062.11-.288.162-.379.253-.2.2-.121.283-.506.379-.308.077-1.877.434-1.389-.884.791-.117.686.662,1.516.506.479-1.031-1.372-1.5-.631-2.779a1.6,1.6,0,0,1,.505-.505c.026-.02.264-.256.253-.253.516-.124,1.609-.081,1.263,1.011" transform="translate(-25.497 -53.356)"/>
        <path id="パス_6340" data-name="パス 6340" class="cls-5" d="M65.882,109.854c-.2-.234-.408.287-.631.505-.107.1-.274.148-.379.253-.087.088-.153.315-.252.379-.124.08-.262.061-.379.126-.066.037.016.119-.126.126a1.656,1.656,0,0,1-.884.126,1.71,1.71,0,0,1,.126-1.389c.01-.029.1-.032.126-.126.132-.529.487-1.1.631-1.768-.358-.328-.526.623-1.137.506-.014-.2.192-.453.379-.631.062-.059.193-.212.253-.253s.219.041.252,0a1.163,1.163,0,0,1,1.39-.253,5.634,5.634,0,0,1-.506,1.642c-.2.494-.449.984-.631,1.516.576-.007.912-.618,1.263-1.01.11-.123.279-.242.379-.379s.16-.347.252-.505c.04-.068.119.018.127-.126.009-.182.24-.273.252-.506.01-.182.24-.273.253-.505.006-.1.141-.125.126-.253h.758a19.165,19.165,0,0,1-1.137,3.284c.431.331.832-.836,1.263-.505,0,.157-.178.167-.253.252-.04.046.043.21,0,.253-.076.076-.359.092-.506.253a1.553,1.553,0,0,1-1.515.505,1.868,1.868,0,0,1,.252-1.011c.049-.073.09-.384.253-.505" transform="translate(-28.368 -53.385)"/>
        <path id="パス_6341" data-name="パス 6341" class="cls-5" d="M75.95,107.706c.1.48-.6.161-.884.253.09.637-.173.922-.253,1.389a2.567,2.567,0,0,0-.758.758,4.738,4.738,0,0,0-1.263.506c.156.552.729.588,1.136.884s.969.495,1.011,1.01a1.217,1.217,0,0,1-.884,1.137c-.045.018-.224-.035-.253,0a1.524,1.524,0,0,1-.631.252,3.347,3.347,0,0,1-2.4-.505c-.176-1.187.612-1.41,1.389-1.642.32-.308-.266-.269-.126-.758.222-.114.208-.465.505-.505-.251-.254-.6-.413-.758-.758-.17-.461.238-.988.253-1.263.011-.213.365-.256.379-.505.008-.158.553-.375.758-.505a1.871,1.871,0,0,1,1.011-.126c.23.022.411.114.631.126.348.019,1.084-.441,1.137.252m-2.274,0a3.21,3.21,0,0,0-1.01,2.273,1.148,1.148,0,0,0,1.136-.884c.021-.412.651-.867.379-1.389Zm.253,4.8c-.087-.1-.272-.041-.379-.126-.193-.154-.29-.367-.506-.379-.276-.015-.291-.262-.505,0-.032.038-.206-.026-.253,0a2.734,2.734,0,0,0-.252.253c-.2.184-.395.323-.379.631.166-.028.063.175.126.252.091.11.284.136.379.253.028.034.208-.017.253,0a1.794,1.794,0,0,0,1.137,0c.263-.105.549-.146.505-.505-.1-.08-.041-.281-.126-.379" transform="translate(-31.868 -53.384)"/>
        <path id="パス_6342" data-name="パス 6342" class="cls-5" d="M115.221,107.55a1.144,1.144,0,0,1-.505,1.263,4.279,4.279,0,0,1-1.137.505c-.03.01-.031.1-.126.126a1.519,1.519,0,0,1-.632.126c.026.4-.085.927.126,1.136.792.119.961-.387,1.516-.505.013.34-.236.553-.505.758a2.408,2.408,0,0,1-1.768.379c-.037-.258-.342-.248-.379-.506a1.207,1.207,0,0,1-.126-.884c0-.007.121-.03.126-.126a1.37,1.37,0,0,1,.126-.631c.029-.061.119.012.126-.126.01-.182.241-.273.253-.505a7.048,7.048,0,0,1,.758-.884c.158-.1.332-.038.505-.126.049-.025.221-.246.253-.252a1.658,1.658,0,0,1,1.389.252m-1.263.126a4.2,4.2,0,0,0-1.011,1.516c.733-.236,1.386-.551,1.389-1.516Z" transform="translate(-50.298 -53.355)"/>
        <path id="パス_6343" data-name="パス 6343" class="cls-5" d="M181.031,109.721c-.158-.2-.182.178-.253.252-.212.225-.461.322-.758.632a2.145,2.145,0,0,1-.631.505c-.066.037.017.119-.126.126a1.661,1.661,0,0,1-.884.126,1.719,1.719,0,0,1,.125-1.39c.011-.029.1-.032.127-.126a3.262,3.262,0,0,1,.126-.505,8.207,8.207,0,0,0,.505-1.263c-.358-.328-.526.622-1.137.505-.046-.3.379-.551.632-.758a1.333,1.333,0,0,1,1.642-.379,5.667,5.667,0,0,1-.505,1.642c-.2.493-.45.984-.632,1.516.552.041.8-.545,1.137-.884.1-.1.3-.148.379-.253s.069-.275.126-.379c.037-.067.119.016.126-.126,0-.026-.014-.1,0-.126.082-.134.31-.258.379-.379.077-.138.062-.253.127-.379.094-.184.23-.461.379-.758h.758a8.622,8.622,0,0,1-.506,1.768c-.02.051-.119,0-.126.126-.02.385-.383.865-.5,1.389a1.257,1.257,0,0,0,1.01-.632c.367.319-.345.824-.631,1.011a1.7,1.7,0,0,1-1.39.379,3.945,3.945,0,0,1,.506-1.642" transform="translate(-80.236 -53.379)"/>
        <path id="パス_6344" data-name="パス 6344" class="cls-5" d="M190.684,109.595a18.927,18.927,0,0,1-1.389,1.389,1.481,1.481,0,0,1-1.263.379c-.321-.651.063-1.24.253-1.768s.476-1.019.631-1.516c-.6-.052-.618.477-1.137.505-.047-.3.379-.551.631-.758a1.334,1.334,0,0,1,1.643-.379,33.03,33.03,0,0,1-1.137,3.158c.406.144.544-.312.758-.506a2.779,2.779,0,0,0,.758-.884c.037-.067.119.016.127-.126,0-.108.191-.28.252-.379a15.028,15.028,0,0,0,.758-1.389h.758c-.238,1.235-.83,2.116-1.136,3.284.169.278.364-.147.506-.253.218-.163.372-.4.631-.379.072.246-.1.448-.252.632a2.5,2.5,0,0,1-1.894.758c-.052-.809.336-1.179.505-1.768" transform="translate(-84.585 -53.379)"/>
        <path id="パス_6345" data-name="パス 6345" class="cls-5" d="M105.55,4.5c.78-.022,1.727-.211,1.389.884-.279-.015-.053-.536-.126-.758-.384-.079-1.088.162-1.263-.126" transform="translate(-47.546 -2.016)"/>
        <path id="パス_6346" data-name="パス 6346" class="cls-5" d="M102.086,7.625c.079-.384-.162-1.088.126-1.263-.079.384.162,1.088-.126,1.263" transform="translate(-45.976 -2.866)"/>
        <path id="パス_6347" data-name="パス 6347" class="cls-1" d="M151.421,5.929l-.434,0,.434,0" transform="translate(-68.013 -2.671)"/>
        <path id="パス_6348" data-name="パス 6348" class="cls-1" d="M145.756,5.172c-.016.32-.021.652-.019.991,0-.339,0-.671.019-.991Z" transform="translate(-65.648 -2.33)"/>
        <path id="パス_6349" data-name="パス 6349" class="cls-1" d="M153.805,7.032a26.745,26.745,0,0,1-4.168-.126c.082-.8-.166-1.935.126-2.526,1.217-.024,4.5.351,3.158-1.011-.264-.034-.536-.058-.813-.079s-.537-.034-.812-.043c-2.1.118-5.48.626-6.079.122-.292-.246-.108-1.288,0-1.263,1.767-.7,5.855.326,5.558-2.021-2.167-.439-4.6.929-6.821,1.263-.007.162-.162.175-.126.379-.035.174-.06.357-.081.544s-.034.376-.045.571c.1,1.378.635,3.453.126,4.064-.271.325-1.483.021-2.273.126-.333-.038-.325.264-.379.506.136.118.04.466.379.379a47.988,47.988,0,0,1,5.558.126V11.58a8.988,8.988,0,0,1-2.4.126v-.585a1.456,1.456,0,0,1,0-.3V8.8c.092-.345-.251-.254-.252-.505h-.884c-.007.162-.162.175-.126.379V13.1a.6.6,0,0,0,.126.379c.983.267,1-.43,1.39-.758h6.062c.132.542.421.928,1.263.758a11,11,0,0,0,0-5.179h-.884c-.515.664-.137,2.22-.252,3.284-.634.293-1.809.043-2.653.126a22.054,22.054,0,0,1-.126-3.79h5.3a.451.451,0,0,0,.126-.884m-5.431-.126c-.469.562-1.962.074-2.9,0h-.387c.084-.8-.166-1.935.127-2.526h3.124v.088h.017v.813c.136.615.309,1.276.017,1.626" transform="translate(-63.593 0)"/>
        <path id="パス_6350" data-name="パス 6350" class="cls-1" d="M145.8,10.418c0,.094,0,.187,0,.28,0-.093,0-.186,0-.28" transform="translate(-65.676 -4.693)"/>
        <path id="パス_6351" data-name="パス 6351" class="cls-1" d="M147.61,20.238" transform="translate(-66.492 -9.116)"/>
        <path id="パス_6352" data-name="パス 6352" class="cls-1" d="M145.76,8.281c-.01-.424-.019-.847-.022-1.265,0,.417.012.841.022,1.265" transform="translate(-65.649 -3.16)"/>
        <path id="パス_6353" data-name="パス 6353" class="cls-1" d="M147.678,20.535a.144.144,0,0,0,.008.025.144.144,0,0,1-.008-.025" transform="translate(-66.522 -9.25)"/>
        <path id="パス_6354" data-name="パス 6354" class="cls-1" d="M126.842,8.937a1.928,1.928,0,0,0,.253-1.768c-.1-.028-.249,0-.253-.126-.953-.127-.769.849-1.011,1.39-.551,1.237-1.78,2.281-1.894,3.41,1.781.3,1.645-2.391,4.041-1.895.135,2.744-2.227,2.993-2.779,5.052,1.037.253,1.819-.773,2.4-1.389a8.7,8.7,0,0,0,1.642-2.526V9.694c.832-.3,2.465.192,2.273-1.136-1.572-.382-3.018.425-4.673.379" transform="translate(-55.828 -3.167)"/>
        <path id="パス_6355" data-name="パス 6355" class="cls-1" d="M147.844,16.455a1.038,1.038,0,0,1,.044.171,1.052,1.052,0,0,0-.044-.171" transform="translate(-66.597 -7.412)"/>
        <path id="パス_6356" data-name="パス 6356" class="cls-1" d="M147.61,16.015a.791.791,0,0,1,.107.186.791.791,0,0,0-.107-.186" transform="translate(-66.492 -7.214)"/>
        <path id="パス_6357" data-name="パス 6357" class="cls-1" d="M147.9,17.836c0,.039-.012.079-.018.118.006-.039.013-.079.018-.118" transform="translate(-66.616 -8.034)"/>
        <path id="パス_6358" data-name="パス 6358" class="cls-1" d="M147.949,17.383c0,.051-.007.1-.012.153,0-.051.009-.1.012-.153" transform="translate(-66.639 -7.83)"/>
        <path id="パス_6359" data-name="パス 6359" class="cls-1" d="M147.94,16.841a1.474,1.474,0,0,1,.012.217,1.474,1.474,0,0,0-.012-.217" transform="translate(-66.64 -7.586)"/>
        <path id="パス_6360" data-name="パス 6360" class="cls-1" d="M98.915,5.727c-.288.175-.047.879-.126,1.263a12.8,12.8,0,0,1-2.147,5.684c-.635.813-1.9,1.167-1.895,2.273,2.857-.516,5.444-4.752,5.684-8.083.116-1.607-.851-2.739-1.516-1.137" transform="translate(-42.679 -2.231)"/>
        <path id="パス_6361" data-name="パス 6361" class="cls-1" d="M107.528,2.78c-.706-.172-2.388-.3-2.9.126-.051.471.1.741.505.757.175.289.879.047,1.263.126.073.223-.153.742.126.758.252,4.379,1.822,7.441,4.8,9.094.714-.3,1.495-.526,1.641-1.389-3.742-1.227-5.206-4.729-5.431-9.473" transform="translate(-47.124 -1.179)"/>
        <path id="パス_6362" data-name="パス 6362" class="cls-1" d="M156.681,5.891h0c-1.141-.043-2.351-.018-3.554,0,1.2-.018,2.412-.044,3.553,0" transform="translate(-68.977 -2.643)"/>
        <path id="パス_6363" data-name="パス 6363" class="cls-1" d="M148.283,10.5h.126V7.971c-.293.591-.043,1.724-.126,2.526" transform="translate(-66.786 -3.591)"/>
        <path id="パス_6364" data-name="パス 6364" class="cls-1" d="M154.138,8.058V7.97h-.092c0,.027,0,.059,0,.088Z" transform="translate(-69.39 -3.59)"/>
        <path id="パス_6365" data-name="パス 6365" class="cls-1" d="M151.561,10.348h-2.913V8.058h2.913V7.97H148.53V10.5h3.031Z" transform="translate(-66.906 -3.59)"/>
        <path id="パス_6366" data-name="パス 6366" class="cls-1" d="M156.558,10.5h.126V7.971c-.293.591-.044,1.724-.126,2.526" transform="translate(-70.513 -3.591)"/>
        <path id="パス_6367" data-name="パス 6367" class="cls-1" d="M160.743,12.676a25.064,25.064,0,0,0-4.041-.126h-.126a26.811,26.811,0,0,0,4.168.126" transform="translate(-70.53 -5.644)"/>
        <path id="パス_6368" data-name="パス 6368" class="cls-1" d="M141.864,14.389a45.706,45.706,0,0,0,5.432.126h.126a47.865,47.865,0,0,0-5.558-.126" transform="translate(-63.904 -6.472)"/>
        <path id="パス_6369" data-name="パス 6369" class="cls-1" d="M154.386,18.2V14.533a41.505,41.505,0,0,0,5.178-.126h-5.3a22.047,22.047,0,0,0,.126,3.789" transform="translate(-69.478 -6.49)"/>
        <path id="パス_6370" data-name="パス 6370" class="cls-1" d="M145.183,20.206V15.785a15.552,15.552,0,0,0,0,4.421" transform="translate(-65.327 -7.11)"/>
        <path id="パス_6371" data-name="パス 6371" class="cls-1" d="M157.159,21.072h-2.652V21.2c.843-.083,2.019.167,2.652-.126" transform="translate(-69.599 -9.492)"/>
        <path id="パス_6372" data-name="パス 6372" class="cls-1" d="M144.138,9.237c.509-.611-.025-2.686-.126-4.064-.017.32-.021.652-.02.991,0,.007,0,.015,0,.022,0,.417.013.841.022,1.265.006.2.009.4.012.606q0,.14,0,.28c0,.306,0,.609-.016.9-.676.082-1.682-.166-2.148.126.791-.1,2,.2,2.274-.126" transform="translate(-63.904 -2.33)"/>
        <path id="パス_6373" data-name="パス 6373" class="cls-1" d="M145.816,4.134c-.021.185-.034.376-.045.571.01-.2.025-.386.045-.571" transform="translate(-65.664 -1.862)"/>
        <path id="パス_6374" data-name="パス 6374" class="cls-1" d="M147.61,20.238" transform="translate(-66.492 -9.116)"/>
        <path id="パス_6375" data-name="パス 6375" class="cls-1" d="M147.761,17.134c.006-.04.013-.079.018-.118s.007-.064.01-.1c.005-.052.009-.1.012-.153,0-.027,0-.054,0-.081a1.549,1.549,0,0,0-.012-.217c0-.014-.007-.027-.009-.041a1.04,1.04,0,0,0-.044-.171c-.007-.019-.014-.037-.021-.056a.811.811,0,0,0-.107-.186v2.019c.025-.276.1-.59.151-.9" transform="translate(-66.492 -7.214)"/>
        <path id="パス_6376" data-name="パス 6376" class="cls-1" d="M147.61,18.3a8.987,8.987,0,0,0,2.4-.126V14.636h-.126v3.537c-.862-.247-1.7.408-2.148-.126a.539.539,0,0,1-.081-.144c0-.008-.005-.016-.008-.025a.794.794,0,0,1-.037-.163Z" transform="translate(-66.492 -6.593)"/>
        <path id="パス_6377" data-name="パス 6377" class="cls-1" d="M160.4,5.953c-.265-.02-.537-.034-.811-.043h0c.274.01.546.024.812.043" transform="translate(-71.89 -2.662)"/>
        <path id="パス_6378" data-name="パス 6378" class="cls-1" d="M148.4,5.1c.6.5,3.983,0,6.08-.123-1.141-.043-2.352-.016-3.553,0l-.743.009-.434,0c-.456,0-.909,0-1.35-.016V3.833c-.108-.024-.292,1.017,0,1.263" transform="translate(-66.777 -1.726)"/>
        <path id="パス_6379" data-name="パス 6379" class="cls-1" d="M151.884,11.087h-.109v.149H149c.936.073,2.43.561,2.9,0,.292-.35.119-1.011-.017-1.626Z" transform="translate(-67.119 -4.329)"/>
        <line id="線_171" data-name="線 171" class="cls-1" x1="0.126" transform="translate(81.497 6.907)"/>
        <line id="線_172" data-name="線 172" class="cls-1" x1="0.26" transform="translate(81.624 6.907)"/>
        <path id="パス_6380" data-name="パス 6380" class="cls-1" d="M154.046,8.058c0-.029,0-.061,0-.088v.088Z" transform="translate(-69.39 -3.59)"/>
      </g>
    </g>
  </g>
</svg>
