<svg xmlns="http://www.w3.org/2000/svg" xmlns:xlink="http://www.w3.org/1999/xlink" width="503.531" height="313.952" viewBox="0 0 503.531 313.952">
  <defs>
    <style>
      .cls-1 {
        fill: none;
      }

      .cls-2 {
        fill: #64562f;
      }

      .cls-3 {
        fill: #c1dbb9;
      }

      .cls-4 {
        clip-path: url(#clip-path);
      }

      .cls-5 {
        fill: #fbd8b5;
      }

      .cls-6 {
        fill: #a4cced;
      }

      .cls-7 {
        fill: #282828;
      }

      .cls-8 {
        fill: #bababa;
      }

      .cls-9 {
        fill: #4aa3d5;
      }

      .cls-10 {
        fill: #fce952;
      }

      .cls-11 {
        fill: #edbc32;
      }

      .cls-12 {
        fill: #fffff3;
      }

      .cls-13 {
        fill: #fff;
      }

      .cls-14 {
        clip-path: url(#clip-path-2);
      }

      .cls-15 {
        fill: #e8f2ff;
      }

      .cls-16 {
        clip-path: url(#clip-path-3);
      }

      .cls-17 {
        fill: #8cb97f;
      }

      .cls-18 {
        fill: #80ad74;
      }
    </style>
    <clipPath id="clip-path">
      <rect id="長方形_718" data-name="長方形 718" class="cls-1" width="298.748" height="169.939"/>
    </clipPath>
    <clipPath id="clip-path-2">
      <rect id="長方形_719" data-name="長方形 719" class="cls-2" width="95.598" height="102.995" transform="translate(0 0)"/>
    </clipPath>
    <clipPath id="clip-path-3">
      <rect id="長方形_720" data-name="長方形 720" class="cls-1" width="174.171" height="127.581"/>
    </clipPath>
  </defs>
  <g id="グループ_1000" data-name="グループ 1000" transform="translate(-301.469 -2208.38)">
    <path id="パス_7450" data-name="パス 7450" class="cls-3" d="M-2522.339,1924c-5.531,49.794,64.593,55.427,122.213,56.5s84.752-14.339,120.553-34.477,77.255-45.906,52.662-67.6-97,19.071-148.73,14.36S-2516.808,1874.2-2522.339,1924Z" transform="translate(2940.531 541.776)"/>
    <g id="グループ_778" data-name="グループ 778" transform="translate(335.126 2333.694)">
      <g id="グループ_777" data-name="グループ 777" class="cls-4">
        <path id="パス_7380" data-name="パス 7380" class="cls-5" d="M121.8,69.6c-1.2-1.37-1.631-1.942-1.636-2.756s-.226-2.754-.38-3.922-.71-1.655-1.3-1.391-.285,1.192-.5,2.885-.662.9-1.51.521-4.164-3.136-5.126-3.485-2.042-.937-2.517-.161,1.3,1.39,1.391,2.057-.612.641-1.559,1.054-.5.88-.03,1.838.747.9.575,1.791.07,1.044.73,1.551,2.876.827,4.747,1.243,2.991.795,3.846,2.261c.053.091,2.928,2.97,3.056,3.139,2.525,1.814,6.4-2.142,1.439-5.432-.6-.557-1.03-.977-1.219-1.193"/>
        <path id="パス_7381" data-name="パス 7381" class="cls-5" d="M145.057,53.7c.3-.059,4.315-.536,4.685-.648.283.649,1.11,5.828,1.227,6.748a22.358,22.358,0,0,1,.021,6.054c-.345.819-4.985,3.629-5.515-2.46-.2-2.255-.459-5.242-.452-5.99.012-1.25.123-3.252.034-3.7"/>
        <path id="パス_7382" data-name="パス 7382" class="cls-5" d="M156.445,50.442c-1.78,3.239-4.62,4.9-7.04,4.972a12.18,12.18,0,0,1-6.819-1.931,11.678,11.678,0,0,1-3.3-4.419,7.4,7.4,0,0,1-.275-2.835c.2-2.272-1.364-2.187.106-6.806.446-1.4,3.268-7.863,9.78-8.415,5.723-.486,11.272,12.655,7.547,19.434"/>
        <path id="パス_7383" data-name="パス 7383" class="cls-6" d="M172.672,93.817c-.9-3.276-5.825-14.337-9.339-18.915-3.133-4.08,1.146-12.494-2.487-14-6.337-2.622-6.262-8.606-10.891-5.578-3.885,2.542-7.28,3.45-8.006,5.081,2.141,4.774-2.071,4.885-4,9.786-1.509,3.827-6.447,2.164-9.4.908,0,0-2.909-2.072-5.237,1.861-2.509,4.241-3.033,4.291,2.3,7.891,5.986,4.036,10.987,3.234,12.939,4.7,2.351,1.769-.571,10.816-2.82,13.5-2.948,3.525-4.2,7.018,7.233,9.617,6.079,2.6,9.586.047,13.884,1.246,2.684.749,16.94-12.059,15.827-16.106"/>
        <path id="パス_7384" data-name="パス 7384" class="cls-7" d="M149.974,30.291c.773.169,1.177.139,2.525-.491a7.134,7.134,0,0,1,4.486-.883,5.416,5.416,0,0,1,3.134,1.665c.5.64,1.861,2.446,1.636,4.189a4.7,4.7,0,0,0,.893,3.838c.755.914.9,4.728.444,5.732a10.817,10.817,0,0,1-2.483,3.071c-.742.585-1.91,5.642-4.951,5.642-2.049,0-2.173,2.875-4.469.906-1.163-1,1.542-1.749,0-3.281-1.641-1.631,3-2.7,1.334-4.842-1.409-1.818-3.194,1.677-3.972,1.677-.745,0-1.117-1.652-1.536-3.957a3.336,3.336,0,0,0-3.3-2.582c-.984,0-2.361.917-3.706-.372s-2.237-2.6-.889-4.492,3-1.913,3.231-3.7,1.232-3.689,3.747-3.479,2.984,1.032,3.881,1.361"/>
        <path id="パス_7385" data-name="パス 7385" class="cls-7" d="M124.4,59.4c-3.366-1.72-9.237,3.034-13.113,10.619s-4.29,15.127-.925,16.847,9.236-3.034,13.113-10.619,4.29-15.127.925-16.847M112.182,82.517c-2.367-1.21-2.076-6.516.651-11.85s6.856-8.679,9.223-7.47,2.076,6.516-.651,11.851-6.856,8.679-9.223,7.469"/>
        <path id="パス_7386" data-name="パス 7386" class="cls-5" d="M137.6,77.277c-1.544-1.16-2.117-1.659-2.3-2.5s-.837-2.809-1.252-3.988-1.1-1.563-1.657-1.159-.035,1.3.108,3.1-.49,1.081-1.454.871-5.007-2.345-6.083-2.5-2.324-.526-2.647.383,1.657,1.158,1.894,1.832-.5.8-1.388,1.434-.322,1.022.37,1.914.973.774.989,1.734.3,1.068,1.1,1.45,3.166.23,5.2.252,3.278.172,4.485,1.507a4.492,4.492,0,0,0,.372.347c1.2-1.252,2.515-2.429,3.794-3.711-.742-.447-1.284-.788-1.527-.971"/>
        <path id="パス_7387" data-name="パス 7387" class="cls-5" d="M210.244,47.33c.187.033,2.6.661,2.843.679a19.5,19.5,0,0,0,.186,2.589c.141.555,1.305,3.8,1.493,4.1-3.153,1.989-6.877.983-8.3-1.586a11.857,11.857,0,0,0,2.922-3.657c.288-.717.8-1.845.852-2.125"/>
        <path id="パス_7388" data-name="パス 7388" class="cls-5" d="M224.13,45.57c.532-1.351,7.31-10.908,7.772-12.271s.6-1.338-.4-3.4-6.372-11.63-6.5-12.954a2.8,2.8,0,0,0-1.514-2.441c-.618-.183-1.728-3.058-1.726-5.082s.423-2.962,1.334-.99,1.181,2.887,1.5,1.318a16.6,16.6,0,0,1,1.436-4.37c.5-.778,2.294-3.313,1.932-1.5s-1.112,4.176-.29,3.022,1.5-1.936,1.749-2.289.741-.3.571.644-.191,1.268.269,1.929.838.367.3,1.934-1.419,4.482-1.545,5.182a3.963,3.963,0,0,0,.9,3.417c1.174,1.512,7.465,10.777,8.212,11.851s1.5,1.318,1.081,3.846-5.8,14.794-6.352,15.636-8.738-3.486-8.738-3.486"/>
        <path id="パス_7389" data-name="パス 7389" class="cls-5" d="M190.586,44.318c-.462-.047-.872.024-1.062-1.131s-.9-11.877-.472-13.679.481-2.481,1.9-3.96S203.568,14.11,204.4,13.283A8.336,8.336,0,0,0,206.276,9.5c.274-1.325,1.048-5.633,1.247-6.139s.224-1.045.634-1.116.031-.573.6-.542.762.39,1.161-.226.36-1.6.914-1.462.54.82.513,1.574-.1,2.152-.186,2.642.376,1.333.835.584.616-2.42.86-2.774.909-.632.9.233-1.326,4.969-1.5,5.914.5,1.031,1.1.523,1.42-1.263,1.707-.85-.677,1.758-1.093,2.262a24.317,24.317,0,0,1-2.192,2.138c-.508.414-1.161.225-1.8.544s-5.567,5.834-6.2,6.517-5.994,7.2-6.658,7.879a3.006,3.006,0,0,0-.93,2.364c-.134,1.349.833,10.056.877,11.221a11.585,11.585,0,0,1,.107,2.224c-.12.666-6.6,1.31-6.6,1.31"/>
        <path id="パス_7390" data-name="パス 7390" class="cls-7" d="M197.706,40.1a20.538,20.538,0,0,0,2.835,7.162c1.29,1.678,4.34,4.828,6.136,5.3.887,1.1,5.911,1.712,7.583.855s2.754-1.24,4.062-2.886,5.337-7.574,5.718-8.084.451-.5,1.344.169,7.739,5.223,8.3,6.119.327,1-.282,1.974-4.188,9.227-4.89,11.125-4.112,15.243-4.75,17.587-1.1,12.963-1.172,14.179.5,2.042-1.441,1.983-16.892-1.371-18.63-1.755-10-2.3-11.183-2.153-2.222-.11-1.566-2.957,1.891-14.556,2.306-16.868-.123-12.6-1.128-15.46-3.552-11.63-3.821-12.546,1.76-1.347,3.109-1.61,6.258-2.637,7.469-2.13"/>
        <path id="パス_7391" data-name="パス 7391" class="cls-5" d="M216,47.971a6.047,6.047,0,0,1-10.613-2c-2.037-5.125-.024-15.421,8.116-13.885s6.262,11.857,2.5,15.888"/>
        <path id="パス_7392" data-name="パス 7392" class="cls-7" d="M212.753,29.384a3.023,3.023,0,0,1,4.313.376c1.308,1.589,3.426,1.332,4.542,2.648s1.524,3.938,2.01,5.22,1.859,2.962.922,4.626-5.321,3.9-6.443,3.94-.2-1.549-.486-4.388-.749-6.029-3.109-7.966-2.465-1.8-3.712-1.065-3.585,2.224-4.5,4.687-.852,5.183-1.5,5.7-2.981.181-4.118-.581-1.573-1-.532-2.8,2.971-4.564,3.388-6a9.507,9.507,0,0,1,3.51-4.467c1.324-.718,3.382-2.419,5.722.072"/>
        <path id="パス_7393" data-name="パス 7393" class="cls-5" d="M231.162,55.727c.227.024,2.505.176,2.792.178a23.632,23.632,0,0,0,.451,3.087,28.711,28.711,0,0,0,1.29,3.29c-.6.8-6.469.154-7.518-.788.629-.249,1.93-2.264,2.195-3.154s.754-2.273.79-2.613"/>
        <path id="パス_7394" data-name="パス 7394" class="cls-5" d="M248.962,53.848c1.19-2.171,20.227-31.876,20.724-33.083a10.587,10.587,0,0,0,.386-5.811c-.549-1.835.342-3.964.981-3.008a18.62,18.62,0,0,1,1.425,2.668c.486,1.013,1.01,1.661,1.746-.41s1.529-3.987,1.922-4.909,2.116-2.519,1.754-.483-1.728,5.892.013,3.409,4.289-4.884,3.242-1.957-2.451,5-.551,3.127,3.97-2.546,2.318-.2-3.626,4.212-1.768,3.444,3.743-1.089,2.013.581a55.275,55.275,0,0,1-8.495,6.146c-1.557.726-2.159,2.218-3.375,3.942s-14.319,27.089-15.185,29-6.665-1.439-7.15-2.453"/>
        <path id="パス_7395" data-name="パス 7395" class="cls-5" d="M212.915,69.18c-1.411.741-9,8.167-10.34,8.915s-1.322,2.01-1.952-1.167-2.01-10.506-2.041-11.62,1.934-2.908,2.107-3.853a2.572,2.572,0,0,0-.861-2.386c-.555-.354-1.054-1.962-1.2-2.718a1.6,1.6,0,0,0-2.032-1.1c-.852.355-1.573.872-2.371.714a2.349,2.349,0,0,0-2.186.364,8.211,8.211,0,0,1-1.464,1.253,2.44,2.44,0,0,0,.082,2.749,3.9,3.9,0,0,1,.977,2.695c-.034,1.033,1.955,1.834,2.943,2.308s.44,1.454.314,3.366.967,15.507,1.4,17.7,1.74,2.479,3.929,1.375,13.83-8.994,15.1-10.564-1.318-7.915-2.417-8.03"/>
        <path id="パス_7396" data-name="パス 7396" class="cls-8" d="M224.5,60.4c1.153-.4,3.8-.935,4.654.117s4.654,1.525,5.845.761,12.308-7.9,13.69-10.49c.32-.929,7.906,3.717,8.716,4.468s-1.621,3.46-2.673,5.72-3.923,4.921-4.14,10.527-.47,32.762-.512,33.868.579,1.542-1.545,1.32-10.684-.527-12.65-.141-8.506-.817-10.461-1.244-8.34-.281-9.3-.308-.911-1.206-.2-5.2,2.686-20.679,2.874-21.77-.347-.925-1.546-.088-3.6,2.585-4.337,2.508-3.389-8.65-4.1-9.614-.625-1.1.03-1.7S223.051,60.1,224.5,60.4"/>
        <path id="パス_7397" data-name="パス 7397" class="cls-5" d="M226.291,47.963c.262.042.5.318.686.613.674-4.331,3.375-8.438,8.552-7.306s5.918,5.989,4.724,10.207a1.221,1.221,0,0,1,.88-.271c.324.09.868.572.183,1.607a3.287,3.287,0,0,1-2.085,1.271,10.854,10.854,0,0,1-1.811,2.6,5.711,5.711,0,0,1-10.038-2.193,10.86,10.86,0,0,1-.563-3.114,3.289,3.289,0,0,1-1.365-2.026c-.191-1.226.505-1.437.837-1.384"/>
        <path id="パス_7398" data-name="パス 7398" class="cls-7" d="M240.85,39.277a8.867,8.867,0,0,0-6.9-1.442c-2.532.565-3.384,1.125-4.042,2.184s-1.732.559-2.527,1.365-1.222,1.966-.416,2.761,2.55.957,4.2.39,2.663-1.112,3.981-.669,1.31,1.4,1.95,2.261,1.3.321,2.644.525.182,3.777.116,4.49,1.924-.341,3.42-1.8,1.27-4.2.863-5.839a8.769,8.769,0,0,0-3.287-4.225"/>
        <path id="パス_7399" data-name="パス 7399" class="cls-7" d="M247.924,35.455c-.769-1.191-1.048-2.5-2.577-2.4s-3.288.094-4.027,2.025-.557,4.267.257,4.983,1.438,1.733,3.009,2.039,1.8.408,3-1.32.99-4.627.335-5.328"/>
        <path id="パス_7400" data-name="パス 7400" class="cls-5" d="M159.222,61.575c.28-.019,3.969.012,4.316-.047.182.62-.168,5.57.334,6.251,3.1,4.2,10.509,9.994,9.94,11.971-.406.7-21.608,1.938-21.386-3.636.082-2.064,3.265-4.049,5.489-8.127a11.1,11.1,0,0,0,1.307-6.412"/>
        <path id="パス_7401" data-name="パス 7401" class="cls-7" d="M172.481,50.927a22.693,22.693,0,0,1,1.959-3.71,5.584,5.584,0,0,1,2.693-1.975c1.812-.437,2.759-.374,3.723.158a6.811,6.811,0,0,1,2.232,4.451,3.834,3.834,0,0,0,2.832,3.154c1.427.573,3.853.07,3.614,1.113-.7,3.054-2.354,3.588-4.142,3.381-5.758-.667-2.832-6.079-6.358-6.658s-3.787-.077-6.553.086"/>
        <path id="パス_7402" data-name="パス 7402" class="cls-5" d="M167.533,62.9a8.581,8.581,0,0,1-7.626,2.96,12.232,12.232,0,0,1-6.037-3.142,10.671,10.671,0,0,1-2.223-4.623,6.43,6.43,0,0,1,.309-2.582c.647-1.98-.846-2.232,1.463-6.038.7-1.156,4.653-6.321,10.9-5.455,5.489.761,8.084,13.62,3.217,18.88"/>
        <path id="パス_7403" data-name="パス 7403" class="cls-7" d="M153.345,47.156a6.478,6.478,0,0,1,4.126-3.108c2.524-.505,2.841-2.184,5.481-2.178a14.033,14.033,0,0,1,8.081,2.463c2.344,2.075,3.041,3.625,3.112,5.331s-.412,11.453-9.328,15.387c-1.425.628-2.4.544-2.36-2.374.88-1.822,2.541-3.852,2.3-4.694s-1.462-.8-2.194-.419c-1.843.96-1.437.357-2.37-2.289-1.137-3.226-8.845-3.348-6.852-8.119"/>
        <path id="パス_7404" data-name="パス 7404" class="cls-9" d="M180.371,120.6c-.85-5.948-.8-6.363-1.339-10.156-.439-3.069-1.929-10.709-2.582-15.936-.713-5.7-.285-14.115-4.955-20.31-3.094-4.1-3.054-4.915-5.97-5.6-1.872-.442-3.261,4.384-6.826,6.452-3.666,2.126-5.57-1.179-6.416.214-2.709,5.2-2.388,10.606-4.063,15.113-3.558,9.575-4.055,24.957-4.206,25.949-.626,4.117,36.571,5.774,36.357,4.277"/>
        <path id="パス_7405" data-name="パス 7405" class="cls-5" d="M165.882,72.264c2.619.267,3.567.825,4.473,5.231a59.475,59.475,0,0,1-.218,10.867c-.36,1.957-4.1,16.6-4.132,17.608a45.175,45.175,0,0,1-1.612,7.183c-.353.635-.967,2.153-1.752,2.175s-1.58,1.287-1.95,1.525a1.494,1.494,0,0,1-1.722-.564,1.894,1.894,0,0,0-2.08-.5c-.72.213-1.534.507-1.647-.383s1.944-3.738,2.52-4.4,1.8-1.81.435-1.776-2.776.021-1.944-.536,3.841-1.927,4.345-2.2a2.526,2.526,0,0,0,1.787-2.207c.161-1.619.413-10.942.47-11.731s-.541-12.975-.822-14.05c-.663-2.522,1.274-6.5,3.849-6.24"/>
        <path id="パス_7406" data-name="パス 7406" class="cls-6" d="M168.217,128.641c-1.151.811-1.391-1.359-.5-4.845L182.843,64.54c.89-3.486,2.363-6.148,3.249-5.922l2.7.69c.785.2.752,2.946-.055,6.106l-13.712,53.714c-.806,3.16-2.28,6.319-3.3,7.038Z"/>
        <path id="パス_7407" data-name="パス 7407" class="cls-9" d="M164.029,69.842c2.38-1.854,3.1-4.766,6.22-4.08s5.326.831,6.91-1.155a6.943,6.943,0,0,0,1.538-5.083c-.311-2.169.513-1.316,2.064-.3s4.53,1.078,2.331,2.69-3.421,4.759-6.15,5.691-6.677.149-7.849-.115-3.975,2.03-5.064,2.348"/>
        <path id="パス_7408" data-name="パス 7408" class="cls-9" d="M163.794,69.713c.359-.514,3.243-1.492,5.678-.33s3.307,3.09,7.071,1.847,5.238-2.643,7.462-1.45,2.768.845,1.885,2.214-.873,4.825-1.964,2.875-2.316-3.34-4.622-2.469-4.512,2.809-6.7,1.125-3.505-4.466-8.812-3.812"/>
        <path id="パス_7409" data-name="パス 7409" class="cls-9" d="M120.542,42.94l-2.808-.989c-.841-.3-2.478.683-2.478.683-4.061,2.465-13.742,12.817-24.137,26.052-6.082,7.743-11.3,15.059-14.9,20.746,2.1,1.5,4.143,3.114,6.143,4.765l38.862-49.475c.521-.663.208-1.467-.685-1.782"/>
        <path id="パス_7410" data-name="パス 7410" class="cls-10" d="M120.693,45.077l-1.268.4a9.881,9.881,0,0,0-1.645,1.438C114.632,50.21,105.617,61.164,95.222,74.4c-5.5,7-10.472,13.479-14.311,18.61q.822.664,1.635,1.339l37.937-48.3c.521-.664.613-1.1.21-.972"/>
        <path id="パス_7411" data-name="パス 7411" class="cls-11" d="M271.314,72l-3.738-4.812c-1.119-1.44-3.7-1.724-3.7-1.724-6.4-.651-22.819,5.044-40.987,14.589-22.146,11.634-38.5,24.576-36.524,28.9a2.01,2.01,0,0,0,1.057.971l1.695,5.252c.594,1.842,1.832,2.977,2.744,2.5L271.83,75.664c.912-.479.672-2.139-.516-3.668"/>
        <path id="パス_7412" data-name="パス 7412" class="cls-10" d="M290.064,95.3c-.231-11.874-9.357-21.5-20.47-21.5h-.925Q263.12,75.511,256.791,77c-1.315.311-2.659.6-4.025.9-.007.008-.007.008-.015.008-1.322.279-2.658.558-4.017.83l-.253.046c-1.315.256-2.644.512-3.988.752-.137.024-.275.047-.419.07-1.315.241-2.652.466-4,.691-.174.03-.34.054-.513.085q-2.006.326-4.068.628c-.181.031-.369.055-.549.086-1.38.2-2.768.395-4.177.581l-.52.07c-1.423.186-2.854.364-4.306.535l-.4.047c-1.365.155-2.746.31-4.133.457l-.693.07q-2.049.221-4.14.4l-1.027.093c-1.329.125-2.673.233-4.024.342l-1.221.093c-1.315.1-2.645.186-3.982.279-.455.031-.91.054-1.365.085q-1.973.117-3.974.225l-1.417.07c-1.343.07-2.687.124-4.039.178-.462.023-.932.039-1.4.055-1.308.046-2.616.085-3.938.123-.094,0-.188,0-.289.008q-5.6.141-11.344.148c-36.258,0-68.8-4.429-91.063-11.448H86.2c-18.823,0-41.576,7.453-56.757,18.311a57.439,57.439,0,0,0-9.256,8.129l-5.325,5.917c-.506.567-.99,1.133-1.445,1.691-13.432,16.535-3.967,31,23.317,31H269.594a19.133,19.133,0,0,0,2.231-.134c10.226-1.2,18.254-10.572,18.254-21.854V95.781c0-.163,0-.326-.015-.481"/>
        <path id="パス_7413" data-name="パス 7413" class="cls-11" d="M56.56,120H9.344A7.487,7.487,0,0,0,2.4,125.76L.141,136.394c-.718,3.382,1.39,6.184,4.695,6.184H44.611A29.129,29.129,0,0,1,56.56,120"/>
        <path id="パス_7414" data-name="パス 7414" class="cls-11" d="M230.894,120H86a29.129,29.129,0,0,1,11.949,22.574h120.99A29.133,29.133,0,0,1,230.894,120"/>
        <path id="パス_7415" data-name="パス 7415" class="cls-11" d="M298.2,136.394l-4.517-10.635c-1.352-3.183-5.019-5.755-8.167-5.755H260.339a29.127,29.127,0,0,1,11.95,22.574h22.533c3.305,0,4.819-2.8,3.383-6.184"/>
        <path id="パス_7416" data-name="パス 7416" class="cls-6" d="M222.864,114.922a1.935,1.935,0,0,0-2.048-1.782H95.96a1.8,1.8,0,1,0,0,3.564H220.816a1.935,1.935,0,0,0,2.048-1.782"/>
        <path id="パス_7417" data-name="パス 7417" class="cls-6" d="M286.236,113.139h-23.31c-.21,0-.382.8-.382,1.782s.172,1.782.382,1.782h23.31c.209,0,.381-.8.381-1.782s-.172-1.782-.381-1.782"/>
        <path id="パス_7418" data-name="パス 7418" class="cls-12" d="M290.078,95.781v13.875a11.514,11.514,0,0,1-2.4.248c-5.173,0-9.357-3.327-9.357-7.422s4.184-7.43,9.357-7.43a11.38,11.38,0,0,1,2.385.248c.014.155.014.318.014.481"/>
        <path id="パス_7419" data-name="パス 7419" class="cls-6" d="M174.813,93.261a1.066,1.066,0,0,1-1.024,1.1h-5.608a1.066,1.066,0,0,1-1.024-1.1v-.772a1.067,1.067,0,0,1,1.024-1.1h5.608a1.067,1.067,0,0,1,1.024,1.1Z"/>
        <path id="パス_7420" data-name="パス 7420" class="cls-12" d="M29.9,110.292c-5.13,4.436-11.886,4.576-15.08.318a8.121,8.121,0,0,1-1.4-3.056c.455-.558.939-1.124,1.445-1.69l5.325-5.918a57.392,57.392,0,0,1,9.256-8.128,7.574,7.574,0,0,1,3.959,2.73c3.2,4.258,1.626,11.308-3.5,15.744"/>
        <path id="パス_7421" data-name="パス 7421" class="cls-7" d="M71.353,119.444A25.247,25.247,0,1,0,96.6,144.692a25.249,25.249,0,0,0-25.247-25.248"/>
        <path id="パス_7422" data-name="パス 7422" class="cls-13" d="M71.353,130.982a13.71,13.71,0,1,0,13.71,13.71,13.71,13.71,0,0,0-13.71-13.71"/>
        <path id="パス_7423" data-name="パス 7423" class="cls-7" d="M245.808,119.444a25.247,25.247,0,1,0,25.247,25.248,25.247,25.247,0,0,0-25.247-25.248"/>
        <path id="パス_7424" data-name="パス 7424" class="cls-13" d="M245.808,130.982a13.71,13.71,0,1,0,13.71,13.71,13.71,13.71,0,0,0-13.71-13.71"/>
      </g>
    </g>
    <g id="グループ_780" data-name="グループ 780" transform="translate(301.469 2272.694)">
      <g id="グループ_779" data-name="グループ 779" class="cls-14">
        <path id="パス_7425" data-name="パス 7425" class="cls-2" d="M54.484,23.811c2.644.115,3.42,1,3.459,3.863.011.77.155,1.539.238,2.308,1.8-3.279,1.141-6.138-1.207-7.341a5.618,5.618,0,0,0-7.625,2.214c-2.04,3.213-2.293,6.919,2.418,9.241a4.88,4.88,0,0,1,2.428,2.083,5.5,5.5,0,0,1-1.112,5.695c-1.439,1.616-3.4,1.593-5.339.979a3.741,3.741,0,0,1-2.978-3.983c.065-1.245-.362-1.907-2.253-2.025.149,1.162.222,2.018.374,2.859a6.982,6.982,0,0,0,9.229,5.033c3.238-1.294,3.581-4.117,3.8-6.948.208-2.678-.6-4.765-3.491-5.836-2.441-.9-3.048-2.385-2.5-4.463.665-2.522,2.225-3.78,4.559-3.679"/>
        <path id="パス_7426" data-name="パス 7426" class="cls-2" d="M20.106,16.655c-2.106,4.622-1.321,9.287.069,13.864a4.4,4.4,0,0,0,4.676,2.591c2.781-.736,4.5-4.455,3.509-7.448a28.611,28.611,0,0,1-2.318,4.24c-1.495,1.926-3.919,1.359-4.636-.991a13.154,13.154,0,0,1-.218-2.575c2.888.328,4.043-1.418,4.81-3.716a8.653,8.653,0,0,0-.215-6.271A3.544,3.544,0,0,0,23.6,14.642c-1.632-.4-2.82.538-3.492,2.013m3.223.02c.627.063,1.439,1,1.673,1.716.6,1.846-.154,3.557-1.169,5.072-.81,1.209-1.911.752-3.389.125a46.325,46.325,0,0,1,1-5.5,2.43,2.43,0,0,1,1.881-1.408"/>
        <path id="パス_7427" data-name="パス 7427" class="cls-2" d="M1.793,23.258C1.776,15.4,1.76,7.7,1.744,0l-.653.06A3.7,3.7,0,0,0,.838.924C.614,6.881.375,12.838.214,18.8c-.054,1.99-.623,4.519.35,5.836,1.1,1.487,3.621,2.024,5.613,2.725,2.612.92,5.3,1.714,8.138,1.339.473-1.66-.412-1.832-1.554-1.931A22.878,22.878,0,0,1,1.793,23.258"/>
        <path id="パス_7428" data-name="パス 7428" class="cls-2" d="M30.248,21.586l4.53,1.536c-.362,2.774-.691,5.335-1.032,7.894-.5,3.752-.285,6.087.79,7.753,1.732-2.521.582-5.326.98-7.919.4-2.626.728-5.263,1.093-7.943l3.567.4c.4-2.853-2.495-1.545-3.077-2.849-.687-1.435,1.2-3.176-.9-4.54-.378,1.63-.723,3.117-1.088,4.689l-4.6.009q-.13.486-.262.972"/>
        <path id="パス_7429" data-name="パス 7429" class="cls-2" d="M48.124,13.184a14.269,14.269,0,0,0-3.609,8.093c-.061.533.363,1.121.562,1.684,1.308-3.08,2.663-6,3.047-9.777"/>
        <path id="パス_7430" data-name="パス 7430" class="cls-2" d="M24.36,60.561c.237-2.086-.979-2.324-2.269-2.548-2.539-.442-5.064-.975-7.609-1.373a17.756,17.756,0,0,0-2.812-.018c-.235,4.219-.465,8.238-.679,12.258-.21,3.954-1.187,7.878-.847,12,4.332-1.517,8.175.722,12.8.42-3.216-3.606-7.8-1.455-11.054-4.19.21-2.459.442-5.19.7-8.177L21.4,70.7c-.1-.627-.057-1.308-.243-1.378-2.574-.966-5.179-1.848-8.306-2.934.223-2.533.445-5.059.685-7.8L24.36,60.561"/>
        <path id="パス_7431" data-name="パス 7431" class="cls-2" d="M62.7,101.373C68.732,96.164,71.537,89,74.317,81.841c.108-.277-.426-.8-.767-1.4-2.274,2.682-2.134,6.417-5.312,9-.448-3.151-.958-5.786-1.141-8.444-.089-1.289-.12-2.2-2.519-2.19.748,4.365,1.462,8.437,2.131,12.516.119.727.369,1.723.019,2.189a69.6,69.6,0,0,1-5.187,6.158c-.849.89-2.97,1.338-1.8,2.847,1.026,1.326,2.147-.435,2.965-1.141"/>
        <path id="パス_7432" data-name="パス 7432" class="cls-2" d="M54.484,90.622a4.3,4.3,0,0,0,2.755-2.056,32.96,32.96,0,0,0,1.214-5.879l-.19-.059a30.611,30.611,0,0,0-.245-4.36,3.689,3.689,0,0,0-2.973-3.3c-1.7-.278-2.716.867-3.5,2.153-2.342,3.817-1.724,7.781-.35,11.691a2.8,2.8,0,0,0,3.294,1.806m-.163-13.705c.216-.168.638-.072,1.109-.109A31.643,31.643,0,0,1,56.507,82a16.077,16.077,0,0,1-.652,5.261,1.81,1.81,0,0,1-3.236.279c-1.594-2.248-.555-8.872,1.7-10.627"/>
        <path id="パス_7433" data-name="パス 7433" class="cls-2" d="M36.323,95.611c4.363,3.572,5.772,2.92,7.254-2.1a5.554,5.554,0,0,0,.266-.977q.857-8.363,1.689-16.726l-.839-.09c-1.21,1.559-1.205,1.559-1.334,3.477-.22,3.26-.33,6.534-.71,9.776a12.485,12.485,0,0,1-2.731,7.163l-5.837-5.358c-.747,2.673,1.018,3.829,2.242,4.83"/>
        <path id="パス_7434" data-name="パス 7434" class="cls-2" d="M37.389,74.936a7.1,7.1,0,0,1,.133,3.9,31.851,31.851,0,0,1-1.877,4.787c1-.246,1.833-.205,2.032-.542a10.161,10.161,0,0,0,1.282-8.4c-1.183-3.76-4.161-4.429-7.06-1.792a8.077,8.077,0,0,1-1.114.711c-.15-2.639-.15-2.639-.936-4.062-1.009,2.931-1.178,10.2.009,13.344a40.361,40.361,0,0,1,1.122-3.939,21.825,21.825,0,0,1,2.179-4.476,2.315,2.315,0,0,1,4.23.473"/>
        <path id="パス_7435" data-name="パス 7435" class="cls-2" d="M90.418,96.279c.984-2.525,1.915-5.072,2.961-7.572,2.556-6.106,2.577-6.1,1.686-8.337a2.609,2.609,0,0,0-.823,1.333c-1.659,4.27-3.341,8.531-4.946,12.822-.159.423.152,1.021.245,1.538l.877.216"/>
        <path id="パス_7436" data-name="パス 7436" class="cls-2" d="M85.281,76.911c-.638,4.711-1.3,9.419-1.86,14.138-.039.324.681.738,1.179,1.242,1.143-3.959,2.011-13.532,1.457-15.27l-.776-.11"/>
        <path id="パス_7437" data-name="パス 7437" class="cls-2" d="M46.37,69.9a6.256,6.256,0,0,0-2.724-5.85c-.027,2.4.585,4.494,2.724,5.85"/>
        <path id="パス_7438" data-name="パス 7438" class="cls-2" d="M82.1,99.336c1.548-1.452,1.217-2.658.4-4.2-1.475,1.275-1.74,2.411-.4,4.2"/>
      </g>
    </g>
    <g id="グループ_783" data-name="グループ 783" transform="translate(0 233.371)">
      <path id="パス_7449" data-name="パス 7449" class="cls-15" d="M-2500.449,1938c-5.531,49.794,45.457,38.544,107.9,29.982s65.852-11.282,109.906-21.364,90.323-34.087,65.73-55.782-106.993,6.655-158.726,1.943S-2494.918,1888.21-2500.449,1938Z" transform="translate(-2026.853 3492.493) rotate(-169)"/>
      <g id="グループ_782" data-name="グループ 782" transform="translate(631.721 1975.089) rotate(21)">
        <g id="グループ_781" data-name="グループ 781" class="cls-16" transform="translate(0 0)">
          <path id="パス_7439" data-name="パス 7439" class="cls-13" d="M60.777,12.723a4.436,4.436,0,0,1-.221-.841,4.091,4.091,0,0,1,3.278-4.766,3.93,3.93,0,0,1,3.461,1.2c.037-.015.073-.034.11-.049a6.593,6.593,0,0,1-.324-1.23A5.982,5.982,0,0,1,71.874.071a5.757,5.757,0,0,1,5.208,1.908A5.025,5.025,0,0,1,80.018.434c2.484-.4,4.77.979,5.1,3.072a3.344,3.344,0,0,1-.232,1.838A4.768,4.768,0,0,1,89.8,9.283,4.8,4.8,0,0,1,85.728,14.7a5.018,5.018,0,0,1-.741.064,11.021,11.021,0,0,1-6.544,3.414,11.488,11.488,0,0,1-6.035-.6,7.738,7.738,0,0,1-4.079,1.924,7.642,7.642,0,0,1-4.755-.7,4.783,4.783,0,0,1-.747.182c-2.158.346-4.141-.841-4.431-2.647a3.473,3.473,0,0,1,2.381-3.62" transform="translate(45.735 8.729)"/>
          <path id="パス_7440" data-name="パス 7440" class="cls-13" d="M13.705,19.349a5.673,5.673,0,0,1-.547-1.123,6.266,6.266,0,0,1,4.111-7.832,6.633,6.633,0,0,1,5.962.709A6.065,6.065,0,0,1,26.18,8.954c2.639-.936,5.343-.1,6.037,1.861a3.019,3.019,0,0,1,.037,1.838c2.6-.6,5.18.537,5.962,2.746.852,2.405-.749,5.167-3.575,6.166a6.252,6.252,0,0,1-.8.227,13.337,13.337,0,0,1-6.574,4.762,13.566,13.566,0,0,1-7.718.541,8.414,8.414,0,0,1-1.144.5c-3.351,1.185-6.775.139-7.651-2.336-.734-2.069.548-4.483,2.946-5.912" transform="translate(1.365 35.543)"/>
          <path id="パス_7441" data-name="パス 7441" class="cls-17" d="M82.06,24.176a110.13,110.13,0,0,0-6.8,10.56c-4.126,7.205-10.7,6.8-15.232,6.593-5.255,11.252-1.692,19.392,5.9,26.323l20.666-7.576a17.882,17.882,0,0,0,8.429-7.271A21.417,21.417,0,0,0,98.536,41.8L98.825,23.3a21.918,21.918,0,0,0-8.2,3.793c-1.66.829-5.026-1.752-8.562-2.92" transform="translate(50.166 20.32)"/>
          <path id="パス_7442" data-name="パス 7442" class="cls-8" d="M89.611,18.385a54.385,54.385,0,0,0-7.79,1.272c-4.61,1.492-7.118,4.117-11.185,8.165,4.106,1,8.014,3.2,9.939,2.494a30.468,30.468,0,0,1,9.526-3.24l-.491-8.334Z" transform="matrix(0.996, -0.087, 0.087, 0.996, 56.523, 26.06)"/>
          <path id="パス_7448" data-name="パス 7448" class="cls-8" d="M90.308,17A31.676,31.676,0,0,0,84,19.136c-4.61,2.028-9.3,7.07-13.365,12.573,4.106,1.356,8.014,4.353,9.939,3.391A25.472,25.472,0,0,1,90.1,30.7l.206-13.208Z" transform="translate(91.169 -22.389) rotate(30)"/>
          <path id="パス_7443" data-name="パス 7443" class="cls-8" d="M63.74,34.064c1.612,0,4.835,4.835,8.061,3.224.932-.932,1.327-2.941,2.117-4.47-4.865-2.581-8.587-4.13-12.548-6.168C54.165,22.957,52.525,24.6,49.652,28.1a68.7,68.7,0,0,0-3.808,5.8c6.342,2.207,10.91-1.23,17.9.167" transform="translate(39.974 21.412)"/>
          <path id="パス_7444" data-name="パス 7444" class="cls-18" d="M106.444,38.243A147.674,147.674,0,0,0,91.41,28.969c-.79,1.529-1.185,3.538-2.117,4.47-3.224,1.612-6.449-3.224-8.061-3.224-6.986-1.4-11.554,2.04-17.9-.167C58.317,38.233,50.511,52,48.815,55.523c-2.256,4.74-18.521,22.632-23.034,28.613a6.783,6.783,0,0,0,1.79,2.821L40.306,82.28l73.972-27.145a17.888,17.888,0,0,0,8.429-7.269c-3.336-2.6-8.076-3.967-16.264-9.624" transform="translate(22.48 25.259)"/>
          <path id="パス_7445" data-name="パス 7445" class="cls-8" d="M29.428,52.466c1.612,1.612,1.612,3.224,3.224,4.835,2.917.973,5.826-.406,7.681-2.711-1.116-1.191-2.31-2.424-3.731-3.8-6.8-6.593-13.381-5.767-19.553-1.453a37.573,37.573,0,0,0-5.8,6.116,17.721,17.721,0,0,1,2.063,3.461c6.447,3.224,9.672-9.672,16.119-6.449" transform="translate(9.806 40.084)"/>
          <path id="パス_7446" data-name="パス 7446" class="cls-17" d="M50.14,51.808c-1.855,2.3-4.764,3.684-7.681,2.712-1.612-1.614-1.612-3.225-3.224-4.837-6.449-3.224-9.672,9.672-16.119,6.449a17.814,17.814,0,0,0-2.063-3.461C14.448,60.752,5.116,74.269,0,81.712a1.624,1.624,0,0,0,.258.324c2.289,2.546,5.869,3.433,9.817,1.982L62.785,64.674A180.3,180.3,0,0,1,50.14,51.808" transform="translate(0 42.866)"/>
        </g>
      </g>
      <path id="パス_7447" data-name="パス 7447" class="cls-17" d="M67.7,44.432c-2.5-3.111-6.433-4.974-10.37-3.662-2.176,2.179-2.176,4.355-4.352,6.531-8.707,4.352-13.06-13.06-21.765-8.707a24.053,24.053,0,0,1-2.785,4.673C19.508,32.356,6.908,14.1,0,4.055a2.192,2.192,0,0,1,.349-.437C3.44.18,8.273-1.018,13.6.941l71.17,26.12A243.448,243.448,0,0,0,67.7,44.432" transform="translate(805 2094.167) rotate(159)"/>
    </g>
  </g>
</svg>
