<svg xmlns="http://www.w3.org/2000/svg" xmlns:xlink="http://www.w3.org/1999/xlink" width="394.288" height="331.497" viewBox="0 0 394.288 331.497">
  <defs>
    <style>
      .cls-1 {
        fill: none;
        stroke: #000;
      }

      .cls-2, .cls-6 {
        fill: #fce952;
      }

      .cls-3 {
        fill: #edbc32;
      }

      .cls-4 {
        fill: #739f66;
      }

      .cls-4, .cls-5, .cls-6, .cls-7, .cls-8 {
        fill-rule: evenodd;
      }

      .cls-5 {
        fill: #fff;
      }

      .cls-7 {
        fill: #a4cced;
      }

      .cls-10, .cls-8 {
        fill: #282828;
      }

      .cls-9 {
        fill: #306e1d;
      }

      .cls-11 {
        clip-path: url(#clip-path);
      }
    </style>
    <clipPath id="clip-path">
      <rect id="長方形_673" data-name="長方形 673" class="cls-1" width="106.991" height="42.972"/>
    </clipPath>
  </defs>
  <g id="グループ_1001" data-name="グループ 1001" transform="translate(1729.144 -2705.279)">
    <path id="パス_6522" data-name="パス 6522" class="cls-2" d="M104.636,227.127a790.639,790.639,0,0,0-92.069,16.416q4.016-14.561,8.531-29.1Q10.782,202.7,0,191.2a844.32,844.32,0,0,1,98.337-17.533q3.15,26.731,6.3,53.464" transform="translate(-1729.144 2678.501)"/>
    <path id="パス_6523" data-name="パス 6523" class="cls-3" d="M104.636,227.127Q77.829,216.972,49.509,208.7q-4.863-26.475-9.727-52.948,30.012,7.929,58.555,17.908,3.15,26.731,6.3,53.464" transform="translate(-1729.144 2678.501)"/>
    <path id="パス_6524" data-name="パス 6524" class="cls-2" d="M289.652,227.127a790.639,790.639,0,0,1,92.069,16.416q-4.016-14.561-8.531-29.1,10.314-11.75,21.1-23.249a844.319,844.319,0,0,0-98.337-17.533q-3.15,26.731-6.3,53.464" transform="translate(-1729.144 2678.501)"/>
    <path id="パス_6525" data-name="パス 6525" class="cls-3" d="M289.652,227.127q26.807-10.155,55.127-18.424l9.726-52.948q-30.011,7.929-58.554,17.908-3.15,26.731-6.3,53.464" transform="translate(-1729.144 2678.501)"/>
    <path id="パス_6526" data-name="パス 6526" class="cls-2" d="M344.779,208.7a817.133,817.133,0,0,0-295.269,0q-4.863-26.474-9.727-52.948a870.94,870.94,0,0,1,314.723,0q-4.865,26.474-9.727,52.948" transform="translate(-1729.144 2678.501)"/>
    <path id="パス_6545" data-name="パス 6545" class="cls-4" d="M162.638,323.014c-8.717,4.116-14.248,9.391-20.822,14.287-1.721-7.637-.68-15.745-.745-23.347,8.123.791,15.358,5.609,21.567,9.06" transform="translate(-1729.144 2678.501)"/>
    <path id="パス_6546" data-name="パス 6546" class="cls-5" d="M174.916,328.687c7.913,2.182,15.626,4.773,24.822,4.265-5.769,7.355-12.129,14.495-17.819,21.878-3.619-7.185-3.389-16.785-7-26.143" transform="translate(-1729.144 2678.501)"/>
    <path id="パス_6547" data-name="パス 6547" class="cls-6" d="M214.932,332.51c7.009-.779,16.274-5.3,23.853-8.4a119.384,119.384,0,0,1-4.4,14.124c-1.662,4.575-3.065,9.226-4.822,13.8-4.513-7.28-9.638-13.263-14.631-19.522" transform="translate(-1729.144 2678.501)"/>
    <path id="パス_6548" data-name="パス 6548" class="cls-7" d="M275.561,315.131c-.979,8.3-.955,16.973-2.923,24.917-7.752-6.468-15.348-13.255-22.9-20.145,3.111-2.028,6.8-1.757,10.365-2.546,5.592-1.244,10.648-3.093,15.459-2.226" transform="translate(-1729.144 2678.501)"/>
    <path id="パス_6549" data-name="パス 6549" class="cls-8" d="M295.325,318.578c-9.587-3.722-19.119-6.913-31.194-4.369-1.954.412-12.6,3.059-13.75,3.533-7.59,3.115-26.761,11-28.681,11.6-5.285,1.638-11.721,1.645-17.024,1.826-5.765.2-11.495.358-16.478-.539-10.436-1.877-34.447-14.142-38.2-15.809-2.348-1.043-5.549-2.511-8.095-2.611a93.428,93.428,0,0,0-10.231,1.058c-5.7,1.382-10.592,4.478-15.233,6.239-7.546,2.858-15.478,2.969-20.03-1.664-.914-.931-.783-2.1-2.953-2.786,2.013,6.428,8.524,8.58,14.8,8.135,10.227-.727,21.358-9.945,31.3-8.927-.574,3.78-.973,21.486.726,26.245,7.91-5.719,14.666-11.86,24.571-16.851,2.118,2.112,6.278,2.254,8.066,4.306.628.719,5.7,26.455,8.127,30.315,2.533-1.349,16.3-19.174,21.893-25.521,3.028.455,6.638-.32,9.815-.181a190.968,190.968,0,0,1,13.432,17.547c1.427,2.137,2.482,5.078,4.635,5.794,1.131-3.578,8.138-25.412,10.541-32.739a47.192,47.192,0,0,0,6.488-2.591c6.571,5.521,23.549,21.24,26.365,22.263,2.058-8.709,2.244-19.008,3.372-27.486a40.893,40.893,0,0,1,20.031,6.96c1.752,1.14,3.616,3.3,6.026,2.881-.976-2.453-8.258-7.018-8.326-6.624M141.816,337.3c-1.72-7.637-.68-15.746-.744-23.347,8.123.791,15.357,5.609,21.566,9.06-8.717,4.116-14.248,9.391-20.822,14.287m40.1,17.53c-3.619-7.185-3.389-16.785-7-26.143,7.913,2.182,15.626,4.773,24.822,4.264-5.769,7.356-12.129,14.495-17.819,21.879m52.467-16.594c-1.662,4.574-3.065,9.225-4.822,13.8-4.513-7.28-9.638-13.263-14.631-19.522,7.009-.779,16.274-5.3,23.852-8.4a119.266,119.266,0,0,1-4.4,14.125m38.253,1.811c-7.752-6.468-15.349-13.255-22.9-20.145,3.111-2.028,6.8-1.757,10.364-2.546,5.592-1.245,10.649-3.093,15.46-2.226-.979,8.3-.955,16.972-2.923,24.917" transform="translate(-1729.144 2678.501)"/>
    <path id="パス_6550" data-name="パス 6550" class="cls-8" d="M61.211,301.494c3.226.158,2.567,4.2,4.349,5.8,2.959-.9,2.5-5.228,6.279-5.313-4.678,6.541-3.981,13.875,1.932,18.354-1.834,1.235-3.754-.876-5.8-.965-3.653,2.227.006,9.134-4.83,9.659-1.072-2.792-1.023-6.7-.965-10.626-2.428-.317-3.9.608-5.314,0,.788-3.4,3.982-4.393,5.314-7.245-.959-2.582-1.064-6.022-.969-9.66" transform="translate(-1729.144 2678.501)"/>
    <path id="パス_6551" data-name="パス 6551" class="cls-8" d="M331.142,303.655c.867-.062,1.02.59,1.934.483-.321,1.773-.514,3.671-.966,5.313,1.213,2.522,2.8.4,5.311.483-.166,2.734-2.945,2.85-4.345,4.347-.676,3.262,1.419,6.295,0,8.7-2.383.129-1.659-2.851-2.9-3.864-3.168,1.017-3.453,4.919-6.28,6.277-1.9-2.084.653-4.574,1.449-6.761-.275-2.462-3.86-1.614-3.863-4.347,6.064-.7,8.449-5.073,9.658-10.626" transform="translate(-1729.144 2678.501)"/>
    <path id="パス_8632" data-name="パス 8632" class="cls-9" d="M-130.853-3.8c2.432.456,5.814,1.026,5.814,1.026l2.28-5.472c4.56-.076,7.79-.114,7.79-.114.95,2.318,2.128,5.89,2.128,5.89,1.786,0,7.144-.494,7.144-.494-2.356-5.016-8.892-17.328-13.224-24.434C-123.025-19.988-123.329-20.026-130.853-3.8Zm9.272-9.956,2.356-5.586s1.558,3.04,2.622,5.434A47.128,47.128,0,0,1-121.581-13.756Zm32.034-6.8c-2.812-.076-5.852,1.33-6.574,4.142l.608-10.64h-5.852c.038,5.434.228,24.7.228,24.7l4.066-.038.684-3.458a7.631,7.631,0,0,0,6.156,3.458c3.534.228,8.246-2.052,8.7-8.892A8.468,8.468,0,0,0-89.547-20.558Zm-1.1,13.034a3.927,3.927,0,0,1-3.8-4.18,3.747,3.747,0,0,1,3.534-3.838,3.641,3.641,0,0,1,3.876,3.762C-86.963-8.854-88.711-7.372-90.649-7.524ZM-67.127-20.9c-6.764.038-9.766,5.054-9.5,9.386.152,6.042,3.8,9.69,9.918,9.5,5.016-.152,8.36-4.75,8.17-9.842C-58.653-14.9-60.249-20.938-67.127-20.9Zm2.926,9.5c-.114,2.47-1.6,4.18-3.572,4.142-2.356-.076-3.724-1.862-3.648-4.826a3.715,3.715,0,0,1,4.256-3.952C-65.265-15.656-64.087-14.25-64.2-11.4Zm17.822,9.082a7.612,7.612,0,0,0,6-3.23c0,.38-.418,3.192-.418,3.192l4.9.038c.076-.95-.076-17.784-.076-17.784l-5.358.114c.912,10.184-2.2,12.35-3.838,12.274-4.75.228-3.382-7.03-3-12.388l-5.434-.114C-55.081-5.738-51.091-2.28-46.379-2.318Zm25.27-.152c3.382.456,5.852-1.444,7.524-4.332l-2.85-3.686c-.38,1.254-1.634,3.23-3.5,2.926-1.824-.3-1.672-1.482-1.444-8.474,1.482.076,4.788-.228,4.788-.228l.038-3.914-4.37-.038.19-4.6-5.13-.38-.076,4.9-4.522-.038.152,3.99c1.71.19,3.61.608,3.61.608C-26.847-10.526-27.379-3.306-21.109-2.47ZM5-2.888l6.688-.076-.342-8.74c.76,0,9.158.532,9.158.532l.076-5.586c-3.724.038-9.158.38-9.158.38l-.228-5.434c2.584.076,5.206.342,10.374.3l.114-5.016c-6.536.3-16.644.532-16.644.532C5.149-20.862,5.073-13.452,5-2.888ZM41.515-25.612a68.124,68.124,0,0,1,.95,10.108c0,4.6-1.026,7.486-3.5,7.714-2.508.266-4.56-1.52-4.826-6.194a107.742,107.742,0,0,1,.532-12.084l-5.966.038c-.076,3.23-.152,8.094.152,11.59C29.431-7.41,32.585-2.812,38.7-3c5.472-.19,9.044-3.23,9.652-10.944a70.126,70.126,0,0,0-.342-11.932Zm26.41,0a68.123,68.123,0,0,1,.95,10.108c0,4.6-1.026,7.486-3.5,7.714-2.508.266-4.56-1.52-4.826-6.194a107.742,107.742,0,0,1,.532-12.084l-5.966.038c-.076,3.23-.152,8.094.152,11.59C55.841-7.41,59-2.812,65.113-3c5.472-.19,9.044-3.23,9.652-10.944a70.125,70.125,0,0,0-.342-11.932ZM92.359-15.58c3.99-2.432,8.512-4.864,8.512-4.864l-3.23-5.472c-3.306,2.812-9.728,7.9-9.728,7.9v-8.322l-6.042.152C81.909-21.774,81.8-3,81.8-3l6.308.076c-.152-2.28-.418-7.448-.418-7.448l1.862-1.064c.722,1.14,7.79,9.31,7.79,9.31L101.973-5.7C98.249-9.234,92.359-15.58,92.359-15.58Zm12.5,11.78c2.432.456,5.814,1.026,5.814,1.026l2.28-5.472c4.56-.076,7.79-.114,7.79-.114.95,2.318,2.128,5.89,2.128,5.89,1.786,0,7.144-.494,7.144-.494-2.356-5.016-8.892-17.328-13.224-24.434C112.689-19.988,112.385-20.026,104.861-3.8Zm9.272-9.956,2.356-5.586s1.558,3.04,2.622,5.434A47.128,47.128,0,0,1,114.133-13.756Z" transform="translate(-1532 2863.599)"/>
    <path id="パス_8630" data-name="パス 8630" class="cls-9" d="M23.472-18.324a2.022,2.022,0,0,1,1.584-.144A1.977,1.977,0,0,1,26.28-17.46q.4.72,1.188,2.232a1.931,1.931,0,0,1,.072,1.548A1.977,1.977,0,0,1,26.5-12.528a2.023,2.023,0,0,1-1.584.072A2.117,2.117,0,0,1,23.724-13.5q-.18-.324-1.152-2.124a1.851,1.851,0,0,1-.144-1.512,1.975,1.975,0,0,1,1.008-1.188Zm6.012,3.744q-.18-.36-.576-1.116T28.3-16.812a1.978,1.978,0,0,1-.162-1.548,1.794,1.794,0,0,1,.99-1.188l.108-.036a2.079,2.079,0,0,1,1.584-.162,1.914,1.914,0,0,1,1.224.99q1.188,2.268,1.224,2.34a1.892,1.892,0,0,1,.126,1.548,1.911,1.911,0,0,1-1.026,1.152l-.108.072a2.025,2.025,0,0,1-1.566.09A2.043,2.043,0,0,1,29.484-14.58ZM28.44-24.732a1.97,1.97,0,0,1-.612,1.44,1.97,1.97,0,0,1-1.44.612H9.252a1.97,1.97,0,0,1-1.44-.612,1.97,1.97,0,0,1-.612-1.44v-.108a1.97,1.97,0,0,1,.612-1.44,1.97,1.97,0,0,1,1.44-.612H26.388a1.97,1.97,0,0,1,1.44.612,1.97,1.97,0,0,1,.612,1.44ZM17.748,1.692q-6.444,0-10.116-2.16T3.96-6.228q0-3.348,4.14-7.74a2.061,2.061,0,0,1,1.476-.7,2.253,2.253,0,0,1,1.584.486l.252.18a1.652,1.652,0,0,1,.7,1.3,1.8,1.8,0,0,1-.486,1.4Q8.892-8.388,8.892-6.732q0,1.872,2.3,2.988a15.405,15.405,0,0,0,6.552,1.116A47.851,47.851,0,0,0,27.756-3.816a1.959,1.959,0,0,1,1.53.27A1.809,1.809,0,0,1,30.132-2.3l.072.288a2.064,2.064,0,0,1-.27,1.566,1.922,1.922,0,0,1-1.278.918A54.373,54.373,0,0,1,17.748,1.692Zm30.888-.18-.072-.144a1.721,1.721,0,0,1,0-1.458,1.732,1.732,0,0,1,1.08-.99,54.254,54.254,0,0,0,9.072-3.708.122.122,0,0,0,.036-.09q0-.054-.072-.054H50.76a1.839,1.839,0,0,1-1.35-.558,1.839,1.839,0,0,1-.558-1.35,1.839,1.839,0,0,1,.558-1.35,1.839,1.839,0,0,1,1.35-.558H52.6a2.027,2.027,0,0,1-1.1-.486,2.1,2.1,0,0,1-.666-1.026,1.414,1.414,0,0,1,.162-1.26,1.386,1.386,0,0,1,1.062-.648,59.335,59.335,0,0,0,7.884-1.3.122.122,0,0,0,.036-.09q0-.054-.036-.054-.324-.072-1.062-.252t-1.134-.252a.235.235,0,0,0-.288.072,1.542,1.542,0,0,1-1.764.18l-1.26-.648a1.186,1.186,0,0,1-.7-1.026,1.337,1.337,0,0,1,.486-1.17q1.3-1.08,1.872-1.62.18-.18-.108-.18H50.8a1.839,1.839,0,0,1-1.35-.558,1.839,1.839,0,0,1-.558-1.35,1.768,1.768,0,0,1,.9-1.62.264.264,0,0,0,.072-.36,2.142,2.142,0,0,1-.288-1.08v-2.016a2,2,0,0,1,.594-1.44,1.912,1.912,0,0,1,1.422-.612h10.44q.324,0,.324-.288v-.612a2,2,0,0,1,.594-1.44,1.912,1.912,0,0,1,1.422-.612h.864a1.912,1.912,0,0,1,1.422.612,2,2,0,0,1,.594,1.44v.612q0,.288.324.288h10.44a1.912,1.912,0,0,1,1.422.612,2,2,0,0,1,.594,1.44v2.016a2.142,2.142,0,0,1-.288,1.08.264.264,0,0,0,.072.36,1.768,1.768,0,0,1,.9,1.62,1.839,1.839,0,0,1-.558,1.35,1.839,1.839,0,0,1-1.35.558h-3.42a.58.58,0,0,0-.468.216,18.884,18.884,0,0,1-4,3.96q-.216.144.072.252,3.564,1.116,6.732,2.412a1.4,1.4,0,0,1,.864.954A1.328,1.328,0,0,1,78.3-9.468a3.049,3.049,0,0,1-.72.612q-.036.072,0,.108h1.26a1.839,1.839,0,0,1,1.35.558,1.839,1.839,0,0,1,.558,1.35,1.839,1.839,0,0,1-.558,1.35,1.839,1.839,0,0,1-1.35.558H70.92a.064.064,0,0,0-.072.072.147.147,0,0,0,.036.108A55.836,55.836,0,0,0,79.92-1.08a1.735,1.735,0,0,1,1.116.99,1.721,1.721,0,0,1,0,1.458l-.072.144a2.1,2.1,0,0,1-1.152,1.116,2.128,2.128,0,0,1-1.584.036A46.8,46.8,0,0,1,67.5-2.88q-.252-.18-.252.144V1.332a2,2,0,0,1-.594,1.44,1.912,1.912,0,0,1-1.422.612h-.864a1.912,1.912,0,0,1-1.422-.612,2,2,0,0,1-.594-1.44V-2.736q0-.288-.288-.108A46.879,46.879,0,0,1,51.408,2.628a2.282,2.282,0,0,1-1.62-.018A2.03,2.03,0,0,1,48.636,1.512ZM75.06-24.156H65.448q-.072,0-.108.09a.191.191,0,0,0,0,.162,1.1,1.1,0,0,1,.036,1.332.12.12,0,0,0-.018.162.177.177,0,0,0,.162.09h9.864a.177.177,0,0,0,.162-.09.162.162,0,0,0,.018-.162,1.849,1.849,0,0,1-.216-.9v-.36Q75.348-24.156,75.06-24.156ZM60.3-23.04a3.659,3.659,0,0,1,1.044-.936.147.147,0,0,0,.036-.108.064.064,0,0,0-.072-.072H54.54q-.288,0-.288.324v.36a1.849,1.849,0,0,1-.216.9.162.162,0,0,0,.018.162.177.177,0,0,0,.162.09h5.22a.62.62,0,0,0,.54-.252,1.617,1.617,0,0,0,.18-.234A2.553,2.553,0,0,0,60.3-23.04Zm9.576,4.752q.072-.144-.108-.216H62.64a.757.757,0,0,0-.54.252q-.4.432-1.26,1.3-.216.216.072.288,2.34.468,4.68,1.08a.748.748,0,0,0,.576-.072A16.763,16.763,0,0,0,69.876-18.288Zm-16.7,9.54h8.892q.288,0,.288-.252a1.666,1.666,0,0,1,.5-1.224,1.625,1.625,0,0,1,1.188-.5H65.52a1.666,1.666,0,0,1,1.224.5A1.666,1.666,0,0,1,67.248-9q0,.252.288.252H75.06q.036-.036,0-.108Q70.6-10.62,66.888-11.772a.893.893,0,0,0-.612,0A51.934,51.934,0,0,1,53.172-8.748ZM98.352,2.628a2,2,0,0,1-1.44-.594A1.912,1.912,0,0,1,96.3.612V-24.012a1.912,1.912,0,0,1,.612-1.422,2,2,0,0,1,1.44-.594h10.44q.288,0,.288-.324V-27.72a1.97,1.97,0,0,1,.612-1.44,1.97,1.97,0,0,1,1.44-.612h.72a1.912,1.912,0,0,1,1.422.612,2,2,0,0,1,.594,1.44v1.368a.286.286,0,0,0,.324.324h10.656a2,2,0,0,1,1.44.594,1.912,1.912,0,0,1,.612,1.422v20.7q0,1.476-.054,2.322a6.619,6.619,0,0,1-.288,1.584A2.811,2.811,0,0,1,126,1.674a2.481,2.481,0,0,1-1.026.576,6.033,6.033,0,0,1-1.512.288q-.81.054-2.214.054-.936,0-3.816-.108a2.145,2.145,0,0,1-1.476-.648A2.3,2.3,0,0,1,115.272.36a1.688,1.688,0,0,1,.5-1.4,1.749,1.749,0,0,1,1.368-.54q1.62.072,3.168.072a3.1,3.1,0,0,0,1.566-.216q.234-.216.234-1.44V-21.636a.286.286,0,0,0-.324-.324h-7.7a.286.286,0,0,0-.324.324,17.742,17.742,0,0,1-.432,2.448.411.411,0,0,0,.18.468,51.017,51.017,0,0,1,8.028,7.92,1.8,1.8,0,0,1,.378,1.44,1.793,1.793,0,0,1-.846,1.26l-.4.288a2.125,2.125,0,0,1-1.566.324,2.178,2.178,0,0,1-1.386-.828,45.091,45.091,0,0,0-5.9-6.336q-.216-.216-.36.072a19.8,19.8,0,0,1-6.876,6.7,2.172,2.172,0,0,1-1.6.306,2.406,2.406,0,0,1-1.422-.846l-.252-.324a.118.118,0,0,0-.144-.036.115.115,0,0,0-.072.108V.612a1.94,1.94,0,0,1-.594,1.422,1.94,1.94,0,0,1-1.422.594Zm3.06-24.588a.286.286,0,0,0-.324.324v10.224a.156.156,0,0,0,.072.126.1.1,0,0,0,.144-.018.637.637,0,0,1,.288-.18,15.156,15.156,0,0,0,5.238-4.266,11.822,11.822,0,0,0,2.142-5.886q.072-.324-.288-.324Z" transform="translate(-1597.496 2923.517)"/>
    <path id="パス_8631" data-name="パス 8631" class="cls-9" d="M15.594-11.592q0,.138-.253.345a.676.676,0,0,0-.276.46,1.213,1.213,0,0,1-.322.368q-.069.276-.46.345l-.414.322-.3.552h-.23a2.2,2.2,0,0,1-.414.437q-.069.023-.391.184l-.483.529-.644.46-.207.069-.207.368-.506.3-.253.253-.23.575-.851.943-.276.414-.115.23.138.23L8.717-3.8l.115.391-.184.529.046.322.161.644a1.236,1.236,0,0,0-.345.759,3.022,3.022,0,0,0,.057.483,3.012,3.012,0,0,1,.057.46L8.441.805l.046.575L8.4,1.587l.161.828-.184.276.161.414L8.4,3.312l.092.184a.659.659,0,0,1,.069.3V3.91L8.4,4.485l.138.621-.207.437.207.276V5.98a2.367,2.367,0,0,1-.265,1.3,1.084,1.084,0,0,1-.954.379l-.207-1.1L6.9,5.888l-.023-.437-.3-.184.207-.46-.092-.322.092-.69-.138-.736.069-.575V2.323a.989.989,0,0,1-.023-.184.676.676,0,0,1,.023-.161V1.84L6.6.782,6.716.276,6.647-.276l.138-.92-.207-.368.115-.552L6.67-2.553l-.184-.414a1.74,1.74,0,0,0,.184-.644.376.376,0,0,0-.046-.207l-.092-.414-.138-.391-.23-.184-.138-.207A4.034,4.034,0,0,1,4.991-6.026l-.368-.23-.322-.6-.92-.828L3.2-8l-.368-.46-.69-.552v-.23l-.345-.23q-.092-.575-.483-.575a1.777,1.777,0,0,1-.966-1.61l.115-.6H.736a.767.767,0,0,1,.506-.138,3.31,3.31,0,0,1,.966.207l.161.368.368.115.414.644.6.437.023.207.483.759.345.253L5.865-7.659l.414.529q.828.851,1.288,1.38v-.069a.872.872,0,0,1,.276-.575l-.023.115a1.926,1.926,0,0,1,.391-.6.813.813,0,0,1,.322-.506,1.489,1.489,0,0,1,.437-.506l.207-.092.069-.092a.808.808,0,0,1,.828-.6l.046.092.207-.391q.276-.069.23-.069.207-.253.345-.414l.161-.3a1.5,1.5,0,0,1,.989-.6v-.276l.161-.184.23-.184.138-.483a.208.208,0,0,0,.184.115q.207,0,.368-.552l.69-.3.368-.368.644.046.483-.138.207.483A3.393,3.393,0,0,1,15.594-11.592ZM25.829-9.315l-.23.3.184.552-.3.345-.115.483-.069.115.046.115a.656.656,0,0,1-.161.483l-.046.069v.092a.764.764,0,0,1,.069.3.4.4,0,0,1-.023.161l.023.092-.092.253.069.276L25-5.5l.069.322.138.161L25-4.83v.368l-.161.368.115.368-.138.184.23.161-.322.529-.023.069.23.046-.161.529v.092a1.092,1.092,0,0,1-.023.253l.023.069.368.046.3.46-.161.345.253-.023a1.481,1.481,0,0,1,.161.483l-.345.345a1.982,1.982,0,0,1-.46.322l-.391.207L24.38.276l-.23.138-.713-.828V-.805a2.976,2.976,0,0,1-.138-.851v-.138l-.138-1.357.184-.966-.138-.552-.391.644-.207.6-.184.092-.322.506-.575.529-.161.276-.506.437-.115.3-.736.46-.782.874-.437.092-.3.23a1.067,1.067,0,0,1-.874-.437,1.676,1.676,0,0,1-1.081-1.449l.115-.069-.023-.138L16.606-2l-.138-.3.138-.322.046-.483.161-.759v-.092a.2.2,0,0,1-.023-.092.757.757,0,0,1,.046-.23.478.478,0,0,1-.023-.184,1.765,1.765,0,0,1,.138-.529l.161-.069a.329.329,0,0,1-.138-.253A.32.32,0,0,1,17-5.451a.51.51,0,0,1-.023-.161.442.442,0,0,1,.276-.414,1.376,1.376,0,0,1,.253-.46l-.115-.184.276-.345v-.092a1.249,1.249,0,0,1,.3-.805l-.023-.414.092-.092v-.069a.177.177,0,0,1-.023-.069.312.312,0,0,1,.092-.23v-.138a3.01,3.01,0,0,1,.483-.69,4.773,4.773,0,0,0,.575-.805l.115.115.253-.115.115-.046.759-.345,1.771.092v.161l.552.115a.681.681,0,0,1,.69.345.676.676,0,0,1,.023-.161v-.092l.483.437.437.092.828-.207.3.575Zm-2.185,1.2-.092-.161-.184-.046L22.655-8.9l-.46-.069h-.368l-.046-.046-.184.069-.207-.115h-.6l.069.092-.529.184-.092.115-.069.023a3.314,3.314,0,0,0-.575.575l-.161.552-.092.207.23.322-.391.3.046.092a1.7,1.7,0,0,0-.253.851l-.184.23v.414l-.184.207-.046.207-.069.046v.322l-.069.115a1.652,1.652,0,0,1-.046.437l.046.115-.207.437.092.138-.161.23.161.437-.253.322.046.437v.069l.092.046.115-.023a2.8,2.8,0,0,1,.23-.207l-.046-.184L18.814-2l.069-.161,1.357-1.1.138-.046.161-.391a2.654,2.654,0,0,0,.391-.184l.138-.368h.184l-.069-.391.322-.046a1.6,1.6,0,0,1,.149-.23,2.356,2.356,0,0,1,.219-.253l1.173-1.564.184-.345-.023-.092.161-.253.046-.253.207-.184Zm11.983-.138q0,.207-.414.391a.783.783,0,0,1-.345.207,3.116,3.116,0,0,0-.46.23l-.483-.161a1.529,1.529,0,0,1-.943.276l-.276-.069L32.5-7.2h-.621l-.391.253A1.413,1.413,0,0,0,31-7.038a1.039,1.039,0,0,1-.322.092.572.572,0,0,1-.253-.069l-.069.874.023.644-.069.8.046.874.069.414v.322l.322.69a.221.221,0,0,0-.069.161q0,.161.506.253l.046.276.161.069.276.184.184.138a1.938,1.938,0,0,1,.322-.046,1.3,1.3,0,0,1,.414.069,2.544,2.544,0,0,0,.391-.322.608.608,0,0,1,.391-.184h.069a.177.177,0,0,0,.069.023,1.058,1.058,0,0,1,.736-.575,1.138,1.138,0,0,1,.8.3v.161A.93.93,0,0,1,34.5-.9a1.112,1.112,0,0,1-.874.621l-.276.253h-.3l-.529.138a2.315,2.315,0,0,1-.529.046A.965.965,0,0,1,31.6.069h-.3L30.5-.368l-.207-.069-.483-.644-.276-.3-.506-1.15-.184-1.081.046-.276L28.7-4.14l.115-.322L28.7-4.968l.161-.161.046-.3L28.842-5.7l.046-.414L28.8-6.486l.115-.115v-.368l-.161-.069-.437.092-.414-.3H27.83q-.69,0-.69-.736V-8.05l-.276-.437L27.3-8.9l.575.092.3-.046.437.115h.483V-9.2l-.3-.644.3-.161-.115-.345L29-11.063l-.184-.3a.877.877,0,0,1-.161-.46.7.7,0,0,1,.115-.414l.069-.322.184-.184a5.745,5.745,0,0,1,.828-.115.7.7,0,0,1,.8.667l-.069.115a.713.713,0,0,1,.138.391.691.691,0,0,1-.023.115l-.046.138-.023.161.092.3-.023.115.046.322-.207.276.115.46-.092.552.184.207-.184.414.713-.092,1.265.115,1.012-.161.345.023.115-.023h.9Q35.627-8.763,35.627-8.257Zm9.591,6.371-.276.322-.253.6-.184.138-.161.322-.46.046-.3.3h-.46l-.276.23L42.6,0l-.3.069V.253L41.446.184l-.368.023L40.8.345l-.23-.138q.23-.023.368-.023-.184.023-1.1.092L39.767.253,39.583.23l-.3.161a2.187,2.187,0,0,0-.506-.207q-.506-.046-.667-.046h-.184a2.443,2.443,0,0,0-.345-.023.817.817,0,0,0-.368.092L36.892,0l-.184-.046a.9.9,0,0,1-.253-.069Q35.6-.207,35.6-1.541v-.207l.437-.322.552-.207.414.207h.322V-2a.716.716,0,0,1,.368.368l.184.023v.3l.3.069.069.046,2.944-.184.713-.115h.069l.046-.115.322-.046.046-.069a2.912,2.912,0,0,0,.9-.276l.023-.115a.9.9,0,0,1-.092-.161l-.115.023-.3-.23H42.6l-.115-.161.069-.092-.253.046L42.113-2.9a.807.807,0,0,1-.23.023,1.655,1.655,0,0,1-.6-.115h-.207l-.161-.069-.322.115-.184-.207h-.069L40.02-3.4l-.713-.276-.23-.184L38.2-4.025l-.092-.161L37.467-4.6l-.345-.759-.276-.391-.092-1.2.092-.138A1.635,1.635,0,0,1,37.214-8a.575.575,0,0,0,.345-.529L37.9-8.6a.9.9,0,0,1,.368-.345l.345-.276,1.449-.552.253-.069.46-.046.759-.207,1.449.092.046.115a1.143,1.143,0,0,1,.46.368v.115l.368.23-.161.552-.046.207a.636.636,0,0,1-.644.575.665.665,0,0,1-.621-.391V-8.3l-.276-.023-.322.092-.3-.207-.161.115a.919.919,0,0,0-.552.184,1.017,1.017,0,0,0-.667.276h-.3l-.207.161-.322.069-.046.046-.138.069-.207.207-.069.023-.207.322-.253.138a2.847,2.847,0,0,0-.115.506,1.2,1.2,0,0,0,.08.426.68.68,0,0,0,.311.219v.115l.3.161a1.814,1.814,0,0,1,.552.3h.46l.3.253.529.069.207.138.9.253L42-4.14,42.09-4.3a1.84,1.84,0,0,1,.805.276l.414.069.046.161h.368l.644.368a1.213,1.213,0,0,0,.506.552l.253.161-.069.276a.829.829,0,0,1,.161.483Zm14.674.552a1.055,1.055,0,0,1-.414.667L59.294-.6l-.161.207-.414.115q-.115.161-.23.161a.066.066,0,0,1-.046-.023h-.069a2.7,2.7,0,0,1-1.219.253h-.184L56.4,0l-.391-.184L55.131-.92l-.184-.621-.368-.3a.505.505,0,0,0,.069-.3,1.142,1.142,0,0,0-.184-.46l.069-.552v-.092a2.175,2.175,0,0,0-.161-.713l.138-.69-.3.6L53.866-4l-.046.483a.967.967,0,0,1-.437.092l-.253.552-.3.345a.632.632,0,0,1-.322.23l-.069.046-.828.851H51.52L51.083-.9l-.414.207-.23.3L49.91-.23l-.759.3-.46-.23a.651.651,0,0,1-.644-.414L47.84-.69a.989.989,0,0,1,.023-.184v-.161L47.5-1.357l.092-.138-.276-.644.092-.092-.046-.046v-.138a.378.378,0,0,1-.023-.115,1.672,1.672,0,0,1,.069-.483l.023-.6-.092-.483a.633.633,0,0,0,.115-.322.418.418,0,0,0-.138-.3l.253-.184v-.276l-.092-.759.253-1.472a4.265,4.265,0,0,0-.207-1.081q.069-.736.966-.805l.184.069.322.046.414.46-.138.6-.046.989.069.759-.138.276.069.184-.115.368v.23l-.046.069a.7.7,0,0,1,.023.207,2.258,2.258,0,0,1-.092.621l.115.161-.092.345.046.276v.322a.521.521,0,0,1,.115.345.817.817,0,0,1-.092.368v.092A2.436,2.436,0,0,1,49.2-2l.207.207q.138-.092.322-.23a.427.427,0,0,1,.322-.3v-.23a2.2,2.2,0,0,0,.437-.069l.046-.207.391-.161.069-.069a1.5,1.5,0,0,1,.529-.3V-3.45l.437-.322a.9.9,0,0,1,.575-.575,1.889,1.889,0,0,1,.345-.3l.3-.391v-.069l.092-.046.207-.092.115-.322.483-.207.092-.023.161-.161v-.207l.138-.046a.786.786,0,0,1,.368-.552l.345-.782.115-.414.046-.092h.092l.161-.115-.138-.046a3.719,3.719,0,0,0,.391-.874l.667-.023.529.437.23.368-.253.989-.345.46-.276.9-.23.138v.345l-.138.253.069.414-.184.161.092.736.046,1.035h.115v.6l.322.391.3.161.023.115a1.764,1.764,0,0,1,.391.115l.575.046.345-.092.621-.3a1.024,1.024,0,0,1,.46-.092Q59.892-1.932,59.892-1.334ZM72.358-2.852,72.174-2l.046.276-.046.069a1.012,1.012,0,0,1,.092.414.612.612,0,0,1-.069.276V-.92q0,.276-.207,2.254l-.046.437v.092l-.046.092-.023.092.023.138-.069.069-.069.138h-.092l.023.115-.046.138a.552.552,0,0,1-.115.322l-.115.368a1.3,1.3,0,0,1-.23.46,5.585,5.585,0,0,1-.575.8l-.391.3-.437.368-.345.161-.276.207-.184.046a2.542,2.542,0,0,1-1.035.3L67.8,5.957l-.207.092v.046a2.988,2.988,0,0,1-.667.092h-.9l-.552-.115L65,6.164l-.23-.207-.69-.069-.46-.414-.345-.184a1.505,1.505,0,0,1-1.058-1.219l.046-.092-.069-.368q.276-.437.506-.46a.69.69,0,0,1,.368-.115l.425.069a8.039,8.039,0,0,0,.886.092l-.046.345.276.184V4l-.184.23,1.058.322.529-.115V4.6l.161-.046h.046q.023,0,.3.046l.023.092.23-.115a2.871,2.871,0,0,1,1.1-.138,1.507,1.507,0,0,0,.23-.184.691.691,0,0,1,.115.023h.138q.138,0,.276-.276a.09.09,0,0,0,.092.069.224.224,0,0,0,.115-.046.237.237,0,0,1,.092-.046h.046l.736-.644.345-.529.023-.3.253-.322.023-.3.138-.276L70.61.989l.184-.575A2.735,2.735,0,0,1,70.771,0a3.831,3.831,0,0,1,.138-1.012l-.092-.368V-2.507L70.633-2.9v-.644l-.184-.483.023-.736-.023-.115-.161.046-.138.345-.345.3-.414.667-.6.414-.644.667a6.064,6.064,0,0,1-1.288,1.012l-.23.276-.345.207-.322.161-.3.3L65.3-.3a1.008,1.008,0,0,1-.529.253A1.993,1.993,0,0,1,63.618.3h-.253a1.736,1.736,0,0,1-.322.023A1.226,1.226,0,0,1,62.767.3L62.353.276l-.6-.575-.437-.575-.184-.483-.161-.92.092-.667.23-.782-.046-.253.207-.713.207-.414a2.44,2.44,0,0,0,.092-.713l.506-.943a.968.968,0,0,1,.345-.391l.23-.391.276-.3a1.113,1.113,0,0,1,.368-.529.545.545,0,0,0,.264-.345q.08-.253.862-.46l-.115.023.115-.046q.069-.115.322-.46l.276.046.207-.138a1.171,1.171,0,0,1,.782-.322h.161l.6-.23.345.115h.414l.253.138a.5.5,0,0,1,.368.207l.322.322.092.046.046.092L69-9.062l.023.115-.069.368L69-8.326l-.3.46-.667.092-.345-.552-.322-.115L67.206-8.6h-.23q-.115.046-.483.23l-.023.184h-.575a.708.708,0,0,1-.506.368,2.571,2.571,0,0,1-.276.161l-.184.437-.161.023-.023.207h-.322l-.3.483-.253.161-.092.322-.345.483-.046.46-.276.276-.253.989-.184.184.023.253-.276.874.069.276-.023.276a.829.829,0,0,1,.161.483l.161.046.069.138a.907.907,0,0,1,.506.092,3.43,3.43,0,0,1,1.127-.345.967.967,0,0,1,.391-.472q.253-.149,1.035-.563l.069.023a.521.521,0,0,1,.138-.345,3.292,3.292,0,0,0,.414-.184.406.406,0,0,0,.207-.3l.368-.092.23-.207.575-.782.161.092a5.164,5.164,0,0,1,.506-.621l.552-.644.046-.3a3.955,3.955,0,0,0,.644-1.472l-.115-.483-.184-.322.138-.345-.184-.253-.046-.322-.069-.23.23-.414a1.42,1.42,0,0,1,.529-.184,1.18,1.18,0,0,1,.552.207l.161.3.3.23.046.506q.069.207.161.621a.978.978,0,0,1,.115.483v.161l.046.138.253.368-.069.414.138.184A.867.867,0,0,1,71.9-6a1.092,1.092,0,0,1-.023.253l.207.069-.161.575.092.437a.943.943,0,0,1,.115.414,1.252,1.252,0,0,1-.115.46l.138.115ZM84.226-9.315l-.23.3.184.552-.3.345-.115.483-.069.115.046.115a.656.656,0,0,1-.161.483l-.046.069v.092a.764.764,0,0,1,.069.3.4.4,0,0,1-.023.161l.023.092-.092.253.069.276L83.4-5.5l.069.322.138.161L83.4-4.83v.368l-.161.368.115.368-.138.184.23.161-.322.529-.023.069.23.046-.161.529v.092a1.092,1.092,0,0,1-.023.253l.023.069.368.046.3.46-.161.345.253-.023a1.481,1.481,0,0,1,.161.483l-.345.345a1.982,1.982,0,0,1-.46.322l-.391.207L82.777.276l-.23.138-.713-.828V-.805a2.976,2.976,0,0,1-.138-.851v-.138l-.138-1.357.184-.966L81.6-4.669l-.391.644-.207.6-.184.092-.322.506-.575.529-.161.276-.506.437-.115.3-.736.46-.782.874-.437.092-.3.23a1.067,1.067,0,0,1-.874-.437,1.676,1.676,0,0,1-1.081-1.449l.115-.069-.023-.138L75-2l-.138-.3L75-2.622l.046-.483.161-.759v-.092a.2.2,0,0,1-.023-.092.757.757,0,0,1,.046-.23.479.479,0,0,1-.023-.184,1.765,1.765,0,0,1,.138-.529l.161-.069a.329.329,0,0,1-.138-.253.32.32,0,0,1,.023-.138.51.51,0,0,1-.023-.161.442.442,0,0,1,.276-.414,1.376,1.376,0,0,1,.253-.46l-.115-.184.276-.345v-.092a1.249,1.249,0,0,1,.3-.805l-.023-.414.092-.092v-.069a.177.177,0,0,1-.023-.069.312.312,0,0,1,.092-.23v-.138a3.01,3.01,0,0,1,.483-.69,4.773,4.773,0,0,0,.575-.805l.115.115.253-.115.115-.046.759-.345,1.771.092v.161l.552.115a.681.681,0,0,1,.69.345.676.676,0,0,1,.023-.161v-.092l.483.437.437.092.828-.207.3.575Zm-2.185,1.2-.092-.161-.184-.046L81.052-8.9l-.46-.069h-.368l-.046-.046-.184.069-.207-.115h-.6l.069.092-.529.184-.092.115-.069.023a3.314,3.314,0,0,0-.575.575l-.161.552-.092.207.23.322-.391.3.046.092a1.7,1.7,0,0,0-.253.851l-.184.23v.414L77-4.9l-.046.207-.069.046v.322l-.069.115a1.652,1.652,0,0,1-.046.437l.046.115-.207.437.092.138-.161.23.161.437-.253.322.046.437v.069l.092.046.115-.023a2.8,2.8,0,0,1,.23-.207l-.046-.184L77.211-2l.069-.161,1.357-1.1.138-.046.161-.391a2.653,2.653,0,0,0,.391-.184l.138-.368h.184l-.069-.391.322-.046a1.6,1.6,0,0,1,.149-.23,2.356,2.356,0,0,1,.218-.253l1.173-1.564.184-.345L81.6-7.176l.161-.253.046-.253.207-.184Zm11.983-.138q0,.207-.414.391a.783.783,0,0,1-.345.207,3.116,3.116,0,0,0-.46.23l-.483-.161a1.529,1.529,0,0,1-.943.276L91.1-7.383,90.9-7.2h-.621l-.391.253a1.413,1.413,0,0,0-.483-.092,1.039,1.039,0,0,1-.322.092.573.573,0,0,1-.253-.069l-.069.874.023.644-.069.8.046.874.069.414v.322l.322.69a.221.221,0,0,0-.069.161q0,.161.506.253l.046.276.161.069.276.184.184.138a1.938,1.938,0,0,1,.322-.046,1.3,1.3,0,0,1,.414.069,2.544,2.544,0,0,0,.391-.322.608.608,0,0,1,.391-.184h.069a.176.176,0,0,0,.069.023,1.058,1.058,0,0,1,.736-.575,1.138,1.138,0,0,1,.805.3v.161A.93.93,0,0,1,92.9-.9a1.112,1.112,0,0,1-.874.621l-.276.253h-.3l-.529.138a2.315,2.315,0,0,1-.529.046A.965.965,0,0,1,90,.069h-.3l-.805-.437-.207-.069-.483-.644-.276-.3-.506-1.15-.184-1.081.046-.276L87.1-4.14l.115-.322L87.1-4.968l.161-.161.046-.3L87.239-5.7l.046-.414-.092-.368.115-.115v-.368l-.161-.069-.437.092-.414-.3h-.069q-.69,0-.69-.736V-8.05l-.276-.437L85.7-8.9l.575.092.3-.046.437.115h.483V-9.2l-.3-.644.3-.161-.115-.345.023-.713-.184-.3a.877.877,0,0,1-.161-.46.7.7,0,0,1,.115-.414l.069-.322.184-.184a5.745,5.745,0,0,1,.828-.115.7.7,0,0,1,.805.667l-.069.115a.713.713,0,0,1,.138.391.691.691,0,0,1-.023.115l-.046.138-.023.161.092.3-.023.115.046.322-.207.276.115.46-.092.552.184.207-.184.414.713-.092,1.265.115,1.012-.161.345.023.115-.023h.9Q94.024-8.763,94.024-8.257Zm10.143-1.058-.23.3.184.552-.3.345-.115.483-.069.115.046.115a.656.656,0,0,1-.161.483l-.046.069v.092a.764.764,0,0,1,.069.3.4.4,0,0,1-.023.161l.023.092-.092.253.069.276-.184.184.069.322.138.161-.207.184v.368l-.161.368.115.368-.138.184.23.161-.322.529-.023.069.23.046-.161.529v.092a1.092,1.092,0,0,1-.023.253l.023.069.368.046.3.46-.161.345.253-.023a1.481,1.481,0,0,1,.161.483l-.345.345a1.982,1.982,0,0,1-.46.322l-.391.207-.115-.115-.23.138-.713-.828V-.805a2.976,2.976,0,0,1-.138-.851v-.138L101.5-3.151l.184-.966-.138-.552-.391.644-.207.6-.184.092-.322.506-.575.529-.161.276-.506.437-.115.3-.736.46-.782.874-.437.092-.3.23a1.067,1.067,0,0,1-.874-.437,1.676,1.676,0,0,1-1.081-1.449l.115-.069-.023-.138L94.944-2l-.138-.3.138-.322.046-.483.161-.759v-.092a.2.2,0,0,1-.023-.092.757.757,0,0,1,.046-.23.479.479,0,0,1-.023-.184,1.765,1.765,0,0,1,.138-.529l.161-.069a.329.329,0,0,1-.138-.253.32.32,0,0,1,.023-.138.51.51,0,0,1-.023-.161.442.442,0,0,1,.276-.414,1.376,1.376,0,0,1,.253-.46l-.115-.184L96-7.015v-.092a1.249,1.249,0,0,1,.3-.805l-.023-.414.092-.092v-.069a.177.177,0,0,1-.023-.069.312.312,0,0,1,.092-.23v-.138a3.01,3.01,0,0,1,.483-.69,4.773,4.773,0,0,0,.575-.805l.115.115.253-.115.115-.046.759-.345,1.771.092v.161l.552.115a.681.681,0,0,1,.69.345.676.676,0,0,1,.023-.161v-.092l.483.437.437.092.828-.207.3.575Zm-2.185,1.2-.092-.161-.184-.046-.713-.575-.46-.069h-.368l-.046-.046-.184.069-.207-.115h-.6l.069.092-.529.184-.092.115-.069.023a3.314,3.314,0,0,0-.575.575l-.161.552-.092.207.23.322-.391.3.046.092a1.7,1.7,0,0,0-.253.851l-.184.23v.414l-.184.207-.046.207-.069.046v.322l-.069.115a1.652,1.652,0,0,1-.046.437l.046.115-.207.437.092.138-.161.23.161.437-.253.322.046.437v.069l.092.046.115-.023a2.8,2.8,0,0,1,.23-.207l-.046-.184L97.152-2l.069-.161,1.357-1.1.138-.046.161-.391a2.653,2.653,0,0,0,.391-.184l.138-.368h.184l-.069-.391.322-.046a1.6,1.6,0,0,1,.149-.23,2.356,2.356,0,0,1,.218-.253l1.173-1.564.184-.345-.023-.092.161-.253.046-.253.207-.184Zm18.4,6.417-.138.253a1.25,1.25,0,0,1-.46,1.035.46.46,0,0,1-.161.368l-.115.253-.3.207-.138.253-.92.483-.437.115-.667.046-.368-.161-.3.023-.3-.207-.23-.023-.92-.483L114.1-.23q-.368-.322-1.1-.92l-.506-.69-.414-.345-.069-.161L111.8-2.6a10.351,10.351,0,0,0-.713-.782l-.391-.138-.437-.874.069-.345a.888.888,0,0,1,.736-.828l.437.138.368.368.391.253h.368l.092.069a1.577,1.577,0,0,1,.3.023,4.206,4.206,0,0,1,.805-.253l.207-.046.138-.3h.552a.956.956,0,0,1,.529-.23h.046q.069-.161.184-.391l.437-.207.184-.184.345-.575h.161a4.366,4.366,0,0,0,.184-.644L117-7.682l-.161-.092.092-.391a.421.421,0,0,0-.253-.161l-.276.092-.092-.184-.23-.092-.069-.092q-.345-.046-.989-.092v-.092l-.138.092a1.258,1.258,0,0,0-.276-.046,2.043,2.043,0,0,0-.874.322h-.322a3.239,3.239,0,0,0-.989.437l-.506.161-.713.575-.667.667v.092l-.437.759-.138.437-.092.046v.092q-.069.138-.115.253l-.138.069.046.069-.069.115a.256.256,0,0,0-.023.115.286.286,0,0,0,.092.207q0,.483-.23.621a.408.408,0,0,0-.046.184.256.256,0,0,0,.023.115,1.18,1.18,0,0,1-.161.644.842.842,0,0,0-.138.161l.069.345-.069.46.023.368a1.758,1.758,0,0,0-.184.667q.046.23.046.253a.769.769,0,0,1-.287.529.817.817,0,0,1-.541.276.942.942,0,0,1-.667-.391l-.253-.713.069-.414-.069-.9.069-.23v-.736l.046-.3v-.253q0-.46.046-.932t.046-.494v-.391l.023-.207V-6.3l.069-.184-.069-.276.092-.759v-.805l-.092-.46.115-.184-.023-.092-.092-1.242-.161-.759v-.207l.138-.782-.092-.3-.046-.552q-.046-.552-.046-.483,0-.8,1.265-.851l.506-.276-.092,1.127.092.644-.161.667.046.736.115.414-.069.391.046.552-.069.46.115.483-.046.115.092.23L109-8.05v.138l.115.437Q109-7.429,109-7.13l-.069.552.046.207.276-.483.138-.529.322-.529a.612.612,0,0,1,.161-.414h.253l.184-.391.529-.253a1.865,1.865,0,0,1,.736-.46l.138-.115.368-.184.3-.069a4.069,4.069,0,0,1,2.093-.552l1.794.138.368.207.184.023.391.414.023-.138a.867.867,0,0,1,.437.437q.115-.023.092-.023a.306.306,0,0,1,.184.069l.483.989-.023.115a.943.943,0,0,1,.115.414,1.042,1.042,0,0,1-.253.644v.138l-.322.851-.483.667-.138.023-.276.368a.529.529,0,0,1-.391-.138v.368l-.184.115-.138.253-.414.115q-.092.023-.207.207a12.082,12.082,0,0,1-1.771.621,1.878,1.878,0,0,1-.265-.035,1.966,1.966,0,0,0-.333-.034.32.32,0,0,0-.138.023q.023.069.253.506l.3.184.414.736.621.368.046.092.207.115.3.345.552.437.736.3.414.115.3-.023.161-.069a1.984,1.984,0,0,0,.874-.368l.391-.713.23-.276.138-.414a1.856,1.856,0,0,1,.552-.115A.686.686,0,0,1,120.382-1.7Zm8.119-.184a1.13,1.13,0,0,1-.414.69,1.432,1.432,0,0,1-.345.6l-.138.023-.253.437-.414.069L126.5.207l-.23.414-.253-.046a1.615,1.615,0,0,1-.414.138l-.138.207A.7.7,0,0,0,125.258.9q-.3,0-.575.414l-.322-.276a1.226,1.226,0,0,1-.276.023,1.243,1.243,0,0,1-.506-.092h-.391L123,.851a1.309,1.309,0,0,1-1.1-.667V.115l-.276-.138-.138-.391L121.21-.6V-.943l-.276-1.012.046-.828.092-.368v-.483L121.187-4l-.023-.161.161-.276-.046.046a.979.979,0,0,1,.115-.437v-.115l-.069-.552a.893.893,0,0,1,.345-.69.32.32,0,0,0,.023-.138,1.835,1.835,0,0,0-.08-.379,1.779,1.779,0,0,1-.08-.4,1.37,1.37,0,0,1,.138-.575.6.6,0,0,0,.529.276h.069a.649.649,0,0,1,.207-.207,2.884,2.884,0,0,1,.506-.966l.092-.092a2.859,2.859,0,0,1,.138-.529h.184l.046-.115.184-.046a1.753,1.753,0,0,1,.15-.219,5.415,5.415,0,0,1,.494-.287,1,1,0,0,1,.276-.3,1.785,1.785,0,0,1,.23-.092l.092-.138a3.608,3.608,0,0,1,.782-.207.684.684,0,0,1,.345.092l.115-.023.161.092a3.625,3.625,0,0,0,.552.345l.391.3v.092a1.4,1.4,0,0,1,.529,1.173l-.069.23.069.759-.207.138-.23.6-.437.483-.023.368a11.194,11.194,0,0,1-1.357.851.711.711,0,0,1-.644.322h-.069l-.437.276h-.368l-.552.23L123-4.485h-.046a5.045,5.045,0,0,0-.092.552l-.184.138-.023.276-.138.391q.069.552.069.713l-.092.069a2.95,2.95,0,0,1-.023.437.177.177,0,0,1-.023.069v.069a.343.343,0,0,0,.184.3.464.464,0,0,0,.23.345l.161.138.506.138v.069l.184.046.782.046.46-.069.23-.161.138-.046.23-.345.115-.023.575-.184a.751.751,0,0,1,.3-.276l.069-.115a.589.589,0,0,0,.529-.483,1.121,1.121,0,0,1,.828-.322h.092A1.443,1.443,0,0,1,128.5-1.886ZM126.224-8.51a1.129,1.129,0,0,0-.069-.276l-.115-.023-.046.023H125.9a.2.2,0,0,1-.092.023.176.176,0,0,1-.069-.023h-.069l-.23.161-.207.023-.115.046-.391.506-.253.184-.368.644-.207.138a1.3,1.3,0,0,1-.322.667l-.092.161a1.048,1.048,0,0,1,.575-.161l.161-.069.069-.207.322.023.184-.276h.138l.253.092L125.3-7.2h.161v-.253l.3-.069.069-.069.046-.207.3-.437A.743.743,0,0,0,126.224-8.51Zm27.209.552-.276.23q.069.092.253.322l-.874.552h-.092a.9.9,0,0,1-.3-.069l-.276.23-.391-.046-.414.345-.391-.23-.483.138-.46.276a.256.256,0,0,0-.115-.023q-.184,0-.207.115l-.184.759a.582.582,0,0,1,.092.276.985.985,0,0,1-.069.345l-.069.184.092.046a1.29,1.29,0,0,1-.184.69,3.612,3.612,0,0,1,.184.506l-.207.161.023.828-.207,1.2-.023.23a2.824,2.824,0,0,1,.046.368v.115l.092.23.023.414a2.2,2.2,0,0,1-.115.345q-.023.782-1.127.828L147.729.9l-.184-.3-.138-.414V-.621l-.161-.483.069-.046-.069-.345V-2.07l.069-.9-.046-.805.138-.46v-.529a2.274,2.274,0,0,1,.057-.437,2.236,2.236,0,0,0,.058-.414.775.775,0,0,0-.138-.437l-.046-.069-.069.046-.3-.092a2.926,2.926,0,0,1-.782.115,2.085,2.085,0,0,1-.368-.023l-.989.3-1.058-.115q-.414-.046-.575-.046a3.06,3.06,0,0,0-.828.161h-.092l-.529.23-.368-.253-.575.115-.069-.046-.092.046-.46-.023-.046.184-.644-.253-.575.069v1.058l-.069.529.115.437-.184.345.161.322-.161.989.092.3-.046.552.207.46-.092.207.046.276q-.023.506-.575.506-.943,0-.943-1.7l-.322-.391-.115-.276a.892.892,0,0,1,.138-.506l.046-.391-.069-.23-.115-1.794V-5.5l-.046-.069-.46-.253-.069-1.127.644-.368a3.13,3.13,0,0,0,.115-.92,3.037,3.037,0,0,0-.115-.9l.138.069-.023-.322.138-.483-.138-.805V-11.2l.161-.805.9-.483.437.322.483.161.069.506.207.3q-.115.322-.207.667a4.24,4.24,0,0,1,.069.782,5.02,5.02,0,0,1-.161,1.265l.207.437-.23.322v.276l.207.069.552-.069.391.046.621-.069.184.069a1.292,1.292,0,0,1,.253-.023,1.258,1.258,0,0,1,.276.046l.046.023h.345l.357-.023q.334-.023.678-.023l.368-.23.345.207.345.023.115.023a1.293,1.293,0,0,1,.3-.046h.115l2.438-.253.345.023.115-.069-.115-.391.115-.345-.161-.943.161-.3-.414-1.1-.046-.161-.092-.115q.023-.046.092-.207l.046-.092v-.092q0-.184.368-.345l.23-.644.644.115.276.161.644-.138v.322l.276-.069v1.081l-.115.184.184.46v.3l.115.368-.184.437.069.3-.115,1.058v.161l.483-.023.9-.207.437.046.276-.046h.506a.863.863,0,0,1,.391-.092.891.891,0,0,1,.345.092Zm7.889,2.576-.138.414a5.045,5.045,0,0,1-.069.943l-.138.23v.253l-.115.161-.069.322-.253.253-.161.575-.184.069-.092.253-.276.161-.184.391-.276.138-.023.276-.437.161a1.309,1.309,0,0,1-.736.529l-.092.023a.981.981,0,0,1-.851.483,1.008,1.008,0,0,1-.529.138l-.23.161-.23.069-.3.23-.3-.023-.322.092-.391-.161L153.939.69l-.345-.529-.506-.529.115-.368-.345-.782.161-.3-.115-.552.115-.345a3.736,3.736,0,0,1-.046-.46.825.825,0,0,1,.23-.644,2.526,2.526,0,0,1,.3-.759h.115l-.046-.161.069-.322v-.345a1.184,1.184,0,0,0,.207-.276L153.778-6v-.092a1.474,1.474,0,0,0,.161-.667l.483-.667.058-.046a1.256,1.256,0,0,0,.1-.092l-.023-.092h.092L155-8.05l.023-.529.575-.207a.992.992,0,0,0,.414-.69h.3a.977.977,0,0,1,.46-.138.863.863,0,0,1,.391.092l.253.023.6-.23.322.3.253.161h.184l.345.184h.184a7.321,7.321,0,0,1,.69.759l.046.115.161.092.483.621.437,1.081v.23ZM159.8-4.83l-.023-.115a.591.591,0,0,1-.184-.345l.069-.115-.207-.437.046-.437-.092-.115q-.3-.23-.322-.368-.207-.092-.207-.46l-.138-.023-.276-.46-.207-.161-.483-.184L157.6-8.1a.185.185,0,0,1-.184-.092l-.46.506-.3.644-.483.253-.069.253-.23.115-.092.6-.276.138a2.186,2.186,0,0,0-.092.6l-.368.345.115.069a.662.662,0,0,1-.207.483,4.774,4.774,0,0,1-.184.46v.184l-.069.092.023.276-.253.621.046.115v.644l-.092.322.023.322.207.3.322.115.115.046.184-.092.6.046.092-.23h.092q.138,0,.161.069l.207-.069.184.069.3-.207.046-.069.207-.046a1.681,1.681,0,0,1,.759-.506l.046-.115.46-.322.253-.368.368-.184.023-.115.115-.253v-.3l.276-.23.092-.161.115-.138a1.464,1.464,0,0,1-.092-.391.854.854,0,0,1,.138-.437Zm10.35-3.427q0,.207-.414.391a.783.783,0,0,1-.345.207,3.115,3.115,0,0,0-.46.23l-.483-.161a1.529,1.529,0,0,1-.943.276l-.276-.069-.207.184H166.4l-.391.253a1.413,1.413,0,0,0-.483-.092,1.039,1.039,0,0,1-.322.092.572.572,0,0,1-.253-.069l-.069.874.023.644-.069.8.046.874.069.414v.322l.322.69a.221.221,0,0,0-.069.161q0,.161.506.253l.046.276.161.069.276.184.184.138a1.938,1.938,0,0,1,.322-.046,1.3,1.3,0,0,1,.414.069,2.544,2.544,0,0,0,.391-.322.608.608,0,0,1,.391-.184h.069a.176.176,0,0,0,.069.023,1.058,1.058,0,0,1,.736-.575,1.138,1.138,0,0,1,.805.3v.161a.93.93,0,0,1-.552.989,1.112,1.112,0,0,1-.874.621l-.276.253h-.3l-.529.138a2.315,2.315,0,0,1-.529.046.965.965,0,0,1-.391-.092h-.3l-.8-.437-.207-.069-.483-.644-.276-.3-.506-1.15-.184-1.081.046-.276-.184-.253.115-.322-.115-.506.161-.161.046-.3-.069-.276.046-.414-.092-.368.115-.115v-.368l-.161-.069-.437.092-.414-.3h-.069q-.69,0-.69-.736V-8.05l-.276-.437.437-.414.575.092.3-.046.437.115h.483V-9.2l-.3-.644.3-.161-.115-.345.023-.713-.184-.3a.877.877,0,0,1-.161-.46.7.7,0,0,1,.115-.414l.069-.322.184-.184a5.745,5.745,0,0,1,.828-.115.7.7,0,0,1,.805.667l-.069.115a.713.713,0,0,1,.138.391.691.691,0,0,1-.023.115l-.046.138-.023.161.092.3-.023.115.046.322-.207.276.115.46-.092.552.184.207-.184.414.713-.092,1.265.115,1.012-.161.345.023.115-.023h.9Q170.154-8.763,170.154-8.257Zm8.234,6.371a1.13,1.13,0,0,1-.414.69,1.432,1.432,0,0,1-.345.6l-.138.023-.253.437-.414.069-.437.276-.23.414L175.9.575a1.615,1.615,0,0,1-.414.138l-.138.207A.7.7,0,0,0,175.145.9q-.3,0-.575.414l-.322-.276a1.226,1.226,0,0,1-.276.023,1.243,1.243,0,0,1-.506-.092h-.391l-.184-.115a1.309,1.309,0,0,1-1.1-.667V.115l-.276-.138-.138-.391L171.1-.6V-.943l-.276-1.012.046-.828.092-.368v-.483L171.074-4l-.023-.161.161-.276-.046.046a.979.979,0,0,1,.115-.437v-.115l-.069-.552a.893.893,0,0,1,.345-.69.32.32,0,0,0,.023-.138A1.835,1.835,0,0,0,171.5-6.7a1.779,1.779,0,0,1-.081-.4,1.371,1.371,0,0,1,.138-.575.6.6,0,0,0,.529.276h.069a.649.649,0,0,1,.207-.207,2.884,2.884,0,0,1,.506-.966l.092-.092A2.86,2.86,0,0,1,173.1-9.2h.184l.046-.115.184-.046a1.755,1.755,0,0,1,.15-.219,5.414,5.414,0,0,1,.494-.287,1,1,0,0,1,.276-.3,1.786,1.786,0,0,1,.23-.092l.092-.138a3.608,3.608,0,0,1,.782-.207.684.684,0,0,1,.345.092l.115-.023.161.092a3.625,3.625,0,0,0,.552.345l.391.3v.092a1.4,1.4,0,0,1,.529,1.173l-.069.23.069.759-.207.138-.23.6-.437.483-.023.368a11.193,11.193,0,0,1-1.357.851.711.711,0,0,1-.644.322h-.069l-.437.276h-.368l-.552.23-.414-.207h-.046a5.044,5.044,0,0,0-.092.552l-.184.138-.023.276-.138.391q.069.552.069.713l-.092.069a2.949,2.949,0,0,1-.023.437.177.177,0,0,1-.023.069v.069a.343.343,0,0,0,.184.3.465.465,0,0,0,.23.345l.161.138.506.138v.069l.184.046.782.046.46-.069.23-.161.138-.046.23-.345.115-.023.575-.184a.751.751,0,0,1,.3-.276l.069-.115a.589.589,0,0,0,.529-.483,1.121,1.121,0,0,1,.828-.322h.092A1.443,1.443,0,0,1,178.388-1.886ZM176.111-8.51a1.129,1.129,0,0,0-.069-.276l-.115-.023-.046.023h-.092a.2.2,0,0,1-.092.023.177.177,0,0,1-.069-.023h-.069l-.23.161-.207.023-.115.046-.391.506-.253.184-.368.644-.207.138a1.3,1.3,0,0,1-.322.667l-.092.161a1.048,1.048,0,0,1,.575-.161l.161-.069.069-.207.322.023.184-.276h.138l.253.092.115-.345h.161v-.253l.3-.069.069-.069.046-.207.3-.437A.743.743,0,0,0,176.111-8.51Zm10.1,6a.525.525,0,0,1-.184.414,2.4,2.4,0,0,1-.6.575l-.23.161-.207.276-.207.092-.322.207-.23.023-.092.092a1.38,1.38,0,0,0-.713.46.526.526,0,0,1-.3.115.51.51,0,0,1-.161-.023,1.978,1.978,0,0,1-1.012.23,1.641,1.641,0,0,1-.69-.092l-.414-.23-.138-.23V-.506a.57.57,0,0,0-.253-.483l-.092-.46-.184-.207-.115-.851-.023-.506.023-.368.046-.138a.659.659,0,0,1-.069-.3q.115-.966.115-1.219l-.207-.414.207-.345.069-.575-.046-.391.138-.345-.138-.46.207-.322.023-.207V-8.9l.069-.161-.023-.966.069-.989-.092-.184-.023-.69.069-.621-.069-.23.138-1.38a3.955,3.955,0,0,0,.851-.23.682.682,0,0,1,.6.391l.046.184.345.345-.184.483.046.092a2,2,0,0,1-.115.575l.046.483.115.437-.161.483a2.107,2.107,0,0,1-.115.713,2.325,2.325,0,0,1-.046.368l-.023.138.207.253-.092.253a1.269,1.269,0,0,1,.046.253,1.06,1.06,0,0,1-.092.368l.046.207-.138.736v.483l-.161.483.092.437-.092,1.012.069.115-.115.529-.046.644a.961.961,0,0,0-.046.161q0,.391-.023.644l.115.322-.046.345.138.3L181.792-2a1.026,1.026,0,0,1,.253.368h.207l.3.092.138-.184.207-.023a.73.73,0,0,1,.207-.046h.069a.589.589,0,0,0,.368-.23l.138-.069a.832.832,0,0,1,.529-.345q.115-.092.437-.368a.524.524,0,0,1,.391-.483.666.666,0,0,0,.46-.115.893.893,0,0,1,.587.241A1.188,1.188,0,0,1,186.208-2.507Zm19.136-8.671q0,.437-.667.46l-.414.184-.414-.092-.6.322a1.947,1.947,0,0,0-.736-.253q-.023,0-.2.035a1.6,1.6,0,0,1-.311.035,1.226,1.226,0,0,1-.276-.023l-.506.161-.115-.023-.046.023-1.265.023-.138.23-.575-.184-.23.115-.552.046-.345-.069q-.207.023-.4.057t-.219.035l-.3.046-.138.092.138.414.184.483-.092.368.23.184-.184.276a1.293,1.293,0,0,1,.046.3,1.461,1.461,0,0,1-.115.506l-.069.759.368.023.736-.184.322.184h.184a.691.691,0,0,0,.115.023h.069l.138-.138.713-.115.506.184q.368-.092.529-.115h.759l.437-.092.253.138.345-.046a2.44,2.44,0,0,1,.276-.023l1.334-.161.161.069a.51.51,0,0,1,.161-.023,1.09,1.09,0,0,1,.391.092,1.313,1.313,0,0,1,.3.736.6.6,0,0,1-.023.184l-.437.069-.391.207h-.345l-.184.161-.644-.046-.575.161-.667.115-.138-.023-.046.046-.874-.092-.3.115-.414-.046a2.007,2.007,0,0,1-.851.161h-.207q-.115.023-.483.138l-.483-.276-.138.115a.8.8,0,0,1-.322.161l-.437-.046H196.9q-.046.23-.138,1.38a1.558,1.558,0,0,1,.092.483l-.23.575.138.276-.184.368.069.345-.115.207q-.3,1.564-.414,2-.184.69-.414.805l-.506-.253h-.621l.161-.713V.138L194.879,0l.046-.3.023-.115L194.9-.437V-.713l-.207-.23.046-.138a1.879,1.879,0,0,1,.184-.851l-.092-.092.046-.276-.069-.322.138-.368-.046-.828.161-.805-.115-.276v-.115l-.368.138-.529-.276-.23.046a2.3,2.3,0,0,1-.276.046q-.644,0-.644-.759a.854.854,0,0,1,.966-.966q.483,0,.69.023l.644.069-.046-.184.023-.736-.138-.046.092-1.4-.23-.621-.023-.207-.161-.092-.736.414-.368-.506a.7.7,0,0,1-.414-.713.663.663,0,0,0,.138-.322v-.529l.644.046a1.555,1.555,0,0,1,.874-.345q-.023,0,.667.092.414-.046,1.518-.115l.828.115.621-.023.092-.069a.684.684,0,0,1,.345-.092.574.574,0,0,1,.253.046l.092.023q.207-.023.621-.081t.621-.08l.023.069.138.115h.092a2.1,2.1,0,0,0,.322-.035,2.068,2.068,0,0,1,.3-.035h.069l.621.092.667.069a3.3,3.3,0,0,1,.644-.069,1.373,1.373,0,0,1,.437.069h.391a1.449,1.449,0,0,1,.46-.069Q205.344-11.914,205.344-11.178Zm13.685,9.844a1.055,1.055,0,0,1-.414.667l-.184.069-.161.207-.414.115q-.115.161-.23.161a.066.066,0,0,1-.046-.023h-.069a2.7,2.7,0,0,1-1.219.253h-.184L215.533,0l-.391-.184-.874-.736-.184-.621-.368-.3a.505.505,0,0,0,.069-.3,1.142,1.142,0,0,0-.184-.46l.069-.552v-.092a2.175,2.175,0,0,0-.161-.713l.138-.69-.3.6L213-4l-.046.483a.967.967,0,0,1-.437.092l-.253.552-.3.345a.632.632,0,0,1-.322.23l-.069.046-.828.851h-.092L210.22-.9l-.414.207-.23.3-.529.161-.759.3-.46-.23a.651.651,0,0,1-.644-.414l-.207-.115A.989.989,0,0,1,207-.874v-.161l-.368-.322.092-.138-.276-.644.092-.092-.046-.046v-.138a.378.378,0,0,1-.023-.115,1.672,1.672,0,0,1,.069-.483l.023-.6-.092-.483a.633.633,0,0,0,.115-.322.418.418,0,0,0-.138-.3L206.7-4.9v-.276l-.092-.759.253-1.472a4.265,4.265,0,0,0-.207-1.081q.069-.736.966-.805l.184.069.322.046.414.46-.138.6-.046.989.069.759-.138.276.069.184-.115.368v.23l-.046.069a.7.7,0,0,1,.023.207,2.258,2.258,0,0,1-.092.621l.115.161-.092.345.046.276v.322a.521.521,0,0,1,.115.345.816.816,0,0,1-.092.368v.092a2.435,2.435,0,0,1,.115.506l.207.207q.138-.092.322-.23a.427.427,0,0,1,.322-.3v-.23a2.2,2.2,0,0,0,.437-.069l.046-.207.391-.161.069-.069a1.5,1.5,0,0,1,.529-.3V-3.45l.437-.322a.9.9,0,0,1,.575-.575,1.889,1.889,0,0,1,.345-.3l.3-.391v-.069l.092-.046.207-.092.115-.322.483-.207L213.3-5.8l.161-.161v-.207l.138-.046a.786.786,0,0,1,.368-.552l.345-.782.115-.414.046-.092h.092l.161-.115-.138-.046a3.719,3.719,0,0,0,.391-.874l.667-.023.529.437.23.368-.253.989-.345.46-.276.9-.23.138v.345l-.138.253.069.414-.184.161.092.736.046,1.035h.115v.6l.322.391.3.161.023.115a1.764,1.764,0,0,1,.391.115l.575.046.345-.092.621-.3a1.024,1.024,0,0,1,.46-.092Q219.029-1.932,219.029-1.334Zm14.214,0a1.055,1.055,0,0,1-.414.667l-.184.069-.161.207-.414.115q-.115.161-.23.161a.066.066,0,0,1-.046-.023h-.069a2.7,2.7,0,0,1-1.219.253h-.184L229.747,0l-.391-.184-.874-.736-.184-.621-.368-.3a.505.505,0,0,0,.069-.3,1.142,1.142,0,0,0-.184-.46l.069-.552v-.092a2.175,2.175,0,0,0-.161-.713l.138-.69-.3.6L227.217-4l-.046.483a.967.967,0,0,1-.437.092l-.253.552-.3.345a.632.632,0,0,1-.322.23l-.069.046-.828.851h-.092l-.437.506-.414.207-.23.3-.529.161-.759.3-.46-.23a.651.651,0,0,1-.644-.414l-.207-.115a.989.989,0,0,1,.023-.184v-.161l-.368-.322.092-.138-.276-.644.092-.092-.046-.046v-.138a.378.378,0,0,1-.023-.115,1.672,1.672,0,0,1,.069-.483l.023-.6-.092-.483a.633.633,0,0,0,.115-.322.418.418,0,0,0-.138-.3l.253-.184v-.276l-.092-.759.253-1.472a4.265,4.265,0,0,0-.207-1.081q.069-.736.966-.805l.184.069.322.046.414.46-.138.6-.046.989.069.759-.138.276.069.184-.115.368v.23l-.046.069a.7.7,0,0,1,.023.207,2.258,2.258,0,0,1-.092.621l.115.161-.092.345.046.276v.322a.521.521,0,0,1,.115.345.816.816,0,0,1-.092.368v.092a2.435,2.435,0,0,1,.115.506l.207.207q.138-.092.322-.23a.427.427,0,0,1,.322-.3v-.23a2.2,2.2,0,0,0,.437-.069l.046-.207.391-.161.069-.069a1.5,1.5,0,0,1,.529-.3V-3.45l.437-.322a.9.9,0,0,1,.575-.575,1.89,1.89,0,0,1,.345-.3l.3-.391v-.069l.092-.046.207-.092.115-.322.483-.207.092-.023.161-.161v-.207l.138-.046a.786.786,0,0,1,.368-.552l.345-.782.115-.414.046-.092h.092l.161-.115-.138-.046a3.719,3.719,0,0,0,.391-.874l.667-.023.529.437.23.368-.253.989-.345.46-.276.9-.23.138v.345l-.138.253.069.414-.184.161.092.736.046,1.035h.115v.6l.322.391.3.161.023.115a1.764,1.764,0,0,1,.391.115l.575.046.345-.092.621-.3a1.024,1.024,0,0,1,.46-.092Q233.243-1.932,233.243-1.334Zm14.9-.368-.138.253a1.25,1.25,0,0,1-.46,1.035.46.46,0,0,1-.161.368l-.115.253-.3.207-.138.253-.92.483-.437.115-.667.046-.368-.161-.3.023-.3-.207-.23-.023L242.7.46l-.828-.69q-.368-.322-1.1-.92l-.506-.69-.414-.345-.069-.161-.207-.253a10.348,10.348,0,0,0-.713-.782l-.391-.138-.437-.874.069-.345a.888.888,0,0,1,.736-.828l.437.138.368.368.391.253h.368l.092.069a1.577,1.577,0,0,1,.3.023,4.207,4.207,0,0,1,.805-.253l.207-.046.138-.3h.552a.955.955,0,0,1,.529-.23h.046q.069-.161.184-.391l.437-.207.184-.184.345-.575h.161a4.367,4.367,0,0,0,.184-.644l.207-.138-.161-.092.092-.391a.421.421,0,0,0-.253-.161l-.276.092-.092-.184-.23-.092-.069-.092q-.345-.046-.989-.092v-.092l-.138.092a1.258,1.258,0,0,0-.276-.046,2.043,2.043,0,0,0-.874.322h-.322a3.238,3.238,0,0,0-.989.437l-.506.161-.713.575-.667.667v.092l-.437.759-.138.437-.092.046v.092q-.069.138-.115.253l-.138.069.046.069-.069.115a.256.256,0,0,0-.023.115.286.286,0,0,0,.092.207q0,.483-.23.621a.408.408,0,0,0-.046.184.256.256,0,0,0,.023.115,1.18,1.18,0,0,1-.161.644.841.841,0,0,0-.138.161l.069.345-.069.46.023.368a1.758,1.758,0,0,0-.184.667q.046.23.046.253a.769.769,0,0,1-.288.529.817.817,0,0,1-.54.276.942.942,0,0,1-.667-.391l-.253-.713.069-.414-.069-.9.069-.23v-.736l.046-.3v-.253q0-.46.046-.932t.046-.494v-.391l.023-.207V-6.3l.069-.184-.069-.276.092-.759v-.805l-.092-.46.115-.184-.023-.092-.092-1.242-.161-.759v-.207l.138-.782-.092-.3-.046-.552q-.046-.552-.046-.483,0-.8,1.265-.851l.506-.276-.092,1.127.092.644-.161.667.046.736.115.414-.069.391.046.552-.069.46.115.483-.046.115.092.23-.115.644v.138l.115.437q-.115.046-.115.345l-.069.552.046.207.276-.483.138-.529.322-.529a.612.612,0,0,1,.161-.414h.253l.184-.391.529-.253a1.865,1.865,0,0,1,.736-.46l.138-.115.368-.184.3-.069a4.07,4.07,0,0,1,2.093-.552l1.794.138.368.207.184.023.391.414L245-9.706a.867.867,0,0,1,.437.437q.115-.023.092-.023a.306.306,0,0,1,.184.069l.483.989-.023.115a.942.942,0,0,1,.115.414,1.042,1.042,0,0,1-.253.644v.138l-.322.851-.483.667-.138.023-.276.368a.529.529,0,0,1-.391-.138v.368l-.184.115-.138.253-.414.115q-.092.023-.207.207a12.082,12.082,0,0,1-1.771.621,1.878,1.878,0,0,1-.264-.035,1.966,1.966,0,0,0-.333-.034.32.32,0,0,0-.138.023q.023.069.253.506l.3.184.414.736.621.368.046.092.207.115.3.345.552.437.736.3.414.115.3-.023.161-.069a1.984,1.984,0,0,0,.874-.368l.391-.713.23-.276.138-.414a1.856,1.856,0,0,1,.552-.115A.686.686,0,0,1,248.147-1.7Zm10.028-7.613-.23.3.184.552-.3.345-.115.483-.069.115.046.115a.656.656,0,0,1-.161.483l-.046.069v.092a.764.764,0,0,1,.069.3.394.394,0,0,1-.023.161l.023.092-.092.253.069.276-.184.184.069.322.138.161-.207.184v.368l-.161.368.115.368-.138.184.23.161-.322.529-.023.069.23.046-.161.529v.092a1.091,1.091,0,0,1-.023.253l.023.069.368.046.3.46-.161.345.253-.023a1.481,1.481,0,0,1,.161.483l-.345.345a1.982,1.982,0,0,1-.46.322l-.391.207-.115-.115-.23.138-.713-.828V-.805a2.977,2.977,0,0,1-.138-.851v-.138l-.138-1.357.184-.966-.138-.552-.391.644-.207.6-.184.092-.322.506-.575.529-.161.276-.506.437-.115.3-.736.46-.782.874-.437.092-.3.23a1.067,1.067,0,0,1-.874-.437,1.676,1.676,0,0,1-1.081-1.449L249-1.587l-.023-.138L248.952-2l-.138-.3.138-.322L249-3.105l.161-.759v-.092a.2.2,0,0,1-.023-.092.757.757,0,0,1,.046-.23.478.478,0,0,1-.023-.184,1.765,1.765,0,0,1,.138-.529l.161-.069a.329.329,0,0,1-.138-.253.32.32,0,0,1,.023-.138.51.51,0,0,1-.023-.161.442.442,0,0,1,.276-.414,1.377,1.377,0,0,1,.253-.46l-.115-.184.276-.345v-.092a1.249,1.249,0,0,1,.3-.805l-.023-.414.092-.092v-.069a.177.177,0,0,1-.023-.069.312.312,0,0,1,.092-.23v-.138a3.009,3.009,0,0,1,.483-.69,4.773,4.773,0,0,0,.575-.805l.115.115.253-.115.115-.046.759-.345,1.771.092v.161l.552.115a.681.681,0,0,1,.69.345.676.676,0,0,1,.023-.161v-.092l.483.437.437.092.828-.207.3.575Zm-2.185,1.2L255.9-8.28l-.184-.046L255-8.9l-.46-.069h-.368l-.046-.046-.184.069-.207-.115h-.6l.069.092-.529.184-.092.115-.069.023a3.314,3.314,0,0,0-.575.575l-.161.552-.092.207.23.322-.391.3.046.092a1.7,1.7,0,0,0-.253.851l-.184.23v.414l-.184.207-.046.207-.069.046v.322l-.069.115a1.653,1.653,0,0,1-.046.437l.046.115-.207.437.092.138-.161.23.161.437-.253.322.046.437v.069l.092.046.115-.023a2.8,2.8,0,0,1,.23-.207l-.046-.184L251.16-2l.069-.161,1.357-1.1.138-.046.161-.391a2.653,2.653,0,0,0,.391-.184l.138-.368h.184l-.069-.391.322-.046a1.6,1.6,0,0,1,.15-.23,2.355,2.355,0,0,1,.219-.253l1.173-1.564.184-.345-.023-.092.161-.253.046-.253.207-.184Z" transform="translate(-1662 2958.626)"/>
    <g id="グループ_727" data-name="グループ 727" transform="translate(-2372 1146.854)">
      <path id="パス_6527" data-name="パス 6527" class="cls-10" d="M33.358,105.4a1.411,1.411,0,0,1-.415-.063l-6.487-1.971a1.431,1.431,0,1,1,.83-2.739l6.487,1.972a1.431,1.431,0,0,1-.414,2.8" transform="translate(689.5 1528.246)"/>
      <path id="パス_6528" data-name="パス 6528" class="cls-10" d="M67.534,115.79a1.383,1.383,0,0,1-.417-.061l-25.144-7.64a1.431,1.431,0,1,1,.832-2.739l25.144,7.64a1.431,1.431,0,0,1-.414,2.8" transform="translate(685.284 1526.964)"/>
      <path id="パス_6529" data-name="パス 6529" class="cls-10" d="M65.06,69.317a1.422,1.422,0,0,1-.817-.257L49.112,58.534a1.431,1.431,0,0,1,1.634-2.35L65.878,66.711a1.432,1.432,0,0,1-.818,2.606" transform="translate(683.236 1540.373)"/>
      <path id="パス_6530" data-name="パス 6530" class="cls-10" d="M89.985,86.657a1.43,1.43,0,0,1-.816-.256L75.563,76.934a1.431,1.431,0,1,1,1.634-2.35L90.8,84.051a1.431,1.431,0,0,1-.818,2.606" transform="translate(676.051 1535.374)"/>
      <path id="パス_6531" data-name="パス 6531" class="cls-10" d="M102.642,36.277a1.425,1.425,0,0,1-1.189-.633L97.8,30.194a1.431,1.431,0,1,1,2.377-1.594l3.656,5.449a1.431,1.431,0,0,1-.39,1.985,1.415,1.415,0,0,1-.8.243" transform="translate(669.91 1547.969)"/>
      <path id="パス_6532" data-name="パス 6532" class="cls-10" d="M121.026,63.687a1.438,1.438,0,0,1-1.191-.635L106.587,43.3a1.432,1.432,0,1,1,2.378-1.6l13.249,19.754a1.433,1.433,0,0,1-1.188,2.23" transform="translate(667.522 1544.409)"/>
      <path id="パス_6533" data-name="パス 6533" class="cls-10" d="M155.4,32.645a1.43,1.43,0,0,1-1.375-1.04L146.669,5.749a1.43,1.43,0,1,1,2.752-.783l7.353,25.858a1.429,1.429,0,0,1-.984,1.767,1.463,1.463,0,0,1-.393.055" transform="translate(656.583 1554.5)"/>
      <path id="パス_6534" data-name="パス 6534" class="cls-10" d="M162.328,57.022a1.43,1.43,0,0,1-1.375-1.04L158.482,47.3a1.431,1.431,0,0,1,2.752-.784l2.471,8.687a1.43,1.43,0,0,1-.984,1.768,1.477,1.477,0,0,1-.393.055" transform="translate(653.374 1543.213)"/>
      <path id="パス_6535" data-name="パス 6535" class="cls-10" d="M195.523,22.328A1.43,1.43,0,0,1,194.1,20.96l-.386-8.673a1.431,1.431,0,0,1,2.859-.127l.385,8.673a1.43,1.43,0,0,1-1.366,1.494h-.064" transform="translate(643.789 1552.635)"/>
      <path id="パス_6536" data-name="パス 6536" class="cls-10" d="M196.785,50.7a1.429,1.429,0,0,1-1.427-1.367l-.848-19.054a1.43,1.43,0,0,1,1.366-1.493,1.4,1.4,0,0,1,1.492,1.366l.846,19.055a1.429,1.429,0,0,1-1.366,1.492c-.02,0-.042,0-.064,0" transform="translate(643.572 1547.748)"/>
      <path id="パス_6538" data-name="パス 6538" class="cls-10" d="M230.462,49.741a1.465,1.465,0,0,1-.315-.034A1.433,1.433,0,0,1,229.064,48c2.363-10.541,4.48-20.615,6.473-30.8a1.43,1.43,0,1,1,2.807.55c-2,10.211-4.119,20.311-6.487,30.878a1.428,1.428,0,0,1-1.394,1.117" transform="translate(634.194 1551.209)"/>
      <path id="パス_6539" data-name="パス 6539" class="cls-10" d="M279.325,36.909a1.431,1.431,0,0,1-1.29-2.047l4.785-10.01a1.431,1.431,0,1,1,2.581,1.237l-4.784,10.005a1.432,1.432,0,0,1-1.293.814" transform="translate(620.92 1549.036)"/>
      <path id="パス_6540" data-name="パス 6540" class="cls-10" d="M264.309,65.09a1.431,1.431,0,0,1-1.29-2.05l8.907-18.626a1.431,1.431,0,0,1,2.582,1.236L265.6,64.277a1.438,1.438,0,0,1-1.293.813" transform="translate(624.999 1543.722)"/>
      <path id="パス_6541" data-name="パス 6541" class="cls-10" d="M325.456,48.613a1.43,1.43,0,0,1-1.092-2.353l5.487-6.5a1.431,1.431,0,0,1,2.187,1.847l-5.487,6.5a1.426,1.426,0,0,1-1.095.508" transform="translate(608.388 1544.904)"/>
      <path id="パス_6542" data-name="パス 6542" class="cls-10" d="M293.255,80.329a1.431,1.431,0,0,1-1.092-2.355l20.08-23.8a1.43,1.43,0,1,1,2.186,1.845l-20.08,23.8a1.43,1.43,0,0,1-1.095.508" transform="translate(617.135 1540.988)"/>
      <path id="パス_6543" data-name="パス 6543" class="cls-10" d="M335.406,105.827a1.431,1.431,0,0,1-.594-2.733l22.539-10.246a1.431,1.431,0,1,1,1.186,2.6L336,105.7a1.4,1.4,0,0,1-.591.128" transform="translate(605.686 1530.379)"/>
      <path id="パス_6544" data-name="パス 6544" class="cls-10" d="M312.387,118.025a1.431,1.431,0,0,1-.594-2.733l12.319-5.6A1.431,1.431,0,0,1,325.3,112.3l-12.316,5.6a1.415,1.415,0,0,1-.592.129" transform="translate(611.938 1525.802)"/>
      <g id="グループ_683" data-name="グループ 683" class="cls-11" transform="translate(786.504 1615.013)">
        <path id="パス_6784" data-name="パス 6784" class="cls-10" d="M97.073,4.4C95,5.254,93.854,7.3,92,8.45c-1.241-.585-.9-1.965-1.512-2.925a2.735,2.735,0,0,0-1.775,1.1C88.2,7.147,87.79,7.758,87.3,8.3c-.935,1.03-1.575,1.015-2.424-.056-.6-.752-1.151-1.536-1.733-2.3-.614-.805-.838-.87-1.555-.189-1.306,1.241-2.566,2.532-3.824,3.822a3.585,3.585,0,0,1-1.876,1.289A22.055,22.055,0,0,1,73.153,6.04a2.86,2.86,0,0,0-.423.35,62.564,62.564,0,0,0-3.652,5.167c-1.038,1.693-2.377,3.2-3.561,4.806q-1.332,1.807-2.594,3.664a.927.927,0,0,0-.056.741,51.209,51.209,0,0,1,1.6,6.823c.408,1.716.951,3.4,1.421,5.1q1.287,4.657,2.553,9.32a5.744,5.744,0,0,1,.1.842l-.236.119c-.158-.161-.408-.295-.462-.485-.754-2.66-1.48-5.327-2.216-7.992-.48-1.738-.995-3.467-1.444-5.214-.421-1.636-.752-3.3-1.167-4.933-.347-1.372-.79-2.719-1.136-4.091Q60.612,15.231,59.4,10.191c-.66-2.723-1.29-5.454-1.938-8.18-.07-.295-.174-.582-.285-.946a3.934,3.934,0,0,0-.9.162c-1.12.5-2.235,1.01-3.331,1.559-.845.423-1.059.416-1.676-.309-.249-.292-.46-.616-.7-.919-.542-.694-.775-.765-1.54-.3-1.276.783-2.519,1.619-3.787,2.414-.577.362-1.182.679-1.843,1.055-.79-1.184-.572-2.6-1.236-3.737-1.025.7-2.045,1.322-2.965,2.063-.9.724-1.7,1.575-2.659,2.481l-1.43-3.346c-1.22,1.148-2.279,2.139-3.333,3.136A68.1,68.1,0,0,0,26.082,11.5c-2.174,2.635-4.435,5.2-6.693,7.762-2.281,2.59-4.565,5.18-6.919,7.7-1.987,2.129-4.088,4.151-6.116,6.24-.721.742-1.369,1.555-2.07,2.318a15.606,15.606,0,0,1-1.232,1.2c-.751.654-1.519,1.287-2.3,1.911A3.617,3.617,0,0,1,0,38.942c.138-.353.155-.551.263-.651.619-.57,1.275-1.1,1.889-1.677q1.174-1.1,2.3-2.25c.376-.383.679-.836,1.053-1.221,2.139-2.2,4.307-4.381,6.43-6.6,1.275-1.333,2.509-2.706,3.722-4.1q4.426-5.075,8.814-10.185c.8-.931,1.536-1.925,2.384-2.811,2.283-2.383,4.6-4.731,6.928-7.075A12.96,12.96,0,0,1,35.08,1.362c1,.739,1.208,1.89,1.926,3.141a3.628,3.628,0,0,1,.509-.861c.683-.613,1.4-1.186,2.121-1.76.657-.525,1.343-1.015,1.991-1.55.614-.507.982-.455,1.291.3a13.244,13.244,0,0,1,.466,1.541c.12.438.215.883.357,1.474.464-.242.841-.4,1.184-.621,1.2-.759,2.386-1.547,3.592-2.3A4.174,4.174,0,0,1,49.657.214,1.061,1.061,0,0,1,50.87.656c.376.53.8,1.028,1.252,1.605.975-.434,1.941-.871,2.912-1.294a14.561,14.561,0,0,1,1.6-.642c.874-.262,1.2-.088,1.415.806.322,1.343.568,2.7.867,4.054.19.856.419,1.7.627,2.555.482,1.977.953,3.957,1.447,5.931.454,1.818.932,3.63,1.436,5.589a3.582,3.582,0,0,0,.624-.616c1.239-2.238,3.054-4.042,4.54-6.092.38-.525.692-1.1,1.062-1.633,1.2-1.733,2.381-3.483,3.637-5.176.574-.774,1.212-.681,1.694.176.337.6.548,1.269.875,1.875.4.733.854,1.43,1.36,2.268.418-.409.711-.692,1-.978,1.363-1.349,2.686-2.74,4.1-4.034.971-.889,1.484-.776,2.26.24.582.764,1.162,1.531,1.755,2.285.207.263.454.5.776.843.347-.364.618-.662.9-.947.784-.782,1.538-1.6,2.378-2.317a6.779,6.779,0,0,1,1.556-.72L91.982,7.5c.432-.36.75-.614,1.056-.881.953-.831,1.9-1.668,2.853-2.5a2.266,2.266,0,0,1,.378-.261c1.036-.584,1.526-.285,1.66.878A37.754,37.754,0,0,0,100.992,16.6a35.7,35.7,0,0,1,2.949,8.214,1.264,1.264,0,0,0,.1.329c1.065,2.094,1.255,4.418,1.68,6.668a32.814,32.814,0,0,0,1.253,5.609c.066.175-.113.442-.178.667-.184-.156-.487-.283-.535-.473q-.532-2.119-.975-4.26c-.541-2.621-.671-5.334-1.849-7.813a11.65,11.65,0,0,1-.493-1.887,63.5,63.5,0,0,0-3.273-8.36,31.277,31.277,0,0,1-2.047-7.414c-.191-1.13-.36-2.264-.553-3.483" transform="translate(0 0)"/>
        <path id="パス_6784_-_アウトライン" data-name="パス 6784 - アウトライン" d="M68.206,43.583l-.256-.26c-.031-.031-.079-.07-.129-.111a1.208,1.208,0,0,1-.458-.589c-.546-1.925-1.085-3.885-1.607-5.781q-.3-1.107-.61-2.213c-.164-.6-.336-1.2-.5-1.785-.318-1.123-.648-2.285-.944-3.437-.219-.852-.417-1.722-.608-2.563-.177-.78-.361-1.587-.56-2.372-.171-.674-.369-1.358-.561-2.019s-.4-1.374-.575-2.072c-.758-3-1.571-6.3-2.486-10.071C58.5,8.618,58.1,6.9,57.7,5.232c-.239-1.018-.487-2.071-.733-3.1-.039-.163-.09-.327-.15-.514a1.264,1.264,0,0,0-.345.071c-1.312.583-2.364,1.075-3.31,1.549a2.394,2.394,0,0,1-1.046.337,1.668,1.668,0,0,1-1.235-.77c-.161-.189-.3-.386-.443-.576-.091-.125-.177-.243-.267-.358-.292-.374-.38-.4-.4-.4a1.233,1.233,0,0,0-.484.226c-.714.438-1.432.9-2.126,1.351-.541.35-1.1.712-1.657,1.061-.405.254-.817.483-1.253.725-.2.109-.4.223-.608.34l-.4.23-.258-.387a5.656,5.656,0,0,1-.762-2.181,7.916,7.916,0,0,0-.266-1.089l-.458.3c-.7.466-1.367.905-1.986,1.4-.6.482-1.162,1.032-1.758,1.614-.279.272-.567.553-.871.841l-.521.491L34.93,3.048l-.648.609c-.751.7-1.459,1.371-2.162,2.036a67.49,67.49,0,0,0-5.652,6.122c-2.131,2.582-4.379,5.135-6.553,7.6l-.15.17c-2.11,2.4-4.5,5.114-6.929,7.714-1.221,1.308-2.5,2.595-3.744,3.839-.784.786-1.594,1.6-2.38,2.408-.409.421-.806.879-1.189,1.322-.282.325-.573.662-.872.986A16.147,16.147,0,0,1,3.379,37.1c-.677.589-1.433,1.219-2.311,1.924a1.69,1.69,0,0,1-.552.263c-.1.033-.206.07-.332.12l-1.067.423.417-1.069c.045-.115.076-.213.1-.3a1.121,1.121,0,0,1,.287-.537c.3-.274.6-.54.9-.8.328-.285.667-.579.986-.877.755-.706,1.524-1.458,2.286-2.235.174-.177.334-.374.5-.583s.349-.43.549-.636c.841-.866,1.7-1.742,2.53-2.59,1.283-1.309,2.61-2.662,3.9-4.008C12.722,25,13.9,23.7,15.281,22.118c2.685-3.079,5.4-6.224,8.022-9.267l.79-.916c.3-.343.588-.7.872-1.051.484-.6.985-1.21,1.53-1.779C28.771,6.729,31.074,4.4,33.43,2.024a7.127,7.127,0,0,1,.916-.741c.141-.1.287-.207.428-.316l.3-.231.3.223A4.955,4.955,0,0,1,36.884,3.13c.046.1.093.2.141.308a1.309,1.309,0,0,1,.156-.168c.672-.6,1.383-1.171,2.071-1.721l.072-.058c.291-.233.591-.461.881-.682.367-.279.746-.568,1.1-.863A1.583,1.583,0,0,1,42.3-.5c.7,0,.988.709,1.084.943a10.386,10.386,0,0,1,.4,1.294c.027.1.054.2.081.3.077.281.142.559.216.875a6.535,6.535,0,0,0,.576-.313c.535-.338,1.076-.687,1.6-1.026.651-.421,1.325-.856,2-1.274A4.646,4.646,0,0,1,49.533-.27a1.824,1.824,0,0,1,.456-.06,1.541,1.541,0,0,1,1.289.7c.253.356.532.7.827,1.072l.167.209.516-.231c.67-.3,1.362-.609,2.047-.907L55.1.392a11.992,11.992,0,0,1,1.392-.545,2.629,2.629,0,0,1,.751-.133c.983,0,1.209.945,1.294,1.3.191.8.358,1.616.52,2.4.111.545.227,1.108.349,1.657s.264,1.113.4,1.655c.074.291.15.592.223.889q.241.99.48,1.98c.313,1.3.638,2.635.966,3.949.314,1.256.636,2.5.977,3.813l.235.907A28.091,28.091,0,0,1,65.5,14.4c.569-.695,1.157-1.413,1.688-2.145.2-.27.372-.554.558-.854.158-.254.321-.516.5-.771q.388-.559.773-1.121c.925-1.344,1.882-2.733,2.873-4.068a1.516,1.516,0,0,1,1.211-.73,1.54,1.54,0,0,1,1.321.959A10.356,10.356,0,0,1,74.905,6.7c.129.3.251.589.4.859.264.489.564.975.882,1.489l.137.222c.2-.2.376-.367.55-.538C77.282,8.322,77.7,7.9,78.1,7.5c.93-.938,1.892-1.907,2.886-2.818a2.2,2.2,0,0,1,1.444-.732,2.106,2.106,0,0,1,1.551,1.037l.352.462c.456.6.927,1.218,1.4,1.818.108.137.231.268.382.426.189-.2.368-.391.552-.574.2-.2.407-.41.6-.612.572-.583,1.164-1.186,1.8-1.731A3.572,3.572,0,0,1,90.183,4.2c.183-.069.371-.139.564-.225l.5-.224.975,2.9c.174-.144.333-.276.486-.409q.685-.6,1.367-1.2c.486-.427.99-.868,1.486-1.3a2.73,2.73,0,0,1,.461-.32,2.3,2.3,0,0,1,1.1-.355c.508,0,1.145.279,1.3,1.611a36.613,36.613,0,0,0,3.018,11.706,35.653,35.653,0,0,1,2.987,8.329.907.907,0,0,0,.057.2,18.048,18.048,0,0,1,1.478,5.369c.078.472.159.96.248,1.434.084.444.161.894.235,1.33a22.285,22.285,0,0,0,.994,4.2,1.078,1.078,0,0,1-.1.817,1.779,1.779,0,0,0-.065.166l-.215.74-.588-.5a1.847,1.847,0,0,0-.152-.107,1.122,1.122,0,0,1-.544-.625c-.356-1.418-.686-2.858-.98-4.281-.155-.75-.278-1.514-.4-2.253a19.579,19.579,0,0,0-1.415-5.446,5.433,5.433,0,0,1-.377-1.312c-.045-.23-.088-.448-.146-.656a54.448,54.448,0,0,0-2.8-7.273q-.225-.51-.449-1.021a31.269,31.269,0,0,1-2.082-7.531c-.132-.783-.252-1.557-.38-2.377l-.069-.443a11.031,11.031,0,0,0-2.2,1.837,12.782,12.782,0,0,1-2.23,1.893l-.231.143L91.782,8.9a2.621,2.621,0,0,1-1.365-2.076,5.108,5.108,0,0,0-.21-.747,2.838,2.838,0,0,0-1.084.834l-.055.057c-.261.27-.5.566-.744.878-.207.26-.421.529-.653.785-.752.828-1.271.924-1.6.924a2.2,2.2,0,0,1-1.591-1.006c-.367-.463-.722-.943-1.066-1.406-.22-.3-.447-.6-.674-.9a2.114,2.114,0,0,0-.406-.453,1.735,1.735,0,0,0-.407.323c-1.3,1.234-2.576,2.543-3.811,3.809l-.128.132a3.751,3.751,0,0,1-2.012,1.3l-.284.054-.189-.219a16.8,16.8,0,0,1-2.3-3.892L73,6.864A60.081,60.081,0,0,0,69.5,11.819a34.352,34.352,0,0,1-2.343,3.23c-.413.525-.841,1.069-1.241,1.612-.886,1.2-1.754,2.428-2.58,3.645a.5.5,0,0,0-.006.284,25.284,25.284,0,0,1,1.148,4.571c.142.764.288,1.555.469,2.317.261,1.1.586,2.209.9,3.282.172.589.35,1.2.517,1.8.889,3.219,1.749,6.355,2.554,9.322a3.489,3.489,0,0,1,.1.664c.007.088.013.171.022.25l.041.347Z" transform="translate(0 0)"/>
        <path id="パス_6785" data-name="パス 6785" class="cls-10" d="M82.044,34.367c.076-.2.095-.483.238-.577a23.819,23.819,0,0,1,2.468-1.472,1.583,1.583,0,0,1,2.132,1.307c.08.362.117.735.189,1.212a3.206,3.206,0,0,0,.68-.305,16.055,16.055,0,0,1,4.635-2.251c1.012-.395,1.575-.037,1.888,1.018.043.144.081.291.144.518.271-.082.516-.145.751-.23q2.05-.742,4.1-1.493c.392-.143.744-.188,1.019.443-1.128.376-2.232.727-3.325,1.113-1.06.374-1.991,1.142-3.309,1.128-.045-.415-.074-.746-.119-1.075-.092-.681-.311-.9-.885-.654-1.473.635-2.912,1.353-4.362,2.041a1.339,1.339,0,0,0-.181.142c-1.165.834-1.725.6-1.9-.782a4.912,4.912,0,0,0-.087-.684c-.213-.775-.659-.963-1.384-.578-.832.442-1.654.9-2.48,1.356l-.214-.176" transform="translate(-42.318 -16.508)"/>
        <path id="パス_6785_-_アウトライン" data-name="パス 6785 - アウトライン" d="M87.016,36.216c-.725,0-1.163-.574-1.3-1.705-.011-.085-.017-.168-.024-.247a2.135,2.135,0,0,0-.049-.367c-.073-.267-.163-.4-.266-.4a.916.916,0,0,0-.4.135c-.574.305-1.156.626-1.718.936l-.757.417-.3.163-.753-.62.13-.337c.014-.035.028-.093.043-.149a1.033,1.033,0,0,1,.389-.667l.117-.076a23.089,23.089,0,0,1,2.4-1.427,1.784,1.784,0,0,1,.789-.185,2.22,2.22,0,0,1,2.05,1.832c.043.2.075.392.1.6A13.429,13.429,0,0,1,91.4,32.119c.264-.1.537-.2.8-.3a2.462,2.462,0,0,1,.9-.19c.8,0,1.352.515,1.654,1.532l.011.037c.081-.025.16-.05.235-.077,1.289-.466,2.628-.954,4.093-1.492a1.691,1.691,0,0,1,.574-.12,1.168,1.168,0,0,1,1.076.832l.219.5-.519.173q-.517.172-1.028.34c-.789.259-1.534.5-2.288.77a8.882,8.882,0,0,0-.941.419,5.526,5.526,0,0,1-2.5.738l-.486-.005-.048-.441c-.014-.132-.027-.256-.039-.374-.026-.253-.048-.471-.078-.687a1.555,1.555,0,0,0-.066-.307.992.992,0,0,0-.125.046c-1.074.463-2.152.981-3.194,1.482-.368.177-.749.36-1.126.539l-.013.012a1.2,1.2,0,0,1-.118.1A2.474,2.474,0,0,1,87.016,36.216Z" transform="translate(-42.318 -16.508)"/>
        <path id="パス_6786" data-name="パス 6786" class="cls-10" d="M174.06,32.484c.66-.412,1.079-.659,1.485-.928a10.186,10.186,0,0,1,5.517-2.084,3.059,3.059,0,0,1,.42.049,1.214,1.214,0,0,1,.077.256,2.574,2.574,0,0,1-.02.321c-.088.046-.153.11-.217.109a9.473,9.473,0,0,0-5.234,1.865,7.387,7.387,0,0,1-1.592.89c-.865.279-1.2-.061-1.133-.958.019-.253,0-.508,0-.8-1.61.262-2.605,1.472-3.832,2.259l-.2-.183a2.026,2.026,0,0,1,.28-.6,9.34,9.34,0,0,1,3.755-2.432c.912.373.825,1.165.7,2.241" transform="translate(-87.339 -15.201)"/>
        <path id="パス_6786_-_アウトライン" data-name="パス 6786 - アウトライン" d="M169.483,34.083l-.283-.253-.205-.184-.271-.244.149-.332c.02-.044.04-.1.061-.161a1.489,1.489,0,0,1,.318-.584,9.8,9.8,0,0,1,3.955-2.557l.176-.059.171.07A1.61,1.61,0,0,1,174.592,31a2.7,2.7,0,0,1,.047.537c.233-.144.433-.269.629-.4a10.691,10.691,0,0,1,5.787-2.168h.015a2.271,2.271,0,0,1,.371.038l.1.016.317.04.1.3c.01.03.019.056.028.08a.975.975,0,0,1,.072.3,1.99,1.99,0,0,1-.014.307c0,.026-.005.051-.007.074l-.021.277-.246.129-.042.026a.724.724,0,0,1-.407.14h-.091a9.024,9.024,0,0,0-4.876,1.787c-.1.063-.2.127-.3.192a5.945,5.945,0,0,1-1.41.752,2.17,2.17,0,0,1-.665.12,1.162,1.162,0,0,1-.518-.112l-.026.016,0-.027a.983.983,0,0,1-.268-.2,1.6,1.6,0,0,1-.313-1.264c0-.041.005-.083.006-.126a7.019,7.019,0,0,0-1.973,1.234c-.349.275-.709.559-1.094.806Z" transform="translate(-87.339 -15.201)"/>
        <path id="パス_6787" data-name="パス 6787" class="cls-10" d="M191.768,45.849c-.795-.574-1.787-.126-2.57-.92a3.794,3.794,0,0,1,2.768.207c.25.126.362.629.433.981a7.2,7.2,0,0,1,.016,1.274l2.942-.713c.044.179.087.356.153.625-.914.232-1.789.484-2.678.672-.613.129-.91-.115-1.035-.763a3.974,3.974,0,0,1-.029-.685c0-.225,0-.45,0-.678" transform="translate(-97.588 -23.09)"/>
        <path id="パス_6787_-_アウトライン" data-name="パス 6787 - アウトライン" d="M192.544,48.507c-.459,0-1.046-.208-1.237-1.2a2.959,2.959,0,0,1-.038-.6c0-.057,0-.114,0-.17,0-.133,0-.266,0-.4a2.765,2.765,0,0,0-.723-.154,2.624,2.624,0,0,1-1.7-.7l-.612-.621.845-.215a5.323,5.323,0,0,1,1.323-.178,3.887,3.887,0,0,1,1.794.423c.439.222.586.777.7,1.327a3.121,3.121,0,0,1,.044.734l.513-.124,1.794-.435.484-.117.178.722.095.386.119.482-.481.122c-.274.07-.549.142-.815.213-.615.162-1.25.33-1.882.464A1.887,1.887,0,0,1,192.544,48.507Z" transform="translate(-97.588 -23.09)"/>
      </g>
      <path id="パス_6790" data-name="パス 6790" class="cls-8" d="M59.038,301.494c1.613.079,1.283,2.1,2.174,2.9,1.479-.452,1.249-2.614,3.139-2.656-2.339,3.27-1.99,6.937.966,9.177-.917.618-1.877-.438-2.9-.482-1.826,1.113,0,4.567-2.415,4.829a15.492,15.492,0,0,1-.482-5.313c-1.214-.159-1.95.3-2.657,0,.394-1.7,1.991-2.2,2.657-3.622a13.648,13.648,0,0,1-.484-4.83" transform="translate(727.186 1317.647)"/>
      <path id="パス_6791" data-name="パス 6791" class="cls-8" d="M324.51,303.653c-.418-.03-.492.284-.932.233.155.854.248,1.769.465,2.56-.585,1.215-1.349.193-2.559.233.08,1.317,1.419,1.373,2.094,2.095.326,1.572-.684,3.033,0,4.19,1.148.062.8-1.374,1.4-1.862,1.527.49,1.664,2.37,3.026,3.025.914-1-.315-2.2-.7-3.258.133-1.186,1.86-.778,1.862-2.095-2.922-.336-4.072-2.445-4.654-5.121" transform="translate(572.856 1320.373)"/>
    </g>
  </g>
</svg>
