<svg xmlns="http://www.w3.org/2000/svg" xmlns:xlink="http://www.w3.org/1999/xlink" width="342.446" height="269.616" viewBox="0 0 342.446 269.616">
  <defs>
    <style>
      .cls-1 {
        fill: none;
      }

      .cls-2 {
        fill: #c1dbb9;
      }

      .cls-3 {
        clip-path: url(#clip-path);
      }

      .cls-4 {
        fill: #fce952;
      }

      .cls-12, .cls-5 {
        fill: #282828;
      }

      .cls-6 {
        fill: #fbd8b5;
      }

      .cls-7 {
        fill: #4aa3d5;
      }

      .cls-8 {
        fill: #fff;
      }

      .cls-9 {
        fill: #6b6b6b;
      }

      .cls-10 {
        fill: #bababa;
      }

      .cls-11 {
        clip-path: url(#clip-path-2);
      }

      .cls-12 {
        fill-rule: evenodd;
      }
    </style>
    <clipPath id="clip-path">
      <rect id="長方形_657" data-name="長方形 657" class="cls-1" width="257.794" height="215.348"/>
    </clipPath>
    <clipPath id="clip-path-2">
      <rect id="長方形_703" data-name="長方形 703" class="cls-1" width="120.393" height="56.045" transform="translate(0 0)"/>
    </clipPath>
  </defs>
  <g id="グループ_1001" data-name="グループ 1001" transform="translate(1753.406 -2912.18)">
    <path id="パス_7243" data-name="パス 7243" class="cls-2" d="M-2522.339,1924c-5.531,49.794,64.593,55.427,122.213,56.5s84.752-14.339,120.553-34.477,77.255-45.906,52.662-67.6-97,19.071-148.73,14.36S-2516.808,1874.2-2522.339,1924Z" transform="translate(808.531 1201.241)"/>
    <g id="グループ_668" data-name="グループ 668" class="cls-3" transform="translate(-1703.3 2912.18)">
      <path id="パス_6453" data-name="パス 6453" class="cls-4" d="M111.077,101.247c-1.968-.657-3.674-1.21-4.466-1.447-1.248-.373-8.294-2.552-8.446-2.626-.206-.053-.858-.241-1.761-.5-1.963,8.25-4.059,16.978-5.6,25.482.846.231,1.708.465,2.617.757,1.318.422,3.878,1.532,6.42,2.338,3.477-8.171,7.271-15.856,11.232-24.005" transform="translate(-8.596 -9.151)"/>
      <path id="パス_6454" data-name="パス 6454" class="cls-5" d="M112.022,101.725c-3.961,8.149-7.754,15.834-11.232,24.005.615.2,1.227.369,1.821.515,4.335-7.573,7.122-16.112,12.023-23.639-.885-.3-1.773-.6-2.612-.881" transform="translate(-9.541 -9.63)"/>
      <path id="パス_6455" data-name="パス 6455" class="cls-4" d="M122.073,105.342c-.587-.329-3.9-1.5-7.249-2.644-4.9,7.528-7.687,16.067-12.022,23.64,1.978.484,3.75.622,4.656-.113,1.359-1.1,4.444-5.186,5.887-7.3,1.3-1.908,3.727-5.608,5.65-7.861,1.193-1.4,4.039-5.186,3.078-5.724" transform="translate(-9.731 -9.722)"/>
      <path id="パス_6456" data-name="パス 6456" class="cls-4" d="M84.378,93.793c-2.163.719-1.9,12.993-1.879,16.184.023,3.11-.154,8.989,2.5,10.211a22.3,22.3,0,0,0,2.59.991c2.53-8.01,3.181-17.39,4.984-25.64-3.6-1-7.916-2.109-8.2-1.746" transform="translate(-7.808 -8.872)"/>
      <path id="パス_6457" data-name="パス 6457" class="cls-5" d="M92.578,107.465l15.1,4.838-.761,2.377-14.625-4.669Z" transform="translate(-8.737 -10.173)"/>
      <path id="パス_6458" data-name="パス 6458" class="cls-5" d="M93.11,95.729c-1.8,8.25-2.454,17.631-4.984,25.64.811.26,1.612.476,2.429.7,1.537-8.5,3.632-17.232,5.6-25.482-.843-.241-1.9-.542-3.041-.857" transform="translate(-8.342 -9.062)"/>
      <path id="パス_6459" data-name="パス 6459" class="cls-6" d="M137.856,50.461c-.211,0-2.983.211-3.247.185a21.913,21.913,0,0,1-.712,2.8c-.264.581-2.178,3.907-2.442,4.2,3.062,2.8,7.338,2.428,9.4-.105-.554-.291-2.243-3.432-2.482-4.58-.174-.841-.514-2.177-.514-2.494" transform="translate(-12.444 -4.777)"/>
      <path id="パス_6460" data-name="パス 6460" class="cls-6" d="M162.506,66.089c2.6-1.39,8.536-7.244,9.107-10.784,1.129-7,2.487-16.069,2.851-16.815.548-1.123,1.8-4.277,2.589-6.3.322-.822.052-2.152-.574-4.773-.276-1.159-1.307.533-2.172-.566-1.458-1.851-1.906-.318-2.6-.487-1.2-.292-1.534-.4-1.62,1.256a14.307,14.307,0,0,0,.191,3.473c.137.748.088,1.908-.93.96s-1.633-1.406-2.6-1.265-1.079.873.276,1.88c1.319,1.507,1.921,4.108,2.454,5.127.342.652-2.1,8.729-4.069,15.073-1.107,3.566-8.985,6.974-9.217,7.818-.643,2.344,3.247,7.044,6.315,5.4" transform="translate(-14.779 -2.455)"/>
      <path id="パス_6461" data-name="パス 6461" class="cls-6" d="M100.836,227.967c5.86-.455,1.329-5.934,4.157-10.977,0,0,3.328-2.393,4.144-.15.622,1.708,1.42,8.229,1.648,12.69a9.719,9.719,0,0,1-9.949-1.563" transform="translate(-9.545 -20.436)"/>
      <path id="パス_6462" data-name="パス 6462" class="cls-5" d="M99.866,229.236l.04,0a9.717,9.717,0,0,0,9.949,1.563,28.955,28.955,0,0,1,.026,3.369c-.262,3.288-10.988,3.448-15.727.722-5.437-3.127-3.962-4.943,5.712-5.649" transform="translate(-8.616 -21.7)"/>
      <path id="パス_6463" data-name="パス 6463" class="cls-6" d="M145.967,224.479c-.493-3-.221-6.975-.221-9.86-2.848-2.137-4.986-2.137-5.223,3.8s-.95,9.022-4.51,10.921c-.033.017-.065.036-.1.053a15.261,15.261,0,0,0,10.052-4.913" transform="translate(-12.866 -20.193)"/>
      <path id="パス_6464" data-name="パス 6464" class="cls-5" d="M145.443,225.646a15.261,15.261,0,0,1-10.052,4.913c-3.519,1.89-6.528,4.231-4.176,5.408,2.375,1.187,5.7.949,8.785-.713s7.6-4.273,6.173-7.122a8.858,8.858,0,0,1-.729-2.486" transform="translate(-12.342 -21.36)"/>
      <path id="パス_6465" data-name="パス 6465" class="cls-7" d="M113.288,111.017c-.267,1.247-3.917,34.276-4.986,37.482s-4.782,64.639-4.782,65.619,2.922,1.854,4.079,1.854,3.568.5,4.2-1.36c1.607-4.7,14.662-67.805,14.84-69.675s.98-3.739,1.157,0,8.706,67.239,8.973,67.861,4.906.165,5.974.165,1.114-.2,1.772-3.255c.906-4.2,3.568-43.048,3.485-46.164s-1.418-49.579-2.486-51.588-32.229-.94-32.229-.94" transform="translate(-9.799 -10.482)"/>
      <path id="パス_6466" data-name="パス 6466" class="cls-8" d="M125.69,56.579c2.2-.464,4.646-.523,5.294.37,1.068,1.476,6.69.835,7.656.4s4.667,2.707,6.092,3.6a14.585,14.585,0,0,1,1.824,3.792c.05,7.792-.879,10.025.278,17.816a22.076,22.076,0,0,0,.1,3.811c.177,1.958.8,18.429,1.513,21.812s.713,4.362-.623,4.006-2.315-1.247-4.363-1.335-16.2.713-18.429.478-10.315.467-10.315-.512c0-.762,1.7-15.945,3.337-23.733,2.225-10.507,5.261-20.614,7.637-30.5" transform="translate(-10.859 -5.325)"/>
      <path id="パス_6467" data-name="パス 6467" class="cls-9" d="M113.3,95.021c-1.507-1.192-4.608-1.113-9.577-6.317-5.586-5.853-3.791-13.367,0-18.09a52.835,52.835,0,0,1,15.163-12.569c1.787-1.026,7.34-3.7,10.722-1.717.653.382-4.892,19.069-5.388,23.025-.247,21.508-5.686,40.421-6.922,43.14-1.977,2.6-2.018,6.487-3.8,6.843s-6.65.133-7.381-1.2c-.959-1.743-1.264-10.042,2.593-18.156,2.126-4.471,5.844-13.971,4.589-14.963" transform="translate(-9.483 -5.265)"/>
      <path id="パス_6468" data-name="パス 6468" class="cls-9" d="M141.338,57.247c.966-.437,3.3.323,7.328,3.011,2.5,1.057,5.963-2.261,9.313-2.4,2.3-.1,5.778,4.3,8.449,5.569,2.928,1.392-.827,4.353-3.457,7.3-2.4,2.689-6.881-.48-9.856,8.065-1.583,4.543-2.173,17.322-1.841,21.229a74.771,74.771,0,0,0,1.112,8.529c.713,3.383,2.72,22.992.866,26.453-2.622,4.9-6.976-1.889-9.023-1.977a12.463,12.463,0,0,1-10.26-7.293c-.166-8.752,5.382-26.35,4.327-40.916-.618-8.529,2.752-27.434,3.044-27.566" transform="translate(-12.681 -5.408)"/>
      <path id="パス_6469" data-name="パス 6469" class="cls-5" d="M124.511,49.088a6.8,6.8,0,0,0,7.254,1.869c4.548-1.871-.893-5.1-1.461-7.09-.416-1.452-.524-4.13-1.105-5.173s.286-6.652-3.268-2.64c-.934,1.055-.625,2.352-2.049,4.414-.441.638-2.03,1.187-1.754,2.5.33,1.566,1.637,1.777,1.7,2.712s-1.051,1.878.688,3.411" transform="translate(-11.558 -3.278)"/>
      <path id="パス_6470" data-name="パス 6470" class="cls-6" d="M142.9,47.283c-2.164,2.858-5.122,4.052-7.455,3.782a11.812,11.812,0,0,1-6.273-2.812,11.324,11.324,0,0,1-2.546-4.705,7.2,7.2,0,0,1,.136-2.759c.515-2.151-1-2.291,1.058-6.517.626-1.284,4.243-7.087,10.569-6.7,5.562.34,9.04,13.731,4.511,19.714" transform="translate(-11.979 -2.608)"/>
      <path id="パス_6471" data-name="パス 6471" class="cls-5" d="M134.5,34.072c-1.329-3.5-7.423,3.635-7.687,1.54-.7-5.574,6.418-9.33,9.068-9.548,3.7-.3,12.187,4.364,12.881,9.472.552,4.069-.7,5.268,1,7.365.974,1.2-.075,2.947-1.113,4.544-1.487,2.289,1.478,2.9-.851,4.339-2.893,1.783-5.712.438-7.535-1.057-1.407-1.153.816-4.823,2.426-5.433,2.422-1.627,2.161-2.49,1.866-3.361s-1.62-1.624-2.146-.958c-2.619,3.314-.8-.118-1.684-1.1-2.4-2.666-1.834,1.5-6.227-5.8" transform="translate(-12 -2.466)"/>
      <path id="パス_6472" data-name="パス 6472" class="cls-6" d="M135.505,61.319c.013-.588-.234-2.722.427-2.781a1.28,1.28,0,0,1,1.308.616c.068.3.492,1.039,1.092.464s1.578-1.812,2-1.48c.524.415.664-.1,1.425.343.284.164-.056.88.454,1.038s1.8.773,1.421,1.353.462.708.521,1.37-.753.866-1.867,1.429-.545,1.369-2.31,1.565c-1.1.123-2.208.245-3.135-1.023s-1.419-2.307-1.333-2.893" transform="translate(-12.824 -5.498)"/>
      <path id="パス_6473" data-name="パス 6473" class="cls-6" d="M125.235,100.872c-.978-2.2-3.151-4.226-5.505-3.543s-3.562,1.176-4.155,3.061a6.146,6.146,0,0,0,.5,5.06,6.049,6.049,0,0,1,.9,4.4c-.269,1.845-.207,1.542-.416,3.608a7.69,7.69,0,0,0,1.226,4.363c.326.767-.195,1.336-.777,2.27-.936,1.5,3.432,2.915,5.263,3.176,2.615.372,4.919-.585,3.333-2.647-1.212-1.577-1.518-.836-2.51-1.669s-.743-2.841-.153-3.67,1.8-4.173,1.576-5.694a6.016,6.016,0,0,1,.273-3.426c.573-1.782,1.105-3.89.44-5.29" transform="translate(-10.91 -9.201)"/>
      <path id="パス_6474" data-name="パス 6474" class="cls-7" d="M111.62,63.2c-2.574.3-5.769,3.464-4.123,6.451,2.118,3.847,1.677,8.829,1.994,11.838.322,3.046-1.2,5.055-.931,7.581.109,1.032,1.2,5.977,3.99,7.714,4.4,2.743,8.955,2.973,10.707,2.594,3.99-.865,5.063-2.335,6.784-5.454,1.064-1.928-.311-5.976.263-9.979a36.417,36.417,0,0,0,.6-6.846c.046-2.133-.63-5.969,1.263-6.983a15.015,15.015,0,0,0,4.722-3.792c1.064-1.33-1-1.6-1.929-2.726-.966-1.173-1.3-2.985-4.256-1.463a36.108,36.108,0,0,1-5.522,2.132c-2.2.728-.861,1.032-3.816.192a48.654,48.654,0,0,0-9.749-1.26" transform="translate(-10.133 -5.826)"/>
      <path id="パス_6475" data-name="パス 6475" class="cls-6" d="M118.8,62.808a7.09,7.09,0,0,0,6.757.189,10.1,10.1,0,0,0,3.829-4.119,8.811,8.811,0,0,0,.448-4.215,5.3,5.3,0,0,0-.956-1.924c-1.053-1.363.04-1.973-2.814-4.3-.866-.705-5.375-3.63-9.995-1.225-4.062,2.114-2.517,12.844,2.731,15.59" transform="translate(-10.769 -4.382)"/>
      <path id="パス_6476" data-name="パス 6476" class="cls-5" d="M125.083,46.474a5.353,5.353,0,0,0-4.074-1.276c-2.1.307-2.817-.912-4.871-.175a11.586,11.586,0,0,0-5.608,4.157c-1.249,2.265-.813,3.608-.945,5.013-.239,2.548,1.283,12.318,11.529,9.392,1.238-.354,2.019-.242,1.179-2.5-1.191-1.174-3.046-2.294-3.1-3.015s.916-1.029,1.592-.935c1.7.237,1.218-.12,1.21-2.439-.009-2.826,5.957-5.059,3.084-8.22" transform="translate(-10.372 -4.239)"/>
      <path id="パス_6477" data-name="パス 6477" class="cls-6" d="M131.69,88.981a9.586,9.586,0,0,0-7.019,1.789c-1.918,1.411-1.68,3.942-1.229,5.469a5.989,5.989,0,0,0,4.289,3.694c2.6.3,4.328-2.914,4.7-1.142s.327,1.474.828,3.43a7.481,7.481,0,0,0,2.577,3.57c.554.59.271,1.284.051,2.329-.353,1.679,4.107,1.512,5.864,1.137,2.51-.535,4.291-2.179,2.155-3.529-1.633-1.033-1.665-.254-2.848-.684s-1.628-2.343-1.367-3.3.243-4.406-.466-5.721a5.847,5.847,0,0,1-.9-3.217c-.074-1.817-4.613-3.39-6.636-3.83" transform="translate(-11.655 -8.412)"/>
      <path id="パス_6478" data-name="パス 6478" class="cls-6" d="M109.615,89.293c1.631.751,2.291,1,3.063.776s2.667-.556,3.814-.737,1.764.209,1.679.844-1.047.6-2.587,1.282-.667.878-.071,1.573,4.129,3.061,4.728,3.873,1.457,1.669.856,2.335-1.679-.844-2.335-.741-.435.758-.56,1.769-.693.714-1.728.541-1.064-.454-1.855-.043-1.006.226-1.67-.257-1.586-2.488-2.5-4.141-.835-2.285-2.46-2.683a5.3,5.3,0,0,1-1.6-.648c-1.642-1.525.125-3.467,1.721-4.116a5.106,5.106,0,0,1,1.5.372" transform="translate(-10.009 -8.417)"/>
      <path id="パス_6479" data-name="パス 6479" class="cls-5" d="M96.363,95.769c.758-1.755,3.5-7.106,4.089-7.954,1.344-1.952,5.035-4.517,6.567-5.315,1.411-.735.965-1.264,1-2.071s-1.5-.184-2.7.323a13.394,13.394,0,0,0-4.151,2.98A41.116,41.116,0,0,0,96.183,90.1a29.347,29.347,0,0,0-2.64,4.5c-.271.659,2.737,1.361,2.82,1.169" transform="translate(-8.853 -7.577)"/>
      <path id="パス_6480" data-name="パス 6480" class="cls-9" d="M66.137,175.557c-.464-3.229-3.376-5.754-4.607-6.69-.078-.059-.012-.236.147-.4s.351-.24.429-.181c1.247.948,4.2,3.508,4.67,6.8a13.362,13.362,0,0,0,1.457,4.463c-.23.151-.452.3-.67.43a13.562,13.562,0,0,1-1.425-4.431" transform="translate(-5.821 -15.929)"/>
      <path id="パス_6481" data-name="パス 6481" class="cls-6" d="M71.527,223.736a1.954,1.954,0,0,1-.493-1.429c.088-1.3.693-3.38-.235-5.915s-.76-2.174-1.675-4.407a9.439,9.439,0,0,1-.585-5.856,9.569,9.569,0,0,0-1.223-6.551c-1.263-2.173-2.686-2.385-5.362-2.446s-2.5,2.392-2.749,5.5c-.206,1.992-.344,3.733.865,5.786a18,18,0,0,1,2.128,5.719,25.48,25.48,0,0,0,2.615,6.719c.711,1.128,1.848,3.291,1.107,4.679a2.7,2.7,0,0,1-.4.579,5.254,5.254,0,0,0,6.005-2.378" transform="translate(-5.592 -18.661)"/>
      <path id="パス_6482" data-name="パス 6482" class="cls-5" d="M72.012,226.518a5.254,5.254,0,0,1-6.005,2.378c-.56.612-1.048.426-1.629,2.379-.933,3.139,1.785,3.562,4.366,2.2,1.809-.951,5.848-4.224,4.36-5.794-.426-.45-.807-.808-1.093-1.168" transform="translate(-6.076 -21.443)"/>
      <path id="パス_6483" data-name="パス 6483" class="cls-6" d="M77.454,170.794c1.262,1.021,1.861.62,3.041.521s1.8-.741,3.712-.112c.27.088,1.959-.162,1.7,1.046-.279,1.293-.475,1.553-1.475,1.951-.822.327-1.057-.022-1.143.521-.112.714-2.752,1.479-4.741,1.014-.981-.087-.835-1.714-1.927-1.958-.207-.046-9.5-6.552-10.967-8.472.387-.913,1.985-3.776,3.073-3.968,1.6.32,8.583,9.341,8.728,9.459" transform="translate(-6.215 -15.272)"/>
      <path id="パス_6484" data-name="パス 6484" class="cls-6" d="M36.026,138.276c-.746-.94-1.012-1.329-.99-1.865a9.73,9.73,0,0,0-.3-3.245c-.626-1.2-1.373.34-1.919.063s-1.426-1.4-2.048-1.664-.751.593-1.088,1.088-1.169-.56-1.48.008c-.214.388.132,1.39-.505,1.632s-.708.459-.432,1.1.658.872.518,1.451.014.689.432,1.044a13.006,13.006,0,0,0,3.086.967c1.218.332,1.449.931,1.965,1.923.031.061,5.872,10.573,5.953,10.688.917-.565,3.447-2.438,4.415-3.008.129-1.535-7.49-10.039-7.608-10.187" transform="translate(-2.567 -12.45)"/>
      <path id="パス_6485" data-name="パス 6485" class="cls-4" d="M61.531,165.633c-.731-3.58,1.632-.276,2.848.364,1.646.866,3.647-2.472,3.84-4.1.265-2.223-1.408-2.24-2.9-3.449a69.376,69.376,0,0,0-8.051-6.355A11.509,11.509,0,0,0,51.4,150.04c-1.64-.079-2.9,1.031-4.437.818-1.791-.195-2.252-4.972-4.149-2.4-1.181,1.6-5.142,3.173-3.89,5,.865,1.264,3.567,6.691,3.259,8.247a72.981,72.981,0,0,0-1.33,14.232c.066,2.52,1.729,9.444,4.19,9.111,6.7-.906,16.093-1.4,17.291-2.927,2.593-2.726-.134-13.234-.8-16.493" transform="translate(-3.661 -13.982)"/>
      <path id="パス_6486" data-name="パス 6486" class="cls-5" d="M38.454,227.537c-1.251.734-1.368-.344-3.085,1.341-2.267,2.223-.139,4.349,2.706,4.787,1.993.306,6.981-.043,6.442-2.41a9.755,9.755,0,0,1-.426-2.422,6.18,6.18,0,0,1-5.638-1.3" transform="translate(-3.258 -21.539)"/>
      <path id="パス_6487" data-name="パス 6487" class="cls-6" d="M52.244,202.558c-.066-2.766-7.422-2.224-9.346,2.771-.943,2.447-1.623,5.146-2.056,6.411-.676,1.983-.391,5.65-.481,8.2-.048,1.387-.171,4.288-1.454,5.061a.359.359,0,0,1-.032.017,6.181,6.181,0,0,0,5.638,1.3,1.93,1.93,0,0,1,.282-.932c.683-1.11,2.175-2.593,2.566-5.469s.366-2.443.628-5.038a9.657,9.657,0,0,1,2.238-5.64,10.214,10.214,0,0,0,2.017-6.674" transform="translate(-3.68 -19.018)"/>
      <path id="パス_6488" data-name="パス 6488" class="cls-6" d="M58.573,151.059a7.218,7.218,0,0,1-6.872.342,10.288,10.288,0,0,1-3.986-4.107,8.981,8.981,0,0,1-.55-4.279,5.4,5.4,0,0,1,.932-1.979c1.04-1.41-.085-2.005,2.767-4.433.866-.737,5.389-3.812,10.143-1.467,4.179,2.061,2.844,13.013-2.434,15.922" transform="translate(-4.458 -12.71)"/>
      <path id="パス_6489" data-name="パス 6489" class="cls-5" d="M50.711,134.363a5.448,5.448,0,0,1,4.117-1.388c2.148.266,2.846-.99,4.952-.286a11.806,11.806,0,0,1,5.8,4.107c1.321,2.278.906,3.653,1.072,5.08.3,2.587,3.848,9.447-6.095,10.777-.923.123-1.763-.7-1.63-2.494.332-2.128,1.488-1.711,2.427-2.294.964-.6,1.076-2.588-.332-2.427-1.163.133-1.253-.534-1.3-2.893-.053-2.876-12.335-1.877-9.013-8.181" transform="translate(-4.747 -12.54)"/>
      <path id="パス_6490" data-name="パス 6490" class="cls-9" d="M59.213,141.487c-.645-.238-1.256-.17-1.133.427a12.645,12.645,0,0,0,.521,1.934c.149.3.335.665.948-.05a4.016,4.016,0,0,1,1.106-1.029c.406-.273.4-.195,1.131.219s1.286.79,1.6.54.318-.723.137-1.562-.149-1.689-.638-1.357a7.55,7.55,0,0,0-1.222,1.038,1.022,1.022,0,0,1-1.08.317,7.764,7.764,0,0,1-1.369-.476" transform="translate(-5.497 -13.303)"/>
      <path id="パス_6491" data-name="パス 6491" class="cls-9" d="M60.811,141.567a.736.736,0,0,0-.277.89c.147.533.315.826.518.856.382.056.426-.024.6-.359s.109-.614-.132-1.047-.435-.426-.709-.34" transform="translate(-5.726 -13.397)"/>
      <path id="パス_6492" data-name="パス 6492" class="cls-7" d="M41.492,182.272c1.571-1.038,7.542-.909,11-1.3,3.354-.382,5.053.167,8.727-.722,2.873-.7,2.09,2.6,5.412,9.24,2.195,4.389,7.9,10.562,6.184,12.071s-5.964,3.51-8.375,2.854-3.18-.85-5.989.538c-2.453,1.21-6.613-.018-9.876-.3a18.315,18.315,0,0,0-6.584.5,10.339,10.339,0,0,1-7.881-.9c-1-.8-.988-4.733,2.494-9.777s2.955-10.124,4.888-12.2" transform="translate(-3.175 -17.054)"/>
      <path id="パス_6493" data-name="パス 6493" class="cls-9" d="M56.31,187.016c-.162-1.513-.6-2.367.93-3.2a17.464,17.464,0,0,1,4.4-1.934,15.988,15.988,0,0,0,3.818-1c1.472-.638,3.09-1.47,3.619-.8s2.438,5.693,2.42,7.3.324,3.026-1.286,3.1-2.242.731-4.306,1.557-3.328,1.946-4.758,1.929-3.229,1.192-3.295-.98-1.549-5.305-1.542-5.966" transform="translate(-5.313 -17.023)"/>
      <path id="パス_6494" data-name="パス 6494" class="cls-9" d="M54.13,171.7c-3.269-6.492-4.948-16.454-5.518-20.435a.445.445,0,0,0-.471-.4.424.424,0,0,0-.34.507c.577,4.032,2.28,14.125,5.618,20.753a71.932,71.932,0,0,1,4.238,10.533c.239-.176.469-.353.687-.533A72.527,72.527,0,0,0,54.13,171.7" transform="translate(-4.524 -14.28)"/>
      <path id="パス_6495" data-name="パス 6495" class="cls-7" d="M69.156,144.071c-.129-1.529,1.387-3.388,1.219-5.585-.406-5.328-4.667-9.875-9.274-9.867a22.157,22.157,0,0,0-5.332,1.508c4.089,4.911,8.254,9.945,13.386,13.944" transform="translate(-5.279 -12.175)"/>
      <path id="パス_6496" data-name="パス 6496" class="cls-9" d="M69.008,144.229c-5.132-4-9.3-9.033-13.386-13.944-.139.057-.263.11-.355.152-.395.182-.746.359-1.066.521,4.131,5.6,9.492,11.7,15.3,14.754a7.184,7.184,0,0,1-.439-1.175,2.088,2.088,0,0,1-.05-.309" transform="translate(-5.131 -12.333)"/>
      <path id="パス_6497" data-name="パス 6497" class="cls-7" d="M53.375,130.94c-1.357.686-2.18,1.112-3.484.6-1.613-.637-4.706-2.087-4.386-1.128a9.454,9.454,0,0,0,3.5,3.5s4.973,2.9,7.12,4.4a98.228,98.228,0,0,1,9.687,8.235c2.225,2.287,4.538,5.562,4.5,3.651-.03-1.474-1.01-3.1-1.641-4.493-5.8-3.056-11.166-9.155-15.3-14.754" transform="translate(-4.305 -12.315)"/>
      <path id="パス_6498" data-name="パス 6498" class="cls-5" d="M242.764,116.7c-.256-1.664-1.28-4.1-.64-6.017s-1.024-3.712,2.3-4.1,7.3-1.024,10.113-1.024,4.225-.385,4.865,1.535a40.686,40.686,0,0,1,1.279,7.425c.256,2.433.9,3.457-.9,3.329s-2.56-.256-2.56-3.584.9-6.145-.9-6.273-6.528.256-8.192.384-3.329-.255-3.073,1.793.129,5.888.384,7.168-2.048,2.176-2.688-.64" transform="translate(-22.9 -9.99)"/>
      <path id="パス_6499" data-name="パス 6499" class="cls-6" d="M192.688,94.03c-.154,2.03-.157,2.83.385,3.562a6.457,6.457,0,0,1,.536,3.255c-.522,2.185-.882,1.382-1.59.531-.473-.568-.471-.511-.974.4s-1.622,5.6-2.249,6.555-1.2,2.206-2.143,1.831.233-2.117-.136-2.773-.977-.163-2.1.1-1.033-.455-1.258-1.623.062-1.309-.686-1.988-.638-.98-.387-1.877,2.017-2.668,3.412-4.295,2.142-2.715,1.923-4.6c-.014-.117,6.8-36.036,6.8-36.273,1.042-3.315,7.3,5.1,5.068,11.364-.161.9-6.578,25.512-6.6,25.831" transform="translate(-17.219 -5.309)"/>
      <path id="パス_6500" data-name="パス 6500" class="cls-6" d="M216.439,27.5c-.228,0-3.217.24-3.5.213a23.988,23.988,0,0,1-.757,3.021c-.283.628-2.334,4.224-2.617,4.538,3.315,3.006,7.926,2.589,10.137-.153-.6-.311-2.435-3.693-2.7-4.93-.193-.907-.565-2.348-.566-2.689" transform="translate(-19.838 -2.603)"/>
      <path id="パス_6501" data-name="パス 6501" class="cls-6" d="M223.636,20.052c1.375-6.1.716-13.781-6.344-14.9s-10.525,6.4-11.19,12.612c-.272-.4-1.387-.664-1.554.348a3.626,3.626,0,0,0,.426,2.152,3.691,3.691,0,0,0,1.722,1.315,9,9,0,0,0,1.42,4.053,10.012,10.012,0,0,0,5.5,3.78c1.831.343,4.406-1.029,5.826-2.207a13.276,13.276,0,0,0,2.905-3.37,4,4,0,0,0,2-.762c.674-.577,1.354-2.348,1.012-2.824a1.3,1.3,0,0,0-1.719-.2" transform="translate(-19.36 -0.478)"/>
      <path id="パス_6502" data-name="パス 6502" class="cls-5" d="M219.982,1.884A5.567,5.567,0,0,0,214.767.1c-2.556.521-4.1,1.6-4.739,2.892a8.489,8.489,0,0,1-3.715,3.624c-1.686.813-1.589,6.556-1,8.282s.456,2.463.941,2.541-.021-.821.472-1.063,1.024-4.725,1.984-5.922,1.695-.424,2.544.065c1.11.638,3.088-2.131,4.137.26.627,1.427,2.621.321,3.143-.523s1.416-1.1,1.952-.454a8.6,8.6,0,0,1,.8,3.008,7.528,7.528,0,0,0,2.091,3.8c.683.488.381.817.3,1.593s-.369,2.247.822.429a21.98,21.98,0,0,0,3-8.6c.1-2.556-1.994-6.089-3.918-6.509s-3.3-.649-3.6-1.637" transform="translate(-19.399 0)"/>
      <path id="パス_6503" data-name="パス 6503" class="cls-6" d="M184.069,220.007c6.323-.492,1.433-6.4,4.486-11.843,0,0,3.59-2.582,4.47-.163.672,1.843,1.531,8.878,1.778,13.691a10.483,10.483,0,0,1-10.734-1.686" transform="translate(-17.424 -19.592)"/>
      <path id="パス_6504" data-name="パス 6504" class="cls-5" d="M183.023,221.375l.043,0a10.483,10.483,0,0,0,10.734,1.686,31.106,31.106,0,0,1,.027,3.634c-.282,3.547-11.854,3.72-16.966.779-5.867-3.373-4.275-5.333,6.162-6.095" transform="translate(-16.422 -20.955)"/>
      <path id="パス_6505" data-name="パス 6505" class="cls-6" d="M232.761,216.243c-.531-3.232-.238-7.524-.238-10.638-3.074-2.305-5.379-2.305-5.635,4.1s-1.025,9.733-4.867,11.782l-.105.058a16.464,16.464,0,0,0,10.845-5.3" transform="translate(-21.007 -19.33)"/>
      <path id="パス_6506" data-name="パス 6506" class="cls-5" d="M232.2,217.5a16.464,16.464,0,0,1-10.845,5.3c-3.8,2.04-7.043,4.565-4.5,5.834,2.561,1.28,6.147,1.024,9.477-.769s8.2-4.611,6.66-7.684a9.559,9.559,0,0,1-.787-2.682" transform="translate(-20.442 -20.589)"/>
      <path id="パス_6507" data-name="パス 6507" class="cls-10" d="M197.5,93.831c-.288,1.344-4.226,36.98-5.379,40.439s-5.16,69.738-5.16,70.795,3.152,2,4.4,2,3.849.534,4.535-1.468c1.734-5.067,15.818-73.153,16.011-75.17s1.057-4.034,1.248,0,9.392,72.542,9.68,73.215,5.294.177,6.446.177,1.2-.22,1.911-3.512c.979-4.534,3.85-46.444,3.76-49.805s-1.53-53.49-2.683-55.657S197.5,93.831,197.5,93.831" transform="translate(-17.699 -8.853)"/>
      <path id="パス_6508" data-name="パス 6508" class="cls-6" d="M249.43,95.278c.111.866,4.059,1.276,4.634,3.173s1.117,6.029-.753,7.56-4.636.261-5.332.281-2.73-.135-3.191-1.078-1.285-4.777-.357-6.583c.76-1.48-4.831-17.587-5.274-19.4-.833-3.392-8.032-19.275-9.665-23.875,2.236-.23,8.833-.288,11.009-.768.32,1.9,3.18,11.625,5.313,21.186,2.146,9.619,3.563,19.075,3.618,19.5" transform="translate(-21.724 -5.168)"/>
      <path id="パス_6509" data-name="パス 6509" class="cls-7" d="M230.861,61.478c-.851-4.144,11.009-1.152,8.32-6.657a84.625,84.625,0,0,0-6.144-10.369c-2.079-2.908-5.377-6.4-8.961-8.065-2.944-1.792-5.921-2.544-6.786-2.3-.581.162-4.782,2.444-5.454,2.492a7.521,7.521,0,0,1-2.866-1.852c-1.332-1.446-6.872,4.342-8.257,6.08a30.389,30.389,0,0,0-6.432,13.058c-1.152,4.32.768,4.032,1.919,5.473,1.321,1.65.111,6.092-.191,11.424-.522,9.195-2.166,23.4-2.08,24.45.256,3.136,14.3.9,16.166.292s2.111,1.919,7.3,2.048c6.08-.7,7.073-.664,13.021-1.381,5.313-.64,4.841-4.659,3.649-8.192-.6-1.792-2.326-22.241-3.2-26.5" transform="translate(-18.358 -3.222)"/>
      <path id="パス_6510" data-name="パス 6510" class="cls-5" d="M209.02,34c.313-.056,4.207,1.692,4.207,2.425s-1.251,2.482-1.46,2.989-5.059-2.876-5.633-3.046,1.373-2.088,2.886-2.369" transform="translate(-19.503 -3.219)"/>
      <path id="パス_6511" data-name="パス 6511" class="cls-5" d="M218.851,33.135c-.335.048-5.394,2.6-5.142,3.353a15.522,15.522,0,0,0,1.833,3.033c.385.448,6.129-4.111,6.65-4.478s-1.717-2.132-3.341-1.908" transform="translate(-20.229 -3.135)"/>
      <path id="パス_6512" data-name="パス 6512" class="cls-5" d="M212.982,42.124a.485.485,0,1,1-.068.683.485.485,0,0,1,.068-.683" transform="translate(-20.145 -3.977)"/>
      <path id="パス_6513" data-name="パス 6513" class="cls-5" d="M212.982,93.017a.485.485,0,1,1-.068.683.485.485,0,0,1,.068-.683" transform="translate(-20.145 -8.795)"/>
      <path id="パス_6514" data-name="パス 6514" class="cls-5" d="M212.982,82.839a.485.485,0,1,1-.068.683.485.485,0,0,1,.068-.683" transform="translate(-20.145 -7.831)"/>
      <path id="パス_6515" data-name="パス 6515" class="cls-5" d="M212.982,72.66a.485.485,0,1,1-.068.683.485.485,0,0,1,.068-.683" transform="translate(-20.145 -6.868)"/>
      <path id="パス_6516" data-name="パス 6516" class="cls-5" d="M212.982,62.481a.485.485,0,1,1-.068.683.485.485,0,0,1,.068-.683" transform="translate(-20.145 -5.904)"/>
      <path id="パス_6517" data-name="パス 6517" class="cls-5" d="M212.982,52.3a.485.485,0,1,1-.068.684.485.485,0,0,1,.068-.684" transform="translate(-20.145 -4.941)"/>
      <rect id="長方形_656" data-name="長方形 656" class="cls-5" width="7.552" height="10.113" rx="1.177" transform="translate(199.51 49.999)"/>
      <path id="パス_6518" data-name="パス 6518" class="cls-9" d="M233.627,121.1c-1.047.907-2.024,2.038-3.513,3.444-3.372,3.185-4.309,8.15-4.5,14.145-.749,5.246.375,16.674,2.624,17.8s7.774-.094,11.147-.655c.41-.07,1.2-.2,2.262-.37-.579-10.993-.311-21.93-4.615-32.452-.341-1.022-1.739-1.832-3.408-1.909" transform="translate(-21.336 -11.464)"/>
      <path id="パス_6519" data-name="パス 6519" class="cls-10" d="M278.375,136.831c.187-7.682-1.124-8.056-6-15.55s-9.274-5.714-17.892-5.9-9.648,1.779-14.519,2.716a10.582,10.582,0,0,0-5.48,2.458c1.668.077,3.066.886,3.407,1.909,4.3,10.522,4.038,21.459,4.616,32.452,7.714-1.255,30.318-4.9,34.926-5.719,5.246-.937.75-4.683.937-12.365" transform="translate(-22.197 -10.916)"/>
    </g>
    <g id="グループ_751" data-name="グループ 751" transform="translate(-1753.406 2935.105)">
      <g id="グループ_750" data-name="グループ 750" class="cls-11">
        <path id="パス_7253" data-name="パス 7253" class="cls-5" d="M55.958,48.164c.974.762,2.013,1.455,2.912,2.3,2.332,2.189,4.818,4.02,8.229,2.989a5.4,5.4,0,0,0,2.836-1.938c2.584-4.006,3.511-10.357,2.461-16.1-1.778,1.3-3.425,2.482-5.055,3.692-2.952,2.193-6.459,1.422-7.837-1.94-2.59-6.317-.089-13.13,7.425-15.591,2.669-.874,6.886,1.538,7.706,4.263a13.185,13.185,0,0,1,.509,3.647c.037,4.185.032,8.373-.072,12.557-.1,4.045-1.643,7.715-3.491,11.2a5.448,5.448,0,0,1-3.033,2.417c-5.308,1.493-10.916-1.52-13.111-6.8l.521-.7m10.45-24.178a8.925,8.925,0,0,0-5.03,11.792c.645,1.539,1.734,2.425,3.417,2.11,2.669-.5,7.356-5.552,7.81-8.269.617-3.7-2.879-6.874-6.2-5.633"/>
        <path id="パス_7254" data-name="パス 7254" class="cls-5" d="M100.393,23.928c2.537,6.232-.088,12.294-6.215,14.879C90.05,40.549,83.8,36.161,83.434,32.736c-.61-5.678.219-10.848,5.172-14.579,2.179-1.642,3.3-1.766,5.659-.345,3.738,2.249,5.111,3.62,6.128,6.116m-1.779.569a8.2,8.2,0,0,0-.753-1.579c-2.52-3.626-7.769-5.261-10.673-.668A12.7,12.7,0,0,0,85.861,32.9c.81,2.8,5.02,4.638,7.584,3.684,4.893-1.821,7.176-6.81,5.169-12.086"/>
        <path id="パス_7255" data-name="パス 7255" class="cls-5" d="M117.665,22.368c-.561-.432-1.1-.674-1.074-.851q1.187-10.212,2.5-20.407c.047-.365.537-.672.911-1.11,1.139,3.433-.367,17.817-2.335,22.368"/>
        <path id="パス_7256" data-name="パス 7256" class="cls-5" d="M109.545,23.2c-.55-.493-1.4-.909-1.382-1.29.261-6.354.622-12.7,1.006-19.054.015-.245.491-.462.768-.706,1.012,2.035.781,17.694-.392,21.05"/>
        <path id="パス_7257" data-name="パス 7257" class="cls-5" d="M119.13,32.462c-1.975-1.977-1.7-4-1.789-6.079,2.558.917,3.079,2.578,1.789,6.079"/>
        <path id="パス_7258" data-name="パス 7258" class="cls-5" d="M110.562,32.214c-2.091-.057-2.547-1.189-2.563-2.4-.008-.524.72-1.058,1.114-1.587.459.43,1.151.783,1.321,1.307a10.469,10.469,0,0,1,.128,2.682"/>
        <path id="パス_7259" data-name="パス 7259" class="cls-12" d="M39.731,15.273c3.336.936,5.778,3.718,8.108,6.73-1.927.507-3.208-1.475-4.382-2.5-1.29-1.124-2.6-2.236-3.863-3.181-.377-.555.289-.6.137-1.051"/>
        <path id="パス_7260" data-name="パス 7260" class="cls-12" d="M46.084,32.153c-2.037.3-3.611-1.534-5.355-2.412C35.515,27.117,29.4,24.887,24.2,21.91c-.127-.248-.089-.416.069-.526a1.334,1.334,0,0,1,.818-.536c5.17,2.875,11.075,4.683,16.448,7.608,1.58.859,4,1.7,4.545,3.7"/>
        <path id="パス_7261" data-name="パス 7261" class="cls-12" d="M7.282,6.767a8.694,8.694,0,0,1,2.3,3.832c2.2-.739,3.082-2.794,5.752-3.066,1.138,3.021-3.082,3.408-3.068,6.516.725,2.4,4.451,3.648,3.068,6.9-2.266-.291-2.591-2.525-5.752-1.917-1.3,1.511-.785,4.835-4.216,4.216-.527-1.667.114-2.137,0-4.216C3.837,17.749,1.3,17.479,0,15.967c-.014-2.7,4.107-1.259,5.365-2.683.381-2.427-1.192-6.814,1.917-6.517"/>
        <path id="パス_7262" data-name="パス 7262" class="cls-12" d="M33.108.392a6.719,6.719,0,0,1,1.776,2.961c1.7-.571,2.382-2.159,4.445-2.369.878,2.334-2.382,2.633-2.371,5.034.56,1.853,3.439,2.819,2.371,5.332-1.752-.225-2-1.951-4.445-1.481-1,1.168-.607,3.735-3.257,3.257-.407-1.288.088-1.651,0-3.257-1.18-.992-3.142-1.2-4.145-2.369-.011-2.085,3.173-.973,4.145-2.073.3-1.875-.921-5.265,1.481-5.035"/>
      </g>
    </g>
  </g>
</svg>
