<svg xmlns="http://www.w3.org/2000/svg" width="182" height="463" viewBox="0 0 182 463">
  <defs>
    <style>
      .cls-1 {
        fill: #fff;
      }

      .cls-2, .cls-3 {
        fill: #306e1d;
      }

      .cls-3 {
        font-size: 24px;
        font-family: RoundedMplus1c-Bold, 'Rounded Mplus \31 c Bold';
        font-weight: 700;
        letter-spacing: 0.1em;
      }
    </style>
  </defs>
  <g id="グループ_1142" data-name="グループ 1142" transform="translate(181 8510)">
    <path id="パス_8759" data-name="パス 8759" class="cls-1" d="M18,0H28A18,18,0,0,1,46,18V308a18,18,0,0,1-18,18H18A18,18,0,0,1,0,308V18A18,18,0,0,1,18,0Z" transform="translate(-181 -8373)"/>
    <path id="パス_8758" data-name="パス 8758" class="cls-1" d="M18,0H28A18,18,0,0,1,46,18V272a18,18,0,0,1-18,18H18A18,18,0,0,1,0,272V18A18,18,0,0,1,18,0Z" transform="translate(-115 -8439)"/>
    <path id="パス_8757" data-name="パス 8757" class="cls-1" d="M18,0H28A18,18,0,0,1,46,18V394a18,18,0,0,1-18,18H18A18,18,0,0,1,0,394V18A18,18,0,0,1,18,0Z" transform="translate(-45 -8510)"/>
    <path id="パス_8756" data-name="パス 8756" class="cls-2" d="M-3.792-7.416A5.966,5.966,0,0,0-6.336-6.048a2.637,2.637,0,0,0-.864,1.9,2.264,2.264,0,0,0,.756,1.668A2.327,2.327,0,0,0-4.8-1.752a1.231,1.231,0,0,0,.948-.288A1.692,1.692,0,0,0-3.6-3.12V-7.272Q-3.6-7.464-3.792-7.416ZM-4.488.96A5.966,5.966,0,0,1-8.568-.516a4.653,4.653,0,0,1-1.68-3.636A5.169,5.169,0,0,1-8.556-7.9a10.073,10.073,0,0,1,4.764-2.448.241.241,0,0,0,.192-.264v-3.024a.191.191,0,0,0-.216-.216h-4.1a1.226,1.226,0,0,1-.9-.372,1.226,1.226,0,0,1-.372-.9,1.226,1.226,0,0,1,.372-.9,1.226,1.226,0,0,1,.9-.372h4.1a.191.191,0,0,0,.216-.216V-18a1.314,1.314,0,0,1,.408-.96,1.314,1.314,0,0,1,.96-.408h.312a1.314,1.314,0,0,1,.96.408A1.314,1.314,0,0,1-.552-18v1.392q0,.216.192.216H3.432a1.266,1.266,0,0,1,.912.372,1.207,1.207,0,0,1,.384.9,1.207,1.207,0,0,1-.384.9,1.266,1.266,0,0,1-.912.372H-.36q-.192,0-.192.216v2.592q0,.192.216.192.384-.024,1.224-.024A9.247,9.247,0,0,1,6.624-9.216,4.9,4.9,0,0,1,8.808-5.208q0,5.112-5.52,6.264a1.33,1.33,0,0,1-1.056-.2,1.481,1.481,0,0,1-.624-.9L1.584-.12a1.227,1.227,0,0,1,.18-.984,1.3,1.3,0,0,1,.828-.576A4.479,4.479,0,0,0,4.944-2.892,3.092,3.092,0,0,0,5.688-5.04,2.5,2.5,0,0,0,4.38-7.116,6.185,6.185,0,0,0,.888-7.992q-.84,0-1.224.024a.191.191,0,0,0-.216.216v4.8A4.252,4.252,0,0,1-1.416.108,4.341,4.341,0,0,1-4.488.96ZM8.4-16.3q1.3,1.752,2.256,3.288a1.241,1.241,0,0,1,.156,1,1.222,1.222,0,0,1-.588.8,1.345,1.345,0,0,1-1.008.132,1.3,1.3,0,0,1-.816-.588q-1.152-1.8-2.112-3.12a1.286,1.286,0,0,1-.24-.96,1.2,1.2,0,0,1,.5-.84,1.34,1.34,0,0,1,1-.228A1.245,1.245,0,0,1,8.4-16.3ZM7.968,13.92q-.168,0-.12.192A1.228,1.228,0,0,1,7.8,15.12a1.332,1.332,0,0,1-.768.672l-.216.072a1.43,1.43,0,0,1-1.044-.06,1.27,1.27,0,0,1-.708-.756q-.072-.168-.192-.48t-.192-.456a.264.264,0,0,0-.264-.192H3.6a.488.488,0,0,0-.36.144,11.492,11.492,0,0,1-1.128,1.008,1.52,1.52,0,0,1-1.068.312,1.587,1.587,0,0,1-1.02-.48l-.864-.84a.461.461,0,0,0-.336-.144H-2.5q-.192,0-.144.192a1.259,1.259,0,0,1-.036,1.008,1.285,1.285,0,0,1-.756.672l-.24.072a1.43,1.43,0,0,1-1.044-.06,1.27,1.27,0,0,1-.708-.756l-.36-.936a.28.28,0,0,0-.288-.192h-.456a.415.415,0,0,0-.336.192A15.5,15.5,0,0,1-8.3,15.744a1.363,1.363,0,0,1-1,.4,1.455,1.455,0,0,1-1-.42l-.048-.072a1.274,1.274,0,0,1-.384-.936,1.355,1.355,0,0,1,.384-.96A15.587,15.587,0,0,0-8.3,11.016a2.062,2.062,0,0,1,.852-.8,1.759,1.759,0,0,1,1.116-.18l.528.1a.81.81,0,0,1,.6.42.742.742,0,0,1,.024.708q-.048.144.1.144h4.08a1.274,1.274,0,0,1,.936.384,1.274,1.274,0,0,1,.384.936.1.1,0,0,0,.06.084q.06.036.084.012a9.878,9.878,0,0,0,1.752-1.872,1.919,1.919,0,0,1,2.016-.912l.5.1a.776.776,0,0,1,.588.42.764.764,0,0,1,.012.708q-.048.144.1.144h4.2a1.187,1.187,0,0,1,.888.372,1.247,1.247,0,0,1,.36.9A1.23,1.23,0,0,1,9.624,13.92Zm-17.9,8.448a1.113,1.113,0,0,1-.828-.36,1.171,1.171,0,0,1-.348-.84,1.131,1.131,0,0,1,.348-.828,1.131,1.131,0,0,1,.828-.348h6.96a.191.191,0,0,0,.216-.216V19.2q0-.192-.216-.192h-5.16a1,1,0,0,1-.756-.312,1.066,1.066,0,0,1-.3-.768,1.025,1.025,0,0,1,.3-.756,1.025,1.025,0,0,1,.756-.3h5.16q.216,0,.216-.24a1.275,1.275,0,0,1,.408-.948,1.333,1.333,0,0,1,.96-.4h.624a1.314,1.314,0,0,1,.96.408,1.314,1.314,0,0,1,.408.96.191.191,0,0,0,.216.216h5.76a.488.488,0,0,0,.36-.144l.048-.048a.069.069,0,0,1,.048-.024,1.774,1.774,0,0,1,2.136-.192l.048.024a1,1,0,0,1,.492.78.927.927,0,0,1-.324.852q-1.008.864-2.232,1.728a.069.069,0,0,0-.036.084q.012.06.06.06h2.76a1.188,1.188,0,0,1,1.176,1.176,1.171,1.171,0,0,1-.348.84,1.113,1.113,0,0,1-.828.36H3.192a.967.967,0,0,0-.384.072q-1.1.576-1.68.84a.081.081,0,0,0-.024.06q0,.036.024.036H7.752A1.394,1.394,0,0,1,9.12,24.744v6.168A1.394,1.394,0,0,1,7.752,32.28h-1.2a.615.615,0,0,1-.624-.624.085.085,0,0,0-.1-.1H-4.3a.085.085,0,0,0-.1.1.6.6,0,0,1-.18.444.6.6,0,0,1-.444.18H-6.24a1.314,1.314,0,0,1-.96-.408,1.314,1.314,0,0,1-.408-.96v-4.1q0-.192-.192-.144l-.552.156-.552.156a1.38,1.38,0,0,1-1.068-.1,1.5,1.5,0,0,1-.732-.816l-.024-.024a1.148,1.148,0,0,1,.06-.984,1.2,1.2,0,0,1,.78-.624A64.5,64.5,0,0,0-3.456,22.44a.069.069,0,0,0,.024-.048q0-.024-.048-.024ZM5.928,29.256v-.7q0-.192-.216-.192H-4.2a.17.17,0,0,0-.192.192v.7q0,.216.192.216H5.712A.191.191,0,0,0,5.928,29.256ZM.6,19.176v.6a.191.191,0,0,0,.216.216H1.848a1.091,1.091,0,0,0,.36-.1q.792-.408,1.464-.84A.081.081,0,0,0,3.7,19q0-.036-.048-.036H.816A.191.191,0,0,0,.6,19.176ZM5.712,25.44H-3.912a.824.824,0,0,0-.336.048.222.222,0,0,0-.144.24V26.3A.17.17,0,0,0-4.2,26.5H5.712q.216,0,.216-.192v-.648A.191.191,0,0,0,5.712,25.44Zm-1.1,23.3a1.348,1.348,0,0,1,1.056-.1,1.318,1.318,0,0,1,.816.672q.264.48.792,1.488A1.288,1.288,0,0,1,7.32,51.84a1.318,1.318,0,0,1-.7.768,1.349,1.349,0,0,1-1.056.048,1.411,1.411,0,0,1-.792-.7q-.12-.216-.768-1.416a1.234,1.234,0,0,1-.1-1.008,1.317,1.317,0,0,1,.672-.792Zm5.712-.288q.792,1.512.816,1.56a1.311,1.311,0,0,1-.6,1.8l-.072.048a1.412,1.412,0,0,1-1.848-.624Q8.5,51,8.232,50.5t-.408-.744a1.319,1.319,0,0,1-.108-1.032,1.2,1.2,0,0,1,.66-.792l.072-.024A1.386,1.386,0,0,1,9.5,47.8,1.276,1.276,0,0,1,10.32,48.456ZM-9,45.84a1.293,1.293,0,0,1-.948-.4,1.293,1.293,0,0,1-.4-.948v-.168a1.314,1.314,0,0,1,.408-.96,1.314,1.314,0,0,1,.96-.408q8.208-.024,16.968-.408a1.346,1.346,0,0,1,.984.36,1.286,1.286,0,0,1,.456.936v.168a1.362,1.362,0,0,1-.348,1,1.466,1.466,0,0,1-.948.492q-5.112.648-7.668,2.664a6.069,6.069,0,0,0-2.556,4.92,5.055,5.055,0,0,0,1.62,3.984,6.245,6.245,0,0,0,4.308,1.44,12.764,12.764,0,0,0,1.584-.1,1.4,1.4,0,0,1,1,.288,1.28,1.28,0,0,1,.516.888l.024.216a1.386,1.386,0,0,1-.264,1.02,1.255,1.255,0,0,1-.888.54,20.711,20.711,0,0,1-2.136.12,9.808,9.808,0,0,1-6.7-2.184,7.446,7.446,0,0,1-2.5-5.9,7.618,7.618,0,0,1,1.356-4.356A10.545,10.545,0,0,1-.288,45.7q.024,0,.024-.048H-.288Q-4.008,45.792-9,45.84ZM10.272,83.352a1.442,1.442,0,0,1,.936.564,1.46,1.46,0,0,1,.312,1.044,25.012,25.012,0,0,1-.648,4.524,4.477,4.477,0,0,1-1.008,2.088,2.289,2.289,0,0,1-1.584.516q-1.944,0-3.312-2.52t-1.512-7.7a.191.191,0,0,0-.216-.216H-7.8a1.207,1.207,0,0,1-.888-.36,1.207,1.207,0,0,1-.36-.888,1.207,1.207,0,0,1,.36-.888,1.207,1.207,0,0,1,.888-.36H5.28a1.3,1.3,0,0,1,.96.42,1.353,1.353,0,0,1,.408.972,31.235,31.235,0,0,0,.312,4.344,12.686,12.686,0,0,0,.624,2.7q.336.8.624.8.12,0,.2-.216a6.27,6.27,0,0,0,.192-1.1q.108-.888.252-2.616a1.116,1.116,0,0,1,.456-.864A1.162,1.162,0,0,1,10.272,83.352ZM-10.2,78.624a1.221,1.221,0,0,1-.54-.852,1.217,1.217,0,0,1,.252-.972A23.966,23.966,0,0,0-7.32,71.016a1.573,1.573,0,0,1,.708-.828,1.588,1.588,0,0,1,1.068-.18l.456.1a1.031,1.031,0,0,1,.72.5.967.967,0,0,1,.072.864q-.048.168.12.168H8.4a1.27,1.27,0,0,1,1.272,1.272,1.266,1.266,0,0,1-.372.912,1.207,1.207,0,0,1-.9.384H-5.232a.282.282,0,0,0-.288.168q-.336.672-.528,1.008-.1.144.12.144H7.1a1.083,1.083,0,0,1,.792.336,1.144,1.144,0,0,1,.012,1.608,1.072,1.072,0,0,1-.8.336H-5.04a1.333,1.333,0,0,1-.96-.4,1.275,1.275,0,0,1-.408-.948v-.24a.055.055,0,0,0-.036-.06.054.054,0,0,0-.06.012A23.238,23.238,0,0,1-8.04,78.432a1.459,1.459,0,0,1-.936.552,1.38,1.38,0,0,1-1.056-.24Zm.6,10.848A28.889,28.889,0,0,0-5.16,87a.111.111,0,0,0,.072-.12.111.111,0,0,0-.072-.12q-1.584-1.1-2.592-1.728a1.222,1.222,0,0,1-.564-.828,1.192,1.192,0,0,1,.2-.972,1.457,1.457,0,0,1,.9-.576,1.335,1.335,0,0,1,1.044.192q1.632,1.008,3.312,2.208a.255.255,0,0,0,.312-.024A26.351,26.351,0,0,0-.36,82.992a1.519,1.519,0,0,1,.972-.456,1.28,1.28,0,0,1,1,.336l.072.048a1.26,1.26,0,0,1,.468.924,1.246,1.246,0,0,1-.348.972Q.624,86.04-.24,86.784a.151.151,0,0,0,.024.264q1.584,1.272,2.664,2.208a1.249,1.249,0,0,1,.468.912,1.23,1.23,0,0,1-.348.96,1.519,1.519,0,0,1-.972.456,1.324,1.324,0,0,1-1-.312q-1.92-1.632-3.048-2.5a.233.233,0,0,0-.312,0,31,31,0,0,1-5.472,3.1,1.433,1.433,0,0,1-1.092.048,1.485,1.485,0,0,1-.852-.72,1.177,1.177,0,0,1-.084-1A1.2,1.2,0,0,1-9.6,89.472Zm-.12,30.072a1.213,1.213,0,0,1-.96-.276,1.251,1.251,0,0,1-.48-.9,1.33,1.33,0,0,1,.3-.984,1.321,1.321,0,0,1,.876-.5h.1q.216-.048.216-.216V103.92a.148.148,0,0,0-.168-.168,1.092,1.092,0,0,1-.8-.324,1.063,1.063,0,0,1-.324-.78v-.216a1.266,1.266,0,0,1,.4-.924,1.266,1.266,0,0,1,.924-.4H.12a1.247,1.247,0,0,1,.9.36,1.346,1.346,0,0,1,.42.864.118.118,0,0,0,.06.108.08.08,0,0,0,.108-.012,1.376,1.376,0,0,1,.624-.144h7.2a1.333,1.333,0,0,1,.96.4,1.275,1.275,0,0,1,.408.948V105a28.462,28.462,0,0,1-3.36,10.368.276.276,0,0,0,.048.336,15.232,15.232,0,0,0,2.952,2.808,1.505,1.505,0,0,1,.48,1.944l-.168.288a1.2,1.2,0,0,1-.792.612,1.107,1.107,0,0,1-.96-.18,20.907,20.907,0,0,1-3.264-3.024q-.12-.12-.24.024a18.94,18.94,0,0,1-3.048,2.952,1.269,1.269,0,0,1-1.008.24,1.248,1.248,0,0,1-.864-.576l-.24-.36A1.371,1.371,0,0,1,.168,119.4a1.452,1.452,0,0,1,.576-.888,16.59,16.59,0,0,0,2.9-2.976.31.31,0,0,0,.024-.312A27.477,27.477,0,0,1,.84,107.616a1.382,1.382,0,0,1,.192-1.056,1.313,1.313,0,0,1,.864-.624l.216-.048a1.261,1.261,0,0,1,1,.18,1.3,1.3,0,0,1,.588.852,25.158,25.158,0,0,0,1.728,5.4.1.1,0,0,0,.168,0,25.691,25.691,0,0,0,2.04-7.128Q7.68,105,7.464,105H2.232a1.288,1.288,0,0,1-.912-.36,1.345,1.345,0,0,1-.432-.888q0-.168-.168-.12a1.385,1.385,0,0,1-.528.12.17.17,0,0,0-.192.192v16.968a1.314,1.314,0,0,1-.408.96,1.314,1.314,0,0,1-.96.408h-.36a1.275,1.275,0,0,1-.948-.408,1.333,1.333,0,0,1-.4-.96V118.8q0-.216-.216-.168Q-6.792,119.208-9.72,119.544Zm3-15.576v2.112a.191.191,0,0,0,.216.216h3.216a.191.191,0,0,0,.216-.216v-2.112a.191.191,0,0,0-.216-.216H-6.5A.191.191,0,0,0-6.72,103.968Zm0,4.92v2.184a.191.191,0,0,0,.216.216h3.216a.191.191,0,0,0,.216-.216v-2.184q0-.192-.216-.192H-6.5Q-6.72,108.7-6.72,108.888Zm0,4.992v2.376q0,.24.216.192l1.848-.288,1.368-.216a.235.235,0,0,0,.216-.24V113.88q0-.192-.216-.192H-6.5Q-6.72,113.688-6.72,113.88Zm-.672,30.24a1.39,1.39,0,0,1-.876-.588,1.329,1.329,0,0,1-.228-1.02q.576-3.312.792-4.824a1.548,1.548,0,0,1,.528-.948,1.318,1.318,0,0,1,1.008-.324l.408.048a1.251,1.251,0,0,1,.9.48,1.25,1.25,0,0,1,.276.984q-.312,2.28-.456,3.192v.048h.024l.024-.024a13.939,13.939,0,0,1,3.516-1.716,11.652,11.652,0,0,1,3.636-.636q3.576,0,5.268,1.4A5.248,5.248,0,0,1,9.12,144.48a5.6,5.6,0,0,1-2.688,4.956q-2.688,1.764-7.8,1.764-1.9,0-4.152-.192a1.353,1.353,0,0,1-.948-.48,1.318,1.318,0,0,1-.324-1.008v-.048a1.2,1.2,0,0,1,.468-.912,1.344,1.344,0,0,1,1-.312q2.76.24,3.96.24a10.024,10.024,0,0,0,5.1-1.068,3.283,3.283,0,0,0,1.788-2.94q0-2.952-3.84-2.952A13.113,13.113,0,0,0-4.7,143.736a3.351,3.351,0,0,1-2.5.432Zm3.408-12.192q4.44.48,8.712.552a1.275,1.275,0,0,1,.948.408,1.333,1.333,0,0,1,.4.96,1.352,1.352,0,0,1-1.344,1.344Q.1,135.12-4.32,134.64a1.324,1.324,0,0,1-.924-.528A1.322,1.322,0,0,1-5.52,133.1a1.267,1.267,0,0,1,.528-.888A1.438,1.438,0,0,1-3.984,131.928Zm8.712,36.336a1.348,1.348,0,0,1,1.056-.1,1.318,1.318,0,0,1,.816.672q.264.48.792,1.488a1.288,1.288,0,0,1,.048,1.032,1.318,1.318,0,0,1-.7.768,1.349,1.349,0,0,1-1.056.048,1.411,1.411,0,0,1-.792-.7q-.1-.216-.768-1.416a1.234,1.234,0,0,1-.1-1.008,1.317,1.317,0,0,1,.672-.792Zm5.712-.288q.792,1.512.816,1.56a1.311,1.311,0,0,1-.6,1.8l-.072.048a1.412,1.412,0,0,1-1.848-.624q-.144-.24-.408-.744t-.384-.744a1.319,1.319,0,0,1-.108-1.032,1.2,1.2,0,0,1,.66-.792l.072-.024a1.386,1.386,0,0,1,1.056-.108A1.276,1.276,0,0,1,10.44,167.976ZM-.432,172.92a2.04,2.04,0,0,0,.672-1.56,2,2,0,0,0-.672-1.548A2.467,2.467,0,0,0-2.16,169.2a2.467,2.467,0,0,0-1.728.612,2,2,0,0,0-.672,1.548,2,2,0,0,0,.672,1.548,2.467,2.467,0,0,0,1.728.612A2.5,2.5,0,0,0-.432,172.92Zm-9.1-7.32a1.226,1.226,0,0,1-.9-.372,1.226,1.226,0,0,1-.372-.9,1.266,1.266,0,0,1,.372-.912,1.207,1.207,0,0,1,.9-.384h9.24q.216,0,.216-.192v-1.08a1.333,1.333,0,0,1,.4-.96,1.275,1.275,0,0,1,.948-.408h.336a1.275,1.275,0,0,1,.948.408,1.333,1.333,0,0,1,.4.96v1.056a.191.191,0,0,0,.216.216H8.712a1.311,1.311,0,0,1,1.3,1.3,1.207,1.207,0,0,1-.384.9,1.266,1.266,0,0,1-.912.372H3.168a.191.191,0,0,0-.216.216v4.344a1.137,1.137,0,0,0,.1.408,8.376,8.376,0,0,1,.552,3.024,7.252,7.252,0,0,1-1.788,5.256q-1.788,1.848-5.892,2.5a1.246,1.246,0,0,1-1.008-.252,1.512,1.512,0,0,1-.576-.924l-.024-.1a1.218,1.218,0,0,1,.228-.972,1.325,1.325,0,0,1,.876-.54A9.394,9.394,0,0,0-.876,177.4a3.425,3.425,0,0,0,1.4-2.172.107.107,0,0,1,.012-.048.107.107,0,0,0,.012-.048.021.021,0,0,0-.024-.024H.48a4.822,4.822,0,0,1-3.12.984,4.96,4.96,0,0,1-3.576-1.332,4.5,4.5,0,0,1-1.392-3.4,4.467,4.467,0,0,1,1.4-3.408,5.094,5.094,0,0,1,3.636-1.32,5.389,5.389,0,0,1,2.4.552h.024l.048.024a.021.021,0,0,0,.024-.024v-1.368a.191.191,0,0,0-.216-.216Zm9.6,27.672H7.68a1.394,1.394,0,0,1,1.368,1.368v.072A1.394,1.394,0,0,1,7.68,196.08H.072a1.275,1.275,0,0,1-.948-.408,1.333,1.333,0,0,1-.4-.96v-.072a1.333,1.333,0,0,1,.4-.96A1.275,1.275,0,0,1,.072,193.272Zm-6.888,17.88a1.5,1.5,0,0,1-1.056-.252,1.386,1.386,0,0,1-.6-.9,42.476,42.476,0,0,1,0-17.28,1.386,1.386,0,0,1,.6-.9,1.5,1.5,0,0,1,1.056-.252l.456.048a1.1,1.1,0,0,1,.84.5,1.2,1.2,0,0,1,.192.984,40.992,40.992,0,0,0,0,16.512,1.2,1.2,0,0,1-.192.984,1.1,1.1,0,0,1-.84.5Zm10.824-.84A9.5,9.5,0,0,1-1.332,209a4.017,4.017,0,0,1-1.956-3.492,6.714,6.714,0,0,1,2.064-4.2,1.294,1.294,0,0,1,.984-.444,1.51,1.51,0,0,1,1.032.348l.12.072a1.137,1.137,0,0,1,.456.888,1.313,1.313,0,0,1-.336.96A4.031,4.031,0,0,0-.12,205.392q0,2.04,4.128,2.04a23.092,23.092,0,0,0,3.912-.36,1.358,1.358,0,0,1,1.56,1.08v.1a1.439,1.439,0,0,1-.216,1.056,1.248,1.248,0,0,1-.864.576A22.34,22.34,0,0,1,4.008,210.312Zm-5.64,27.576q0-.192-.192-.072a32.559,32.559,0,0,1-7.1,3.672A1.341,1.341,0,0,1-10,241.476a1.444,1.444,0,0,1-.78-.756l-.048-.12a1.147,1.147,0,0,1,0-.972,1.155,1.155,0,0,1,.72-.66,33.266,33.266,0,0,0,6.984-3.1.072.072,0,0,0,.012-.072.057.057,0,0,0-.06-.048H-9.24a1.254,1.254,0,0,1-.936-.4,1.286,1.286,0,0,1-.384-.924,1.286,1.286,0,0,1,.384-.924,1.254,1.254,0,0,1,.936-.4h7.392q.216,0,.216-.192v-.744a.191.191,0,0,0-.216-.216h-2.4a1.275,1.275,0,0,1-.948-.408,1.333,1.333,0,0,1-.4-.96v-7.344a1.333,1.333,0,0,1,.4-.96,1.275,1.275,0,0,1,.948-.408h1.872a.247.247,0,0,0,.264-.216.55.55,0,0,1,.048-.168.553.553,0,0,0,.048-.192,1.621,1.621,0,0,1,.6-.924,1.583,1.583,0,0,1,1.056-.324l.552.048a1.162,1.162,0,0,1,.864.456,1.076,1.076,0,0,1,.192.936.393.393,0,0,1-.024.1.393.393,0,0,0-.024.1q-.048.192.168.192h2.88a1.275,1.275,0,0,1,.948.408,1.333,1.333,0,0,1,.4.96v7.344a1.333,1.333,0,0,1-.4.96,1.275,1.275,0,0,1-.948.408h-2.4a.191.191,0,0,0-.216.216v.744q0,.192.216.192H9.24a1.254,1.254,0,0,1,.936.4,1.3,1.3,0,0,1,0,1.848,1.254,1.254,0,0,1-.936.4H3.168a.057.057,0,0,0-.06.048.072.072,0,0,0,.012.072,31.772,31.772,0,0,0,6.96,3.072,1.192,1.192,0,0,1,.756.672,1.093,1.093,0,0,1-.012.984l-.048.12a1.4,1.4,0,0,1-.768.744,1.419,1.419,0,0,1-1.056.024,31.749,31.749,0,0,1-7.152-3.7q-.168-.12-.168.1v3a1.293,1.293,0,0,1-.4.948,1.293,1.293,0,0,1-.948.4H-.288a1.293,1.293,0,0,1-.948-.4,1.293,1.293,0,0,1-.4-.948ZM-2.52,224.5v1.176a.191.191,0,0,0,.216.216H2.3a.191.191,0,0,0,.216-.216V224.5a.191.191,0,0,0-.216-.216H-2.3A.191.191,0,0,0-2.52,224.5Zm.216,5.232H2.3a.191.191,0,0,0,.216-.216V228.24q0-.192-.216-.192H-2.3q-.216,0-.216.192v1.272A.191.191,0,0,0-2.3,229.728Zm-8.088-7.392a1.4,1.4,0,0,1,.936-.5,1.336,1.336,0,0,1,1.032.288q1.1.864,1.9,1.56a1.34,1.34,0,0,1,.468.948,1.366,1.366,0,0,1-.324,1l-.024.024a1.249,1.249,0,0,1-.912.468,1.349,1.349,0,0,1-.984-.324q-.888-.768-1.92-1.56a1.252,1.252,0,0,1-.492-.888,1.2,1.2,0,0,1,.3-.96Zm1.248,9.48a1.227,1.227,0,0,1-1.032-.024,1.4,1.4,0,0,1-.744-.768,1.258,1.258,0,0,1,0-1.02,1.322,1.322,0,0,1,.744-.708q1.032-.408,2.568-1.152a1.234,1.234,0,0,1,1-.06,1.192,1.192,0,0,1,.732.684,1.386,1.386,0,0,1,.06,1.056,1.274,1.274,0,0,1-.684.768Q-8.064,231.384-9.144,231.816Zm19.488-9.5.024.024a1.326,1.326,0,0,1,.372.972,1.257,1.257,0,0,1-.444.948q-.792.7-1.9,1.56a1.435,1.435,0,0,1-1.044.3,1.525,1.525,0,0,1-.972-.492l-.048-.048a1.215,1.215,0,0,1-.312-.948,1.2,1.2,0,0,1,.48-.876q1.3-1.008,1.9-1.536a1.411,1.411,0,0,1,1-.336A1.333,1.333,0,0,1,10.344,222.312Zm-.1,6.84a1.275,1.275,0,0,1,.684.792A1.313,1.313,0,0,1,10.848,231l-.024.072a1.274,1.274,0,0,1-.768.684,1.2,1.2,0,0,1-1.008-.084q-1.08-.528-2.592-1.176a1.3,1.3,0,0,1-.648-1.752,1.493,1.493,0,0,1,.8-.744,1.374,1.374,0,0,1,1.068,0Q8.712,228.408,10.248,229.152ZM-.408,271.368q-4.08,0-5.64-1.98t-1.56-7.308q0-4.344.264-9.36a1.46,1.46,0,0,1,.444-.96,1.262,1.262,0,0,1,.972-.36h.576a1.28,1.28,0,0,1,.924.432,1.29,1.29,0,0,1,.348.96q-.24,5.16-.24,9.288a14.124,14.124,0,0,0,.42,3.948,3.051,3.051,0,0,0,1.212,1.824,4.532,4.532,0,0,0,2.28.468q4.152,0,6.768-5.664a1.467,1.467,0,0,1,.756-.732,1.351,1.351,0,0,1,1.044-.036l.312.144a1.308,1.308,0,0,1,.768.72,1.169,1.169,0,0,1,0,1.032Q5.952,271.368-.408,271.368Zm-5.4,18.024a6.645,6.645,0,0,0-1.8,4.68,4.751,4.751,0,0,0,.54,2.484,1.545,1.545,0,0,0,1.308.876A3.448,3.448,0,0,0-3.5,296.088a.286.286,0,0,0,.024-.336.541.541,0,0,1-.1-.192q-1.152-3.216-2.04-6.1Q-5.664,289.248-5.808,289.392ZM.48,286.968a10.018,10.018,0,0,0-3.408.552.221.221,0,0,0-.144.288q.672,2.3,1.632,5.184.048.144.168-.024a34.617,34.617,0,0,0,2.616-5.76.182.182,0,0,0-.012-.144.115.115,0,0,0-.108-.072Q.984,286.968.48,286.968Zm-6.552,13.44a3.814,3.814,0,0,1-3.156-1.668,7.6,7.6,0,0,1-1.26-4.668,9.954,9.954,0,0,1,.984-4.4,9.634,9.634,0,0,1,2.76-3.42.291.291,0,0,0,.144-.288q-.48-1.776-.7-2.688a1.341,1.341,0,0,1,.18-1.032,1.209,1.209,0,0,1,.852-.576l.216-.048a1.459,1.459,0,0,1,1.032.192,1.249,1.249,0,0,1,.6.84q.072.336.24.972t.216.876q.048.168.24.12a12.372,12.372,0,0,1,4.2-.7,13.449,13.449,0,0,1,1.7.1.2.2,0,0,0,.264-.168q.192-.648.576-2.04a1.415,1.415,0,0,1,.636-.864,1.347,1.347,0,0,1,1.044-.192l.192.048a1.3,1.3,0,0,1,.852.588,1.19,1.19,0,0,1,.156,1q-.336,1.392-.6,2.232a.2.2,0,0,0,.12.264,8.4,8.4,0,0,1,3.72,3.024,8,8,0,0,1,1.344,4.584,9.122,9.122,0,0,1-1.656,5.664A8.216,8.216,0,0,1,4.056,301.1a1.274,1.274,0,0,1-1.044-.168,1.421,1.421,0,0,1-.636-.888l-.048-.168a1.146,1.146,0,0,1,.156-.972,1.388,1.388,0,0,1,.828-.612q4.128-1.176,4.128-5.808a5.026,5.026,0,0,0-.78-2.76,5.312,5.312,0,0,0-2.2-1.92q-.144-.072-.24.12a29.279,29.279,0,0,1-4.98,9.348Q-3.5,300.408-6.072,300.408ZM.5,328.608a3.689,3.689,0,0,0,.336-1.32,1.3,1.3,0,0,0-.576-1.14,3.864,3.864,0,0,0-2.064-.4,3.5,3.5,0,0,0-1.836.4,1.142,1.142,0,0,0-.636.972q0,1.68,4.08,1.68H.24A.293.293,0,0,0,.5,328.608Zm-7.968-5.472a1.224,1.224,0,0,1-.948.048,1.26,1.26,0,0,1-.708-.624,1.278,1.278,0,0,1-.1-.972,1.258,1.258,0,0,1,.6-.78l10.128-6.12.024-.024-.024-.024H-6.72a1.286,1.286,0,0,1-.924-.384,1.254,1.254,0,0,1-.4-.936,1.254,1.254,0,0,1,.4-.936A1.286,1.286,0,0,1-6.72,312H5.88a1.374,1.374,0,0,1,.972.4,1.258,1.258,0,0,1,.42.948A2.1,2.1,0,0,1,6.1,315.36l-6.7,3.72v.024h.048a15.12,15.12,0,0,1,2.9-.312,8.161,8.161,0,0,1,5.2,1.416,4.872,4.872,0,0,1,1.764,4.032,6.2,6.2,0,0,1-2.472,5.268q-2.472,1.86-7.032,1.86a10.411,10.411,0,0,1-5.352-1.092A3.492,3.492,0,0,1-7.32,327.12a3.219,3.219,0,0,1,1.512-2.676,7.018,7.018,0,0,1,4.176-1.092,6.72,6.72,0,0,1,3.96.912,3.141,3.141,0,0,1,1.224,2.688,6.132,6.132,0,0,1-.12,1.08.082.082,0,0,0,.036.108.108.108,0,0,0,.108.012,3.659,3.659,0,0,0,2.376-3.624,2.879,2.879,0,0,0-1.164-2.5,6.426,6.426,0,0,0-3.708-.84A20.368,20.368,0,0,0-7.464,323.136Z" transform="translate(-22 -8457)"/>
    <g id="グループ_1141" data-name="グループ 1141" transform="translate(-1422 -8844)">
      <text id="肉_と_魚_メ_イ_ン_の" data-name="肉
と
魚
Ｗ
メ
イ
ン
の" class="cls-3" transform="translate(1330 459)"><tspan x="-12" y="0">肉</tspan><tspan x="-12" y="30">と</tspan><tspan x="-12" y="60">魚</tspan><tspan x="-12" y="90">Ｗ</tspan><tspan x="-12" y="120">メ</tspan><tspan x="-12" y="150">イ</tspan><tspan x="-12" y="180">ン</tspan><tspan x="-12" y="210">の</tspan></text>
    </g>
    <path id="パス_8755" data-name="パス 8755" class="cls-2" d="M-7.92-12.72a1.314,1.314,0,0,1-.96-.408,1.314,1.314,0,0,1-.408-.96v-.144a1.314,1.314,0,0,1,.408-.96,1.314,1.314,0,0,1,.96-.408h4.3a.17.17,0,0,0,.192-.192q.072-1.944.072-2.04a1.314,1.314,0,0,1,.408-.96,1.314,1.314,0,0,1,.96-.408h.384a1.333,1.333,0,0,1,.96.4,1.275,1.275,0,0,1,.408.948q0,.12-.072,2.064A.17.17,0,0,0-.12-15.6H7.44a1.314,1.314,0,0,1,.96.408,1.314,1.314,0,0,1,.408.96v1.1q0,3.7-.144,6.12a35.8,35.8,0,0,1-.42,3.984,5.888,5.888,0,0,1-.828,2.34A2.9,2.9,0,0,1,6.2.372,4.5,4.5,0,0,1,4.488.648Q3.144.648.912.456A1.316,1.316,0,0,1-.012-.036a1.321,1.321,0,0,1-.324-1l.024-.216a1.291,1.291,0,0,1,.48-.912,1.306,1.306,0,0,1,.984-.312q1.752.12,2.376.12a1.271,1.271,0,0,0,1.14-.564A6.733,6.733,0,0,0,5.244-5.46q.2-1.98.2-6.108v-.96q0-.192-.216-.192H-.312q-.168,0-.216.216A23.433,23.433,0,0,1-2.388-4.98,16.1,16.1,0,0,1-6.432.264,1.342,1.342,0,0,1-7.44.576,1.4,1.4,0,0,1-8.4.1L-8.568-.1a1.193,1.193,0,0,1-.336-.96,1.326,1.326,0,0,1,.456-.912A12.852,12.852,0,0,0-5.184-6.192a19.726,19.726,0,0,0,1.536-6.336.17.17,0,0,0-.192-.192Zm16.608,28.3a1.269,1.269,0,0,1,.864.552,1.245,1.245,0,0,1,.192,1.008Q8.28,23.712,4.4,26.952t-11.22,4.1a1.324,1.324,0,0,1-1.02-.276,1.43,1.43,0,0,1-.54-.924l-.048-.36a1.162,1.162,0,0,1,.24-.96,1.294,1.294,0,0,1,.888-.5q6.384-.744,9.552-3.312T6.7,16.632a1.441,1.441,0,0,1,1.632-1.1Zm-1.752-1.32a1.254,1.254,0,0,1-.948.06,1.211,1.211,0,0,1-.732-.612q-.12-.216-.336-.636t-.336-.636a1.189,1.189,0,0,1-.084-.948,1.238,1.238,0,0,1,1.584-.8,1.335,1.335,0,0,1,.756.648q.12.216.336.636t.336.636a1.19,1.19,0,0,1,.072.96A1.158,1.158,0,0,1,6.936,14.256Zm3.576-3.288.348.7.324.648a1.19,1.19,0,0,1,.072.96,1.244,1.244,0,0,1-.648.72,1.216,1.216,0,0,1-.972.072,1.335,1.335,0,0,1-.756-.648q-.216-.432-.7-1.3a1.252,1.252,0,0,1-.084-.972,1.2,1.2,0,0,1,.636-.732,1.3,1.3,0,0,1,1.008-.072A1.259,1.259,0,0,1,10.512,10.968Zm-18.768,9.7a1.311,1.311,0,0,1-.876-.552,1.221,1.221,0,0,1-.2-1.008l.024-.168a1.308,1.308,0,0,1,.6-.888,1.329,1.329,0,0,1,1.056-.216q1.344.24,5.232,1.008a1.218,1.218,0,0,1,.852.564,1.352,1.352,0,0,1,.18,1.044l-.024.168A1.345,1.345,0,0,1-2,21.48,1.313,1.313,0,0,1-3,21.7Q-7.584,20.784-8.256,20.664Zm7.176-7.656a1.248,1.248,0,0,1,.864.576,1.313,1.313,0,0,1,.192,1.032l-.048.216a1.258,1.258,0,0,1-.564.864,1.279,1.279,0,0,1-1.02.192q-2.976-.6-5.472-1.032A1.311,1.311,0,0,1-8,14.3,1.293,1.293,0,0,1-8.232,13.3l.048-.192a1.329,1.329,0,0,1,.576-.888,1.339,1.339,0,0,1,1.032-.24Q-4.176,12.384-1.08,13.008ZM-6.864,60.144a1.246,1.246,0,0,1-.912-.384,1.246,1.246,0,0,1-.384-.912,1.274,1.274,0,0,1,.384-.936,1.246,1.246,0,0,1,.912-.384H1.08q.216,0,.216-.192l.528-8.112a.17.17,0,0,0-.192-.192H-4.9a1.246,1.246,0,0,1-.912-.384,1.274,1.274,0,0,1-.384-.936,1.246,1.246,0,0,1,.384-.912,1.246,1.246,0,0,1,.912-.384H3.768a1.237,1.237,0,0,1,.936.408,1.269,1.269,0,0,1,.36.96l-.576,9.552a.17.17,0,0,0,.192.192H6.864a1.246,1.246,0,0,1,.912.384,1.274,1.274,0,0,1,.384.936,1.311,1.311,0,0,1-1.3,1.3ZM-7.92,75.36a1.314,1.314,0,0,1-.96-.408,1.314,1.314,0,0,1-.408-.96V73.92a1.314,1.314,0,0,1,.408-.96,1.314,1.314,0,0,1,.96-.408H8.808a1.275,1.275,0,0,1,.948.408,1.333,1.333,0,0,1,.4.96v.072a6.678,6.678,0,0,1-.456,2.64,13.808,13.808,0,0,1-4.824,5.9,1.38,1.38,0,0,1-1.056.24A1.427,1.427,0,0,1,2.88,82.2l-.216-.312a1.246,1.246,0,0,1-.228-.96,1.3,1.3,0,0,1,.54-.864,9.89,9.89,0,0,0,3.672-4.512q.1-.192-.12-.192Zm6.24,1.92h.48a1.314,1.314,0,0,1,.96.408,1.232,1.232,0,0,1,.384.96,20.1,20.1,0,0,1-1.32,7.6,9.371,9.371,0,0,1-4.08,4.26,1.348,1.348,0,0,1-1.068.132,1.454,1.454,0,0,1-.876-.66l-.168-.312a1.2,1.2,0,0,1-.156-.972,1.3,1.3,0,0,1,.588-.8,7,7,0,0,0,2.928-3.276,17.044,17.044,0,0,0,.96-5.988,1.383,1.383,0,0,1,.42-.948A1.293,1.293,0,0,1-1.68,77.28Zm2.856,43.584a1.2,1.2,0,0,1-.948-.384,1.333,1.333,0,0,1-.4-.96V103.272a1.275,1.275,0,0,1,.408-.948,1.333,1.333,0,0,1,.96-.4h.6a1.333,1.333,0,0,1,.96.4,1.275,1.275,0,0,1,.408.948v14.064q0,.192.192.144a5.523,5.523,0,0,0,3.12-2.124,10.4,10.4,0,0,0,1.584-4.428,1.355,1.355,0,0,1,.552-.888,1.309,1.309,0,0,1,.984-.264l.336.048a1.365,1.365,0,0,1,.912.516,1.192,1.192,0,0,1,.264,1Q9.768,120.456,1.176,120.864Zm-10.992-.888-.288-.432a1.261,1.261,0,0,1-.156-1,1.282,1.282,0,0,1,.612-.8,5.479,5.479,0,0,0,2.52-3.288,33.636,33.636,0,0,0,.576-7.656v-3.528a1.293,1.293,0,0,1,.4-.948,1.293,1.293,0,0,1,.948-.4h.576a1.293,1.293,0,0,1,.948.4,1.293,1.293,0,0,1,.4.948V106.8a44.45,44.45,0,0,1-.432,7,11.073,11.073,0,0,1-1.392,4.092,7.944,7.944,0,0,1-2.76,2.568,1.4,1.4,0,0,1-1.056.156A1.446,1.446,0,0,1-9.816,119.976Zm2.064,15.864a1.314,1.314,0,0,1-.96-.408,1.314,1.314,0,0,1-.408-.96v-.312a1.314,1.314,0,0,1,.408-.96,1.314,1.314,0,0,1,.96-.408H7.92a1.314,1.314,0,0,1,.96.408,1.233,1.233,0,0,1,.384.96q-.168,7.608-3.708,11.592T-5.208,150.72a1.427,1.427,0,0,1-1.044-.264,1.354,1.354,0,0,1-.564-.912l-.048-.288a1.242,1.242,0,0,1,.216-.972,1.2,1.2,0,0,1,.864-.516Q-.168,147,2.58,144.24t3.228-8.184q0-.216-.192-.216Zm1.272,45.12a1.217,1.217,0,0,1-.96-.4,1.353,1.353,0,0,1-.408-.972V163.2a1.314,1.314,0,0,1,.408-.96,1.314,1.314,0,0,1,.96-.408h.72a1.314,1.314,0,0,1,.96.408,1.314,1.314,0,0,1,.408.96v14.376a.17.17,0,0,0,.192.192,13.561,13.561,0,0,0,6.732-2.376,13.432,13.432,0,0,0,4.188-5.736,1.364,1.364,0,0,1,.72-.756,1.254,1.254,0,0,1,1.032-.012l.408.168a1.358,1.358,0,0,1,.756.732,1.283,1.283,0,0,1,.012,1.044A15.76,15.76,0,0,1,3.6,178.416,19.774,19.774,0,0,1-6.48,180.96Zm-1.224,14.5a1.232,1.232,0,0,1-.672-.768,1.234,1.234,0,0,1,.1-1.008l.24-.48a1.317,1.317,0,0,1,.8-.672,1.455,1.455,0,0,1,1.068.072q2.376,1.152,5.016,2.592a1.291,1.291,0,0,1,.636.816,1.319,1.319,0,0,1-.108,1.032l-.264.48a1.291,1.291,0,0,1-.816.636,1.319,1.319,0,0,1-1.032-.108Q-5.544,196.512-7.7,195.456ZM9,194.688a1.333,1.333,0,0,1,.864.6,1.313,1.313,0,0,1,.192,1.032,17.237,17.237,0,0,1-5.532,9.648q-4.116,3.48-11.1,4.368a1.324,1.324,0,0,1-1.02-.276,1.43,1.43,0,0,1-.54-.924l-.048-.432a1.234,1.234,0,0,1,.24-1,1.28,1.28,0,0,1,.888-.516,18.3,18.3,0,0,0,9.288-3.6,14.727,14.727,0,0,0,4.728-7.944,1.427,1.427,0,0,1,.624-.864,1.313,1.313,0,0,1,1.032-.192Zm-17.952,38.04a1.314,1.314,0,0,1-.96-.408,1.314,1.314,0,0,1-.408-.96v-.168a1.275,1.275,0,0,1,.408-.948,1.333,1.333,0,0,1,.96-.4h7.944a.191.191,0,0,0,.216-.216v-3.48a.17.17,0,0,0-.192-.192q-1.968.144-5.4.192a1.322,1.322,0,0,1-.972-.4,1.293,1.293,0,0,1-.4-.948v-.168a1.333,1.333,0,0,1,.4-.96,1.275,1.275,0,0,1,.948-.408,46.2,46.2,0,0,0,12.528-1.56,1.381,1.381,0,0,1,1.056.084,1.273,1.273,0,0,1,.672.78l.072.216a1.28,1.28,0,0,1-.072,1.056,1.317,1.317,0,0,1-.792.672,33.245,33.245,0,0,1-4.392,1.032.227.227,0,0,0-.192.24v3.84a.191.191,0,0,0,.216.216H8.952a1.333,1.333,0,0,1,.96.4,1.275,1.275,0,0,1,.408.948v.168a1.394,1.394,0,0,1-1.368,1.368H2.544q-.168,0-.216.216a9.8,9.8,0,0,1-2.112,5.388,9.554,9.554,0,0,1-4.944,2.748,1.376,1.376,0,0,1-1.068-.144,1.518,1.518,0,0,1-.684-.864l-.072-.216a1.2,1.2,0,0,1,.1-1,1.251,1.251,0,0,1,.792-.612,6.8,6.8,0,0,0,3.288-1.824,6.388,6.388,0,0,0,1.392-3.48q.048-.216-.168-.216Z" transform="translate(-158 -8323)"/>
  </g>
</svg>
