<svg xmlns="http://www.w3.org/2000/svg" width="182" height="561" viewBox="0 0 182 561">
  <defs>
    <style>
      .cls-1 {
        fill: #fff;
      }

      .cls-2 {
        fill: #306e1d;
      }
    </style>
  </defs>
  <g id="グループ_1141" data-name="グループ 1141" transform="translate(-7269 8517)">
    <path id="パス_8760" data-name="パス 8760" class="cls-1" d="M18,0H28A18,18,0,0,1,46,18V334a18,18,0,0,1-18,18H18A18,18,0,0,1,0,334V18A18,18,0,0,1,18,0Z" transform="translate(7269 -8380)"/>
    <path id="パス_8761" data-name="パス 8761" class="cls-1" d="M18,0H28A18,18,0,0,1,46,18V472a18,18,0,0,1-18,18H18A18,18,0,0,1,0,472V18A18,18,0,0,1,18,0Z" transform="translate(7335 -8446)"/>
    <path id="パス_8764" data-name="パス 8764" class="cls-1" d="M18,0H28A18,18,0,0,1,46,18V304a18,18,0,0,1-18,18H18A18,18,0,0,1,0,304V18A18,18,0,0,1,18,0Z" transform="translate(7405 -8517)"/>
    <path id="パス_8765" data-name="パス 8765" class="cls-2" d="M-9.048-15.888a1.293,1.293,0,0,1-.948-.4,1.293,1.293,0,0,1-.4-.948,1.333,1.333,0,0,1,.4-.96,1.275,1.275,0,0,1,.948-.408h18.1a1.275,1.275,0,0,1,.948.408,1.333,1.333,0,0,1,.4.96,1.293,1.293,0,0,1-.4.948,1.293,1.293,0,0,1-.948.4h-7.2a.191.191,0,0,0-.216.216v4.1a.191.191,0,0,0,.216.216H8.232a1.333,1.333,0,0,1,.96.4,1.275,1.275,0,0,1,.408.948,1.314,1.314,0,0,1-.408.96,1.314,1.314,0,0,1-.96.408H2.3q-.192,0-.144.192Q3.7-3.816,9.552-1.1a1.232,1.232,0,0,1,.672.744A1.078,1.078,0,0,1,10.1.6L9.96.84a1.557,1.557,0,0,1-.864.684,1.443,1.443,0,0,1-1.08-.06,18.006,18.006,0,0,1-4.56-3.12,16.161,16.161,0,0,1-3.24-4.2q-.072-.12-.168.024a16,16,0,0,1-3.324,4.2,17.963,17.963,0,0,1-4.716,3.1,1.51,1.51,0,0,1-1.1.06A1.557,1.557,0,0,1-9.96.84L-10.1.6a1.1,1.1,0,0,1-.12-.972A1.159,1.159,0,0,1-9.576-1.1Q-3.7-3.816-2.16-8.448q.048-.192-.144-.192H-8.232a1.314,1.314,0,0,1-.96-.408,1.314,1.314,0,0,1-.408-.96,1.275,1.275,0,0,1,.408-.948,1.333,1.333,0,0,1,.96-.4h6.384a.191.191,0,0,0,.216-.216v-4.1a.191.191,0,0,0-.216-.216Zm.1,47.5a1.254,1.254,0,0,1-.936-.4,1.286,1.286,0,0,1-.384-.924,1.286,1.286,0,0,1,.384-.924,1.254,1.254,0,0,1,.936-.4h7.1a.191.191,0,0,0,.216-.216v-3.36q0-.192-.216-.192h-4.92a1.226,1.226,0,0,1-.9-.372,1.226,1.226,0,0,1-.372-.9,1.266,1.266,0,0,1,.372-.912,1.207,1.207,0,0,1,.9-.384H6.792a1.311,1.311,0,0,1,1.3,1.3,1.207,1.207,0,0,1-.384.9,1.266,1.266,0,0,1-.912.372H1.848q-.216,0-.216.192v3.36a.191.191,0,0,0,.216.216h7.1a1.254,1.254,0,0,1,.936.4,1.3,1.3,0,0,1,0,1.848,1.254,1.254,0,0,1-.936.4Zm.432-9.144a1.28,1.28,0,0,1-1.02-.144,1.418,1.418,0,0,1-.66-.84,1.13,1.13,0,0,1,.108-.972,1.208,1.208,0,0,1,.8-.588A9.109,9.109,0,0,0-5.256,18a4.182,4.182,0,0,0,1.344-3.048q0-.192-.216-.192H-6.864a.191.191,0,0,0-.216.216V16.44a1.314,1.314,0,0,1-.408.96,1.314,1.314,0,0,1-.96.408h-.384a1.314,1.314,0,0,1-.96-.408,1.314,1.314,0,0,1-.408-.96V13.56a1.314,1.314,0,0,1,.408-.96,1.314,1.314,0,0,1,.96-.408h6.984q.216,0,.216-.192v-.72a1.333,1.333,0,0,1,.4-.96,1.275,1.275,0,0,1,.948-.408H.288a1.275,1.275,0,0,1,.948.408,1.333,1.333,0,0,1,.4.96V12q0,.192.216.192H8.832A1.394,1.394,0,0,1,10.2,13.56v1.632A1.394,1.394,0,0,1,8.832,16.56H8.448A1.394,1.394,0,0,1,7.08,15.192v-.216a.191.191,0,0,0-.216-.216H4.2q-.192,0-.192.216v3.312q0,.576.1.66a1.8,1.8,0,0,0,.744.108q.1,0,.336.012t.336.012q.1,0,.324-.012t.348-.012q.432-.024.6-.036a.925.925,0,0,0,.324-.084.447.447,0,0,0,.228-.24q.576-1.3,1.536-1.2l.336.048a1.4,1.4,0,0,1,.936.5,1.265,1.265,0,0,1,.288,1.008,4.478,4.478,0,0,1-.228,1.1,2.425,2.425,0,0,1-.384.684,1.343,1.343,0,0,1-.768.4,7.181,7.181,0,0,1-1.092.156q-.552.036-1.68.06-.192,0-.552.012t-.552.012q-.192,0-.552-.012t-.552-.012a6.392,6.392,0,0,1-2.664-.36Q.888,20.76.888,19.56V14.976a.191.191,0,0,0-.216-.216H-.6a.191.191,0,0,0-.216.216Q-1.224,20.592-8.52,22.464Zm7.1,22.824a7.548,7.548,0,0,0-4.416,2.556A7.292,7.292,0,0,0-7.44,52.632a6.862,6.862,0,0,0,.744,3.24q.744,1.416,1.416,1.416a1.064,1.064,0,0,0,.7-.324,4.34,4.34,0,0,0,.8-1.176,14.327,14.327,0,0,0,.864-2.136,33.308,33.308,0,0,0,.864-3.408q.444-2.124.8-4.788a.122.122,0,0,0-.036-.132A.122.122,0,0,0-1.416,45.288ZM-5.28,60.312A4.528,4.528,0,0,1-8.856,58.08a8.978,8.978,0,0,1-1.632-5.448,9.78,9.78,0,0,1,3.168-7.56,11.774,11.774,0,0,1,8.28-2.9A9.462,9.462,0,0,1,7.788,44.76a8.753,8.753,0,0,1,2.7,6.6,10.416,10.416,0,0,1-1.74,6.2,7.7,7.7,0,0,1-4.764,3.108,1.272,1.272,0,0,1-1.044-.216,1.446,1.446,0,0,1-.588-.912L2.3,59.328a1.2,1.2,0,0,1,.192-.984,1.566,1.566,0,0,1,.84-.624q4.1-1.272,4.1-6.36a6.138,6.138,0,0,0-1.452-4.14,6.141,6.141,0,0,0-3.8-2.076.2.2,0,0,0-.264.168q-.48,3.624-1.08,6.3a28.918,28.918,0,0,1-1.26,4.32A10.1,10.1,0,0,1-1.9,58.572,4.858,4.858,0,0,1-3.5,59.94,4.127,4.127,0,0,1-5.28,60.312ZM6.408,71.832a1.275,1.275,0,0,1,.948.408,1.333,1.333,0,0,1,.4.96v5.208q0,5.856-2.7,8.94t-8.46,3.924a1.417,1.417,0,0,1-1.068-.24,1.418,1.418,0,0,1-.612-.912l-.048-.312a1.194,1.194,0,0,1,.18-.972A1.24,1.24,0,0,1-4.1,88.3Q.624,87.5,2.472,85.32T4.32,78.48V73.2a1.394,1.394,0,0,1,1.368-1.368Zm-12.816,10.8a1.293,1.293,0,0,1-.948-.4,1.293,1.293,0,0,1-.4-.948V73.2a1.333,1.333,0,0,1,.4-.96,1.275,1.275,0,0,1,.948-.408h.648a1.314,1.314,0,0,1,.96.408,1.314,1.314,0,0,1,.408.96v8.088a1.275,1.275,0,0,1-.408.948,1.333,1.333,0,0,1-.96.4Zm14.16,22.752a1.291,1.291,0,0,1,.912.48,1.228,1.228,0,0,1,.288.984q-.816,6.5-4.008,9.684t-9.72,4.236a1.408,1.408,0,0,1-1.056-.228,1.386,1.386,0,0,1-.6-.9l-.072-.288a1.212,1.212,0,0,1,.2-1,1.3,1.3,0,0,1,.876-.564q5.352-.96,7.9-3.456t3.264-7.752a1.409,1.409,0,0,1,.516-.924,1.321,1.321,0,0,1,1-.324Zm-2.64-4.632a1.216,1.216,0,0,1,.972-.072,1.335,1.335,0,0,1,.756.648q.12.216.336.636t.336.636a1.216,1.216,0,0,1,.072.972,1.158,1.158,0,0,1-.648.708,1.217,1.217,0,0,1-.948.048,1.257,1.257,0,0,1-.732-.624q-.12-.216-.336-.636t-.336-.636a1.189,1.189,0,0,1-.084-.948A1.211,1.211,0,0,1,5.112,100.752Zm2.976.408a1.242,1.242,0,0,1,.648-.744,1.3,1.3,0,0,1,1.008-.072,1.259,1.259,0,0,1,.768.624l.348.7.324.648a1.19,1.19,0,0,1,.072.96,1.244,1.244,0,0,1-.648.72,1.216,1.216,0,0,1-.972.072,1.335,1.335,0,0,1-.756-.648q-.216-.432-.7-1.3A1.265,1.265,0,0,1,8.088,101.16Zm-14.784,9.7q-1.008-2.28-2.64-5.832A1.228,1.228,0,0,1-9.372,104a1.275,1.275,0,0,1,.708-.732l.528-.216a1.419,1.419,0,0,1,1.056-.024,1.309,1.309,0,0,1,.768.72q1.656,3.552,2.712,5.9a1.224,1.224,0,0,1,.024,1.032,1.226,1.226,0,0,1-.744.72l-.552.216a1.419,1.419,0,0,1-1.056-.024A1.4,1.4,0,0,1-6.7,110.856Zm1.488,70.416a1.293,1.293,0,0,1-.948-.4,1.293,1.293,0,0,1-.4-.948V162.792a1.293,1.293,0,0,1,.4-.948,1.293,1.293,0,0,1,.948-.4h.648a1.333,1.333,0,0,1,.96.4,1.275,1.275,0,0,1,.408.948v5.184q0,.216.168.24A120.252,120.252,0,0,1,8.592,171.7a1.364,1.364,0,0,1,.78.7,1.31,1.31,0,0,1,.06,1.056l-.144.456a1.361,1.361,0,0,1-1.7.84Q1.9,172.752-3.024,171.5a.1.1,0,0,0-.12.036.207.207,0,0,0-.048.132v8.256a1.275,1.275,0,0,1-.408.948,1.333,1.333,0,0,1-.96.4ZM-9.72,198a1.274,1.274,0,0,1-.936-.384,1.274,1.274,0,0,1-.384-.936,1.274,1.274,0,0,1,.384-.936,1.274,1.274,0,0,1,.936-.384h.552a.191.191,0,0,0,.216-.216v-2.9a1.333,1.333,0,0,1,.4-.96,1.275,1.275,0,0,1,.948-.408h.36a1.314,1.314,0,0,1,.96.408,1.314,1.314,0,0,1,.408.96v2.9q0,.216.192.216h.768a1.193,1.193,0,0,1,1.248.888.175.175,0,0,0,.24.144l.864-.192a.235.235,0,0,0,.216-.24v-2.952a1.333,1.333,0,0,1,.4-.96,1.275,1.275,0,0,1,.948-.408h.336a1.275,1.275,0,0,1,.948.408,1.333,1.333,0,0,1,.4.96v2.3a.172.172,0,0,0,.072.132.145.145,0,0,0,.144.036l1.512-.336a.227.227,0,0,0,.192-.24V191.76A1.314,1.314,0,0,1,3,190.8a1.314,1.314,0,0,1,.96-.408h.072a1.314,1.314,0,0,1,.96.408,1.314,1.314,0,0,1,.408.96V194.3q0,.192.192.144l3.72-.792a1.085,1.085,0,0,1,.924.228,1.047,1.047,0,0,1,.4.852v.216q0,3.408-.1,5.328a12.248,12.248,0,0,1-.408,2.9,2.393,2.393,0,0,1-.684,1.236,2,2,0,0,1-1.116.252H7.68a1.7,1.7,0,0,1-1.056-.408,1.679,1.679,0,0,1-.576-.984l-.024-.048a.984.984,0,0,1,.252-.888,1.132,1.132,0,0,1,.876-.384H7.2a.264.264,0,0,0,.228-.084,1.958,1.958,0,0,0,.132-.576,12.885,12.885,0,0,0,.1-1.428q.024-.936.048-2.784,0-.192-.192-.144l-1.92.408a.241.241,0,0,0-.192.264v7.416a1.314,1.314,0,0,1-.408.96,1.314,1.314,0,0,1-.96.408H3.96a1.314,1.314,0,0,1-.96-.408,1.314,1.314,0,0,1-.408-.96v-6.816q0-.192-.192-.144l-1.512.312a.247.247,0,0,0-.216.264V208.2q0,.768.516.9a24.409,24.409,0,0,0,3.54.132q.96,0,1.356-.012a7.1,7.1,0,0,0,.912-.1,1.409,1.409,0,0,0,.672-.228,2.474,2.474,0,0,0,.372-.492,1.976,1.976,0,0,0,.276-.78q.06-.432.108-1.176a1.187,1.187,0,0,1,.468-.876,1.086,1.086,0,0,1,.948-.2l.264.072a1.543,1.543,0,0,1,.936.588,1.46,1.46,0,0,1,.312,1.044q-.072.912-.168,1.536a6.028,6.028,0,0,1-.3,1.176,4.808,4.808,0,0,1-.408.876,1.834,1.834,0,0,1-.672.588,4.44,4.44,0,0,1-.912.4,7.353,7.353,0,0,1-1.284.216q-.84.084-1.644.1t-2.124.012q-1.56,0-2.472-.024a10.66,10.66,0,0,1-1.68-.168,4.8,4.8,0,0,1-1.116-.312,1.414,1.414,0,0,1-.588-.564,2.024,2.024,0,0,1-.288-.84,11.9,11.9,0,0,1-.048-1.212V199.32a.172.172,0,0,0-.072-.132.145.145,0,0,0-.144-.036l-.528.12a1.17,1.17,0,0,1-.972-.192,1.2,1.2,0,0,1-.516-.864v-.048A.207.207,0,0,0-4.8,198h-.888q-.192,0-.192.216v8.424q0,.192.192.144.336-.12.96-.36a.9.9,0,0,1,.864.108.927.927,0,0,1,.432.756,2.006,2.006,0,0,1-.288,1.14,1.831,1.831,0,0,1-.888.756,45.062,45.062,0,0,1-4.92,1.7,1.129,1.129,0,0,1-.972-.156,1.091,1.091,0,0,1-.492-.852l-.024-.12a1.607,1.607,0,0,1,.288-1.068,1.51,1.51,0,0,1,.888-.636q.5-.12.672-.168a.247.247,0,0,0,.216-.264v-9.408A.191.191,0,0,0-9.168,198Zm-.336,37.368-.36-.336a1.39,1.39,0,0,1-.444-.96,1.384,1.384,0,0,1,.324-1.008q1.248-1.464,2.976-3.624a25.233,25.233,0,0,1,3.1-3.5,3.685,3.685,0,0,1,2.3-.648,3.973,3.973,0,0,1,2.256.624,43.859,43.859,0,0,1,4.08,3.624q2.9,2.808,6.24,5.832a1.32,1.32,0,0,1,.432.936,1.394,1.394,0,0,1-.336.984l-.384.456a1.336,1.336,0,0,1-1.92.12q-3.552-3.216-7.3-6.84-1.656-1.608-2.172-1.992a1.658,1.658,0,0,0-.972-.384,1.4,1.4,0,0,0-.936.408,17.866,17.866,0,0,0-1.656,1.968q-2.3,2.952-3.384,4.248a1.21,1.21,0,0,1-.912.456A1.2,1.2,0,0,1-10.056,235.368Z" transform="translate(7428 -8464)"/>
    <path id="パス_8762" data-name="パス 8762" class="cls-2" d="M-2.616-6.432a1.111,1.111,0,0,1-.816-.336,1.111,1.111,0,0,1-.336-.816A1.111,1.111,0,0,1-3.432-8.4a1.111,1.111,0,0,1,.816-.336H8.928a1.111,1.111,0,0,1,.816.336,1.111,1.111,0,0,1,.336.816,1.111,1.111,0,0,1-.336.816,1.111,1.111,0,0,1-.816.336Zm10.44,3.36a.077.077,0,0,0-.072.048.047.047,0,0,0,.024.072,27.8,27.8,0,0,1,2.64,2.064,1.326,1.326,0,0,1,.456.912,1.306,1.306,0,0,1-.312.984,1.242,1.242,0,0,1-.888.456,1.232,1.232,0,0,1-.96-.312Q7.08-.192,6.24-.816a1.278,1.278,0,0,1-.5-.864,1.126,1.126,0,0,1,.288-.936L6.288-2.9q.048-.024.012-.1t-.084-.072H4.728a.191.191,0,0,0-.216.216V-.912A4.83,4.83,0,0,1,4.1,1.62q-.408.516-1.992.516-1.056,0-1.92-.048A1.519,1.519,0,0,1-.816,1.656,1.389,1.389,0,0,1-1.272.672l-.048-.6q0-.192-.192-.072A20.049,20.049,0,0,1-3.24,1.272a1.324,1.324,0,0,1-1.008.168,1.349,1.349,0,0,1-.84-.576,1.2,1.2,0,0,1-.18-.948,1.149,1.149,0,0,1,.54-.78A19.956,19.956,0,0,0-2.064-2.9q.048-.024.024-.1t-.072-.072H-3.744a1.207,1.207,0,0,1-.888-.36,1.207,1.207,0,0,1-.36-.888,1.207,1.207,0,0,1,.36-.888,1.207,1.207,0,0,1,.888-.36H9.792a1.207,1.207,0,0,1,.888.36,1.207,1.207,0,0,1,.36.888,1.207,1.207,0,0,1-.36.888,1.207,1.207,0,0,1-.888.36ZM1.392-1.1V-2.856q0-.216-.192-.216H-.864q-.048,0-.084.072t.012.1l.24.288A1.423,1.423,0,0,1-.324-1.608a1.269,1.269,0,0,1-.444.96.515.515,0,0,1-.12.1q-.048.024-.012.1t.084.072Q.24-.312.672-.312a1.134,1.134,0,0,0,.624-.1A1.351,1.351,0,0,0,1.392-1.1Zm-12.36-2.544-.264-.6a2.707,2.707,0,0,1,.1-2.424,23.888,23.888,0,0,0,2.112-6.264q.048-.192-.168-.192h-.72a1.254,1.254,0,0,1-.936-.4,1.286,1.286,0,0,1-.384-.924,1.286,1.286,0,0,1,.384-.924,1.254,1.254,0,0,1,.936-.4h.792a.17.17,0,0,0,.192-.192v-2.208a1.275,1.275,0,0,1,.408-.948,1.333,1.333,0,0,1,.96-.4h.072a1.333,1.333,0,0,1,.96.4,1.275,1.275,0,0,1,.408.948v2.208q0,.192.216.192h.552a1.226,1.226,0,0,1,1.224.888.121.121,0,0,0,.1.06q.072.012.1-.036a1.245,1.245,0,0,1,.984-.408h2.28a.17.17,0,0,0,.192-.192v-.7a.17.17,0,0,0-.192-.192H-3.744a1.187,1.187,0,0,1-.888-.372,1.247,1.247,0,0,1-.36-.9,1.207,1.207,0,0,1,.36-.888,1.207,1.207,0,0,1,.888-.36H9.792a1.207,1.207,0,0,1,.888.36,1.207,1.207,0,0,1,.36.888,1.247,1.247,0,0,1-.36.9,1.187,1.187,0,0,1-.888.372H6.7q-.216,0-.216.192v.7q0,.192.216.192H9.12a1.314,1.314,0,0,1,.96.408,1.314,1.314,0,0,1,.408.96v3a1.275,1.275,0,0,1-.408.948,1.333,1.333,0,0,1-.96.4H-2.952a1.333,1.333,0,0,1-.96-.4A1.275,1.275,0,0,1-4.32-10.9v-2.52a.077.077,0,0,0-.048-.072.078.078,0,0,0-.1.024,1.308,1.308,0,0,1-.888.336H-5.88q-.216,0-.12.192.1.24,2.016,4.512A1.612,1.612,0,0,1-3.9-7.38a1.542,1.542,0,0,1-.564.876.862.862,0,0,1-.8.168.867.867,0,0,1-.612-.552q-.024-.072-.084-.228t-.084-.228A.069.069,0,0,0-6.1-7.368q-.024,0-.024.048V.888a1.275,1.275,0,0,1-.408.948,1.333,1.333,0,0,1-.96.4H-7.56a1.333,1.333,0,0,1-.96-.4A1.275,1.275,0,0,1-8.928.888V-5.5Q-8.952-5.52-9-5.5q-.408,1.128-.744,1.872a.592.592,0,0,1-.612.372A.632.632,0,0,1-10.968-3.648ZM6.24-13.1v1.32a.191.191,0,0,0,.216.216h1.1q.192,0,.192-.216V-13.1q0-.216-.192-.216h-1.1A.191.191,0,0,0,6.24-13.1ZM2.232-16.152v.7q0,.192.216.192h1.1q.216,0,.216-.192v-.7q0-.192-.216-.192h-1.1Q2.232-16.344,2.232-16.152ZM2.208-13.1v1.32q0,.216.192.216H3.6q.192,0,.192-.216V-13.1q0-.216-.192-.216H2.4Q2.208-13.32,2.208-13.1Zm-3.96,0v1.32q0,.216.192.216H-.432q.192,0,.192-.216V-13.1q0-.216-.192-.216H-1.56Q-1.752-13.32-1.752-13.1ZM5.208,31.92a1.508,1.508,0,0,1-1.44-1.368q0-.24-.216-.24H-2.64a.106.106,0,0,0-.12.12.727.727,0,0,1-.228.552.759.759,0,0,1-.54.216h-.6a1.275,1.275,0,0,1-.948-.408,1.333,1.333,0,0,1-.4-.96V26.28a1.333,1.333,0,0,1,.4-.96,1.275,1.275,0,0,1,.948-.408H4.128a1.275,1.275,0,0,1,.948.408,1.333,1.333,0,0,1,.4.96v2.736a.17.17,0,0,0,.192.192q.1,0,.252.012t.2.012a1.682,1.682,0,0,0,.9-.132,1.755,1.755,0,0,0,.132-.924V24.24a.17.17,0,0,0-.192-.192H-6.96a.17.17,0,0,0-.192.192v6.408a1.275,1.275,0,0,1-.408.948,1.333,1.333,0,0,1-.96.4h-.36a1.333,1.333,0,0,1-.96-.4,1.275,1.275,0,0,1-.408-.948v-7.7A1.275,1.275,0,0,1-9.84,22a1.333,1.333,0,0,1,.96-.4H8.88a1.333,1.333,0,0,1,.96.4,1.275,1.275,0,0,1,.408.948v5.088q0,2.688-.552,3.312t-2.9.624Q6.648,31.968,5.208,31.92ZM2.76,28.1v-.888A.191.191,0,0,0,2.544,27H-2.544a.191.191,0,0,0-.216.216V28.1a.191.191,0,0,0,.216.216H2.544A.191.191,0,0,0,2.76,28.1ZM-9.5,14.472a1.266,1.266,0,0,1-.912-.372,1.234,1.234,0,0,1-.384-.924,1.274,1.274,0,0,1,.384-.936,1.246,1.246,0,0,1,.912-.384h7.656q.216,0,.216-.192v-.312a1.293,1.293,0,0,1,.4-.948,1.293,1.293,0,0,1,.948-.4H.288a1.293,1.293,0,0,1,.948.4,1.293,1.293,0,0,1,.4.948v.312q0,.192.216.192H9.5a1.246,1.246,0,0,1,.912.384,1.274,1.274,0,0,1,.384.936,1.234,1.234,0,0,1-.384.924,1.266,1.266,0,0,1-.912.372Zm5.184,6.24H-6.168a1.293,1.293,0,0,1-.948-.4,1.293,1.293,0,0,1-.4-.948V16.7a1.333,1.333,0,0,1,.4-.96,1.275,1.275,0,0,1,.948-.408H6.168a1.275,1.275,0,0,1,.948.408,1.333,1.333,0,0,1,.4.96v2.664a1.352,1.352,0,0,1-1.344,1.344Zm0-3.1v.912a.191.191,0,0,0,.216.216H4.128q.192,0,.192-.216v-.912q0-.216-.192-.216H-4.1A.191.191,0,0,0-4.32,17.616Zm.192,31.32a.611.611,0,0,1-.708.072.633.633,0,0,1-.372-.6v-.96a2.64,2.64,0,0,1,1.08-2.184L-1.56,43.3A3.956,3.956,0,0,1,.888,42.48h.72a1.275,1.275,0,0,1,.948.408,1.333,1.333,0,0,1,.4.96V58.632a1.333,1.333,0,0,1-.4.96A1.275,1.275,0,0,1,1.608,60H.888a1.314,1.314,0,0,1-.96-.408,1.314,1.314,0,0,1-.408-.96V46.176L-.5,46.152l-.024.024ZM2.5,76.3A2.683,2.683,0,0,0,0,74.856,2.683,2.683,0,0,0-2.5,76.3a10.757,10.757,0,0,0-.816,4.944A10.757,10.757,0,0,0-2.5,86.184,2.683,2.683,0,0,0,0,87.624a2.683,2.683,0,0,0,2.5-1.44,10.757,10.757,0,0,0,.816-4.944A10.757,10.757,0,0,0,2.5,76.3ZM5.04,88.1A5.979,5.979,0,0,1,0,90.24,6.013,6.013,0,0,1-5.052,88.1Q-6.72,85.968-6.72,81.24t1.668-6.864A6.013,6.013,0,0,1,0,72.24a6.013,6.013,0,0,1,5.052,2.136Q6.72,76.512,6.72,81.24T5.04,88.1ZM2.5,106.3a2.683,2.683,0,0,0-2.5-1.44,2.683,2.683,0,0,0-2.5,1.44,10.757,10.757,0,0,0-.816,4.944,10.757,10.757,0,0,0,.816,4.944,2.683,2.683,0,0,0,2.5,1.44,2.683,2.683,0,0,0,2.5-1.44,10.757,10.757,0,0,0,.816-4.944A10.757,10.757,0,0,0,2.5,106.3ZM5.04,118.1A5.979,5.979,0,0,1,0,120.24,6.013,6.013,0,0,1-5.052,118.1q-1.668-2.136-1.668-6.864t1.668-6.864A6.013,6.013,0,0,1,0,102.24a6.013,6.013,0,0,1,5.052,2.136q1.668,2.136,1.668,6.864T5.04,118.1ZM2.5,136.3a2.683,2.683,0,0,0-2.5-1.44,2.683,2.683,0,0,0-2.5,1.44,10.757,10.757,0,0,0-.816,4.944,10.757,10.757,0,0,0,.816,4.944,2.683,2.683,0,0,0,2.5,1.44,2.683,2.683,0,0,0,2.5-1.44,10.757,10.757,0,0,0,.816-4.944A10.757,10.757,0,0,0,2.5,136.3ZM5.04,148.1A5.979,5.979,0,0,1,0,150.24,6.013,6.013,0,0,1-5.052,148.1q-1.668-2.136-1.668-6.864t1.668-6.864A6.013,6.013,0,0,1,0,132.24a6.013,6.013,0,0,1,5.052,2.136q1.668,2.136,1.668,6.864T5.04,148.1ZM-7.272,180a1.314,1.314,0,0,1-.96-.408,1.314,1.314,0,0,1-.408-.96V163.848a1.314,1.314,0,0,1,.408-.96,1.314,1.314,0,0,1,.96-.408h.624a2.164,2.164,0,0,1,1.164.336,2.264,2.264,0,0,1,.828.888l4.584,9.072a.021.021,0,0,0,.024.024.021.021,0,0,0,.024-.024L4.56,163.7a2.264,2.264,0,0,1,.828-.888,2.164,2.164,0,0,1,1.164-.336h.72a1.394,1.394,0,0,1,1.368,1.368v14.784A1.394,1.394,0,0,1,7.272,180H6.7a1.275,1.275,0,0,1-.948-.408,1.333,1.333,0,0,1-.4-.96v-10.44a.021.021,0,0,0-.024-.024q-.048,0-.048.024l-3.192,6.192A2.069,2.069,0,0,1,.12,175.608H-.216a2.069,2.069,0,0,1-1.968-1.224l-3.192-6.192q0-.024-.048-.024a.021.021,0,0,0-.024.024v10.44a1.333,1.333,0,0,1-.4.96,1.275,1.275,0,0,1-.948.408Zm5.856,15.288a7.548,7.548,0,0,0-4.416,2.556,7.292,7.292,0,0,0-1.608,4.788,6.862,6.862,0,0,0,.744,3.24q.744,1.416,1.416,1.416a1.064,1.064,0,0,0,.7-.324,4.34,4.34,0,0,0,.8-1.176,14.327,14.327,0,0,0,.864-2.136,33.308,33.308,0,0,0,.864-3.408q.444-2.124.8-4.788a.122.122,0,0,0-.036-.132A.122.122,0,0,0-1.416,195.288ZM-5.28,210.312a4.528,4.528,0,0,1-3.576-2.232,8.978,8.978,0,0,1-1.632-5.448,9.78,9.78,0,0,1,3.168-7.56,11.774,11.774,0,0,1,8.28-2.9,9.462,9.462,0,0,1,6.828,2.592,8.753,8.753,0,0,1,2.7,6.6,10.416,10.416,0,0,1-1.74,6.2,7.7,7.7,0,0,1-4.764,3.108,1.272,1.272,0,0,1-1.044-.216,1.446,1.446,0,0,1-.588-.912l-.048-.216a1.2,1.2,0,0,1,.192-.984,1.566,1.566,0,0,1,.84-.624q4.1-1.272,4.1-6.36a6.138,6.138,0,0,0-1.452-4.14,6.141,6.141,0,0,0-3.8-2.076.2.2,0,0,0-.264.168q-.48,3.624-1.08,6.3a28.919,28.919,0,0,1-1.26,4.32,10.1,10.1,0,0,1-1.476,2.64A4.858,4.858,0,0,1-3.5,209.94,4.127,4.127,0,0,1-5.28,210.312ZM5.208,241.92a1.508,1.508,0,0,1-1.44-1.368q0-.24-.216-.24H-2.64a.106.106,0,0,0-.12.12.727.727,0,0,1-.228.552.759.759,0,0,1-.54.216h-.6a1.275,1.275,0,0,1-.948-.408,1.333,1.333,0,0,1-.4-.96V236.28a1.333,1.333,0,0,1,.4-.96,1.275,1.275,0,0,1,.948-.408H4.128a1.275,1.275,0,0,1,.948.408,1.333,1.333,0,0,1,.4.96v2.736a.17.17,0,0,0,.192.192q.1,0,.252.012t.2.012a1.682,1.682,0,0,0,.9-.132,1.755,1.755,0,0,0,.132-.924V234.24a.17.17,0,0,0-.192-.192H-6.96a.17.17,0,0,0-.192.192v6.408a1.275,1.275,0,0,1-.408.948,1.333,1.333,0,0,1-.96.4h-.36a1.333,1.333,0,0,1-.96-.4,1.275,1.275,0,0,1-.408-.948v-7.7A1.275,1.275,0,0,1-9.84,232a1.333,1.333,0,0,1,.96-.4H8.88a1.333,1.333,0,0,1,.96.4,1.275,1.275,0,0,1,.408.948v5.088q0,2.688-.552,3.312t-2.9.624Q6.648,241.968,5.208,241.92ZM2.76,238.1v-.888A.191.191,0,0,0,2.544,237H-2.544a.191.191,0,0,0-.216.216v.888a.191.191,0,0,0,.216.216H2.544A.191.191,0,0,0,2.76,238.1ZM-9.5,224.472a1.266,1.266,0,0,1-.912-.372,1.235,1.235,0,0,1-.384-.924,1.274,1.274,0,0,1,.384-.936,1.246,1.246,0,0,1,.912-.384h7.656q.216,0,.216-.192v-.312a1.293,1.293,0,0,1,.4-.948,1.293,1.293,0,0,1,.948-.4H.288a1.293,1.293,0,0,1,.948.4,1.293,1.293,0,0,1,.4.948v.312q0,.192.216.192H9.5a1.246,1.246,0,0,1,.912.384,1.274,1.274,0,0,1,.384.936,1.234,1.234,0,0,1-.384.924,1.266,1.266,0,0,1-.912.372Zm5.184,6.24H-6.168a1.293,1.293,0,0,1-.948-.4,1.293,1.293,0,0,1-.4-.948V226.7a1.333,1.333,0,0,1,.4-.96,1.275,1.275,0,0,1,.948-.408H6.168a1.275,1.275,0,0,1,.948.408,1.333,1.333,0,0,1,.4.96v2.664a1.352,1.352,0,0,1-1.344,1.344Zm0-3.1v.912a.191.191,0,0,0,.216.216H4.128q.192,0,.192-.216v-.912q0-.216-.192-.216H-4.1A.191.191,0,0,0-4.32,227.616ZM-2.3,265.44a1.362,1.362,0,0,1,.684.8,1.287,1.287,0,0,1-.084,1.044,17.733,17.733,0,0,1-2.76,3.792,1.317,1.317,0,0,1-.972.42,1.438,1.438,0,0,1-1.02-.372l-.192-.168a1.152,1.152,0,0,1-.432-.876,1.18,1.18,0,0,1,.36-.924,16.7,16.7,0,0,0,2.448-3.216,1.429,1.429,0,0,1,.816-.648,1.36,1.36,0,0,1,1.032.072Zm10.1.312a42.528,42.528,0,0,1,2.736,3.408,1.273,1.273,0,0,1,.228,1.032,1.325,1.325,0,0,1-.564.888l-.144.1a1.32,1.32,0,0,1-1.008.216,1.355,1.355,0,0,1-.888-.552q-1.512-2.064-2.688-3.384a1.161,1.161,0,0,1-.3-.936,1.234,1.234,0,0,1,.492-.864l.12-.1a1.5,1.5,0,0,1,1.044-.288A1.406,1.406,0,0,1,7.8,265.752Zm-17.952,5.3-.456-.552a2.157,2.157,0,0,1-.312-2.328q1.272-3.24,1.272-9.936v-5.76a1.314,1.314,0,0,1,.408-.96,1.314,1.314,0,0,1,.96-.408H9.48a1.207,1.207,0,0,1,.9.384,1.266,1.266,0,0,1,.372.912A1.27,1.27,0,0,1,9.48,253.68H3.624a.235.235,0,0,0-.24.216q-.048.168-.132.456t-.108.384q-.048.192.168.192H8.04a1.333,1.333,0,0,1,.96.4,1.275,1.275,0,0,1,.408.948v7.32A1.394,1.394,0,0,1,8.04,264.96H4.176a.17.17,0,0,0-.192.192v3.024q0,.984-.024,1.548a4.417,4.417,0,0,1-.168,1.056,1.88,1.88,0,0,1-.336.708,1.518,1.518,0,0,1-.648.372,3.787,3.787,0,0,1-.96.192q-.5.036-1.416.036-.888,0-1.56-.024a1.367,1.367,0,0,1-.972-.444,1.607,1.607,0,0,1-.444-1,1.11,1.11,0,0,1,.348-.936,1.2,1.2,0,0,1,.924-.36q1.1.048,1.224.048.648,0,.78-.156a1.994,1.994,0,0,0,.132-.972v-3.1q0-.192-.216-.192h-4.44a1.314,1.314,0,0,1-.96-.408,1.314,1.314,0,0,1-.408-.96v-7.32a1.275,1.275,0,0,1,.408-.948,1.333,1.333,0,0,1,.96-.4H-.456a.247.247,0,0,0,.264-.216q.024-.1.108-.384t.132-.456Q.1,253.68-.1,253.68H-6.432q-.216,0-.216.192v6.6q0,6.528-1.968,10.44a.856.856,0,0,1-.732.492A.9.9,0,0,1-10.152,271.056Zm16.44-8.592v-1.248A.191.191,0,0,0,6.072,261H-1.992a.191.191,0,0,0-.216.216v1.248q0,.192.216.192H6.072Q6.288,262.656,6.288,262.464Zm-.216-5.232H-1.992q-.216,0-.216.192V258.6q0,.192.216.192H6.072q.216,0,.216-.192v-1.176Q6.288,257.232,6.072,257.232Zm.336,24.6a1.275,1.275,0,0,1,.948.408,1.333,1.333,0,0,1,.4.96v5.208q0,5.856-2.7,8.94t-8.46,3.924a1.417,1.417,0,0,1-1.068-.24,1.418,1.418,0,0,1-.612-.912l-.048-.312a1.194,1.194,0,0,1,.18-.972,1.24,1.24,0,0,1,.852-.54q4.728-.792,6.576-2.976t1.848-6.84V283.2a1.394,1.394,0,0,1,1.368-1.368Zm-12.816,10.8a1.293,1.293,0,0,1-.948-.4,1.293,1.293,0,0,1-.4-.948V283.2a1.333,1.333,0,0,1,.4-.96,1.275,1.275,0,0,1,.948-.408h.648a1.314,1.314,0,0,1,.96.408,1.314,1.314,0,0,1,.408.96v8.088a1.275,1.275,0,0,1-.408.948,1.333,1.333,0,0,1-.96.4Zm14.16,22.752a1.291,1.291,0,0,1,.912.48,1.228,1.228,0,0,1,.288.984q-.816,6.5-4.008,9.684t-9.72,4.236a1.408,1.408,0,0,1-1.056-.228,1.386,1.386,0,0,1-.6-.9l-.072-.288a1.212,1.212,0,0,1,.2-1,1.3,1.3,0,0,1,.876-.564q5.352-.96,7.9-3.456t3.264-7.752a1.409,1.409,0,0,1,.516-.924,1.321,1.321,0,0,1,1-.324Zm-2.64-4.632a1.216,1.216,0,0,1,.972-.072,1.335,1.335,0,0,1,.756.648q.12.216.336.636t.336.636a1.216,1.216,0,0,1,.072.972,1.158,1.158,0,0,1-.648.708,1.217,1.217,0,0,1-.948.048,1.257,1.257,0,0,1-.732-.624q-.12-.216-.336-.636t-.336-.636a1.189,1.189,0,0,1-.084-.948A1.211,1.211,0,0,1,5.112,310.752Zm2.976.408a1.242,1.242,0,0,1,.648-.744,1.3,1.3,0,0,1,1.008-.072,1.259,1.259,0,0,1,.768.624l.348.7.324.648a1.19,1.19,0,0,1,.072.96,1.244,1.244,0,0,1-.648.72,1.216,1.216,0,0,1-.972.072,1.335,1.335,0,0,1-.756-.648q-.216-.432-.7-1.3A1.265,1.265,0,0,1,8.088,311.16Zm-14.784,9.7q-1.008-2.28-2.64-5.832A1.228,1.228,0,0,1-9.372,314a1.275,1.275,0,0,1,.708-.732l.528-.216a1.418,1.418,0,0,1,1.056-.024,1.308,1.308,0,0,1,.768.72q1.656,3.552,2.712,5.9a1.224,1.224,0,0,1,.024,1.032,1.226,1.226,0,0,1-.744.72l-.552.216a1.418,1.418,0,0,1-1.056-.024A1.4,1.4,0,0,1-6.7,320.856Zm1.488,70.416a1.293,1.293,0,0,1-.948-.4,1.293,1.293,0,0,1-.4-.948V372.792a1.293,1.293,0,0,1,.4-.948,1.293,1.293,0,0,1,.948-.4h.648a1.333,1.333,0,0,1,.96.4,1.275,1.275,0,0,1,.408.948v5.184q0,.216.168.24A120.256,120.256,0,0,1,8.592,381.7a1.364,1.364,0,0,1,.78.7,1.31,1.31,0,0,1,.06,1.056l-.144.456a1.361,1.361,0,0,1-1.7.84Q1.9,382.752-3.024,381.5a.1.1,0,0,0-.12.036.207.207,0,0,0-.048.132v8.256a1.275,1.275,0,0,1-.408.948,1.333,1.333,0,0,1-.96.4Z" transform="translate(7358 -8392)"/>
    <path id="パス_8763" data-name="パス 8763" class="cls-2" d="M5.544-16.776A36.521,36.521,0,0,0,10.7-.864a1.207,1.207,0,0,1,.144,1,1.165,1.165,0,0,1-.624.78l-.576.312a1.5,1.5,0,0,1-1.068.132A1.383,1.383,0,0,1,7.7.744,37.761,37.761,0,0,1,2.472-15.12q0-.192-.24-.192H-4.08a1.314,1.314,0,0,1-.96-.408,1.314,1.314,0,0,1-.408-.96v-.072a1.314,1.314,0,0,1,.408-.96,1.314,1.314,0,0,1,.96-.408H4.08a1.427,1.427,0,0,1,1,.384A1.415,1.415,0,0,1,5.544-16.776ZM-10.224.936a1.2,1.2,0,0,1-.612-.792,1.169,1.169,0,0,1,.18-.984,34.028,34.028,0,0,0,4.7-11.208,1.345,1.345,0,0,1,.588-.864,1.357,1.357,0,0,1,1.02-.216l.5.12a1.358,1.358,0,0,1,.864.576,1.32,1.32,0,0,1,.216,1.008A35.573,35.573,0,0,1-7.728.768,1.383,1.383,0,0,1-8.6,1.38a1.426,1.426,0,0,1-1.068-.156ZM6.816,17.568a1.311,1.311,0,0,1,1.3,1.3,1.274,1.274,0,0,1-.384.936,1.246,1.246,0,0,1-.912.384H4.08q-.216,0-.216.192A12.666,12.666,0,0,1,2.208,27.3,8.429,8.429,0,0,1-2.88,30.72a1.328,1.328,0,0,1-1.044-.144,1.519,1.519,0,0,1-.684-.84,1.125,1.125,0,0,1,.1-.96,1.26,1.26,0,0,1,.792-.6A5.822,5.822,0,0,0-.192,25.644a10.9,10.9,0,0,0,1.1-5.292q0-.168-.192-.168H-3.5a.28.28,0,0,0-.288.192,13.967,13.967,0,0,1-1.752,3.072,1.333,1.333,0,0,1-.924.54,1.506,1.506,0,0,1-1.068-.228,1.165,1.165,0,0,1-.552-.792,1.235,1.235,0,0,1,.216-.96,15.414,15.414,0,0,0,2.352-5.76,1.553,1.553,0,0,1,.552-.924A1.457,1.457,0,0,1-3.96,15h.1a1.307,1.307,0,0,1,.912.468,1.128,1.128,0,0,1,.264.972q-.1.624-.168.936-.048.192.144.192ZM-9.72,54.12a1.254,1.254,0,0,1-.936-.4,1.286,1.286,0,0,1-.384-.924,1.286,1.286,0,0,1,.384-.924,1.254,1.254,0,0,1,.936-.4h1.8q.192,0,.192-.216v-8.3A1.314,1.314,0,0,1-7.32,42a1.314,1.314,0,0,1,.96-.408,91.914,91.914,0,0,0,12.816-.936,1.507,1.507,0,0,1,1.056.192,1.533,1.533,0,0,1,.672.84v.048a1.152,1.152,0,0,1-.12,1,1.092,1.092,0,0,1-.816.54,99.377,99.377,0,0,1-11.5.84q-.192,0-.192.216v.816a.191.191,0,0,0,.216.216H8.712a1.2,1.2,0,1,1,0,2.4H6.768a.191.191,0,0,0-.216.216v3.288a.191.191,0,0,0,.216.216H9.72a1.254,1.254,0,0,1,.936.4,1.3,1.3,0,0,1,0,1.848,1.254,1.254,0,0,1-.936.4H1.848a.191.191,0,0,0-.216.216v3.888a.191.191,0,0,0,.216.216H6q.192,0,.192-.216v-1.9A1.394,1.394,0,0,1,7.56,54.96h.528a1.275,1.275,0,0,1,.948.408,1.333,1.333,0,0,1,.4.96V60.96a1.333,1.333,0,0,1-.4.96,1.275,1.275,0,0,1-.948.408H7.272a1.066,1.066,0,0,1-1.08-1.08q0-.168-.144-.168h-12.1q-.144,0-.144.168a1.044,1.044,0,0,1-.312.768,1.044,1.044,0,0,1-.768.312h-.816a1.275,1.275,0,0,1-.948-.408,1.333,1.333,0,0,1-.4-.96V56.328a1.333,1.333,0,0,1,.4-.96,1.275,1.275,0,0,1,.948-.408h.528a1.314,1.314,0,0,1,.96.408,1.314,1.314,0,0,1,.408.96v1.9q0,.216.192.216h4.152a.191.191,0,0,0,.216-.216V54.336a.191.191,0,0,0-.216-.216Zm5.28-6.144v3.288a.191.191,0,0,0,.216.216H3.168q.192,0,.192-.216V47.976q0-.216-.192-.216H-4.224A.191.191,0,0,0-4.44,47.976Zm3.024,27.312a7.548,7.548,0,0,0-4.416,2.556A7.292,7.292,0,0,0-7.44,82.632a6.862,6.862,0,0,0,.744,3.24q.744,1.416,1.416,1.416a1.064,1.064,0,0,0,.7-.324,4.34,4.34,0,0,0,.8-1.176,14.328,14.328,0,0,0,.864-2.136,33.308,33.308,0,0,0,.864-3.408q.444-2.124.8-4.788a.122.122,0,0,0-.036-.132A.122.122,0,0,0-1.416,75.288ZM-5.28,90.312A4.528,4.528,0,0,1-8.856,88.08a8.978,8.978,0,0,1-1.632-5.448,9.78,9.78,0,0,1,3.168-7.56,11.774,11.774,0,0,1,8.28-2.9A9.462,9.462,0,0,1,7.788,74.76a8.753,8.753,0,0,1,2.7,6.6,10.416,10.416,0,0,1-1.74,6.2,7.7,7.7,0,0,1-4.764,3.108,1.272,1.272,0,0,1-1.044-.216,1.446,1.446,0,0,1-.588-.912L2.3,89.328a1.2,1.2,0,0,1,.192-.984,1.566,1.566,0,0,1,.84-.624q4.1-1.272,4.1-6.36a6.138,6.138,0,0,0-1.452-4.14,6.141,6.141,0,0,0-3.8-2.076.2.2,0,0,0-.264.168q-.48,3.624-1.08,6.3a28.918,28.918,0,0,1-1.26,4.32A10.1,10.1,0,0,1-1.9,88.572,4.858,4.858,0,0,1-3.5,89.94,4.127,4.127,0,0,1-5.28,90.312ZM-9.048,108a1.275,1.275,0,0,1-.948-.408,1.333,1.333,0,0,1-.4-.96v-.072a1.333,1.333,0,0,1,.4-.96,1.275,1.275,0,0,1,.948-.408h7.2q.216,0,.216-.192v-3.168a1.293,1.293,0,0,1,.4-.948,1.293,1.293,0,0,1,.948-.4H.288a1.293,1.293,0,0,1,.948.4,1.293,1.293,0,0,1,.4.948V105q0,.192.216.192h7.2A1.275,1.275,0,0,1,10,105.6a1.333,1.333,0,0,1,.4.96v.072a1.333,1.333,0,0,1-.4.96,1.275,1.275,0,0,1-.948.408H2.016q-.24,0-.192.216Q2.9,115.1,9.648,118.9a1.162,1.162,0,0,1,.6.792,1.138,1.138,0,0,1-.192.96l-.192.24a1.531,1.531,0,0,1-.912.624,1.411,1.411,0,0,1-1.08-.144A17.511,17.511,0,0,1,3.4,117.72a18.721,18.721,0,0,1-3.18-4.992.086.086,0,0,0-.084-.048.086.086,0,0,0-.084.048,18.926,18.926,0,0,1-3.3,5,18.037,18.037,0,0,1-4.62,3.66,1.415,1.415,0,0,1-1.092.132,1.582,1.582,0,0,1-.9-.636l-.192-.24a1.138,1.138,0,0,1-.192-.96,1.162,1.162,0,0,1,.6-.792q6.744-3.792,7.824-10.68.048-.216-.192-.216Zm.96,43.992a1.293,1.293,0,0,1-.948-.4,1.293,1.293,0,0,1-.4-.948V134.28a1.333,1.333,0,0,1,.4-.96,1.275,1.275,0,0,1,.948-.408H-2.88a.264.264,0,0,0,.264-.192q.24-.672.528-1.68a1.66,1.66,0,0,1,.636-.888,1.427,1.427,0,0,1,1.044-.264l.576.072a1.1,1.1,0,0,1,.852.48,1.1,1.1,0,0,1,.156.96q-.216.792-.384,1.32-.048.192.12.192H8.088a1.275,1.275,0,0,1,.948.408,1.333,1.333,0,0,1,.4.96v16.368a1.352,1.352,0,0,1-1.344,1.344H7.224a.948.948,0,0,1-.7-.288.921.921,0,0,1-.288-.672.127.127,0,0,0-.144-.144H-6.1a.127.127,0,0,0-.144.144.921.921,0,0,1-.288.672.948.948,0,0,1-.7.288ZM-6.24,135.72v2.232a.191.191,0,0,0,.216.216H6.048q.192,0,.192-.216V135.72a.17.17,0,0,0-.192-.192H-6.024Q-6.24,135.528-6.24,135.72Zm0,5.04v2.28q0,.192.216.192H6.048a.17.17,0,0,0,.192-.192v-2.28a.17.17,0,0,0-.192-.192H-6.024Q-6.24,140.568-6.24,140.76Zm0,5.088v2.3a.191.191,0,0,0,.216.216H6.048q.192,0,.192-.216v-2.3q0-.216-.192-.216H-6.024A.191.191,0,0,0-6.24,145.848ZM-10.608,175.1l-.072-.192a1.345,1.345,0,0,1,0-1.056,1.515,1.515,0,0,1,.72-.792,19.222,19.222,0,0,0,1.92-1.2.19.19,0,0,0,.024-.288q-.216-.264-.66-.768t-.66-.744a1.117,1.117,0,0,1-.288-.876,1.14,1.14,0,0,1,.432-.8,1.207,1.207,0,0,1,.912-.3,1.212,1.212,0,0,1,.864.42q.432.48,1.3,1.488.144.144.264.024.456-.432.888-.888a.233.233,0,0,0,0-.312q-.216-.24-.648-.732t-.648-.732a1.173,1.173,0,0,1-.3-.888,1.11,1.11,0,0,1,.42-.816,1.322,1.322,0,0,1,.924-.276,1.2,1.2,0,0,1,.852.42q.144.168.444.492t.444.492q.168.168.264,0a14.745,14.745,0,0,0,1.056-2.04.132.132,0,0,0-.024-.132.148.148,0,0,0-.12-.06H-5.568a.461.461,0,0,0-.336.144,23.373,23.373,0,0,1-2.5,2.256,1.148,1.148,0,0,1-.972.228,1.2,1.2,0,0,1-.828-.588,1.483,1.483,0,0,1-.192-1.044,1.452,1.452,0,0,1,.552-.924,18.61,18.61,0,0,0,3.312-3.336,1.994,1.994,0,0,1,2.112-.816l.048.024a.982.982,0,0,1,.708.576.9.9,0,0,1-.06.888.465.465,0,0,0-.06.084.464.464,0,0,1-.06.084.08.08,0,0,0-.012.108.118.118,0,0,0,.108.06H-.12a1.083,1.083,0,0,1,.792.336,1.083,1.083,0,0,1,.336.792v1.032a.334.334,0,0,1-.024.144v.024H2.136a.191.191,0,0,0,.216-.216v-2.472a1.275,1.275,0,0,1,.408-.948,1.333,1.333,0,0,1,.96-.4h.672a1.066,1.066,0,0,1,1.08,1.08.057.057,0,0,0,.048.06.072.072,0,0,0,.072-.012l.432-.552a1.5,1.5,0,0,1,.96-.54,1.347,1.347,0,0,1,1.032.252q.72.5,1.488,1.1a1.235,1.235,0,0,1,.516.9,1.358,1.358,0,0,1-.3,1.02l-.456.576q-.024.024,0,.084t.072.06a1.229,1.229,0,0,1,1.224,1.224v.1a1.286,1.286,0,0,1-.384.924,1.254,1.254,0,0,1-.936.4h-3.1q-.192,0-.144.192a11.015,11.015,0,0,0,4.056,5.328,1.339,1.339,0,0,1,.516.888,1.128,1.128,0,0,1-.276.96l-.144.168a1.5,1.5,0,0,1-.96.54,1.369,1.369,0,0,1-1.056-.276,14.5,14.5,0,0,1-4.152-5.16q-.072-.12-.168.024A16.155,16.155,0,0,1-.72,175.1a1.4,1.4,0,0,1-1.044.252,1.5,1.5,0,0,1-.948-.54l-.168-.192a1.184,1.184,0,0,1-.264-.948,1.2,1.2,0,0,1,.5-.852,11.488,11.488,0,0,0,4.416-5.376q.048-.192-.12-.192H.024a.282.282,0,0,0-.288.168,20.343,20.343,0,0,1-3.624,4.728,21.412,21.412,0,0,1-4.968,3.624,1.143,1.143,0,0,1-1.008.06A1.267,1.267,0,0,1-10.608,175.1Zm16.08-12.6V163.9q0,.072.012.24t.012.264a.191.191,0,0,0,.216.216H8.328q.048,0,.06-.06a.069.069,0,0,0-.036-.084q-1.488-1.2-2.712-2.064a.08.08,0,0,0-.108-.012A.118.118,0,0,0,5.472,162.5ZM-6.576,176.136l.144.048a1.363,1.363,0,0,1,.684.792,1.323,1.323,0,0,1-.06,1.032q-.984,1.872-1.92,3.288a1.338,1.338,0,0,1-.876.6,1.335,1.335,0,0,1-1.044-.192l-.168-.12a1.275,1.275,0,0,1-.576-.852,1.267,1.267,0,0,1,.192-1.02q.912-1.392,1.776-3a1.317,1.317,0,0,1,.8-.672A1.322,1.322,0,0,1-6.576,176.136Zm3.864.168a1.361,1.361,0,0,1,1.032.276,1.4,1.4,0,0,1,.552.9q.24,1.512.432,3.168a1.228,1.228,0,0,1-.288.984,1.4,1.4,0,0,1-.936.5l-.288.048a1.228,1.228,0,0,1-.984-.288,1.4,1.4,0,0,1-.5-.936q-.168-1.464-.432-3.12a1.234,1.234,0,0,1,.24-1A1.28,1.28,0,0,1-3,176.328Zm4.7-.12a1.427,1.427,0,0,1,1.068.132,1.354,1.354,0,0,1,.684.828q.768,2.28,1.008,3.168a1.211,1.211,0,0,1-.12,1.02,1.241,1.241,0,0,1-.84.612l-.216.048a1.441,1.441,0,0,1-1.044-.156,1.371,1.371,0,0,1-.66-.828q-.288-1.032-.984-3.168a1.234,1.234,0,0,1,.1-1.008,1.162,1.162,0,0,1,.792-.6ZM6.6,176.04a1.4,1.4,0,0,1,1.044-.12,1.425,1.425,0,0,1,.852.624q.768,1.248,1.848,3.168a1.359,1.359,0,0,1,.108,1.044,1.274,1.274,0,0,1-.66.8l-.144.072A1.385,1.385,0,0,1,7.8,181.08q-.816-1.512-1.824-3.144a1.23,1.23,0,0,1-.144-1.008,1.249,1.249,0,0,1,.624-.816ZM-8.712,195.672a1.266,1.266,0,0,1-.912-.372,1.207,1.207,0,0,1-.384-.9,1.207,1.207,0,0,1,.384-.9,1.266,1.266,0,0,1,.912-.372H-5.04q.168,0,.264-.216l.432-1.152a1.559,1.559,0,0,1,.7-.852,1.551,1.551,0,0,1,1.08-.2l.408.1a1.185,1.185,0,0,1,.792.564,1.1,1.1,0,0,1,.1.948q-.048.12-.132.324t-.108.276q-.048.216.144.216h8.5a1.272,1.272,0,1,1,0,2.544H-2.424a.28.28,0,0,0-.288.192q-.336.792-.816,1.8,0,.048.024.048h.024a6.635,6.635,0,0,1,2.448-.5A4.256,4.256,0,0,1,3.216,199.9a.24.24,0,0,0,.312.144q1.92-.384,3.552-.6a1.236,1.236,0,0,1,.96.264,1.212,1.212,0,0,1,.48.888,1.357,1.357,0,0,1-.288.984,1.294,1.294,0,0,1-.888.5q-2.088.312-3.216.552-.216.048-.168.24.144,1.272.168,2.16a1.25,1.25,0,0,1-.372.96,1.275,1.275,0,0,1-.948.408h-.48a1.333,1.333,0,0,1-.96-.4,1.362,1.362,0,0,1-.432-.948q-.024-.648-.072-1.32,0-.216-.192-.168-3.864,1.344-3.864,2.9a1.619,1.619,0,0,0,.36,1.092,3.069,3.069,0,0,0,1.56.708,15.166,15.166,0,0,0,3.36.288,37.765,37.765,0,0,0,4.632-.36,1.286,1.286,0,0,1,1,.276,1.237,1.237,0,0,1,.492.9,1.407,1.407,0,0,1-.3,1.02,1.339,1.339,0,0,1-.924.516,41.462,41.462,0,0,1-4.9.288q-4.512,0-6.5-1.068a3.527,3.527,0,0,1-1.992-3.324q0-3.7,6.48-5.856.216-.048.12-.24A2.025,2.025,0,0,0-1.752,199.7q-2.256,0-5.208,3.792a1.509,1.509,0,0,1-.936.564,1.462,1.462,0,0,1-1.056-.18l-.192-.12a1.26,1.26,0,0,1-.576-.816,1.2,1.2,0,0,1,.192-.984A42.787,42.787,0,0,0-6,195.888a.182.182,0,0,0-.012-.144.115.115,0,0,0-.108-.072Zm-1.8,33.192a1.3,1.3,0,0,1-.5-.9,1.246,1.246,0,0,1,.288-1l.024-.024a1.447,1.447,0,0,1,.936-.516,1.347,1.347,0,0,1,1.032.252q1.008.744,2.352,1.92a1.34,1.34,0,0,1,.468.948,1.448,1.448,0,0,1-.324,1.02l-.072.072a1.173,1.173,0,0,1-.888.468,1.271,1.271,0,0,1-.96-.324Q-8.664,230.352-10.512,228.864Zm20.544-2.5a1.248,1.248,0,1,1,0,2.5H4.416q-.216,0-.216.192v.648a.191.191,0,0,0,.216.216H9.168a1.275,1.275,0,0,1,.948.408,1.333,1.333,0,0,1,.4.96v7.2a6.2,6.2,0,0,1-.456,3.072q-.456.6-2.3.6-.936,0-1.824-.048a1.316,1.316,0,0,1-.912-.42,1.406,1.406,0,0,1-.408-.948,1.093,1.093,0,0,1,.336-.876,1.148,1.148,0,0,1,.888-.324q.384.024.912.024a1.2,1.2,0,0,0,.648-.1,1.351,1.351,0,0,0,.1-.7v-6.144q0-.216-.192-.216H3.96q-.192,0-.192.216v3.84q0,.216.192.216h.432q.192,0,.192-.216v-2.16a1.066,1.066,0,0,1,1.08-1.08,1.066,1.066,0,0,1,1.08,1.08v3.432a1.333,1.333,0,0,1-.4.96,1.275,1.275,0,0,1-.948.408H.936a.148.148,0,0,0-.168.168,1.113,1.113,0,0,1-.36.828,1.171,1.171,0,0,1-.84.348,1.159,1.159,0,0,1-.852-.348,1.159,1.159,0,0,1-.348-.852v-4.944a1.044,1.044,0,0,1,.312-.768,1.044,1.044,0,0,1,.768-.312,1.044,1.044,0,0,1,.768.312,1.044,1.044,0,0,1,.312.768v2.16q0,.216.192.216h.432a.191.191,0,0,0,.216-.216v-3.84a.191.191,0,0,0-.216-.216H-2.184q-.192,0-.192.216v8.4a1.314,1.314,0,0,1-.408.96,1.314,1.314,0,0,1-.96.408h-.264a1.275,1.275,0,0,1-.948-.408,1.333,1.333,0,0,1-.4-.96v-5.688a.1.1,0,0,0-.072-.024A29.485,29.485,0,0,1-7.9,240.936a1.176,1.176,0,0,1-.828.6,1.267,1.267,0,0,1-1.02-.192l-.24-.144a1.406,1.406,0,0,1-.588-.864,1.4,1.4,0,0,1,.132-1.032,36.009,36.009,0,0,0,2.352-5.088,1.274,1.274,0,0,1,.7-.756,1.32,1.32,0,0,1,1.032-.036l.1.024a1.369,1.369,0,0,1,.84.816l.036.036q.012.012.036-.012v-3a1.333,1.333,0,0,1,.4-.96,1.275,1.275,0,0,1,.948-.408H.72a.191.191,0,0,0,.216-.216v-.648q0-.192-.216-.192H-4.872a1.207,1.207,0,0,1-.888-.36,1.207,1.207,0,0,1-.36-.888,1.207,1.207,0,0,1,.36-.888,1.207,1.207,0,0,1,.888-.36H-2.28q.192,0,.192-.216v-1.44q0-.216-.192-.216H-4.3a1.159,1.159,0,0,1-1.056-.6q-.024-.024-.036,0a.107.107,0,0,0-.012.048,1.437,1.437,0,0,1-.312.936l-.072.072a1.249,1.249,0,0,1-.912.468,1.349,1.349,0,0,1-.984-.324q-1.464-1.224-1.872-1.536a1.294,1.294,0,0,1-.5-.888,1.228,1.228,0,0,1,.288-.984l.024-.024a1.483,1.483,0,0,1,.948-.5,1.368,1.368,0,0,1,1.02.264q1.68,1.3,1.9,1.488a1.7,1.7,0,0,1,.312.384q.048.048.048,0a1.178,1.178,0,0,1,.36-.864,1.178,1.178,0,0,1,.864-.36H-2.28a.17.17,0,0,0,.192-.192v-.24a1.314,1.314,0,0,1,.408-.96,1.314,1.314,0,0,1,.96-.408h.312a1.314,1.314,0,0,1,.96.408,1.314,1.314,0,0,1,.408.96v.24a.17.17,0,0,0,.192.192H4.344q.216,0,.216-.192v-.24a1.394,1.394,0,0,1,1.368-1.368h.36a1.275,1.275,0,0,1,.948.408,1.333,1.333,0,0,1,.4.96v.24q0,.192.216.192H9.6a1.139,1.139,0,0,1,.852.36,1.2,1.2,0,0,1,.348.864,1.188,1.188,0,0,1-1.2,1.2H7.848a.191.191,0,0,0-.216.216v1.44a.191.191,0,0,0,.216.216Zm-5.472-.216v-1.44a.191.191,0,0,0-.216-.216H1.152q-.192,0-.192.216v1.44q0,.216.192.216H4.344A.191.191,0,0,0,4.56,226.152Zm.408,35.592a.608.608,0,0,0-.12.36v1.3a.17.17,0,0,0,.192.192H9.864a1.187,1.187,0,0,1,.888.372,1.247,1.247,0,0,1,.36.9,1.23,1.23,0,0,1-1.248,1.248H5.592a.118.118,0,0,0-.108.06.08.08,0,0,0,.012.108,8.108,8.108,0,0,0,4.632,2.76,1.286,1.286,0,0,1,.8.624,1.206,1.206,0,0,1,.108,1.008l-.048.12a1.419,1.419,0,0,1-.684.84,1.316,1.316,0,0,1-1.044.1,12.255,12.255,0,0,1-5.76-3.672q-.144-.168-.288-.024a13.183,13.183,0,0,1-6.192,3.72,1.241,1.241,0,0,1-1.032-.12,1.407,1.407,0,0,1-.672-.84l-.048-.12a1.176,1.176,0,0,1,.108-1,1.3,1.3,0,0,1,.8-.612q3.48-.936,4.776-2.784a.08.08,0,0,0,.012-.108.118.118,0,0,0-.108-.06H-2.544a1.207,1.207,0,0,1-.888-.36,1.207,1.207,0,0,1-.36-.888,1.247,1.247,0,0,1,.36-.9,1.187,1.187,0,0,1,.888-.372H1.44a.17.17,0,0,0,.192-.192v-.192a1.314,1.314,0,0,1,.408-.96A1.314,1.314,0,0,1,3,261.84h.888a.077.077,0,0,0,.072-.048.1.1,0,0,0,0-.1l-.84-.936q-.048-.048-.048.024a.516.516,0,0,1-.48.576q-3.192.576-5.088.792a1.105,1.105,0,0,1-.852-.264,1.063,1.063,0,0,1-.4-.792,1.2,1.2,0,0,1,.3-.876,1.19,1.19,0,0,1,.8-.42,2.708,2.708,0,0,1,.336-.048q.24-.024.336-.024.168-.024.168-.24v-1.44q0-.216-.192-.216h-.5a1.016,1.016,0,0,1-.744-.312,1.016,1.016,0,0,1-.312-.744,1.016,1.016,0,0,1,.312-.744,1.016,1.016,0,0,1,.744-.312h.5q.192,0,.192-.216v-.984a.17.17,0,0,0-.192-.192h-.672a1.083,1.083,0,0,1-.792-.336,1.111,1.111,0,0,1-.336-.816,1.083,1.083,0,0,1,.336-.792,1.083,1.083,0,0,1,.792-.336h.672q.192,0,.192-.216v-.12a1.275,1.275,0,0,1,.408-.948,1.333,1.333,0,0,1,.96-.4H-.12a1.293,1.293,0,0,1,.948.4,1.293,1.293,0,0,1,.4.948v.12a.191.191,0,0,0,.216.216h.576a1.111,1.111,0,0,1,.816.336,1.083,1.083,0,0,1,.336.792,1.123,1.123,0,0,1-.336.8,1.092,1.092,0,0,1-.816.348H1.44q-.216,0-.216.192v.984a.191.191,0,0,0,.216.216H1.9a1.016,1.016,0,0,1,.744.312,1.043,1.043,0,0,1,0,1.488,1.016,1.016,0,0,1-.744.312H1.44a.191.191,0,0,0-.216.216v1.032q0,.216.192.168.672-.1,1.032-.144a.51.51,0,0,1,.42.084.434.434,0,0,1,.18.372q0,.072.048.024a10.082,10.082,0,0,0,1.728-5.712q0-.192-.168-.192a1.083,1.083,0,0,1-.792-.336,1.111,1.111,0,0,1-.336-.816v-.12A1.266,1.266,0,0,1,3.9,251.5a1.207,1.207,0,0,1,.9-.384H9.72a1.394,1.394,0,0,1,1.368,1.368q0,2.328-.036,3.852T10.9,258.96q-.12,1.1-.24,1.68a2.088,2.088,0,0,1-.4.912,1.122,1.122,0,0,1-.552.408,3.127,3.127,0,0,1-.756.072q-.792,0-1.248-.024a1.373,1.373,0,0,1-1-.456,1.683,1.683,0,0,1-.444-1.032l-.024-.744a.042.042,0,0,0-.048-.048.077.077,0,0,0-.072.048A9.658,9.658,0,0,1,4.968,261.744Zm1.416-2.592a.159.159,0,0,0,.024.144.231.231,0,0,0,.12.1,4.726,4.726,0,0,0,.864.1.5.5,0,0,0,.384-.132A1.748,1.748,0,0,0,8,258.648a12.815,12.815,0,0,0,.156-1.68q.048-1.1.048-3.1a.17.17,0,0,0-.192-.192H7.632q-.216,0-.216.192A17.276,17.276,0,0,1,6.384,259.152Zm-15.912,12.12a1.293,1.293,0,0,1-.948-.4,1.293,1.293,0,0,1-.4-.948V252.96a1.333,1.333,0,0,1,.4-.96,1.275,1.275,0,0,1,.948-.408h3.936a1.275,1.275,0,0,1,.948.408,1.333,1.333,0,0,1,.4.96v15.6a1.333,1.333,0,0,1-.4.96,1.275,1.275,0,0,1-.948.408h-2.28q-.192,0-.192.168a1.131,1.131,0,0,1-.348.828,1.131,1.131,0,0,1-.828.348Zm1.464-16.752v12.552a.191.191,0,0,0,.216.216H-7.1a.191.191,0,0,0,.216-.216V254.52q0-.192-.216-.192h-.744Q-8.064,254.328-8.064,254.52Z" transform="translate(7292 -8330)"/>
    <path id="パス_8766" data-name="パス 8766" class="cls-2" d="M-8.568-7.032a1.275,1.275,0,0,1-.948-.408,1.333,1.333,0,0,1-.4-.96v-.48a1.333,1.333,0,0,1,.4-.96,1.275,1.275,0,0,1,.948-.408H8.568a1.275,1.275,0,0,1,.948.408,1.333,1.333,0,0,1,.4.96v.48a1.333,1.333,0,0,1-.4.96,1.275,1.275,0,0,1-.948.408Z" transform="translate(7419 -8319) rotate(90)"/>
    <path id="パス_8767" data-name="パス 8767" class="cls-2" d="M-8.568-7.032a1.275,1.275,0,0,1-.948-.408,1.333,1.333,0,0,1-.4-.96v-.48a1.333,1.333,0,0,1,.4-.96,1.275,1.275,0,0,1,.948-.408H8.568a1.275,1.275,0,0,1,.948.408,1.333,1.333,0,0,1,.4.96v.48a1.333,1.333,0,0,1-.4.96,1.275,1.275,0,0,1-.948.408Z" transform="translate(7349 -8040) rotate(90)"/>
  </g>
</svg>
