<svg xmlns="http://www.w3.org/2000/svg" xmlns:xlink="http://www.w3.org/1999/xlink" width="175.624" height="89.003" viewBox="0 0 175.624 89.003">
  <defs>
    <style>
      .cls-1 {
        fill: #fce952;
      }

      .cls-2 {
        fill: #edbc32;
      }

      .cls-3, .cls-4, .cls-5 {
        fill: #306e1d;
      }

      .cls-3 {
        font-size: 32px;
        letter-spacing: -0.2em;
      }

      .cls-3, .cls-4 {
        font-family: AB-kirigirisu;
      }

      .cls-4 {
        font-size: 55px;
      }

      .cls-6 {
        filter: url(#_4);
      }

      .cls-7 {
        filter: url(#No.);
      }
    </style>
    <filter id="No." x="46.544" y="29.483" width="65" height="35" filterUnits="userSpaceOnUse">
      <feOffset dx="3" dy="3" input="SourceAlpha"/>
      <feGaussianBlur result="blur"/>
      <feFlood flood-color="#edbc32" flood-opacity="0.518"/>
      <feComposite operator="in" in2="blur"/>
      <feComposite in="SourceGraphic"/>
    </filter>
    <filter id="_4" x="95.098" y="12.468" width="47" height="58" filterUnits="userSpaceOnUse">
      <feOffset dx="3" dy="3" input="SourceAlpha"/>
      <feGaussianBlur result="blur-2"/>
      <feFlood flood-color="#edbc32" flood-opacity="0.518"/>
      <feComposite operator="in" in2="blur-2"/>
      <feComposite in="SourceGraphic"/>
    </filter>
  </defs>
  <g id="グループ_1147" data-name="グループ 1147" transform="translate(-11559.521 -324.442)">
    <path id="パス_6522" data-name="パス 6522" class="cls-1" d="M48.7,207.226A283.356,283.356,0,0,0,5.849,217.531q1.869-9.141,3.97-18.267Q5.018,191.889,0,184.67a302.6,302.6,0,0,1,45.766-11.007q1.466,16.781,2.932,33.563" transform="translate(11568.013 195.914)"/>
    <path id="パス_6523" data-name="パス 6523" class="cls-2" d="M69.965,200.56q-12.476-6.375-25.656-11.566-2.263-16.62-4.527-33.239Q53.749,160.733,67.033,167q1.466,16.781,2.932,33.563" transform="translate(11546.745 202.58)"/>
    <path id="パス_6524" data-name="パス 6524" class="cls-1" d="M289.652,207.226A283.357,283.357,0,0,1,332.5,217.531q-1.869-9.141-3.97-18.267,4.8-7.376,9.819-14.595a302.6,302.6,0,0,0-45.766-11.007q-1.466,16.781-2.932,33.563" transform="translate(11390.321 195.914)"/>
    <path id="パス_6525" data-name="パス 6525" class="cls-2" d="M289.652,200.56q12.476-6.375,25.656-11.566l4.526-33.239Q305.868,160.733,292.584,167q-1.466,16.781-2.932,33.563" transform="translate(11390.321 202.58)"/>
    <path id="パス_6526" data-name="パス 6526" class="cls-1" d="M159.59,190.132a177.59,177.59,0,0,0-115.987,0q-1.91-19.167-3.821-38.334a189.284,189.284,0,0,1,123.628,0q-1.911,19.167-3.821,38.334" transform="translate(11546.744 206.536)"/>
    <g class="cls-7" transform="matrix(1, 0, 0, 1, 11559.52, 324.44)">
      <text id="No.-2" data-name="No." class="cls-3" transform="translate(77.54 57.48)"><tspan x="-30.256" y="0">No.</tspan></text>
    </g>
    <g class="cls-6" transform="matrix(1, 0, 0, 1, 11559.52, 324.44)">
      <text id="_4-2" data-name="4" class="cls-4" transform="translate(117.1 60.47)"><tspan x="-21.202" y="0">4</tspan></text>
    </g>
    <path id="パス_8652" data-name="パス 8652" class="cls-5" d="M7.474,7.6c.574,2.331-.2,4.341-2.037,5.117-1.881.8-4.5-.04-5.21-3.036-.938-3.939,1.231-5.2,2.744-5.492C4.5,3.935,6.609,4.109,7.474,7.6m-1.922.5c-.3-1.339-.906-2.45-2.39-2.166-1.3.405-1.467,1.622-1.137,3.125.282,1.243,1,2.263,2.2,2.188.888-.072,1.84-.917,1.329-3.147" transform="matrix(1, -0.017, 0.017, 1, 11588.538, 326.095)"/>
    <path id="パス_8653" data-name="パス 8653" class="cls-5" d="M18.164,2l1.8-.311S21.187,9.119,21.382,10c0,0-1.859.221-2.426.273,0,0-.632-4.968-.736-5.709,0,0-1.739,2.669-2.215,3.465,0,0-2.252-2.161-3.3-3.232,0,0,.813,4.368,1.119,6.243l-2.111.326s-.776-5.4-1.107-8.332l2.135-.259L15.7,5.467Z" transform="matrix(1, -0.017, 0.017, 1, 11590.179, 325.69)"/>
    <path id="パス_8654" data-name="パス 8654" class="cls-5" d="M30.331,4.752c.341,2.376-.625,4.3-2.533,4.891-1.95.609-4.47-.485-4.886-3.537-.544-4.013,1.74-5.055,3.272-5.2,1.55-.1,3.631.283,4.147,3.841m-1.962.3C28.2,3.691,27.709,2.527,26.2,2.663c-1.339.274-1.62,1.468-1.441,3,.157,1.266.771,2.352,1.971,2.4.892.016,1.923-.731,1.635-3" transform="matrix(1, -0.017, 0.017, 1, 11592.073, 325.535)"/>
    <path id="パス_8655" data-name="パス 8655" class="cls-5" d="M38.151,2.192,38.6,8.572s-1.146.177-2.143.221c0,0-.066-5.869-.124-6.519,0,0-1.933-.081-2.572-.08L33.686.434S38.909.2,40.644.18l-.083,1.877s-1.951.142-2.41.135" transform="matrix(1, -0.017, 0.017, 1, 11593.757, 325.394)"/>
    <path id="パス_8656" data-name="パス 8656" class="cls-5" d="M45.013.044s3.3-.12,6.151.036L51,1.728s-2.092.192-3.519.245l.053,1.289s2.189-.095,3.021-.094l-.03,1.815s-2.2-.085-2.966-.128l.095,1.579A17.151,17.151,0,0,0,51.2,6.218l-.169,2.217A57.352,57.352,0,0,1,45.1,8.316c-.159-4.309-.147-4.309-.085-8.272" transform="matrix(1, -0.017, 0.017, 1, 11595.508, 325.336)"/>
    <path id="パス_8657" data-name="パス 8657" class="cls-5" d="M61.5.317s1.533.132,2.156.163c0,0-.3,7.628-.4,8.428,0,0-1.1.029-2.26-.029,0,0-2.836-4.65-3.242-5.405l-.187,5.151s-1.263.007-2.1-.076c0,0,.317-5.52.409-8.22L57.743.282s3.243,5.655,3.472,6.346Z" transform="matrix(1, -0.017, 0.017, 1, 11597.137, 325.351)"/>
    <path id="パス_8658" data-name="パス 8658" class="cls-5" d="M71.186.7c1.32,2.736,3.254,7.441,3.931,9.347,0,0-1.964-.012-2.613-.076,0,0-.3-1.339-.561-2.215,0,0-1.175-.1-2.834-.237L68.085,9.428s-1.208-.328-2.076-.581A85.413,85.413,0,0,1,71.186.7m.36,4.983c-.3-.908-.758-2.068-.758-2.068L69.734,5.562a17.259,17.259,0,0,0,1.813.122" transform="matrix(1, -0.017, 0.017, 1, 11598.775, 325.388)"/>
    <path id="パス_8659" data-name="パス 8659" class="cls-5" d="M81.09,11.088A3.172,3.172,0,0,1,78.381,8.72l1.482-1.044a1.843,1.843,0,0,0,1.362,1.71c.529.119,1.1.061,1.252-.616.351-1.546-2.665-1.7-2.931-3.828a2.347,2.347,0,0,1,2.734-2.628,2.738,2.738,0,0,1,2.711,2.929l-1.753.012a1.124,1.124,0,0,0-.823-1.381c-.559-.095-1.007.092-1.091.571-.092.448.142.664.523,1.028,2.189,1.606,2.863,2.278,2.6,3.711-.183.967-1.152,2.241-3.358,1.906" transform="matrix(1, -0.017, 0.017, 1, 11600.7, 325.603)"/>
    <path id="パス_8660" data-name="パス 8660" class="cls-5" d="M95.015,4.991l1.868.419s-1.427,7.052-1.564,7.76l-1.448-.183s.114-1.9.327-3.283c0,0-2.391-.337-3.088-.388l-.972,3.257S88.733,12.4,88.2,12.3c0,0,1.4-7.114,1.67-8.6l2.046.37-.455,3.287,3.35.5s.1-1.773.2-2.856" transform="matrix(1, -0.017, 0.017, 1, 11602.229, 325.792)"/>
    <path id="パス_8661" data-name="パス 8661" class="cls-5" d="M99.39,14.352s1.565-6.543,1.911-8.257l2.107.552s-1.3,5.735-1.811,8.138c-1.033-.215-1.316-.282-2.207-.433" transform="matrix(1, -0.017, 0.017, 1, 11603.972, 326.134)"/>
    <path id="線_221" data-name="線 221" class="cls-5" d="M0,15.712a1,1,0,0,1-.735-.322,1,1,0,0,1,.057-1.413L15.259-.735a1,1,0,0,1,1.413.057A1,1,0,0,1,16.616.735L.678,15.446A1,1,0,0,1,0,15.712Z" transform="translate(11713.916 328.26)"/>
    <path id="線_220" data-name="線 220" class="cls-5" d="M0,6.517a1,1,0,0,1-.9-.553A1,1,0,0,1-.447,4.622L10.586-.894a1,1,0,0,1,1.342.447A1,1,0,0,1,11.481.894L.447,6.411A1,1,0,0,1,0,6.517Z" transform="translate(11723.111 339.294)"/>
    <path id="パス_8667" data-name="パス 8667" class="cls-5" d="M4474.817-5023.493a1,1,0,0,1-.912-.589,1,1,0,0,1,.5-1.323l1.121-.506a1,1,0,0,1,1.323.5,1,1,0,0,1-.5,1.323l-1.121.506A1,1,0,0,1,4474.817-5023.493Z" transform="translate(7244.045 5371.525)"/>
    <path id="パス_8668" data-name="パス 8668" class="cls-5" d="M4474.818-5023.142a1,1,0,0,1-.8-.4,1,1,0,0,1,.206-1.4l1.153-.857a1,1,0,0,1,1.4.206,1,1,0,0,1-.206,1.4l-1.153.857A1,1,0,0,1,4474.818-5023.142Z" transform="translate(7234.973 5370.487)"/>
    <path id="線_222" data-name="線 222" class="cls-5" d="M0,15.712a1,1,0,0,1-.735-.322,1,1,0,0,1,.057-1.413L15.259-.735a1,1,0,0,1,1.413.057A1,1,0,0,1,16.616.735L.678,15.446A1,1,0,0,1,0,15.712Z" transform="translate(11713.916 328.26)"/>
    <path id="線_223" data-name="線 223" class="cls-5" d="M0,6.517a1,1,0,0,1-.9-.553A1,1,0,0,1-.447,4.622L10.586-.894a1,1,0,0,1,1.342.447A1,1,0,0,1,11.481.894L.447,6.411A1,1,0,0,1,0,6.517Z" transform="translate(11723.111 339.294)"/>
    <path id="パス_8669" data-name="パス 8669" class="cls-5" d="M4474.817-5023.493a1,1,0,0,1-.912-.589,1,1,0,0,1,.5-1.323l1.121-.506a1,1,0,0,1,1.323.5,1,1,0,0,1-.5,1.323l-1.121.506A1,1,0,0,1,4474.817-5023.493Z" transform="translate(7244.045 5371.525)"/>
    <path id="パス_8670" data-name="パス 8670" class="cls-5" d="M4474.818-5023.142a1,1,0,0,1-.8-.4,1,1,0,0,1,.206-1.4l1.153-.857a1,1,0,0,1,1.4.206,1,1,0,0,1-.206,1.4l-1.153.857A1,1,0,0,1,4474.818-5023.142Z" transform="translate(7234.973 5370.487)"/>
    <path id="線_224" data-name="線 224" class="cls-5" d="M15.937,15.712a1,1,0,0,1-.678-.265L-.678.735A1,1,0,0,1-.735-.678,1,1,0,0,1,.678-.735L16.616,13.977a1,1,0,0,1-.679,1.735Z" transform="translate(11566.038 328.26)"/>
    <path id="線_225" data-name="線 225" class="cls-5" d="M11.033,6.517a1,1,0,0,1-.446-.106L-.447.894A1,1,0,0,1-.894-.447,1,1,0,0,1,.447-.894L11.481,4.622a1,1,0,0,1-.448,1.895Z" transform="translate(11560.521 339.294)"/>
    <path id="パス_8671" data-name="パス 8671" class="cls-5" d="M4475.938-5023.493a1,1,0,0,1-.411-.088l-1.121-.506a1,1,0,0,1-.5-1.323,1,1,0,0,1,1.323-.5l1.121.506a1,1,0,0,1,.5,1.323A1,1,0,0,1,4475.938-5023.493Z" transform="translate(7099.866 5371.525)"/>
    <path id="パス_8672" data-name="パス 8672" class="cls-5" d="M4475.969-5023.142a1,1,0,0,1-.6-.2l-1.152-.857a1,1,0,0,1-.205-1.4,1,1,0,0,1,1.4-.205l1.152.857a1,1,0,0,1,.205,1.4A1,1,0,0,1,4475.969-5023.142Z" transform="translate(7110.132 5370.487)"/>
    <path id="線_226" data-name="線 226" class="cls-5" d="M15.937,15.712a1,1,0,0,1-.678-.265L-.678.735A1,1,0,0,1-.735-.678,1,1,0,0,1,.678-.735L16.616,13.977a1,1,0,0,1-.679,1.735Z" transform="translate(11566.038 328.26)"/>
    <path id="線_227" data-name="線 227" class="cls-5" d="M11.033,6.517a1,1,0,0,1-.446-.106L-.447.894A1,1,0,0,1-.894-.447,1,1,0,0,1,.447-.894L11.481,4.622a1,1,0,0,1-.448,1.895Z" transform="translate(11560.521 339.294)"/>
    <path id="パス_8673" data-name="パス 8673" class="cls-5" d="M4475.938-5023.493a1,1,0,0,1-.411-.088l-1.121-.506a1,1,0,0,1-.5-1.323,1,1,0,0,1,1.323-.5l1.121.506a1,1,0,0,1,.5,1.323A1,1,0,0,1,4475.938-5023.493Z" transform="translate(7099.866 5371.525)"/>
    <path id="パス_8674" data-name="パス 8674" class="cls-5" d="M4475.969-5023.142a1,1,0,0,1-.6-.2l-1.152-.857a1,1,0,0,1-.205-1.4,1,1,0,0,1,1.4-.205l1.152.857a1,1,0,0,1,.205,1.4A1,1,0,0,1,4475.969-5023.142Z" transform="translate(7110.132 5370.487)"/>
  </g>
</svg>
