<svg xmlns="http://www.w3.org/2000/svg" width="36" height="261.578" viewBox="0 0 36 261.578">
  <defs>
    <style>
      .cls-1 {
        fill: #292929;
      }

      .cls-2 {
        fill: #313a41;
      }
    </style>
  </defs>
  <g id="グループ_1001" data-name="グループ 1001" transform="translate(1938 -172)">
    <path id="パス_8630" data-name="パス 8630" class="cls-1" d="M1.44-1.476c-.072-3.186-.126-10.818-.126-10.818l-2.826-.072c.072,2.268.036,11,.036,11C-.306-1.44.072-1.44,1.44-1.476Zm.9,21.228c-.342-.882-4.914-8.01-4.914-8.01l-2.43.18c.054,3.51,0,10.692,0,10.692,1.1.054,2.736-.036,2.736-.036l-.09-6.7c.576.954,4.554,6.8,4.554,6.8,1.512,0,2.934-.108,2.934-.108.09-1.044-.018-10.962-.018-10.962-.81,0-2.808-.072-2.808-.072ZM3.906,43.806c.072-1.89-.918-2.628-4.032-4.284-.558-.4-.9-.63-.864-1.224.018-.63.558-.954,1.3-.936a1.459,1.459,0,0,1,1.314,1.62l2.25-.342A3.556,3.556,0,0,0-.162,35.382c-2.34.2-3.546,1.944-3.024,3.888.738,2.682,4.644,2.322,4.482,4.374-.072.9-.792,1.08-1.494,1.026a2.393,2.393,0,0,1-2.07-1.944l-1.71,1.62A4.122,4.122,0,0,0-.054,46.884C2.844,46.9,3.852,45.084,3.906,43.806Zm.36,18.366.216-2.43c-2.25-.072-9.036-.072-9.036-.072v2.286c.828.036,3.33.252,3.33.252.036.846-.216,8.46-.216,8.46,1.3,0,2.79-.162,2.79-.162l-.216-8.3C1.728,62.244,4.266,62.172,4.266,62.172ZM-6.156,94.2c1.152.216,2.754.486,2.754.486l1.08-2.592c2.16-.036,3.69-.054,3.69-.054.45,1.1,1.008,2.79,1.008,2.79.846,0,3.384-.234,3.384-.234C4.644,92.22,1.548,86.388-.5,83.022A110.824,110.824,0,0,0-6.156,94.2Zm4.392-4.716,1.116-2.646S.09,88.278.594,89.412A22.326,22.326,0,0,1-1.764,89.484Zm2.52,29.382c2.736-.252,4.662-2.736,4.3-6.246L.5,112.458v2.268l2.16-.126A2.315,2.315,0,0,1-.4,116.814c-2.124-.414-2.556-2.844-2.3-4.5A2.774,2.774,0,0,1-.252,109.65a2.056,2.056,0,0,1,2.34,1.836l2.718-.252c-.288-2.394-2.322-3.888-5-3.852-2.97.054-5.364,2.358-5.274,6.084A5.415,5.415,0,0,0,.756,118.866ZM1.5,137.88a3.115,3.115,0,0,0,1.854-3.726c-.7-2.736-3.546-3.42-7.254-2.448-.036,1.278,0,10.89,0,10.89h2.412l-.072-3.1,1.566-.18c.342.612,2.556,3.546,2.556,3.546l2.16-1.818A28.384,28.384,0,0,1,1.5,137.88Zm-3.06-1.026-.036-3.222c1.764-.162,2.5.324,2.592,1.224C1.143,136.278-.171,136.818-1.557,136.854Zm-4.6,29.346c1.152.216,2.754.486,2.754.486l1.08-2.592c2.16-.036,3.69-.054,3.69-.054.45,1.1,1.008,2.79,1.008,2.79.846,0,3.384-.234,3.384-.234C4.644,164.22,1.548,158.388-.5,155.022A110.825,110.825,0,0,0-6.156,166.2Zm4.392-4.716,1.116-2.646s.738,1.44,1.242,2.574A22.322,22.322,0,0,1-1.764,161.484ZM.612,183.72l-3.312-4-2.79-.054c-.108,3.834-.09,10.908-.09,10.908l2.772-.036c-.054-2.466-.306-8.226-.306-8.226,1.152,1.566,3.654,4.752,3.654,4.752.756-.936,3.474-4.05,3.474-4.05,0,.972-.09,7.47-.09,7.47.738.036,3.168.09,3.168.09-.09-1.17-.306-10.944-.306-10.944l-2.376.072Z" transform="translate(-1920.844 243)"/>
    <path id="Icon_awesome-instagram" data-name="Icon awesome-instagram" class="cls-2" d="M18,11.006a9.228,9.228,0,1,0,9.228,9.228A9.213,9.213,0,0,0,18,11.006Zm0,15.227a6,6,0,1,1,6-6A6.01,6.01,0,0,1,18,26.233Zm11.758-15.6A2.152,2.152,0,1,1,27.6,8.476,2.147,2.147,0,0,1,29.756,10.628Zm6.112,2.184c-.137-2.883-.8-5.437-2.907-7.541S28.3,2.509,25.42,2.364c-2.972-.169-11.878-.169-14.85,0-2.875.137-5.429.8-7.541,2.9S.266,9.922.121,12.8c-.169,2.972-.169,11.878,0,14.85.137,2.883.8,5.437,2.907,7.541S7.687,37.959,10.57,38.1c2.972.169,11.878.169,14.85,0,2.883-.137,5.437-.8,7.541-2.907s2.763-4.658,2.907-7.541c.169-2.972.169-11.87,0-14.842Zm-3.839,18.03a6.074,6.074,0,0,1-3.421,3.421c-2.369.94-7.991.723-10.609.723s-8.248.209-10.609-.723a6.074,6.074,0,0,1-3.421-3.421c-.94-2.369-.723-7.991-.723-10.609s-.209-8.248.723-10.609A6.074,6.074,0,0,1,7.389,6.2C9.759,5.263,15.381,5.48,18,5.48s8.248-.209,10.609.723a6.074,6.074,0,0,1,3.421,3.421c.94,2.369.723,7.991.723,10.609S32.969,28.482,32.029,30.843Z" transform="translate(-1937.995 169.762)"/>
  </g>
</svg>
