<svg xmlns="http://www.w3.org/2000/svg" width="311.605" height="321.952" viewBox="0 0 311.605 321.952">
  <defs>
    <style>
      .cls-1 {
        fill: #c1dbb9;
      }

      .cls-2 {
        fill: #fbd8b5;
      }

      .cls-3, .cls-8 {
        fill: #282828;
      }

      .cls-4 {
        fill: #fce952;
      }

      .cls-5 {
        fill: #a4cced;
      }

      .cls-6 {
        fill: #bababa;
      }

      .cls-7 {
        fill: #fff;
      }

      .cls-8 {
        fill-rule: evenodd;
      }

      .cls-9 {
        fill: none;
      }

      .cls-10 {
        fill: #ffdbb0;
      }

      .cls-11 {
        fill: #6b6b6b;
      }

      .cls-12 {
        fill: #4aa3d5;
      }

      .cls-13 {
        fill: #edbc32;
      }
    </style>
  </defs>
  <g id="グループ_1167" data-name="グループ 1167" transform="translate(-10187.395 -6794.236)">
    <path id="パス_8901" data-name="パス 8901" class="cls-1" d="M-2522.364,1919.814c-5.086,45.785,59.392,50.964,112.373,51.954s77.928-13.184,110.847-31.7,71.035-42.21,48.422-62.159-89.187,17.536-136.755,13.2S-2517.278,1874.029-2522.364,1919.814Z" transform="translate(12725.042 5144.372)"/>
    <path id="パス_8780" data-name="パス 8780" class="cls-2" d="M93.262,37.864c-.248,0-3.5.248-3.806.217a25.557,25.557,0,0,1-.835,3.28c-.309.681-2.553,4.579-2.862,4.919,3.589,3.281,8.6,2.847,11.015-.124-.65-.34-2.63-4.022-2.908-5.368-.2-.986-.6-2.553-.6-2.924" transform="translate(10179.676 6836.592)"/>
    <path id="パス_8781" data-name="パス 8781" class="cls-2" d="M100.055,29.814c.766-6.081-.763-13.522-8.25-14S81.527,22.973,81.513,29.1c-.328-.369-1.52-.528-1.583.474a3.432,3.432,0,0,0,.68,2.065,4.008,4.008,0,0,0,1.94,1.135,8.762,8.762,0,0,0,1.926,3.836,10.909,10.909,0,0,0,6.15,3.216c1.947.177,4.484-1.387,5.836-2.66a12.765,12.765,0,0,0,2.662-3.543,4.254,4.254,0,0,0,2-.918c.641-.622,1.157-2.411.747-2.846a1.436,1.436,0,0,0-1.815-.046" transform="translate(10180.201 6838.579)"/>
    <path id="パス_8782" data-name="パス 8782" class="cls-3" d="M94.246,15.052c-.521-.661-3.576-.421-6.185.309s-5.742,4.708-6.263,6.031.51,4.55-1.161,5.489-2.732,3.855-1.932,5.49,2.966.97,3.48,1-.41-4.438.077-4.717.176-5.3,1.046-6.554,1.722-.561,2.661-.157c1.228.528,2.988-2.349,4.345-.1.81,1.34,2.769.086,3.221-.783s1.357-1.2,1.987-.612a8.292,8.292,0,0,1,1.162,2.868,7.574,7.574,0,0,0,2.6,3.526c.766.418-.248,2.63-.472,3.362-2.01,6.572,2.977,2.806,4.02.927s-1.933-1.855-1.391-4.407c.521-2.456-.7-8.041-3.248-10.515-1.484-1.439-3.525-.22-3.943-1.159" transform="translate(10180.335 6838.68)"/>
    <path id="パス_8783" data-name="パス 8783" class="cls-2" d="M51.357,245.219c6.662-1.758.284-7.123,2.485-13.533,0,0,3.333-3.46,4.747-1.046,1.077,1.84,3.368,9.191,4.57,14.288a11.39,11.39,0,0,1-11.8.292" transform="translate(10182.772 6819.318)"/>
    <path id="パス_8784" data-name="パス 8784" class="cls-3" d="M50.351,246.731l.046-.014a11.39,11.39,0,0,0,11.8-.291,34.071,34.071,0,0,1,.739,3.879c.39,3.847-11.946,6.288-17.984,4.142-6.928-2.462-5.608-4.867,5.4-7.717" transform="translate(10183.732 6817.821)"/>
    <path id="パス_8785" data-name="パス 8785" class="cls-2" d="M102.743,240.879c-.577-3.512-.258-8.175-.258-11.558-3.34-2.505-5.845-2.505-6.122,4.453s-1.114,10.576-5.288,12.8l-.115.063a17.893,17.893,0,0,0,11.784-5.759" transform="translate(10179.208 6819.498)"/>
    <path id="パス_8786" data-name="パス 8786" class="cls-3" d="M102.162,242.173a17.893,17.893,0,0,1-11.784,5.759c-4.125,2.216-7.653,4.96-4.895,6.339,2.783,1.391,6.679,1.113,10.3-.835s8.905-5.01,7.235-8.349a10.382,10.382,0,0,1-.854-2.914" transform="translate(10179.789 6818.204)"/>
    <path id="パス_8787" data-name="パス 8787" class="cls-4" d="M64.3,108.49c-.313,1.461-4.592,40.181-5.845,43.937s-8.975,71.177-8.975,72.326,0,3.235,4.07,3.966,10.124,2.088,11.481,2.088,2.5.313,2.609-1.983,12.107-78.379,12.315-80.57,1.148-4.383,1.357,0,1.774,78.8,2.088,79.526,17.116-.1,18.368-.1,2.3.1,2.088-3.548,1.237-50.408,1.14-54.061-1.663-58.119-2.915-60.474-37.78-1.1-37.78-1.1" transform="translate(10182.941 6830.266)"/>
    <path id="パス_8788" data-name="パス 8788" class="cls-5" d="M102.324,47.248c-1.67-1.044-7.232-1.861-8.365-1.348s-7.722,1.265-8.974-.466S76.7,45.012,74.8,46.5,64.506,64.125,64.3,65.065s3.182,7.189,4.33,7.422,1.449-.3.3,2.209-6.262,31.935-6.262,33.084,1.461,1.67,3.548,1.252,9.185-.132,11.794.143,19.2-.665,21.6-.561,3.548,1.148,5.114,1.565,1.565-.73.731-4.7-1.566-23.274-1.774-25.57-.418-6.888.521-3.548,2.067,3.381,2.387,4.007,6.817-.689,7.654-.773c1.547-.155,2.3-.847,1.47-3.248s-3.787-19.4-6.083-22.53a25.071,25.071,0,0,0-7.305-6.575" transform="translate(10181.755 6835.985)"/>
    <path id="パス_8789" data-name="パス 8789" class="cls-6" d="M103.376,12.976c-.309-1.855-6.88-4.963-9.2-4.02-4.948,2.01-3.472,3.635-5.334,4.175S83.287,14.58,83.329,16.7s-.338,1.8-1.524,2.929a2,2,0,0,0,.851,3.479c1.739.577,2.4.019,5.1-.567s3.493-.549,5.438.664,6.779,3.463,8.616,3.741-.317-1.913.772-3.386c1.874-2.54-.262-1.931-.368-3.159s.921-2.33.7-3.324,1.238-1.391.464-4.1" transform="translate(10180.096 6839.209)"/>
    <path id="パス_8790" data-name="パス 8790" class="cls-3" d="M88.033,33.493c.9-.713,1.952-1.338,2.819-.426s2.681,1.581,3.112,2.075.989,1.386-.08,1.158A13.77,13.77,0,0,1,90.8,35a1.873,1.873,0,0,0-2.088-.066,4.794,4.794,0,0,1-2.67.513c-1-.069-2.155-.226-1.346-.713s2.814-.349,3.341-1.242" transform="translate(10179.797 6837.065)"/>
    <path id="パス_8791" data-name="パス 8791" class="cls-2" d="M68.162,69.317c-.441-1.476-1.7-2.37-3.361-6.587s-5.5-14.039-5.918-15S62.271,43.91,61.69,41.6s-1.289-5.537-4.161-5.956-4.453,1.522-5.18,1.933-3.124,3.15-3.016,4.406.226,3.913,2.552,4.639,2.01,2.706,2.428,4.958c.407,2.193,2.31,12.284,3.053,14.349,1.152,3.2,3.731,9.236,7.57,9.528,2.931.221,4.815-.831,3.226-6.142" transform="translate(10182.955 6836.797)"/>
    <path id="パス_8792" data-name="パス 8792" class="cls-3" d="M72.889,48.691a12.17,12.17,0,0,1-2.555-.379c-.638-.135-1.425-.3-2.462-.49-3.361-.612-4.488-2.512-5.681-4.523A18.526,18.526,0,0,0,60.2,40.407a.605.605,0,1,1,.913-.8,19.913,19.913,0,0,1,2.116,3.069c1.184,1.995,2.038,3.436,4.855,3.948,1.051.192,1.85.361,2.5.5a7.806,7.806,0,0,0,4.878-.076A19.433,19.433,0,0,0,80.1,45.043a6.042,6.042,0,0,1,2.419-1,.606.606,0,1,1,0,1.211,7.37,7.37,0,0,0-1.835.851,20.772,20.772,0,0,1-4.924,2.121,11.86,11.86,0,0,1-2.866.466" transform="translate(10181.989 6836.454)"/>
    <path id="パス_8793" data-name="パス 8793" class="cls-3" d="M72.338,49.378H60.23a1.759,1.759,0,0,1-1.759-1.759V39.5a1.759,1.759,0,0,1,1.759-1.759H72.338A1.759,1.759,0,0,1,74.1,39.5v8.124a1.759,1.759,0,0,1-1.759,1.759" transform="translate(10182.132 6836.604)"/>
    <path id="パス_8794" data-name="パス 8794" class="cls-7" d="M69.19,43.969a3.483,3.483,0,1,1-3.483-3.483,3.482,3.482,0,0,1,3.483,3.483" transform="translate(10181.794 6836.356)"/>
    <path id="パス_8795" data-name="パス 8795" class="cls-3" d="M68.65,44.028a2.884,2.884,0,1,1-2.884-2.884,2.884,2.884,0,0,1,2.884,2.884" transform="translate(10181.735 6836.297)"/>
    <path id="パス_8796" data-name="パス 8796" class="cls-3" d="M91.578,53.742c-1.842,0-3.943-.884-6.122-1.8-.86-.362-1.75-.736-2.663-1.077-3.716-1.382-5.412-4.659-6.907-7.548-.38-.736-.747-1.446-1.132-2.088a.605.605,0,1,1,1.038-.622c.4.662.776,1.394,1.169,2.152,1.4,2.7,2.976,5.751,6.253,6.971.929.345,1.835.727,2.711,1.095,3.148,1.326,5.868,2.472,7.628,1.061a12.3,12.3,0,0,0,2.685-2.975,10.245,10.245,0,0,1,1.727-2.058,5.221,5.221,0,0,1,3.534-1.489.606.606,0,0,1-.086,1.208,4.1,4.1,0,0,0-2.651,1.191A9.173,9.173,0,0,0,97.235,49.6a13.516,13.516,0,0,1-2.924,3.231,4.225,4.225,0,0,1-2.733.911" transform="translate(10180.674 6836.372)"/>
    <path id="パス_8797" data-name="パス 8797" class="cls-2" d="M114.521,83.818c.786-.672,2.361-5.006-.335-8.558S89.141,49.425,88.445,47.983s-4.183-6.971-6.6-8.356-2.68.278-3.575-.958-2.5-3.764-2.706-.752-.2,3.529,1.4,4.929-.148,3.038.714,3.493,1.991,1.423.229,1.7-2.71.531-3.333,1.617.023,1.778,2.112,1.211c2.563-.134,5.659,1.321,7.109,1.591s2.154,2.118,4,4.624,17.729,24.665,19.41,25.732c4.76,3.018,7.312,1.008,7.312,1.008" transform="translate(10180.703 6836.715)"/>
    <path id="パス_8798" data-name="パス 8798" class="cls-8" d="M44.511,18.031c3.226,1.552,5.209,4.821,7.038,8.3-2.051.169-3-2.078-4.009-3.329-1.11-1.376-2.24-2.741-3.358-3.93-.283-.632.4-.563.329-1.045" transform="translate(10183.424 6838.377)"/>
    <path id="パス_8799" data-name="パス 8799" class="cls-8" d="M46.293,36.645c-2.126-.061-3.4-2.209-5.014-3.416-4.831-3.607-10.647-6.974-15.4-10.937-.084-.275-.015-.44.165-.523a1.383,1.383,0,0,1,.929-.4c4.743,3.854,10.423,6.755,15.363,10.7,1.453,1.158,3.76,2.453,3.959,4.578" transform="translate(10185.068 6838.077)"/>
    <path id="パス_8800" data-name="パス 8800" class="cls-8" d="M9.062,2.1a8.97,8.97,0,0,1,1.65,4.312c2.369-.357,3.637-2.289,6.4-2.084.613,3.277-3.748,2.912-4.293,6.076.307,2.569,3.872,4.511,1.881,7.571-2.254-.7-2.182-3.034-5.507-2.984-1.594,1.3-1.668,4.777-5.047,3.53-.236-1.79.5-2.153.758-4.288C3.583,12.653,1.048,11.921,0,10.15.471,7.4,4.4,9.607,5.94,8.385c.824-2.4.013-7.146,3.122-6.284" transform="translate(10187.395 6839.82)"/>
    <path id="パス_8801" data-name="パス 8801" class="cls-8" d="M39.395.08a6.94,6.94,0,0,1,1.275,3.331c1.83-.276,2.81-1.768,4.947-1.611.474,2.532-2.9,2.25-3.317,4.695.237,1.985,2.991,3.485,1.452,5.849C42.011,11.8,42.066,10,39.5,10.04c-1.232,1.006-1.289,3.69-3.9,2.727-.182-1.383.387-1.663.585-3.313C35.161,8.233,33.2,7.668,32.393,6.3c.364-2.122,3.4-.419,4.589-1.362.637-1.855.01-5.521,2.412-4.856" transform="translate(10184.479 6840)"/>
    <path id="パス_8904" data-name="パス 8904" class="cls-9" d="M0,0H110.416V233.344H0Z" transform="translate(10187.395 6840)"/>
    <path id="パス_8832" data-name="パス 8832" class="cls-10" d="M157.889,232.914c-4.491-2.954-9.974-23.6-12.62-28.581-1.089-2.051-14.384-2.371-12.208,1.152,2.856,4.624,15.308,25.665,15.3,29.728,0,4.535-3.957,15.088-2.038,15.127,4.4-1.109,15.706-13.182,11.562-17.426" transform="translate(10287.669 6818.203)"/>
    <path id="パス_8833" data-name="パス 8833" class="cls-3" d="M158.828,237.464c-1.742,4.2-3.054,10.624-7.257,14.149-3.278,2.774-2.524-2.547-2.973-1.506-.974,2.26-2.813,7.1-2.882,9.588-.072,2.57,4.2.721,6.641-.851,1.479-.952,3.952-3.123,7.4-9.419,1.085-1.978,1.81-2.454,2.649-1.633,1.39,1.361,1.38,1.639,2.456,1,2.44-1.437-3.5-9.615-6.037-11.332" transform="translate(10285.499 6812.372)"/>
    <path id="パス_8834" data-name="パス 8834" class="cls-10" d="M119.661,243.687c-1.774-5.074,2.532-26.393,3.457-31.96.381-2.291-9.724-1.471-10.135,2.649-.54,5.408.186,22.128-2.284,25.354-2.758,3.6-12.307,9.584-10.807,10.78,4.174,1.794,20.484-.934,19.769-6.823" transform="translate(10293.236 6816.914)"/>
    <path id="パス_8835" data-name="パス 8835" class="cls-3" d="M118.544,248.284c-3.936,2.281-8.878,6.586-14.358,6.834-4.288.213-.459-3.556-1.447-3-2.148,1.2-6.547,3.932-8.114,5.868-1.617,2,2.9,3.12,5.793,3.356,1.752.142,5.037-.081,11.6-2.987,2.063-.913,2.928-.851,3.1.311.278,1.925.1,2.14,1.342,2.29,2.812.339,3.056-9.767,2.087-12.67" transform="translate(10294.152 6810.551)"/>
    <path id="パス_8836" data-name="パス 8836" class="cls-3" d="M114.174,29.387c1.826,2.532,7.256,3.287,9.777,2.394,5.378-1.907-3.755-6.784-4.3-9.117-.4-1.707-1.782-1.209-3.551,1.1-.548.714,1.068,2.823-1.54,3.583-1.472.429-2.313.165-.386,2.043" transform="translate(10290.995 6848.686)"/>
    <path id="パス_8837" data-name="パス 8837" class="cls-10" d="M123.97,26.378c.29-.01,4.125.13,4.489.083a20.576,20.576,0,0,0,.827,4.816c.287.786,1.848,4.319,4.472,6.074,4.362,2.917-19.49,4.667-14.4.274a12.557,12.557,0,0,0,4.016-7.99c.2-1.1.611-2.847.6-3.257" transform="translate(10290.055 6847.89)"/>
    <path id="パス_8838" data-name="パス 8838" class="cls-10" d="M133.886,24.719c-2.672,3.187-6.171,4.4-8.859,3.953a13.722,13.722,0,0,1-7.109-3.621,13.161,13.161,0,0,1-2.678-5.6,8.338,8.338,0,0,1,.316-3.191c.721-2.464-1.029-2.712,1.6-7.492.8-1.451,5.326-7.968,12.637-7.156,6.426.714,9.684,16.435,4.09,23.107" transform="translate(10290.634 6852.069)"/>
    <path id="パス_8839" data-name="パス 8839" class="cls-3" d="M125.02,8.827c-1.338-4.134-8.813,3.784-9,1.341-.4-5.274,4.371-7.8,8.149-9.018A16.741,16.741,0,0,1,129.635,0C134.5.046,140,4.744,140.506,10.705c.405,4.748-.511,5.659-1,8.754-.25,1.588-1.433,4.558-.925,6.346.867,3.047,3.824,2.237.922,3.523-2.743,1.216-8.03.5-9.881-.942-1.075-.841,2.34-5.468,4.241-6.082,2.9-1.746,2.649-2.761,2.357-3.786s-1.783-1.975-2.432-1.233c-3.227,3.689-.921-.183-1.888-1.372-2.626-3.229-2.212,1.629-6.882-7.086" transform="translate(10290.499 6852.329)"/>
    <path id="パス_8840" data-name="パス 8840" class="cls-4" d="M135.6,26.656a1.221,1.221,0,1,0,1.178-1.263,1.221,1.221,0,0,0-1.178,1.263" transform="translate(10287.201 6848.056)"/>
    <path id="パス_8841" data-name="パス 8841" class="cls-11" d="M96.883,185.138c3.425-14.964,4.337-33.312,7.333-46.768,3.413-15.325,5.372-30.9,7.908-33.642,8.051-8.709,15.9-5.142,26.394-5.991,1.784-.145,2.807,2.316,3.815,9.642,1.279,9.3,5.866,27.96,8.178,43.04,1.583,10.323,5.844,22.234,8.422,39.522.833,5.588-8.213,2.411-16.98,4.942-12.844,3.708-19.5,2.131-32.643-.792-9.056-2.013-14.4-1.317-12.428-9.954" transform="translate(10293.784 6835.72)"/>
    <path id="パス_8842" data-name="パス 8842" class="cls-12" d="M94.773,71.621c1.342,3.818,5.736,5.114,6.8,4.352,1.944-1.4,1.107,10.44.377,14.241-1.227,6.385-1.673,10.47,1.1,12.185,5.448,3.364,9.015,1.545,14.186,1.5,1.817-.017,13.158-.092,15.033-.163,6.944-.262,8.166,5.513,14.411,2.757,3.334-1.471-2.647-14.322-1.271-22.969.176-1.11,3.546-2.082,4.814-3.087,5.086-4.032,2.2-16.2,1.081-18.383a98.11,98.11,0,0,0-11.42-17.629c-3.56-4.036-9.1-8.781-11.834-7.966-3.853,1.15-7.836,1.163-13.717.127-3.934-.694-11.461,8.866-14.305,12.627-4.5,5.955-7.489,16.057-5.257,22.41" transform="translate(10294.198 6846.21)"/>
    <path id="パス_8843" data-name="パス 8843" class="cls-10" d="M107.9,66.784c1.013-.393,1.4-.828,1.4-1.709a22.813,22.813,0,0,1,.782-3.746c.3-1.273,2.093-.578,2.622-1a9.463,9.463,0,0,0,1.229-1.752c.448-.59,1.706-.408,2.583,0s1.291,1.292,2.446,3.307.258,4.486.226,5.546-1.641,3.042-3.284,3.911-3.979-.371-5.124.116c-.774.329-6.133,7.4-7.967,8.795-5.884,4.463-13.229-3.494-7.529-8.042,1.035-.826,11.334-4.926,12.615-5.424" transform="translate(10294.33 6842.536)"/>
    <path id="パス_8844" data-name="パス 8844" class="cls-13" d="M155.493,80.083c-.51-1.24-3.064-5.952-3.463-6.554-.919-1.384-3.878-4.609-5.016-4.2-1.732.63-1.383-.075-1.164-.6.542-1.288,2.02-.589,2.857-.219a9.4,9.4,0,0,1,2.873,2.14,28.863,28.863,0,0,1,3.413,4.522,37.138,37.138,0,0,1,2.547,4.209c.182.465-1.991.828-2.047.693" transform="translate(10285.508 6840.887)"/>
    <path id="パス_8845" data-name="パス 8845" class="cls-13" d="M162.072,84.524c-.059.223-.115.433-.167.623-.047.172-.09.325-.131.461-.205.673-.4,1.456-.592,2.27-.046.2-.089.413-.134.621-.3,1.352-.551,2.731-.749,3.8-.043.229-.081.442-.119.636-.011.042-.015.082-.023.12-.183.961-.5,2.373-.855,3.716-.052.2-.1.393-.16.591a17.618,17.618,0,0,1-.948,2.8c-.424.815-1.748,1.272-3.325,1.54q-.715.122-1.477.2c-2.089.213-4.283.215-5.365.324-.748.072-1.443.172-2.128.272-.655.1-1.3.188-1.969.257a17.676,17.676,0,0,1-2.182.094c-1.412-.03-2.6-1.663-3.54-3.432-.082-.158-.163-.316-.24-.472-.485-.966-.895-1.936-1.222-2.681-.128-.285-.3-.67-.5-1.124q-.121-.282-.262-.593c-.5-1.136-1.117-2.575-1.673-4.028l-.179-.472c-.4-1.058-.754-2.1-1.007-3.027-.052-.2-.1-.386-.141-.569-.279-1.2-.324-2.122.048-2.455.088-.349,3.552-.9,6.461-1.307.922-.131,1.782-.244,2.464-.334.731-.1,1.262-.165,1.428-.19.131,0,5.9-.631,6.919-.754.644-.074,2.048-.209,3.675-.352.693-.061,1.426-.123,2.16-.185,2.771-.223,5.534-.413,6.062-.36.685.068.276,2.372-.131,4.011" transform="translate(10287.678 6838.783)"/>
    <path id="パス_8846" data-name="パス 8846" class="cls-4" d="M162.116,85.172c-.059.223-.115.433-.167.623-.813-.134-1.624-.287-2.436-.423-.186-.032-.376-.063-.568-.1-.265-.04-.534-.079-.8-.117a23.045,23.045,0,0,0-3.556-.205c-.248,0-.492.011-.737.026a23.637,23.637,0,0,0-2.511.26c-.192.029-.385.062-.574.1-.24.041-.481.087-.719.136-1.589.308-3.161.708-4.751,1.036-.2.044-.4.08-.6.121l-.12.023c-1.537.293-3.087.5-4.641.647-.255.023-.509.049-.762.067-.9.077-1.813.131-2.72.18l-.723.031c-.854.039-1.7.063-2.559.09-.052-.2-.1-.386-.141-.569.862-.026,1.729-.053,2.593-.087.232-.008.462-.015.691-.027.891-.042,1.778-.095,2.667-.161.113-.007.23-.02.344-.027l.405-.037c1.57-.14,3.13-.342,4.682-.62.242-.042.488-.086.731-.136.348-.067.7-.139,1.045-.215,1.222-.265,2.443-.56,3.671-.811.242-.051.485-.1.731-.146.745-.142,1.5-.264,2.255-.344q.438-.051.875-.077c.245-.018.492-.029.74-.04a24.645,24.645,0,0,1,4.58.278c.084.01.165.022.248.037l.3.049c.843.142,1.685.3,2.526.437" transform="translate(10287.634 6838.134)"/>
    <path id="パス_8847" data-name="パス 8847" class="cls-4" d="M161.459,89.331c-.046.2-.09.413-.134.621a22.255,22.255,0,0,0-3.871-.182c-.23,0-.452.012-.678.025-1.045.054-2.083.16-3.126.284-.242.033-.486.064-.729.093-1.211.165-2.423.346-3.634.51-.238.032-.473.062-.713.091-.378.05-.762.095-1.142.138-1.268.138-2.54.181-3.81.2-.22.007-.442.007-.664.011-.937.012-1.878.012-2.817.037-.365.011-.73.022-1.1.044-.246.014-.491.032-.739.051a18.488,18.488,0,0,0-2.443.367c-.241.054-.477.111-.716.18-.188.052-.373.107-.556.17l-.18-.472c.194-.067.389-.131.586-.19.239-.07.476-.135.715-.193a17.472,17.472,0,0,1,2.444-.413c.249-.027.5-.048.753-.066.635-.048,1.277-.071,1.911-.082l2.065-.026c.226,0,.452,0,.68-.009a45.466,45.466,0,0,0,4.775-.282l.12-.014c.239-.032.475-.059.714-.091,1.207-.162,2.41-.353,3.617-.527l.714-.1c.656-.087,1.315-.167,1.976-.231.408-.038.814-.072,1.223-.089.224-.017.45-.027.675-.032a26.389,26.389,0,0,1,4.081.175" transform="translate(10287.401 6837.33)"/>
    <path id="パス_8848" data-name="パス 8848" class="cls-4" d="M160.952,94.681c-.043.229-.081.443-.119.636-.332,0-.659.012-.983.031-.23.012-.457.031-.685.049-.633.052-1.266.125-1.9.206l-.722.1c-.591.081-1.181.164-1.772.235q-1.012.124-2.022.222l-.769.069c-1.4.129-2.8.229-4.21.322-.123.007-.245.018-.368.025-.232.017-.466.03-.7.047-1.294.087-2.591.171-3.887.274-.269.02-.537.04-.8.063-.994.082-1.992.175-2.985.29-.26.029-.524.06-.783.092-.45.057-.9.114-1.347.181-.082-.188-.167-.386-.261-.593.449-.069.9-.132,1.347-.19.258-.036.522-.067.781-.1q1.4-.165,2.8-.287c.057,0,.113-.011.17-.014.268-.024.531-.046.8-.064,1.355-.113,2.708-.2,4.065-.289.236-.018.47-.031.706-.049,1.49-.1,2.981-.2,4.466-.333.257-.019.515-.043.769-.069,1.132-.1,2.265-.226,3.392-.379l.465-.062c.245-.035.492-.067.735-.1.684-.091,1.368-.17,2.05-.225.23-.024.458-.039.685-.049.361-.022.724-.037,1.087-.043" transform="translate(10287.026 6836.397)"/>
    <path id="パス_8849" data-name="パス 8849" class="cls-4" d="M160.355,100.058c-.052.2-.1.393-.16.591l-1.023.1,0,0-.674.066q-1.209.121-2.422.231c-.238.023-.481.045-.719.064q-2.208.2-4.416.373l-.711.057c-.566.043-1.127.086-1.691.124-.872.063-1.757.116-2.644.173-.235.013-.467.03-.7.047l0,0c-.9.062-1.795.136-2.689.246q-.372.041-.74.094c-.416.059-.829.125-1.238.2-.264.048-.526.1-.791.163-.157.034-.314.069-.472.112-.081-.158-.162-.316-.239-.472.136-.037.269-.07.4-.1l0,0c.266-.065.535-.123.806-.177q.689-.142,1.393-.248c.24-.037.478-.069.72-.1l.037,0c.9-.115,1.793-.2,2.695-.269.23-.021.467-.039.7-.052,1.247-.091,2.494-.162,3.739-.257.2-.017.407-.029.61-.046.241-.017.484-.038.725-.054q2.206-.176,4.406-.365c.242-.025.482-.045.719-.068.275-.023.546-.048.821-.075.556-.052,1.11-.1,1.666-.16l.685-.07c.4-.041.806-.081,1.207-.125" transform="translate(10286.625 6835.492)"/>
    <path id="パス_8850" data-name="パス 8850" class="cls-4" d="M136.062,86.285a7.112,7.112,0,0,0,.441,2.43c.034.092.679-.278.6-.48a6.891,6.891,0,0,1-.426-2.365c0-.131-.262.032-.3.057a1.256,1.256,0,0,0-.225.194c-.037.042-.1.1-.1.164" transform="translate(10287.123 6837.888)"/>
    <path id="パス_8851" data-name="パス 8851" class="cls-4" d="M139.883,86.261a16.988,16.988,0,0,0,.839,2.327c.069.156.7-.254.6-.48a16.559,16.559,0,0,1-.811-2.247c-.039-.142-.25-.028-.327.021a.935.935,0,0,0-.223.2c-.033.042-.1.124-.082.181" transform="translate(10286.48 6837.893)"/>
    <path id="パス_8852" data-name="パス 8852" class="cls-4" d="M146.344,85.419a14.019,14.019,0,0,1,.8,2.654c.054.276.7-.128.645-.383a13.988,13.988,0,0,0-.8-2.653c-.062-.151-.249-.082-.358-.017-.092.055-.347.257-.288.4" transform="translate(10285.395 6838.035)"/>
    <path id="パス_8853" data-name="パス 8853" class="cls-4" d="M153.013,84.394a11.891,11.891,0,0,1,.772,2.34c.029.136.25,0,.311-.041a1.049,1.049,0,0,0,.225-.2c.032-.039.1-.116.09-.171a12.254,12.254,0,0,0-.793-2.413c-.057-.127-.7.274-.6.48" transform="translate(10284.272 6838.213)"/>
    <path id="パス_8854" data-name="パス 8854" class="cls-4" d="M157.722,83.624a17.43,17.43,0,0,1,.526,2.587c.023.187.3.142.412.085a.44.44,0,0,0,.257-.438,17.469,17.469,0,0,0-.525-2.587c-.1-.364-.762.029-.67.353" transform="translate(10283.479 6838.342)"/>
    <path id="パス_8855" data-name="パス 8855" class="cls-4" d="M164.314,84.193a18.124,18.124,0,0,0-.3,2.681c0,.15.278,0,.321-.029.117-.077.3-.215.309-.373a17.318,17.318,0,0,1,.283-2.578c.029-.156-.137-.116-.231-.068-.126.064-.352.211-.381.368" transform="translate(10282.42 6838.231)"/>
    <path id="パス_8856" data-name="パス 8856" class="cls-4" d="M161.05,87.818q.163,1.3.328,2.594c.018.141.26,0,.314-.038a1.009,1.009,0,0,0,.225-.2c.036-.042.1-.113.089-.173q-.165-1.3-.328-2.594c-.018-.141-.259,0-.314.038a1.024,1.024,0,0,0-.224.2c-.036.042-.1.113-.089.173" transform="translate(10282.919 6837.63)"/>
    <path id="パス_8857" data-name="パス 8857" class="cls-4" d="M156.321,88.464a10.947,10.947,0,0,0,.755,2.907c.064.156.253.1.369.032.1-.057.344-.258.281-.408a10.961,10.961,0,0,1-.755-2.908c-.02-.172-.284-.08-.368-.032-.135.078-.3.236-.282.408" transform="translate(10283.715 6837.523)"/>
    <path id="パス_8858" data-name="パス 8858" class="cls-4" d="M150.842,88.444q.444,1.656.728,3.346c.05.3.7-.1.652-.375q-.284-1.689-.729-3.346c-.082-.3-.723.109-.651.375" transform="translate(10284.637 6837.528)"/>
    <path id="パス_8859" data-name="パス 8859" class="cls-4" d="M144.367,89.469a15.082,15.082,0,0,1,.358,3c0,.141.267-.014.31-.042.1-.067.318-.22.315-.367a15.089,15.089,0,0,0-.358-3c-.03-.135-.25,0-.311.042-.081.053-.344.237-.314.367" transform="translate(10285.727 6837.353)"/>
    <path id="パス_8860" data-name="パス 8860" class="cls-4" d="M138.642,90.107a11.113,11.113,0,0,1,.606,2.523c.022.184.3.142.409.082a.446.446,0,0,0,.259-.437,11.061,11.061,0,0,0-.606-2.523c-.131-.358-.783.043-.668.354" transform="translate(10286.691 6837.25)"/>
    <path id="パス_8861" data-name="パス 8861" class="cls-4" d="M134.863,90.81l.707,2.338c.1.344.754-.062.663-.362q-.353-1.169-.707-2.337c-.1-.344-.754.061-.663.361" transform="translate(10287.326 6837.131)"/>
    <path id="パス_8862" data-name="パス 8862" class="cls-4" d="M137.971,96.412q.379.873.758,1.746a.3.3,0,0,0,.429.107c.136-.075.324-.274.248-.451l-.758-1.746a.3.3,0,0,0-.429-.107c-.137.075-.324.274-.248.451" transform="translate(10286.805 6836.189)"/>
    <path id="パス_8863" data-name="パス 8863" class="cls-4" d="M142.146,95.039q.428,1.138.948,2.237a.274.274,0,0,0,.406.078c.117-.067.339-.269.26-.434q-.519-1.1-.948-2.237c-.132-.353-.781.052-.666.356" transform="translate(10286.102 6836.42)"/>
    <path id="パス_8864" data-name="パス 8864" class="cls-4" d="M148.4,95.1a25.013,25.013,0,0,1,.484,3.08c.016.172.285.074.365.027.136-.078.3-.234.284-.406a25.013,25.013,0,0,0-.484-3.08c-.065-.292-.707.116-.649.378" transform="translate(10285.048 6836.407)"/>
    <path id="パス_8865" data-name="パス 8865" class="cls-4" d="M154.353,94.3q.53,1.558,1.06,3.117c.126.372.784-.02.672-.349q-.53-1.558-1.06-3.117c-.126-.373-.784.019-.672.349" transform="translate(10284.048 6836.546)"/>
    <path id="パス_8866" data-name="パス 8866" class="cls-4" d="M159.963,93.753a12.644,12.644,0,0,1,.609,2.239c.032.185.3.166.423.1a.433.433,0,0,0,.251-.447,12.671,12.671,0,0,0-.609-2.24c-.14-.374-.8.017-.674.348" transform="translate(10283.104 6836.637)"/>
    <path id="パス_8867" data-name="パス 8867" class="cls-4" d="M163.743,94.174q-.024.983-.048,1.966c0,.18.185.249.335.2a.487.487,0,0,0,.353-.4q.025-.983.049-1.966c0-.18-.185-.25-.336-.2a.49.49,0,0,0-.353.4" transform="translate(10282.474 6836.553)"/>
    <path id="パス_8868" data-name="パス 8868" class="cls-4" d="M162.27,99.224a9.75,9.75,0,0,1,.142,1.794c0,.175.168.224.313.172s.357-.214.359-.4a10.6,10.6,0,0,0-.152-1.932c-.031-.177-.29-.125-.4-.062a.451.451,0,0,0-.267.425" transform="translate(10282.714 6835.714)"/>
    <path id="パス_8869" data-name="パス 8869" class="cls-4" d="M158.237,98.8q.22,1.27.438,2.541c.032.184.3.161.419.095a.436.436,0,0,0,.253-.444q-.22-1.27-.438-2.541c-.032-.184-.3-.161-.418-.095a.435.435,0,0,0-.254.444" transform="translate(10283.393 6835.787)"/>
    <path id="パス_8870" data-name="パス 8870" class="cls-4" d="M152.133,100a13.47,13.47,0,0,1,.408,2.314c.035.419.707.1.68-.214a14.132,14.132,0,0,0-.422-2.457c-.095-.355-.75.041-.666.357" transform="translate(10284.42 6835.585)"/>
    <path id="パス_8871" data-name="パス 8871" class="cls-4" d="M146.057,100.279q.319,1.577.64,3.154c.04.2.67-.2.628-.405q-.318-1.576-.639-3.153c-.041-.2-.67.2-.629.4" transform="translate(10285.441 6835.532)"/>
    <path id="パス_8872" data-name="パス 8872" class="cls-4" d="M142.041,101.464a12.114,12.114,0,0,0,.557,1.909c.061.158.259.109.375.04s.339-.255.278-.413a12.166,12.166,0,0,1-.556-1.908c-.062-.309-.711.094-.654.373" transform="translate(10286.117 6835.337)"/>
    <path id="パス_8873" data-name="パス 8873" class="cls-4" d="M139.272,102.129a9.643,9.643,0,0,1,.857,1.348c.03.057.136.059.186.052a.553.553,0,0,0,.254-.118c.118-.1.246-.257.164-.413a9.751,9.751,0,0,0-.857-1.349c-.1-.135-.344-.014-.44.067s-.269.274-.164.413" transform="translate(10286.589 6835.235)"/>
    <path id="パス_8874" data-name="パス 8874" class="cls-13" d="M142.557,81.354c0-1.341.27-5.548.409-6.256a16.544,16.544,0,0,1,2.741-5.252c.7-.866.268-1.081.066-1.61s-1.017.3-1.649.961a9.411,9.411,0,0,0-1.837,3.076,28.827,28.827,0,0,0-1.427,5.484,20.5,20.5,0,0,0-.441,3.633c.009.5,2.139.11,2.139-.036" transform="translate(10286.391 6840.875)"/>
    <path id="パス_8875" data-name="パス 8875" class="cls-10" d="M130.96,62.319c-1.026-.358-1.181-.66-1.24-1.539a22.889,22.889,0,0,0-1.041-3.682c-.384-1.249-2.128-.431-2.686-.818a9.5,9.5,0,0,1-1.348-1.662c-.488-.557-1.73-.289-2.577.18s-1.2,1.379-2.21,3.47.056,4.492.162,5.549,1.849,2.919,3.548,3.672,4.976-.316,5.491-.166c.087.026,5.979,6.225,11.362,8.211,4.4,1.623,6.321-5.777,2.109-8.771-.469-.334-11.4-4.387-11.57-4.445" transform="translate(10289.923 6843.191)"/>
    <path id="パス_8876" data-name="パス 8876" class="cls-10" d="M50.85,24.128c-2.237,3.4-5.5,4.973-8.163,4.841a13.419,13.419,0,0,1-7.317-2.716,12.882,12.882,0,0,1-3.235-5.14,8.185,8.185,0,0,1-.052-3.136c.423-2.475-1.306-2.519.713-7.461.613-1.5,4.276-8.345,11.472-8.381C50.593,2.1,55.533,17.013,50.85,24.128" transform="translate(10304.668 6851.97)"/>
    <path id="パス_8877" data-name="パス 8877" class="cls-3" d="M40.3,9.595c-1.767-3.866-8.138,4.673-8.593,2.318C30.5,5.651,38.312,1.029,41.27.421A13.8,13.8,0,0,1,50.944,1.5c3.359,1.589,2.925,2.83,4.131,4.245a13.9,13.9,0,0,1,2.882,11.688A17.467,17.467,0,0,1,53.3,25a22.427,22.427,0,0,1-5.583,2.422c-1.357.368.926-4.919,2.7-5.73,2.622-2.024,2.262-2.982,1.863-3.947s-1.956-1.719-2.5-.925c-2.719,3.95-.916-.074-1.989-1.12-2.917-2.841-1.967,1.833-7.488-6.11" transform="translate(10304.703 6852.328)"/>
    <path id="パス_8878" data-name="パス 8878" class="cls-3" d="M56.909,7.489c.971-1.044,2.516-3.292,3.717-4.082a7.351,7.351,0,0,1,4.081-1.631c2.453.039,3.638.431,4.692,1.426.934.883,1.85,4.274,1.38,6.406-.283,2.856,1.421,4.1,2.57,4.95,1.629,1.2,4.887,1.357,4.239,2.608-1.9,3.661-4.179,3.8-6.39,2.944-7.117-2.745-1.609-8.677-5.909-10.575s-4.8-1.345-8.379-2.047" transform="translate(10300.441 6852.03)"/>
    <path id="パス_8879" data-name="パス 8879" class="cls-10" d="M27.279,63.5c-.818,1.223-3.244,7.33-5.575,11.661-1.464,2.718-6.3,10.942-7.511,14.162A32.454,32.454,0,0,0,12.3,96.31a15.187,15.187,0,0,0,.312,3.831c.266.966.26,4.209-.806,5.058-1.1.873-1.337-.035-2,.895s-1.326,1.524-2.133,2.49-2.645-.091-2.965-.854-.637-.343-1.9-.2-1.153-.342-1.252-1.648-.311-.817-1.044-1.654-.572-1.151-.185-2.1a17.7,17.7,0,0,1,3.537-5.319,32.79,32.79,0,0,0,2.156-2.549c1.059-1.482,2.126-5.286,2.643-6.724,1.771-4.933,4.049-11.874,6.211-17.938,2.832-7.94,5.379-14.013,8.7-15.405S28,62.43,27.279,63.5" transform="translate(10310.018 6843.232)"/>
    <path id="パス_8880" data-name="パス 8880" class="cls-4" d="M74.151,96.177a.9.9,0,0,1-.928-.8c-.4-3.724-3.077-8.645-6.176-14.345-1.209-2.223-2.459-4.521-3.684-6.945a.9.9,0,1,1,1.606-.812c1.212,2.4,2.455,4.686,3.659,6.9,3.191,5.868,5.946,10.935,6.385,15.012a.9.9,0,0,1-.8.991l-.062,0" transform="translate(10299.372 6840.083)"/>
    <path id="パス_8881" data-name="パス 8881" class="cls-10" d="M45.861,26.723c-.253.018-3.556.507-3.874.5-.086.578-.278,3.627-1.63,5.588-2.723,3.947-10.019,4.191-9.9,9.4.606,6.793,22.713,2.931,24.965-.279-.288-7.562-4.775-4.677-8.1-9-.63-.818-1.439-5.833-1.466-6.212" transform="translate(10304.893 6847.832)"/>
    <path id="パス_8882" data-name="パス 8882" class="cls-10" d="M22.595,249.289c7.729-1.408.954-8.072,4.026-15.164,0,0,4.1-3.637,5.489-.768,1.061,2.187,3.013,10.746,3.927,16.647a12.989,12.989,0,0,1-13.442-.715" transform="translate(10306.216 6813.248)"/>
    <path id="パス_8883" data-name="パス 8883" class="cls-3" d="M20.225,252.746l.052-.011a12.991,12.991,0,0,0,13.443.715,38.5,38.5,0,0,1,.495,4.476c.1,4.407-14.138,6.087-20.811,3.113-7.658-3.413-5.944-6.03,6.821-8.293" transform="translate(10308.533 6809.802)"/>
    <path id="パス_8884" data-name="パス 8884" class="cls-10" d="M80.393,240.518c-1.118-4.11-1.31-9.7-1.724-13.725-4.282-2.573-7.264-2.266-6.742,6.05S71.9,245.568,67.2,248.729l-.129.088a21.405,21.405,0,0,0,13.32-8.3" transform="translate(10298.731 6814.407)"/>
    <path id="パス_8885" data-name="パス 8885" class="cls-3" d="M79.1,243.583a21.405,21.405,0,0,1-13.32,8.3c-4.639,3.143-8.5,6.842-5.049,8.144,3.483,1.316,8.087.507,12.154-2.256s9.987-7.054,7.59-10.824a12.406,12.406,0,0,1-1.374-3.364" transform="translate(10300.021 6811.342)"/>
    <path id="パス_8886" data-name="パス 8886" class="cls-12" d="M26.025,96.324c-.166,1.522-4.7,50.81-4.033,66.958.167,4.055,1.046,36.818,1.866,47.212.743,9.4-.958,10.078,6.55,10.3,4.986.15,6.28-.855,6.658-3.18,2.6-15.986,2.8-81.641,5.046-81.854,4.291-.406,19.4,72.783,19.551,73.584,1.129,6.121,1.231,7.109,7.675,6.695,6.191-.4,4.432-2.426,4.105-6.161-1.4-16.072-6.276-60.084-6.206-63.828.168-8.987.942-28.894-1.238-44.458-.96-6.851-4.433-10.8-6.816-11.347-7.923-1.809-32.6,1.783-33.16,6.078" transform="translate(10306.328 6837.224)"/>
    <path id="パス_8887" data-name="パス 8887" class="cls-11" d="M62.182,81.729c-.405-2.623-3.6-14.49-3.47-15.912a80.3,80.3,0,0,1,1.831-11.484c.665-2.638,3.77-3.757,2.222-5.622C59.648,44.959,52.375,35.737,47.7,35.493c-2.343-.122-4.056,2.552-8.411,2.94-3.937.35-2.739-1.872-4.361-2.192-2.543-.5-6.641,2.992-8.9,6.75A176.6,176.6,0,0,0,15.48,62.953c-1.609,3.88,3.212,4.59,5.277,5.507,5.049,2.244,3.408,1.458,3.442,9.178.016,3.72-.671,12.238-.752,14.1-.2,4.723-2.945,8.437.848,9.654,3.171,1.017,17.928,2.313,24.2,2.153,4.095-.1,14-.23,20.061-3.484,1.538-.826-5.642-13.613-6.371-18.328" transform="translate(10307.467 6846.357)"/>
    <path id="パス_8888" data-name="パス 8888" class="cls-4" d="M51.474,96.937a.9.9,0,0,1-.806-.435c-1.543-2.568-4.182-10.047-6.734-17.279-1.184-3.352-2.3-6.519-3.281-9.126-3-7.971-7.923-26.462-8.5-31.178a.9.9,0,0,1,.784-1,.889.889,0,0,1,1,.783c.516,4.238,5.232,22.358,8.395,30.763.988,2.625,2.108,5.8,3.295,9.162,2.4,6.815,5.13,14.539,6.579,16.95a.9.9,0,0,1-.736,1.362" transform="translate(10304.608 6845.95)"/>
    <path id="パス_8889" data-name="パス 8889" class="cls-4" d="M53.693,106.847c.135-2.41-.359-3.869,2.385-4.739a30.05,30.05,0,0,1,7.779-1.777,28.038,28.038,0,0,0,6.571-.486c2.6-.581,5.493-1.423,6.189-.231S79.13,109.2,78.673,111.7s-.27,4.818-2.948,4.483-3.9.507-7.525,1.215-6.012,2.1-8.368,1.67-5.651.947-5.18-2.466-1.148-8.73-.96-9.76" transform="translate(10300.985 6835.668)"/>
    <path id="パス_8890" data-name="パス 8890" class="cls-3" d="M61.971,110.586c-2.273.086-3.242-1.054-4.738-2.814-.264-.311-.549-.645-.863-1a.337.337,0,1,1,.5-.447c.318.359.606.7.873,1.011,1.686,1.985,2.456,2.884,5.045,2.491,2.646-.408,11.406-1.785,13.013-2.347a.337.337,0,1,1,.223.636c-1.617.566-9.723,1.851-13.133,2.377a7.988,7.988,0,0,1-.925.093" transform="translate(10300.547 6834.458)"/>
    <path id="パス_8891" data-name="パス 8891" class="cls-10" d="M67.232,66.124c.707,1.29,2.589,7.585,4.532,12.1C72.983,81.064,77.08,89.68,78,92.994a32.415,32.415,0,0,1,1.272,7.123,15.177,15.177,0,0,1-.646,3.789c-.35.938-.628,4.169.359,5.109,1.016.966,1.336.082,1.917,1.067s1.187,1.634,1.906,2.667,2.643.141,3.029-.591.665-.286,1.91-.028,1.179-.24,1.391-1.531.382-.787,1.185-1.557.671-1.1.368-2.075a17.712,17.712,0,0,0-3.057-5.609,32.28,32.28,0,0,1-1.924-2.728c-.925-1.569-1.655-5.451-2.044-6.929-1.332-5.069-2.993-12.183-4.616-18.414-2.125-8.157-4.13-14.431-7.316-16.108s-5.126,7.813-4.506,8.945" transform="translate(10298.725 6842.741)"/>
    <path id="パス_8892" data-name="パス 8892" class="cls-11" d="M67.86,47.715c4.555,2.926,10.556,16.554,10.69,17.532s-.123,3.366-3.422,4.52-7.457,2.568-9.778,2.54S60.186,58.041,61.47,53.852s2.674-8.524,6.39-6.137" transform="translate(10299.729 6844.415)"/>
    <path id="パス_8903" data-name="パス 8903" class="cls-9" d="M0,0H142.754V221.015H0Z" transform="translate(10310.018 6852.329)"/>
    <path id="パス_8893" data-name="パス 8893" class="cls-3" d="M27.13,43.137a3.034,3.034,0,0,1-2.7,1.579c-4.349.373-8.667.535-12.914-.906a12.215,12.215,0,0,1-6.194-4.087C2.535,36.063.172,32.308.014,27.485A22.678,22.678,0,0,1,5.38,11.816C10.3,5.823,16.643,2.444,24.14.793,28.555-.18,32.957-.049,37.386.111A8.837,8.837,0,0,1,40.667.9C46.45,3.56,51.25,7.287,53.8,13.377a17.8,17.8,0,0,1-.359,14.489c-1.357,3.071-3.463,5.813-5.25,8.692a1.9,1.9,0,0,1-.73.725,1.062,1.062,0,0,1-.92-.012.965.965,0,0,1-.245-.894,7.694,7.694,0,0,1,1.185-1.7,24.337,24.337,0,0,0,6.268-13.26c.888-5.911-1.629-10.58-5.912-14.314a38.761,38.761,0,0,0-6.586-4.222,8.815,8.815,0,0,0-3.465-1.07c-7.127-.618-14.133.017-20.688,3.057C10.84,7.769,5.731,12.133,2.926,18.54A18.078,18.078,0,0,0,4.073,36.027c3.62,5.974,9.053,7.746,15.56,7.478,2.328-.095,4.655-.228,7.5-.369" transform="translate(10457.363 6794.236) rotate(41)"/>
    <path id="パス_8894" data-name="パス 8894" class="cls-3" d="M17.071,25.087a10.105,10.105,0,0,1-1.3,1.681,3.4,3.4,0,0,1-5.543-.894c-.914-1.6-1.6-3.333-.871-5.239.881-2.316,2.62-3.2,5.487-2.808,2.717.368,3.869,1.56,4.1,4.181.1,1.125.338,2.243.383,3.37A15.055,15.055,0,0,1,19.2,29c-.857,4.12-4.008,5.9-8.008,4.612-.351-.113-.618-.486-1.357-1.095a7.779,7.779,0,0,1,2.043-.3c5.288,1.052,6.818-3.114,5.8-6.79-.016-.059-.145-.087-.607-.344m-.414-3.494c.1-1.665-.545-2.273-2.579-2.436a3.213,3.213,0,0,0-3.66,2.862c-.167,2,1.237,3.981,2.855,4.032,1.958.062,3.216-1.6,3.384-4.457" transform="translate(10456.928 6795.987) rotate(41)"/>
    <path id="パス_8895" data-name="パス 8895" class="cls-3" d="M20.889,21.083A4.186,4.186,0,0,1,25.195,16.6c2.863-.019,5.772,2.44,5.786,4.889.015,2.605-2.449,4.8-5.453,4.851-2.533.045-4.613-2.316-4.638-5.261m1.621-2.347a3.373,3.373,0,0,0-.345.764,8.054,8.054,0,0,0-.083,1.288c0,3.433,2.511,4.989,5.594,3.478,1.628-.8,2.565-2.343,2.237-3.694a3.635,3.635,0,0,0-3.9-2.321c-1.1.1-2.2.3-3.506.484" transform="translate(10457.805 6796.613) rotate(41)"/>
    <path id="パス_8896" data-name="パス 8896" class="cls-3" d="M31.649,40.3,38.633,45.8c0-3.121,0-5.718-.008-8.66,1.394,1.707,1.9,7.689,1.171,11.367-2.061-.549-3.044-2.43-4.508-3.624s-3.319-2.15-4.1-4.057l.458-.531" transform="translate(10457.288 6798.629) rotate(41)"/>
    <path id="パス_8897" data-name="パス 8897" class="cls-3" d="M38.875,20.869c-.191-.485-.541-.919-.442-1.191,1.124-3.1.8-6.655,2.923-9.795.244,1.972-1.5,9.569-2.481,10.985" transform="translate(10459.402 6797.195) rotate(41)"/>
    <path id="パス_8898" data-name="パス 8898" class="cls-3" d="M34.124,11.44c.093,2.8.206,5.589.242,8.384,0,.281-.47.568-.978.781-.128-3.089-.721-6.118-.22-9.136l.956-.029" transform="translate(10458.938 6796.978) rotate(41)"/>
    <path id="パス_8899" data-name="パス 8899" class="cls-3" d="M38.355,22.8c.816,1.533.84,2.683-.365,4.006-.863-1.491-.609-2.617.365-4.006" transform="translate(10458.569 6798.021) rotate(41)"/>
    <path id="パス_8900" data-name="パス 8900" class="cls-3" d="M33.109,26.972c-.2-.735-.4-1.47-.665-2.437,1.833.91,1.748.739.665,2.437" transform="translate(10458.123 6797.842) rotate(41)"/>
    <path id="パス_8902" data-name="パス 8902" class="cls-9" d="M0,0H55.169V51.875H0Z" transform="translate(10457.363 6794.236) rotate(41)"/>
  </g>
</svg>
