<svg xmlns="http://www.w3.org/2000/svg" xmlns:xlink="http://www.w3.org/1999/xlink" width="360.488" height="145.92" viewBox="0 0 360.488 145.92">
  <defs>
    <style>
      .cls-1 {
        fill: none;
      }

      .cls-2 {
        clip-path: url(#clip-path);
      }

      .cls-3 {
        fill: #fbd8b5;
      }

      .cls-4 {
        fill: #a4cced;
      }

      .cls-5 {
        fill: #282828;
      }

      .cls-6 {
        fill: #bababa;
      }

      .cls-7 {
        fill: #4aa3d5;
      }

      .cls-8 {
        fill: #fce952;
      }

      .cls-9 {
        fill: #edbc32;
      }

      .cls-10 {
        fill: #fffff3;
      }

      .cls-11 {
        fill: #fff;
      }

      .cls-12 {
        fill: #e8f2ff;
      }

      .cls-13 {
        clip-path: url(#clip-path-2);
      }

      .cls-14 {
        fill: #8cb97f;
      }

      .cls-15 {
        fill: #80ad74;
      }
    </style>
    <clipPath id="clip-path">
      <rect id="長方形_712" data-name="長方形 712" class="cls-1" width="114.694" height="65.242"/>
    </clipPath>
    <clipPath id="clip-path-2">
      <rect id="長方形_720" data-name="長方形 720" class="cls-1" width="140.008" height="102.557"/>
    </clipPath>
  </defs>
  <g id="グループ_1036" data-name="グループ 1036" transform="translate(793.294 -7514.233)">
    <g id="グループ_1035" data-name="グループ 1035" transform="translate(-793.294 7552.34)">
      <g id="グループ_765" data-name="グループ 765" class="cls-2">
        <path id="パス_7264" data-name="パス 7264" class="cls-3" d="M113.356,64.241c-.46-.526-.626-.746-.628-1.058s-.087-1.057-.146-1.506-.273-.635-.5-.534-.109.458-.193,1.108-.254.346-.58.2-1.6-1.2-1.968-1.338-.784-.36-.966-.062.5.534.534.79-.235.246-.6.4-.19.338-.012.706.287.347.221.688.027.4.28.6a7.6,7.6,0,0,0,1.822.477,1.891,1.891,0,0,1,1.477.868c.02.035,1.124,1.14,1.173,1.205.969.7,2.456-.822.552-2.085-.229-.214-.4-.375-.468-.458" transform="translate(-66.596 -37.522)"/>
        <path id="パス_7265" data-name="パス 7265" class="cls-3" d="M145.036,53.3c.116-.023,1.657-.206,1.8-.249.109.249.426,2.237.471,2.591a8.584,8.584,0,0,1,.008,2.324c-.132.314-1.914,1.393-2.117-.944-.076-.866-.176-2.012-.174-2.3,0-.48.047-1.248.013-1.422" transform="translate(-89.346 -32.686)"/>
        <path id="パス_7266" data-name="パス 7266" class="cls-3" d="M145.378,38.461a3.393,3.393,0,0,1-2.7,1.909,4.676,4.676,0,0,1-2.618-.741,4.483,4.483,0,0,1-1.267-1.7,2.842,2.842,0,0,1-.106-1.088c.078-.872-.524-.84.041-2.613.171-.538,1.255-3.019,3.755-3.231,2.2-.187,4.327,4.858,2.9,7.461" transform="translate(-85.317 -19.095)"/>
        <path id="パス_7267" data-name="パス 7267" class="cls-4" d="M141.131,69.589a32.145,32.145,0,0,0-3.585-7.262c-1.2-1.566.44-4.8-.955-5.374-2.433-1.007-2.4-3.3-4.181-2.141-1.492.976-2.795,1.325-3.074,1.951.822,1.833-.8,1.875-1.537,3.757-.579,1.469-2.475.831-3.61.349,0,0-1.117-.8-2.011.714-.963,1.628-1.164,1.647.885,3.029,2.3,1.549,4.218,1.242,4.967,1.806.9.679-.219,4.152-1.083,5.184-1.132,1.353-1.612,2.694,2.777,3.692,2.334,1,3.68.018,5.33.478,1.03.288,6.5-4.63,6.076-6.183" transform="translate(-74.84 -33.571)"/>
        <path id="パス_7268" data-name="パス 7268" class="cls-5" d="M142.872,29.382c.3.065.452.053.969-.189a2.739,2.739,0,0,1,1.722-.339,2.079,2.079,0,0,1,1.2.639,2.449,2.449,0,0,1,.628,1.608,1.8,1.8,0,0,0,.343,1.473,3.565,3.565,0,0,1,.17,2.2,4.153,4.153,0,0,1-.953,1.179c-.285.225-.733,2.166-1.9,2.166-.787,0-.834,1.1-1.716.348-.447-.383.592-.671,0-1.26-.63-.626,1.15-1.037.512-1.859-.541-.7-1.226.644-1.525.644s-.429-.634-.59-1.519a1.281,1.281,0,0,0-1.269-.991c-.378,0-.906.352-1.423-.143s-.859-1-.341-1.725,1.151-.734,1.24-1.421.473-1.416,1.439-1.336a3.147,3.147,0,0,1,1.49.523" transform="translate(-85.295 -17.753)"/>
        <path id="パス_7269" data-name="パス 7269" class="cls-5" d="M114.345,59.186c-1.292-.66-3.546,1.165-5.034,4.077s-1.647,5.807-.355,6.468,3.546-1.165,5.034-4.077,1.647-5.807.355-6.468m-4.689,8.874c-.909-.465-.8-2.5.25-4.549s2.632-3.332,3.541-2.868.8,2.5-.25,4.55-2.632,3.332-3.541,2.867" transform="translate(-66.588 -36.381)"/>
        <path id="パス_7270" data-name="パス 7270" class="cls-3" d="M128.161,72.468c-.593-.445-.813-.637-.883-.961s-.321-1.078-.481-1.531-.422-.6-.636-.445-.013.5.041,1.192-.188.415-.558.334-1.922-.9-2.335-.958-.892-.2-1.016.147.636.445.727.7-.19.306-.533.551-.124.392.142.735.374.3.38.666.115.41.421.557a8.044,8.044,0,0,0,2,.1,2,2,0,0,1,1.722.579,1.725,1.725,0,0,0,.143.133c.461-.481.966-.933,1.457-1.425-.285-.172-.493-.3-.586-.373" transform="translate(-75.334 -42.801)"/>
        <path id="パス_7271" data-name="パス 7271" class="cls-3" d="M207.919,47.33c.072.013,1,.254,1.091.261a7.488,7.488,0,0,0,.071.994c.054.213.5,1.459.573,1.574a2.239,2.239,0,0,1-3.185-.609,4.552,4.552,0,0,0,1.122-1.4c.111-.275.308-.708.327-.816" transform="translate(-127.203 -29.159)"/>
        <path id="パス_7272" data-name="パス 7272" class="cls-3" d="M222.672,19.493c.2-.519,2.806-4.188,2.984-4.711s.231-.514-.154-1.3-2.446-4.465-2.494-4.973a1.077,1.077,0,0,0-.581-.937,3.074,3.074,0,0,1-.663-1.951c0-.777.162-1.137.512-.38s.453,1.108.575.506a6.373,6.373,0,0,1,.551-1.678c.192-.3.881-1.272.742-.575s-.427,1.6-.111,1.16.578-.743.671-.879.284-.116.219.247-.073.487.1.741.322.141.116.742-.545,1.721-.593,1.989A1.522,1.522,0,0,0,224.9,8.8c.451.58,2.866,4.137,3.153,4.55a1.411,1.411,0,0,1,.415,1.477,48.056,48.056,0,0,1-2.439,6c-.211.323-3.355-1.338-3.355-1.338" transform="translate(-136.626 -1.998)"/>
        <path id="パス_7273" data-name="パス 7273" class="cls-3" d="M189.557,17.014c-.177-.018-.335.009-.408-.434a37.177,37.177,0,0,1-.181-5.252,2.465,2.465,0,0,1,.731-1.52c.546-.568,4.842-4.391,5.163-4.709a3.2,3.2,0,0,0,.719-1.453c.105-.509.4-2.163.479-2.357s.086-.4.243-.428.012-.22.232-.208.293.15.446-.087.138-.613.351-.561.207.315.2.6-.038.826-.071,1.014.144.512.321.224.236-.929.33-1.065.349-.243.345.089-.509,1.908-.574,2.27.193.4.422.2.545-.485.655-.326-.26.675-.42.868a9.336,9.336,0,0,1-.842.821c-.2.159-.446.086-.69.209s-2.137,2.24-2.379,2.5-2.3,2.765-2.556,3.025a1.154,1.154,0,0,0-.357.908c-.051.518.32,3.861.337,4.308a4.447,4.447,0,0,1,.041.854c-.046.256-2.533.5-2.533.5" transform="translate(-116.388 0)"/>
        <path id="パス_7274" data-name="パス 7274" class="cls-5" d="M191.174,40.057a7.885,7.885,0,0,0,1.088,2.75,6.825,6.825,0,0,0,2.356,2.033,3.4,3.4,0,0,0,4.471-.78c.5-.632,2.049-2.908,2.2-3.1s.173-.191.516.065a35.828,35.828,0,0,1,3.187,2.349c.216.344.126.384-.108.758S203.271,47.671,203,48.4s-1.579,5.852-1.824,6.752-.422,4.977-.45,5.444.192.784-.553.761-6.485-.526-7.152-.674a39.549,39.549,0,0,0-4.293-.827c-.455.057-.853-.042-.6-1.135s.726-5.588.885-6.476a22.414,22.414,0,0,0-.433-5.935c-.386-1.1-1.364-4.465-1.467-4.817s.676-.517,1.194-.618,2.4-1.012,2.867-.818" transform="translate(-115.272 -24.662)"/>
        <path id="パス_7275" data-name="パス 7275" class="cls-3" d="M209.011,38.087a2.321,2.321,0,0,1-4.074-.769c-.782-1.968-.009-5.92,3.116-5.331s2.4,4.552.959,6.1" transform="translate(-126.084 -19.671)"/>
        <path id="パス_7276" data-name="パス 7276" class="cls-5" d="M204.614,28.578a1.161,1.161,0,0,1,1.656.144c.5.61,1.315.511,1.744,1.017a6.955,6.955,0,0,1,.772,2c.187.492.714,1.137.354,1.776a5,5,0,0,1-2.474,1.513c-.431.015-.076-.595-.187-1.685a4.3,4.3,0,0,0-1.194-3.058c-.906-.744-.946-.69-1.425-.409a3.822,3.822,0,0,0-1.73,1.8c-.353.946-.327,1.99-.577,2.19a1.9,1.9,0,0,1-1.581-.223c-.437-.292-.6-.384-.2-1.076a16.651,16.651,0,0,0,1.3-2.3,3.65,3.65,0,0,1,1.348-1.715c.508-.276,1.3-.929,2.2.028" transform="translate(-122.935 -17.297)"/>
        <path id="パス_7277" data-name="パス 7277" class="cls-3" d="M229.323,55.727c.087.009.962.068,1.072.068a9.067,9.067,0,0,0,.173,1.185,11.023,11.023,0,0,0,.5,1.263c-.23.306-2.484.059-2.886-.3a2.879,2.879,0,0,0,.843-1.211c.1-.342.289-.873.3-1" transform="translate(-140.576 -34.333)"/>
        <path id="パス_7278" data-name="パス 7278" class="cls-3" d="M248.962,25.494c.457-.833,7.765-12.238,7.956-12.7a4.065,4.065,0,0,0,.148-2.231c-.211-.7.131-1.522.377-1.155a7.148,7.148,0,0,1,.547,1.024c.187.389.388.638.67-.157s.587-1.531.738-1.885.812-.967.673-.185-.663,2.262.005,1.309,1.647-1.875,1.245-.751-.941,1.92-.212,1.2,1.524-.977.89-.077-1.392,1.617-.679,1.322,1.437-.418.773.223a21.221,21.221,0,0,1-3.261,2.36c-.6.279-.829.852-1.3,1.513s-5.5,10.4-5.83,11.133-2.559-.552-2.745-.942" transform="translate(-153.382 -4.821)"/>
        <path id="パス_7279" data-name="パス 7279" class="cls-3" d="M198.921,60.539c-.542.284-3.456,3.135-3.97,3.423s-.508.772-.749-.448-.772-4.033-.784-4.461.742-1.116.809-1.479a.987.987,0,0,0-.331-.916,2.127,2.127,0,0,1-.46-1.043.615.615,0,0,0-.78-.423c-.327.136-.6.335-.91.274a.9.9,0,0,0-.839.14,3.152,3.152,0,0,1-.562.481.937.937,0,0,0,.031,1.055,1.5,1.5,0,0,1,.375,1.035c-.013.4.751.7,1.13.886s.169.558.121,1.292.371,5.953.539,6.8.668.952,1.508.528a48.025,48.025,0,0,0,5.8-4.056c.49-.6-.506-3.039-.928-3.083" transform="translate(-117.18 -33.98)"/>
        <path id="パス_7280" data-name="パス 7280" class="cls-6" d="M214.531,54.4c.443-.153,1.459-.359,1.787.045a2.543,2.543,0,0,0,2.244.292c.457-.293,4.725-3.031,5.256-4.027.123-.357,3.035,1.427,3.346,1.715s-.622,1.328-1.026,2.2-1.506,1.889-1.589,4.041-.18,12.578-.2,13,.222.592-.593.507a33.773,33.773,0,0,0-4.857-.054,17.6,17.6,0,0,1-4.016-.478,30.03,30.03,0,0,0-3.57-.118c-.369-.01-.35-.463-.075-2s1.031-7.939,1.1-8.358-.133-.355-.594-.034a5.7,5.7,0,0,1-1.665.963c-.281-.03-1.3-3.321-1.575-3.691s-.24-.423.012-.653,5.453-3.466,6.01-3.351" transform="translate(-128.342 -31.211)"/>
        <path id="パス_7281" data-name="パス 7281" class="cls-3" d="M225.755,43.722c.1.016.191.122.263.235.259-1.663,1.3-3.239,3.283-2.8s2.272,2.3,1.814,3.919a.469.469,0,0,1,.338-.1c.124.035.333.22.07.617a1.262,1.262,0,0,1-.8.488,4.167,4.167,0,0,1-.7,1,2.192,2.192,0,0,1-3.854-.842,4.169,4.169,0,0,1-.216-1.2,1.263,1.263,0,0,1-.524-.778c-.073-.471.194-.552.321-.531" transform="translate(-138.879 -25.309)"/>
        <path id="パス_7282" data-name="パス 7282" class="cls-5" d="M232.026,38.278a3.4,3.4,0,0,0-2.651-.554c-.972.217-1.3.432-1.552.838s-.665.215-.97.524-.469.755-.16,1.06a1.671,1.671,0,0,0,1.614.15c.634-.217,1.022-.427,1.528-.257s.5.538.749.868.5.123,1.015.2.07,1.45.045,1.724.739-.131,1.313-.691a2.474,2.474,0,0,0,.331-2.242,3.367,3.367,0,0,0-1.262-1.622" transform="translate(-139.561 -23.199)"/>
        <path id="パス_7283" data-name="パス 7283" class="cls-5" d="M243.568,33.974c-.3-.457-.4-.959-.989-.921s-1.262.036-1.546.777a2.039,2.039,0,0,0,.1,1.913,2.254,2.254,0,0,0,1.155.783c.6.117.692.157,1.153-.507a2.124,2.124,0,0,0,.129-2.045" transform="translate(-148.387 -20.362)"/>
        <path id="パス_7284" data-name="パス 7284" class="cls-3" d="M155.034,61.546c.107-.007,1.524,0,1.657-.018a15.875,15.875,0,0,0,.128,2.4c1.189,1.612,4.035,3.837,3.816,4.6-.156.269-8.3.744-8.21-1.4.031-.792,1.253-1.554,2.107-3.12a4.263,4.263,0,0,0,.5-2.462" transform="translate(-93.906 -37.907)"/>
        <path id="パス_7285" data-name="パス 7285" class="cls-5" d="M172.481,47.246a8.711,8.711,0,0,1,.752-1.424,2.144,2.144,0,0,1,1.034-.758,1.8,1.8,0,0,1,1.429.061,2.615,2.615,0,0,1,.857,1.709,1.472,1.472,0,0,0,1.087,1.211c.548.22,1.479.027,1.387.427-.268,1.172-.9,1.377-1.59,1.3-2.211-.256-1.087-2.334-2.441-2.556a7.311,7.311,0,0,0-2.516.033" transform="translate(-106.263 -27.695)"/>
        <path id="パス_7286" data-name="パス 7286" class="cls-3" d="M157.729,51.21a3.294,3.294,0,0,1-2.928,1.136,4.7,4.7,0,0,1-2.318-1.206,4.1,4.1,0,0,1-.853-1.775,2.468,2.468,0,0,1,.119-.991c.248-.76-.325-.857.562-2.318a4.5,4.5,0,0,1,4.184-2.094c2.107.292,3.1,5.229,1.235,7.248" transform="translate(-93.411 -27.061)"/>
        <path id="パス_7287" data-name="パス 7287" class="cls-5" d="M153.143,43.9a2.487,2.487,0,0,1,1.584-1.193c.969-.194,1.091-.838,2.1-.836a5.388,5.388,0,0,1,3.1.946,2.793,2.793,0,0,1,1.195,2.047c.027.655-.158,4.4-3.581,5.907-.547.241-.921.209-.906-.911.338-.7.976-1.479.885-1.8s-.561-.308-.842-.161c-.708.369-.552.137-.91-.879-.437-1.239-3.4-1.285-2.631-3.117" transform="translate(-94.272 -25.795)"/>
        <path id="パス_7288" data-name="パス 7288" class="cls-7" d="M157.967,88.541c-.326-2.284-.306-2.443-.514-3.9-.169-1.178-.741-4.111-.991-6.118-.274-2.189-.109-5.419-1.9-7.8-1.188-1.576-1.172-1.887-2.292-2.151-.719-.17-1.252,1.683-2.621,2.477-1.407.816-2.138-.453-2.463.082-1.04,2-.917,4.072-1.56,5.8-1.366,3.676-1.557,9.581-1.615,9.962-.24,1.581,14.04,2.217,13.958,1.642" transform="translate(-88.72 -42.242)"/>
        <path id="パス_7289" data-name="パス 7289" class="cls-3" d="M159.324,72.256c1.005.1,1.369.317,1.717,2.008a22.833,22.833,0,0,1-.084,4.172c-.138.751-1.576,6.371-1.586,6.76a17.345,17.345,0,0,1-.619,2.758c-.136.244-.371.827-.673.835s-.607.494-.749.585a.574.574,0,0,1-.661-.217.727.727,0,0,0-.8-.193c-.276.082-.589.195-.632-.147s.746-1.435.967-1.69.693-.695.167-.682-1.066.008-.746-.206,1.475-.74,1.668-.844a.97.97,0,0,0,.686-.847c.062-.622.159-4.2.18-4.5s-.208-4.981-.316-5.394c-.255-.968.489-2.5,1.478-2.4" transform="translate(-95.64 -44.513)"/>
        <path id="パス_7290" data-name="パス 7290" class="cls-4" d="M167.576,85.493c-.442.311-.534-.522-.193-1.86l5.808-22.749c.342-1.338.907-2.36,1.247-2.274l1.038.265c.3.077.289,1.131-.021,2.344L170.19,81.84a6.12,6.12,0,0,1-1.267,2.7Z" transform="translate(-102.995 -36.105)"/>
        <path id="パス_7291" data-name="パス 7291" class="cls-7" d="M164.029,62.652c.914-.712,1.189-1.83,2.388-1.566s2.045.319,2.653-.443a2.665,2.665,0,0,0,.59-1.951c-.119-.833.2-.505.792-.114s1.739.414.895,1.033-1.313,1.827-2.361,2.185a6.422,6.422,0,0,1-3.013-.044c-.45-.1-1.526.779-1.944.9" transform="translate(-101.056 -35.838)"/>
        <path id="パス_7292" data-name="パス 7292" class="cls-7" d="M163.794,69.174a2.3,2.3,0,0,1,2.18-.127c.935.446,1.27,1.186,2.715.709s2.011-1.015,2.865-.557,1.063.324.724.85-.335,1.852-.754,1.1-.889-1.282-1.774-.948-1.732,1.078-2.571.432-1.346-1.715-3.383-1.463" transform="translate(-100.911 -42.41)"/>
        <path id="パス_7293" data-name="パス 7293" class="cls-7" d="M93.237,42.3l-1.078-.38c-.323-.114-.951.262-.951.262-1.559.946-5.276,4.921-9.267,10-2.335,2.973-4.337,5.781-5.719,7.965.808.575,1.591,1.2,2.358,1.829L93.5,42.98c.2-.255.08-.563-.263-.684" transform="translate(-46.959 -25.811)"/>
        <path id="パス_7294" data-name="パス 7294" class="cls-8" d="M96.184,45.063l-.487.155a3.793,3.793,0,0,0-.632.552c-1.209,1.263-4.67,5.469-8.66,10.55-2.11,2.686-4.02,5.175-5.494,7.145q.316.255.628.514L96.1,45.436c.2-.255.235-.423.081-.373" transform="translate(-49.848 -27.757)"/>
        <path id="パス_7295" data-name="パス 7295" class="cls-9" d="M218.881,67.938l-1.435-1.847a2.4,2.4,0,0,0-1.419-.662c-2.459-.25-8.761,1.936-15.736,5.6-8.5,4.466-14.78,9.435-14.022,11.1a.772.772,0,0,0,.406.373l.651,2.016c.228.707.7,1.143,1.053.959l30.7-16.129c.35-.184.258-.821-.2-1.408" transform="translate(-114.719 -40.298)"/>
        <path id="パス_7296" data-name="パス 7296" class="cls-8" d="M115.9,81.873c-.089-4.559-3.592-8.254-7.859-8.254h-.355q-2.13.657-4.56,1.227c-.5.119-1.021.232-1.545.346,0,0,0,0-.006,0-.508.107-1.02.214-1.542.319l-.1.018c-.5.1-1.015.2-1.531.289l-.161.027c-.5.093-1.018.179-1.537.265l-.2.033q-.77.125-1.562.241c-.069.012-.142.021-.211.033-.53.077-1.063.152-1.6.223l-.2.027c-.546.071-1.1.14-1.653.205l-.153.018c-.524.06-1.054.119-1.587.175l-.266.027q-.787.085-1.589.155l-.394.036c-.51.048-1.026.089-1.545.131l-.469.036c-.5.038-1.015.071-1.529.107-.175.012-.349.021-.524.033q-.757.045-1.526.086l-.544.027c-.516.027-1.032.048-1.551.068-.177.009-.358.015-.538.021-.5.018-1,.033-1.512.047-.036,0-.072,0-.111,0q-2.151.054-4.355.057c-13.92,0-26.414-1.7-34.96-4.4H37.64a40.569,40.569,0,0,0-21.79,7.03A22.052,22.052,0,0,0,12.3,83.657l-2.044,2.272c-.194.218-.38.435-.555.649-5.157,6.348-1.523,11.9,8.952,11.9h89.4a7.344,7.344,0,0,0,.857-.051,8.276,8.276,0,0,0,7.008-8.39v-7.98c0-.063,0-.125-.006-.185" transform="translate(-4.545 -45.286)"/>
        <path id="パス_7297" data-name="パス 7297" class="cls-9" d="M21.715,120H3.588a2.875,2.875,0,0,0-2.666,2.21L.055,126.3a1.847,1.847,0,0,0,1.8,2.374h15.27A11.183,11.183,0,0,1,21.715,120" transform="translate(0 -73.933)"/>
        <path id="パス_7298" data-name="パス 7298" class="cls-9" d="M141.63,120H86.005a11.183,11.183,0,0,1,4.587,8.666h46.45A11.185,11.185,0,0,1,141.63,120" transform="translate(-52.986 -73.933)"/>
        <path id="パス_7299" data-name="パス 7299" class="cls-9" d="M274.876,126.3l-1.734-4.083A3.772,3.772,0,0,0,270.007,120h-9.668a11.182,11.182,0,0,1,4.588,8.666h8.651c1.269,0,1.85-1.076,1.3-2.374" transform="translate(-160.391 -73.933)"/>
        <path id="パス_7300" data-name="パス 7300" class="cls-4" d="M143.419,113.824a.743.743,0,0,0-.786-.684H94.7a.691.691,0,1,0,0,1.368h47.934a.743.743,0,0,0,.786-.684" transform="translate(-57.858 -69.704)"/>
        <path id="パス_7301" data-name="パス 7301" class="cls-4" d="M271.64,113.139h-8.949c-.081,0-.147.308-.147.684s.066.684.147.684h8.949c.08,0,.146-.308.146-.684s-.066-.684-.146-.684" transform="translate(-161.749 -69.703)"/>
        <path id="パス_7302" data-name="パス 7302" class="cls-10" d="M282.835,95.332v5.327a4.42,4.42,0,0,1-.921.1c-1.986,0-3.592-1.277-3.592-2.849s1.606-2.852,3.592-2.852a4.369,4.369,0,0,1,.916.1c.005.06.005.122.005.185" transform="translate(-171.47 -58.56)"/>
        <path id="パス_7303" data-name="パス 7303" class="cls-4" d="M170.1,92.108a.409.409,0,0,1-.393.422H167.55a.409.409,0,0,1-.393-.422v-.3a.41.41,0,0,1,.393-.422H169.7a.41.41,0,0,1,.393.422Z" transform="translate(-102.983 -56.304)"/>
        <path id="パス_7304" data-name="パス 7304" class="cls-10" d="M19.748,98.91c-1.969,1.7-4.563,1.757-5.789.122a3.118,3.118,0,0,1-.538-1.173c.175-.214.36-.432.555-.649l2.044-2.272a22.033,22.033,0,0,1,3.554-3.12,2.908,2.908,0,0,1,1.52,1.048c1.229,1.635.624,4.341-1.345,6.044" transform="translate(-8.268 -56.568)"/>
        <path id="パス_7305" data-name="パス 7305" class="cls-5" d="M55.8,119.444a9.693,9.693,0,1,0,9.693,9.693,9.693,9.693,0,0,0-9.693-9.693" transform="translate(-28.404 -73.588)"/>
        <path id="パス_7306" data-name="パス 7306" class="cls-11" d="M62.906,130.982a5.263,5.263,0,1,0,5.263,5.263,5.263,5.263,0,0,0-5.263-5.263" transform="translate(-35.513 -80.696)"/>
        <path id="パス_7307" data-name="パス 7307" class="cls-5" d="M230.254,119.444a9.693,9.693,0,1,0,9.693,9.693,9.693,9.693,0,0,0-9.693-9.693" transform="translate(-135.884 -73.588)"/>
        <path id="パス_7308" data-name="パス 7308" class="cls-11" d="M237.361,130.982a5.263,5.263,0,1,0,5.263,5.263,5.263,5.263,0,0,0-5.263-5.263" transform="translate(-142.992 -80.696)"/>
      </g>
    </g>
    <g id="グループ_1034" data-name="グループ 1034" transform="translate(-678.601 7514.233)">
      <path id="パス_7449" data-name="パス 7449" class="cls-12" d="M.027,57.372C-1.149,83,35.513,78.61,85.707,71.728s52.935-9.069,88.349-17.173,65.155-21.194,60.968-37.167-40.113-23.9-114.69-10.812S1.2,31.74.027,57.372Z" transform="translate(231.093 120.668) rotate(-169)"/>
      <g id="グループ_782" data-name="グループ 782" transform="translate(63.564 0) rotate(21)">
        <g id="グループ_781" data-name="グループ 781" class="cls-13" transform="translate(0 0)">
          <path id="パス_7439" data-name="パス 7439" class="cls-11" d="M1.942,10.228a3.566,3.566,0,0,1-.178-.676A3.289,3.289,0,0,1,4.4,5.721a3.159,3.159,0,0,1,2.782.963c.03-.012.059-.027.089-.039a5.3,5.3,0,0,1-.26-.989,4.809,4.809,0,0,1,3.852-5.6A4.628,4.628,0,0,1,15.049,1.59,4.039,4.039,0,0,1,17.41.349a3.413,3.413,0,0,1,4.1,2.469A2.688,2.688,0,0,1,21.327,4.3a3.833,3.833,0,0,1,3.949,3.166A3.855,3.855,0,0,1,22,11.817a4.034,4.034,0,0,1-.6.051,8.86,8.86,0,0,1-5.261,2.745,9.235,9.235,0,0,1-4.851-.48,6.22,6.22,0,0,1-3.279,1.547,6.143,6.143,0,0,1-3.822-.56,3.845,3.845,0,0,1-.6.146A2.957,2.957,0,0,1,.028,13.138a2.792,2.792,0,0,1,1.914-2.91" transform="translate(83.678 7.017)"/>
          <path id="パス_7440" data-name="パス 7440" class="cls-11" d="M2.534,8.665a4.56,4.56,0,0,1-.439-.9,5.037,5.037,0,0,1,3.3-6.3,5.332,5.332,0,0,1,4.793.57A4.876,4.876,0,0,1,12.562.309c2.122-.752,4.295-.081,4.853,1.5a2.427,2.427,0,0,1,.03,1.478A3.974,3.974,0,0,1,22.238,5.49c.685,1.934-.6,4.153-2.874,4.957a5.026,5.026,0,0,1-.64.182,10.721,10.721,0,0,1-5.285,3.828,10.905,10.905,0,0,1-6.2.435,6.764,6.764,0,0,1-.919.4c-2.694.953-5.446.111-6.15-1.878-.59-1.663.441-3.6,2.369-4.752" transform="translate(9.58 35.461)"/>
          <path id="パス_7441" data-name="パス 7441" class="cls-14" d="M19.716.7A88.529,88.529,0,0,0,14.249,9.19c-3.317,5.792-8.6,5.468-12.244,5.3C-2.219,23.535.644,30.078,6.746,35.65l16.613-6.09a14.375,14.375,0,0,0,6.776-5.845,17.216,17.216,0,0,0,2.826-8.85L33.193,0A17.619,17.619,0,0,0,26.6,3.049C25.264,3.715,22.559,1.64,19.716.7" transform="translate(86.575 35.067)"/>
          <path id="パス_7442" data-name="パス 7442" class="cls-6" d="M15.253,0A43.718,43.718,0,0,0,8.991,1.023C5.285,2.222,3.269,4.332,0,7.587c3.3.8,6.442,2.575,7.99,2.005a24.492,24.492,0,0,1,7.658-2.6l-.394-6.7Z" transform="matrix(0.996, -0.087, 0.087, 0.996, 103.29, 30.722)"/>
          <path id="パス_7448" data-name="パス 7448" class="cls-6" d="M15.813,0a25.463,25.463,0,0,0-5.07,1.716C7.038,3.346,3.269,7.4,0,11.823c3.3,1.09,6.442,3.5,7.99,2.726a20.476,20.476,0,0,1,7.658-3.54L15.813.391Z" transform="translate(115.627 22.229) rotate(30)"/>
          <path id="パス_7443" data-name="パス 7443" class="cls-6" d="M14.386,7.643c1.3,0,3.887,3.887,6.48,2.591.749-.749,1.067-2.364,1.7-3.593-3.911-2.075-6.9-3.32-10.087-4.958C6.689-1.285,5.371.033,3.061,2.849A55.229,55.229,0,0,0,0,7.509c5.1,1.774,8.77-.989,14.386.134" transform="translate(68.985 36.951)"/>
          <path id="パス_7444" data-name="パス 7444" class="cls-15" d="M64.841,7.455A118.709,118.709,0,0,0,52.756,0c-.635,1.229-.953,2.844-1.7,3.593C48.463,4.889,45.87,1,44.575,1,38.959-.122,35.287,2.642,30.189.868,26.155,7.447,19.88,18.513,18.516,21.345,16.7,25.155,3.628,39.538,0,44.346a5.453,5.453,0,0,0,1.439,2.268l10.237-3.759L71.139,21.034a14.38,14.38,0,0,0,6.776-5.843C75.233,13.1,71.423,12,64.841,7.455" transform="translate(38.795 43.592)"/>
          <path id="パス_7445" data-name="パス 7445" class="cls-6" d="M14.616,5.222c1.3,1.3,1.3,2.591,2.591,3.887a5.68,5.68,0,0,0,6.174-2.179c-.9-.957-1.857-1.949-3-3.055C14.914-1.425,9.626-.762,4.665,2.707A30.2,30.2,0,0,0,0,7.623a14.245,14.245,0,0,1,1.658,2.782C6.841,13,9.434,2.63,14.616,5.222" transform="translate(16.923 69.175)"/>
          <path id="パス_7446" data-name="パス 7446" class="cls-14" d="M40.306,2.127a5.683,5.683,0,0,1-6.174,2.18c-1.3-1.3-1.3-2.593-2.591-3.888C26.356-2.172,23.765,8.195,18.583,5.6a14.32,14.32,0,0,0-1.658-2.782C11.614,9.317,4.113,20.183,0,26.166a1.305,1.305,0,0,0,.208.26c1.84,2.047,4.718,2.76,7.891,1.594L50.471,12.47A144.937,144.937,0,0,1,40.306,2.127" transform="translate(0 73.977)"/>
        </g>
      </g>
      <path id="パス_7447" data-name="パス 7447" class="cls-14" d="M54.421,35.717c-2.013-2.5-5.171-4-8.336-2.944-1.749,1.751-1.749,3.5-3.5,5.25-7,3.5-10.5-10.5-17.5-7a19.335,19.335,0,0,1-2.239,3.757C15.681,26.009,5.553,11.338,0,3.26a1.762,1.762,0,0,1,.28-.352C2.765.145,6.65-.818,10.935.756l57.211,21A195.7,195.7,0,0,0,54.421,35.717" transform="translate(202.855 95.721) rotate(159)"/>
    </g>
  </g>
</svg>
