<svg xmlns="http://www.w3.org/2000/svg" width="3.605" height="6.211" viewBox="0 0 3.605 6.211">
  <defs>
    <style>
      .cls-1 {
        fill: #fff;
      }
    </style>
  </defs>
  <g id="グループ_1138" data-name="グループ 1138" transform="translate(0.5 0.5)">
    <path id="線_178" data-name="線 178" class="cls-1" d="M2.605,3.105a.5.5,0,0,1-.354-.146L-.354.354a.5.5,0,0,1,0-.707.5.5,0,0,1,.707,0L2.959,2.252a.5.5,0,0,1-.354.854Z"/>
    <path id="線_179" data-name="線 179" class="cls-1" d="M0,3.105a.5.5,0,0,1-.354-.146.5.5,0,0,1,0-.707L2.252-.354a.5.5,0,0,1,.707,0,.5.5,0,0,1,0,.707L.354,2.959A.5.5,0,0,1,0,3.105Z" transform="translate(0 2.605)"/>
  </g>
</svg>
