<svg xmlns="http://www.w3.org/2000/svg" width="3.937" height="6.875" viewBox="0 0 3.937 6.875">
  <defs>
    <style>
      .cls-1 {
        fill: #484848;
      }
    </style>
  </defs>
  <g id="グループ_1139" data-name="グループ 1139" transform="translate(0.5 0.5)">
    <path id="線_33" data-name="線 33" class="cls-1" d="M2.937,3.437a.5.5,0,0,1-.354-.146L-.354.354a.5.5,0,0,1,0-.707.5.5,0,0,1,.707,0L3.291,2.584a.5.5,0,0,1-.354.854Z" transform="translate(0)"/>
    <path id="線_34" data-name="線 34" class="cls-1" d="M0,3.437a.5.5,0,0,1-.354-.146.5.5,0,0,1,0-.707L2.584-.354a.5.5,0,0,1,.707,0,.5.5,0,0,1,0,.707L.354,3.291A.5.5,0,0,1,0,3.437Z" transform="translate(0 2.937)"/>
  </g>
</svg>
