<svg xmlns="http://www.w3.org/2000/svg" xmlns:xlink="http://www.w3.org/1999/xlink" width="175.624" height="89.003" viewBox="0 0 175.624 89.003">
  <defs>
    <style>
      .cls-1 {
        fill: #fce952;
      }

      .cls-2 {
        fill: #edbc32;
      }

      .cls-3 {
        fill: #306e1d;
      }

      .cls-4 {
        filter: url(#パス_8906);
      }

      .cls-5 {
        filter: url(#パス_8905);
      }
    </style>
    <filter id="パス_8905" x="53.656" y="35.338" width="50.685" height="23.454" filterUnits="userSpaceOnUse">
      <feOffset dx="3" dy="3" input="SourceAlpha"/>
      <feGaussianBlur result="blur"/>
      <feFlood flood-color="#edbc32" flood-opacity="0.518"/>
      <feComposite operator="in" in2="blur"/>
      <feComposite in="SourceGraphic"/>
    </filter>
    <filter id="パス_8906" x="105.255" y="22.323" width="26.525" height="37.748" filterUnits="userSpaceOnUse">
      <feOffset dx="3" dy="3" input="SourceAlpha"/>
      <feGaussianBlur result="blur-2"/>
      <feFlood flood-color="#edbc32" flood-opacity="0.518"/>
      <feComposite operator="in" in2="blur-2"/>
      <feComposite in="SourceGraphic"/>
    </filter>
  </defs>
  <g id="グループ_1178" data-name="グループ 1178" transform="translate(-11226.41 -5229.49)">
    <path id="パス_6522" data-name="パス 6522" class="cls-1" d="M48.7,207.226A283.356,283.356,0,0,0,5.849,217.531q1.869-9.141,3.97-18.267Q5.018,191.889,0,184.67a302.6,302.6,0,0,1,45.766-11.007q1.466,16.781,2.932,33.563" transform="translate(11234.901 5100.961)"/>
    <path id="パス_6523" data-name="パス 6523" class="cls-2" d="M69.965,200.56q-12.476-6.375-25.656-11.566-2.263-16.62-4.527-33.239Q53.749,160.733,67.033,167q1.466,16.781,2.932,33.563" transform="translate(11213.634 5107.627)"/>
    <path id="パス_6524" data-name="パス 6524" class="cls-1" d="M289.652,207.226A283.357,283.357,0,0,1,332.5,217.531q-1.869-9.141-3.97-18.267,4.8-7.376,9.819-14.595a302.6,302.6,0,0,0-45.766-11.007q-1.466,16.781-2.932,33.563" transform="translate(11057.21 5100.961)"/>
    <path id="パス_6525" data-name="パス 6525" class="cls-2" d="M289.652,200.56q12.476-6.375,25.656-11.566l4.526-33.239Q305.868,160.733,292.584,167q-1.466,16.781-2.932,33.563" transform="translate(11057.21 5107.627)"/>
    <path id="パス_6526" data-name="パス 6526" class="cls-1" d="M159.59,190.132a177.59,177.59,0,0,0-115.987,0q-1.91-19.167-3.821-38.334a189.284,189.284,0,0,1,123.628,0q-1.911,19.167-3.821,38.334" transform="translate(11213.633 5111.583)"/>
    <g class="cls-5" transform="matrix(1, 0, 0, 1, 11226.41, 5229.49)">
      <path id="パス_8905-2" data-name="パス 8905" class="cls-3" d="M-10.832-7.552c-.608-1.568-8.736-14.24-8.736-14.24l-4.32.32c.1,6.24,0,19.008,0,19.008,1.952.1,4.864-.064,4.864-.064l-.16-11.9c1.024,1.7,8.1,12.1,8.1,12.1,2.688,0,5.216-.192,5.216-.192.16-1.856-.032-19.488-.032-19.488-1.44,0-4.992-.128-4.992-.128ZM6.9-17.6c-5.7.032-8.224,4.256-8,7.9.128,5.088,3.2,8.16,8.352,8,4.224-.128,7.04-4,6.88-8.288C14.032-12.544,12.688-17.632,6.9-17.6Zm2.464,8c-.1,2.08-1.344,3.52-3.008,3.488C4.368-6.176,3.216-7.68,3.28-10.176A3.129,3.129,0,0,1,6.864-13.5C8.464-13.184,9.456-12,9.36-9.6Zm14.3,6.944a32.767,32.767,0,0,0,.1-4.48c-1.888-.032-2.592-.1-4.576-.1-.1,1.5.032,4.512.032,4.512A36.122,36.122,0,0,0,23.664-2.656Z" transform="translate(77.54 57.48)"/>
    </g>
    <g class="cls-4" transform="matrix(1, 0, 0, 1, 11226.41, 5229.49)">
      <path id="パス_8906-2" data-name="パス 8906" class="cls-3" d="M-12.843-13.64c.88,4.345,3.52,9.955,11.825,10.23,7.26.275,10.89-3.74,11.6-9.02.66-4.785-2.2-8.69-5.775-9.625,3.355-.77,5.5-3.96,5.115-7.975-.55-5.445-5.17-8.69-12.43-8.03-5.225.495-9.46,4.29-8.91,9.57h6.655a3.882,3.882,0,0,1,3.63-3.63,3.555,3.555,0,0,1,4.015,3.96c-.11,1.98-1.815,3.63-6.655,3.575l.275,6.655c3.575-.77,6.6.66,6.765,4.07.11,2.42-1.87,3.8-4.015,3.85A5.149,5.149,0,0,1-6.132-15.9Z" transform="translate(118.1 60.47)"/>
    </g>
    <path id="パス_8652" data-name="パス 8652" class="cls-3" d="M7.474,3.489c.574,2.331-.2,4.341-2.037,5.117-1.881.8-4.5-.04-5.21-3.036C-.711,1.63,1.459.367,2.971.077,4.5-.173,6.609,0,7.474,3.489m-1.922.5c-.3-1.339-.906-2.45-2.39-2.166-1.3.405-1.467,1.622-1.137,3.125.282,1.243,1,2.263,2.2,2.188.888-.072,1.84-.917,1.329-3.147" transform="matrix(1, -0.017, 0.017, 1, 11255.499, 5235.25)"/>
    <path id="パス_8653" data-name="パス 8653" class="cls-3" d="M7.556.311,9.361,0s1.218,7.434,1.413,8.317c0,0-1.859.221-2.426.273,0,0-.632-4.968-.736-5.709,0,0-1.739,2.669-2.215,3.465,0,0-2.252-2.161-3.3-3.232,0,0,.813,4.368,1.119,6.243l-2.111.326S.33,4.286,0,1.349l2.135-.259L5.091,3.782Z" transform="matrix(1, -0.017, 0.017, 1, 11267.703, 5232.238)"/>
    <path id="パス_8654" data-name="パス 8654" class="cls-3" d="M7.5,3.854c.341,2.376-.625,4.3-2.533,4.891C3.018,9.354.5,8.26.082,5.208-.462,1.195,1.822.153,3.354.013,4.9-.085,6.985.3,7.5,3.854m-1.962.3c-.166-1.363-.661-2.528-2.165-2.391-1.339.274-1.62,1.468-1.441,3,.157,1.266.771,2.352,1.971,2.4.892.016,1.923-.731,1.635-3" transform="matrix(1, -0.017, 0.017, 1, 11281.805, 5231.082)"/>
    <path id="パス_8655" data-name="パス 8655" class="cls-3" d="M4.465,2.012l.452,6.379s-1.146.177-2.143.221c0,0-.066-5.869-.124-6.519,0,0-1.933-.081-2.572-.08L0,.254S5.223.021,6.958,0L6.875,1.877s-1.951.142-2.41.135" transform="matrix(1, -0.017, 0.017, 1, 11294.329, 5230.034)"/>
    <path id="パス_8656" data-name="パス 8656" class="cls-3" d="M.042.044s3.3-.12,6.151.036L6.025,1.729s-2.092.192-3.519.245L2.56,3.263s2.189-.095,3.021-.094l-.03,1.815s-2.2-.085-2.966-.128L2.68,6.435a17.151,17.151,0,0,0,3.548-.217L6.059,8.435A57.352,57.352,0,0,1,.128,8.316C-.032,4.007-.019,4.007.042.044" transform="matrix(1, -0.017, 0.017, 1, 11307.36, 5229.599)"/>
    <path id="パス_8657" data-name="パス 8657" class="cls-3" d="M6.041.035S7.574.166,8.2.2c0,0-.3,7.628-.4,8.428,0,0-1.1.029-2.26-.029,0,0-2.836-4.65-3.242-5.405L2.1,8.342S.842,8.349,0,8.266c0,0,.317-5.52.409-8.22L2.284,0S5.527,5.655,5.755,6.346Z" transform="matrix(1, -0.017, 0.017, 1, 11319.48, 5229.713)"/>
    <path id="パス_8658" data-name="パス 8658" class="cls-3" d="M5.177,0C6.5,2.736,8.431,7.441,9.108,9.347c0,0-1.964-.012-2.613-.076,0,0-.3-1.339-.561-2.215,0,0-1.175-.1-2.834-.237L2.076,8.726S.868,8.4,0,8.145A85.413,85.413,0,0,1,5.177,0m.36,4.983c-.3-.908-.758-2.068-.758-2.068L3.725,4.86a17.259,17.259,0,0,0,1.813.122" transform="matrix(1, -0.017, 0.017, 1, 11331.676, 5229.985)"/>
    <path id="パス_8659" data-name="パス 8659" class="cls-3" d="M2.709,8.782A3.172,3.172,0,0,1,0,6.414L1.482,5.369a1.843,1.843,0,0,0,1.362,1.71c.529.119,1.1.061,1.252-.616.351-1.546-2.665-1.7-2.931-3.828A2.347,2.347,0,0,1,3.9.007,2.738,2.738,0,0,1,6.611,2.935l-1.753.012a1.124,1.124,0,0,0-.823-1.381c-.559-.095-1.007.092-1.091.571-.092.448.142.664.523,1.028,2.189,1.606,2.863,2.278,2.6,3.711-.183.967-1.152,2.241-3.358,1.906" transform="matrix(1, -0.017, 0.017, 1, 11345.998, 5231.589)"/>
    <path id="パス_8660" data-name="パス 8660" class="cls-3" d="M6.813,1.3l1.868.419S7.254,8.767,7.116,9.475L5.669,9.293S5.783,7.395,6,6.01c0,0-2.391-.337-3.088-.388L1.936,8.878S.53,8.7,0,8.6C0,8.6,1.4,1.487,1.67,0L3.716.37,3.261,3.656l3.35.5s.1-1.773.2-2.856" transform="matrix(1, -0.017, 0.017, 1, 11357.371, 5232.995)"/>
    <path id="パス_8661" data-name="パス 8661" class="cls-3" d="M0,8.257S1.565,1.713,1.911,0L4.018.552S2.715,6.287,2.207,8.69C1.174,8.475.891,8.408,0,8.257" transform="matrix(1, -0.017, 0.017, 1, 11370.342, 5235.542)"/>
    <path id="パス_8907" data-name="パス 8907" class="cls-3" d="M0,15.712a1,1,0,0,1-.735-.322,1,1,0,0,1,.057-1.413L15.259-.735a1,1,0,0,1,1.413.057A1,1,0,0,1,16.616.735L.678,15.446A1,1,0,0,1,0,15.712Z" transform="translate(11380.806 5233.308)"/>
    <path id="パス_8909" data-name="パス 8909" class="cls-3" d="M0,6.517a1,1,0,0,1-.9-.553A1,1,0,0,1-.447,4.622L10.586-.894a1,1,0,0,1,1.342.447A1,1,0,0,1,11.481.894L.447,6.411A1,1,0,0,1,0,6.517Z" transform="translate(11390 5244.342)"/>
    <path id="パス_8667" data-name="パス 8667" class="cls-3" d="M4474.817-5023.493a1,1,0,0,1-.912-.589,1,1,0,0,1,.5-1.323l1.121-.506a1,1,0,0,1,1.323.5,1,1,0,0,1-.5,1.323l-1.121.506A1,1,0,0,1,4474.817-5023.493Z" transform="translate(6910.934 10276.572)"/>
    <path id="パス_8668" data-name="パス 8668" class="cls-3" d="M4474.818-5023.142a1,1,0,0,1-.8-.4,1,1,0,0,1,.206-1.4l1.153-.857a1,1,0,0,1,1.4.206,1,1,0,0,1-.206,1.4l-1.153.857A1,1,0,0,1,4474.818-5023.142Z" transform="translate(6901.862 10275.535)"/>
    <path id="パス_8908" data-name="パス 8908" class="cls-3" d="M0,15.712a1,1,0,0,1-.735-.322,1,1,0,0,1,.057-1.413L15.259-.735a1,1,0,0,1,1.413.057A1,1,0,0,1,16.616.735L.678,15.446A1,1,0,0,1,0,15.712Z" transform="translate(11380.806 5233.308)"/>
    <path id="パス_8910" data-name="パス 8910" class="cls-3" d="M0,6.517a1,1,0,0,1-.9-.553A1,1,0,0,1-.447,4.622L10.586-.894a1,1,0,0,1,1.342.447A1,1,0,0,1,11.481.894L.447,6.411A1,1,0,0,1,0,6.517Z" transform="translate(11390 5244.342)"/>
    <path id="パス_8669" data-name="パス 8669" class="cls-3" d="M4474.817-5023.493a1,1,0,0,1-.912-.589,1,1,0,0,1,.5-1.323l1.121-.506a1,1,0,0,1,1.323.5,1,1,0,0,1-.5,1.323l-1.121.506A1,1,0,0,1,4474.817-5023.493Z" transform="translate(6910.934 10276.572)"/>
    <path id="パス_8670" data-name="パス 8670" class="cls-3" d="M4474.818-5023.142a1,1,0,0,1-.8-.4,1,1,0,0,1,.206-1.4l1.153-.857a1,1,0,0,1,1.4.206,1,1,0,0,1-.206,1.4l-1.153.857A1,1,0,0,1,4474.818-5023.142Z" transform="translate(6901.862 10275.535)"/>
    <path id="パス_8901" data-name="パス 8901" class="cls-3" d="M15.937,15.712a1,1,0,0,1-.678-.265L-.678.735A1,1,0,0,1-.735-.678,1,1,0,0,1,.678-.735L16.616,13.977a1,1,0,0,1-.679,1.735Z" transform="translate(11232.927 5233.308)"/>
    <path id="パス_8903" data-name="パス 8903" class="cls-3" d="M11.033,6.517a1,1,0,0,1-.446-.106L-.447.894A1,1,0,0,1-.894-.447,1,1,0,0,1,.447-.894L11.481,4.622a1,1,0,0,1-.448,1.895Z" transform="translate(11227.41 5244.342)"/>
    <path id="パス_8671" data-name="パス 8671" class="cls-3" d="M4475.938-5023.493a1,1,0,0,1-.411-.088l-1.121-.506a1,1,0,0,1-.5-1.323,1,1,0,0,1,1.323-.5l1.121.506a1,1,0,0,1,.5,1.323A1,1,0,0,1,4475.938-5023.493Z" transform="translate(6766.754 10276.572)"/>
    <path id="パス_8672" data-name="パス 8672" class="cls-3" d="M4475.969-5023.142a1,1,0,0,1-.6-.2l-1.152-.857a1,1,0,0,1-.205-1.4,1,1,0,0,1,1.4-.205l1.152.857a1,1,0,0,1,.205,1.4A1,1,0,0,1,4475.969-5023.142Z" transform="translate(6777.021 10275.535)"/>
    <path id="パス_8902" data-name="パス 8902" class="cls-3" d="M15.937,15.712a1,1,0,0,1-.678-.265L-.678.735A1,1,0,0,1-.735-.678,1,1,0,0,1,.678-.735L16.616,13.977a1,1,0,0,1-.679,1.735Z" transform="translate(11232.927 5233.308)"/>
    <path id="パス_8904" data-name="パス 8904" class="cls-3" d="M11.033,6.517a1,1,0,0,1-.446-.106L-.447.894A1,1,0,0,1-.894-.447,1,1,0,0,1,.447-.894L11.481,4.622a1,1,0,0,1-.448,1.895Z" transform="translate(11227.41 5244.342)"/>
    <path id="パス_8673" data-name="パス 8673" class="cls-3" d="M4475.938-5023.493a1,1,0,0,1-.411-.088l-1.121-.506a1,1,0,0,1-.5-1.323,1,1,0,0,1,1.323-.5l1.121.506a1,1,0,0,1,.5,1.323A1,1,0,0,1,4475.938-5023.493Z" transform="translate(6766.754 10276.572)"/>
    <path id="パス_8674" data-name="パス 8674" class="cls-3" d="M4475.969-5023.142a1,1,0,0,1-.6-.2l-1.152-.857a1,1,0,0,1-.205-1.4,1,1,0,0,1,1.4-.205l1.152.857a1,1,0,0,1,.205,1.4A1,1,0,0,1,4475.969-5023.142Z" transform="translate(6777.021 10275.535)"/>
  </g>
</svg>
