<svg xmlns="http://www.w3.org/2000/svg" width="244.841" height="215.477" viewBox="0 0 244.841 215.477">
  <defs>
    <style>
      .cls-1 {
        fill: #306e1d;
      }

      .cls-2 {
        fill: #fff;
      }
    </style>
  </defs>
  <g id="グループ_1147" data-name="グループ 1147" transform="translate(-6142.105 9666.584)">
    <path id="image3_3_" data-name="image3 (3)" class="cls-1" d="M109.181,117.16C169.735,92.2,200.2,49.995,182.477,7.254S152.01-33.627,83.22-44.183-28.042,9.868-21.962,53.833,48.627,142.116,109.181,117.16Z" transform="translate(6194.063 -9617.147) rotate(14)"/>
    <path id="パス_8765" data-name="パス 8765" class="cls-2" d="M-56.832-6.936q-2.688.912-2.688,2.688a1.92,1.92,0,0,0,.612,1.368,1.82,1.82,0,0,0,1.308.624,1.023,1.023,0,0,0,.768-.216,1.528,1.528,0,0,0,.192-.936V-6.792Q-56.64-6.984-56.832-6.936Zm-.36,8.016a6.238,6.238,0,0,1-4.26-1.524,4.85,4.85,0,0,1-1.74-3.8,5.245,5.245,0,0,1,1.656-3.768,9.971,9.971,0,0,1,4.7-2.472.241.241,0,0,0,.192-.264V-13.32q0-.192-.216-.192H-60.72a1.314,1.314,0,0,1-.96-.408,1.314,1.314,0,0,1-.408-.96v-.36a1.314,1.314,0,0,1,.408-.96,1.314,1.314,0,0,1,.96-.408h3.864q.216,0,.216-.192v-1.248A1.275,1.275,0,0,1-56.232-19a1.333,1.333,0,0,1,.96-.4h.96a1.293,1.293,0,0,1,.948.4,1.293,1.293,0,0,1,.4.948V-16.8q0,.192.216.192h3.36a1.275,1.275,0,0,1,.948.408,1.333,1.333,0,0,1,.4.96v.36a1.333,1.333,0,0,1-.4.96,1.275,1.275,0,0,1-.948.408h-3.36q-.216,0-.216.192v2.064q0,.192.216.192.144,0,.432-.012t.432-.012a9.073,9.073,0,0,1,5.724,1.7,5.1,5.1,0,0,1,2.2,4.152q0,5.184-5.592,6.384a1.254,1.254,0,0,1-1.02-.2,1.5,1.5,0,0,1-.612-.9L-51.36-.6a1.254,1.254,0,0,1,.168-.984,1.353,1.353,0,0,1,.816-.6q2.64-.672,2.64-2.856a2.163,2.163,0,0,0-1.152-1.812,5.38,5.38,0,0,0-3-.756q-.168,0-.456.012t-.432.012q-.192,0-.192.216v4.2A4.7,4.7,0,0,1-53.88.18,4.7,4.7,0,0,1-57.192,1.08Zm13.08-17.5q1.536,2.3,2.16,3.336a1.3,1.3,0,0,1,.144,1.032,1.249,1.249,0,0,1-.624.816l-.312.168a1.4,1.4,0,0,1-1.044.12,1.332,1.332,0,0,1-.828-.624q-.936-1.512-2.04-3.192a1.282,1.282,0,0,1-.2-1.008,1.312,1.312,0,0,1,.564-.864l.288-.168a1.267,1.267,0,0,1,1.02-.192A1.363,1.363,0,0,1-44.112-16.416Zm9.12,8.808a1.314,1.314,0,0,1-.96-.408,1.314,1.314,0,0,1-.408-.96v-.552a1.314,1.314,0,0,1,.408-.96,1.314,1.314,0,0,1,.96-.408h3.576q.216,0,.216-.192.048-1.368.1-1.992a.17.17,0,0,0-.192-.192H-34.32a1.314,1.314,0,0,1-.96-.408,1.314,1.314,0,0,1-.408-.96v-.552a1.314,1.314,0,0,1,.408-.96,1.314,1.314,0,0,1,.96-.408h3.24q.216,0,.216-.192.024-.336.072-1.056a1.309,1.309,0,0,1,.456-.96,1.378,1.378,0,0,1,1.008-.36l1.176.024a1.263,1.263,0,0,1,.924.444,1.247,1.247,0,0,1,.324.972q-.024.168-.048.456t-.024.456q0,.216.192.216h6.5a1.314,1.314,0,0,1,.96.408,1.314,1.314,0,0,1,.408.96v.552a1.314,1.314,0,0,1-.408.96,1.314,1.314,0,0,1-.96.408H-27a.191.191,0,0,0-.216.216q-.1,1.368-.12,1.944a.191.191,0,0,0,.216.216h5.04a1.314,1.314,0,0,1,.96.408,1.314,1.314,0,0,1,.408.96v.552a1.314,1.314,0,0,1-.408.96,1.314,1.314,0,0,1-.96.408h-5.184q-.216,0-.216.168-.048,1.824-.048,2.4A3.592,3.592,0,0,0-26.9-2.484a4.71,4.71,0,0,0,2.856.564A7.408,7.408,0,0,0-20.6-2.448a2.129,2.129,0,0,0,.852-1.968,3.708,3.708,0,0,0-.072-.672,1.433,1.433,0,0,1,.2-1.044,1.3,1.3,0,0,1,.852-.588l.912-.216a1.341,1.341,0,0,1,1.032.18,1.209,1.209,0,0,1,.576.852,10.962,10.962,0,0,1,.168,1.776A4.978,4.978,0,0,1-17.964.192Q-19.848,1.56-24.048,1.56-28.2,1.56-29.8.132t-1.6-5.172q0-1.512.024-2.4,0-.168-.192-.168Zm26.448-6.144a1.384,1.384,0,0,1-.984-.384,1.264,1.264,0,0,1-.408-.96v-.768a1.293,1.293,0,0,1,.4-.948,1.293,1.293,0,0,1,.948-.4q8.64-.048,17.184-.432a1.269,1.269,0,0,1,.96.36,1.32,1.32,0,0,1,.432.936l.024.768a1.362,1.362,0,0,1-.348,1,1.466,1.466,0,0,1-.948.492,15.1,15.1,0,0,0-7.3,2.376A5.374,5.374,0,0,0-1.032-7.3,4.413,4.413,0,0,0,.48-3.78,5.838,5.838,0,0,0,4.44-2.472a12,12,0,0,0,1.536-.1,1.337,1.337,0,0,1,1,.252,1.239,1.239,0,0,1,.516.876l.12.84A1.4,1.4,0,0,1,7.332.444a1.31,1.31,0,0,1-.924.54,16.137,16.137,0,0,1-2.16.12A10.336,10.336,0,0,1-2.64-1.08,7.24,7.24,0,0,1-5.232-6.912a7,7,0,0,1,1.176-3.78,10.114,10.114,0,0,1,3.24-3.156q.024,0,.024-.048a.021.021,0,0,0-.024-.024Q-4.32-13.8-8.544-13.752ZM27.168-1.56a2.116,2.116,0,0,0,1.656-.528,3.261,3.261,0,0,0,.456-2.04.3.3,0,0,0-.192-.312,4.3,4.3,0,0,0-1.92-.5,2.759,2.759,0,0,0-1.7.444,1.448,1.448,0,0,0-.576,1.212,1.515,1.515,0,0,0,.6,1.26A2.673,2.673,0,0,0,27.168-1.56Zm6-11.448a.17.17,0,0,0-.192.192v6.744a.367.367,0,0,0,.168.312,30.755,30.755,0,0,1,3.192,2.568,1.333,1.333,0,0,1,.432.948,1.284,1.284,0,0,1-.36.972l-.432.48a1.39,1.39,0,0,1-.96.444A1.336,1.336,0,0,1,34.008-.7q-.6-.552-1.152-1.008a.125.125,0,0,0-.132-.024.147.147,0,0,0-.108.1Q31.56,1.512,27.168,1.512a6.7,6.7,0,0,1-4.38-1.3,4.3,4.3,0,0,1-1.572-3.5,4.271,4.271,0,0,1,1.548-3.468,6.722,6.722,0,0,1,4.4-1.284,6.872,6.872,0,0,1,1.92.264q.192.048.192-.144v-7.128a1.3,1.3,0,0,1,.42-.96,1.269,1.269,0,0,1,.972-.384q2.952.072,5.112.312a1.224,1.224,0,0,1,.9.5,1.322,1.322,0,0,1,.276,1.008l-.072.576a1.28,1.28,0,0,1-.516.888,1.311,1.311,0,0,1-1,.264Q34.416-12.96,33.168-13.008ZM16.632-1.872a1.279,1.279,0,0,1-.756-.684,1.29,1.29,0,0,1-.036-1.02q1.632-4.344,3.072-9.36.048-.192-.144-.192H17.28a1.333,1.333,0,0,1-.96-.4,1.275,1.275,0,0,1-.408-.948v-.576A1.275,1.275,0,0,1,16.32-16a1.333,1.333,0,0,1,.96-.4h2.376a.227.227,0,0,0,.24-.192q.288-1.152.432-1.752a1.422,1.422,0,0,1,.6-.888,1.466,1.466,0,0,1,1.056-.264l.768.1a1.2,1.2,0,0,1,.864.516,1.17,1.17,0,0,1,.192.972q-.048.216-.144.66t-.144.66q-.048.192.168.192h2.184a1.333,1.333,0,0,1,.96.4,1.275,1.275,0,0,1,.408.948v.576a1.275,1.275,0,0,1-.408.948,1.333,1.333,0,0,1-.96.4H22.848a.235.235,0,0,0-.24.216A109.339,109.339,0,0,1,19.2-2.424a1.313,1.313,0,0,1-.708.768,1.373,1.373,0,0,1-1.068.048ZM52.368,1.392A9.534,9.534,0,0,1,47.94.552a4.952,4.952,0,0,1-2.292-2.868,17.826,17.826,0,0,1-.72-5.724q0-4.872.24-9.288a1.437,1.437,0,0,1,.456-.96,1.3,1.3,0,0,1,.984-.36l1.272.024a1.28,1.28,0,0,1,.924.432,1.29,1.29,0,0,1,.348.96q-.264,4.7-.264,9.192,0,3.48.756,4.62a3.026,3.026,0,0,0,2.724,1.14,5.34,5.34,0,0,0,3.456-1.272,11.5,11.5,0,0,0,2.88-4.1A1.4,1.4,0,0,1,59.46-8.4,1.387,1.387,0,0,1,60.5-8.424l.936.36a1.269,1.269,0,0,1,.78.708,1.223,1.223,0,0,1-.012,1.044Q58.9,1.392,52.368,1.392ZM-54.576,35.808l-.432-.792A1.226,1.226,0,0,1-55.092,34a1.38,1.38,0,0,1,.66-.8A28.746,28.746,0,0,0-42.384,21.96a.108.108,0,0,0-.012-.108.118.118,0,0,0-.108-.06h-9.648a1.314,1.314,0,0,1-.96-.408,1.314,1.314,0,0,1-.408-.96V19.56a1.314,1.314,0,0,1,.408-.96,1.314,1.314,0,0,1,.96-.408h12.864a1.314,1.314,0,0,1,.96.408,1.314,1.314,0,0,1,.408.96v.864a5.568,5.568,0,0,1-.6,2.568,29.724,29.724,0,0,1-3.648,5.256.18.18,0,0,0,0,.288q2.64,2.328,5.4,4.944a1.25,1.25,0,0,1,.408.948,1.25,1.25,0,0,1-.408.948l-.744.72a1.327,1.327,0,0,1-.972.408,1.369,1.369,0,0,1-.972-.384Q-42,33.648-44.736,31.2a.233.233,0,0,0-.312,0,33.37,33.37,0,0,1-7.632,5.208,1.375,1.375,0,0,1-1.08.084A1.362,1.362,0,0,1-54.576,35.808Zm26.616-7.344-.6-.552A1.293,1.293,0,0,1-29,26.988a1.288,1.288,0,0,1,.324-.972,17.7,17.7,0,0,0,3.888-7.776,1.614,1.614,0,0,1,.576-.948,1.452,1.452,0,0,1,1.008-.348l.96.072a1.348,1.348,0,0,1,.936.456,1.062,1.062,0,0,1,.264.936.883.883,0,0,1-.048.228.883.883,0,0,0-.048.228.145.145,0,0,0,.036.144.172.172,0,0,0,.132.072h9.216a1.333,1.333,0,0,1,.96.4,1.275,1.275,0,0,1,.408.948q-.048,8.088-3.576,12.06t-11.28,4.86a1.336,1.336,0,0,1-1.032-.288,1.446,1.446,0,0,1-.552-.912l-.144-.792a1.234,1.234,0,0,1,.24-1,1.28,1.28,0,0,1,.888-.516q5.64-.768,8.136-3.072.144-.144-.048-.24-1.776-.912-4.464-2.16a1.19,1.19,0,0,1-.66-.756,1.243,1.243,0,0,1,.108-1l.528-.984a1.362,1.362,0,0,1,.8-.684,1.415,1.415,0,0,1,1.068.06q2.952,1.368,4.7,2.256a.163.163,0,0,0,.24-.072,15.726,15.726,0,0,0,.864-4.44.17.17,0,0,0-.192-.192h-7.248a.28.28,0,0,0-.288.192,19.1,19.1,0,0,1-3.7,5.64,1.345,1.345,0,0,1-.96.432A1.378,1.378,0,0,1-27.96,28.464Zm26.4.84a1.314,1.314,0,0,1-.96-.408,1.314,1.314,0,0,1-.408-.96V26.784a1.314,1.314,0,0,1,.408-.96,1.314,1.314,0,0,1,.96-.408H15.72a1.394,1.394,0,0,1,1.368,1.368v1.152A1.394,1.394,0,0,1,15.72,29.3Zm29.52,8.064A1.394,1.394,0,0,1,26.592,36V18.72a1.394,1.394,0,0,1,1.368-1.368h1.368a1.275,1.275,0,0,1,.948.408,1.333,1.333,0,0,1,.4.96v5.04a.247.247,0,0,0,.216.264q5.64,1.392,11.4,3.408a1.373,1.373,0,0,1,.864,1.752l-.384,1.08a1.332,1.332,0,0,1-.672.768,1.3,1.3,0,0,1-1.008.072q-4.92-1.752-10.224-3.12-.192-.048-.192.168V36a1.333,1.333,0,0,1-.4.96,1.275,1.275,0,0,1-.948.408ZM52.32,30.48a1.321,1.321,0,0,1-.972-.4,1.508,1.508,0,0,1-.444-.972l-.48-9.264a1.269,1.269,0,0,1,.36-.96,1.237,1.237,0,0,1,.936-.408h2.16a1.275,1.275,0,0,1,.948.408,1.176,1.176,0,0,1,.348.96l-.456,9.264a1.367,1.367,0,0,1-.444.972,1.4,1.4,0,0,1-1,.4Zm1.2,1.92a1.394,1.394,0,0,1,1.368,1.368v.864A1.394,1.394,0,0,1,53.52,36H52.08a1.394,1.394,0,0,1-1.368-1.368v-.864A1.394,1.394,0,0,1,52.08,32.4Z" transform="translate(6265.025 -9575)"/>
    <path id="パス_8766" data-name="パス 8766" class="cls-2" d="M5.654,7.154a1.5,1.5,0,0,1-1.061-.439L-1.061,1.061a1.5,1.5,0,0,1,0-2.121,1.5,1.5,0,0,1,2.121,0L6.714,4.593A1.5,1.5,0,0,1,5.654,7.154Z" transform="translate(6268.976 -9512.84) rotate(90)"/>
    <path id="パス_8767" data-name="パス 8767" class="cls-2" d="M0,7.154a1.5,1.5,0,0,1-1.061-.439,1.5,1.5,0,0,1,0-2.121L4.593-1.061a1.5,1.5,0,0,1,2.121,0,1.5,1.5,0,0,1,0,2.121L1.061,6.714A1.5,1.5,0,0,1,0,7.154Z" transform="translate(6263.322 -9512.84) rotate(90)"/>
    <path id="パス_8768" data-name="パス 8768" class="cls-2" d="M14.315,1.5H0A1.5,1.5,0,0,1-1.5,0,1.5,1.5,0,0,1,0-1.5H14.315a1.5,1.5,0,0,1,1.5,1.5A1.5,1.5,0,0,1,14.315,1.5Z" transform="translate(6263.321 -9521.5) rotate(90)"/>
  </g>
</svg>
