<svg xmlns="http://www.w3.org/2000/svg" xmlns:xlink="http://www.w3.org/1999/xlink" width="370.116" height="222.829" viewBox="0 0 370.116 222.829">
  <defs>
    <style>
      .cls-1 {
        fill: none;
      }

      .cls-2 {
        fill: #c1dbb9;
      }

      .cls-3 {
        clip-path: url(#clip-path);
      }

      .cls-4 {
        fill: #edbc32;
      }

      .cls-5 {
        fill: #fbe088;
      }

      .cls-6 {
        fill: #d9374b;
      }

      .cls-7 {
        fill: #2f253f;
      }

      .cls-8 {
        clip-path: url(#clip-path-2);
      }

      .cls-9 {
        fill: #282828;
      }

      .cls-10 {
        fill: #fbd8b5;
      }

      .cls-11 {
        fill: #fce952;
      }

      .cls-12 {
        fill: #6b6b6b;
      }

      .cls-13 {
        fill: #4aa3d5;
      }

      .cls-14 {
        fill: #a4cced;
      }
    </style>
    <clipPath id="clip-path">
      <rect id="長方形_904" data-name="長方形 904" class="cls-1" width="148.022" height="128.624"/>
    </clipPath>
    <clipPath id="clip-path-2">
      <rect id="長方形_905" data-name="長方形 905" class="cls-1" width="193.106" height="157.611"/>
    </clipPath>
  </defs>
  <g id="グループ_978" data-name="グループ 978" transform="translate(-152.195 -297.22)">
    <path id="パス_8139" data-name="パス 8139" class="cls-2" d="M.589,44.071c6.088,28.1,44.059,43.866,110,35.633S250.559,23.54,234.452,4.417,164.3,35.779,100.222,14.229-5.5,15.97.589,44.071Z" transform="translate(443.746 520.048) rotate(-171)"/>
    <g id="グループ_943" data-name="グループ 943" transform="translate(152.195 335.866)">
      <g id="グループ_942" data-name="グループ 942" class="cls-3">
        <path id="パス_8080" data-name="パス 8080" class="cls-4" d="M143,12.525c-.524-4.859,8.256-3.449,11.346-3.366s5.445-2.274,9.245.147c1.843,1.174-.011,4.922-3.244,6.79s-5.746,2.879-9.648,2.592-7.517-4.476-7.7-6.163" transform="translate(-18.506 -1.063)"/>
        <path id="パス_8081" data-name="パス 8081" class="cls-5" d="M151.289,129.933c-1.147.5-6.409,1.934-8.3.947-.057-.03-.107-.064-.16-.095a24.258,24.258,0,0,0,7.97-3.633c.966,1.158,1.347,2.412.494,2.781" transform="translate(-18.487 -16.458)"/>
        <path id="パス_8082" data-name="パス 8082" class="cls-5" d="M137.158,117.838a22.911,22.911,0,0,0-1.483-5.015c-.847-1.793-5.641-8.683-10-18.459S115.061,73.826,117.5,69.952c1.5-2.394,5.725-6.683,7.912-7.257,1.352-.354,3.479.792,3.287,2.351-.569,4.644,5.173,35.058,9.738,41.271a66.126,66.126,0,0,1,3.906,6.665,20.56,20.56,0,0,0,4.046,4.787,7.147,7.147,0,0,1,1.061,1.031,24.253,24.253,0,0,1-7.971,3.633c-1.743-1.026-1.97-3.137-2.317-4.6" transform="translate(-15.137 -8.107)"/>
        <path id="パス_8083" data-name="パス 8083" class="cls-5" d="M127.63,137.356a21.936,21.936,0,0,1-6.113.389,29.793,29.793,0,0,0,6.011-3.238c.8,1.295,1.006,2.606.1,2.849" transform="translate(-15.729 -17.41)"/>
        <path id="パス_8084" data-name="パス 8084" class="cls-5" d="M102.4,73.131c1.836-2.15,6.634-5.782,8.88-6.032,1.39-.155,3.328,1.288,2.913,2.8-1.237,4.511.032,35.437,3.648,42.247a62.045,62.045,0,0,1,3.118,6.44c.387,1,1.627,4.5,3.089,6.045a7.2,7.2,0,0,1,.883,1.147,29.817,29.817,0,0,1-6.011,3.238,4.864,4.864,0,0,1-2.24-.657c-1.732-1.251-1.163-6-1.3-7.535-.156-1.776-5.533-12.052-8.428-22.357s-7.523-21.86-4.551-25.34" transform="translate(-13.13 -8.684)"/>
        <path id="パス_8085" data-name="パス 8085" class="cls-5" d="M40.878,143.623c.766,1.1.993,2.2.2,2.517a22.491,22.491,0,0,1-4.87,1.012,12.21,12.21,0,0,0,4.674-3.528" transform="translate(-4.686 -18.59)"/>
        <path id="パス_8086" data-name="パス 8086" class="cls-5" d="M13.741,88.065c10.375-10.393,7.941-11.573,7.695-12.4-.763-2.557-2.14-1.875-7.248-10.466-2.887-4.861-2.064-12.725-.264-19.143,2.009-7.194,8.243-16.386,24.58-18.421s20.7,9.336,32.3,8.077c7.693-.842,23.209,6.6,30.411,4.169A6.11,6.11,0,0,0,104,37.2a20.641,20.641,0,0,0,1.29-2.44A31.739,31.739,0,0,0,108,24.6c-.04-10.759,4.843-13.133,13.632-16.545,5.139-2,10.724-.522,15.174,6.151,3.717,5.577,7.846,11.995,10.413,12.371,2.493.365,2.832,5.76.806,8.491a12,12,0,0,1-8.743,5.053c-5.914.2-9.118-1.968-10.97,1.55a16.541,16.541,0,0,0-1.139,3.306c-.219.844-.439,1.776-.659,2.769-1.031,4.634-2.163,10.6-4.271,15.08-4.1,8.7-.443,12.77-10.457,18.943-10.115,6.229-38.045,6.57-49.888,5.75-8.92-.619-14.394-6.137-23.939,2.164C28.914,97.55,22.3,95.19,23.84,99.024c3.05,7.549,4.283,11.665,6.052,15.338.533,1.106,4.76,8.893,6.385,10.261a7.062,7.062,0,0,1,1.232,1.344,12.2,12.2,0,0,1-4.674,3.528,6.609,6.609,0,0,1-3.46-.34c-1.861-1.05-1.838-3.3-2.321-4.771a56.229,56.229,0,0,0-3.3-7.25C19.836,109.81,13.009,98.688,11,94.888c-1.96-3.709-.19-3.888,2.742-6.823" transform="translate(-1.317 -0.935)"/>
        <path id="パス_8087" data-name="パス 8087" class="cls-5" d="M20.956,40.9c-.891-4.8-9.175-2.149-12.111-1.184s-5.593.6-8.539,4C-1.122,45.37,2.713,45.8,6.345,46.659s5.346,3.743,9,2.35,5.918-6.444,5.609-8.112" transform="translate(0 -4.932)"/>
        <path id="パス_8088" data-name="パス 8088" class="cls-5" d="M127.957,27.683a7.812,7.812,0,0,1-2.7,2.433c-3.484,1.782-5.5-.9-9.2-1.363-2.628-.33-5.324-.432-6.231-1.106,6.176-1.16,12.862-3.376,18.136.036" transform="translate(-14.215 -3.348)"/>
        <path id="パス_8089" data-name="パス 8089" class="cls-5" d="M109.772,26.641c-.372-.275-.451-.643-.091-1.166,2.56-3.708,5.243-3.626,8.056-4.9s10.763-4.812,12.168-.132c.338,1.124-.374,3.988-2,6.238-5.273-3.412-11.96-1.2-18.136-.036" transform="translate(-14.166 -2.341)"/>
        <path id="パス_8090" data-name="パス 8090" class="cls-5" d="M168.182,29.59c-.684-.47-1.166-.526-1.563-.168s-1.127.646-.435,1.112,1.641,1.243,2.482,1.181.5-1.446-.484-2.125" transform="translate(-21.473 -3.778)"/>
        <path id="パス_8091" data-name="パス 8091" class="cls-5" d="M156.829,42.569c.615.663,1.073,1.19.947,2.045s-.465,1.349-.866,1-.4-.957-.694.145-.447,2.241-1.14,1.117-.941-1.951-1.17-1.23-.219,1.519-.754.619-1.03-1.241-.751-2.576,1.055-2.284,2.083-2.359a3.265,3.265,0,0,1,2.344,1.238" transform="translate(-19.716 -5.349)"/>
        <path id="パス_8092" data-name="パス 8092" class="cls-6" d="M117.952,41.294c4.928,3.107,12.744,7.736,17.421,9.5a14.559,14.559,0,0,0,5.087,1.037c.22-.993.44-1.925.66-2.769a11.464,11.464,0,0,1-4.775-.838c-4.268-1.615-11.9-6.081-17.1-9.372a20.624,20.624,0,0,1-1.29,2.439" transform="translate(-15.267 -5.029)"/>
        <path id="パス_8093" data-name="パス 8093" class="cls-4" d="M147.832,58.815a1.255,1.255,0,1,0,1.77-.13,1.254,1.254,0,0,0-1.77.13" transform="translate(-19.095 -7.557)"/>
        <path id="パス_8094" data-name="パス 8094" class="cls-4" d="M147.254,51.781c-.914-1.36-2.36-2.119-3.944-1.262-1.807.977-1.4,3.343-.608,4.553s1.11,3.63.741,4.362.132,1.822,1.883.708,3.929-2.165,5.27-3.108,1.409-1.934.127-2.123-2.837-2.189-3.469-3.129" transform="translate(-18.384 -6.492)"/>
        <path id="パス_8095" data-name="パス 8095" class="cls-5" d="M120.933,3.592c.411.005.891-.02,1.43-.047s1.1-.041,1.715-.031h.006a11.024,11.024,0,0,1,3.561.6,7.987,7.987,0,0,1,.96.42,8.435,8.435,0,0,1,2.4,1.859c.013.016.032.036.045.05.135.15.264.3.387.441,1.714,2.008,2.122,3.124,4.1,2.844,1.847-.265,5.447-2.172,4.072-3.9a11.673,11.673,0,0,0-1.712-1.711c-.222-.188-.45-.372-.693-.547a19.629,19.629,0,0,0-4.373-2.44c-.326-.131-.657-.252-.987-.362A11.972,11.972,0,0,0,126.3.1c-.06.008-.114.019-.173.032-.419.068-.824.156-1.211.259-3.7.966-5.99,3.17-3.985,3.2" transform="translate(-15.557 0)"/>
        <path id="パス_8096" data-name="パス 8096" class="cls-4" d="M132.667,6.977c.135.15.264.3.387.441a15.313,15.313,0,0,0,4.177-1.352,11.72,11.72,0,0,0,2.279-1.414c-.223-.19-.45-.373-.694-.548a10.309,10.309,0,0,1-2.5,1.636,14.492,14.492,0,0,1-3.648,1.237" transform="translate(-17.172 -0.531)"/>
        <path id="パス_8097" data-name="パス 8097" class="cls-4" d="M128.755,4.231a8,8,0,0,1,.961.42,14.523,14.523,0,0,0,4.221-3.4c-.326-.132-.657-.252-.986-.362a14.355,14.355,0,0,1-4.2,3.345" transform="translate(-16.665 -0.115)"/>
        <path id="パス_8098" data-name="パス 8098" class="cls-4" d="M122.688,3.564c.523-.019,1.1-.04,1.715-.031h0a3.654,3.654,0,0,0,1.2-1.167,10.5,10.5,0,0,0,.817-2.118.609.609,0,0,0,.027-.1c-.418.068-.824.156-1.211.259a9.251,9.251,0,0,1-.607,1.527,3.959,3.959,0,0,1-1.509,1.359c-.145.09-.293.185-.438.27" transform="translate(-15.88 -0.019)"/>
        <path id="パス_8099" data-name="パス 8099" class="cls-5" d="M110.224,11.514c.925-.191,2.192-.666,3.669-.93a10.4,10.4,0,0,1,1.229-.151,8.438,8.438,0,0,1,3.131.351,6.8,6.8,0,0,1,.949.367,8.759,8.759,0,0,1,1.645.981c.3.224.574.434.824.625s.485.385.7.559c2.732,2.173,2.868,2.65,4.373,2.167,2.135-.683,5.334-3.6,2.3-5.808a15.968,15.968,0,0,0-2.817-1.6c-.312-.145-.628-.278-.953-.4a22.782,22.782,0,0,0-3.108-.975c-.348-.079-.706-.151-1.058-.214a15.465,15.465,0,0,0-4.472-.21,8.689,8.689,0,0,0-1.194.212,7.372,7.372,0,0,0-1.025.33c-4.137,1.685-6.386,5.154-4.191,4.7" transform="translate(-14.156 -0.802)"/>
        <path id="パス_8100" data-name="パス 8100" class="cls-4" d="M123.5,12.978c.252.2.485.385.7.558A17.182,17.182,0,0,0,128.053,8.3c-.312-.145-.627-.279-.953-.406a18.394,18.394,0,0,1-3.6,5.086" transform="translate(-15.985 -1.022)"/>
        <path id="パス_8101" data-name="パス 8101" class="cls-4" d="M119.574,10.827a6.691,6.691,0,0,1,.949.367,16.443,16.443,0,0,0,2.962-4.454c-.348-.079-.706-.152-1.058-.215a16.228,16.228,0,0,1-2.853,4.3" transform="translate(-15.477 -0.845)"/>
        <path id="パス_8102" data-name="パス 8102" class="cls-4" d="M114.565,10.6a10.223,10.223,0,0,1,1.229-.15,26.24,26.24,0,0,0,1.511-4.16,8.7,8.7,0,0,0-1.194.212,25.78,25.78,0,0,1-1.547,4.1" transform="translate(-14.829 -0.814)"/>
        <path id="パス_8103" data-name="パス 8103" class="cls-5" d="M59.41,138.311c-.981.442-4.994,1.628-7.311,1.34,2.35-1.03,4.231-2.782,6.513-4.4,1.169,1.212,1.718,2.643.8,3.057" transform="translate(-6.743 -17.507)"/>
        <path id="パス_8104" data-name="パス 8104" class="cls-5" d="M45.192,125.906c-.44-1.727-7.906-10.988-12.654-20.581-4.847-9.793-8.636-11.131-6.264-15.043,1.466-2.418,10.391-4.293,11.064-2.875,2.109,4.449,4.222,23.4,8.887,29.538a62.241,62.241,0,0,1,4.113,5.854c.542.921,2.331,4.182,4.021,5.47a7.4,7.4,0,0,1,.817.729c-2.283,1.615-4.163,3.367-6.514,4.4a3.046,3.046,0,0,1-.977-.26c-1.91-.957-2.112-5.731-2.493-7.228" transform="translate(-3.307 -11.25)"/>
        <path id="パス_8105" data-name="パス 8105" class="cls-7" d="M149.924,29.673c1.021-.608,1.382-1.2,1.155-1.931s-.165-1.853-1.186-1.233-2.6,1.389-3.023,2.519,1.577,1.523,3.054.645" transform="translate(-19.003 -3.408)"/>
      </g>
    </g>
    <g id="グループ_945" data-name="グループ 945" transform="translate(310.442 297.22)">
      <g id="グループ_944" data-name="グループ 944" class="cls-8">
        <path id="パス_8106" data-name="パス 8106" class="cls-9" d="M15.7,130.772c2.487.766,5.088,2.927,3.844,6.083s-2.316,6.637-6.467,8.626-7.786,1.414-11.458-.806-.5-3.692,3.5-5.183a20.3,20.3,0,0,0,10.58-8.721" transform="translate(0 10.912)"/>
        <path id="パス_8107" data-name="パス 8107" class="cls-10" d="M46.515,77.411s-14.792-2.968-15.3-1.872c-.252.546-4.74,17.208-9.068,31.279-4.365,14.184-8.7,29.918-9.284,31.069-.679,1.328.777,3.764,4.225,3.217a2.649,2.649,0,0,0,1.58-1.125c.207-.324,6.483-15.03,11.915-27.8,5.761-13.547,16.058-33.821,15.93-34.766" transform="translate(1.06 6.283)"/>
        <path id="パス_8108" data-name="パス 8108" class="cls-10" d="M56.516,93.939c2.131-3.49,8.7-14.063,8.837-14.865s1.3-3.429-.853-4.258c-2.494-.96-1.08-1.7-4.271,1.491-4.164,4.16-12.08,11.924-12.567,14.314s5.967,7.506,8.854,3.318" transform="translate(3.975 6.174)"/>
        <path id="パス_8109" data-name="パス 8109" class="cls-9" d="M66.23,75.746c1.364-.507.8-.417,3.264-.376s6.022-1.168,4.58-3.361a5.622,5.622,0,0,0-7.867-1.664c-2.58,1.769-6.247.157-6.391,3.244s.717,3.412,2.751,3.84,2.226-.182,3.663-1.683" transform="translate(4.99 5.79)"/>
        <path id="パス_8110" data-name="パス 8110" class="cls-10" d="M38.81,86.263c-4.266,5.6-6.269,17.205-5.805,19.386s.393,4.821,3.081,6.272,4.956,1.5,7.412-.011a23.161,23.161,0,0,0,7.513-7.268c2.324-3.549,6.449-9.134,6.326-11.716S40.792,83.25,38.81,86.263" transform="translate(2.749 7.137)"/>
        <path id="パス_8111" data-name="パス 8111" class="cls-10" d="M45.183,29.7c1.09.718,3.97,1.3,4.9.809-1.994,6.887,6.562,7.431,4.04,12.81-1.68,5.023-5.83,7.983-9.445,7.171a9.9,9.9,0,0,1-7.572-10.239c.638-3.86,9.621-6.235,8.074-10.552" transform="translate(3.096 2.478)"/>
        <path id="パス_8112" data-name="パス 8112" class="cls-10" d="M53.363,40.568c.5-1.2,6.392-2.815,9.013-5.513,6.351-6.535,16.5-17.272,16.887-17.725.549-.639.1-2.7.441-3.6A1.806,1.806,0,0,1,81.469,12.3c1.009-.053.38-1.661,1.278-2.258s1.556-1.165,2.087-.687a1.967,1.967,0,0,0,1.407.525c.581.072,1.634.612,1.627,1.142a1.121,1.121,0,0,0,.867,1.107,1.663,1.663,0,0,1,.859,1.636,3.766,3.766,0,0,0-.081,2.111,2.889,2.889,0,0,1-.452,2.242,2.281,2.281,0,0,1-2.541,1.515c-1.763-.038-4.359,0-4.945.455-.453.354-11.462,15.862-16.975,22.164-2.2,2.517-4.685,4.8-7.02,2.057a33.656,33.656,0,0,0-4.218-3.74" transform="translate(4.453 0.766)"/>
        <path id="パス_8113" data-name="パス 8113" class="cls-10" d="M39.984,37.593c-3.578-3.267-3.984-5.6-5.076-7.906-4.32-9.114-11.1-21.364-11.35-21.7-.4-.535.6-3.048.777-3.667s.057-2.169-1.285-2.36a3.266,3.266,0,0,1-2.174-.909C20.39.617,19.886-.192,18.973.04s-.648.366-.911.657-.529.156-1.139.169-.686.719-.852,1.1S15,2.091,14.819,2.1a1.808,1.808,0,0,0-.689,1.386c.013.611-.8.93-.354,2.147a4.616,4.616,0,0,0,1.148,2.2,11.3,11.3,0,0,0,4.089,2.533c.48.133,2.986,5.9,5.67,12.28,2.265,5.383,4.995,13.272,6.4,16.5.638,1.466,6.39,14.164,6.517,14.272.295.252,5.756-3.126,7.277-3.075,2.647.088.185-9.85-4.894-12.747" transform="translate(1.138 0)"/>
        <path id="パス_8114" data-name="パス 8114" class="cls-9" d="M41.045,15.91c-2.152,5.242-8.05,4.3-7.215,7.828s5.27,3.391,7.686,3.554,3.217-9.856,5.466-12.023Z" transform="translate(2.816 1.274)"/>
        <path id="パス_8115" data-name="パス 8115" class="cls-10" d="M41.009,27.632a8.743,8.743,0,0,0,6,5.78,8.742,8.742,0,0,0,7.822-2.878c5.052-5.271,7.83-18.943-2.775-21.169S38.5,20.774,41.009,27.632" transform="translate(3.352 0.761)"/>
        <path id="パス_8116" data-name="パス 8116" class="cls-9" d="M54.411,7.06c-1.215-.28-4.947-1.053-6.835.368s-5.793,5.267-6.334,6.989-1.038,2.35-.923,2.6,6.611-1.5,9.881.8c1.678.624,3.685,2.628,5.179,5.39,1.3,2.4-2.814,5.83.977,7.364.979.4,4.7,3.107,6.84-1.931.716-1.684-.843-8.61-1.488-12.34a14.3,14.3,0,0,0-4.164-7.7A9.014,9.014,0,0,0,54.411,7.06" transform="translate(3.363 0.551)"/>
        <path id="パス_8117" data-name="パス 8117" class="cls-11" d="M57.553,15.894c.731-.768,1.624-1.091,1.86-.179a19.65,19.65,0,0,1,.594,3.034c0,.514-.012,1.15-1.348.576a6.178,6.178,0,0,0-2.233-.673c-.748-.1-.693.005-1.417,1.074s-1.245,1.971-1.848,1.835-.932-.785-1.251-2.07-.944-2.442-.04-2.314a11.615,11.615,0,0,1,2.4.6,1.578,1.578,0,0,0,1.714-.3,12.15,12.15,0,0,0,1.571-1.592" transform="translate(4.289 1.265)"/>
        <path id="パス_8118" data-name="パス 8118" class="cls-4" d="M55.378,16.68a1.139,1.139,0,0,1,.991,1.043c.159.84.125,1.36-.135,1.54-.492.337-.607.257-1.076-.09s-.569-.777-.53-1.54.313-.885.75-.953" transform="translate(4.558 1.392)"/>
        <path id="パス_8119" data-name="パス 8119" class="cls-12" d="M26.263,69.238a124.043,124.043,0,0,0,4.4-14.65c.248-1.433,1.721-6.886,1.731-9.735,0-.923-2.9-6.526-4.427-8.4-1.686-2.068,4.427-5.085,6.511-6.471,2.148-1.429,4.383-.113,5.781,1.7A31.655,31.655,0,0,0,44.8,36.387c1.758,1.517,5.559-.031,6.418-.577,3.161-2.008,12.232-4.591,13.873-3.95,4.082,1.667,9.2,7.209,5.912,9.141-6.637,3.9-8.121,2.741-9.932,10.209-.758,3.129-8.32,19.821-9.161,23.007C44.465,76.336,24.4,73.05,26.263,69.238" transform="translate(2.181 2.451)"/>
        <path id="パス_8120" data-name="パス 8120" class="cls-13" d="M12.246,95.594c.416-1.4,3.887-7.755,5.429-12.823S25.238,66.9,27.205,64.8c1.683-1.8,19.555,1.847,19.987,1.816,7.262-.532,7.89,4.624,7.915,6.008.027,1.542,9.016,25.8,10.1,30.771s-1.035,4.559-3.586,3.37-7.814-.463-9.768.278a14.83,14.83,0,0,1-7.035.791c-2.262-.374-6.19-2.62-10.539-5.289s-10.712.28-12.911.116c-3.271-.245-4.6-.7-6.323-1.814-2.345-1.516-3.75-2.038-2.8-5.251" transform="translate(0.997 5.365)"/>
        <path id="パス_8121" data-name="パス 8121" class="cls-9" d="M69.821,135.82c-.553.2-1.147.406-1.739.6-2.937.979-5,.6-5.295,2.409-.243,1.473,1.352,5.114,4.953,4.563,2.859-.438,7.73-2.385,9.323-4.806-2.949.442-5.9.2-7.243-2.769" transform="translate(5.237 11.333)"/>
        <path id="パス_8122" data-name="パス 8122" class="cls-10" d="M106.505,106.9c-10.029-.689-13.17-1.494-18.4,6.452-2.09,3.174-11.889,18.888-11.889,18.888-2.238,4.288-4.672,5.154-4.672,5.154-.421.19-1.274.519-2.267.875,1.345,2.974,4.294,3.211,7.243,2.769a3.584,3.584,0,0,0,.336-.616c.159-.4.3-.749.425-1.073,0,0,13.845-14.493,19.362-19.52,2.184-1.991,17.332,1.816,19.754.613,6.232-4.285,4.412-11.59-9.892-13.542" transform="translate(5.781 8.885)"/>
        <path id="パス_8123" data-name="パス 8123" class="cls-10" d="M139.218,118.776c-3.756,5.547-13.958,10.024-15.426,18.955a5.432,5.432,0,0,0,3.257,5.8c2.63,1.236,4.787,1.165,7.039-.4a22.045,22.045,0,0,0,6.753-7.3c2.021-3.494,4.8-9.115,6.1-11.2,1.517-2.43-6-8.816-7.725-5.851" transform="translate(10.324 9.847)"/>
        <path id="パス_8124" data-name="パス 8124" class="cls-10" d="M145.888,125.355a54.772,54.772,0,0,0,4.678-10.82c.141-.827,1.36-3.53-.856-4.4-2.568-1-1.106-1.758-4.414,1.515-4.318,4.27-8.375,8.678-8.89,11.141s6.48,6.867,9.481,2.561" transform="translate(11.38 9.119)"/>
        <path id="パス_8125" data-name="パス 8125" class="cls-9" d="M151.805,111.108c1.411-.516.828-.426,3.368-.371s6.219-1.172,4.743-3.441a5.8,5.8,0,0,0-8.106-1.761c-2.671,1.812-6.445.129-6.61,3.313s.722,3.523,2.817,3.974,2.3-.174,3.788-1.715" transform="translate(12.114 8.725)"/>
        <path id="パス_8126" data-name="パス 8126" class="cls-10" d="M131.66,66.488c1.12.746,4.088,1.359,5.054.861-2.093,7.094,6.73,7.7,4.1,13.235-1.761,5.172-6.058,8.2-9.781,7.347a10.215,10.215,0,0,1-7.756-10.6c.678-3.978,9.958-6.38,8.385-10.841" transform="translate(10.286 5.548)"/>
        <path id="パス_8127" data-name="パス 8127" class="cls-10" d="M141.025,76.072c.661-1.164,6.9-2.063,9.933-4.489,7.336-5.877,19.1-15.569,19.553-15.983.645-.584.442-2.749.911-3.626a1.863,1.863,0,0,1,1.991-1.241c1.039.074.6-1.652,1.6-2.148s1.741-.992,2.223-.436a2.031,2.031,0,0,0,1.375.718c.584.146,1.593.835,1.518,1.376a1.158,1.158,0,0,0,.745,1.245,1.72,1.72,0,0,1,.672,1.786,3.873,3.873,0,0,0-.355,2.15,2.98,2.98,0,0,1-.749,2.237,2.356,2.356,0,0,1-2.8,1.224c-1.8-.265-4.461-.561-5.118-.167-.509.3-11.99,15.382-18.439,21.126-2.578,2.295-14.715,10.018-14.8,10.111-.215.25-2.243-2.267-.856-5.716.7-1.733,2.589-8.167,2.589-8.167" transform="translate(11.511 3.997)"/>
        <path id="パス_8128" data-name="パス 8128" class="cls-10" d="M126.252,74.607c-3.673-3.389-4.079-5.8-5.193-8.182-4.407-9.425-11.34-22.1-11.593-22.444-.407-.554.64-3.14.821-3.779s.07-2.236-1.313-2.441a3.372,3.372,0,0,1-2.238-.949c-.5-.454-1.013-1.29-1.957-1.056s-.671.374-.944.673-.546.158-1.176.168-.711.738-.884,1.128-1.1.127-1.293.135a1.863,1.863,0,0,0-.718,1.426c.01.629-.834.955-.377,2.212a4.772,4.772,0,0,0,1.172,2.276,11.674,11.674,0,0,0,4.2,2.635c.5.14,3.049,6.105,5.782,12.7,2.308,5.565,5.081,13.717,6.515,17.05.651,1.516,6.516,14.646,6.646,14.758.3.262,5.955-3.193,7.523-3.132,2.73.1.245-10.159-4.98-13.176" transform="translate(8.282 2.98)"/>
        <path id="パス_8129" data-name="パス 8129" class="cls-9" d="M138.82,106.9c.143.471,4.476,7.086,2.542,15.7-1.84,8.194,1.781,17.052.127,18.089-2,1.255-16.256-.362-16.676-1.283-1.633-3.58-1.358-11.137-5.549-14.436-5.924-4.661-15.4-2.418-18.982-3.856-1.08-.433-2.672-15.856-.962-16.186,6.8-1.307,17.4,1,20.146,1.884,1.508.484,19.356.086,19.356.086" transform="translate(8.225 8.723)"/>
        <path id="パス_8130" data-name="パス 8130" class="cls-10" d="M141.906,69.82a8.77,8.77,0,0,1-14.791-5.5c-1.631-7.99,3.9-22.562,15.24-18.342s6.007,18.859-.449,23.843" transform="translate(10.583 3.774)"/>
        <path id="パス_8131" data-name="パス 8131" class="cls-9" d="M135.145,45.973c1.105-.583.473-1.6,2.966-.51s7.392,2.27,8.322,3.113,3.014,8.593,1.7,11.267c-1.018,2.066,3.023,3.923-.4,5.357-1.111.466,1.865,1.776-.23,2.8-1.31.641-5.1-.05-4.945-1.568s.82-3.442.074-3.76c-1.634-.7-1.581-2.433-1.2-4.116s-1.287-4.112-2.727-4.695a38.478,38.478,0,0,1-4.455-1.612c-1.883-.949-4.208-1.351-3.885-2.887s3.143-2.258,4.783-3.388" transform="translate(10.875 3.753)"/>
        <path id="パス_8132" data-name="パス 8132" class="cls-12" d="M128.864,51.424s13.817,7.627,15.7,9.131,8.059,6.191,8.775,6.722,1.692-.189,1.041-1.143-4.432-3.227-4.994-4a2.321,2.321,0,0,1-.529-2.693c.527-1.385,2.094-3.689,1.7-5.893s-3-6.244-4.744-7.035a27.218,27.218,0,0,0-7.59-2.183c-2.184-.12-6.85,2.359-9.361,7.1" transform="translate(10.753 3.698)"/>
        <path id="パス_8133" data-name="パス 8133" class="cls-14" d="M113.122,108.134a128.232,128.232,0,0,0,4.618-15.089c.263-1.477,1.812-7.094,1.839-10.033.009-.952-2.955-6.747-4.521-8.689-1.729-2.142,4.594-5.22,6.751-6.64,2.223-1.463,4.521-.092,5.955,1.782a32.616,32.616,0,0,0,4.66,4.881c1.806,1.574,5.735,0,6.624-.561,3.272-2.055,12.643-4.669,14.332-4,4.2,1.743,9.453,7.487,6.051,9.462-6.869,3.986-8.393,2.783-10.3,10.478-.8,3.223-8.689,20.4-9.572,23.684-7.7,2.146-28.382-1.351-26.434-5.273" transform="translate(9.429 5.596)"/>
      </g>
    </g>
    <g id="グループ_949" data-name="グループ 949" transform="translate(447.857 299.822)">
      <g id="グループ_950" data-name="グループ 950" transform="translate(0 0)">
        <path id="パス_8145" data-name="パス 8145" class="cls-9" d="M22.511,60.044c.206-1.816-.852-2.023-1.975-2.218-2.21-.385-4.409-.849-6.624-1.2a15.459,15.459,0,0,0-2.448-.016c-.2,3.673-.4,7.172-.591,10.671-.183,3.442-1.033,6.858-.737,10.449,3.771-1.321,7.117.629,11.143.366-2.8-3.139-6.79-1.267-9.623-3.648.183-2.141.385-4.518.606-7.119l7.675,1.537c-.087-.546-.05-1.139-.212-1.2-2.241-.841-4.509-1.609-7.231-2.554.194-2.205.387-4.4.6-6.787l9.421,1.713" transform="translate(-10.073 -56.569)"/>
        <path id="パス_8146" data-name="パス 8146" class="cls-9" d="M62.276,98.452c5.248-4.535,7.69-10.774,10.11-17,.094-.241-.371-.7-.668-1.218-1.98,2.335-1.858,5.586-4.624,7.832-.39-2.743-.834-5.037-.993-7.351-.077-1.122-.1-1.913-2.193-1.907.651,3.8,1.273,7.345,1.855,10.9.1.633.321,1.5.017,1.906a60.588,60.588,0,0,1-4.516,5.361c-.739.775-2.586,1.165-1.569,2.479.893,1.154,1.869-.379,2.581-.993" transform="translate(-16.457 -59.447)"/>
        <path id="パス_8147" data-name="パス 8147" class="cls-9" d="M53.9,88.591a3.743,3.743,0,0,0,2.4-1.79,28.694,28.694,0,0,0,1.057-5.118l-.165-.051a26.649,26.649,0,0,0-.213-3.8,3.212,3.212,0,0,0-2.588-2.869c-1.483-.242-2.364.755-3.051,1.874-2.039,3.323-1.5,6.774-.3,10.178A2.438,2.438,0,0,0,53.9,88.591M53.758,76.66c.188-.146.555-.063.965-.095a27.549,27.549,0,0,1,.938,4.523,14,14,0,0,1-.568,4.58,1.576,1.576,0,0,1-2.817.243c-1.388-1.957-.483-7.724,1.482-9.251" transform="translate(-15.237 -58.946)"/>
        <path id="パス_8148" data-name="パス 8148" class="cls-9" d="M36.01,93.037c3.8,3.11,5.025,2.542,6.315-1.824a4.835,4.835,0,0,0,.232-.851q.746-7.28,1.47-14.561l-.73-.078a3.722,3.722,0,0,0-1.161,3.027c-.192,2.838-.287,5.688-.618,8.511A10.869,10.869,0,0,1,39.139,93.5l-5.081-4.665c-.65,2.327.886,3.333,1.952,4.2" transform="translate(-13.157 -59.048)"/>
        <path id="パス_8149" data-name="パス 8149" class="cls-9" d="M36.307,74.237a6.181,6.181,0,0,1,.116,3.4A27.728,27.728,0,0,1,34.789,81.8c.867-.214,1.6-.178,1.769-.472a8.846,8.846,0,0,0,1.116-7.317c-1.03-3.273-3.622-3.856-6.146-1.56a7.032,7.032,0,0,1-.97.619c-.131-2.3-.131-2.3-.815-3.536-.878,2.552-1.026,8.882.008,11.617a35.137,35.137,0,0,1,.977-3.429,19,19,0,0,1,1.9-3.9,2.016,2.016,0,0,1,3.682.412" transform="translate(-12.526 -58.247)"/>
        <path id="パス_8150" data-name="パス 8150" class="cls-9" d="M90.267,94.22c.857-2.2,1.667-4.415,2.578-6.592,2.225-5.316,2.243-5.309,1.468-7.258a2.271,2.271,0,0,0-.716,1.16c-1.444,3.717-2.909,7.427-4.306,11.162-.138.368.132.889.213,1.339l.763.188" transform="translate(-20.321 -59.65)"/>
        <path id="パス_8151" data-name="パス 8151" class="cls-9" d="M85.04,76.911c-.555,4.1-1.133,8.2-1.619,12.308-.034.282.593.642,1.026,1.081,1-3.447,1.751-11.78,1.268-13.294l-.676-.1" transform="translate(-19.566 -59.202)"/>
        <path id="パス_8152" data-name="パス 8152" class="cls-9" d="M46.017,69.146a5.446,5.446,0,0,0-2.371-5.093c-.024,2.09.509,3.912,2.371,5.093" transform="translate(-14.418 -57.538)"/>
        <path id="パス_8153" data-name="パス 8153" class="cls-9" d="M81.988,98.793c1.348-1.264,1.059-2.314.35-3.655-1.284,1.11-1.515,2.1-.35,3.655" transform="translate(-19.283 -61.561)"/>
      </g>
    </g>
  </g>
</svg>
