<svg xmlns="http://www.w3.org/2000/svg" width="34.618" height="34.61" viewBox="0 0 34.618 34.61">
  <defs>
    <style>
      .cls-1 {
        fill: #fff;
      }
    </style>
  </defs>
  <path id="Icon_awesome-instagram" data-name="Icon awesome-instagram" class="cls-1" d="M17.308,10.669a8.874,8.874,0,1,0,8.874,8.874A8.86,8.86,0,0,0,17.308,10.669Zm0,14.643a5.769,5.769,0,1,1,5.769-5.769,5.78,5.78,0,0,1-5.769,5.769ZM28.614,10.306a2.07,2.07,0,1,1-2.07-2.07A2.065,2.065,0,0,1,28.614,10.306Zm5.877,2.1c-.131-2.773-.765-5.228-2.8-7.252s-4.479-2.657-7.252-2.8c-2.857-.162-11.422-.162-14.28,0A10.3,10.3,0,0,0,2.912,5.147C.881,7.171.255,9.627.116,12.4c-.162,2.857-.162,11.422,0,14.28.131,2.773.765,5.228,2.8,7.252s4.479,2.657,7.252,2.8c2.857.162,11.422.162,14.28,0,2.773-.131,5.228-.765,7.252-2.8s2.657-4.479,2.8-7.252c.162-2.857.162-11.415,0-14.272ZM30.8,29.745a5.841,5.841,0,0,1-3.29,3.29c-2.278.9-7.684.7-10.2.7s-7.931.2-10.2-.7a5.841,5.841,0,0,1-3.29-3.29c-.9-2.278-.7-7.684-.7-10.2s-.2-7.931.7-10.2a5.841,5.841,0,0,1,3.29-3.29c2.278-.9,7.684-.7,10.2-.7s7.931-.2,10.2.7a5.841,5.841,0,0,1,3.29,3.29c.9,2.278.7,7.684.7,10.2S31.7,27.474,30.8,29.745Z" transform="translate(0.005 -2.238)"/>
</svg>
