<svg xmlns="http://www.w3.org/2000/svg" xmlns:xlink="http://www.w3.org/1999/xlink" width="198.102" height="60.418" viewBox="0 0 198.102 60.418">
  <defs>
    <style>
      .cls-1, .cls-5 {
        fill: #306e1d;
      }

      .cls-2 {
        clip-path: url(#clip-path);
      }

      .cls-3 {
        clip-path: url(#clip-path-2);
      }

      .cls-4 {
        clip-path: url(#clip-path-3);
      }

      .cls-5 {
        fill-rule: evenodd;
      }

      .cls-6 {
        fill: #fff;
      }
    </style>
    <clipPath id="clip-path">
      <path id="パス_6381" data-name="パス 6381" class="cls-1" d="M27.7,39.2c-.048.093-.087.192-.136.288-.013.036-.028.076-.043.112-.464,2.64-.75,2.777-.53,5.444a38.171,38.171,0,0,0,.836,5.268,15.414,15.414,0,0,1-6.6,4.549c-.007.1-.008.209-.018.318.01.017.018.037.028.054a2.54,2.54,0,0,1,.409.615c1-.343,1.984-.7,2.93-1.113,0,.02,0,.04,0,.059a8.648,8.648,0,0,1,1.076-.4,2.948,2.948,0,0,1,1.052-.419c.283-.048.562-.09.838-.127a4.169,4.169,0,0,1,.993-.127c.1,0,.188.017.281.023.058,0,.119,0,.18,0,.129-.009.257-.026.393-.026a4.091,4.091,0,0,1,.9.116c.135.02.264.028.4.053.163.031.32.076.483.122a72.6,72.6,0,0,1,9.632,2.2c2.894.716,6.017.965,8.165-1.569a3.939,3.939,0,0,0,.761-4.5,8.214,8.214,0,0,0-1.176-3.321c-.048-.073-.01-.028.035.018s.1.09.082.019a9.456,9.456,0,0,0-6.8-2.087,4.079,4.079,0,0,1,1.53,1.875,11.054,11.054,0,0,1,.92,2.412,3.382,3.382,0,0,0,2.8,2c.577.087,1.137.216,1.693.356a3.776,3.776,0,0,1-3.778,4.134c-.073,0-.146-.008-.218-.014-.051,0-.1.014-.146.014a3.7,3.7,0,0,1-1.374-.25,4.619,4.619,0,0,1-.592-.044.782.782,0,0,0-.082-.016,4.353,4.353,0,0,1-.538-.127,3.7,3.7,0,0,1-.6-.167,26.049,26.049,0,0,1-6-1.6A28.1,28.1,0,0,0,28.8,51.9c.137-.143.273-.286.4-.441a21.785,21.785,0,0,0,7.789-5.538,14.36,14.36,0,0,0,2.9-6.581c.066-1.328.182-2.638.363-3.94a12.724,12.724,0,0,1,1.184-5.384c.048-.159.105-.314.164-.469C35.9,30.981,30.417,34.14,27.7,39.2" transform="translate(-21.207 -29.551)"/>
    </clipPath>
    <clipPath id="clip-path-2">
      <path id="パス_6382" data-name="パス 6382" class="cls-1" d="M26.421,2.933A23.513,23.513,0,0,1,49.864,25.066L28.572,8.6,27.534,7.562l-.135.132-.174-.132L26.186,8.91l-6.841,6.839,2.182,2.176,6.136-6.135,22.113,17.1A23.487,23.487,0,0,1,3.2,29.936L14.682,18.452l3.8,3.8,2.181-2.18L14.8,14.211l-.119.116-.115-.116L2.949,25.825A23.512,23.512,0,0,1,26.421,2.933m0-2.933A26.422,26.422,0,1,0,52.812,27.591l.118-.155-.112-.091c.012-.308.02-.615.02-.929A26.449,26.449,0,0,0,26.421,0Z"/>
    </clipPath>
    <clipPath id="clip-path-3">
      <rect id="長方形_635" data-name="長方形 635" class="cls-1" width="131.365" height="60.418"/>
    </clipPath>
  </defs>
  <g id="グループ_844" data-name="グループ 844" transform="translate(-200.98 -21.961)">
    <g id="グループ_644" data-name="グループ 644" transform="translate(200.98 25.748)">
      <g id="グループ_641" data-name="グループ 641" transform="translate(12.752 17.77)">
        <g id="グループ_640" data-name="グループ 640" class="cls-2">
          <rect id="長方形_636" data-name="長方形 636" class="cls-1" width="29.182" height="27.631" transform="translate(0 0)"/>
        </g>
      </g>
      <g id="グループ_643" data-name="グループ 643" transform="translate(0 0)">
        <g id="グループ_642" data-name="グループ 642" class="cls-3">
          <rect id="長方形_637" data-name="長方形 637" class="cls-1" width="52.93" height="52.844" transform="translate(0 0)"/>
        </g>
      </g>
    </g>
    <g id="グループ_639" data-name="グループ 639" transform="translate(267.718 21.961)">
      <g id="グループ_638" data-name="グループ 638" class="cls-4" transform="translate(0 0)">
        <path id="パス_6313" data-name="パス 6313" class="cls-5" d="M177.833,44.657a39.76,39.76,0,0,1,.116,5c0,1.664-.057,3.347,0,5,.118,3.418.735,6.427,2.094,8.494.066.1.176.152.232.233.03.042-.037.2,0,.233.017.014.1-.018.117,0a4.741,4.741,0,0,0,.232.465,15.112,15.112,0,0,1,1.513,1.513c.063.1.171.1.233.233.019.042-.034.205,0,.233.009.007.114-.009.116,0a1.025,1.025,0,0,1-.465,1.163c-.044.031-.2.222-.233.233-.14.043-.32-.024-.465,0a1.167,1.167,0,0,1-.7,0,1.6,1.6,0,0,1-.349-.116,5.456,5.456,0,0,1-1.745-1.513c-.135-.164-.253-.34-.349-.465-.112-.146-.362-.314-.465-.466-.075-.111-.051-.244-.116-.349-.047-.074-.2-.167-.233-.233-.112-.2-.132-.493-.232-.7-.038-.076-.2-.168-.233-.233a2.905,2.905,0,0,1-.116-.349c-1.786-4.25-1.477-10.776-1.513-16.638H163.754c-.228.219-.112.587-.116.814-.043,2.659.028,5.811-.116,8.494a2.8,2.8,0,0,1,0,.465c-.084.354-.157,1.224-.232,1.862a4.317,4.317,0,0,1,0,.465c-.023.1-.1.117-.116.233-.025.149.034.318,0,.465-.023.1-.1.117-.116.233-.093.516-.108,1.035-.233,1.513,0,.006-.1.046-.116.116a18.919,18.919,0,0,1-.931,2.792c-.023.053-.11-.009-.115.116a.472.472,0,0,1,0,.116c-.04.077-.2.166-.233.233-.024.043.036.2,0,.233a1.2,1.2,0,0,0-.232.349c-.051.081-.184.16-.233.233s-.045.255-.116.349c-.044.057-.193.062-.233.116-.078.11-.039.249-.116.349-.1.133-.313.257-.466.465-.348.475-1.221,1.675-2.327,1.164-.518-.7.088-1.293.349-1.745.151-.261.287-.509.465-.815.036-.062.109.016.116-.116a1.5,1.5,0,0,1,.232-.465,11.526,11.526,0,0,0,.466-1.164c.02-.049.11.006.117-.116a1.689,1.689,0,0,1,.116-.581c.013-.011.109.014.116,0,.02-.043-.034-.205,0-.233.166-.136.237-.751.349-1.164.009-.03.111-.009.116-.116a1.49,1.49,0,0,1,0-.349c.134-.11,0-.349.116-.466s.093-.151.116-.349c0-.034-.023-.213,0-.233.114-.093.094-.158.117-.349,0-.035-.024-.213,0-.233.008-.007.114.008.116,0,.069-.387.071-.77.116-1.163.431-3.713,0-8.345.233-12.566.01-.184-.056-.444.116-.465.081-.4.241-.305.466-.349a12.583,12.583,0,0,1,2.094,0h10.24a24.928,24.928,0,0,1,3.956.116" transform="translate(-77.769 -26.614)"/>
        <path id="パス_6314" data-name="パス 6314" class="cls-5" d="M224.7,52.69c.033.1.523.2.7.232.248.051.56.038.815.116.037.012,0,.111.117.116.218.012.285.223.465.349.042.029.2-.038.233,0s.067.191.116.232a4.674,4.674,0,0,1,.7.582c.1.141.039.306.116.465.028.058.109-.012.116.117s.31.778.349,1.047a10.6,10.6,0,0,1-.116,2.327c-.007.065.092.623,0,.7-.183.15-.148,1.053-.232,1.513,0-.014-.1.06-.116.116-.019.077.055.42,0,.465a1.56,1.56,0,0,0-.232.582c-.02.068-.024.506-.117.581s-.08.089-.116.233c0,0-.106.341-.116.349a3.344,3.344,0,0,0-.349.582c-.065.115-.171.144-.233.233-.029.042.038.2,0,.232-.017.015-.1-.018-.116,0-.056.085-.047.256-.116.349-.044.058-.193.061-.232.116-.065.088-.043.25-.117.349-.048.064-.182.058-.232.116a6.7,6.7,0,0,1-.7.815c-.1.075-.253.057-.349.116-.077.048-.163.189-.233.232-.1.064-.22.048-.349.116-.06.032-.184.215-.232.233-.068.025-.163-.018-.233,0-.115.029-.338.064-.7.116-.132.019-.238.137-.465.116.036,0-.078-.106-.117-.116a2.4,2.4,0,0,1-.581-.116c-.135-.058-.137-.166-.233-.233-.042-.029-.2.038-.232,0a10.672,10.672,0,0,0-1.047-.814c-.183-.15-.293-.315-.466-.466-.352-.306-.845-.809-1.28-1.163-.243.055-.235.283-.349.465-.066.105-.175.149-.233.233-.029.042.038.2,0,.232-.017.014-.1-.017-.116,0-.207.329-.354.689-.582,1.047-.053.084-.178.158-.232.232a8.1,8.1,0,0,1-.466.7c-.079.093-.035.262-.116.349a1.668,1.668,0,0,1-1.4.233.794.794,0,0,1-.582-.466,1.259,1.259,0,0,1,0-1.4c.032-.06.11.014.116-.116a1.146,1.146,0,0,1,.116-.233c.051-.075.19-.164.233-.233.137-.219.212-.479.35-.7.04-.064.109.018.115-.116a1.108,1.108,0,0,1,.117-.232c.05-.076.188-.163.232-.233.146-.23.218-.489.349-.7.041-.064.11.018.117-.116a1.125,1.125,0,0,1,.116-.233c.05-.075.19-.163.232-.232.027-.043-.036-.2,0-.233a1.427,1.427,0,0,0,.349-.465c.043-.072.2-.169.233-.233.071-.134.045-.232.116-.349.038-.064.11.017.117-.116a1.083,1.083,0,0,1,.116-.233c.059-.091.189-.161.233-.233.088-.144.024-.32.116-.465.056-.087.167-.123.233-.233.047-.077.064-.151.116-.233.035-.055.1-.086.116-.116.057-.1.048-.234.117-.349.047-.079.189-.163.232-.233a1.2,1.2,0,0,0,.233-.465,1.126,1.126,0,0,1,.115-.232c.051-.075.191-.164.233-.233.026-.043-.037-.2,0-.233a7.953,7.953,0,0,0,1.047-1.745c-.72-.114-1.522.172-2.328.116a4.844,4.844,0,0,1-.93-.116c-.035-.01-.006-.11-.116-.116a1.984,1.984,0,0,1-.582-.233,7.278,7.278,0,0,1-.815-.582,1.7,1.7,0,0,1-.582-.7c-.016-.046-.11,0-.116-.116a3.088,3.088,0,0,1,.116-1.164,2.258,2.258,0,0,1,.931-.465c.576-.047.725.194,1.164.465.084.052.158.179.232.233a1.829,1.829,0,0,0,1.28.349c.514-.075,1.512-.174,2.211-.233.252-.021.567.071.814-.116.281-.064.266-.377.349-.582a2.165,2.165,0,0,0,.117-1.513,13.705,13.705,0,0,0-.582-1.629c-.294-.781-.8-1.585-.232-2.211.127-.141.273-.124.465-.232.067-.038.174-.206.232-.233a1.289,1.289,0,0,1,.7.116c.331.131.531.237.815.814.081.166.044.289.116.466.021.051.11-.007.116.116a.442.442,0,0,0,0,.116c.03.077.105.088.116.116.115.292.128.652.233.931.017.047.11,0,.116.116a5.813,5.813,0,0,0,.233.582c.023.07-.018.161,0,.233a6.406,6.406,0,0,1,.116,2.444m.233,2.56c-.44-.08-.879.186-1.4.116-.39.618-.746,1.374-1.047,1.862a3.8,3.8,0,0,0-.232.582c-.019.041-.206.067-.232.116-.087.157-.031.312-.117.465-.014.025-.084.065-.116.116-.083.131-.151.221-.232.349a1.489,1.489,0,0,0-.233.465c-.007.135-.075.052-.116.116a3.477,3.477,0,0,0-.232.582c-.019.041-.206.067-.233.116-.086.157-.029.314-.116.466-.018.031-.2.09-.233.116s.025.19,0,.232c-.009.017-.1-.013-.116,0-.093.076-.042.366-.116.466.435.449.818.976,1.28,1.4.136.124.315.112.465.232.13.1.223.246.349.349.252.206.457.534.815.582a2.974,2.974,0,0,0,1.163-.931c.165-.185.571-.6.582-.815.009-.167.225-.194.233-.349.007-.126.092-.062.116-.116.082-.184.05-.49.116-.7,0-.011.105.009.116,0,.089-.072.1-.519.116-.582a12.882,12.882,0,0,0,.349-4.654c-.31-.216-.5-.5-.931-.582" transform="translate(-105.907 -27.666)"/>
        <path id="パス_6315" data-name="パス 6315" class="cls-5" d="M14.332,52.859a13.617,13.617,0,0,0,2.211-.233c.149-.021.319.034.465,0a11.848,11.848,0,0,1,3.375-.232,9.618,9.618,0,0,1,2.211.7c.053.023-.009.109.116.116.177.01.4.22.582.349a1.564,1.564,0,0,1,.7,1.745c-.026.086-.328.122-.233.349-.064.116-.227.051-.349.116-.045.024-.2.226-.233.233a1.8,1.8,0,0,1-1.047-.116,2.248,2.248,0,0,0-.465-.233c-.078-.033-.168-.2-.233-.233-.128-.069-.232-.063-.349-.116a4.114,4.114,0,0,0-.815-.233c-.071-.018-.115-.116-.116-.116a10.555,10.555,0,0,0-2.909.233c-.959.115-1.878.164-2.792.349a12.979,12.979,0,0,0-.116,2.909c0,1.832-.011,3.8,0,5.818a12.293,12.293,0,0,1,0,2.676c-.012.037-.11,0-.116.116-.024.454-.777.9-1.28,1.047a6.128,6.128,0,0,1-1.745.116c-.784-.019-2.612-.048-3.025-.582-.07-.09-.068-.256-.116-.349a2.371,2.371,0,0,1-.116-1.047c.01-.034.11-.007.116-.116a1.362,1.362,0,0,1,.349-.466c.161-.072.307-.029.465-.116.06-.033-.007-.1.116-.116a1.122,1.122,0,0,1,.349,0,9.775,9.775,0,0,0,2.327.232c.223-.249.112-.685.116-1.163.024-2.549-.018-5.744,0-8.494-.051-.169-.1.012-.232,0-.712.038-1.374.131-2.094.232-.112.016-.238-.024-.349,0s-.115.1-.233.116c-.241.028-.545-.03-.815,0a8.76,8.76,0,0,1-2.676,0A8.075,8.075,0,0,1,4.21,56c-.037-.016-.021-.093-.116-.116-.23-.058-.36-.221-.582-.233-.15-.008-.145-.177-.232-.233-.14-.089-.422-.109-.582-.232a1.6,1.6,0,0,1-.465-1.629c.012-.035.192-.168.232-.233.061-.1.1-.212.233-.232s.157-.209.233-.233a4.518,4.518,0,0,1,1.047,0,2.586,2.586,0,0,0,.7.465,1.693,1.693,0,0,1,.233.116.986.986,0,0,0,.349.116,6.424,6.424,0,0,0,.931.349,3.984,3.984,0,0,0,1.28,0c1.152-.271,3.028-.339,4.3-.582.117-1.281-.219-2.108-1.047-2.444-.065-.067-.064-.15-.116-.232-.078-.123-.013-.478-.116-.582-.15-.15-.088-.23,0-.582a1.472,1.472,0,0,1,.233-.465c.1-.1.219-.038.349-.116.066-.039.175-.206.233-.232.406-.189,1.028.1,1.513.465.1.075.2.318.349.465s.38.227.465.349c.106.151.124.481.233.7.038.077.2.167.232.232.024.043-.035.2,0,.233.264.216.248,1.277.233,1.745" transform="translate(-1.068 -28.65)"/>
        <path id="パス_6316" data-name="パス 6316" class="cls-5" d="M65.846,49.068c.041-.015,0-.1.116-.116a3.066,3.066,0,0,1,1.047.116c.048.019,0,.11.116.116a1.1,1.1,0,0,1,.233.116,4.03,4.03,0,0,0,2.676.7c-.023,0,.068-.1.116-.116.073-.018.159.017.233,0,.515-.116,1.62-.372,2.327-.466a6.527,6.527,0,0,0,.814-.116c.265-.06.718-.169,1.164-.233.151-.021.315.027.465,0,.113-.02.174-.118.349-.116.06,0,.655.087.815.116a9.1,9.1,0,0,1,1.978.7,6.142,6.142,0,0,1,.931.466,1.378,1.378,0,0,1,.582,1.629c-.007.027-.111.012-.116.116-.013.253-.228.318-.465.466-.044.027-.2.224-.233.232-.617.159-1.087-.228-1.629-.465-.053-.023.009-.11-.116-.116-.249-.013-.874-.414-1.28-.465a11.868,11.868,0,0,0-2.676.349c-.519.055-1.148.234-1.745.349-.149.028-.318-.035-.465,0a7.579,7.579,0,0,1-2.327.233,5.11,5.11,0,0,1-.7-.116c-.029-.008-.011-.111-.116-.116a1.518,1.518,0,0,1-.349,0c-.079-.1-.313-.12-.582-.233-.052-.022.008-.11-.116-.116a2.555,2.555,0,0,1-.349-.116c-.078-.038-.167-.2-.233-.233-.043-.024-.2.035-.233,0-.013-.016.017-.107,0-.116-.043-.025-.2.036-.232,0-.191-.234-.75-.573-.815-1.047a1.2,1.2,0,0,1,.582-1.28c.064-.039-.017-.109.116-.116a.5.5,0,0,0,.116,0" transform="translate(-32.102 -28.815)"/>
        <path id="パス_6317" data-name="パス 6317" class="cls-5" d="M176.159,52.566v2.211a20.524,20.524,0,0,1,3.49.116,6.224,6.224,0,0,1,.116,1.978v2.094c0,1.429.22,2.9-.465,3.723a1.894,1.894,0,0,1-1.63-.116c-.137-.173-.1-.52-.465-.465h-.931c-.266.2-.043.888-.116,1.28v1.28c.026.13.873-.043,1.163-.116.294-.153-.3-.382-.232-.7-.332-.191.056-.632.116-.815.343-.1.534-.187.815,0a3.027,3.027,0,0,1,.349.116c.011.013-.014.11,0,.116a8.954,8.954,0,0,1,1.978,1.28,6.765,6.765,0,0,1,.815.7c.079.1.033.26.116.349a1.441,1.441,0,0,1,.465.7,3.465,3.465,0,0,1-.116,1.4c-.116.089-.231.142-.349.233a3.229,3.229,0,0,1-.233.232c-.163.064-.408-.033-.581,0a.237.237,0,0,1-.117.116c-.17.043-.277-.106-.466-.116a1.123,1.123,0,0,1-.7-.465,5.294,5.294,0,0,1-.232-.582c-.042-.074-.2-.168-.233-.233-.123-.227-.13-.661-.349-.931a36.408,36.408,0,0,0-3.956,1.513c-.6.231-1.28.452-1.978.7a4.175,4.175,0,0,1-2.211.466c-.027-.007-.012-.111-.116-.116a1.871,1.871,0,0,1-.7-.466c-.028-.042.038-.2,0-.232-.3-.247-.283-1.119,0-1.629.034-.061.11.015.116-.116.016-.305.889-.508,1.4-.582a2.6,2.6,0,0,0,.349,0,16.238,16.238,0,0,1,2.327-.349,14.291,14.291,0,0,0,.116-2.909,1.47,1.47,0,0,0-.93-.116c-.386.076-.575.153-.582.582a1.461,1.461,0,0,1-1.978-.116c-.265-2.333-.044-5.154-.116-7.679a20.53,20.53,0,0,1,3.491-.116c.241-.418.06-1.258.116-1.862-1.352-.119-2.643.341-3.839,0-.12-.462-.221-.936.349-1.163.041-.017.207.032.232,0,.093-.113.158-.094.349-.116.035,0,.214.024.233,0a1.452,1.452,0,0,1,.581-.233c1.007-.256,2.1-.61,3.142-.93.3-.092.536-.121.815-.233.042-.017.207.032.233,0a3.6,3.6,0,0,1,.814-.349c.042-.016.207.032.233,0,.091-.112.28-.116.581-.233.048-.018,0-.109.117-.116a.463.463,0,0,0,.115,0,1.332,1.332,0,0,1,1.048,0c.064.031.144.178.233.232a1.463,1.463,0,0,1,.232.116c.031.042-.039.2,0,.233.014.011.109-.014.116,0,.02.042-.034.205,0,.233.01.008.114-.01.116,0a3.385,3.385,0,0,1-.116,1.4c-.63.689-1.9.737-3.142.814m-3.607,7.8H173.6a23.454,23.454,0,0,0,.116-3.723c-.22-.207-.768-.085-1.163-.116Zm3.607,0h1.047a23.459,23.459,0,0,0,.116-3.723c-.22-.207-.768-.085-1.163-.116Z" transform="translate(-83.541 -29.055)"/>
        <path id="パス_6318" data-name="パス 6318" class="cls-5" d="M126.684,62.221c.1-.075.39-.024.465-.116.011-.013-.014-.11,0-.116.16-.073.308-.029.465-.116.061-.034-.015-.11.116-.116.15-.008.146-.172.232-.233.043-.029.2.038.233,0s.079-.209.116-.233.2.037.233,0a5.832,5.832,0,0,1,.93-.7c.066-.049-.019-.109.116-.116s.4-.322.582-.465c.114-.091.232-.142.349-.233.243-.188.466-.395.7-.582.142-.114.237-.261.349-.349.042-.032.2.039.233,0a3.243,3.243,0,0,1,.465-.466c.034-.028.085-.218.116-.232.052-.024.191.036.233,0,.222-.194.349-.49.582-.7.132-.118.345-.13.465-.233.271-.233.57-.611.931-.931.19-.169.379-.393.581-.582.395-.366.809-.827,1.281-1.28.2-.191.621-.688.814-.7a2.5,2.5,0,0,1,.814-.116,1.055,1.055,0,0,1,.931.582,1.4,1.4,0,0,1,.232.466c.07.566-.345,1.136-.93,1.745a5.771,5.771,0,0,1-.931.815c-.064.042.018.109-.116.116-.153.008-.193.2-.349.349-.734.681-1.357,1.212-2.095,1.862-.122.107-.232.256-.349.349s-.239.139-.349.233c-.251.215-.465.5-.7.7-.078.065-.237.227-.349.233-.161.008-.184.214-.349.349-.133.108-.336.121-.465.233-.1.081-.135.275-.233.349-.042.031-.2-.038-.232,0-.079.1-.135.338-.349.349a1.126,1.126,0,0,0-.233.116c-.149.111-.2.249-.349.349s-.3.116-.465.233c-.1.073-.234.271-.349.349-.076.052-.149.063-.233.116-.294.187-.918.564-1.4.815-.076.039-.154.066-.232.116a5.173,5.173,0,0,1-1.28.349c-.011,0-.025.111-.116.116a3.71,3.71,0,0,1-1.4-.116c-.05-.021.007-.11-.116-.116a2.055,2.055,0,0,1-.815-.582c-.1-.138-.036-.309-.116-.465-.025-.048-.224-.2-.233-.233a22.5,22.5,0,0,1,0-3.49,14.863,14.863,0,0,0-.233-4.072,4.784,4.784,0,0,0-.582-1.163c-.074-.111-.258-.028-.349-.116-.037-.036.039-.2,0-.233a1.454,1.454,0,0,1-.116-1.4,1.545,1.545,0,0,0,.116-.116c.059-.089.1-.225.232-.233.025,0,.1.013.116,0,.066-.039.175-.206.233-.233.633-.3,1.387.34,1.746.7a2.691,2.691,0,0,1,.349.582c.034.061.109-.016.116.116.006.1.177.252.233.349s.052.212.116.349c.026.055.22.191.233.233.084.279.014.359.116.7.043.144.033.347.116.7.363,1.547-.033,4.479.116,6.167" transform="translate(-60.595 -30.449)"/>
        <path id="パス_6319" data-name="パス 6319" class="cls-5" d="M109.831,56.157c.322.39.214.946.233,1.4.021.514.026,1.016,0,1.513-.033.622-.208,1.282-.233,1.861a1.86,1.86,0,0,1-.116.582c-.011.039.028.21,0,.233a7.187,7.187,0,0,0-.465,1.28c-.134.35-.291.686-.465,1.047-.089.183-.144.408-.233.582-.039.077-.2.167-.233.233-.024.043.036.2,0,.233-.015.012-.108-.016-.116,0-.087.161-.153.431-.232.582-.032.06-.11-.014-.116.116-.01.186-.222.375-.349.582-.049.079-.065.146-.116.233s-.051.262-.116.349c-.037.05-.2.068-.232.116-.115.19-.087.357-.233.582-.093.143-.253.2-.349.349-.074.112-.057.242-.116.349-.034.061-.109-.015-.116.116-.005.1-.177.258-.233.349-.047.076-.063.152-.116.232s-.179.158-.233.233c-.088.119-.11.276-.233.466-.042.064-.109-.018-.116.116-.01.2-.337.235-.349.465-.011.2-.337.236-.349.466-.009.172-.319.28-.465.465-.032.041.039.2,0,.233a1.593,1.593,0,0,0-.466.465,3.456,3.456,0,0,1-.465.582,2.727,2.727,0,0,1-.233.232,1.536,1.536,0,0,1-.7.349,1.49,1.49,0,0,1-1.4-.931,2.684,2.684,0,0,1,.116-1.163,19.71,19.71,0,0,0,2.094-2.56c.32-.434.6-.9.931-1.4.042-.065.109.018.116-.116.008-.155.224-.182.233-.349s.224-.182.232-.349a1.118,1.118,0,0,1,.116-.232c.059-.091.19-.162.233-.233.089-.149.03-.309.116-.465.027-.05.214-.075.232-.116a3.9,3.9,0,0,1,.233-.582c.116-.187.193-.338.349-.582a2.492,2.492,0,0,0,.349-.7,1.487,1.487,0,0,1,.233-.466,8.1,8.1,0,0,0,.7-1.862c.075-.306.182-.642.232-.93.033-.188-.034-.394,0-.582.02-.11.1-.179.116-.349.1-1.282-.3-3.083.931-3.374a1.534,1.534,0,0,1,1.4.349" transform="translate(-49.792 -32.18)"/>
        <path id="パス_6320" data-name="パス 6320" class="cls-5" d="M250.089,64.883c-.008-.7-.666-1.015-1.047-1.4s-.725-.841-1.163-1.28l-1.513-1.512a2.336,2.336,0,0,1-.466-.466c-.113-.176-.095-.327-.232-.465-.119-.119.106-.407.116-.465.016-.091-.042-.269,0-.349.066-.126.361-.271.465-.349a.877.877,0,0,1,.815-.232c.738.1.935.586,1.4,1.047.938.938,2.078,2.032,3.026,3.025a2.555,2.555,0,0,1,.465.466c.06.094.119.282.233.465.037.061.21.18.232.233a5.131,5.131,0,0,1,.116.7,2.887,2.887,0,0,1,.116.7c-.012.188-.09.2-.116.349a1.869,1.869,0,0,1-.116.582c-.027.057-.11-.011-.116.116a6.623,6.623,0,0,1-.931,1.047c-.072.05-.407.15-.581.233a6.447,6.447,0,0,1-1.164.465c-.109.028-.239-.024-.349,0s-.115.1-.233.116a8.3,8.3,0,0,1-1.629,0,6.371,6.371,0,0,1-.815,0c-.032-.01-.17-.194-.232-.233a1.141,1.141,0,0,1-.466-1.047c0-.035-.024-.214,0-.233s.112.011.116,0c.19-.6.509-.827,1.279-.931,1.073-.144,2.2.171,2.793-.582" transform="translate(-121.286 -33.46)"/>
        <path id="パス_6321" data-name="パス 6321" class="cls-5" d="M70.82,62.545a10.182,10.182,0,0,1-.116,1.978c-.007.027-.111.013-.116.116a.887.887,0,0,1-.116.349c-.061.167-.13.479-.233.7-.027.056-.11-.011-.116.116a2.638,2.638,0,0,1-.349.7c-.042.065-.109-.018-.116.117a1.506,1.506,0,0,1-.233.465c-.095.141-.259.228-.349.349-.056.075-.062.148-.116.233-.078.124-.339.277-.349.465-.009.162-.216.182-.349.349-.032.04.039.2,0,.233a3.833,3.833,0,0,0-.582.465c-.111.129-.123.336-.233.466-.213.249-.621.5-.931.814-.834.834-1.62,1.656-2.56,2.444-.178.15-.452.383-.7.582-.13.105-.231.256-.349.349-.041.032-.2-.039-.233,0s-.073.2-.116.232c-.115.084-.331.149-.465.233-.064.04.018.109-.116.116-.154.008-.182.224-.349.232a2.107,2.107,0,0,1-.815.116,1.284,1.284,0,0,1-1.047-1.512c0-.035-.024-.214,0-.233A2.972,2.972,0,0,0,60,72.784a3,3,0,0,1,.349-.465c.041-.032.2.039.233,0a5.2,5.2,0,0,1,.815-.7c.114-.087.238-.14.349-.233.034-.028.084-.218.116-.233.055-.024.188.037.233,0,.114-.093.248-.263.349-.349.033-.029.085-.219.116-.233.053-.023.191.037.233,0,.2-.173.408-.417.582-.582.836-.791,1.549-1.581,2.327-2.444.179-.2.411-.371.582-.582s.294-.468.466-.7c.049-.066.109.019.116-.116.008-.154.224-.182.232-.349s.224-.182.233-.349.224-.182.232-.349c.01-.185.241-.351.349-.582a4.309,4.309,0,0,0,.116-.465c.015-.044.11,0,.116-.116.019-.355.142-.382.116-.814-.082-.305-.515-.136-.7-.116-1.216.124-2.737.443-4.188.582-.289.027-.606-.026-.931,0a7.407,7.407,0,0,1-.815.116c-.189-.009-.2-.089-.349-.116a6.838,6.838,0,0,1-.814-.116c-.039-.011-.21.029-.233,0-.078-.1-.089-.081-.233-.116-.1-.026-.2-.079-.349-.116-.124-.031-.431-.219-.7-.349-.948-.461-1.673-.822-1.513-1.861a1.377,1.377,0,0,1,2.444-.465c.522.051.964.376,1.513.465.036.006.212-.025.233,0,.005.007,0,.116,0,.116.219,0,.519-.1.815-.116,1.227-.059,2.562-.282,3.839-.465.149-.021.319.034.466,0s.328-.064.7-.116c.035-.005.213.025.233,0,.163-.2,1.107-.162,1.629-.233-.025,0,.069-.1.116-.116.308-.077.932-.05,1.4-.116.1-.014.191-.1.349-.116.671-.089,1.823-.164,2.676-.233a7.783,7.783,0,0,1,1.513-.116,5.374,5.374,0,0,1,1.047.233c.172.053.468.141.7.232.079.032.084.1.116.116.17.07.295.037.466.116.056.026-.011.11.116.116a1.5,1.5,0,0,1,.465.233,2.044,2.044,0,0,1,.349.232c.043.042.312.138.349.349a1.331,1.331,0,0,1,.116,1.4,1.437,1.437,0,0,1-1.629.582c-.037-.012,0-.111-.116-.116a1.5,1.5,0,0,1-.465-.233,2.49,2.49,0,0,0-.7-.349c-.142-.008-.736-.316-1.047-.349a5.168,5.168,0,0,0-1.163.116c-.988.106-2.114.167-3.142.349" transform="translate(-28.351 -34.03)"/>
        <path id="パス_6322" data-name="パス 6322" class="cls-5" d="M6.633,67.207a4.463,4.463,0,0,1-.116,3.142,8.455,8.455,0,0,1-1.4,2.327c-.12.153-.321.288-.465.466s-.19.4-.349.582c-.264.3-.634.634-.931.931-.465.464-1.385,1.518-2.094,1.512A1.332,1.332,0,0,1,0,74.77c.018-.6.446-.9.931-1.4A23.589,23.589,0,0,0,3.142,70.93c.05-.065.109.02.116-.116a1.133,1.133,0,0,1,.116-.233c.029-.041.217-.08.233-.116a3.052,3.052,0,0,1,.233-.582c.036-.054.215-.186.232-.233.04-.1.061-.362.116-.582.052-.2.092-.322.116-.465.11-.64-.026-1.055.349-1.4a1.575,1.575,0,0,1,.582-.349,2.074,2.074,0,0,1,1.4.349" transform="translate(0 -37.645)"/>
        <path id="パス_6323" data-name="パス 6323" class="cls-5" d="M31.834,66.98c.047-.019,0-.1.116-.116a5.2,5.2,0,0,1,2.327.349c.041.016.206-.032.232,0,.01.012-.013.111,0,.116.164.067.308.03.466.117.111.061.182.229.349.349.114.082.352.134.465.232.193.167.345.481.582.7.472.431,1.022.8,1.4,1.163.422.4.843.96,1.28,1.4.454.454,1.038.657,1.047,1.513a1.655,1.655,0,0,1-.349,1.047c-.038.035-.2-.039-.233,0-.014.017-.106.229-.116.233a1.824,1.824,0,0,1-1.163-.116c-.271-.1-.438-.363-.7-.582-.613-.516-1.323-1.206-1.978-1.861-.195-.195-.373-.505-.582-.7a4.709,4.709,0,0,0-.349-.349c-.041-.032-.2.038-.232,0a3.175,3.175,0,0,0-.7-.7,3.154,3.154,0,0,0-.815-.232c-.023-.006-.015-.111-.116-.116a2.941,2.941,0,0,1-.7,0s-.341-.106-.349-.116.016-.108,0-.116c-.212-.114-.452-.08-.465-.349,0-.068-.087-.229-.116-.349-.017-.069-.116-.118-.116-.116-.087-.615.376-1.379.7-1.4a.447.447,0,0,0,.116,0" transform="translate(-15.311 -37.65)"/>
        <path id="パス_6324" data-name="パス 6324" class="cls-5" d="M160.351,101.129c-.592,2.045-1.372,3.9-1.977,5.934.28.309.394-.2.581-.349.223-.175.367-.4.7-.349a1.7,1.7,0,0,1-2.211,1.163,11.637,11.637,0,0,1,.815-2.792c.3-.887.58-1.788.931-2.676.063-.412-.412-.287-.349-.7a10.583,10.583,0,0,1,1.513-.233" transform="translate(-77.74 -54.579)"/>
        <path id="パス_6325" data-name="パス 6325" class="cls-5" d="M105.879,101.822c-.264,1.326-.849,2.331-1.163,3.607.073.2.379-.191.582-.349.037-.029.083-.218.116-.233.061-.028.174.034.232,0,.041-.024.208-.227.232-.232a1.506,1.506,0,0,1,1.28.232c-.044.248.061.511,0,.7-.019.057-.213.072-.233.116-.1.222-.043.228-.233.349-.127.081-.218.149-.349.232a1.979,1.979,0,0,1-.93.349c-.015.518.287.721.349,1.163.571.106.443-.488.93-.465a1.283,1.283,0,0,1-1.512,1.047c-.364-.374-.414-1.061-.7-1.513-.5.28-.591.96-.815,1.513h-.7a8.566,8.566,0,0,1,.582-2.211c.011-.029.094-.027.116-.116.06-.24.164-.422.232-.7.06-.24.164-.422.233-.7.06-.239.164-.422.233-.7.06-.239.164-.422.233-.7a2.575,2.575,0,0,0,.116-.465c.1-.373-.179-.363-.349-.465.283-.376.9-.423,1.512-.465m-.116,3.374c-.028.034-.191-.02-.233,0-.014.007.011.1,0,.116-.029.036-.19-.024-.232,0-.027.015-.2.2-.233.233a3.382,3.382,0,0,0-.7.93c.237.138.185.07.465,0,.089-.022.088-.106.116-.116.618-.225,1.219-.538,1.28-1.163a.3.3,0,0,0-.465,0" transform="translate(-50.844 -54.923)"/>
        <path id="パス_6326" data-name="パス 6326" class="cls-5" d="M199.884,101.822c-.263,1.327-.837,2.343-1.164,3.607.073.2.379-.191.582-.349.037-.029.083-.218.116-.233.062-.028.175.034.233,0,.04-.024.207-.227.233-.232a1.5,1.5,0,0,1,1.279.232c-.044.248.061.511,0,.7-.018.057-.213.072-.232.116-.1.222-.042.228-.232.349-.128.081-.219.149-.349.232a1.981,1.981,0,0,1-.931.349c-.014.518.287.721.349,1.163.572.106.443-.488.931-.465a1.284,1.284,0,0,1-1.513,1.047c-.3-.434-.406-1.069-.7-1.513-.5.28-.591.96-.815,1.513h-.7a4.462,4.462,0,0,1,.349-1.513c.008-.023.1-.033.116-.116.06-.239.163-.422.232-.7.06-.24.164-.422.232-.7.06-.24.165-.422.233-.7.059-.239.164-.422.232-.7.06-.239.164-.422.233-.7a2.619,2.619,0,0,0,.116-.465c.1-.373-.179-.363-.349-.465.284-.376.9-.423,1.513-.465m-.117,3.374c-.028.034-.19-.02-.232,0-.015.007.011.1,0,.116-.03.036-.19-.025-.233,0-.087.05-.157.273-.233.349-.176.177-.455.269-.465.465s-.459.466,0,.466c.1-.16.318-.168.465-.233.1-.044.146-.071.233-.116a1.468,1.468,0,0,0,.465-.349c.208-.208.49-.34.466-.7a.3.3,0,0,0-.466,0" transform="translate(-97.26 -54.923)"/>
        <path id="パス_6327" data-name="パス 6327" class="cls-5" d="M124.712,102.052h2.444c-.018.448-.647.283-.815.582-.19.663-.4,1.3-.582,1.978.212.218.706.111,1.163.116.411,0,.893,0,1.28,0,.38-.086.35-.581.465-.931a6.287,6.287,0,0,0,.349-1.047c.091-.518-.625-.229-.583-.7h2.56c.012.423-.711.23-.93.582-.391,1.665-1.049,3.062-1.4,4.771-.1.492.657.118.582.582h-2.56c-.117-.35.259-.207.466-.233.692-.471.733-1.594,1.047-2.443-.447-.423-1.929-.245-2.56-.116a2.973,2.973,0,0,0-.349.814c-.016.042.032.207,0,.233-.107.088-.153.349-.232.7-.005.023-.111.015-.116.116-.008.154.006.311,0,.465-.07.458.805-.029.7.466h-2.676c.1-.327.605-.248.815-.466.51-1.622,1.057-3.21,1.512-4.887-.021-.367-.626-.149-.582-.582" transform="translate(-60.717 -55.037)"/>
        <path id="パス_6328" data-name="パス 6328" class="cls-5" d="M35.859,102.741h2.327c.032.421-.51.266-.7.465.158.811.316,1.623.465,2.444.3-.046.421-.386.582-.582a14.63,14.63,0,0,0,1.4-1.862c-.036-.273-.551-.069-.465-.465H41.56c.071.4-.381.261-.582.349-.143.063-.19.189-.349.233a13.3,13.3,0,0,0-1.4,1.629c-.124.15-.349.311-.465.465a7.482,7.482,0,0,0-1.164,2.676c.014.451.8.128.815.582H35.626c-.035-.423.621-.155.815-.349a1.061,1.061,0,0,0,.116-.232c.017-.042-.032-.207,0-.233.182-.149.227-.509.349-.815.017-.042-.032-.207,0-.233.01-.008.113.011.116,0,.051-.172-.087-.453.116-.465-.226-.937-.393-1.934-.582-2.909-.049-.417-.676-.255-.7-.7" transform="translate(-17.59 -55.377)"/>
        <path id="パス_6329" data-name="パス 6329" class="cls-5" d="M169.531,102.741h4.188c-.24.458-.127,1.27-.7,1.4v-.815a3.6,3.6,0,0,0-1.629-.233c-.373.171-.376.711-.466,1.164-.185.127-.181.4-.232.582s-.192.335-.117.582c.311.3,1.026.023,1.4,0,.4-.105.235-.773.815-.7a5.4,5.4,0,0,0-.233.582c-.087.275-.164.56-.233.815-.011.039.028.21,0,.233s-.108-.015-.116,0c-.071.137-.04.453-.349.349V106a3.864,3.864,0,0,0-1.4-.116c-.383.394-.376,1.026-.582,1.745-.01.033-.11.007-.116.116-.009.165.033.331-.116.349a.588.588,0,0,0,.35.349c.206.026.582-.117.465.233h-2.675c.014-.412.66-.193.814-.466q.765-2.434,1.512-4.887c-.021-.367-.626-.149-.581-.582" transform="translate(-82.847 -55.377)"/>
        <path id="パス_6330" data-name="パス 6330" class="cls-5" d="M147.539,105.026a1.807,1.807,0,0,1-.232.931c.292.1,1-.226.93.232.071.459-.639.137-.93.233-.288.154-.335.584-.466.931-.015.041.032.207,0,.233-.231.189-.3.872-.466,1.28.614-.008.618-.624,1.164-.7.138.333-.272.5-.465.7-.09.091-.136.271-.233.349-.04.032-.2-.039-.232,0-.018.022-.1.225-.116.233a3.182,3.182,0,0,1-1.047.116,1.757,1.757,0,0,1,0-.815c.006-.025.111-.014.116-.116a.449.449,0,0,1,0-.116,2.173,2.173,0,0,0,.116-.349c.087-.347.429-1.15.583-1.629-.05-.261-.618,0-.7-.233.106-.281.468-.308.814-.349.482-.217.34-1.057,1.164-.931" transform="translate(-71.792 -56.499)"/>
        <path id="パス_6331" data-name="パス 6331" class="cls-5" d="M53.917,105.71a1.909,1.909,0,0,1-.233.815c.052.336.879-.1.931.232.078.5-.54.314-.931.349a2.622,2.622,0,0,0-.582,1.164,7.227,7.227,0,0,0-.349,1.28c.556-.064.643-.6,1.163-.7.1.376-.324.6-.582.815s-.979.87-1.629.465c.026-.108-.032-.242,0-.349s.077-.193.116-.349c.026-.1.079-.2.116-.349.025-.1.079-.2.116-.349.026-.1.079-.2.116-.349.026-.1.079-.2.116-.349.025-.1.1-.078.116-.116.065-.2,0-.562.233-.7-.015-.257-.494-.049-.7-.116-.009-.435.456-.4.815-.465.218-.131.247-.451.465-.582.042-.307.279-.419.7-.349" transform="translate(-25.526 -56.833)"/>
        <path id="パス_6332" data-name="パス 6332" class="cls-5" d="M91.044,105.717c.067.378-.079.541-.116.815.1.288.81-.034.931.232-.125.109-.036.43-.349.349h-.7c-.349.309-.3.825-.465,1.28-.01.027-.095.03-.116.116-.075.3-.239.69-.349,1.047.374.136.429-.236.582-.349s.432-.111.465-.349c.44.067.052.247-.116.465a2.493,2.493,0,0,1-.815.7c-.046.028-.2.223-.232.233-.252.07-.549-.054-.815,0,0-1.283.618-1.941.815-3.025.052-.324-.634.091-.582-.233,0-.353.409-.29.7-.349.538-.159.34-1.056,1.163-.931" transform="translate(-43.921 -56.841)"/>
        <path id="パス_6333" data-name="パス 6333" class="cls-5" d="M140.33,106.858a2.487,2.487,0,0,1-.117,2.327c-.023.053-.109-.009-.116.116s-.358.4-.582.582c-.035.029-.084.218-.116.233-.062.028-.175-.034-.233,0-.043.025-.2.226-.232.233a2.21,2.21,0,0,1-1.513-.233,2.381,2.381,0,0,1,.116-2.327c.023-.053.11.009.116-.116a7.656,7.656,0,0,1,.7-.815c.043-.029.2.038.233,0,.011-.014-.015-.109,0-.116.042-.02.2.033.232,0a1.589,1.589,0,0,1,1.513.116m-1.164.116c-.062.228-.457.417-.466.582-.009.18-.177.348-.232.466a2.365,2.365,0,0,0-.349,1.978c.756.108,1.145-.944,1.28-1.28a5.946,5.946,0,0,0,.233-.7c.085-.374.212-.723,0-1.047Z" transform="translate(-67.725 -57.283)"/>
        <path id="パス_6334" data-name="パス 6334" class="cls-5" d="M154.022,106.839a.97.97,0,0,1-.465,1.164c-.073.056-.162.186-.233.232-.139.093-.3.058-.465.116-.027.01-.03.095-.117.116a4.4,4.4,0,0,1-.93.232c.023.364-.079.855.115,1.047.777.156.872-.369,1.4-.466.067.184-.077.419-.233.582-.092.1-.237.032-.349.116-.153.114-.094.169-.349.232a2.773,2.773,0,0,1-1.164.116c0-.145-.173-.154-.232-.233s-.039-.388-.116-.465a.345.345,0,0,1-.116-.349.256.256,0,0,1,.116-.116c.048-.3-.033-.475.116-.7a11,11,0,0,1,.582-1.047,2.5,2.5,0,0,1,.349-.233c.073-.056.163-.186.233-.232.1-.069.218-.046.349-.116.041-.022.209-.228.232-.233a1.532,1.532,0,0,1,1.28.233m-2.095,1.513c.678-.157,1.466-.755,1.28-1.4-.8.095-.953.831-1.28,1.4" transform="translate(-74.436 -57.264)"/>
        <path id="パス_6335" data-name="パス 6335" class="cls-5" d="M46.479,106.984c-.18,1.216-.829,1.963-1.047,3.142.06.223.191.017.233,0,.231-.094.495-.392.815-.466.111.228-.2.3-.349.466a1.592,1.592,0,0,1-1.629.7,1.856,1.856,0,0,1,.232-1.047c-.1-.351-.523.566-.815.582-.1.006-.252.177-.349.233a1.481,1.481,0,0,1-1.047.233c-.1-.094-.069-.319-.233-.349a1.964,1.964,0,0,1,.233-.815c.017-.042-.032-.206,0-.233.014-.011.11.015.116,0,.02-.042-.034-.2,0-.232a1.493,1.493,0,0,0,.349-.466c.042-.064.109.018.116-.116a2.816,2.816,0,0,1,.466-.581,5.555,5.555,0,0,1,.465-.466c.2-.139.567-.08.7-.349.335.014.761-.064.931.116-.1-.486.533-.6.815-.349m-1.745.582c-.074.3-.507.432-.7.7-.066.091-.07.268-.116.349a1.388,1.388,0,0,0-.233.466c-.089.356-.491.847-.232,1.163.346.024.483-.377.7-.582.077-.073.225.034.233-.116.007-.135.055-.052.116-.116a2.277,2.277,0,0,0,.465-.7,3.41,3.41,0,0,1,.233-.465.771.771,0,0,0,.116-.582.758.758,0,0,0-.582-.116" transform="translate(-20.881 -57.409)"/>
        <path id="パス_6336" data-name="パス 6336" class="cls-5" d="M83.674,107c-.334,1.14-.857,2.091-1.163,3.258.554.012.552-.534,1.047-.582.056.245-.253.666-.466.815-.042.029-.2-.038-.233,0a1.07,1.07,0,0,1-1.28.233,2.409,2.409,0,0,1,.349-1.047c0-.236-.331.109-.465.233a3.74,3.74,0,0,1-.466.465c-.075.05-.164.19-.232.233a1.469,1.469,0,0,1-1.047.233c-.052-.1-.1-.209-.233-.233-.167-.449.216-.846.233-1.164.008-.151.183-.145.232-.232.082-.145.022-.326.116-.466s.233-.2.349-.349a2.543,2.543,0,0,1,.582-.582c.084-.063.161-.184.233-.233.164-.112.478-.157.582-.349.464-.1.86.174,1.047,0-.055-.527.545-.317.815-.233m-1.745.582a3.663,3.663,0,0,0-1.4,2.676c.484,0,.728-.5.931-.7.093-.093.27-.128.349-.232.065-.086.07-.271.116-.349.018-.03.081-.061.116-.116a4.085,4.085,0,0,0,.466-1.047c-.222-.05-.211-.333-.582-.233" transform="translate(-39.227 -57.423)"/>
        <path id="パス_6337" data-name="パス 6337" class="cls-5" d="M98.2,107c-.334,1.14-.857,2.091-1.163,3.258.554.012.552-.534,1.047-.582.066.183-.081.424-.233.582-.092.1-.237.033-.349.116-.045.033-.074.211-.116.233-.133.07-.229.055-.349.116a.93.93,0,0,1-.93,0,2.4,2.4,0,0,1,.349-1.047c-.169-.233-.268.155-.349.233-.119.113-.243.261-.349.349-.073.061-.168.187-.233.233-.042.029-.2-.038-.233,0a1.094,1.094,0,0,1-1.163.349,2.04,2.04,0,0,1,.465-1.978c.067-.09.176-.155.233-.233.16-.218.207-.442.349-.581a3.072,3.072,0,0,1,.349-.233c.084-.063.161-.184.233-.233.179-.122.459-.145.582-.349.464-.1.86.174,1.047,0-.055-.527.545-.317.815-.233m-1.745.582a3.585,3.585,0,0,0-1.4,2.676c.484,0,.728-.5.931-.7.093-.093.27-.128.349-.232.065-.086.07-.271.116-.349.018-.03.082-.061.116-.116a4.1,4.1,0,0,0,.465-1.047c-.222-.05-.211-.333-.582-.233" transform="translate(-46.424 -57.423)"/>
        <path id="パス_6338" data-name="パス 6338" class="cls-5" d="M207.91,109.522c-.714.489-1.057,1.348-2.327,1.28a1.882,1.882,0,0,1,.349-1.862c.035-.055.1-.087.116-.116.046-.078.051-.263.116-.349a5.545,5.545,0,0,1,.815-.7c.3-.234.585-.4.815-.582.241.069.764-.144.814.116.317-.109.222-.632.815-.465a.586.586,0,0,1,0,.7,8.225,8.225,0,0,0-.349.931,11.5,11.5,0,0,0-.581,1.629c.059.223.19.017.232,0,.231-.094.5-.392.815-.466a1.165,1.165,0,0,1-.233.582c-.068.074-.274.047-.349.116a1.381,1.381,0,0,1-.7.466.979.979,0,0,1-.7-.116,2.225,2.225,0,0,1,.349-1.164m-.116-1.978a6.349,6.349,0,0,1-.466.582c-.125.156-.342.338-.349.465s-.085.057-.117.116a3.913,3.913,0,0,0-.232.815c-.009.032-.093.021-.116.116-.091.364-.094.379,0,.582.238.062.248-.162.349-.232.156-.108.36-.133.466-.233.086-.081.136-.153.232-.233.038-.031-.03-.191,0-.232s.187-.068.233-.116c.1-.109.116-.254.232-.349.038-.031-.029-.191,0-.233.067-.1.177-.1.232-.232a1.462,1.462,0,0,0,.116-.7.757.757,0,0,0-.581-.116" transform="translate(-101.446 -57.388)"/>
        <path id="パス_6339" data-name="パス 6339" class="cls-5" d="M59.364,108.225c-.705.162-.533-.553-1.163-.466-.3.132-.141.38-.116.466a1.956,1.956,0,0,0,.116.349c.033.045.211.075.233.116.17.326.474.616.465,1.047a1.846,1.846,0,0,1-.116.582c-.057.1-.265.149-.349.233-.184.183-.112.261-.466.349-.284.071-1.729.4-1.28-.815.728-.108.632.61,1.4.466.441-.95-1.264-1.383-.582-2.56a1.474,1.474,0,0,1,.465-.465c.024-.019.243-.235.233-.233.475-.114,1.482-.074,1.163.931" transform="translate(-27.948 -57.603)"/>
        <path id="パス_6340" data-name="パス 6340" class="cls-5" d="M65.653,109.654c-.186-.215-.376.264-.582.465-.1.1-.252.136-.349.233-.081.081-.141.29-.232.349-.114.074-.241.056-.349.116-.061.034.015.109-.116.116a1.525,1.525,0,0,1-.815.116,1.575,1.575,0,0,1,.116-1.28c.009-.026.095-.03.116-.116.122-.487.449-1.01.582-1.629-.33-.3-.485.574-1.047.466-.013-.185.177-.418.349-.582.057-.054.178-.195.233-.233s.2.038.232,0a1.071,1.071,0,0,1,1.28-.233,5.189,5.189,0,0,1-.466,1.513c-.18.455-.414.907-.582,1.4.531-.007.84-.57,1.164-.93.1-.113.257-.223.349-.349s.148-.32.232-.465c.037-.063.11.016.117-.116.009-.168.221-.252.232-.466.009-.168.221-.251.233-.465.005-.1.13-.115.116-.233h.7a17.654,17.654,0,0,1-1.047,3.025c.4.3.766-.77,1.164-.465,0,.145-.164.154-.233.232-.037.043.039.193,0,.233-.07.07-.331.085-.466.233a1.43,1.43,0,0,1-1.4.465,1.721,1.721,0,0,1,.232-.931c.045-.067.083-.353.233-.465" transform="translate(-31.095 -57.636)"/>
        <path id="パス_6341" data-name="パス 6341" class="cls-5" d="M75.54,107.675c.093.442-.55.148-.815.233.083.587-.159.849-.233,1.28a2.365,2.365,0,0,0-.7.7,4.365,4.365,0,0,0-1.163.466c.143.509.671.542,1.047.815s.892.456.931.93a1.121,1.121,0,0,1-.815,1.047c-.042.017-.207-.032-.233,0a1.4,1.4,0,0,1-.582.232,3.084,3.084,0,0,1-2.211-.465c-.163-1.093.563-1.3,1.28-1.513.3-.284-.245-.248-.116-.7.2-.105.192-.428.465-.465-.231-.234-.55-.381-.7-.7-.156-.424.219-.91.233-1.164.01-.2.337-.235.349-.465.008-.146.509-.345.7-.465a1.724,1.724,0,0,1,.931-.116c.212.02.378.1.582.116.32.017,1-.407,1.047.232m-2.095,0a2.957,2.957,0,0,0-.93,2.094,1.058,1.058,0,0,0,1.047-.815c.02-.379.6-.8.349-1.28Zm.233,4.421c-.08-.092-.251-.037-.349-.116-.178-.142-.267-.338-.466-.349-.255-.014-.268-.241-.465,0-.029.035-.19-.024-.233,0a2.52,2.52,0,0,0-.232.233c-.189.17-.363.3-.349.582.153-.026.058.161.116.232.084.1.261.126.349.233.026.031.192-.015.233,0a1.653,1.653,0,0,0,1.047,0c.242-.1.506-.134.465-.465-.092-.074-.037-.259-.116-.349" transform="translate(-34.932 -57.635)"/>
        <path id="パス_6342" data-name="パス 6342" class="cls-5" d="M114.941,107.526a1.054,1.054,0,0,1-.465,1.164,3.942,3.942,0,0,1-1.047.465c-.027.01-.029.095-.116.116a1.4,1.4,0,0,1-.582.116c.024.364-.078.854.116,1.047.729.109.885-.356,1.4-.465.012.313-.218.509-.465.7a2.218,2.218,0,0,1-1.629.349c-.034-.237-.315-.228-.349-.466a1.112,1.112,0,0,1-.116-.815c0-.007.111-.027.116-.116a1.262,1.262,0,0,1,.116-.582c.027-.056.11.011.116-.116.009-.168.222-.251.233-.465a6.492,6.492,0,0,1,.7-.815c.146-.093.306-.035.465-.116.045-.023.2-.226.233-.232a1.528,1.528,0,0,1,1.28.232m-1.163.116a3.869,3.869,0,0,0-.931,1.4c.675-.217,1.277-.508,1.28-1.4Z" transform="translate(-55.135 -57.602)"/>
        <path id="パス_6343" data-name="パス 6343" class="cls-5" d="M180.8,109.53c-.146-.185-.168.164-.233.232-.2.207-.425.3-.7.582a1.976,1.976,0,0,1-.582.465c-.061.034.016.109-.116.116a1.53,1.53,0,0,1-.814.116,1.583,1.583,0,0,1,.115-1.28c.01-.026.1-.029.117-.116a3,3,0,0,1,.116-.465,7.56,7.56,0,0,0,.465-1.163c-.33-.3-.485.573-1.047.465-.043-.278.349-.507.582-.7a1.228,1.228,0,0,1,1.513-.349,5.22,5.22,0,0,1-.465,1.513c-.181.455-.414.906-.582,1.4.509.037.734-.5,1.047-.815.088-.088.274-.136.349-.233s.064-.254.116-.349c.034-.062.109.015.116-.116,0-.024-.013-.1,0-.116.076-.124.285-.237.349-.349.071-.127.057-.233.117-.349.087-.169.212-.424.349-.7h.7a7.942,7.942,0,0,1-.466,1.629c-.018.047-.109,0-.116.116-.018.354-.353.8-.465,1.28a1.158,1.158,0,0,0,.93-.582c.338.294-.318.759-.582.931a1.568,1.568,0,0,1-1.28.349,3.634,3.634,0,0,1,.466-1.513" transform="translate(-87.951 -57.628)"/>
        <path id="パス_6344" data-name="パス 6344" class="cls-5" d="M190.455,109.414a17.434,17.434,0,0,1-1.28,1.28,1.364,1.364,0,0,1-1.164.349c-.3-.6.058-1.143.233-1.629s.438-.939.582-1.4c-.552-.048-.57.439-1.047.465-.043-.278.349-.507.581-.7a1.229,1.229,0,0,1,1.513-.349,30.424,30.424,0,0,1-1.047,2.909c.374.133.5-.288.7-.466a2.56,2.56,0,0,0,.7-.814c.034-.062.11.015.117-.116,0-.1.176-.258.232-.349a13.844,13.844,0,0,0,.7-1.28h.7c-.219,1.138-.765,1.95-1.047,3.025.155.256.336-.136.466-.233.2-.15.343-.365.581-.349.066.227-.092.413-.232.582a2.3,2.3,0,0,1-1.745.7c-.048-.745.309-1.086.465-1.629" transform="translate(-92.718 -57.628)"/>
        <path id="パス_6345" data-name="パス 6345" class="cls-5" d="M105.55,4.5c.718-.02,1.591-.194,1.28.815-.257-.014-.049-.494-.116-.7-.354-.073-1,.149-1.164-.116" transform="translate(-52.117 -2.21)"/>
        <path id="パス_6346" data-name="パス 6346" class="cls-5" d="M102.084,7.525c.073-.353-.149-1,.116-1.163-.073.353.149,1-.116,1.163" transform="translate(-50.397 -3.141)"/>
        <path id="パス_6347" data-name="パス 6347" class="cls-1" d="M151.386,5.929l-.4,0,.4,0" transform="translate(-74.553 -2.928)"/>
        <path id="パス_6348" data-name="パス 6348" class="cls-1" d="M145.754,5.172c-.015.3-.019.6-.018.913,0-.312,0-.618.018-.913Z" transform="translate(-71.96 -2.554)"/>
        <path id="パス_6349" data-name="パス 6349" class="cls-1" d="M152.81,6.478a24.637,24.637,0,0,1-3.839-.116c.076-.739-.153-1.782.116-2.327,1.121-.022,4.147.323,2.909-.931-.243-.031-.494-.054-.749-.072s-.5-.031-.748-.04c-1.931.109-5.048.577-5.6.112-.269-.226-.1-1.186,0-1.163,1.628-.642,5.393.3,5.12-1.862-2-.4-4.234.856-6.283,1.164-.006.149-.149.161-.116.349-.032.16-.056.329-.075.5s-.031.346-.041.526c.093,1.27.585,3.181.116,3.744-.25.3-1.366.02-2.094.116-.307-.035-.3.243-.349.466.125.108.037.429.349.349a44.206,44.206,0,0,1,5.12.116v3.258a8.279,8.279,0,0,1-2.211.116v-.539a1.341,1.341,0,0,1,0-.278V8.107c.085-.317-.231-.234-.232-.465h-.815c-.006.149-.149.161-.116.349v4.072a.551.551,0,0,0,.116.349c.906.246.923-.4,1.28-.7h5.584c.121.5.388.855,1.164.7a10.133,10.133,0,0,0,0-4.771H150.6c-.474.612-.126,2.045-.232,3.025a9.865,9.865,0,0,1-2.444.116,20.316,20.316,0,0,1-.116-3.491h4.887a.416.416,0,0,0,.116-.815m-5-.116c-.432.517-1.807.068-2.669,0h-.356c.077-.739-.153-1.782.117-2.327h2.877v.081h.016v.749c.126.566.284,1.175.016,1.5" transform="translate(-69.707 0)"/>
        <path id="パス_6350" data-name="パス 6350" class="cls-1" d="M145.8,10.418c0,.087,0,.172,0,.258,0-.086,0-.172,0-.258" transform="translate(-71.991 -5.144)"/>
        <path id="パス_6351" data-name="パス 6351" class="cls-1" d="M147.61,20.238" transform="translate(-72.885 -9.993)"/>
        <path id="パス_6352" data-name="パス 6352" class="cls-1" d="M145.758,8.181c-.009-.39-.018-.781-.02-1.165,0,.384.011.775.02,1.165" transform="translate(-71.961 -3.464)"/>
        <path id="パス_6353" data-name="パス 6353" class="cls-1" d="M147.678,20.535a.133.133,0,0,0,.008.023.133.133,0,0,1-.008-.023" transform="translate(-72.919 -10.14)"/>
        <path id="パス_6354" data-name="パス 6354" class="cls-1" d="M126.613,8.786a1.776,1.776,0,0,0,.233-1.629c-.091-.026-.23,0-.233-.116-.878-.117-.709.782-.931,1.28-.507,1.14-1.64,2.1-1.745,3.142,1.64.274,1.515-2.2,3.723-1.745.124,2.528-2.052,2.757-2.56,4.654.955.233,1.676-.712,2.211-1.28a8.017,8.017,0,0,0,1.513-2.327V9.484c.766-.281,2.271.177,2.094-1.047-1.448-.352-2.78.392-4.3.349" transform="translate(-61.196 -3.471)"/>
        <path id="パス_6355" data-name="パス 6355" class="cls-1" d="M147.844,16.455a.956.956,0,0,1,.04.157.969.969,0,0,0-.04-.157" transform="translate(-73.001 -8.125)"/>
        <path id="パス_6356" data-name="パス 6356" class="cls-1" d="M147.61,16.015a.728.728,0,0,1,.1.172.728.728,0,0,0-.1-.172" transform="translate(-72.885 -7.908)"/>
        <path id="パス_6357" data-name="パス 6357" class="cls-1" d="M147.9,17.836c0,.036-.011.073-.016.109.006-.036.012-.072.016-.109" transform="translate(-73.021 -8.807)"/>
        <path id="パス_6358" data-name="パス 6358" class="cls-1" d="M147.948,17.383c0,.047-.006.094-.011.141,0-.047.008-.094.011-.141" transform="translate(-73.047 -8.583)"/>
        <path id="パス_6359" data-name="パス 6359" class="cls-1" d="M147.94,16.841a1.358,1.358,0,0,1,.011.2,1.358,1.358,0,0,0-.011-.2" transform="translate(-73.048 -8.316)"/>
        <path id="パス_6360" data-name="パス 6360" class="cls-1" d="M98.587,5.666c-.265.161-.043.81-.116,1.163a11.79,11.79,0,0,1-1.978,5.236c-.585.749-1.749,1.075-1.745,2.094,2.631-.475,5.015-4.377,5.236-7.446.107-1.48-.784-2.524-1.4-1.047" transform="translate(-46.783 -2.445)"/>
        <path id="パス_6361" data-name="パス 6361" class="cls-1" d="M107.3,2.767c-.651-.158-2.2-.281-2.676.116-.047.434.093.682.465.7.161.266.81.044,1.164.116.067.205-.141.684.116.7.232,4.034,1.678,6.854,4.422,8.377.658-.272,1.377-.484,1.512-1.28-3.447-1.13-4.8-4.357-5-8.726" transform="translate(-51.655 -1.292)"/>
        <path id="パス_6362" data-name="パス 6362" class="cls-1" d="M156.4,5.889h0c-1.051-.039-2.166-.016-3.274,0,1.107-.016,2.222-.04,3.273,0" transform="translate(-75.61 -2.897)"/>
        <path id="パス_6363" data-name="パス 6363" class="cls-1" d="M148.281,10.3h.116V7.971c-.27.545-.04,1.589-.116,2.327" transform="translate(-73.207 -3.936)"/>
        <path id="パス_6364" data-name="パス 6364" class="cls-1" d="M154.13,8.051V7.97h-.085c0,.025,0,.055,0,.081Z" transform="translate(-76.062 -3.935)"/>
        <path id="パス_6365" data-name="パス 6365" class="cls-1" d="M151.322,10.161h-2.684V8.051h2.684V7.97H148.53V10.3h2.792Z" transform="translate(-73.339 -3.935)"/>
        <path id="パス_6366" data-name="パス 6366" class="cls-1" d="M156.556,10.3h.116V7.971c-.27.545-.041,1.589-.116,2.327" transform="translate(-77.293 -3.936)"/>
        <path id="パス_6367" data-name="パス 6367" class="cls-1" d="M160.414,12.665a23.089,23.089,0,0,0-3.723-.116h-.116a24.7,24.7,0,0,0,3.839.116" transform="translate(-77.312 -6.186)"/>
        <path id="パス_6368" data-name="パス 6368" class="cls-1" d="M141.864,14.387a42.1,42.1,0,0,0,5,.116h.116a44.092,44.092,0,0,0-5.12-.116" transform="translate(-70.048 -7.094)"/>
        <path id="パス_6369" data-name="パス 6369" class="cls-1" d="M154.374,17.9V14.523a38.234,38.234,0,0,0,4.77-.116h-4.887a20.311,20.311,0,0,0,.116,3.49" transform="translate(-76.158 -7.114)"/>
        <path id="パス_6370" data-name="パス 6370" class="cls-1" d="M145.17,19.857V15.785a14.326,14.326,0,0,0,0,4.072" transform="translate(-71.609 -7.794)"/>
        <path id="パス_6371" data-name="パス 6371" class="cls-1" d="M156.95,21.072h-2.443v.116a9.861,9.861,0,0,0,2.443-.116" transform="translate(-76.291 -10.405)"/>
        <path id="パス_6372" data-name="パス 6372" class="cls-1" d="M143.959,8.917c.469-.562-.023-2.474-.116-3.744-.016.3-.019.6-.018.913,0,.007,0,.014,0,.02,0,.384.012.775.02,1.165.005.187.008.373.011.558q0,.129,0,.258c0,.282,0,.561-.015.83-.623.075-1.55-.153-1.979.116.729-.1,1.845.184,2.095-.116" transform="translate(-70.048 -2.554)"/>
        <path id="パス_6373" data-name="パス 6373" class="cls-1" d="M145.813,4.134c-.019.17-.031.346-.041.526.01-.18.023-.355.041-.526" transform="translate(-71.977 -2.041)"/>
        <path id="パス_6374" data-name="パス 6374" class="cls-1" d="M147.61,20.238" transform="translate(-72.885 -9.993)"/>
        <path id="パス_6375" data-name="パス 6375" class="cls-1" d="M147.749,17.046c.006-.036.012-.073.016-.109s.007-.059.01-.089c.005-.048.008-.095.011-.141,0-.025,0-.05,0-.074a1.426,1.426,0,0,0-.011-.2c0-.013-.006-.025-.008-.038a.957.957,0,0,0-.04-.157c-.007-.017-.013-.034-.02-.051a.746.746,0,0,0-.1-.172v1.86c.023-.255.093-.544.139-.829" transform="translate(-72.885 -7.908)"/>
        <path id="パス_6376" data-name="パス 6376" class="cls-1" d="M147.61,18.011a8.279,8.279,0,0,0,2.211-.116V14.636H149.7v3.258c-.794-.228-1.568.376-1.978-.116a.5.5,0,0,1-.075-.133c0-.008-.005-.015-.008-.023a.731.731,0,0,1-.034-.15Z" transform="translate(-72.885 -7.227)"/>
        <path id="パス_6377" data-name="パス 6377" class="cls-1" d="M160.341,5.95c-.244-.018-.495-.031-.747-.04h0c.253.009.5.022.748.04" transform="translate(-78.802 -2.918)"/>
        <path id="パス_6378" data-name="パス 6378" class="cls-1" d="M148.389,5c.552.464,3.669,0,5.6-.113-1.051-.039-2.166-.015-3.273,0l-.684.008-.4,0c-.42,0-.837,0-1.244-.015V3.833c-.1-.022-.269.937,0,1.164" transform="translate(-73.198 -1.892)"/>
        <path id="パス_6379" data-name="パス 6379" class="cls-1" d="M151.657,10.97h-.1v.137H149c.862.067,2.238.517,2.669,0,.269-.322.11-.931-.016-1.5Z" transform="translate(-73.573 -4.745)"/>
        <line id="線_171" data-name="線 171" class="cls-6" x1="0.116" transform="translate(75.074 6.362)"/>
        <line id="線_172" data-name="線 172" class="cls-6" x1="0.239" transform="translate(75.19 6.362)"/>
        <path id="パス_6380" data-name="パス 6380" class="cls-1" d="M154.046,8.051c0-.026,0-.056,0-.081v.081Z" transform="translate(-76.062 -3.935)"/>
      </g>
    </g>
  </g>
</svg>
