<svg xmlns="http://www.w3.org/2000/svg" width="126.088" height="9.571" viewBox="0 0 126.088 9.571">
  <defs>
    <style>
      .cls-1 {
        fill: #306e1d;
      }

      .cls-2 {
        fill: #406d2a;
      }
    </style>
  </defs>
  <g id="グループ_757" data-name="グループ 757" transform="translate(1 1)">
    <g id="グループ_759" data-name="グループ 759" transform="translate(0 0)">
      <path id="パス_7263" data-name="パス 7263" class="cls-1" d="M0,1.513a6.258,6.258,0,0,1,3.3.843A9.969,9.969,0,0,1,5.1,3.77,21.522,21.522,0,0,0,7.952,6.277,7.576,7.576,0,0,0,9.9,7.211a8.367,8.367,0,0,0,2.509.36,7.792,7.792,0,0,0,4.066-1.05A11.438,11.438,0,0,0,18.548,4.9,20.54,20.54,0,0,1,21.2,2.555,6.042,6.042,0,0,1,22.758,1.8a6.852,6.852,0,0,1,2.059-.291,6.258,6.258,0,0,1,3.3.843,9.959,9.959,0,0,1,1.8,1.414,21.541,21.541,0,0,0,2.852,2.507,7.576,7.576,0,0,0,1.948.934,8.367,8.367,0,0,0,2.509.36,7.791,7.791,0,0,0,4.066-1.05A11.447,11.447,0,0,0,43.365,4.9a20.535,20.535,0,0,1,2.648-2.344A6.04,6.04,0,0,1,47.574,1.8a6.85,6.85,0,0,1,2.058-.291,6.259,6.259,0,0,1,3.3.843,9.967,9.967,0,0,1,1.8,1.414,21.544,21.544,0,0,0,2.853,2.507,7.569,7.569,0,0,0,1.948.934,8.369,8.369,0,0,0,2.509.36,7.792,7.792,0,0,0,4.066-1.05A11.451,11.451,0,0,0,68.181,4.9a20.518,20.518,0,0,1,2.648-2.345A6.042,6.042,0,0,1,72.391,1.8a6.852,6.852,0,0,1,2.059-.291,6.259,6.259,0,0,1,3.3.843,9.984,9.984,0,0,1,1.8,1.414A21.5,21.5,0,0,0,82.4,6.277a7.576,7.576,0,0,0,1.948.934,8.369,8.369,0,0,0,2.509.36,7.793,7.793,0,0,0,4.066-1.05A11.438,11.438,0,0,0,93,4.9a20.52,20.52,0,0,1,2.648-2.345A6.042,6.042,0,0,1,97.209,1.8a6.852,6.852,0,0,1,2.059-.291,6.261,6.261,0,0,1,3.3.843,9.985,9.985,0,0,1,1.8,1.414,21.465,21.465,0,0,0,2.853,2.507,7.571,7.571,0,0,0,1.948.934,8.371,8.371,0,0,0,2.509.36,7.794,7.794,0,0,0,4.067-1.05A11.451,11.451,0,0,0,117.818,4.9a20.541,20.541,0,0,1,2.649-2.345,6.049,6.049,0,0,1,1.562-.751,6.855,6.855,0,0,1,2.059-.291V0a7.792,7.792,0,0,0-4.067,1.05,11.438,11.438,0,0,0-2.074,1.621A20.563,20.563,0,0,1,115.3,5.015a6.062,6.062,0,0,1-1.562.751,6.866,6.866,0,0,1-2.059.291,6.261,6.261,0,0,1-3.3-.843,9.982,9.982,0,0,1-1.8-1.414,21.482,21.482,0,0,0-2.853-2.507A7.568,7.568,0,0,0,101.776.36,8.371,8.371,0,0,0,99.267,0,7.789,7.789,0,0,0,95.2,1.05a11.451,11.451,0,0,0-2.074,1.621,20.561,20.561,0,0,1-2.648,2.345,6.062,6.062,0,0,1-1.562.751,6.862,6.862,0,0,1-2.059.291,6.263,6.263,0,0,1-3.3-.843,10,10,0,0,1-1.8-1.414,21.481,21.481,0,0,0-2.853-2.507A7.561,7.561,0,0,0,76.958.36,8.367,8.367,0,0,0,74.449,0a7.788,7.788,0,0,0-4.066,1.05A11.451,11.451,0,0,0,68.31,2.671a20.541,20.541,0,0,1-2.648,2.345,6.062,6.062,0,0,1-1.562.751,6.862,6.862,0,0,1-2.059.291,6.262,6.262,0,0,1-3.3-.843,9.994,9.994,0,0,1-1.8-1.414,21.5,21.5,0,0,0-2.853-2.507A7.559,7.559,0,0,0,52.141.36,8.369,8.369,0,0,0,49.632,0a7.788,7.788,0,0,0-4.066,1.05,11.446,11.446,0,0,0-2.073,1.621,20.536,20.536,0,0,1-2.648,2.345,6.065,6.065,0,0,1-1.561.751,6.862,6.862,0,0,1-2.059.291,6.262,6.262,0,0,1-3.3-.843,10.007,10.007,0,0,1-1.8-1.414,21.478,21.478,0,0,0-2.852-2.507A7.559,7.559,0,0,0,27.326.36,8.369,8.369,0,0,0,24.817,0a7.788,7.788,0,0,0-4.066,1.05,11.451,11.451,0,0,0-2.074,1.621,20.54,20.54,0,0,1-2.648,2.345,6.062,6.062,0,0,1-1.562.751,6.862,6.862,0,0,1-2.059.291,6.262,6.262,0,0,1-3.3-.843A10.007,10.007,0,0,1,7.309,3.8,21.478,21.478,0,0,0,4.457,1.294,7.561,7.561,0,0,0,2.509.36,8.367,8.367,0,0,0,0,0Z" transform="translate(0 0)"/>
      <path id="パス_7263_-_アウトライン" data-name="パス 7263 - アウトライン" class="cls-2" d="M24.8-1h.022a9.422,9.422,0,0,1,2.8.405,8.495,8.495,0,0,1,2.2,1.056,16.588,16.588,0,0,1,2.411,2.057c.2.194.386.377.574.555A9.181,9.181,0,0,0,34.43,4.352a5.305,5.305,0,0,0,2.8.705,5.876,5.876,0,0,0,1.76-.247,5.026,5.026,0,0,0,1.306-.63,13.817,13.817,0,0,0,1.923-1.667c.19-.185.386-.376.588-.569A12.454,12.454,0,0,1,45.061.188,8.836,8.836,0,0,1,49.613-1h.021a9.422,9.422,0,0,1,2.8.405,8.495,8.495,0,0,1,2.2,1.056,16.591,16.591,0,0,1,2.41,2.056c.2.194.386.378.575.556a9.168,9.168,0,0,0,1.618,1.279,5.306,5.306,0,0,0,2.8.705,5.876,5.876,0,0,0,1.76-.247,5.023,5.023,0,0,0,1.306-.63,13.833,13.833,0,0,0,1.924-1.668c.189-.185.385-.376.587-.568A12.464,12.464,0,0,1,69.878.187,8.837,8.837,0,0,1,74.43-1h.022a9.419,9.419,0,0,1,2.8.405,8.5,8.5,0,0,1,2.2,1.056,16.6,16.6,0,0,1,2.412,2.058c.2.194.385.377.573.554a9.175,9.175,0,0,0,1.618,1.279,5.306,5.306,0,0,0,2.8.706,5.877,5.877,0,0,0,1.76-.247,5.023,5.023,0,0,0,1.306-.63,13.855,13.855,0,0,0,1.924-1.669c.189-.185.385-.375.587-.567A12.463,12.463,0,0,1,94.7.187,8.837,8.837,0,0,1,99.248-1h.021a9.423,9.423,0,0,1,2.8.405,8.5,8.5,0,0,1,2.2,1.055,16.6,16.6,0,0,1,2.412,2.058c.2.194.385.377.573.554a9.159,9.159,0,0,0,1.618,1.278,5.3,5.3,0,0,0,2.8.706,5.881,5.881,0,0,0,1.761-.247,5.023,5.023,0,0,0,1.306-.629,13.846,13.846,0,0,0,1.924-1.668c.19-.185.386-.376.588-.568A12.444,12.444,0,0,1,119.516.187,8.841,8.841,0,0,1,124.069-1h.022a1,1,0,0,1,1,1V1.513a1,1,0,0,1-1,1,5.874,5.874,0,0,0-1.763.246,5.013,5.013,0,0,0-1.307.63A13.824,13.824,0,0,0,119.1,5.057c-.19.185-.386.376-.588.568a12.463,12.463,0,0,1-2.257,1.758A8.843,8.843,0,0,1,111.7,8.571h-.021a9.424,9.424,0,0,1-2.8-.405,8.506,8.506,0,0,1-2.2-1.055,16.6,16.6,0,0,1-2.413-2.059c-.2-.194-.385-.376-.573-.554a9.165,9.165,0,0,0-1.618-1.279,5.3,5.3,0,0,0-2.8-.706,5.866,5.866,0,0,0-1.76.246,5.005,5.005,0,0,0-1.307.629,13.822,13.822,0,0,0-1.925,1.668c-.189.185-.385.376-.587.567a12.446,12.446,0,0,1-2.256,1.758,8.841,8.841,0,0,1-4.553,1.188h-.021a9.422,9.422,0,0,1-2.8-.405,8.514,8.514,0,0,1-2.2-1.055,16.613,16.613,0,0,1-2.412-2.058c-.2-.194-.385-.377-.574-.554a9.163,9.163,0,0,0-1.618-1.279,5.3,5.3,0,0,0-2.8-.706,5.866,5.866,0,0,0-1.76.246,5.005,5.005,0,0,0-1.307.629,13.809,13.809,0,0,0-1.924,1.668c-.19.185-.386.376-.588.568a12.463,12.463,0,0,1-2.257,1.758A8.84,8.84,0,0,1,62.06,8.571h-.021a9.422,9.422,0,0,1-2.8-.405,8.5,8.5,0,0,1-2.2-1.055,16.605,16.605,0,0,1-2.409-2.055c-.2-.195-.387-.379-.577-.557a9.139,9.139,0,0,0-1.617-1.279,5.3,5.3,0,0,0-2.8-.706,5.865,5.865,0,0,0-1.759.246,5,5,0,0,0-1.306.629,13.828,13.828,0,0,0-1.924,1.668c-.189.185-.385.376-.587.567A12.455,12.455,0,0,1,41.8,7.383a8.84,8.84,0,0,1-4.552,1.188h-.021a9.418,9.418,0,0,1-2.8-.405,8.512,8.512,0,0,1-2.2-1.055,16.622,16.622,0,0,1-2.411-2.057c-.2-.194-.386-.378-.575-.555a9.131,9.131,0,0,0-1.617-1.279,5.3,5.3,0,0,0-2.8-.706,5.866,5.866,0,0,0-1.76.246,5,5,0,0,0-1.307.629,13.809,13.809,0,0,0-1.923,1.667c-.19.185-.387.377-.589.569A12.447,12.447,0,0,1,16.98,7.383a8.841,8.841,0,0,1-4.553,1.188h-.021a9.418,9.418,0,0,1-2.8-.405A8.513,8.513,0,0,1,7.4,7.11a16.606,16.606,0,0,1-2.41-2.057c-.2-.194-.387-.378-.575-.556A9.148,9.148,0,0,0,2.8,3.219,5.3,5.3,0,0,0,0,2.513a1,1,0,0,1-1-1V0A1,1,0,0,1,0-1a9.423,9.423,0,0,1,2.806.405A8.5,8.5,0,0,1,5.01.461,16.589,16.589,0,0,1,7.421,2.518c.2.194.386.377.574.555A9.181,9.181,0,0,0,9.613,4.352a5.305,5.305,0,0,0,2.8.705,5.877,5.877,0,0,0,1.76-.247,5.023,5.023,0,0,0,1.306-.63A13.834,13.834,0,0,0,17.4,2.513c.189-.185.385-.376.587-.567A12.464,12.464,0,0,1,20.245.187,8.837,8.837,0,0,1,24.8-1Z" transform="translate(0 0)"/>
    </g>
  </g>
</svg>
