<svg xmlns="http://www.w3.org/2000/svg" width="26.085" height="17.157" viewBox="0 0 26.085 17.157">
  <defs>
    <style>
      .cls-1 {
        fill: #a79d7d;
      }
    </style>
  </defs>
  <g id="グループ_797" data-name="グループ 797" transform="translate(2 2)">
    <path id="線_185" data-name="線 185" class="cls-1" d="M22.085,2H0A2,2,0,0,1-2,0,2,2,0,0,1,0-2H22.085a2,2,0,0,1,2,2A2,2,0,0,1,22.085,2Z" transform="translate(0 6.579)"/>
    <path id="線_186" data-name="線 186" class="cls-1" d="M6.579,8.579a1.994,1.994,0,0,1-1.414-.586L-1.414,1.414a2,2,0,0,1,0-2.828,2,2,0,0,1,2.828,0L7.993,5.164A2,2,0,0,1,6.579,8.579Z" transform="translate(15.507)"/>
    <path id="線_187" data-name="線 187" class="cls-1" d="M0,8.579a1.994,1.994,0,0,1-1.414-.586,2,2,0,0,1,0-2.828L5.164-1.414a2,2,0,0,1,2.828,0,2,2,0,0,1,0,2.828L1.414,7.993A1.994,1.994,0,0,1,0,8.579Z" transform="translate(15.507 6.579)"/>
  </g>
</svg>
