<svg id="グループ_773" data-name="グループ 773" xmlns="http://www.w3.org/2000/svg" xmlns:xlink="http://www.w3.org/1999/xlink" width="292.126" height="228.564" viewBox="0 0 292.126 228.564">
  <defs>
    <style>
      .cls-1 {
        fill: none;
      }

      .cls-2 {
        clip-path: url(#clip-path);
      }

      .cls-3 {
        fill: #9ec3bc;
      }

      .cls-4 {
        fill: #aa998a;
      }

      .cls-5 {
        fill: #afaaa7;
      }

      .cls-6 {
        fill: #a89f98;
      }

      .cls-7 {
        fill: #ffdbb0;
      }

      .cls-8 {
        fill: #d8735b;
      }

      .cls-9 {
        fill: #fffff3;
      }

      .cls-10 {
        fill: #6b5136;
      }

      .cls-11, .cls-12 {
        fill: #7c6351;
      }

      .cls-12 {
        fill-rule: evenodd;
      }
    </style>
    <clipPath id="clip-path">
      <rect id="長方形_715" data-name="長方形 715" class="cls-1" width="292.126" height="228.564"/>
    </clipPath>
  </defs>
  <g id="グループ_772" data-name="グループ 772" class="cls-2">
    <path id="パス_7338" data-name="パス 7338" class="cls-3" d="M273.123,170.551c-.572,32.649-51.739,58.226-114.285,57.13s-112.785-28.45-112.213-61.1,51.739-58.226,114.285-57.13,112.785,28.45,112.214,61.1" transform="translate(-5.093 -11.954)"/>
    <path id="パス_7339" data-name="パス 7339" class="cls-4" d="M238.429,103.106c.177-6.843-6.392-12.132-17.1-10.305-8.937,1.525-7.653,1.3-17.2-.52-7.692-1.466-12.131-.64-15.2,6.478s-1.823,9.087,6.905,14.705,22.384,5.78,29.558,5.5,12.758-5.08,13.038-15.86" transform="translate(-20.475 -10.015)"/>
    <path id="パス_7340" data-name="パス 7340" class="cls-5" d="M81.479,109.57c-5.324-6.819-14.854-7.1-22.034,2.637-5.995,8.134-5.138,6.959-14.3,12.28-7.381,4.284-10.3,8.392-7.094,17.631s5.789,10.236,17.324,9.239,22.687-10.99,28.254-16.6,6.24-14.449-2.148-25.19" transform="translate(-4.016 -11.433)"/>
    <path id="パス_7341" data-name="パス 7341" class="cls-6" d="M99.913,94.488c17.623,3.238,22.139-7.542,32.981,3.543,5.874,6.006,7.219,12.015-4.431,20.266s-38.114,10.663-42.311-2.564C81.715,101.747,84.47,91.65,99.913,94.488" transform="translate(-9.203 -10.148)"/>
    <path id="パス_7342" data-name="パス 7342" class="cls-6" d="M242.439,123.026c13.076,1.895,12.56,11.247,23.633,5.467,6-3.132,8.916-7.388,3.735-16.577s-22.4-17.59-29.66-8.526c-7.679,9.581-9.167,17.975,2.292,19.636" transform="translate(-25.578 -10.871)"/>
    <path id="パス_7343" data-name="パス 7343" class="cls-4" d="M22.039,157.182c1.724-8.436,8.3-12.808,16.174-7.139,6.574,4.733,5.63,4.046,13.595,4.878,6.414.671,9.66,3.106,10.124,12.807s-1.048,11.712-9.4,15.795-19.078-.1-24.612-2.738-8.594-10.312-5.878-23.6" transform="translate(-2.298 -16.113)"/>
    <path id="パス_7344" data-name="パス 7344" class="cls-5" d="M72.106,184.289c-9.71-5.631-18.752-2.419-30.159,2.612s-11.92,20.827-7.056,24.869c13.814,11.478,23.768,19.286,41.508,14.986,14.693-3.561,12.213-20.013,6.119-27.244s-3.1-10.979-10.412-15.222" transform="translate(-3.494 -19.809)"/>
    <path id="パス_7345" data-name="パス 7345" class="cls-4" d="M89.657,219.2c.983-8.579,8.326-13.678,18.52-8.951,8.512,3.947,7.29,3.372,16.971,3.284,7.8-.071,12.013,1.976,13.822,11.56s.252,11.756-9.264,16.772-22.944,2.1-29.937.108S88.108,232.711,89.657,219.2" transform="translate(-9.763 -22.773)"/>
    <path id="パス_7346" data-name="パス 7346" class="cls-5" d="M159.163,81.222c9.044-.965,14.945,4.055,22.1,11.07s2.834,18.227-2.06,19.564c-13.9,3.8-23.777,6.209-35.951-2.237-10.083-7-3.3-17.746,3.478-20.938s5.621-6.733,12.435-7.46" transform="translate(-15.091 -8.861)"/>
    <path id="パス_7347" data-name="パス 7347" class="cls-5" d="M267.919,130.348c-1.452,6.512.087,9.362,5.369,12.094,7.857,4.064,5.118,5.6,10.632,11.981,4.693,5.43,10.432,8.012,17.949,5.1s11.759-6.469,10.346-17.451-8.3-16.25-21.279-19.971c-19.434-5.573-21.125-.228-23.016,8.252" transform="translate(-29.214 -13.09)"/>
    <path id="パス_7348" data-name="パス 7348" class="cls-6" d="M307.5,158.677c7.753,11.717,16.377,3.608,15.948,19.519-.234,8.622-2.937,15.03-14,17.231s-26.866-8.433-21.59-23.146c5.577-15.555,12.851-23.871,19.645-13.6" transform="translate(-31.334 -16.841)"/>
    <path id="パス_7349" data-name="パス 7349" class="cls-4" d="M295.048,189.117c-3.905-7.7-12.561-9.931-20.477-1.953-6.608,6.659-5.662,5.7-14.769,8.979-7.335,2.645-10.577,6.029-8.941,15.645s3.852,11.11,14.517,12.505,22.242-6.013,28.107-10.308,7.715-12.734,1.563-24.868" transform="translate(-27.362 -19.901)"/>
    <path id="パス_7350" data-name="パス 7350" class="cls-5" d="M215.675,200.246c10.411-4.195,18.906.27,29.482,6.87s8.839,22.311,3.45,25.62c-15.3,9.4-26.267,15.713-43.216,8.935-14.037-5.613-9.245-21.545-2.185-27.837s4.626-10.428,12.47-13.588" transform="translate(-21.453 -21.699)"/>
    <path id="パス_7351" data-name="パス 7351" class="cls-6" d="M190.5,225c-2.852-7.22-6.017-8.915-12.407-7.976-9.508,1.4-8.068-1.922-16.978-4.324-7.583-2.043-14.281-.654-19.058,7.2s-6.265,14.121,1.95,23.7,17.631,9.985,31.435,4.812C196.119,240.661,194.218,234.4,190.5,225" transform="translate(-15.095 -23.146)"/>
    <path id="パス_7352" data-name="パス 7352" class="cls-7" d="M238.143,149.117a15.494,15.494,0,0,0-3.627-7.7c-3.322-3.691-8.232-6.227-10.927-7.413a10.943,10.943,0,0,1-5.55-5.678,45.539,45.539,0,0,1-1.45-4.952c-.513.053-4.615.248-5.026.253a15.933,15.933,0,0,1-1.636,6.483A11.676,11.676,0,0,1,205.5,134.7c-2.345,1.452-8.721,5.971-11.508,9.155-.706.805-3.035,4.17-1.71,7.151,1.439,3.237,9.24-2.429,14.748-.81,12.976,3.816,12.409-2.157,22.121,1.08,5.017,1.672,9.471.839,8.992-2.158" transform="translate(-20.964 -13.479)"/>
    <path id="パス_7353" data-name="パス 7353" class="cls-7" d="M226.285,116.606c3.5-6.71,4.953-15.967-3.4-19.691s-13.2,3.071-14.956,4.921c-2.159,2.27.24,5.88-2.841,8.254-.659,5.474-.029,6.5.46,7.78a13.22,13.22,0,0,0,5.645,6.325c2.15,1.03,5.723.295,7.817-.606a15.77,15.77,0,0,0,4.57-2.971,3.206,3.206,0,0,0,2.224-.559,4.839,4.839,0,0,0,1.6-2.32.992.992,0,0,0-1.117-1.133" transform="translate(-22.376 -10.468)"/>
    <path id="パス_7354" data-name="パス 7354" class="cls-8" d="M222.045,93.012c2.856.113,5.915,1.945,7.827,3.331,1.724,1.252,2.74,3.547,3.46,5.888a18.65,18.65,0,0,1,.72,9.864c-.929,4.248-3.488,8.765-7.78,9.484-4.53.759-6.576,4.407-10.2,2.145-1.655-1.034-4.181-1.385-4.528-4.7-.485-4.636,2.861-4.9,2.4-7.062-.372-1.751-.86-1.588-1.79-1.086s1.181-3.828-.722-4.814c-2.276-1.178-5-3.311-4.935-5.824.037-1.6,2.146-3.722,5.067-4.1,4.106-.538,4.9-3.345,10.478-3.123" transform="translate(-22.561 -10.161)"/>
    <path id="パス_7355" data-name="パス 7355" class="cls-8" d="M245.576,105.532c-1.21,4.48-2.214,1.641-4.565,5.184a4.058,4.058,0,0,1-5.8.7c-1.582-1.369-.049-1.41-2.037-3.1s-2.727-2.535-2.526-4.586-.917-3.708.934-5.24,2.928-.651,4.043-1.392,2.171-2.14,4.3-.386,4.268,1.235,4.82,2.755,2.519,2.438.827,6.062" transform="translate(-25.182 -10.474)"/>
    <path id="パス_7356" data-name="パス 7356" class="cls-7" d="M103.026,175.973c-.387-3.575,1.949-6.686,4.252-9.277a30.026,30.026,0,0,1,9.285-6.422c2.595-1.14,4.88-2.784,5.114-5.948.193-2.609-1.3-4.6-1.063-5.508.55.058,8.432.3,8.874.306-.008.6.32,4.6,1.757,6.967A12.562,12.562,0,0,0,136,161.025c2.522,1.561,9.373,6.416,12.369,9.838.759.866,3.262,4.481,1.838,7.685-1.546,3.479-9.929-2.61-15.849-.869-13.946,4.1-12.682-2.189-23.119,1.29-5.392,1.8-7.864.248-8.214-3" transform="translate(-11.251 -16.259)"/>
    <path id="パス_7357" data-name="パス 7357" class="cls-3" d="M308.255,1.959c-1.172.359,3.415,7.677,2.107,12.553-.8,2.971-4.408,2.36-5.7,6.492-.638,2.049,1.187,4.021-1.537,6.015-1.194.874-6.2,2.854-9.45,9.241-2.046,4.017-2.961,12.389-2.287,12.747s3-7.924,4.779-10.956c2.651-4.51,8.224-5.957,10.3-7.678,3.641-3.014.915-8.078,3.3-9.736,1.039-.722,2.851-1.292,3.929-4.436,2.586-7.533-3.9-14.716-5.449-14.241" transform="translate(-31.812 -0.212)"/>
    <path id="パス_7358" data-name="パス 7358" class="cls-3" d="M23.392.022c1.172.359-3.415,7.677-2.107,12.553.8,2.971,4.408,2.36,5.7,6.492.638,2.049-1.187,4.021,1.537,6.015,1.194.874,6.2,2.854,9.45,9.241,2.046,4.017,2.961,12.389,2.287,12.747s-3-7.925-4.779-10.957c-2.651-4.51-8.224-5.957-10.3-7.678-3.641-3.014-.915-8.078-3.3-9.735-1.04-.722-2.851-1.293-3.929-4.437C15.357,6.731,21.842-.453,23.392.022" transform="translate(-1.895 0)"/>
    <path id="パス_7359" data-name="パス 7359" class="cls-3" d="M278.555,9.647c-.861.451,2.545,8.815,1.6,14.514-.575,3.471-3.235,2.866-4.166,7.7-.461,2.4.891,4.635-1.107,7.028a23.041,23.041,0,0,0-6.918,11c-1.489,4.723-2.128,14.468-1.63,14.865s2.173-9.286,3.472-12.859c1.933-5.312,6.029-7.153,7.553-9.211,2.668-3.6.64-9.4,2.389-11.4a8.448,8.448,0,0,0,2.874-5.264c1.872-8.819-2.931-16.972-4.069-16.376" transform="translate(-29.08 -1.051)"/>
    <path id="パス_7360" data-name="パス 7360" class="cls-3" d="M58.476,23.578c.861.451-2.545,8.815-1.6,14.514.575,3.471,3.236,2.866,4.166,7.7.461,2.4-.891,4.634,1.107,7.028a23.028,23.028,0,0,1,6.918,11c1.489,4.723,2.129,14.468,1.63,14.865S68.522,69.4,67.223,65.827c-1.933-5.312-6.029-7.153-7.553-9.211-2.668-3.6-.64-9.4-2.389-11.4a8.452,8.452,0,0,1-2.874-5.264c-1.872-8.819,2.931-16.972,4.069-16.376" transform="translate(-5.897 -2.573)"/>
    <path id="パス_7361" data-name="パス 7361" class="cls-4" d="M250.217,225.876c3.041-1.757-5.317,5.715-13.62,9.71-5.248,2.526-11.65,4.356-15.229,4.417s-2.047-.155,3.695-1.495a45.483,45.483,0,0,0,12.359-4.619c4.878-2.6,9.5-6.111,12.795-8.014" transform="translate(-23.975 -24.649)"/>
    <path id="パス_7362" data-name="パス 7362" class="cls-9" d="M103.2,192.549c3.622-3,8.581.616,12.437,1.155a9.6,9.6,0,0,0,5.124-.754c1.777-.744,3.4-1.865,5.25-2.434,3.406-1.048,6.634,1.186,9.56,2.633,2.595,1.283,5.317,2.168,8.13,1.028.87-.353.085-.88-.552-.622-2.554,1.035-5.239-.433-7.485-1.591-2.141-1.1-4.351-2.341-6.8-2.544-2.89-.239-5.331,1.341-7.831,2.534a8.152,8.152,0,0,1-5.4.825c-1.738-.353-3.372-1.077-5.063-1.591-2.908-.883-6.023-.931-8.466,1.09-.608.5.729.575,1.1.27" transform="translate(-11.137 -20.692)"/>
    <path id="パス_7363" data-name="パス 7363" class="cls-9" d="M241.236,166.226c3.42-3.086,8.622-.632,12.579-.379a15.7,15.7,0,0,0,5.755-.983,17.684,17.684,0,0,1,7.156-.609c.54.061,1.428-.693.519-.8a19.614,19.614,0,0,0-7.053.468c-1.22.312-2.393.846-3.639,1.048a13.918,13.918,0,0,1-4.693-.257c-3.917-.71-8.435-1.7-11.716,1.263-.585.528.746.556,1.091.245" transform="translate(-26.221 -17.845)"/>
    <path id="パス_7364" data-name="パス 7364" class="cls-9" d="M222.338,178.131c4.31-3.2,10.428-.858,15.229-.5a22.035,22.035,0,0,0,7.281-.9,26.563,26.563,0,0,1,9.053-.66c.539.051,1.43-.71.519-.795a28.756,28.756,0,0,0-8.712.5c-1.5.322-2.959.849-4.488,1.031a20.379,20.379,0,0,1-5.2-.2c-4.717-.651-10.345-2.01-14.531,1.1-.734.544.41.754.847.428" transform="translate(-24.172 -19.135)"/>
    <path id="パス_7365" data-name="パス 7365" class="cls-4" d="M322.117,181.133c1.089-1.536-.832,4.407-4.131,8.079-2.086,2.321-5.139,4.339-7.236,4.841s-1.276.163,1.584-1.45a16.5,16.5,0,0,0,5.452-4.6c1.838-2.32,3.151-5.2,4.331-6.869" transform="translate(-33.822 -19.762)"/>
    <path id="パス_7366" data-name="パス 7366" class="cls-5" d="M35.969,179.641c1.269,1.39-4.13-1.749-7.018-5.752a16.806,16.806,0,0,1-3.2-8.1c-.045-2.156.111-1.281,1.081,1.855a16.5,16.5,0,0,0,3.34,6.3c1.876,2.287,4.417,4.184,5.793,5.69" transform="translate(-2.813 -17.983)"/>
    <path id="パス_7367" data-name="パス 7367" class="cls-4" d="M181.987,102.73c1.557-1.06-2.316,3.84-6.689,6.133a16.8,16.8,0,0,1-8.468,2.016c-2.14-.26-1.253-.291,1.99-.807a16.522,16.522,0,0,0,6.714-2.413c2.531-1.533,4.767-3.78,6.453-4.928" transform="translate(-18.099 -11.207)"/>
    <path id="パス_7368" data-name="パス 7368" class="cls-7" d="M154.826,174.189c2.739-5.16-4.4-15.69-4.588-17.313s-1.041-9.408-1.365-10.421-.979-1.831-1.741-1.61c-.492.143-.224,1.049-.419,1.157-.207.071-.331-.473-.706-.882-.811-.884-1.113-1.55-1.936-.729s-1.086,1.565-1.749,1.2-.571-2.484-1.579-2.307-.839,1.55-.873,2.7a34.454,34.454,0,0,0,1.094,5.158,10.816,10.816,0,0,1,.15,1.847c-.041.692-1.538.186-1.917.986s5.246,5.173,6.078,6.066c.2.216,2.409,8.5,2.858,9.816.852,2.494,5.081,7.373,6.694,4.333" transform="translate(-15.206 -15.653)"/>
    <path id="パス_7369" data-name="パス 7369" class="cls-7" d="M120.24,142.334c-3.757-6.168-5.736-14.892,1.983-18.972s12.765,2.085,14.559,3.735c2.2,2.024.146,5.615,3.233,7.68.976,5.172.442,6.192.058,7.44A12.625,12.625,0,0,1,135.1,148.6c-1.983,1.118-5.433.646-7.485-.078a15.063,15.063,0,0,1-4.541-2.538,3.063,3.063,0,0,1-2.155-.392,4.617,4.617,0,0,1-1.671-2.108.947.947,0,0,1,.992-1.151" transform="translate(-12.775 -13.328)"/>
    <path id="パス_7370" data-name="パス 7370" class="cls-10" d="M129.549,133.313c.373-3.665,5.381-6.018,3.035-10.528-2-3.837-12.022-5.664-18.108-3.224-5.068.183-4.874,3.828-6.587,5.824s-2.065,6.69-1.248,10.3,5.918,5.981,3.047,14.158c-1.168,3.323,1.391,3.738,5.742,4.119,3.557.312,10.079-2.84,13.043-3.932,3.558-1.311,2.543-6.35-.621-9.69-4.273-4.511,1.324-3.363,1.7-7.029" transform="translate(-11.605 -12.942)"/>
    <path id="パス_7371" data-name="パス 7371" class="cls-11" d="M219.927,36.762c-3.207-5.361-7.1-5.346-10.006-.565-.888-1.66-.211-2.766.844-3.733a6.229,6.229,0,0,1,6.838-.681,4.76,4.76,0,0,1,2.324,4.978" transform="translate(-22.89 -3.394)"/>
    <path id="パス_7372" data-name="パス 7372" class="cls-11" d="M224.937,51.02c.485,4.135-1.212,7.044-3.846,7.453a6.093,6.093,0,0,1-6.31-4.661c1,.82,1.671,1.436,2.407,1.965,3.1,2.236,5.041,1.679,6.561-1.863.329-.767.634-1.544,1.188-2.894" transform="translate(-23.466 -5.574)"/>
    <path id="パス_7373" data-name="パス 7373" class="cls-11" d="M204.3,44.381c-2.688,4.949.131,7.094,4.507,7.248-1.552,1.407-2.514,1.592-4.186.65a5.493,5.493,0,0,1-3.161-4.77c-.024-1.579,1.105-2.642,2.84-3.128" transform="translate(-22.01 -4.849)"/>
    <path id="パス_7374" data-name="パス 7374" class="cls-11" d="M225.585,46.283c1.972-4.363.95-5.466-2.348-7.26,1.709-1.093,3.067-.607,4.343,1.553,1.4,2.365.94,3.956-2,5.706" transform="translate(-24.389 -4.202)"/>
    <path id="パス_7375" data-name="パス 7375" class="cls-12" d="M281.224,92.681c-1.035-1.691-2.633-.775-3.663-2.4-1.665-2.629.462-6.826,3.4-7.055,1.392-.108,1.168,1.146,2.728,1.243a3.762,3.762,0,0,0-2.039-2.758c-3.924.144-7.245,5.781-5.108,9.2.6.956,2.683,2.562,4.684,1.768" transform="translate(-30.14 -8.927)"/>
    <path id="パス_7376" data-name="パス 7376" class="cls-12" d="M290.673,94.51c2.856,2.6,10.163-2.134,6.25-5.291,6.393-1.82,3.418-11.158-2.467-9.417-.374-3.042-4.545-4.332-6.243-1.463.08.635,1.059,1.008,1.087.648.68.265.06-.993.832-1.155,1.508-.357,2.66.161,2.983,1.205.341,1.094-1.193,1.793-.28,2.637,4.352-3.522,9.811,2.98,4.9,5.764-1.032.586-2.379.273-3.147,1.177.634,1.346,1.853.936,2.265,2.108.558,1.585-1.685,3.562-3.75,3.513-1.487-.035-1.917-1.43-3.006-1.83-.683,1.291-.675,3.666-3.312,3.559-1.12-.375-1.607-1.875-1.87-3.308-2.426,3.518,4.137,6.428,5.758,1.855" transform="translate(-31.07 -8.384)"/>
    <path id="パス_7377" data-name="パス 7377" class="cls-12" d="M6.318,113.659c-1.146.12-.828.44-1.529.993-3.034,1.333-5.72-4.16-1.938-5.183.607-.279.951.907,1.319.14-.352-.352-.536-1.072-.925-1.342-3.926-.072-4.409,6.274-.792,7.47,1,.333,4.725.233,3.865-2.077" transform="translate(0 -11.828)"/>
    <path id="パス_7378" data-name="パス 7378" class="cls-12" d="M4.137,105.356c-.019-1.175-1.8-1.161-2.45-2.037-.165-1.746.347-3.612,2.849-4.23,1.243-.308,2.392.473,3.516.371-.432-2.521-4.407-1.382-5.829-.351-2.652,1.923-1.653,6.667,1.915,6.247" transform="translate(-0.079 -10.7)"/>
    <path id="パス_7379" data-name="パス 7379" class="cls-12" d="M17.47,113.508c6.142.68,5.579-8.967.793-9.16.254-1.88,1.063-3.509-.156-6.061-.682-.138-1.633-1.261-2.983-1.206-1.667.069-5.152,1.554-3.078,3.052,1.1-1.689,4.193-2.16,5.344-.944,1.331,2.859-.772,4.154-1.277,6.176,1.418.4,3.365-.493,4.417,1.091,1.788,2.69-.136,6.92-3.5,5.317.044.223-.148.173-.184.069-.906,1.328-.411,3.294-1.97,4.325a4.368,4.368,0,0,1-4.763-2.017l-.558.208c.576,4.551,8.026,3.186,7.914-.85" transform="translate(-1.044 -10.606)"/>
  </g>
</svg>
