<svg xmlns="http://www.w3.org/2000/svg" xmlns:xlink="http://www.w3.org/1999/xlink" width="344.916" height="250.123" viewBox="0 0 344.916 250.123">
  <defs>
    <style>
      .cls-1 {
        fill: none;
      }

      .cls-2 {
        clip-path: url(#clip-path);
      }

      .cls-3 {
        fill: #edbc32;
      }

      .cls-4 {
        fill: #fce952;
      }

      .cls-5 {
        fill: #bababa;
      }

      .cls-6 {
        fill: #282828;
      }

      .cls-7 {
        fill: #ffdbb0;
      }

      .cls-8 {
        fill: #6b6b6b;
      }

      .cls-9 {
        fill: #fff;
      }

      .cls-10 {
        fill: #a4cced;
      }

      .cls-11 {
        fill: #4aa3d5;
      }

      .cls-12 {
        clip-path: url(#clip-path-2);
      }
    </style>
    <clipPath id="clip-path">
      <rect id="長方形_680" data-name="長方形 680" class="cls-1" width="344.916" height="209.097"/>
    </clipPath>
    <clipPath id="clip-path-2">
      <rect id="長方形_681" data-name="長方形 681" class="cls-1" width="127.413" height="29.183" transform="translate(0 0)"/>
    </clipPath>
  </defs>
  <g id="グループ_1001" data-name="グループ 1001" transform="translate(-1134.141 -4058.371)">
    <g id="グループ_699" data-name="グループ 699" transform="translate(1134.141 4099.396)">
      <g id="グループ_698" data-name="グループ 698" class="cls-2">
        <path id="パス_6805" data-name="パス 6805" class="cls-3" d="M44.259,46.411c3.57-3.406,12.427,6.075,14.238,15.4s1.325,26.326,7.331,31.972,15.242,7.748,20.709,9.625,9.09,2.886,9.034,9.226-.089,10.1.025,18.219c.132,9.345-2.019,18.625-2.174,21.36-.062,1.078-22.067-10.081-30.095-14.491-6.786-3.727-11.745-1.265-13.24-8.571s-3.756-29.044-4.814-38.645-6.557-38.8-1.014-44.095"/>
        <path id="パス_6806" data-name="パス 6806" class="cls-4" d="M2.043,56.486c2.376-8.331,9.078-9.573,14.7-10.643,5.322-1.014,30.283-4.435,34.465,2.787s1.9,38.139,7.6,49.163S79.842,115.4,87.444,118.826s11.53,12.924-.253,15.965-26.862,6.969-34.845,4.689S7.682,119.523,5.591,118.288,2.55,109.83,1.41,98.331s-1.582-34.077.633-41.845"/>
        <path id="パス_6807" data-name="パス 6807" class="cls-5" d="M48.833,182.56c.017.491.738.878,1.611.872s1.59-.4,1.6-.893l.86-41.177a2.738,2.738,0,0,0-5.474.037Z"/>
        <path id="パス_6808" data-name="パス 6808" class="cls-5" d="M6.293,158.629c.017.491.738.878,1.611.872s1.589-.4,1.6-.893l.859-41.177a2.667,2.667,0,0,0-2.755-2.657,2.667,2.667,0,0,0-2.719,2.694Z"/>
        <path id="パス_6809" data-name="パス 6809" class="cls-6" d="M21.586,110.129a.511.511,0,0,0,.055,0c2.007-.3,6-1.009,9.859-1.693,2.962-.523,5.8-1.027,7.495-1.3a.477.477,0,0,0-.154-.942c-1.693.276-4.541.78-7.508,1.3-3.854.682-7.839,1.387-9.835,1.688a.477.477,0,0,0,.088.948"/>
        <path id="パス_6810" data-name="パス 6810" class="cls-4" d="M38.438,130.669c0-2.927,11.532,4.629,18.374,2.729,4.78-1.328,33.609-7.951,35.7-8.616s3.231,3.357,3.041,8.489-.7,17.264-.887,19.26-13.811,5.195-19.893,6.588c-4.924,1.129-24.3,6.046-27.4,5.286-5.19-1.271-9.978-1.521-9.978-8.933s1.045-23.377,1.045-24.8"/>
        <path id="パス_6811" data-name="パス 6811" class="cls-6" d="M51.048,154.795c0-.014,0-.028,0-.042.047-1.566.056-4.7.065-7.724.007-2.322.014-4.551.037-5.874a.386.386,0,0,0-.384-.38.37.37,0,0,0-.4.355c-.024,1.325-.031,3.558-.038,5.884-.008,3.022-.018,6.148-.065,7.7a.387.387,0,0,0,.38.385.378.378,0,0,0,.4-.309"/>
        <path id="パス_6812" data-name="パス 6812" class="cls-6" d="M52.335,139.063a32.74,32.74,0,0,0,5.435-1c1.057-.25,2.149-.509,3.243-.73a.367.367,0,0,0,.317-.432.418.418,0,0,0-.5-.268c-1.11.224-2.211.485-3.275.737a27.467,27.467,0,0,1-5.627.981c-1-.014-3.535-.615-9.967-3.388a.453.453,0,0,0-.56.162.335.335,0,0,0,.181.482c5.275,2.274,8.747,3.439,10.321,3.463.138,0,.281,0,.428-.006"/>
        <path id="パス_6813" data-name="パス 6813" class="cls-3" d="M300.656,43.431c-3.57-3.407-12.427,6.075-14.238,15.4s-1.325,26.326-7.331,31.971-15.242,7.749-20.709,9.625-9.09,2.887-9.034,9.227.089,10.1-.025,18.218c-.132,9.345,2.018,18.625,2.174,21.36.062,1.079,22.067-10.081,30.1-14.49,6.786-3.727,11.745-1.265,13.239-8.571s3.757-29.044,4.815-38.646,6.557-38.805,1.014-44.094"/>
        <path id="パス_6814" data-name="パス 6814" class="cls-4" d="M342.873,53.505c-2.376-8.331-9.077-9.573-14.7-10.644-5.322-1.013-30.283-4.434-34.465,2.788s-1.9,38.139-7.6,49.163-21.033,17.612-28.636,21.033-11.53,12.924.254,15.965,26.862,6.969,34.844,4.688,44.665-19.956,46.755-21.191,3.041-8.458,4.182-19.957,1.581-34.077-.634-41.845"/>
        <path id="パス_6815" data-name="パス 6815" class="cls-5" d="M296.082,179.58c-.017.491-.738.878-1.611.872s-1.589-.4-1.6-.893l-.859-41.177a2.738,2.738,0,0,1,5.474.037Z"/>
        <path id="パス_6816" data-name="パス 6816" class="cls-5" d="M338.623,155.649c-.017.491-.738.878-1.611.872s-1.589-.4-1.6-.893l-.859-41.177a2.738,2.738,0,0,1,5.474.037Z"/>
        <path id="パス_6817" data-name="パス 6817" class="cls-6" d="M323.33,107.148a.51.51,0,0,1-.055-.005c-2.007-.3-6-1.009-9.859-1.693-2.962-.523-5.8-1.027-7.495-1.3a.477.477,0,0,1,.154-.941c1.693.275,4.541.779,7.508,1.3,3.854.682,7.839,1.387,9.835,1.688a.477.477,0,0,1-.088.948"/>
        <path id="パス_6818" data-name="パス 6818" class="cls-4" d="M306.478,127.688c0-2.927-11.533,4.629-18.374,2.729-4.78-1.328-33.609-7.951-35.7-8.616s-3.231,3.357-3.041,8.489.7,17.264.887,19.26,13.811,5.195,19.893,6.588c4.923,1.129,24.3,6.046,27.4,5.286,5.19-1.271,9.979-1.521,9.979-8.933s-1.045-23.377-1.045-24.8"/>
        <path id="パス_6819" data-name="パス 6819" class="cls-6" d="M293.868,151.815a.3.3,0,0,1,0-.042c-.047-1.566-.056-4.7-.065-7.724-.007-2.322-.014-4.551-.037-5.874a.386.386,0,0,1,.384-.38.371.371,0,0,1,.4.355c.023,1.325.03,3.558.038,5.884.008,3.023.018,6.148.065,7.705a.386.386,0,0,1-.38.385.376.376,0,0,1-.4-.309"/>
        <path id="パス_6820" data-name="パス 6820" class="cls-6" d="M292.58,136.083a32.741,32.741,0,0,1-5.435-1c-1.057-.25-2.149-.509-3.243-.73a.367.367,0,0,1-.317-.432.418.418,0,0,1,.5-.268c1.11.224,2.211.484,3.275.737a27.466,27.466,0,0,0,5.627.981c1-.014,3.535-.615,9.967-3.389a.454.454,0,0,1,.56.163.334.334,0,0,1-.181.481c-5.275,2.275-8.747,3.44-10.321,3.464-.138,0-.281,0-.428-.006"/>
        <path id="パス_6821" data-name="パス 6821" class="cls-3" d="M340.212,48.057c-3.675-3.294-1.647,11.024-3.168,20.4s-.507,26.355-6.335,32.184-14.994,8.218-20.4,10.263-9,3.168-8.743,9.5.4,10.093.54,18.21c.158,9.345-.209,18.907.032,21.635.1,1.077,24.548-11.114,32.436-15.77,6.666-3.936,5.575-3.485,6.842-10.834s2.217-28.446,2.977-38.076,1.523-42.4-4.181-47.515"/>
        <path id="パス_6822" data-name="パス 6822" class="cls-6" d="M111.683,188.967c-1-2.661-5.108-4.794-7.852-6.317-2.558,1.42-5.91.938-8.743-.541a8.544,8.544,0,0,0,1.006,5.332c1.95,3.625,8.206,6.869,12.022,7.073s4.816-2.229,3.567-5.547"/>
        <path id="パス_6823" data-name="パス 6823" class="cls-7" d="M103.831,182.65c-.678-.376-1.275-.716-1.719-1.017-2.239-1.516-3.356-6.278-5.052-9.492s-3.64-2.13-6.021-1.572c0,0-2.609.926-1.849,2.161s5.012,4.634,5.72,6.981a6.557,6.557,0,0,1,.178,2.4c2.833,1.479,6.185,1.961,8.743.541"/>
        <path id="パス_6824" data-name="パス 6824" class="cls-6" d="M75.539,180.416a11.782,11.782,0,0,1-.555,2.721c-1.364,3.724-.354,5.286,3.074,8.367s10.657,3.526,13.7.962c3.015-2.542-1.116-4.674-5.34-8.383a13.833,13.833,0,0,1-10.877-3.667"/>
        <path id="パス_6825" data-name="パス 6825" class="cls-7" d="M79.252,165.8c-3.219-.582-4.163,1.105-4.038,3.059.1,1.564.763,7.381.325,11.552a13.834,13.834,0,0,0,10.878,3.667c-.037-.032-.074-.062-.11-.095-4.262-3.769-4.832-7.8-4.509-12.438s.457-5.173-2.546-5.745"/>
        <path id="パス_6826" data-name="パス 6826" class="cls-7" d="M83.78,65.553c.807-1.912,5.66-13.35,5.057-13.987s-1.875-2.31-2.626-3.332-.681-1.816-.022-2.052,1.109.714,2.539,1.867,1.187.208,1.563-.72.9-5.539,1.389-6.527.89-2.249,1.837-2,.022,2.052.451,2.636.953.042,2-.342,1.041.315,1.392,1.406.092,1.259.887,1.821.724.863.588,1.75-1.62,2.785-2.765,4.5S93.243,66.35,91.385,71.289c-1.869,4.971-18.354,5.4-22.858,4.418-1.72-.373-.257-17.026,1.4-16.994,2.209.042,5.138,5.492,6.756,6.628,3.569,2.506,6.361,1.951,7.1.212"/>
        <path id="パス_6827" data-name="パス 6827" class="cls-7" d="M62.966,48.017c1.184,1.488,2.218,1.3,4.518,3.929S71.4,57.2,70.508,60.981s1.9,9.611-5.324,9.2a38.383,38.383,0,0,1-16.346-4.353c-3.778-2.054-4.518-3.2-1.232-7.557s4.764-6,6.407-9.693,1.378-7.53,3.523-7.5,5.512-.054,5.594,1.26-1.192,4.873-.164,5.681"/>
        <path id="パス_6828" data-name="パス 6828" class="cls-8" d="M37.149,91.455C36.361,88.7,34.657,77.25,35.7,71.087c1.182-6.964,5.519-12.22,8.956-15.313,3.557-3.2,6.812-2.82,7.863-5.448.848-2.12,5.144,9.253,10.525,11.888,4.518,2.211,1.15-11.664,2.7-12.168,5.427.5,8.637,9.856,11.7,13.255,2.982,3.312-2.5,8.611-3.059,10.707-1.7,6.416-1.7,5.1-2.153,7.282-.65,3.12-2.3,14.141,1.114,15.8,13.8,6.707,23.367,4.507,32.9,22.3,11.437,26.5,7.393,39.586,10.843,53.641.948,3.863-6.378,1.716-14.457,3.74-3.592.9-4.764-7.117-15.144-.4-3.6,2.329-10.957-6.345-16.987-1.948-6.145,4.481-9.987-2.667-14.018-4.272-3.186-1.267-5.364,8.427-17.262,5.75-6-1.351,23.694-39.917,16.128-45.8-6.118-4.759-14.3-4.994-19.544-14.956-5.1-9.687,4.475-12.7,1.337-23.681"/>
        <path id="パス_6829" data-name="パス 6829" class="cls-8" d="M89.06,44.337c2.4-1.8,2.276-4.073,3.234-5.63-1.032-1.833-9.223-.479-13.655-.6-3.99-.108-7.395,1.338-6.122,3.113a1.316,1.316,0,0,1,.983.039c.589.3,1.178,1.473,1.767,1.178,3.24-.294,4.418.884,7.069,2.651,1.178.883,2.945.589,4.418,1.767a1.426,1.426,0,0,0,1.356.206c.119-.793-.108-1.931.95-2.725"/>
        <path id="パス_6830" data-name="パス 6830" class="cls-7" d="M86.754,46.855c-1.473-1.177-3.24-.884-4.418-1.766-2.65-1.767-3.829-2.946-7.068-2.651-.589.294-1.178-.883-1.767-1.178a1.309,1.309,0,0,0-.984-.039,2.964,2.964,0,0,0,.6.6c2.622,2.037,1.45,2.517,9.6,5.2,4.548,1.5,5.249,1.045,5.4.043a1.42,1.42,0,0,1-1.357-.206"/>
        <path id="パス_6831" data-name="パス 6831" class="cls-9" d="M83.314,41.1a1.734,1.734,0,0,1,1.232-2.246c1.253-.411,1.109-.044,1.979.571s1.206,1.316.9,2.117c-.478,1.243-1.436,2.019-2.578,1.357a3.1,3.1,0,0,1-1.53-1.8"/>
        <path id="パス_6832" data-name="パス 6832" class="cls-3" d="M89.06,44.337c2.4-1.8,2.276-4.073,3.234-5.63-1.032-1.833-9.223-.479-13.655-.6-3.99-.108-7.395,1.338-6.122,3.113a1.316,1.316,0,0,1,.983.039c.589.3,1.178,1.473,1.767,1.178,3.24-.294,4.418.884,7.069,2.651,1.178.883,2.945.589,4.418,1.767a1.426,1.426,0,0,0,1.356.206c.119-.793-.108-1.931.95-2.725"/>
        <path id="パス_6833" data-name="パス 6833" class="cls-7" d="M86.754,46.855c-1.473-1.177-3.24-.884-4.418-1.766-2.65-1.767-3.829-2.946-7.068-2.651-.589.294-1.178-.883-1.767-1.178a1.309,1.309,0,0,0-.984-.039,2.964,2.964,0,0,0,.6.6c2.622,2.037,1.45,2.517,9.6,5.2,4.548,1.5,5.249,1.045,5.4.043a1.42,1.42,0,0,1-1.357-.206"/>
        <path id="パス_6834" data-name="パス 6834" class="cls-10" d="M84.19,43.286c-2.819-.083-2.9-.258-4.452-2.187s-2.512-3.087-.834-2.332,2.321.184,3.975.921,2.067.805,2.4,2.087-.215,1.547-1.094,1.511"/>
        <path id="パス_6835" data-name="パス 6835" class="cls-9" d="M83.314,41.1a1.734,1.734,0,0,1,1.232-2.246c1.253-.411,1.109-.044,1.979.571s1.206,1.316.9,2.117c-.478,1.243-1.436,2.019-2.578,1.357a3.1,3.1,0,0,1-1.53-1.8"/>
        <path id="パス_6836" data-name="パス 6836" class="cls-7" d="M49.118,43.649c2.839,3.33,6.531,4.576,9.354,4.082a14.425,14.425,0,0,0,7.447-3.871,13.842,13.842,0,0,0,2.769-5.914,8.776,8.776,0,0,0-.359-3.354c-.78-2.585,1.058-2.862-1.751-7.867-.854-1.521-5.672-8.338-13.356-7.421-6.754.806-10.046,17.374-4.1,24.345"/>
        <path id="パス_6837" data-name="パス 6837" class="cls-6" d="M66.688,23.723a8.283,8.283,0,0,0-5.049-4.16c-3.1-.736-3.477-2.921-6.722-3-4.528-.11-8.606,1.709-9.955,2.925-2.9,2.61-3.433,4.565-4.494,6.5-.9,1.655-3.6,7.433-.486,13.074,3.485,6.3,7.665,6.728,9.582,6.83,2.012.107,2.31,1.286,4.21,1.217,2.219-.08,3.018-5.05,1.013-5.679-3.066-1.812-2.519-2.981-2.222-4.063s2.012-1.246,2.7-.471c3.426,3.853,2.667.8,2.931-2.887.314-4.367,10.9-4.047,8.49-10.29"/>
        <path id="パス_6838" data-name="パス 6838" class="cls-6" d="M47.765,51.874c-2.556,2.063-1.95.019-4.77,1.071a2.871,2.871,0,0,1-3.611-2.011c-.336-1.442.559-.828.121-2.62s-.508-2.585.46-3.676,1.016-2.505,2.713-2.613,1.947.844,2.894.884,2.132-.323,2.625,1.568,1.93,2.482,1.615,3.582.429,2.443-2.047,3.815"/>
        <path id="パス_6839" data-name="パス 6839" class="cls-7" d="M274.974,42.907c-5.981.465-11.212,13.556-14.021,15.933-1.784,1.509-7.985-1.093-11.28-2.231-2.821-.973-5.32-1.865-5.475-1.915-1.121-.36-1.3-.682-1.385-1.632a24.771,24.771,0,0,0-1.229-3.959c-.451-1.342-2.317-.408-2.932-.811s-.962-1.173-1.506-1.763-1.881-.264-2.786.267-1.259,1.526-2.3,3.818.183,4.864.327,6,2.083,3.111,3.944,3.879,4.937.744,5.5.892c.063.017,4.316,2.35,6.118,3.123,5.5,2.361,11.72,6.906,15.933,7.074,3.186.127,5.866-2.34,7.771-4.742a158.324,158.324,0,0,0,8.735-15.652c2.539-5.894-1.4-8.6-5.417-8.285"/>
        <path id="パス_6840" data-name="パス 6840" class="cls-10" d="M280.773,34.24c-4.015-1.205-11.981,8.285-14.849,12.045-3.156,4.136-7.01,8.348-4.079,10.388s11.727,7.011,13.257,7.393,6.48-15.416,7.138-19.056c.7-3.888,2.358-9.623-1.467-10.77"/>
        <path id="パス_6841" data-name="パス 6841" class="cls-6" d="M294.527,182.468c-3.138,2.789-6.425,5.557-10.531,4.706-2.934,2.621-8.647,6.442-10.7,8.848-2.62,3.074,2.868,4.02,5.3,3.277s15.373-5.756,17.995-8.715c2.252-2.54-.653-5.67-2.066-8.116"/>
        <path id="パス_6842" data-name="パス 6842" class="cls-7" d="M294.527,182.468a6.685,6.685,0,0,1-.55-1.146c-.862-2.545-3.128-14.227-3.626-15.965,0,0-8.018-.155-7.854,2.4s4.3,15.322,3.174,17.556A7.779,7.779,0,0,1,284,187.174c4.106.851,7.393-1.917,10.531-4.706"/>
        <path id="パス_6843" data-name="パス 6843" class="cls-6" d="M253.489,188.309c-2.611,1.406-7.126,1.736-9.7,3.588-3.487,2.511-6.536,6.45,1.591,7.241s16.384-3.608,18.218-6.16c1.8-2.5-1.3-3.422-1.4-4.788a19.716,19.716,0,0,1-8.709.119"/>
        <path id="パス_6844" data-name="パス 6844" class="cls-7" d="M263.138,172.818s-7.076-2.165-7.466-.757.743,10.82-.286,14.219a3.561,3.561,0,0,1-1.9,2.028,19.715,19.715,0,0,0,8.709-.118.891.891,0,0,1-.01-.089c.035-1.416,1.6-13.141.949-15.283"/>
        <path id="パス_6845" data-name="パス 6845" class="cls-11" d="M302.014,86.384c.21.367,10.456,12.735,4.174,26.526-5.015,11.012-25.113,15.724-26.224,18.8-1.645,4.554,14.581,39.617,17.208,46.8,2.058,5.626-13.118,7.657-14.544,5.077-2.881-5.214-19.484-34.439-20.581-35.811-1.6-2,.044,5.051.96,11.388,1.33,9.2,3.705,16.053,4.8,24.286.217,1.628-14.8,1.663-16.877,1.1-1.732-.471-6.515-22.514-7.409-27.029-1-5.057-4.732-22.427-2.789-31.408.971-4.487,17.729-24.605,20.795-29.007,6.026-8.652,10.026-12.169,10.481-12.569.92-.808,30,1.854,30,1.854"/>
        <path id="パス_6846" data-name="パス 6846" class="cls-7" d="M286.023,25.13c.308-.01,7.318-.3,7.7-.354.175.645-1.416,4.522-.2,6.9,1.542,3.015,8.895,4.429,8.046,7.489-2.757,7.693-16.967,5.934-20.081,2.564-1.4-6.65,3.076-4.488,4.793-9.683a11.429,11.429,0,0,0-.258-6.914"/>
        <path id="パス_6847" data-name="パス 6847" class="cls-7" d="M296.982,27.337c-2.572,3.823-6.083,5.475-8.846,5.182a13.016,13.016,0,0,1-7.426-3.537,15.128,15.128,0,0,1-3-6.129,10.532,10.532,0,0,1,.169-3.639c.616-2.848-1.18-2.991,1.273-8.613.745-1.708,1.64-5.473,9.136-5.134,6.589.3,19.856,10.164,8.7,21.87"/>
        <path id="パス_6848" data-name="パス 6848" class="cls-6" d="M281.257,10.332c-1.878,1.14-2.734,5.442-3.942,3.833-2.325-3.1-.626-10.733,3.351-11.386,4.09-.673.823-2.548,9.36-2.776,6.225-.167,17.315,10.09,13.429,16.279-2.571,4.1-1.189,8.754-7.126,11.986-1.109.6-.036-4.095.619-4.5,3.174-2.176,2.819-3.31,2.419-4.455s-2.157-2.122-2.843-1.237c-3.412,4.4-1.57-.942-4.194-.819-5.506.258-10.119-7.727-11.073-6.922"/>
        <path id="パス_6849" data-name="パス 6849" class="cls-10" d="M269.736,57.984c1.944-12.425,9.039-23.061,10.337-23.617,2.23-.956,1.292,2.048,7.9,2.421,5.758.4,6.9-5.375,9.782-4.271,6.167,2.361,9.478,5.506,11.249,8.605,2.039,3.569,5.089,21.56-1.407,18.82-3.151-1.328,1.527,8.345.041,21.051-.5,4.258,3.059,21.987-.965,21.951-6.445-.059-7.681,5.364-17.437,3.437-3.35-.662-9.938-7.031-17.015-7.777-7.633-.8-11.456,1.419-13.218-.552-3.238-3.623,7.068-9.773,7.006-14.328-.145-10.771,1.259-9.987,3.724-25.74"/>
        <path id="パス_6850" data-name="パス 6850" class="cls-11" d="M234.919,28.421l-1.4,8.628c-.81,4.991.636,9.417,3.214,9.835s5.35-3.322,6.16-8.313l1.4-8.628c.088-.547.145-1.086.182-1.615l-9.218-1.5c-.133.513-.249,1.042-.338,1.589"/>
        <rect id="長方形_677" data-name="長方形 677" class="cls-11" width="18.408" height="0.91" transform="matrix(0.16, -0.987, 0.987, 0.16, 233.819, 61.979)"/>
        <path id="パス_6851" data-name="パス 6851" class="cls-11" d="M238.6,63.082c-.072.446-2.094.488-4.516.095s-4.327-1.073-4.254-1.519,2.094-.488,4.516-.1,4.326,1.073,4.254,1.519"/>
        <path id="パス_6852" data-name="パス 6852" class="cls-10" d="M234.944,33.932l-.862,5.308c-.5,3.07.8,5.859,2.885,6.2s4.2-1.9,4.7-4.967l.862-5.308a8.18,8.18,0,0,0,.1-1l-7.455-1.21a8.341,8.341,0,0,0-.223.975"/>
        <path id="パス_6853" data-name="パス 6853" class="cls-3" d="M4.7,51.037c3.674-3.294,1.647,11.024,3.169,20.4s.5,26.355,6.335,32.184,14.994,8.218,20.4,10.263,9,3.168,8.743,9.5-.4,10.093-.54,18.21c-.157,9.344.209,18.907-.031,21.635-.1,1.077-24.549-11.114-32.436-15.771-6.667-3.935-5.576-3.484-6.843-10.833S1.282,108.182.522,98.552-1,56.151,4.7,51.037"/>
        <rect id="長方形_678" data-name="長方形 678" class="cls-5" width="12.814" height="92.232" transform="translate(168.771 110.037)"/>
        <path id="パス_6854" data-name="パス 6854" class="cls-5" d="M275.31,95.733c0,15.512-44.831,28.087-100.132,28.087S75.046,111.245,75.046,95.733s44.831-28.087,100.132-28.087S275.31,80.221,275.31,95.733"/>
        <path id="パス_6855" data-name="パス 6855" class="cls-5" d="M212.347,200.373c0,4.818-16.641,8.724-37.169,8.724s-37.168-3.906-37.168-8.724,16.641-8.724,37.168-8.724,37.169,3.906,37.169,8.724"/>
        <path id="パス_6856" data-name="パス 6856" class="cls-3" d="M173.981,121.258c-18.91,0-54.731-3.605-74.01-10.545a.358.358,0,0,1,.242-.673c19.833,7.14,57.269,10.737,75.563,10.492,20.315-.271,65.627-5.9,78.966-11.8a.357.357,0,1,1,.288.653c-13.409,5.932-58.875,11.586-79.245,11.857q-.875.012-1.8.012"/>
        <path id="パス_6857" data-name="パス 6857" class="cls-9" d="M131.923,93.186c0,5.522-7.993,10-17.853,10s-17.853-4.476-17.853-10,7.993-10,17.853-10,17.853,4.476,17.853,10"/>
        <path id="パス_6858" data-name="パス 6858" class="cls-11" d="M116.766,100.04a67.1,67.1,0,0,1-11.648-1.672,6.408,6.408,0,0,1-4.167-2.96,9.981,9.981,0,0,0-.853-1.085.362.362,0,1,1,.528-.5,11.228,11.228,0,0,1,.915,1.159,5.72,5.72,0,0,0,3.757,2.681c3.055.783,10,1.791,11.954,1.633.43-.036.8-.046,1.15-.054a7.062,7.062,0,0,0,4.2-1.294c1.04-.611,1.794-1,2.4-1.306a7.8,7.8,0,0,0,2.371-1.6.362.362,0,0,1,.513.512,8.469,8.469,0,0,1-2.556,1.728c-.6.305-1.343.685-2.362,1.285a7.74,7.74,0,0,1-4.551,1.394c-.334.008-.693.016-1.106.051-.156.013-.34.019-.547.019"/>
        <path id="パス_6859" data-name="パス 6859" class="cls-9" d="M257.035,89.977c0,5.522-7.993,10-17.853,10s-17.853-4.476-17.853-10,7.993-10,17.853-10,17.853,4.476,17.853,10"/>
        <path id="パス_6860" data-name="パス 6860" class="cls-11" d="M241.878,96.831a67.1,67.1,0,0,1-11.648-1.672,6.4,6.4,0,0,1-4.166-2.96,10.115,10.115,0,0,0-.854-1.085.362.362,0,1,1,.528-.5,11.081,11.081,0,0,1,.914,1.159,5.725,5.725,0,0,0,3.758,2.681c3.055.783,10,1.791,11.953,1.633.431-.036.8-.046,1.151-.054a7.062,7.062,0,0,0,4.2-1.294c1.04-.611,1.794-1,2.4-1.306a7.79,7.79,0,0,0,2.37-1.595.362.362,0,1,1,.513.512,8.432,8.432,0,0,1-2.556,1.728c-.6.305-1.342.685-2.362,1.285a7.737,7.737,0,0,1-4.55,1.394c-.334.008-.693.016-1.107.051-.155.013-.339.019-.546.019"/>
        <path id="パス_6861" data-name="パス 6861" class="cls-9" d="M201.848,92.123c0,8.645-12.514,15.654-27.952,15.654s-27.951-7.009-27.951-15.654S158.459,76.469,173.9,76.469s27.952,7.009,27.952,15.654"/>
        <path id="パス_6862" data-name="パス 6862" class="cls-11" d="M174.935,105.26a70.808,70.808,0,0,1-11.1-1.175l-.872-.143c-3.312-.534-7.83-3.618-10.94-5.891a.317.317,0,1,1,.375-.512c3.057,2.235,7.489,5.264,10.666,5.777l.874.143c3.686.607,9.857,1.624,14.476.936,5.38-.8,10.344-2.1,12.648-3.308.665-.349,1.229-.62,1.726-.86a8.869,8.869,0,0,0,3.158-2.108.317.317,0,1,1,.464.432,9.472,9.472,0,0,1-3.346,2.248c-.492.236-1.051.5-1.708.85-2.361,1.239-7.4,2.563-12.848,3.374a24.438,24.438,0,0,1-3.577.237"/>
        <path id="パス_6863" data-name="パス 6863" class="cls-4" d="M173.172,75.544c-12.706,0-23.007,5.59-23.007,12.486,0,2.73,1.619,5.254,4.359,7.309,5.7-3.581,11.4-7.255,17.1-11.531-2.071,5.523-1.327,11.045-1.9,16.568,1.124.091,2.275.14,3.447.14,12.706,0,23.007-5.59,23.007-12.486s-10.3-12.486-23.007-12.486"/>
        <path id="パス_6864" data-name="パス 6864" class="cls-3" d="M192.62,79.955c-2.612-2.7-1.537-.219-5.58-3.2S179.691,73.652,175.8,73.7s-3.773.748-9.113.693-7.822,2.08-10.048,3.376c-2.521,2.017-4.933,3.637-5.58,5.865s.791.821,2.731,2.263.22,2.423.011,5.448c-.142,2.042,1.058,2.376,3.013,2.551,4.937-3.131,9.873-6.381,14.81-10.084-1.767,4.712-1.485,9.423-1.722,14.135,1.114-.4,2.246-1.09,3.41-1.577,2.448-1.025,5.9.016,8.642,1.134s6.049-2.846,7.2-5.727,4.177-1.585,5.617-5.762.457-3.353-2.155-6.056"/>
        <path id="パス_6865" data-name="パス 6865" class="cls-9" d="M158.169,81.644a1.52,1.52,0,0,1,1.08-1.969c1.1-.36.972-.039,1.735.5s1.058,1.153.787,1.856c-.419,1.089-1.259,1.77-2.261,1.189a2.719,2.719,0,0,1-1.341-1.577"/>
        <path id="パス_6866" data-name="パス 6866" class="cls-9" d="M174.252,91.312a1.521,1.521,0,0,1,1.08-1.97c1.1-.36.972-.039,1.735.5s1.058,1.153.787,1.857c-.419,1.088-1.259,1.769-2.261,1.189a2.721,2.721,0,0,1-1.341-1.577"/>
        <path id="パス_6867" data-name="パス 6867" class="cls-9" d="M181.936,80.4a1.52,1.52,0,0,1,1.08-1.969c1.1-.36.972-.039,1.735.5s1.058,1.153.787,1.856c-.419,1.089-1.259,1.77-2.261,1.189a2.719,2.719,0,0,1-1.341-1.577"/>
        <path id="パス_6868" data-name="パス 6868" class="cls-9" d="M169.471,77.4a1.52,1.52,0,0,1,1.08-1.969c1.1-.36.972-.039,1.735.5s1.058,1.153.787,1.856c-.419,1.089-1.259,1.77-2.261,1.189a2.719,2.719,0,0,1-1.341-1.577"/>
        <path id="パス_6869" data-name="パス 6869" class="cls-10" d="M175.275,79.684c.749-2.357.916-2.383,2.916-3.226s3.207-1.376,2.167-.142-.714,1.912-1.734,3.13-1.176,1.548-2.339,1.524-1.252-.554-1.01-1.286"/>
        <path id="パス_6870" data-name="パス 6870" class="cls-10" d="M181.81,87.03c2.468.149,2.535.3,3.842,2.037s2.119,2.773.669,2.066-2.03-.224-3.46-.915-1.789-.761-2.051-1.893.23-1.35,1-1.295"/>
        <path id="パス_6871" data-name="パス 6871" class="cls-10" d="M166.981,80.534c-2.46-.246-2.521-.4-3.759-2.187s-2.008-2.854-.587-2.091,2.019.3,3.421,1.051,1.758.831,1.975,1.973-.283,1.339-1.05,1.254"/>
        <path id="パス_6872" data-name="パス 6872" class="cls-10" d="M156.914,88.274c2.093.572,2.241.654,4.286-.736.643-.427.9-.9,0-1.636s-1.227-.572-2.781-.245-1.717,1.063-3.3,1.39-.3.655,1.792,1.227"/>
        <path id="パス_6873" data-name="パス 6873" class="cls-11" d="M130.352,48.318l-.05,8.741c-.028,5.056,2.085,9.205,4.7,9.22s4.772-4.11,4.8-9.166l.05-8.741c0-.554-.024-1.1-.07-1.623L130.44,46.7c-.052.528-.085,1.068-.088,1.622"/>
        <rect id="長方形_679" data-name="長方形 679" class="cls-11" width="18.407" height="0.91" transform="translate(134.457 81.642) rotate(-89.685)"/>
        <path id="パス_6874" data-name="パス 6874" class="cls-11" d="M139.351,81.992c0,.452-1.994.806-4.447.792s-4.441-.391-4.438-.843,1.994-.806,4.447-.792,4.441.391,4.438.843"/>
        <path id="パス_6875" data-name="パス 6875" class="cls-10" d="M131.229,53.758l-.031,5.378c-.017,3.11,1.7,5.665,3.808,5.677s3.855-2.523,3.873-5.634l.03-5.377a8.174,8.174,0,0,0-.058-1L131.3,52.76a8.141,8.141,0,0,0-.07,1"/>
        <path id="パス_6876" data-name="パス 6876" class="cls-7" d="M44.639,80.023c1.708-.788,4.6-4.073,6.439.394.781,1.9,2.535,15,6.744,15.125,2.855.087,7.377,0,8.441-.033,2.14-.072,7.354-.49,7.632-.647,1.145-.646,6.243-3.337,8.519-3.141s3.914,1.07,6.7,2.84c1.058.671-.117,1.387.18,1.776.842,1.108.7,2.179-.254,2.293-1.734.209-6.781.434-7.535.7-1.327.47-5.467,1.218-6.57.721-.523-.234-3.766.814-5.094,1.137-1.6.388-4.554,1.272-5.926,1.6-1.45.351-4.092,1.156-7.145,1.9-6.281,1.527-8.058-.053-9.828-2.978-2.823-4.665-3.385-9.288-5.592-15.121-1.84-4.862-.135-4.992,3.285-6.57"/>
        <path id="パス_6877" data-name="パス 6877" class="cls-7" d="M305.183,58.585c-8.059.756-8.147,1.459-6.9,5.692.631,2.142,3.126,14.039-1.386,14.829-3.06.537-7.942,1.148-9.092,1.275-2.316.255-7.994.615-8.318.489-1.332-.519-7.239-2.624-9.658-2.06s-4.048,1.76-6.777,4.1c-1.035.886.341,1.474.082,1.94-.735,1.323-.415,2.454.629,2.429,1.9-.045,7.368-.585,8.222-.415,1.5.3,6.074.462,7.185-.244.526-.334,4.18.292,5.66.433,1.785.17,5.1.663,6.629.807,1.616.152,4.585.609,7.987.934,7,.67,8.666-1.307,10.118-4.731a41.494,41.494,0,0,0,3.448-16.749c.225-9.186-3.751-9.11-7.83-8.728"/>
        <path id="パス_6878" data-name="パス 6878" class="cls-10" d="M297.152,42.652c-2.308,5.962-1.4,18.609-.51,23.326s4.334,2.676,9.942,2.421,8.795,1.53,8.668-4.206-3.187-22.178-8.158-25.875-8.412.383-9.942,4.334"/>
      </g>
    </g>
    <g id="グループ_701" data-name="グループ 701" transform="translate(1242.892 4058.371)">
      <g id="グループ_700" data-name="グループ 700" class="cls-12">
        <path id="パス_6879" data-name="パス 6879" class="cls-6" d="M39.143,1.881,47.747,0c.154,1.721-1.2,1.524-2.008,1.819a28.379,28.379,0,0,1-3.04.742c.431,1.807.842,3.529,1.315,5.514A6.007,6.007,0,0,0,45.66,5.886,17.782,17.782,0,0,1,47.621,3.2a2.234,2.234,0,0,1,3.867.781,20.429,20.429,0,0,1,.733,2.591c.764-.953,1.31-1.687,1.91-2.374,2-2.288,4.317-1.915,5.165,1.028a14.83,14.83,0,0,1,.2,4.942c-.072,1.138.02,1.982,1.21,2.223a1.321,1.321,0,0,1-1.344,1.529c-1.5.166-3.061.726-5.067-.5l3.527-.974c.217-1.626.489-3.341.652-5.065a3.679,3.679,0,0,0-.33-1.621c-.727-1.821-1.952-2.035-3.188-.5a13.152,13.152,0,0,0-2.936,5.423,10.906,10.906,0,0,1-.716,1.72c-1.114-.828-.765-1.654-.762-2.393.006-1.512.088-3.03-.029-4.533-.043-.547-.518-1.449-.878-1.491a2.31,2.31,0,0,0-1.77.761,10.39,10.39,0,0,0-2.6,7.012,16.17,16.17,0,0,1-.161,1.993l-.521.076a6.965,6.965,0,0,1-.644-1.3c-.58-2.238-1.188-4.474-1.633-6.741a4.787,4.787,0,0,0-3.165-3.9"/>
        <path id="パス_6880" data-name="パス 6880" class="cls-6" d="M5.8,11.192a15.1,15.1,0,0,0,.815-2.455,5.291,5.291,0,0,1,2.174-3.3c1.878-1.544,3.036-1.418,4.581.535.194.244.4.483.67.819.614-.694,1.159-1.367,1.763-1.982,1.172-1.194,2.086-1.345,3.334-.287a6.886,6.886,0,0,1,1.813,2.448,21.319,21.319,0,0,1,.981,3.684c.192.84.3,1.7.453,2.553l2.028.216c.248,1.753-1.186,1.456-1.995,1.816a2.777,2.777,0,0,1-3.7-1.031l1.889-.635a12.569,12.569,0,0,0-1.011-6.465A2.239,2.239,0,0,0,17.5,5.41c-1.028.021-1.379.893-1.819,1.678a6.611,6.611,0,0,0-.532,4.865c.186.85.142.86-.779,2.087-.338-.988-.656-1.748-.854-2.538a40.11,40.11,0,0,0-.967-4.184c-.685-1.847-1.85-2.035-3.273-.676C7.42,8.414,6.982,10.791,6.7,13.171a37.656,37.656,0,0,0-.037,4.271c-.345-.006-.729.067-.774-.025A11.184,11.184,0,0,1,4.6,14.406c-.412-2.832-1.31-5.6-1.239-8.532C4.778,7.382,4.716,9.425,5.8,11.192"/>
        <path id="パス_6881" data-name="パス 6881" class="cls-6" d="M116.1,27.72c-.878.277-.609,1.892-2.219,1.353l1.224-7.337c1.338.761.915,1.82.936,2.685a2.824,2.824,0,0,0,1.883,2.779c1.605.644,3.1-.418,2.726-2.084A9.8,9.8,0,0,0,119,21.753a5.98,5.98,0,0,1-.038-7.321,2.817,2.817,0,0,1,4.914.19c.341.525.638,1.078,1.055,1.788l2.237-2.492c.129.623.318.965.217,1.139-1.2,2.061-2.446,4.1-3.672,6.142-.5.835-1.083,1.074-2.05.289.307-.355.531-.629.771-.888a3.866,3.866,0,0,0,.359-5.21c-.943-1.325-2.259-1.324-3.016.1a5.079,5.079,0,0,0,.376,5.636,16.7,16.7,0,0,1,1.6,2.876c.577,1.336.572,2.814-.618,3.725a3.548,3.548,0,0,1-4.036.488c-.345-.192-.707-.351-1-.5"/>
        <path id="パス_6882" data-name="パス 6882" class="cls-6" d="M104.847,15.713c-.634,2.414-.685,4.392.958,5.926a2.559,2.559,0,0,0,3.381-.011l-.691-1.834c.284-.13.452-.279.549-.242,2.19.834,2.727,2.624,2.846,4.643-1.261.9-1.391-.366-1.917-.767a1.5,1.5,0,0,0-.47-.07c-3.993.774-6.261-.844-6.4-4.855a8.617,8.617,0,0,1,3.825-7.817,4.415,4.415,0,0,1,6.684,2.941,3.468,3.468,0,0,1-1.884,3.8,4.485,4.485,0,0,1-4.969-.086,18.232,18.232,0,0,1-1.911-1.627m.858-1.66c1.5,2.505,3.069,3.171,5.034,2.221.984-.476,1.765-1.089,1.6-2.337a2.657,2.657,0,0,0-1.987-2.39c-1.879-.571-3.014.011-4.651,2.506"/>
        <path id="パス_6883" data-name="パス 6883" class="cls-6" d="M36.043,9.383c1.491,1.963.77,3.919,1.443,5.68-1.66-1.395-3.65-.653-5.372-1.23-3.19-1.068-4.568-3.06-4.333-6.522A6.142,6.142,0,0,1,33,1.871a3.987,3.987,0,0,1,1.859.14,2.973,2.973,0,0,1,2.084,3.11,3.663,3.663,0,0,1-3.234,2.726,41.22,41.22,0,0,1-4.4-.462,3.212,3.212,0,0,0,.931,3.759c1.434,1.33,3.151,2.191,5.333,1.216.131-.834.267-1.7.469-2.977m-6.492-3.85c1.933.771,3.4,1.447,4.964.668A2.106,2.106,0,0,0,35.6,4.618,2.081,2.081,0,0,0,34.213,3.23a4.506,4.506,0,0,0-2.486.45,12.046,12.046,0,0,0-2.176,1.853"/>
        <path id="パス_6884" data-name="パス 6884" class="cls-6" d="M81.192,4.974l-3.368.011c1.286-1.675,4.745-2.272,7.833-1.52-.143,2.25-2.071.48-2.954,1.479.086,1.171.188,2.56.3,4.047,4.324-2.954,3.752-2.365,6.332-2.179.242-.724.483-1.447.763-2.286.884,1.249.851,2.78-.043,7.159-1.129.018-1.137-.714-1.162-1.565-.061-2.092-1.083-2.673-2.847-1.515a6.487,6.487,0,0,0-3.277,5.013,19.384,19.384,0,0,1-.234,2.616c-.089.42-.54.762-1.06,1.055-.51-4.129.7-8.233-.28-12.315"/>
        <path id="パス_6885" data-name="パス 6885" class="cls-6" d="M65.029,10.336c.231-1.308.375-2.64.715-3.921A3.691,3.691,0,0,1,69.4,3.546c1.98-.137,3.769.415,4.632,2.24A16.9,16.9,0,0,1,75.531,11a5.058,5.058,0,0,1-4.387,5.375,4.525,4.525,0,0,1-4.3-2.041,24.793,24.793,0,0,1-1.812-4m2.508-4.693c-1.442,2.611-1.565,5.15.134,7.636a3.3,3.3,0,0,0,3.445,1.592A4.027,4.027,0,0,0,74.283,9.83a15.483,15.483,0,0,0-1.072-2.895,2.551,2.551,0,0,0-3.082-1.6c-.846.111-1.694.2-2.592.311"/>
        <path id="パス_6886" data-name="パス 6886" class="cls-6" d="M93.927,6.315,98.97,9.142c-.221,1.476-1.386.559-2.227.868a9.987,9.987,0,0,0-1.61,5.014c-.01,2.536.558,3.325,3.357,3.889-.689.5-1.146,1.123-1.581,1.109-2.024-.067-4.153.044-6.177-2.122l3.437.278a12.422,12.422,0,0,1,1.006-8.231c.4-.779-.1-1.331-.687-1.839-.483-.421-1.314-.787-.561-1.793"/>
        <path id="パス_6887" data-name="パス 6887" class="cls-6" d="M0,6.268C1,4.445,4.507,3.15,5.877,3.72c.241.1.31.615.492,1.012L0,6.268"/>
      </g>
    </g>
  </g>
</svg>
