<svg xmlns="http://www.w3.org/2000/svg" width="270.652" height="196.268" viewBox="0 0 270.652 196.268">
  <defs>
    <style>
      .cls-1 {
        fill: #edbc32;
      }

      .cls-2 {
        fill: #fce952;
      }

      .cls-3 {
        fill: #bababa;
      }

      .cls-4 {
        fill: #282828;
      }

      .cls-5 {
        fill: #ffdbb0;
      }

      .cls-6 {
        fill: #6b6b6b;
      }

      .cls-7 {
        fill: #fff;
      }

      .cls-8 {
        fill: #a4cced;
      }

      .cls-9 {
        fill: #4aa3d5;
      }

      .cls-10 {
        fill: none;
      }
    </style>
  </defs>
  <g id="グループ_1147" data-name="グループ 1147" transform="translate(-3456 8323.711)">
    <path id="パス_6805" data-name="パス 6805" class="cls-1" d="M43.734,46.258c2.8-2.673,9.751,4.767,11.172,12.084S55.946,79,60.659,83.431s11.96,6.08,16.25,7.553,7.133,2.265,7.089,7.24-.07,7.926.02,14.3c.1,7.333-1.584,14.615-1.706,16.761-.049.846-17.316-7.91-23.615-11.371-5.325-2.925-9.216-.993-10.389-6.726S45.36,88.393,44.53,80.859s-5.145-30.45-.8-34.6" transform="translate(3446.995 -8301.358)"/>
    <path id="パス_6806" data-name="パス 6806" class="cls-2" d="M1.7,53.829c1.864-6.537,7.123-7.512,11.533-8.351C17.413,44.681,37,42,40.281,47.664s1.491,29.927,5.965,38.578,16.505,13.82,22.47,16.5,9.047,10.141-.2,12.528-21.078,5.468-27.342,3.679S6.129,103.293,4.488,102.324,2.1,95.687,1.207,86.664s-1.241-26.74.5-32.835" transform="translate(3455.899 -8301.023)"/>
    <path id="パス_6807" data-name="パス 6807" class="cls-3" d="M48.53,173.117c.013.385.579.689,1.264.684s1.248-.316,1.255-.7l.675-32.311a2.148,2.148,0,0,0-4.3.029Z" transform="translate(3445.788 -8321.384)"/>
    <path id="パス_6808" data-name="パス 6808" class="cls-3" d="M5.99,149.186c.013.385.579.689,1.264.684s1.247-.315,1.255-.7l.674-32.311a2.093,2.093,0,0,0-2.162-2.085,2.093,2.093,0,0,0-2.134,2.114Z" transform="translate(3454.948 -8316.23)"/>
    <path id="パス_6809" data-name="パス 6809" class="cls-4" d="M21.48,109.279l.043,0c1.575-.238,4.707-.792,7.736-1.328,2.324-.41,4.554-.806,5.881-1.021a.374.374,0,0,0-.121-.739c-1.328.217-3.563.612-5.891,1.024-3.024.535-6.151,1.088-7.717,1.325a.374.374,0,0,0,.069.744" transform="translate(3451.458 -8314.381)"/>
    <path id="パス_6810" data-name="パス 6810" class="cls-2" d="M38.213,129.386c0-2.3,9.049,3.632,14.418,2.141,3.751-1.042,26.373-6.239,28.013-6.761s2.535,2.634,2.386,6.661-.547,13.547-.7,15.113-10.837,4.076-15.61,5.17c-3.864.886-19.066,4.744-21.5,4.148-4.073-1-7.83-1.193-7.83-7.01s.82-18.344.82-19.463" transform="translate(3447.949 -8318.37)"/>
    <path id="パス_6811" data-name="パス 6811" class="cls-4" d="M50.881,151.776c0-.011,0-.022,0-.033.037-1.229.044-3.686.051-6.061.005-1.822.011-3.571.029-4.609a.3.3,0,0,0-.3-.3.29.29,0,0,0-.311.279c-.019,1.04-.024,2.792-.03,4.617-.006,2.371-.014,4.824-.051,6.046a.3.3,0,0,0,.3.3.3.3,0,0,0,.312-.242" transform="translate(3445.176 -8321.829)"/>
    <path id="パス_6812" data-name="パス 6812" class="cls-4" d="M49.972,138.172a25.692,25.692,0,0,0,4.265-.785c.829-.2,1.686-.4,2.545-.573a.288.288,0,0,0,.249-.339.328.328,0,0,0-.389-.21c-.871.176-1.735.381-2.57.578a21.553,21.553,0,0,1-4.415.77c-.782-.011-2.774-.483-7.821-2.659a.355.355,0,0,0-.439.127.263.263,0,0,0,.142.378c4.139,1.784,6.864,2.7,8.1,2.717.108,0,.22,0,.336,0" transform="translate(3447.095 -8320.569)"/>
    <path id="パス_6813" data-name="パス 6813" class="cls-1" d="M289.6,43.278c-2.8-2.673-9.751,4.767-11.172,12.084s-1.04,20.658-5.753,25.087S260.716,86.53,256.426,88s-7.133,2.265-7.089,7.24.07,7.926-.02,14.3c-.1,7.333,1.584,14.615,1.706,16.761.049.847,17.316-7.91,23.615-11.37,5.325-2.925,9.216-.993,10.388-6.726s2.948-22.79,3.778-30.325,5.145-30.45.8-34.6" transform="translate(3402.32 -8300.717)"/>
    <path id="パス_6814" data-name="パス 6814" class="cls-2" d="M322.933,50.847c-1.864-6.537-7.123-7.512-11.533-8.352-4.176-.795-23.763-3.479-27.044,2.188s-1.491,29.927-5.965,38.578-16.5,13.82-22.47,16.5-9.047,10.141.2,12.528,21.078,5.468,27.342,3.679,35.048-15.659,36.688-16.628,2.386-6.637,3.282-15.66,1.241-26.74-.5-32.835" transform="translate(3402.115 -8300.382)"/>
    <path id="パス_6815" data-name="パス 6815" class="cls-3" d="M295.206,170.137c-.013.385-.579.689-1.264.684s-1.247-.315-1.255-.7l-.674-32.311a2.148,2.148,0,0,1,4.3.029Z" transform="translate(3393.126 -8320.742)"/>
    <path id="パス_6816" data-name="パス 6816" class="cls-3" d="M337.747,146.206c-.013.385-.579.689-1.264.684s-1.247-.316-1.255-.7l-.674-32.311a2.148,2.148,0,0,1,4.3.029Z" transform="translate(3383.966 -8315.589)"/>
    <path id="パス_6817" data-name="パス 6817" class="cls-4" d="M319.5,106.3l-.043,0c-1.575-.238-4.707-.792-7.736-1.328-2.324-.41-4.554-.806-5.881-1.021a.374.374,0,0,1,.121-.738c1.328.216,3.563.611,5.891,1.023,3.024.535,6.151,1.088,7.717,1.325a.374.374,0,0,1-.069.744" transform="translate(3390.217 -8313.739)"/>
    <path id="パス_6818" data-name="パス 6818" class="cls-2" d="M294.176,126.4c0-2.3-9.05,3.632-14.418,2.141-3.751-1.042-26.373-6.239-28.013-6.761s-2.535,2.634-2.386,6.661.547,13.547.7,15.113,10.837,4.076,15.61,5.17c3.863.886,19.066,4.744,21.5,4.148,4.073-1,7.83-1.193,7.83-7.01s-.82-18.344-.82-19.463" transform="translate(3402.313 -8317.729)"/>
    <path id="パス_6819" data-name="パス 6819" class="cls-4" d="M293.845,148.8a.232.232,0,0,1,0-.033c-.037-1.229-.044-3.686-.051-6.061-.006-1.822-.011-3.571-.029-4.609a.3.3,0,0,1,.3-.3.291.291,0,0,1,.311.279c.018,1.04.023,2.792.03,4.617.006,2.372.014,4.824.051,6.046a.3.3,0,0,1-.3.3.3.3,0,0,1-.312-.242" transform="translate(3392.749 -8321.188)"/>
    <path id="パス_6820" data-name="パス 6820" class="cls-4" d="M290.641,135.192a25.688,25.688,0,0,1-4.265-.785c-.829-.2-1.686-.4-2.545-.573a.288.288,0,0,1-.249-.339.328.328,0,0,1,.389-.21c.871.176,1.735.38,2.57.578a21.553,21.553,0,0,0,4.415.77c.782-.011,2.774-.483,7.821-2.659a.356.356,0,0,1,.439.128.262.262,0,0,1-.142.377c-4.139,1.785-6.864,2.7-8.1,2.718-.108,0-.22,0-.336,0" transform="translate(3394.943 -8319.928)"/>
    <path id="パス_6821" data-name="パス 6821" class="cls-1" d="M331.888,47.953C329,45.368,330.6,56.6,329.4,63.961s-.4,20.68-4.971,25.254-11.766,6.449-16.008,8.053-7.059,2.486-6.861,7.457.315,7.92.424,14.289c.124,7.333-.164,14.836.025,16.977.075.845,19.262-8.721,25.452-12.375,5.231-3.089,4.375-2.735,5.369-8.5s1.74-22.321,2.336-29.878,1.2-33.272-3.281-37.284" transform="translate(3391.072 -8301.762)"/>
    <path id="パス_6822" data-name="パス 6822" class="cls-4" d="M108.1,187.49c-.786-2.088-4.008-3.762-6.161-4.957-2.007,1.114-4.638.736-6.861-.425a6.7,6.7,0,0,0,.789,4.184c1.53,2.844,6.439,5.39,9.434,5.55s3.779-1.749,2.8-4.353" transform="translate(3435.539 -8330.729)"/>
    <path id="パス_6823" data-name="パス 6823" class="cls-5" d="M100.649,179.912c-.532-.3-1-.562-1.349-.8-1.757-1.19-2.633-4.926-3.964-7.448s-2.856-1.671-4.725-1.234c0,0-2.047.727-1.451,1.7s3.933,3.636,4.488,5.478a5.145,5.145,0,0,1,.14,1.882c2.223,1.161,4.853,1.539,6.861.425" transform="translate(3436.826 -8328.107)"/>
    <path id="パス_6824" data-name="パス 6824" class="cls-4" d="M75.293,180.416a9.245,9.245,0,0,1-.435,2.135c-1.07,2.922-.278,4.148,2.412,6.565s8.362,2.767,10.749.755c2.366-1.995-.876-3.668-4.19-6.578a10.855,10.855,0,0,1-8.535-2.877" transform="translate(3439.981 -8330.364)"/>
    <path id="パス_6825" data-name="パス 6825" class="cls-5" d="M78.38,165.78c-2.526-.457-3.267.867-3.169,2.4a55.551,55.551,0,0,1,.255,9.065A10.855,10.855,0,0,0,84,180.122c-.029-.025-.058-.049-.086-.075-3.344-2.957-3.792-6.121-3.538-9.76s.359-4.059-2-4.508" transform="translate(3439.808 -8327.193)"/>
    <path id="パス_6826" data-name="パス 6826" class="cls-5" d="M80.33,59.786c.633-1.5,4.441-10.476,3.968-10.975S82.827,47,82.237,46.2s-.534-1.425-.017-1.61.87.56,1.992,1.465.931.163,1.226-.565.707-4.346,1.09-5.122.7-1.765,1.441-1.569.017,1.61.354,2.068.748.033,1.567-.268.817.247,1.092,1.1.072.988.7,1.429.568.677.461,1.373-1.271,2.185-2.17,3.533S87.755,60.412,86.3,64.287c-1.467,3.9-14.4,4.234-17.936,3.467-1.35-.293-.2-13.36,1.1-13.335,1.733.033,4.032,4.31,5.3,5.2,2.8,1.966,4.991,1.531,5.567.166" transform="translate(3441.411 -8299.866)"/>
    <path id="パス_6827" data-name="パス 6827" class="cls-5" d="M59.21,46.522c.929,1.168,1.74,1.021,3.545,3.083s3.07,4.125,2.373,7.09,1.494,7.542-4.178,7.219A30.118,30.118,0,0,1,48.124,60.5c-2.965-1.612-3.545-2.514-.967-5.93s3.738-4.7,5.027-7.606,1.081-5.909,2.764-5.887,4.325-.042,4.39.989-.935,3.824-.129,4.458" transform="translate(3446.198 -8300.362)"/>
    <path id="パス_6828" data-name="パス 6828" class="cls-6" d="M36.532,82.539c-.618-2.165-1.955-11.146-1.134-15.982a21.5,21.5,0,0,1,7.028-12.016c2.791-2.511,5.345-2.213,6.17-4.275.665-1.664,4.036,7.261,8.259,9.328,3.545,1.735.9-9.153,2.123-9.548,4.258.4,6.777,7.734,9.178,10.4,2.34,2.6-1.964,6.757-2.4,8.4-1.333,5.035-1.333,4-1.689,5.714-.51,2.448-1.806,11.1.874,12.4,10.832,5.263,18.336,3.537,25.818,17.5,8.974,20.793,5.8,31.063,8.508,42.091.744,3.031-5,1.347-11.344,2.935-2.819.705-3.738-5.585-11.883-.318-2.826,1.828-8.6-4.979-13.329-1.529-4.822,3.516-7.837-2.093-11-3.352-2.5-.994-4.209,6.613-13.545,4.512-4.71-1.06,18.592-31.322,12.655-35.939-4.8-3.734-11.222-3.919-15.336-11.736-4-7.6,3.511-9.965,1.049-18.582" transform="translate(3448.618 -8302.294)"/>
    <path id="パス_6829" data-name="パス 6829" class="cls-6" d="M85.44,42.916c1.88-1.41,1.786-3.2,2.538-4.418-.81-1.438-7.237-.376-10.715-.47-3.131-.085-5.8,1.05-4.8,2.443a1.033,1.033,0,0,1,.771.031c.462.231.924,1.156,1.387.924,2.542-.231,3.467.694,5.547,2.08.924.693,2.311.462,3.467,1.387a1.119,1.119,0,0,0,1.064.162c.093-.622-.085-1.515.745-2.138" transform="translate(3440.445 -8299.645)"/>
    <path id="パス_6830" data-name="パス 6830" class="cls-5" d="M83.689,45.625c-1.156-.924-2.542-.694-3.467-1.386-2.079-1.387-3-2.312-5.546-2.08-.462.231-.924-.693-1.387-.924a1.027,1.027,0,0,0-.772-.031,2.325,2.325,0,0,0,.47.47c2.057,1.6,1.138,1.975,7.53,4.079,3.569,1.174,4.119.82,4.237.034a1.114,1.114,0,0,1-1.065-.162" transform="translate(3440.386 -8300.378)"/>
    <path id="パス_6831" data-name="パス 6831" class="cls-7" d="M83.3,40.58a1.36,1.36,0,0,1,.967-1.762c.983-.323.87-.035,1.553.448s.946,1.033.7,1.661c-.375.975-1.127,1.584-2.023,1.065a2.429,2.429,0,0,1-1.2-1.412" transform="translate(3438.078 -8299.847)"/>
    <path id="パス_6832" data-name="パス 6832" class="cls-1" d="M85.44,42.916c1.88-1.41,1.786-3.2,2.538-4.418-.81-1.438-7.237-.376-10.715-.47-3.131-.085-5.8,1.05-4.8,2.443a1.033,1.033,0,0,1,.771.031c.462.231.924,1.156,1.387.924,2.542-.231,3.467.694,5.547,2.08.924.693,2.311.462,3.467,1.387a1.119,1.119,0,0,0,1.064.162c.093-.622-.085-1.515.745-2.138" transform="translate(3440.445 -8299.645)"/>
    <path id="パス_6833" data-name="パス 6833" class="cls-5" d="M83.689,45.625c-1.156-.924-2.542-.694-3.467-1.386-2.079-1.387-3-2.312-5.546-2.08-.462.231-.924-.693-1.387-.924a1.027,1.027,0,0,0-.772-.031,2.325,2.325,0,0,0,.47.47c2.057,1.6,1.138,1.975,7.53,4.079,3.569,1.174,4.119.82,4.237.034a1.114,1.114,0,0,1-1.065-.162" transform="translate(3440.386 -8300.378)"/>
    <path id="パス_6834" data-name="パス 6834" class="cls-8" d="M82.862,42.263c-2.212-.065-2.276-.2-3.493-1.716s-1.971-2.422-.654-1.83,1.821.144,3.119.723,1.622.632,1.887,1.638-.169,1.214-.858,1.186" transform="translate(3439.201 -8299.815)"/>
    <path id="パス_6835" data-name="パス 6835" class="cls-7" d="M83.3,40.58a1.36,1.36,0,0,1,.967-1.762c.983-.323.87-.035,1.553.448s.946,1.033.7,1.661c-.375.975-1.127,1.584-2.023,1.065a2.429,2.429,0,0,1-1.2-1.412" transform="translate(3438.078 -8299.847)"/>
    <path id="パス_6836" data-name="パス 6836" class="cls-5" d="M48.451,38.389c2.228,2.613,5.125,3.591,7.34,3.2a11.319,11.319,0,0,0,5.844-3.038,10.862,10.862,0,0,0,2.173-4.641,6.887,6.887,0,0,0-.282-2.632c-.612-2.028.83-2.246-1.374-6.173-.67-1.194-4.451-6.543-10.48-5.823-5.3.632-7.883,13.633-3.22,19.1" transform="translate(3446.091 -8295.657)"/>
    <path id="パス_6837" data-name="パス 6837" class="cls-4" d="M60.623,22.181a6.5,6.5,0,0,0-3.962-3.264c-2.432-.578-2.728-2.292-5.275-2.353a12.843,12.843,0,0,0-7.812,2.3c-2.275,2.048-2.694,3.582-3.526,5.1-.71,1.3-2.828,5.833-.381,10.259,2.735,4.947,6.015,5.279,7.519,5.359,1.579.084,1.813,1.009,3.3.955,1.741-.063,2.368-3.963.795-4.456-2.406-1.422-1.977-2.339-1.744-3.188a1.316,1.316,0,0,1,2.12-.37c2.688,3.023,2.093.625,2.3-2.265.246-3.427,8.555-3.176,6.662-8.074" transform="translate(3447.706 -8295.084)"/>
    <path id="パス_6838" data-name="パス 6838" class="cls-4" d="M45.92,49.752c-2.006,1.619-1.53.015-3.743.84a2.253,2.253,0,0,1-2.834-1.578c-.264-1.132.439-.65.095-2.056s-.4-2.028.361-2.885.8-1.966,2.129-2.05,1.528.662,2.271.694,1.673-.253,2.06,1.23,1.514,1.948,1.267,2.811.337,1.917-1.606,2.994" transform="translate(3447.56 -8300.565)"/>
    <path id="パス_6839" data-name="パス 6839" class="cls-5" d="M265.646,42.9c-4.693.365-8.8,10.637-11,12.5-1.4,1.184-6.266-.858-8.851-1.751-2.214-.764-4.175-1.463-4.3-1.5-.88-.282-1.018-.535-1.087-1.281a19.438,19.438,0,0,0-.964-3.107c-.354-1.053-1.818-.32-2.3-.636s-.755-.92-1.182-1.383-1.476-.207-2.186.21-.988,1.2-1.8,3,.144,3.817.257,4.711,1.634,2.441,3.095,3.044a19.461,19.461,0,0,0,4.315.7c.049.013,3.387,1.844,4.8,2.451,4.317,1.853,9.2,5.419,12.5,5.551,2.5.1,4.6-1.836,6.1-3.721A124.243,124.243,0,0,0,269.9,49.4c1.992-4.625-1.1-6.746-4.251-6.5" transform="translate(3406.123 -8300.752)"/>
    <path id="パス_6840" data-name="パス 6840" class="cls-8" d="M276.473,34.217c-3.151-.946-9.4,6.5-11.652,9.452-2.476,3.245-5.5,6.551-3.2,8.151s9.2,5.5,10.4,5.8,5.085-12.1,5.6-14.953c.549-3.051,1.85-7.551-1.151-8.451" transform="translate(3399.846 -8298.868)"/>
    <path id="パス_6841" data-name="パス 6841" class="cls-4" d="M289.807,182.468c-2.462,2.188-5.042,4.36-8.264,3.693-2.3,2.057-6.785,5.055-8.394,6.943-2.056,2.412,2.25,3.154,4.158,2.571s12.063-4.517,14.12-6.839c1.767-1.993-.512-4.449-1.621-6.369" transform="translate(3397.304 -8330.807)"/>
    <path id="パス_6842" data-name="パス 6842" class="cls-5" d="M291.936,178.783a5.243,5.243,0,0,1-.432-.9c-.676-2-2.454-11.164-2.845-12.528,0,0-6.292-.122-6.163,1.886s3.372,12.023,2.491,13.776a6.1,6.1,0,0,1-1.314,1.457c3.222.668,5.8-1.5,8.264-3.693" transform="translate(3395.175 -8327.122)"/>
    <path id="パス_6843" data-name="パス 6843" class="cls-4" d="M250.631,188.283c-2.049,1.1-5.592,1.362-7.608,2.815-2.736,1.97-5.129,5.061,1.248,5.682s12.856-2.831,14.3-4.834c1.409-1.96-1.023-2.685-1.1-3.757a15.471,15.471,0,0,1-6.834.093" transform="translate(3404.278 -8332.038)"/>
    <path id="パス_6844" data-name="パス 6844" class="cls-5" d="M261.061,172.553s-5.552-1.7-5.858-.594.583,8.49-.224,11.157a2.794,2.794,0,0,1-1.488,1.591,15.47,15.47,0,0,0,6.834-.093.688.688,0,0,1-.008-.07c.027-1.111,1.259-10.312.745-11.992" transform="translate(3401.42 -8328.463)"/>
    <path id="パス_6845" data-name="パス 6845" class="cls-9" d="M288.7,85.952c.165.288,8.2,9.993,3.275,20.815-3.935,8.641-19.706,12.338-20.578,14.752-1.291,3.573,11.442,31.087,13.5,36.72,1.615,4.415-10.294,6.008-11.413,3.984-2.261-4.091-15.289-27.024-16.15-28.1-1.256-1.571.035,3.963.753,8.936,1.044,7.218,2.907,12.6,3.769,19.057.17,1.277-11.61,1.3-13.243.861-1.359-.37-5.112-17.666-5.814-21.209-.786-3.968-3.713-17.6-2.188-24.645.762-3.521,13.912-19.307,16.318-22.761,4.729-6.789,7.867-9.549,8.224-9.863.722-.634,23.543,1.455,23.543,1.455" transform="translate(3404.285 -8309.687)"/>
    <path id="パス_6846" data-name="パス 6846" class="cls-5" d="M284.989,25.054c.242-.008,5.742-.239,6.044-.278.137.506-1.111,3.548-.159,5.413,1.21,2.366,6.98,3.475,6.314,5.877-2.163,6.037-13.314,4.656-15.757,2.012-1.1-5.218,2.414-3.522,3.761-7.6a8.968,8.968,0,0,0-.2-5.425" transform="translate(3395.45 -8296.854)"/>
    <path id="パス_6847" data-name="パス 6847" class="cls-5" d="M292.813,22.623c-2.018,3-4.773,4.3-6.941,4.066a10.214,10.214,0,0,1-5.827-2.775,11.871,11.871,0,0,1-2.356-4.809,8.265,8.265,0,0,1,.133-2.855c.483-2.235-.926-2.347,1-6.759.585-1.34,1.287-4.295,7.169-4.029,5.17.233,15.581,7.976,6.824,17.161" transform="translate(3396.225 -8292.691)"/>
    <path id="パス_6848" data-name="パス 6848" class="cls-4" d="M280.181,8.108c-1.474.895-2.145,4.27-3.093,3.008-1.824-2.43-.491-8.422,2.629-8.934,3.209-.528.646-2,7.345-2.178,4.885-.131,13.587,7.917,10.538,12.774-2.017,3.213-.933,6.869-5.592,9.405-.87.474-.028-3.213.486-3.533,2.491-1.707,2.212-2.6,1.9-3.5s-1.693-1.665-2.231-.971c-2.677,3.456-1.232-.739-3.291-.643-4.32.2-7.94-6.063-8.689-5.432" transform="translate(3396.517 -8291.519)"/>
    <path id="パス_6849" data-name="パス 6849" class="cls-8" d="M267.29,52.47c1.525-9.75,7.093-18.1,8.111-18.532,1.75-.75,1.014,1.607,6.2,1.9,4.518.311,5.414-4.218,7.676-3.351,4.839,1.853,7.437,4.32,8.827,6.752,1.6,2.8,3.993,16.918-1.1,14.768-2.473-1.042,1.2,6.548.032,16.518-.392,3.341,2.4,17.253-.757,17.225-5.057-.046-6.027,4.209-13.683,2.7-2.629-.519-7.8-5.517-13.351-6.1-5.99-.632-8.989,1.113-10.372-.433-2.541-2.843,5.546-7.669,5.5-11.243-.114-8.452.988-7.837,2.922-20.2" transform="translate(3400.368 -8298.489)"/>
    <path id="パス_6850" data-name="パス 6850" class="cls-9" d="M234.569,28.079l-1.1,6.77c-.636,3.916.5,7.389,2.522,7.717s4.2-2.607,4.834-6.523l1.1-6.77c.069-.429.114-.852.143-1.267l-7.233-1.174c-.1.4-.2.818-.265,1.247" transform="translate(3405.769 -8297.296)"/>
    <path id="パス_8765" data-name="パス 8765" class="cls-9" d="M0,0H14.444V.714H0Z" transform="matrix(0.16, -0.987, 0.987, 0.16, 3639.474, -8242.885)"/>
    <path id="パス_6851" data-name="パス 6851" class="cls-9" d="M236.714,62.7c-.056.35-1.643.383-3.544.075s-3.4-.842-3.338-1.192,1.643-.383,3.544-.075,3.395.842,3.338,1.192" transform="translate(3406.514 -8304.716)"/>
    <path id="パス_6852" data-name="パス 6852" class="cls-8" d="M234.735,33.722l-.676,4.165c-.391,2.409.628,4.6,2.264,4.863s3.294-1.489,3.685-3.9l.676-4.165a6.417,6.417,0,0,0,.076-.782l-5.85-.949a6.542,6.542,0,0,0-.175.765" transform="translate(3405.622 -8298.614)"/>
    <path id="パス_6853" data-name="パス 6853" class="cls-1" d="M3.69,50.933c2.883-2.585,1.292,8.65,2.487,16.008s.4,20.68,4.971,25.254,11.766,6.449,16.007,8.053,7.059,2.486,6.861,7.457-.315,7.92-.424,14.289c-.123,7.332.164,14.836-.024,16.977-.075.845-19.263-8.721-25.452-12.375-5.232-3.088-4.375-2.734-5.37-8.5S1.006,95.774.41,88.218-.786,54.946,3.69,50.933" transform="translate(3456 -8302.403)"/>
    <path id="パス_8766" data-name="パス 8766" class="cls-3" d="M0,0H10.055V72.373H0Z" transform="translate(3588.432 -8205.174)"/>
    <path id="パス_6854" data-name="パス 6854" class="cls-3" d="M232.191,89.686c0,12.172-35.178,22.039-78.572,22.039s-78.572-9.867-78.572-22.039,35.178-22.039,78.572-22.039,78.572,9.867,78.572,22.039" transform="translate(3439.842 -8306.084)"/>
    <path id="パス_6855" data-name="パス 6855" class="cls-3" d="M196.341,198.495c0,3.781-13.058,6.846-29.166,6.846s-29.165-3.065-29.165-6.846,13.058-6.846,29.165-6.846,29.166,3.065,29.166,6.846" transform="translate(3426.285 -8332.783)"/>
    <path id="パス_6856" data-name="パス 6856" class="cls-1" d="M157.995,118.555c-14.838,0-42.947-2.829-58.075-8.275a.281.281,0,0,1,.19-.528c15.563,5.6,44.938,8.425,59.293,8.233,15.941-.213,51.5-4.627,61.964-9.256a.28.28,0,1,1,.226.512c-10.522,4.655-46.2,9.091-62.182,9.3q-.686.009-1.416.009" transform="translate(3434.526 -8314.924)"/>
    <path id="パス_6857" data-name="パス 6857" class="cls-7" d="M124.235,91.033c0,4.333-6.272,7.845-14.009,7.845s-14.009-3.512-14.009-7.845,6.272-7.845,14.009-7.845,14.009,3.512,14.009,7.845" transform="translate(3435.283 -8309.43)"/>
    <path id="パス_6858" data-name="パス 6858" class="cls-9" d="M113.156,98.678a52.652,52.652,0,0,1-9.14-1.312,5.028,5.028,0,0,1-3.27-2.323,7.831,7.831,0,0,0-.669-.851.284.284,0,1,1,.414-.389,8.809,8.809,0,0,1,.718.909,4.488,4.488,0,0,0,2.948,2.1,48.452,48.452,0,0,0,9.38,1.281c.337-.028.629-.036.9-.042a5.541,5.541,0,0,0,3.3-1.015c.816-.479,1.408-.782,1.885-1.025a6.117,6.117,0,0,0,1.86-1.252.284.284,0,0,1,.4.4,6.646,6.646,0,0,1-2.006,1.356c-.469.239-1.054.538-1.853,1.008a6.073,6.073,0,0,1-3.571,1.094c-.262.006-.544.013-.868.04-.122.01-.267.015-.429.015" transform="translate(3434.469 -8311.696)"/>
    <path id="パス_6859" data-name="パス 6859" class="cls-7" d="M249.347,87.824c0,4.333-6.272,7.845-14.009,7.845s-14.009-3.512-14.009-7.845,6.272-7.845,14.009-7.845,14.009,3.512,14.009,7.845" transform="translate(3408.345 -8308.739)"/>
    <path id="パス_6860" data-name="パス 6860" class="cls-9" d="M238.268,95.469a52.652,52.652,0,0,1-9.14-1.312,5.024,5.024,0,0,1-3.269-2.323,7.937,7.937,0,0,0-.67-.851.284.284,0,1,1,.414-.389,8.7,8.7,0,0,1,.717.909,4.492,4.492,0,0,0,2.949,2.1,48.453,48.453,0,0,0,9.379,1.281c.338-.028.629-.036.9-.042a5.541,5.541,0,0,0,3.3-1.015c.816-.479,1.408-.782,1.885-1.025a6.113,6.113,0,0,0,1.86-1.252.284.284,0,0,1,.4.4,6.617,6.617,0,0,1-2.006,1.356c-.468.239-1.053.537-1.853,1.008a6.072,6.072,0,0,1-3.57,1.094c-.262.006-.544.013-.869.04-.122.01-.266.015-.428.015" transform="translate(3407.531 -8311.005)"/>
    <path id="パス_6861" data-name="パス 6861" class="cls-7" d="M189.811,88.752c0,6.784-9.82,12.283-21.934,12.283s-21.933-5.5-21.933-12.283,9.82-12.283,21.933-12.283,21.934,5.5,21.934,12.283" transform="translate(3424.576 -8307.983)"/>
    <path id="パス_6862" data-name="パス 6862" class="cls-9" d="M169.975,103.584a55.562,55.562,0,0,1-8.707-.922l-.684-.112c-2.6-.419-6.144-2.839-8.584-4.623a.249.249,0,1,1,.294-.4c2.4,1.754,5.877,4.131,8.369,4.533l.686.112c2.892.476,7.735,1.274,11.359.734,4.222-.629,8.117-1.648,9.925-2.6.522-.274.964-.487,1.354-.675a6.959,6.959,0,0,0,2.478-1.654.249.249,0,0,1,.364.339,7.432,7.432,0,0,1-2.626,1.764c-.386.185-.825.4-1.34.667-1.853.972-5.81,2.011-10.082,2.648a19.178,19.178,0,0,1-2.807.186" transform="translate(3423.295 -8312.507)"/>
    <path id="パス_6863" data-name="パス 6863" class="cls-2" d="M168.218,75.544c-9.97,0-18.053,4.386-18.053,9.8,0,2.142,1.27,4.123,3.42,5.735,4.473-2.81,8.946-5.693,13.42-9.048-1.625,4.334-1.041,8.667-1.492,13,.882.071,1.785.11,2.7.11,9.97,0,18.053-4.386,18.053-9.8s-8.083-9.8-18.053-9.8" transform="translate(3423.667 -8307.784)"/>
    <path id="パス_6864" data-name="パス 6864" class="cls-1" d="M183.638,78.606c-2.05-2.121-1.206-.172-4.379-2.509s-5.767-2.437-8.818-2.4-2.961.587-7.151.544-6.138,1.632-7.885,2.649c-1.978,1.583-3.871,2.854-4.379,4.6s.621.644,2.143,1.776.173,1.9.009,4.275c-.111,1.6.83,1.864,2.364,2,3.874-2.457,7.747-5.007,11.621-7.913-1.387,3.7-1.165,7.394-1.351,11.092.874-.313,1.762-.855,2.676-1.237,1.921-.8,4.634.013,6.781.89s4.747-2.233,5.651-4.494,3.278-1.244,4.408-4.521.359-2.631-1.691-4.752" transform="translate(3423.509 -8307.385)"/>
    <path id="パス_6865" data-name="パス 6865" class="cls-7" d="M158.154,81.187A1.193,1.193,0,0,1,159,79.642c.862-.282.763-.031,1.361.393s.83.9.618,1.456c-.329.855-.988,1.389-1.774.933a2.133,2.133,0,0,1-1.052-1.237" transform="translate(3421.959 -8308.641)"/>
    <path id="パス_6866" data-name="パス 6866" class="cls-7" d="M174.237,90.855a1.193,1.193,0,0,1,.847-1.546c.862-.282.763-.031,1.361.393s.83.9.618,1.457c-.329.854-.988,1.388-1.774.933a2.136,2.136,0,0,1-1.052-1.237" transform="translate(3418.496 -8310.723)"/>
    <path id="パス_6867" data-name="パス 6867" class="cls-7" d="M181.921,79.945a1.192,1.192,0,0,1,.847-1.545c.862-.282.763-.031,1.361.393s.83.9.618,1.456c-.329.855-.988,1.389-1.774.933a2.133,2.133,0,0,1-1.052-1.237" transform="translate(3416.842 -8308.373)"/>
    <path id="パス_6868" data-name="パス 6868" class="cls-7" d="M169.456,76.943A1.193,1.193,0,0,1,170.3,75.4c.862-.282.763-.031,1.361.393s.83.9.618,1.456c-.329.855-.988,1.389-1.774.933a2.133,2.133,0,0,1-1.052-1.237" transform="translate(3419.526 -8307.727)"/>
    <path id="パス_6869" data-name="パス 6869" class="cls-8" d="M175.252,78.8c.588-1.85.719-1.87,2.288-2.531s2.516-1.08,1.7-.111-.56,1.5-1.361,2.456-.923,1.215-1.835,1.2-.982-.435-.793-1.009" transform="translate(3418.284 -8307.794)"/>
    <path id="パス_6870" data-name="パス 6870" class="cls-8" d="M181.579,87.028c1.937.117,1.989.239,3.015,1.6s1.663,2.176.525,1.621-1.593-.176-2.715-.718-1.4-.6-1.609-1.485.18-1.059.785-1.016" transform="translate(3417.084 -8310.256)"/>
    <path id="パス_6871" data-name="パス 6871" class="cls-8" d="M165.88,79.559c-1.93-.193-1.978-.317-2.95-1.716s-1.576-2.239-.461-1.641,1.584.239,2.684.825,1.379.652,1.55,1.548-.222,1.051-.824.984" transform="translate(3421.147 -8307.884)"/>
    <path id="パス_6872" data-name="パス 6872" class="cls-8" d="M156.376,87.651c1.642.449,1.758.513,3.363-.578.5-.335.706-.706,0-1.284s-.963-.449-2.182-.192-1.347.834-2.587,1.091-.236.514,1.406.963" transform="translate(3422.752 -8309.902)"/>
    <path id="パス_6873" data-name="パス 6873" class="cls-9" d="M130.341,47.969l-.039,6.859c-.022,3.967,1.636,7.223,3.685,7.235s3.745-3.225,3.766-7.192l.039-6.859c0-.435-.019-.859-.055-1.274L130.41,46.7c-.041.414-.067.838-.069,1.273" transform="translate(3427.944 -8301.573)"/>
    <path id="パス_8767" data-name="パス 8767" class="cls-9" d="M0,0H14.444V.714H0Z" transform="translate(3561.507 -8227.455) rotate(-89.685)"/>
    <path id="パス_6874" data-name="パス 6874" class="cls-9" d="M137.438,81.81c0,.355-1.565.632-3.49.621s-3.485-.307-3.482-.661,1.565-.632,3.49-.621,3.485.307,3.482.661" transform="translate(3427.909 -8308.991)"/>
    <path id="パス_6875" data-name="パス 6875" class="cls-8" d="M131.222,53.543l-.024,4.22c-.013,2.44,1.331,4.445,2.988,4.455s3.025-1.98,3.039-4.421l.024-4.219a6.415,6.415,0,0,0-.046-.784l-5.926-.034a6.393,6.393,0,0,0-.055.783" transform="translate(3427.751 -8302.879)"/>
    <path id="パス_6876" data-name="パス 6876" class="cls-5" d="M43.77,79.613c1.34-.618,3.609-3.2,5.053.309.613,1.49,1.989,11.769,5.292,11.868,2.24.068,5.789,0,6.624-.026,1.679-.057,5.771-.384,5.989-.508.9-.507,4.9-2.618,6.685-2.465s3.071.84,5.261,2.229c.83.527-.092,1.088.141,1.394.661.869.549,1.71-.2,1.8-1.361.164-5.321.341-5.913.55-1.041.369-4.29.956-5.155.566-.41-.184-2.955.639-4,.892-1.257.3-3.573,1-4.65,1.259-1.138.275-3.211.907-5.607,1.49-4.929,1.2-6.323-.042-7.712-2.337-2.215-3.661-2.656-7.288-4.388-11.865-1.444-3.815-.106-3.917,2.578-5.155" transform="translate(3447.258 -8308.339)"/>
    <path id="パス_6877" data-name="パス 6877" class="cls-5" d="M296.028,58.558c-6.324.593-6.393,1.145-5.414,4.466.5,1.681,2.453,11.016-1.088,11.636-2.4.421-6.232.9-7.134,1-1.817.2-6.273.483-6.527.384-1.045-.407-5.68-2.059-7.579-1.616s-3.176,1.381-5.318,3.216c-.812.7.268,1.157.064,1.522-.577,1.038-.326,1.926.494,1.906,1.49-.035,5.782-.459,6.452-.326,1.178.235,4.766.363,5.638-.191.413-.262,3.28.229,4.441.34,1.4.133,4,.52,5.2.633,1.268.119,3.6.478,6.267.733,5.492.526,6.8-1.026,7.939-3.712a32.56,32.56,0,0,0,2.706-13.143c.177-7.208-2.943-7.148-6.144-6.849" transform="translate(3399.446 -8304.105)"/>
    <path id="パス_6878" data-name="パス 6878" class="cls-8" d="M296.838,41.407c-1.811,4.678-1.1,14.6-.4,18.3s3.4,2.1,7.8,1.9,6.9,1.2,6.8-3.3-2.5-17.4-6.4-20.3-6.6.3-7.8,3.4" transform="translate(3392.333 -8299.457)"/>
    <path id="パス_8768" data-name="パス 8768" class="cls-10" d="M0,0H270.651V164.076H0Z" transform="translate(3456 -8291.519)"/>
    <path id="パス_6879" data-name="パス 6879" class="cls-4" d="M39.143,1.476,45.894,0c.121,1.35-.941,1.2-1.576,1.427a22.269,22.269,0,0,1-2.385.582c.338,1.418.661,2.769,1.032,4.327a4.713,4.713,0,0,0,1.292-1.718A13.953,13.953,0,0,1,45.8,2.512a1.753,1.753,0,0,1,3.034.613,16.03,16.03,0,0,1,.575,2.033c.6-.748,1.028-1.324,1.5-1.863,1.569-1.8,3.387-1.5,4.053.807a11.637,11.637,0,0,1,.159,3.878c-.056.893.016,1.555.949,1.744a1.037,1.037,0,0,1-1.055,1.2c-1.179.13-2.4.57-3.976-.4L53.8,9.764c.17-1.276.384-2.622.512-3.974a2.887,2.887,0,0,0-.259-1.272c-.57-1.429-1.532-1.6-2.5-.391a10.32,10.32,0,0,0-2.3,4.255,8.557,8.557,0,0,1-.562,1.35c-.874-.65-.6-1.3-.6-1.878,0-1.186.069-2.378-.023-3.557-.034-.429-.406-1.137-.689-1.17a1.813,1.813,0,0,0-1.389.6,8.153,8.153,0,0,0-2.04,5.5,12.688,12.688,0,0,1-.126,1.564l-.409.06a5.465,5.465,0,0,1-.505-1.024c-.455-1.756-.932-3.511-1.281-5.29a3.756,3.756,0,0,0-2.484-3.06" transform="translate(3532.908 -8323.711)"/>
    <path id="パス_6880" data-name="パス 6880" class="cls-4" d="M5.275,9.6a11.845,11.845,0,0,0,.64-1.926A4.152,4.152,0,0,1,7.62,5.085c1.474-1.212,2.382-1.113,3.595.42.152.191.31.379.526.643.482-.545.909-1.073,1.383-1.555.92-.937,1.637-1.055,2.616-.225a5.4,5.4,0,0,1,1.423,1.921,16.729,16.729,0,0,1,.77,2.891c.151.659.239,1.332.355,2l1.591.169c.195,1.376-.931,1.143-1.565,1.425a2.179,2.179,0,0,1-2.907-.809l1.482-.5A9.863,9.863,0,0,0,16.1,6.4a1.757,1.757,0,0,0-1.642-1.331c-.807.016-1.082.7-1.427,1.317a5.188,5.188,0,0,0-.417,3.818c.146.667.111.675-.611,1.638-.265-.775-.515-1.372-.67-1.992a31.473,31.473,0,0,0-.759-3.283c-.538-1.449-1.452-1.6-2.568-.53-1.456,1.39-1.8,3.256-2.02,5.123a29.548,29.548,0,0,0-.029,3.351c-.271,0-.572.053-.607-.02a8.776,8.776,0,0,1-1.015-2.363C4.005,9.9,3.3,7.73,3.356,5.43,4.471,6.613,4.423,8.216,5.275,9.6" transform="translate(3540.614 -8324.531)"/>
    <path id="パス_6881" data-name="パス 6881" class="cls-4" d="M115.617,24.569c-.689.217-.478,1.485-1.741,1.062l.96-5.757c1.05.6.718,1.428.734,2.107a2.216,2.216,0,0,0,1.478,2.181c1.259.505,2.431-.328,2.139-1.635a7.69,7.69,0,0,0-1.291-2.639,4.692,4.692,0,0,1-.03-5.745,2.211,2.211,0,0,1,3.856.149c.268.412.5.846.828,1.4l1.755-1.955c.1.489.25.757.17.894-.942,1.617-1.919,3.213-2.881,4.82-.392.655-.85.843-1.609.227.241-.279.417-.494.6-.7a3.033,3.033,0,0,0,.282-4.088c-.74-1.04-1.773-1.039-2.367.08a3.985,3.985,0,0,0,.3,4.422,13.1,13.1,0,0,1,1.255,2.257,2.323,2.323,0,0,1-.485,2.923,2.784,2.784,0,0,1-3.167.383c-.271-.151-.555-.275-.787-.39" transform="translate(3516.817 -8326.528)"/>
    <path id="パス_6882" data-name="パス 6882" class="cls-4" d="M104.47,14.481c-.5,1.894-.538,3.446.752,4.65a2.008,2.008,0,0,0,2.653-.009l-.542-1.439c.223-.1.355-.219.431-.19,1.718.654,2.14,2.059,2.233,3.643-.989.7-1.091-.287-1.5-.6a1.175,1.175,0,0,0-.369-.055c-3.133.607-4.913-.662-5.023-3.81a6.762,6.762,0,0,1,3-6.134,3.464,3.464,0,0,1,5.245,2.308,2.721,2.721,0,0,1-1.478,2.981,3.519,3.519,0,0,1-3.9-.067,14.305,14.305,0,0,1-1.5-1.277m.673-1.3c1.177,1.966,2.408,2.488,3.95,1.743.772-.374,1.385-.855,1.259-1.834a2.085,2.085,0,0,0-1.559-1.875c-1.474-.448-2.365.009-3.65,1.966" transform="translate(3519.138 -8325.861)"/>
    <path id="パス_6883" data-name="パス 6883" class="cls-4" d="M34.259,7.755c1.17,1.54.6,3.075,1.132,4.457-1.3-1.095-2.864-.512-4.215-.965-2.5-.838-3.584-2.4-3.4-5.118A4.82,4.82,0,0,1,31.868,1.86a3.128,3.128,0,0,1,1.459.11,2.333,2.333,0,0,1,1.635,2.44A2.874,2.874,0,0,1,32.425,6.55a32.345,32.345,0,0,1-3.449-.363,2.52,2.52,0,0,0,.731,2.95,3.6,3.6,0,0,0,4.185.954c.1-.654.21-1.331.368-2.336M29.164,4.734c1.517.6,2.668,1.135,3.9.524a1.653,1.653,0,0,0,.851-1.242,1.633,1.633,0,0,0-1.088-1.089,3.536,3.536,0,0,0-1.951.353,9.453,9.453,0,0,0-1.707,1.454" transform="translate(3535.36 -8324.103)"/>
    <path id="パス_6884" data-name="パス 6884" class="cls-4" d="M80.467,4.58l-2.643.009C78.833,3.274,81.547,2.806,83.97,3.4c-.112,1.766-1.625.377-2.318,1.161.067.919.148,2.009.233,3.176,3.393-2.318,2.944-1.856,4.969-1.71l.6-1.794c.694.98.668,2.181-.034,5.618-.886.014-.892-.56-.912-1.228-.048-1.642-.85-2.1-2.234-1.189A5.09,5.09,0,0,0,81.7,11.363a15.209,15.209,0,0,1-.184,2.053c-.07.33-.424.6-.832.828-.4-3.24.551-6.46-.22-9.663" transform="translate(3524.579 -8324.388)"/>
    <path id="パス_6885" data-name="パス 6885" class="cls-4" d="M65.029,8.87c.181-1.026.294-2.072.561-3.077a2.9,2.9,0,0,1,2.866-2.251A3.4,3.4,0,0,1,72.09,5.3a13.263,13.263,0,0,1,1.179,4.09,3.969,3.969,0,0,1-3.442,4.218,3.551,3.551,0,0,1-3.377-1.6A19.455,19.455,0,0,1,65.029,8.87M67,5.187a5.317,5.317,0,0,0,.105,5.992,2.593,2.593,0,0,0,2.7,1.249A3.16,3.16,0,0,0,72.29,8.473,12.149,12.149,0,0,0,71.449,6.2a2,2,0,0,0-2.418-1.258c-.664.087-1.329.16-2.034.244" transform="translate(3527.334 -8324.47)"/>
    <path id="パス_6886" data-name="パス 6886" class="cls-4" d="M93.239,6.315,97.2,8.533c-.173,1.158-1.088.439-1.748.681a7.837,7.837,0,0,0-1.263,3.934c-.008,1.99.438,2.609,2.634,3.052-.541.4-.9.881-1.241.87-1.588-.053-3.259.035-4.847-1.665l2.7.218a9.747,9.747,0,0,1,.789-6.459c.312-.611-.081-1.044-.539-1.443-.379-.33-1.031-.618-.44-1.407" transform="translate(3521.8 -8325.07)"/>
    <path id="パス_6887" data-name="パス 6887" class="cls-4" d="M0,5.69c.786-1.43,3.537-2.447,4.612-2,.189.078.243.483.386.794L0,5.69" transform="translate(3541.336 -8324.482)"/>
    <path id="パス_8769" data-name="パス 8769" class="cls-10" d="M0,0H99.979V22.9H0Z" transform="translate(3541.336 -8323.711)"/>
  </g>
</svg>
