<svg xmlns="http://www.w3.org/2000/svg" width="43.68" height="43.68" viewBox="0 0 43.68 43.68">
  <defs>
    <style>
      .cls-1 {
        fill: #4b4b4b;
      }
    </style>
  </defs>
  <g id="グループ_1148" data-name="グループ 1148" transform="translate(-3322 5690)">
    <path id="パス_8686" data-name="パス 8686" class="cls-1" d="M152.74,134.736a1.456,1.456,0,0,0,.168,2.042l7.219,5.569a1.075,1.075,0,0,0,.1.058c.016.009.03.018.045.025a1.653,1.653,0,0,0,2-.443c.016-.017.033-.029.048-.046l8.848-10.467a1.2,1.2,0,1,0-1.777-1.581l-8.27,8.835-6.385-4.447A1.455,1.455,0,0,0,152.74,134.736Z" transform="translate(3182.597 -5805.351)"/>
    <path id="パス_8687" data-name="パス 8687" class="cls-1" d="M4.518,243.777a10.673,10.673,0,0,1,.048-1.14H.035c-.028.375-.035.758-.035,1.14s.007.765.035,1.14H4.566A10.654,10.654,0,0,1,4.518,243.777Z" transform="translate(3322 -5911.937)"/>
    <path id="パス_8688" data-name="パス 8688" class="cls-1" d="M462.5,242.637H457.92v2.28H462.5c.028-.375.034-.758.034-1.14S462.527,243.012,462.5,242.637Z" transform="translate(2903.146 -5911.937)"/>
    <path id="パス_8689" data-name="パス 8689" class="cls-1" d="M120.893,33.7c.428-.27.865-.526,1.309-.752.061-.03.113-.061.173-.083l-2.258-3.924a18.275,18.275,0,0,0-1.65.949l2.259,3.924C120.78,33.775,120.84,33.738,120.893,33.7Z" transform="translate(3213.64 -5716.471)"/>
    <path id="パス_8690" data-name="パス 8690" class="cls-1" d="M28.972,120.107l3.923,2.258.949-1.649-3.924-2.26A17.491,17.491,0,0,0,28.972,120.107Z" transform="translate(3295.5 -5798.351)"/>
    <path id="パス_8691" data-name="パス 8691" class="cls-1" d="M426.72,347.814c-.235.444-.483.881-.761,1.3-.037.054-.077.113-.113.166l3.924,2.258c.347-.534.663-1.076.956-1.64l-3.915-2.266C426.779,347.693,426.749,347.754,426.72,347.814Z" transform="translate(2932.485 -6007.977)"/>
    <path id="パス_8692" data-name="パス 8692" class="cls-1" d="M32.977,347.808l-.09-.173-3.915,2.258a16.03,16.03,0,0,0,.948,1.648l3.924-2.258c-.037-.053-.076-.113-.114-.166A14.509,14.509,0,0,1,32.977,347.808Z" transform="translate(3295.5 -6007.978)"/>
    <path id="パス_8693" data-name="パス 8693" class="cls-1" d="M430.726,120.108a17.911,17.911,0,0,0-.956-1.65l-3.924,2.26.957,1.649Z" transform="translate(2932.484 -5798.352)"/>
    <path id="パス_8694" data-name="パス 8694" class="cls-1" d="M120.892,425.94c-.053-.037-.113-.075-.167-.113l-2.259,3.924a18.322,18.322,0,0,0,1.65.958l2.258-3.925a1.871,1.871,0,0,1-.173-.082A14.422,14.422,0,0,1,120.892,425.94Z" transform="translate(3213.641 -6079.499)"/>
    <path id="パス_8695" data-name="パス 8695" class="cls-1" d="M347.64,32.856l1.649.958,2.259-3.924a18.2,18.2,0,0,0-1.641-.949Z" transform="translate(3004.018 -5716.471)"/>
    <path id="パス_8696" data-name="パス 8696" class="cls-1" d="M242.637,457.967v4.525c.376.034.758.041,1.14.041s.765-.007,1.14-.041V457.92h-2.28Z" transform="translate(3100.063 -6108.854)"/>
    <path id="パス_8697" data-name="パス 8697" class="cls-1" d="M244.917,4.566V.041c-.376-.034-.758-.041-1.14-.041s-.764.007-1.14.041V4.614h2.28Z" transform="translate(3100.063 -5690)"/>
    <path id="パス_8698" data-name="パス 8698" class="cls-1" d="M347.64,426.793l2.267,3.916c.564-.295,1.107-.611,1.641-.958l-2.259-3.924Z" transform="translate(3004.018 -6079.499)"/>
  </g>
</svg>
