<svg xmlns="http://www.w3.org/2000/svg" width="303.179" height="156.873" viewBox="0 0 303.179 156.873">
  <defs>
    <style>
      .cls-1 {
        fill: #e8f2ff;
      }

      .cls-2 {
        fill: #fff;
      }

      .cls-3 {
        fill: #8cb97f;
      }

      .cls-4 {
        fill: #bababa;
      }

      .cls-5 {
        fill: #80ad74;
      }
    </style>
  </defs>
  <g id="グループ_1147" data-name="グループ 1147" transform="translate(-3282.114 8244.514)">
    <path id="パス_7449" data-name="パス 7449" class="cls-1" d="M-2500.449,1938c-5.531,49.794,45.457,38.544,107.9,29.982s65.852-11.282,109.906-21.364,90.323-34.087,65.73-55.782-106.993,6.655-158.726,1.943S-2494.918,1888.21-2500.449,1938Z" transform="translate(753.441 -6727.029) rotate(-169)"/>
    <path id="パス_7439" data-name="パス 7439" class="cls-2" d="M60.777,12.723a4.436,4.436,0,0,1-.221-.841,4.091,4.091,0,0,1,3.278-4.766,3.93,3.93,0,0,1,3.461,1.2c.037-.015.073-.034.11-.049a6.593,6.593,0,0,1-.324-1.23A5.982,5.982,0,0,1,71.874.071a5.757,5.757,0,0,1,5.208,1.908A5.025,5.025,0,0,1,80.018.434c2.484-.4,4.77.979,5.1,3.072a3.344,3.344,0,0,1-.232,1.838A4.768,4.768,0,0,1,89.8,9.283,4.8,4.8,0,0,1,85.728,14.7a5.018,5.018,0,0,1-.741.064,11.021,11.021,0,0,1-6.544,3.414,11.488,11.488,0,0,1-6.035-.6,7.738,7.738,0,0,1-4.079,1.924,7.642,7.642,0,0,1-4.755-.7,4.783,4.783,0,0,1-.747.182c-2.158.346-4.141-.841-4.431-2.647a3.473,3.473,0,0,1,2.381-3.62" transform="translate(3451.584 -8219.894) rotate(21)"/>
    <path id="パス_7440" data-name="パス 7440" class="cls-2" d="M13.705,19.349a5.673,5.673,0,0,1-.547-1.123,6.266,6.266,0,0,1,4.111-7.832,6.633,6.633,0,0,1,5.962.709A6.065,6.065,0,0,1,26.18,8.954c2.639-.936,5.343-.1,6.037,1.861a3.019,3.019,0,0,1,.037,1.838c2.6-.6,5.18.537,5.962,2.746.852,2.405-.749,5.167-3.575,6.166a6.252,6.252,0,0,1-.8.227,13.337,13.337,0,0,1-6.574,4.762,13.566,13.566,0,0,1-7.718.541,8.414,8.414,0,0,1-1.144.5c-3.351,1.185-6.775.139-7.651-2.336-.734-2.069.548-4.483,2.946-5.912" transform="translate(3400.552 -8210.762) rotate(21)"/>
    <path id="パス_7441" data-name="パス 7441" class="cls-3" d="M82.06,24.176a110.13,110.13,0,0,0-6.8,10.56c-4.126,7.205-10.7,6.8-15.232,6.593-5.255,11.252-1.692,19.392,5.9,26.323l20.666-7.576a17.882,17.882,0,0,0,8.429-7.271A21.417,21.417,0,0,0,98.536,41.8L98.825,23.3a21.918,21.918,0,0,0-8.2,3.793c-1.66.829-5.026-1.752-8.562-2.92" transform="translate(3451.567 -8207.485) rotate(21)"/>
    <path id="パス_7442" data-name="パス 7442" class="cls-4" d="M89.611,18.385a54.385,54.385,0,0,0-7.79,1.272c-4.61,1.492-7.118,4.117-11.185,8.165,4.106,1,8.014,3.2,9.939,2.494a30.468,30.468,0,0,1,9.526-3.24l-.491-8.334Z" transform="translate(3455.445 -8199.849) rotate(16)"/>
    <path id="パス_7448" data-name="パス 7448" class="cls-4" d="M90.308,17A31.676,31.676,0,0,0,84,19.136c-4.61,2.028-9.3,7.07-13.365,12.573,4.106,1.356,8.014,4.353,9.939,3.391A25.472,25.472,0,0,1,90.1,30.7l.206-13.208Z" transform="translate(3505.152 -8232.663) rotate(51)"/>
    <path id="パス_7443" data-name="パス 7443" class="cls-4" d="M63.74,34.064c1.612,0,4.835,4.835,8.061,3.224.932-.932,1.327-2.941,2.117-4.47-4.865-2.581-8.587-4.13-12.548-6.168C54.165,22.957,52.525,24.6,49.652,28.1a68.7,68.7,0,0,0-3.808,5.8c6.342,2.207,10.91-1.23,17.9.167" transform="translate(3441.661 -8210.119) rotate(21)"/>
    <path id="パス_7444" data-name="パス 7444" class="cls-5" d="M106.444,38.243A147.674,147.674,0,0,0,91.41,28.969c-.79,1.529-1.185,3.538-2.117,4.47-3.224,1.612-6.449-3.224-8.061-3.224-6.986-1.4-11.554,2.04-17.9-.167C58.317,38.233,50.511,52,48.815,55.523c-2.256,4.74-18.521,22.632-23.034,28.613a6.783,6.783,0,0,0,1.79,2.821L40.306,82.28l73.972-27.145a17.888,17.888,0,0,0,8.429-7.269c-3.336-2.6-8.076-3.967-16.264-9.624" transform="translate(3423.949 -8212.796) rotate(21)"/>
    <path id="パス_7445" data-name="パス 7445" class="cls-4" d="M29.428,52.466c1.612,1.612,1.612,3.224,3.224,4.835,2.917.973,5.826-.406,7.681-2.711-1.116-1.191-2.31-2.424-3.731-3.8-6.8-6.593-13.381-5.767-19.553-1.453a37.573,37.573,0,0,0-5.8,6.116,17.721,17.721,0,0,1,2.063,3.461c6.447,3.224,9.672-9.672,16.119-6.449" transform="translate(3406.805 -8203.498) rotate(21)"/>
    <path id="パス_7446" data-name="パス 7446" class="cls-3" d="M50.14,51.808c-1.855,2.3-4.764,3.684-7.681,2.712-1.612-1.614-1.612-3.225-3.224-4.837-6.449-3.224-9.672,9.672-16.119,6.449a17.814,17.814,0,0,0-2.063-3.461C14.448,60.752,5.116,74.269,0,81.712a1.624,1.624,0,0,0,.258.324c2.289,2.546,5.869,3.433,9.817,1.982L62.785,64.674A180.3,180.3,0,0,1,50.14,51.808" transform="translate(3396.653 -8204.414) rotate(21)"/>
    <path id="パス_7447" data-name="パス 7447" class="cls-3" d="M67.7,44.432c-2.5-3.111-6.433-4.974-10.37-3.662-2.176,2.179-2.176,4.355-4.352,6.531-8.707,4.352-13.06-13.06-21.765-8.707a24.053,24.053,0,0,1-2.785,4.673C19.508,32.356,6.908,14.1,0,4.055a2.192,2.192,0,0,1,.349-.437C3.44.18,8.273-1.018,13.6.941l71.17,26.12A243.448,243.448,0,0,0,67.7,44.432" transform="translate(3585.293 -8125.355) rotate(159)"/>
  </g>
</svg>
