<svg xmlns="http://www.w3.org/2000/svg" width="45.655" height="255.261" viewBox="0 0 45.655 255.261">
  <defs>
    <style>
      .cls-1 {
        fill: #c6543e;
      }
    </style>
  </defs>
  <g id="グループ_1178" data-name="グループ 1178" transform="translate(2467 7441)">
    <path id="パス_8910" data-name="パス 8910" class="cls-1" d="M43.395,108.964l2.26-.107v-7.095a5.834,5.834,0,0,0-5.827-5.827h-34A5.834,5.834,0,0,0,0,101.762v6.92l2.035.292a1.246,1.246,0,0,1,0,2.466L0,111.732v6.922a5.834,5.834,0,0,0,5.827,5.827h34a5.834,5.834,0,0,0,5.827-5.827v-7.1l-2.261-.105a1.245,1.245,0,0,1,0-2.488Zm-.687,5.371v4.32a2.884,2.884,0,0,1-2.88,2.88h-34a2.884,2.884,0,0,1-2.88-2.88v-4.4a4.192,4.192,0,0,0,0-8.1v-4.4a2.884,2.884,0,0,1,2.88-2.881h34a2.884,2.884,0,0,1,2.88,2.881v4.319a4.193,4.193,0,0,0,0,8.253Z" transform="translate(-2467 -7536.935)"/>
    <path id="パス_8911" data-name="パス 8911" class="cls-1" d="M122.876,330.245h-.719v3.1h1.908v-3.1h-1.189Z" transform="translate(-2578.264 -7750.352)"/>
    <path id="パス_8912" data-name="パス 8912" class="cls-1" d="M122.876,269.158h-.719v3.1h1.908v-3.1h-1.189Z" transform="translate(-2578.264 -7694.712)"/>
    <path id="パス_8913" data-name="パス 8913" class="cls-1" d="M122.876,208.064h-.719v3.1h1.908v-3.1h-1.189Z" transform="translate(-2578.264 -7639.065)"/>
    <path id="パス_8914" data-name="パス 8914" class="cls-1" d="M122.876,146.985h-.719v3.1h1.908v-3.1h-1.189Z" transform="translate(-2578.264 -7583.433)"/>
    <path id="パス_8918" data-name="パス 8918" class="cls-1" d="M-7.488-6.534l-.234-.234a.94.94,0,0,1-.27-.711,1.045,1.045,0,0,1,.324-.711,21.569,21.569,0,0,0,3.78-4.968,1.261,1.261,0,0,1,.621-.549,1.1,1.1,0,0,1,.819-.027l.252.09a.9.9,0,0,1,.549.513.84.84,0,0,1-.027.729A22.856,22.856,0,0,1-6.048-6.5a.983.983,0,0,1-.72.279A1.018,1.018,0,0,1-7.488-6.534ZM3.888-13.176a21.346,21.346,0,0,0,3.8,4.986A1.009,1.009,0,0,1,8-7.479a.972.972,0,0,1-.279.711l-.234.234a.977.977,0,0,1-.72.315.975.975,0,0,1-.738-.3A22.235,22.235,0,0,1,1.674-12.4a.84.84,0,0,1-.027-.729.9.9,0,0,1,.549-.513l.252-.09a1.134,1.134,0,0,1,.819.018A1.216,1.216,0,0,1,3.888-13.176ZM-2.34-8.226a1.027,1.027,0,0,1,.5-.6.964.964,0,0,1,.783-.081l.378.108a1.021,1.021,0,0,1,.6.5A.988.988,0,0,1,0-7.506Q-.918-4.554-2.2-1.4a.137.137,0,0,0,.009.108.086.086,0,0,0,.081.054Q.918-1.458,4-1.782a.088.088,0,0,0,.081-.045.081.081,0,0,0,.009-.081q-.7-1.314-1.368-2.412a.87.87,0,0,1-.072-.729.864.864,0,0,1,.5-.531l.216-.09a1.08,1.08,0,0,1,.819-.036,1.212,1.212,0,0,1,.639.522Q6.516-2.3,7.686-.072a.9.9,0,0,1,.036.747.925.925,0,0,1-.522.549l-.216.09a1.11,1.11,0,0,1-.81.018,1.045,1.045,0,0,1-.612-.54Q5.508.684,5.409.5T5.256.216A.175.175,0,0,0,5.04.108q-5.832.72-11.52.936A.96.96,0,0,1-7.218.765,1.1,1.1,0,0,1-7.56.054a.909.909,0,0,1,.243-.72A.96.96,0,0,1-6.624-.99q.234,0,.738-.027t.756-.045A.242.242,0,0,0-4.9-1.224,68.038,68.038,0,0,0-2.34-8.226ZM-7.128,11.7a.934.934,0,0,1-.684-.288.934.934,0,0,1-.288-.684.934.934,0,0,1,.288-.684.934.934,0,0,1,.684-.288H.846A.127.127,0,0,0,.99,9.616Q.972,9.166.972,8.23a1,1,0,0,1,.3-.72A.956.956,0,0,1,1.98,7.2h.234a1,1,0,0,1,.72.3.956.956,0,0,1,.306.711q0,.054.054,1.4a.127.127,0,0,0,.144.144H5.67a.043.043,0,0,0,.045-.036.044.044,0,0,0-.027-.054q-.5-.342-1.26-.81a.854.854,0,0,1-.4-.567.818.818,0,0,1,.135-.675,1.027,1.027,0,0,1,1.35-.288q.828.5,1.368.864A.99.99,0,0,1,7.11,9.6l-.036.054q-.036.072.054.108a.972.972,0,0,1,0,1.944H3.564q-.144,0-.144.162a34.932,34.932,0,0,0,.747,5.058,15.621,15.621,0,0,0,.963,3.1q.45.9.72.9.4,0,.648-1.944a.786.786,0,0,1,1.044-.63l.09.036a1.422,1.422,0,0,1,.675.567,1.176,1.176,0,0,1,.171.837,6.6,6.6,0,0,1-.9,2.844,1.807,1.807,0,0,1-1.458.936,2.494,2.494,0,0,1-1.557-.585A6.253,6.253,0,0,1,3.1,21.127a13.643,13.643,0,0,1-1.251-3.645A37.517,37.517,0,0,1,1.1,11.866.143.143,0,0,0,.936,11.7Zm2.43,8.982a.17.17,0,0,0,.144-.18v-4.9q0-.144-.162-.144h-1.62a.905.905,0,0,1-.675-.288.95.95,0,0,1-.279-.684.919.919,0,0,1,.279-.675.919.919,0,0,1,.675-.279H-.324a.919.919,0,0,1,.675.279.919.919,0,0,1,.279.675.95.95,0,0,1-.279.684.905.905,0,0,1-.675.288H-2q-.162,0-.162.144v4.5q0,.162.162.126.648-.108,2.448-.522a.857.857,0,0,1,.7.126.888.888,0,0,1,.4.594,1.006,1.006,0,0,1-.153.747.969.969,0,0,1-.621.441,65.465,65.465,0,0,1-7.218,1.332.983.983,0,0,1-.747-.2,1.027,1.027,0,0,1-.4-.666.955.955,0,0,1,.2-.738.958.958,0,0,1,.648-.378Q-5.436,20.812-4.7,20.686ZM-3.906,44a.956.956,0,0,1-.711-.306,1,1,0,0,1-.3-.72V31.886a1,1,0,0,1,.3-.72.956.956,0,0,1,.711-.306h.486a.985.985,0,0,1,.72.306.985.985,0,0,1,.306.72v4.086a.127.127,0,0,0,.144.144h4.5a.127.127,0,0,0,.144-.144V31.886a.985.985,0,0,1,.306-.72.985.985,0,0,1,.72-.306h.486a.956.956,0,0,1,.711.306,1,1,0,0,1,.3.72V42.974a1,1,0,0,1-.3.72A.956.956,0,0,1,3.906,44H3.42a.985.985,0,0,1-.72-.306.985.985,0,0,1-.306-.72V38.2q0-.162-.144-.162h-4.5q-.144,0-.144.162v4.77a.985.985,0,0,1-.306.72A.985.985,0,0,1-3.42,44Zm2.16,10.912V59.25a.161.161,0,0,0,.144.162A10.208,10.208,0,0,0-.27,59.5a3.386,3.386,0,0,0,2.223-.639,2.247,2.247,0,0,0,.765-1.827q0-2.394-2.988-2.394a10.208,10.208,0,0,0-1.332.09A.17.17,0,0,0-1.746,54.912ZM-3.222,66a.956.956,0,0,1-.711-.306,1,1,0,0,1-.3-.72v-11a1.169,1.169,0,0,1,.288-.774,1.021,1.021,0,0,1,.72-.378q1.53-.144,2.952-.144a6.437,6.437,0,0,1,4.05,1.071,3.728,3.728,0,0,1,1.35,3.1,4.3,4.3,0,0,1-1.305,3.4A5.676,5.676,0,0,1-.036,61.41q-.594,0-1.566-.072a.127.127,0,0,0-.144.144v3.492a.985.985,0,0,1-.306.72.985.985,0,0,1-.72.306Zm-3.33,23.62a.985.985,0,0,1-.72-.306.985.985,0,0,1-.306-.72V74.806a.985.985,0,0,1,.306-.72.985.985,0,0,1,.72-.306h3.87a.955.955,0,0,1,.7.288.955.955,0,0,1,.288.7A5.744,5.744,0,0,1-2.016,76.7a27.593,27.593,0,0,1-1.278,2.97.241.241,0,0,0,.018.27,6.384,6.384,0,0,1,1.314,3.708,3.143,3.143,0,0,1-.495,1.926A2.16,2.16,0,0,1-4,86.344a1.067,1.067,0,0,1-.8-.225,1.175,1.175,0,0,1-.459-.729l-.126-.594a.052.052,0,0,0-.036.018v3.78a.985.985,0,0,1-.306.72.985.985,0,0,1-.72.306Zm1.134-13.878v3.852q0,.018.027.018a.061.061,0,0,0,.045-.018,29.616,29.616,0,0,0,1.62-3.87q.036-.144-.09-.144h-1.44A.143.143,0,0,0-5.418,75.742Zm0,4.572v4.05a.143.143,0,0,0,.162.162h.234a1.012,1.012,0,0,0,.819-.261A1.921,1.921,0,0,0-4,83.176a3.326,3.326,0,0,0-.27-1.341A7.106,7.106,0,0,0-5.31,80.278q-.018-.036-.063-.018T-5.418,80.314Zm2.484,8.226a.963.963,0,0,1,.243-.738A1,1,0,0,1-2,87.442q.09-.018.261-.036t.261-.018a.176.176,0,0,0,.162-.18V74.824a.97.97,0,0,1,.3-.711.97.97,0,0,1,.711-.3h6.93a1,1,0,0,1,.72.3.956.956,0,0,1,.306.711v6.642a.956.956,0,0,1-.306.711,1,1,0,0,1-.72.3H4.554q-.144,0-.108.162a9.228,9.228,0,0,0,.684,1.656q.072.126.2.036.54-.432,1.224-1.044a.945.945,0,0,1,.666-.243.831.831,0,0,1,.63.3.96.96,0,0,1,.252.7.939.939,0,0,1-.306.666q-.576.54-1.35,1.17-.126.108-.018.216a8.727,8.727,0,0,0,1.314,1.1,1.143,1.143,0,0,1,.468.648.979.979,0,0,1-.09.756l-.054.09a.989.989,0,0,1-.612.5.921.921,0,0,1-.774-.09,9.082,9.082,0,0,1-2.673-2.619,11.976,11.976,0,0,1-1.7-3.843.185.185,0,0,0-.2-.162h-.99a.143.143,0,0,0-.162.162v4.23a.129.129,0,0,0,.054.1.109.109,0,0,0,.108.027q1.152-.216,1.728-.342a.863.863,0,0,1,.711.135.848.848,0,0,1,.387.6,1.054,1.054,0,0,1-.18.756,1.012,1.012,0,0,1-.63.432,47.621,47.621,0,0,1-4.986.846,1,1,0,0,1-.738-.225A.863.863,0,0,1-2.934,88.54ZM.954,75.886V77.11q0,.144.162.144H5.148q.162,0,.162-.144V75.886a.143.143,0,0,0-.162-.162H1.116A.143.143,0,0,0,.954,75.886Zm0,3.294v1.3q0,.144.162.144H5.148q.162,0,.162-.144v-1.3q0-.144-.162-.144H1.116Q.954,79.036.954,79.18Zm5.49,22.054a1.014,1.014,0,0,1-1.008-1.008V98.912a.143.143,0,0,0-.162-.162H-5.274a.143.143,0,0,0-.162.162v1.314a.97.97,0,0,1-.3.711.97.97,0,0,1-.711.3H-6.66a1,1,0,0,1-.72-.3.956.956,0,0,1-.306-.711V97.85a.985.985,0,0,1,.306-.72.985.985,0,0,1,.72-.306h5.274q.162,0,.162-.144v-.54a1,1,0,0,1,.3-.72.956.956,0,0,1,.711-.306H.216a.956.956,0,0,1,.711.306,1,1,0,0,1,.3.72v.54q0,.144.162.144H6.66A1.045,1.045,0,0,1,7.686,97.85v2.376a.956.956,0,0,1-.306.711,1,1,0,0,1-.72.3Zm-13.9,10.026a.925.925,0,0,1-.522-.549.945.945,0,0,1,.036-.765,28.973,28.973,0,0,0,1.944-5.562,1.07,1.07,0,0,1,.468-.648.985.985,0,0,1,.774-.144l.18.036a1.009,1.009,0,0,1,.648.441.959.959,0,0,1,.144.765q-.09.432-.18.738a.368.368,0,0,0,.018.27,6.126,6.126,0,0,0,2.862,2.592.1.1,0,0,0,.1-.018.111.111,0,0,0,.045-.09v-6.174q0-.144-.162-.144H-4.662a.919.919,0,0,1-.675-.279.919.919,0,0,1-.279-.675.919.919,0,0,1,.279-.675.919.919,0,0,1,.675-.279H4.644a.95.95,0,0,1,.684.279.905.905,0,0,1,.288.675.984.984,0,0,1-.972.972H1.674q-.162,0-.162.144v1.908a.143.143,0,0,0,.162.162h3.96a.95.95,0,0,1,.684.279.905.905,0,0,1,.288.675.984.984,0,0,1-.972.972H1.674q-.162,0-.162.144v2.646a.176.176,0,0,0,.162.18,38.77,38.77,0,0,0,5.22.27h.252a.912.912,0,0,1,.693.3.939.939,0,0,1,.261.711,1.112,1.112,0,0,1-.342.729,1.021,1.021,0,0,1-.738.3H6.84a28.719,28.719,0,0,1-7.371-.72,7.974,7.974,0,0,1-4.095-2.592.086.086,0,0,0-.081-.027.084.084,0,0,0-.063.045,27.786,27.786,0,0,1-1.116,2.646,1.012,1.012,0,0,1-.594.549,1.08,1.08,0,0,1-.81-.009Zm1.026,15.016-.162-.126a.939.939,0,0,1-.324-.693,1,1,0,0,1,.252-.729,12.859,12.859,0,0,0,2.952-5.886,1.188,1.188,0,0,1,.423-.7,1.1,1.1,0,0,1,.765-.252l.306.018a.968.968,0,0,1,.684.36.843.843,0,0,1,.2.72,2.953,2.953,0,0,1-.09.45q-.036.144.126.144h6.75a1.021,1.021,0,0,1,.738.3.9.9,0,0,1,.288.711q-.126,5.724-2.754,8.577t-8.262,3.519a1.03,1.03,0,0,1-.783-.216,1.082,1.082,0,0,1-.423-.7l-.036-.144a.9.9,0,0,1,.18-.729.96.96,0,0,1,.666-.387q4.446-.594,6.471-2.547t2.349-6.075a.127.127,0,0,0-.144-.144H-1.944a.21.21,0,0,0-.216.144,14.171,14.171,0,0,1-2.79,4.338.952.952,0,0,1-.72.333A1.067,1.067,0,0,1-6.426,126.276Zm-.846,48.536a.924.924,0,0,1-.522-.558.966.966,0,0,1,.036-.774q1.044-2.178,1.98-4.428a1.05,1.05,0,0,1,.558-.576,1.07,1.07,0,0,1,.792-.054l.27.09a.928.928,0,0,1,.576.5.859.859,0,0,1,.018.747q-.846,2.106-2.052,4.626a1.088,1.088,0,0,1-.585.549,1.059,1.059,0,0,1-.8-.009Zm13.878.2a1.04,1.04,0,0,1-.783-.018.985.985,0,0,1-.549-.558q-.648-1.584-2.034-4.68a.944.944,0,0,1,0-.765.924.924,0,0,1,.54-.531l.234-.09a1.058,1.058,0,0,1,.8-.009,1.013,1.013,0,0,1,.585.549q1.008,2.16,2.07,4.68a.962.962,0,0,1-.009.783.952.952,0,0,1-.567.531ZM5.292,164.228a1.173,1.173,0,1,0-.342-.828A1.128,1.128,0,0,0,5.292,164.228Zm-1.08-2.736A2.6,2.6,0,0,1,6.12,160.7a2.7,2.7,0,0,1,2.7,2.7,2.675,2.675,0,0,1-.387,1.413,2.592,2.592,0,0,1-1.053.981.211.211,0,0,0-.126.216.646.646,0,0,1-.63.63H1.4q-.144,0-.144.162v7.524a3.618,3.618,0,0,1-.441,2.25,3.433,3.433,0,0,1-2.2.45q-.774,0-1.89-.108a.918.918,0,0,1-.675-.378,1.057,1.057,0,0,1-.225-.756v-.09a.957.957,0,0,1,.369-.684,1.008,1.008,0,0,1,.747-.234q.9.072,1.134.072.522,0,.612-.117a1.63,1.63,0,0,0,.09-.729v-7.2a.143.143,0,0,0-.162-.162h-5.22a.956.956,0,0,1-.711-.306,1,1,0,0,1-.3-.72v-.108a1,1,0,0,1,.3-.72.956.956,0,0,1,.711-.306h5.22a.143.143,0,0,0,.162-.162v-1.584a.97.97,0,0,1,.3-.711.97.97,0,0,1,.711-.3h.45a1,1,0,0,1,.72.3.956.956,0,0,1,.306.711v1.584q0,.162.144.162H3.492q.144,0,.108-.126a2.84,2.84,0,0,1-.18-.954A2.6,2.6,0,0,1,4.212,161.492Zm-9.99,25.6a.924.924,0,0,1-.5-.576.925.925,0,0,1,.072-.756l.18-.36a.988.988,0,0,1,.6-.5,1.092,1.092,0,0,1,.8.054q1.782.864,3.762,1.944a.968.968,0,0,1,.477.612.989.989,0,0,1-.081.774l-.2.36a.968.968,0,0,1-.612.477.989.989,0,0,1-.774-.081Q-4.158,187.884-5.778,187.092Zm12.528-.576a1,1,0,0,1,.648.45.985.985,0,0,1,.144.774,12.928,12.928,0,0,1-4.149,7.236,15.66,15.66,0,0,1-8.325,3.276.993.993,0,0,1-.765-.207,1.073,1.073,0,0,1-.405-.693l-.036-.324a.926.926,0,0,1,.18-.747.96.96,0,0,1,.666-.387,13.721,13.721,0,0,0,6.966-2.7,11.045,11.045,0,0,0,3.546-5.958,1.07,1.07,0,0,1,.468-.648.985.985,0,0,1,.774-.144Z" transform="translate(-2444.5 -7384)"/>
    <path id="パス_8919" data-name="パス 8919" class="cls-1" d="M-6.426-5.274a.956.956,0,0,1-.711-.306,1,1,0,0,1-.3-.72v-.36a1,1,0,0,1,.3-.72.956.956,0,0,1,.711-.306H6.426a.956.956,0,0,1,.711.306,1,1,0,0,1,.3.72v.36a1,1,0,0,1-.3.72.956.956,0,0,1-.711.306Z" transform="translate(-2451 -7237.5) rotate(90)"/>
  </g>
</svg>
