<svg xmlns="http://www.w3.org/2000/svg" width="586" height="167.519" viewBox="0 0 586 167.519">
  <defs>
    <style>
      .cls-1, .cls-2 {
        fill: #306e1d;
      }

      .cls-2 {
        fill-rule: evenodd;
      }

      .cls-3 {
        fill: #fff;
      }
    </style>
  </defs>
  <g id="グループ_1143" data-name="グループ 1143" transform="translate(-6658 8268.097)">
    <path id="パス_6381" data-name="パス 6381" class="cls-1" d="M40.407,58.091c-.141.276-.258.569-.4.852-.039.107-.082.226-.126.331-1.371,7.809-2.218,8.216-1.567,16.1A112.913,112.913,0,0,0,40.784,90.96c-5.678,6.208-12.321,11.272-19.523,13.456-.021.3-.025.619-.053.941.028.05.053.108.082.16a7.513,7.513,0,0,1,1.211,1.82c2.962-1.014,5.868-2.067,8.668-3.292,0,.059,0,.117.007.174a25.578,25.578,0,0,1,3.182-1.179,8.721,8.721,0,0,1,3.111-1.24c.838-.142,1.661-.267,2.48-.375a12.332,12.332,0,0,1,2.937-.375c.29,0,.557.05.832.069.171-.011.352.007.534.007.381-.027.759-.076,1.163-.076a12.1,12.1,0,0,1,2.665.343c.4.06.781.084,1.181.157.482.091.948.226,1.428.361,9.482,1.012,19.255,4.2,28.492,6.519,8.561,2.118,17.8,2.855,24.152-4.641,3.931-4.673,4.2-9.194,2.252-13.3a24.3,24.3,0,0,0-3.477-9.824c-.142-.217-.03-.082.1.053s.29.267.242.055A27.971,27.971,0,0,0,82.342,74.6c2.118.994,3.191,3.227,4.527,5.546,1.411,2.423,1.857,4.47,2.721,7.134,1.866,3.314,3.73,5.253,8.276,5.93,1.708.258,3.364.64,5.007,1.053.349,4.415-1.615,9.05-5.923,10.946A10.76,10.76,0,0,1,91.7,106.49c-.215,0-.43-.025-.646-.043-.151.007-.285.043-.43.043a10.93,10.93,0,0,1-4.064-.74,13.666,13.666,0,0,1-1.752-.132,2.308,2.308,0,0,0-.242-.046,12.879,12.879,0,0,1-1.59-.375A10.931,10.931,0,0,1,81.2,104.7a77.055,77.055,0,0,1-17.743-4.73c-6.759-2.515-12.935-3.451-19.79-4.3.406-.423.808-.845,1.192-1.306,8.771-4.016,17.1-9.248,23.04-16.382,4.822-5.786,7.183-12.469,8.593-19.468.194-3.929.537-7.8,1.074-11.656.222-5.706,1.051-11.174,3.5-15.925.142-.471.311-.929.484-1.387-16.884,4.23-33.1,13.575-41.142,28.54" transform="translate(6674.515 -8233.881)"/>
    <path id="パス_6382" data-name="パス 6382" class="cls-1" d="M78.156,8.675A69.552,69.552,0,0,1,147.5,74.147L84.518,25.452l-3.072-3.083-.4.39-.514-.39L77.46,26.356,57.224,46.585l6.453,6.437,18.15-18.148L147.24,85.465A69.477,69.477,0,0,1,9.458,88.553L43.43,54.582,54.661,65.81l6.451-6.45L43.782,42.037l-.352.343-.342-.343L8.723,76.393A69.55,69.55,0,0,1,78.156,8.675m0-8.675a78.158,78.158,0,1,0,78.067,81.616l.349-.457-.331-.269c.036-.911.06-1.818.06-2.748A78.237,78.237,0,0,0,78.156,0Z" transform="translate(6658 -8256.894)"/>
    <path id="パス_6313" data-name="パス 6313" class="cls-2" d="M217.646,44.986c.62,4.886.344,9.829.344,14.8,0,4.924-.169,9.9,0,14.8.349,10.109,2.174,19.01,6.2,25.125.195.3.521.449.687.689.088.124-.111.6,0,.689.051.042.31-.052.346,0a14.01,14.01,0,0,0,.687,1.376c1.128,1.348,3.372,2.73,4.474,4.474.186.293.5.289.689.689.057.124-.1.606,0,.689.027.021.337-.027.343,0a3.033,3.033,0,0,1-1.376,3.441c-.13.091-.585.657-.689.689-.413.126-.946-.072-1.376,0a3.452,3.452,0,0,1-2.065,0,4.72,4.72,0,0,1-1.033-.344c-1.836-.786-3.777-2.79-5.162-4.474-.4-.484-.747-1.006-1.033-1.376-.332-.433-1.072-.93-1.376-1.378-.223-.329-.15-.72-.343-1.032-.138-.219-.578-.493-.69-.689-.331-.584-.389-1.459-.687-2.065-.112-.226-.586-.5-.689-.689a8.6,8.6,0,0,1-.343-1.032c-5.283-12.573-4.37-31.877-4.476-49.217H176c-.675.648-.333,1.736-.344,2.408-.126,7.866.082,17.188-.344,25.126a8.28,8.28,0,0,1,0,1.376c-.247,1.047-.466,3.619-.687,5.508a12.77,12.77,0,0,1,0,1.376c-.067.288-.288.346-.344.689-.075.44.1.942,0,1.376-.067.286-.283.347-.343.689-.274,1.527-.319,3.062-.689,4.474,0,.017-.294.135-.344.344a55.962,55.962,0,0,1-2.755,8.26c-.067.156-.325-.025-.341.343a1.4,1.4,0,0,1,0,.344c-.118.229-.58.491-.69.689-.07.126.106.6,0,.689a3.559,3.559,0,0,0-.687,1.032c-.15.24-.544.475-.689.689-.171.253-.133.753-.344,1.033-.129.169-.572.183-.689.343-.232.325-.117.737-.343,1.033-.3.392-.925.759-1.378,1.376-1.03,1.406-3.612,4.955-6.884,3.443-1.533-2.065.259-3.826,1.033-5.163.446-.771.849-1.5,1.376-2.409.108-.184.324.048.344-.344a4.449,4.449,0,0,1,.687-1.376,34.091,34.091,0,0,0,1.378-3.443c.059-.145.325.018.346-.344a5,5,0,0,1,.343-1.719c.039-.033.323.042.344,0,.058-.126-.1-.606,0-.689.49-.4.7-2.222,1.032-3.443.025-.09.328-.025.344-.343a4.4,4.4,0,0,1,0-1.033c.4-.325,0-1.033.344-1.378.306-.3.274-.446.343-1.032.013-.1-.069-.63,0-.689.337-.274.279-.467.346-1.032.012-.1-.07-.63,0-.689.024-.019.339.024.343,0,.2-1.144.21-2.279.344-3.441,1.274-10.984,0-24.686.689-37.172.03-.545-.166-1.313.343-1.376.24-1.176.713-.9,1.378-1.033,1.759-.343,3.913,0,6.2,0h30.289c4.009,0,8.016-.267,11.7.344" transform="translate(6933.766 -8259.709)"/>
    <path id="パス_6314" data-name="パス 6314" class="cls-2" d="M244.709,64.578c.1.3,1.548.583,2.065.687.734.15,1.656.114,2.409.344.111.034.012.328.346.344.645.034.845.659,1.376,1.033.124.087.594-.114.689,0,.123.15.2.565.343.687A13.82,13.82,0,0,1,254,69.4c.283.416.115.906.344,1.375.082.171.323-.034.344.346.022.413.918,2.3,1.032,3.1a31.353,31.353,0,0,1-.344,6.884c-.021.192.272,1.843,0,2.065-.541.443-.439,3.116-.687,4.474.007-.04-.3.178-.344.344-.055.228.163,1.243,0,1.376a4.616,4.616,0,0,0-.687,1.722c-.06.2-.07,1.5-.346,1.719s-.237.264-.343.69c0-.013-.315,1.008-.345,1.032a9.891,9.891,0,0,0-1.032,1.721c-.193.341-.506.425-.689.689-.087.123.112.6,0,.687-.051.043-.308-.052-.344,0-.166.25-.138.756-.344,1.033-.129.172-.571.181-.687.344-.192.261-.126.74-.346,1.032-.141.19-.538.171-.687.344a19.831,19.831,0,0,1-2.065,2.409c-.283.222-.749.168-1.033.344-.228.142-.481.56-.689.687-.3.189-.651.141-1.032.344-.177.1-.545.635-.687.689-.2.075-.481-.052-.689,0-.341.085-1,.189-2.065.344-.391.057-.7.4-1.376.344.106.009-.231-.314-.346-.344a7.108,7.108,0,0,1-1.719-.344c-.4-.172-.406-.49-.69-.689-.123-.085-.6.114-.687,0a31.575,31.575,0,0,0-3.1-2.408c-.541-.443-.866-.931-1.378-1.378-1.041-.9-2.5-2.394-3.786-3.441-.719.162-.695.839-1.033,1.376-.195.311-.517.44-.689.689-.085.124.114.6,0,.687-.049.04-.31-.051-.344,0-.613.972-1.048,2.04-1.721,3.1-.156.247-.526.467-.687.687a23.953,23.953,0,0,1-1.378,2.066c-.235.276-.1.774-.343,1.032-.683.735-2.631,1.063-4.132.689a2.349,2.349,0,0,1-1.721-1.378,3.726,3.726,0,0,1,0-4.128c.094-.178.325.04.344-.344a3.39,3.39,0,0,1,.343-.689c.15-.223.562-.484.689-.689.406-.648.627-1.417,1.035-2.065.117-.189.322.052.342-.344a3.279,3.279,0,0,1,.346-.687c.148-.226.556-.481.687-.689.433-.68.645-1.445,1.032-2.065.12-.19.325.052.346-.344a3.325,3.325,0,0,1,.344-.689c.148-.222.562-.482.687-.687.079-.126-.108-.6,0-.689a4.223,4.223,0,0,0,1.033-1.376c.127-.214.585-.5.689-.689.211-.4.133-.687.343-1.032.114-.189.325.049.346-.344a3.2,3.2,0,0,1,.343-.689c.174-.27.56-.476.689-.689.259-.427.07-.946.343-1.376.165-.258.494-.364.689-.689.138-.228.19-.446.344-.689.1-.162.291-.255.343-.343.169-.283.141-.693.346-1.032.139-.234.558-.482.687-.69a3.549,3.549,0,0,0,.69-1.376,3.334,3.334,0,0,1,.341-.687c.15-.222.565-.485.69-.689.076-.126-.109-.6,0-.689,1.125-.921,2.221-3.654,3.1-5.163-2.131-.337-4.5.508-6.885.344a14.328,14.328,0,0,1-2.752-.344c-.1-.03-.018-.326-.344-.343a5.871,5.871,0,0,1-1.721-.689,21.532,21.532,0,0,1-2.409-1.722,5.042,5.042,0,0,1-1.722-2.064c-.048-.135-.325.006-.343-.344a9.134,9.134,0,0,1,.343-3.443,6.679,6.679,0,0,1,2.754-1.376c1.7-.139,2.146.574,3.443,1.376.247.154.469.529.687.689a5.41,5.41,0,0,0,3.787,1.033c1.521-.222,4.473-.514,6.539-.689.744-.063,1.679.211,2.408-.344.831-.189.786-1.116,1.032-1.721a6.4,6.4,0,0,0,.346-4.474A40.536,40.536,0,0,0,235.76,54.6c-.87-2.311-2.355-4.687-.687-6.539.376-.418.809-.367,1.376-.687.2-.114.515-.608.687-.689a3.813,3.813,0,0,1,2.065.344c.979.388,1.571.7,2.411,2.408.24.49.13.855.344,1.378.061.15.325-.019.345.344a1.307,1.307,0,0,0,0,.343c.09.229.311.259.343.344.34.864.377,1.927.689,2.754.051.138.327-.01.345.344a17.194,17.194,0,0,0,.689,1.721c.067.208-.054.476,0,.689.37,1.481.887,5.4.343,7.228m.689,7.571c-1.3-.237-2.6.55-4.13.344-1.155,1.828-2.206,4.064-3.1,5.508a11.243,11.243,0,0,0-.687,1.721c-.055.121-.608.2-.687.344-.258.466-.091.924-.346,1.376-.04.073-.249.193-.344.344-.246.386-.448.654-.687,1.033a4.406,4.406,0,0,0-.689,1.375c-.021.4-.222.154-.344.344a10.291,10.291,0,0,0-.687,1.722c-.055.121-.609.2-.689.343-.255.466-.085.928-.344,1.378-.054.093-.591.265-.689.344s.073.562,0,.687c-.027.049-.3-.037-.343,0-.274.225-.124,1.083-.344,1.378,1.286,1.327,2.42,2.887,3.786,4.13.4.367.931.331,1.376.687.383.308.659.728,1.033,1.033.744.608,1.351,1.578,2.409,1.721a8.8,8.8,0,0,0,3.441-2.754c.487-.548,1.689-1.782,1.721-2.409.027-.494.665-.575.689-1.032.019-.373.273-.184.345-.344.244-.544.147-1.448.344-2.065.009-.033.311.025.343,0,.263-.214.3-1.535.344-1.721a38.107,38.107,0,0,0,1.033-13.768c-.916-.638-1.468-1.487-2.754-1.721" transform="translate(6962.115 -8258.649)"/>
    <path id="パス_6315" data-name="パス 6315" class="cls-2" d="M38.163,61.178a40.28,40.28,0,0,0,6.539-.689c.44-.063.945.1,1.376,0A35.048,35.048,0,0,1,56.06,59.8,28.452,28.452,0,0,1,62.6,61.866c.156.067-.025.323.343.343.524.028,1.193.65,1.722,1.033a4.628,4.628,0,0,1,2.065,5.163c-.076.253-.97.361-.689,1.032-.19.343-.671.15-1.032.344-.133.072-.6.668-.689.689a5.313,5.313,0,0,1-3.1-.344,6.651,6.651,0,0,0-1.376-.689c-.232-.1-.5-.584-.689-.689-.377-.2-.686-.187-1.032-.343a12.168,12.168,0,0,0-2.409-.689c-.211-.052-.341-.344-.344-.344-2.949-.455-5.906.362-8.6.689-2.836.341-5.554.485-8.26,1.032-.615,2.459-.344,5.431-.344,8.6,0,5.419-.031,11.247,0,17.209.016,3.091.551,6.129,0,7.917-.034.109-.326.012-.344.344-.07,1.342-2.3,2.676-3.786,3.1a18.125,18.125,0,0,1-5.163.344c-2.318-.057-7.727-.142-8.949-1.722-.207-.267-.2-.756-.344-1.032a7.013,7.013,0,0,1-.343-3.1c.028-.1.326-.019.343-.344a4.029,4.029,0,0,1,1.033-1.378c.478-.214.907-.087,1.376-.344.178-.1-.019-.285.344-.343a3.32,3.32,0,0,1,1.033,0,28.915,28.915,0,0,0,6.882.687c.66-.735.332-2.026.344-3.441.072-7.54-.052-16.99,0-25.125-.151-.5-.3.034-.687,0-2.105.114-4.064.386-6.2.687-.332.048-.705-.07-1.033,0-.289.063-.34.305-.689.344-.714.082-1.613-.09-2.409,0-1.9.216-5.466.593-7.916,0a23.882,23.882,0,0,1-3.441-1.032c-.111-.046-.061-.274-.344-.344-.68-.171-1.066-.654-1.722-.689-.445-.022-.43-.524-.687-.689-.415-.264-1.249-.322-1.721-.687a4.737,4.737,0,0,1-1.376-4.819c.034-.1.569-.5.687-.689.18-.291.282-.626.689-.687s.466-.617.689-.689a13.366,13.366,0,0,1,3.1,0A7.65,7.65,0,0,0,9.6,62.554a5.007,5.007,0,0,1,.689.344,2.917,2.917,0,0,0,1.032.344,19,19,0,0,0,2.754,1.032,11.784,11.784,0,0,0,3.786,0c3.407-.8,8.956-1,12.734-1.721.347-3.789-.647-6.235-3.1-7.228-.192-.2-.189-.443-.344-.687-.231-.362-.037-1.415-.344-1.721-.445-.445-.259-.681,0-1.722a4.353,4.353,0,0,1,.689-1.376c.289-.29.648-.112,1.032-.344.195-.117.518-.608.689-.687,1.2-.56,3.041.3,4.474,1.376.3.223.6.94,1.033,1.376s1.123.671,1.376,1.033c.313.446.367,1.423.689,2.065.114.229.578.493.687.687.07.127-.1.6,0,.689.78.638.734,3.777.689,5.163" transform="translate(6856.489 -8257.658)"/>
    <path id="パス_6316" data-name="パス 6316" class="cls-2" d="M67.473,49.309c.123-.043.012-.31.343-.343a9.069,9.069,0,0,1,3.1.343c.142.055-.012.325.344.344a3.247,3.247,0,0,1,.689.344,11.922,11.922,0,0,0,7.916,2.065c-.069.01.2-.308.344-.344.216-.054.47.049.689,0,1.524-.343,4.792-1.1,6.884-1.378A19.306,19.306,0,0,0,90.188,50c.785-.177,2.125-.5,3.443-.689.448-.063.931.079,1.376,0,.334-.058.514-.349,1.033-.343.177,0,1.938.258,2.409.343a26.926,26.926,0,0,1,5.851,2.065,18.166,18.166,0,0,1,2.754,1.378,4.075,4.075,0,0,1,1.721,4.819c-.021.079-.328.034-.344.343-.039.747-.674.94-1.376,1.378-.129.079-.6.663-.689.687-1.825.472-3.217-.675-4.819-1.376-.157-.069.025-.325-.344-.344-.737-.039-2.585-1.223-3.786-1.376-2.607-.332-5.515.779-7.917,1.032-1.535.163-3.4.693-5.162,1.033-.44.084-.942-.1-1.376,0a22.418,22.418,0,0,1-6.884.689,15.12,15.12,0,0,1-2.065-.344c-.085-.022-.031-.328-.344-.344a4.491,4.491,0,0,1-1.033,0c-.234-.286-.927-.355-1.721-.689-.153-.064.022-.325-.344-.344a7.556,7.556,0,0,1-1.032-.343c-.231-.114-.493-.581-.689-.689-.126-.07-.6.1-.689,0-.037-.048.049-.316,0-.344-.126-.075-.6.106-.687,0-.566-.692-2.219-1.7-2.409-3.1a3.54,3.54,0,0,1,1.721-3.786c.189-.117-.051-.323.344-.344a1.471,1.471,0,0,0,.344,0" transform="translate(6887.756 -8257.492)"/>
    <path id="パス_6317" data-name="パス 6317" class="cls-2" d="M189.8,58.7v6.541c3.347.208,7.544-.431,10.325.344.6,1.658.344,3.792.344,5.851v6.2c0,4.227.65,8.593-1.376,11.014-1.333.544-3.9.544-4.82-.344-.4-.512-.3-1.538-1.375-1.376h-2.755c-.786.589-.126,2.627-.343,3.786V94.5c.076.385,2.582-.127,3.441-.344.868-.452-.9-1.129-.687-2.063-.981-.566.165-1.869.344-2.409,1.014-.289,1.58-.554,2.409,0a8.948,8.948,0,0,1,1.032.343c.031.039-.042.326,0,.344a26.487,26.487,0,0,1,5.851,3.786,20.015,20.015,0,0,1,2.411,2.065c.235.289.1.77.343,1.033a4.264,4.264,0,0,1,1.376,2.065,10.251,10.251,0,0,1-.343,4.13c-.344.262-.684.421-1.033.689a9.536,9.536,0,0,1-.689.687c-.482.19-1.207-.1-1.719,0a.7.7,0,0,1-.346.344c-.5.126-.821-.313-1.378-.344a3.321,3.321,0,0,1-2.063-1.376,15.663,15.663,0,0,1-.687-1.721c-.124-.22-.586-.5-.689-.689-.362-.672-.385-1.956-1.033-2.754-3.363.779-7.24,2.758-11.7,4.474-1.776.684-3.786,1.336-5.851,2.065-2.1.743-4.473,1.9-6.539,1.378-.079-.021-.034-.328-.344-.344a5.534,5.534,0,0,1-2.065-1.378c-.084-.124.112-.6,0-.687-.892-.731-.837-3.311,0-4.819.1-.181.325.045.344-.344.048-.9,2.631-1.5,4.13-1.721a7.679,7.679,0,0,0,1.033,0,48.037,48.037,0,0,1,6.884-1.032c.762-2.221.144-5.822.343-8.6a4.349,4.349,0,0,0-2.752-.344c-1.143.225-1.7.452-1.721,1.721-1.361,1.514-4.781,1.185-5.852-.344-.785-6.9-.129-15.246-.344-22.715,2.782-.776,6.978-.136,10.327-.344.714-1.235.178-3.723.343-5.508-4-.353-7.818,1.009-11.357,0-.356-1.367-.653-2.767,1.032-3.441.123-.049.611.094.687,0,.276-.335.469-.277,1.033-.344.1-.012.632.07.69,0a4.3,4.3,0,0,1,1.719-.689c2.98-.758,6.22-1.8,9.293-2.752.876-.271,1.584-.359,2.409-.689.123-.049.611.094.689,0a10.637,10.637,0,0,1,2.408-1.033c.123-.048.611.1.69,0,.268-.331.83-.343,1.719-.689.142-.054-.012-.323.346-.343a1.369,1.369,0,0,0,.341,0,3.941,3.941,0,0,1,3.1,0c.19.093.425.527.689.687a4.327,4.327,0,0,1,.687.344c.091.123-.115.6,0,.689.04.033.323-.042.344,0,.058.124-.1.606,0,.689.028.022.337-.028.344,0a10.014,10.014,0,0,1-.344,4.13c-1.863,2.038-5.623,2.179-9.293,2.408M179.133,81.764h3.1c.777-3.008.132-7.438.343-11.014-.651-.611-2.273-.252-3.441-.344Zm10.669,0h3.1c.777-3.008.132-7.438.343-11.014-.65-.611-2.273-.252-3.441-.344Z" transform="translate(6939.581 -8257.25)"/>
    <path id="パス_6318" data-name="パス 6318" class="cls-2" d="M134.447,81.736c.292-.222,1.153-.072,1.376-.344.031-.039-.042-.325,0-.344.473-.217.91-.085,1.376-.343.181-.1-.043-.325.344-.344.445-.024.433-.509.687-.689.126-.087.6.112.69,0s.235-.618.343-.689c.126-.081.6.111.69,0a17.252,17.252,0,0,1,2.752-2.065c.195-.144-.057-.323.344-.344s1.187-.954,1.721-1.376c.338-.268.687-.419,1.032-.689.719-.557,1.378-1.168,2.065-1.721.421-.337.7-.773,1.032-1.032.123-.1.6.115.69,0a9.59,9.59,0,0,1,1.376-1.378c.1-.084.25-.645.344-.687.154-.07.565.108.689,0,.656-.574,1.032-1.45,1.721-2.065.389-.349,1.021-.385,1.376-.689.8-.689,1.685-1.807,2.754-2.754.563-.5,1.12-1.162,1.719-1.721,1.168-1.083,2.393-2.445,3.789-3.786.587-.566,1.837-2.035,2.408-2.065a7.4,7.4,0,0,1,2.408-.344,3.12,3.12,0,0,1,2.755,1.721,4.148,4.148,0,0,1,.687,1.378c.207,1.674-1.021,3.36-2.752,5.162a17.072,17.072,0,0,1-2.754,2.409c-.19.123.054.323-.344.344-.452.024-.572.6-1.032,1.032-2.17,2.016-4.015,3.586-6.2,5.508-.359.316-.686.758-1.033,1.032-.329.264-.707.412-1.032.689-.743.636-1.375,1.493-2.065,2.065-.231.192-.7.671-1.032.689-.478.024-.544.633-1.033,1.032-.392.319-.993.359-1.376.689-.282.241-.4.813-.689,1.032-.123.093-.593-.114-.687,0-.234.285-.4,1-1.032,1.033a3.331,3.331,0,0,0-.69.344c-.442.328-.589.735-1.033,1.032s-.888.343-1.376.689c-.3.216-.693.8-1.032,1.032-.226.154-.44.187-.689.344-.869.554-2.716,1.67-4.13,2.409-.225.117-.455.2-.688.344a15.3,15.3,0,0,1-3.787,1.033c-.033,0-.073.329-.344.344a10.974,10.974,0,0,1-4.13-.344c-.148-.061.019-.326-.343-.344a6.078,6.078,0,0,1-2.409-1.722c-.286-.409-.108-.915-.344-1.376-.073-.142-.663-.59-.689-.689-.526-2.082,0-6.456,0-10.325,0-4.5.332-8.974-.689-12.046a14.153,14.153,0,0,0-1.721-3.441c-.219-.329-.764-.084-1.032-.344-.109-.106.115-.595,0-.689-.6-.488-1.072-2.757-.344-4.13a4.569,4.569,0,0,0,.344-.344c.174-.262.285-.666.687-.689.075,0,.282.037.344,0,.2-.115.517-.608.689-.689,1.873-.873,4.1,1,5.163,2.067a7.959,7.959,0,0,1,1.032,1.721c.1.181.322-.046.344.344.017.305.523.746.689,1.032.183.317.153.626.344,1.033.076.163.65.566.689.689.249.827.04,1.063.343,2.064.127.425.1,1.026.344,2.065,1.075,4.575-.1,13.248.344,18.242" transform="translate(6916.463 -8255.846)"/>
    <path id="パス_6319" data-name="パス 6319" class="cls-2" d="M127.433,56.932c.952,1.155.633,2.8.689,4.13.063,1.52.078,3.005,0,4.474-.1,1.839-.614,3.793-.689,5.506a5.5,5.5,0,0,1-.344,1.722c-.031.115.084.62,0,.689-.406.332-.991,2.775-1.376,3.786-.4,1.036-.86,2.029-1.376,3.1-.262.542-.425,1.205-.689,1.721-.117.229-.58.493-.689.689-.07.126.106.6,0,.689-.043.036-.319-.048-.344,0-.256.478-.454,1.274-.687,1.721-.094.177-.325-.042-.344.344-.03.55-.656,1.108-1.033,1.721-.144.235-.192.431-.344.689-.136.232-.15.776-.344,1.033-.111.148-.6.2-.687.343-.341.563-.258,1.057-.689,1.721-.274.422-.749.6-1.032,1.033-.219.331-.169.716-.344,1.032-.1.181-.323-.045-.344.344-.015.294-.523.762-.689,1.033-.138.225-.187.451-.343.687s-.529.469-.689.689c-.259.353-.326.816-.689,1.378-.123.19-.323-.054-.344.344-.03.58-1,.7-1.032,1.375-.031.581-1,.7-1.033,1.378-.027.508-.943.83-1.376,1.376-.1.121.115.594,0,.689a4.713,4.713,0,0,0-1.378,1.376,10.221,10.221,0,0,1-1.376,1.722,8.059,8.059,0,0,1-.689.687,4.544,4.544,0,0,1-2.064,1.033,4.406,4.406,0,0,1-4.131-2.754,7.939,7.939,0,0,1,.344-3.441,58.3,58.3,0,0,0,6.2-7.573c.946-1.285,1.788-2.649,2.754-4.13.124-.192.323.054.344-.343.024-.458.662-.539.689-1.033.022-.458.662-.539.687-1.033a3.306,3.306,0,0,1,.344-.687c.174-.268.563-.481.689-.689.264-.442.09-.913.344-1.376.079-.147.632-.223.687-.344a11.535,11.535,0,0,1,.689-1.722c.343-.553.572-1,1.033-1.721a7.372,7.372,0,0,0,1.032-2.063,4.4,4.4,0,0,1,.689-1.378,23.965,23.965,0,0,0,2.065-5.508c.223-.906.539-1.9.687-2.752.1-.557-.1-1.165,0-1.722.06-.326.305-.53.344-1.032.292-3.792-.876-9.121,2.754-9.981a4.538,4.538,0,0,1,4.13,1.032" transform="translate(6905.58 -8254.102)"/>
    <path id="パス_6320" data-name="パス 6320" class="cls-2" d="M258.814,77.67c-.023-2.075-1.971-3-3.1-4.13-1.143-1.141-2.144-2.489-3.441-3.787-1.331-1.328-2.97-2.966-4.475-4.473a6.912,6.912,0,0,1-1.378-1.378c-.334-.521-.28-.967-.687-1.376-.353-.352.313-1.2.343-1.376.046-.27-.124-.8,0-1.033.195-.373,1.068-.8,1.376-1.033a2.593,2.593,0,0,1,2.411-.687c2.183.285,2.766,1.734,4.129,3.1,2.773,2.773,6.146,6.009,8.95,8.949a7.559,7.559,0,0,1,1.376,1.378c.177.277.352.834.689,1.376.111.18.62.532.687.689a15.185,15.185,0,0,1,.345,2.065,8.537,8.537,0,0,1,.344,2.065c-.036.556-.267.586-.344,1.032a5.527,5.527,0,0,1-.345,1.721c-.079.168-.325-.033-.344.344a19.591,19.591,0,0,1-2.754,3.1c-.212.147-1.205.445-1.719.689a19.072,19.072,0,0,1-3.443,1.376c-.323.084-.707-.07-1.032,0-.29.063-.341.3-.689.344a24.552,24.552,0,0,1-4.819,0,18.844,18.844,0,0,1-2.41,0c-.094-.028-.5-.575-.687-.689a3.374,3.374,0,0,1-1.378-3.1c.012-.1-.07-.632,0-.689.031-.025.332.033.344,0,.563-1.78,1.505-2.447,3.784-2.754,3.175-.425,6.5.506,8.262-1.721" transform="translate(6977.609 -8252.813)"/>
    <path id="パス_6321" data-name="パス 6321" class="cls-2" d="M97.064,68.491a30.118,30.118,0,0,1-.344,5.851c-.02.079-.328.037-.343.344a2.623,2.623,0,0,1-.344,1.033c-.18.494-.383,1.418-.689,2.065-.079.166-.325-.033-.344.344a7.8,7.8,0,0,1-1.032,2.063c-.124.192-.323-.052-.344.346a4.456,4.456,0,0,1-.689,1.376c-.28.418-.767.675-1.033,1.032-.165.223-.184.439-.343.689-.232.365-1,.821-1.033,1.376-.025.481-.638.539-1.032,1.033-.1.12.115.594,0,.689a11.338,11.338,0,0,0-1.721,1.376c-.329.38-.362.994-.689,1.378-.63.735-1.837,1.492-2.754,2.408-2.468,2.468-4.792,4.9-7.573,7.228-.527.443-1.337,1.132-2.063,1.721-.385.311-.683.758-1.033,1.033-.121.094-.595-.115-.689,0s-.217.6-.344.687c-.341.249-.979.44-1.376.689-.189.118.052.323-.344.344-.457.024-.538.662-1.032.687a6.232,6.232,0,0,1-2.409.344,3.8,3.8,0,0,1-3.1-4.473c.012-.1-.07-.632,0-.689a8.794,8.794,0,0,0,.689-.689A8.858,8.858,0,0,1,66.087,97.4c.121-.1.594.115.689,0a15.388,15.388,0,0,1,2.409-2.065c.338-.258.7-.415,1.033-.689.1-.084.249-.645.343-.689.162-.072.556.109.689,0,.337-.274.734-.779,1.033-1.032.1-.085.25-.647.343-.689.156-.069.565.109.689,0,.587-.511,1.205-1.234,1.722-1.721,2.474-2.339,4.581-4.678,6.882-7.228.53-.587,1.214-1.1,1.721-1.721s.869-1.384,1.378-2.065c.145-.195.322.057.344-.344.024-.457.662-.538.687-1.032.024-.458.662-.539.689-1.033.024-.457.662-.538.687-1.032.03-.548.714-1.038,1.033-1.722a12.755,12.755,0,0,0,.344-1.376c.045-.129.326,0,.344-.344.055-1.05.419-1.131.344-2.408-.243-.9-1.523-.4-2.066-.344-3.6.367-8.1,1.31-12.389,1.721-.854.081-1.792-.076-2.754,0a21.907,21.907,0,0,1-2.409.343c-.559-.027-.586-.264-1.033-.343a20.222,20.222,0,0,1-2.408-.344c-.117-.033-.62.085-.689,0-.231-.282-.264-.238-.689-.344-.3-.076-.59-.234-1.032-.344-.365-.091-1.274-.647-2.067-1.033-2.8-1.364-4.948-2.43-4.474-5.506.485-3.136,5.027-4.209,7.228-1.376,1.544.15,2.853,1.113,4.474,1.376.106.018.627-.075.689,0,.015.019-.013.344,0,.344.648.008,1.535-.3,2.409-.344,3.628-.174,7.579-.836,11.357-1.376.442-.063.945.1,1.378,0s.97-.189,2.065-.344c.1-.015.629.073.689,0,.482-.59,3.275-.479,4.817-.689-.075.01.205-.308.344-.344.912-.228,2.757-.148,4.13-.344.3-.042.566-.282,1.032-.343,1.984-.262,5.392-.484,7.917-.689a23.021,23.021,0,0,1,4.475-.344,15.9,15.9,0,0,1,3.1.689c.509.157,1.384.416,2.065.687.235.094.249.307.343.344.5.207.872.109,1.378.344.165.078-.031.325.344.344a4.425,4.425,0,0,1,1.376.689,6.045,6.045,0,0,1,1.033.687c.126.123.922.407,1.032,1.033,1.09.918.842,3.384.344,4.13a4.252,4.252,0,0,1-4.819,1.722c-.111-.036-.01-.328-.344-.344a4.426,4.426,0,0,1-1.376-.689,7.363,7.363,0,0,0-2.065-1.033c-.419-.022-2.177-.934-3.1-1.032a15.289,15.289,0,0,0-3.441.344c-2.922.313-6.252.493-9.293,1.032" transform="translate(6883.977 -8252.237)"/>
    <path id="パス_6322" data-name="パス 6322" class="cls-2" d="M19.62,67.948c1.273,3.248.62,6.525-.344,9.293a25.01,25.01,0,0,1-4.13,6.882c-.355.452-.949.852-1.376,1.378s-.562,1.192-1.033,1.721c-.78.874-1.875,1.875-2.754,2.754-1.375,1.373-4.1,4.489-6.2,4.473A3.94,3.94,0,0,1,0,90.318c.054-1.789,1.319-2.661,2.754-4.13A69.778,69.778,0,0,0,9.295,78.96c.148-.193.323.058.344-.343a3.351,3.351,0,0,1,.343-.689c.087-.12.641-.238.689-.343a9.028,9.028,0,0,1,.689-1.722c.106-.16.635-.55.687-.689.12-.306.18-1.071.344-1.721.154-.6.273-.954.344-1.376.325-1.894-.076-3.122,1.033-4.13a4.659,4.659,0,0,1,1.721-1.033c1.87-.4,3.449.711,4.13,1.033" transform="translate(6855.414 -8248.596)"/>
    <path id="パス_6323" data-name="パス 6323" class="cls-2" d="M33.45,67.253c.138-.055,0-.3.344-.344a15.392,15.392,0,0,1,6.884,1.033c.121.048.609-.1.687,0,.03.036-.039.328,0,.343.484.2.91.09,1.378.346.329.18.539.678,1.032,1.032.338.243,1.041.4,1.376.687.571.494,1.02,1.424,1.722,2.067,1.4,1.276,3.022,2.378,4.13,3.441,1.247,1.2,2.495,2.839,3.786,4.13,1.343,1.343,3.071,1.942,3.1,4.474a4.894,4.894,0,0,1-1.033,3.1c-.112.1-.593-.117-.689,0-.04.051-.313.677-.344.689a5.4,5.4,0,0,1-3.441-.344c-.8-.3-1.3-1.074-2.065-1.722-1.813-1.526-3.913-3.569-5.851-5.506-.577-.577-1.1-1.494-1.721-2.065A13.931,13.931,0,0,0,41.71,77.58c-.12-.1-.594.114-.687,0a9.391,9.391,0,0,0-2.067-2.067,9.33,9.33,0,0,0-2.409-.687c-.067-.017-.043-.329-.343-.344a8.7,8.7,0,0,1-2.065,0c.012,0-1.009-.314-1.033-.344-.036-.045.046-.319,0-.344-.627-.337-1.336-.238-1.376-1.032-.01-.2-.256-.677-.344-1.033-.051-.2-.344-.35-.344-.344-.258-1.818,1.111-4.079,2.065-4.13a1.322,1.322,0,0,0,.344,0" transform="translate(6870.839 -8248.59)"/>
    <path id="パス_6324" data-name="パス 6324" class="cls-2" d="M166.046,101.135c-1.752,6.048-4.06,11.542-5.849,17.553.83.913,1.167-.6,1.719-1.033.659-.518,1.084-1.186,2.065-1.032-.872,2.267-3.218,4.755-6.539,3.441.26-3.065,1.529-5.638,2.409-8.26s1.715-5.288,2.754-7.916c.186-1.219-1.217-.848-1.033-2.065,1.631-.091,2.653-.789,4.474-.689" transform="translate(6933.736 -8231.534)"/>
    <path id="パス_6325" data-name="パス 6325" class="cls-2" d="M111.574,101.822c-.78,3.923-2.511,6.894-3.441,10.669.216.6,1.122-.566,1.722-1.033.109-.085.244-.644.344-.689.181-.082.515.1.687,0,.12-.07.614-.672.687-.687a4.453,4.453,0,0,1,3.787.687c-.13.734.18,1.511,0,2.067-.055.168-.63.214-.689.343-.295.657-.126.674-.689,1.033-.376.24-.645.442-1.032.687a5.854,5.854,0,0,1-2.752,1.033c-.043,1.533.847,2.134,1.032,3.441,1.689.313,1.312-1.442,2.752-1.376-.566,1.957-1.715,3.332-4.473,3.1-1.077-1.105-1.223-3.137-2.065-4.474-1.466.828-1.749,2.841-2.409,4.474h-2.065a25.339,25.339,0,0,1,1.721-6.541c.031-.087.279-.079.344-.343.177-.71.484-1.249.687-2.065.178-.71.484-1.249.689-2.065.177-.708.484-1.249.689-2.065.177-.708.484-1.249.689-2.067a7.615,7.615,0,0,0,.343-1.376c.3-1.1-.529-1.075-1.032-1.376.839-1.111,2.649-1.252,4.473-1.376m-.343,9.981c-.082.1-.565-.058-.689,0-.042.019.033.3,0,.344-.087.106-.562-.072-.687,0-.079.045-.6.59-.689.689a10,10,0,0,0-2.065,2.752c.7.409.547.208,1.376,0,.262-.066.261-.313.344-.344,1.827-.666,3.606-1.592,3.786-3.441a.9.9,0,0,0-1.376,0" transform="translate(6906.639 -8231.188)"/>
    <path id="パス_6326" data-name="パス 6326" class="cls-2" d="M205.581,101.822c-.779,3.926-2.475,6.932-3.443,10.669.216.6,1.122-.566,1.721-1.033.109-.085.244-.644.345-.689.184-.082.517.1.689,0,.12-.07.613-.672.689-.687a4.446,4.446,0,0,1,3.784.687c-.129.734.181,1.511,0,2.067-.052.168-.629.214-.687.343-.295.657-.126.674-.687,1.033-.377.24-.647.442-1.033.687a5.861,5.861,0,0,1-2.754,1.033c-.042,1.533.849,2.134,1.032,3.441,1.691.313,1.312-1.442,2.755-1.376-.568,1.957-1.718,3.332-4.474,3.1-.9-1.285-1.2-3.163-2.065-4.474-1.467.828-1.749,2.841-2.411,4.474h-2.065a13.2,13.2,0,0,1,1.033-4.474c.022-.067.282-.1.345-.344.177-.708.484-1.249.687-2.065.177-.71.485-1.249.687-2.065.178-.71.487-1.249.69-2.065.175-.708.484-1.249.687-2.065.178-.708.484-1.249.689-2.067a7.747,7.747,0,0,0,.344-1.376c.3-1.1-.53-1.075-1.033-1.376.84-1.111,2.651-1.252,4.476-1.376m-.346,9.981c-.082.1-.563-.058-.687,0-.043.019.033.3,0,.344-.088.106-.563-.073-.689,0-.258.148-.464.809-.689,1.032-.521.523-1.345.8-1.376,1.376s-1.358,1.378,0,1.378c.289-.475.94-.5,1.376-.689.3-.129.431-.211.689-.344a4.342,4.342,0,0,0,1.376-1.032c.614-.614,1.448-1,1.378-2.065a.9.9,0,0,0-1.378,0" transform="translate(6953.403 -8231.188)"/>
    <path id="パス_6327" data-name="パス 6327" class="cls-2" d="M128.129,102.052h7.228c-.052,1.325-1.915.837-2.409,1.721-.561,1.962-1.2,3.85-1.721,5.851.627.645,2.087.329,3.441.344,1.216.013,2.64-.01,3.787,0,1.123-.255,1.035-1.718,1.376-2.754a18.6,18.6,0,0,0,1.033-3.1c.268-1.532-1.848-.678-1.724-2.065h7.573c.035,1.25-2.1.68-2.752,1.721-1.156,4.925-3.1,9.058-4.13,14.112-.31,1.456,1.944.349,1.721,1.721h-7.573c-.346-1.036.767-.611,1.378-.689,2.047-1.393,2.167-4.716,3.1-7.227-1.322-1.25-5.707-.723-7.573-.344a8.793,8.793,0,0,0-1.033,2.408c-.048.123.1.611,0,.689-.317.261-.454,1.033-.687,2.065-.015.067-.329.045-.344.344-.024.457.018.919,0,1.376-.207,1.355,2.382-.087,2.065,1.378h-7.916c.295-.966,1.791-.732,2.409-1.378,1.509-4.8,3.125-9.494,4.473-14.455-.063-1.084-1.852-.44-1.721-1.721" transform="translate(6916.586 -8231.073)"/>
    <path id="パス_6328" data-name="パス 6328" class="cls-2" d="M36.317,102.741H43.2c.1,1.244-1.508.786-2.065,1.376.469,2.4.934,4.8,1.376,7.228.878-.135,1.244-1.143,1.721-1.721a43.276,43.276,0,0,0,4.13-5.508c-.108-.809-1.631-.2-1.376-1.376h6.2c.21,1.171-1.128.773-1.721,1.032-.424.187-.563.559-1.033.689a39.333,39.333,0,0,0-4.13,4.819c-.365.443-1.033.921-1.376,1.376a22.131,22.131,0,0,0-3.443,7.917c.042,1.334,2.376.377,2.409,1.721h-8.26c-.1-1.252,1.836-.46,2.409-1.033a3.139,3.139,0,0,0,.344-.687c.049-.123-.1-.611,0-.689.539-.442.671-1.506,1.032-2.409.049-.123-.094-.611,0-.689.03-.024.335.031.344,0,.15-.508-.258-1.34.344-1.376-.669-2.772-1.162-5.722-1.721-8.6-.145-1.232-2-.753-2.065-2.065" transform="translate(6873.136 -8230.73)"/>
    <path id="パス_6329" data-name="パス 6329" class="cls-2" d="M172.948,102.741h12.389c-.71,1.354-.374,3.756-2.064,4.13v-2.409a10.652,10.652,0,0,0-4.817-.689c-1.1.5-1.111,2.1-1.378,3.443-.547.374-.536,1.17-.687,1.721-.144.515-.569.991-.346,1.721.921.9,3.035.069,4.13,0,1.181-.312.7-2.287,2.411-2.065a15.954,15.954,0,0,0-.689,1.721c-.258.815-.484,1.656-.689,2.409-.031.115.084.62,0,.689-.043.034-.321-.045-.345,0-.21.406-.118,1.339-1.032,1.032v-2.063a11.432,11.432,0,0,0-4.132-.344c-1.132,1.165-1.111,3.035-1.721,5.162-.028.1-.326.021-.344.344-.025.487.1.978-.345,1.033a1.74,1.74,0,0,0,1.035,1.032c.608.078,1.722-.347,1.375.689h-7.914c.04-1.219,1.951-.572,2.408-1.378q2.264-7.2,4.473-14.455c-.061-1.084-1.852-.44-1.719-1.721" transform="translate(6938.882 -8230.73)"/>
    <path id="パス_6330" data-name="パス 6330" class="cls-2" d="M151.733,105.052a5.346,5.346,0,0,1-.687,2.754c.863.283,2.963-.669,2.752.687.211,1.358-1.89.406-2.752.689-.851.457-.991,1.728-1.378,2.754-.045.121.094.613,0,.689-.683.559-.886,2.579-1.378,3.786,1.815-.022,1.828-1.845,3.443-2.065.409.985-.8,1.484-1.376,2.065-.265.268-.4.8-.689,1.032-.12.1-.593-.115-.687,0-.054.066-.292.666-.344.689a9.415,9.415,0,0,1-3.1.344,5.2,5.2,0,0,1,0-2.409c.018-.073.328-.04.344-.344a1.324,1.324,0,0,1,0-.344,6.435,6.435,0,0,0,.343-1.032c.257-1.027,1.27-3.4,1.724-4.819-.147-.773-1.828-.01-2.066-.689.314-.833,1.384-.91,2.408-1.032,1.426-.641,1.006-3.127,3.443-2.754" transform="translate(6927.744 -8229.6)"/>
    <path id="パス_6331" data-name="パス 6331" class="cls-2" d="M58.265,105.749a5.646,5.646,0,0,1-.689,2.409c.153.994,2.6-.305,2.754.687.231,1.493-1.6.928-2.754,1.033-.879.71-1.237,2.086-1.721,3.443a21.38,21.38,0,0,0-1.032,3.786c1.646-.19,1.9-1.77,3.441-2.065.3,1.111-.958,1.785-1.721,2.409s-2.895,2.573-4.819,1.376c.076-.32-.1-.717,0-1.033s.229-.572.344-1.032c.076-.3.234-.59.344-1.032.075-.3.234-.59.343-1.033.076-.3.235-.59.344-1.033.076-.3.235-.589.344-1.032.073-.3.307-.232.344-.344.193-.593.006-1.662.689-2.065-.043-.759-1.46-.145-2.065-.344-.027-1.288,1.349-1.174,2.409-1.376.644-.386.731-1.334,1.376-1.721.124-.909.827-1.238,2.065-1.033" transform="translate(6881.131 -8229.264)"/>
    <path id="パス_6332" data-name="パス 6332" class="cls-2" d="M95.145,105.741c.2,1.117-.235,1.6-.344,2.409.3.852,2.4-.1,2.754.687-.368.322-.108,1.271-1.033,1.033H94.456c-1.032.913-.9,2.441-1.376,3.786-.028.079-.28.088-.344.344-.223.9-.708,2.041-1.032,3.1,1.107.4,1.27-.7,1.721-1.032s1.279-.329,1.376-1.033c1.3.2.154.729-.344,1.376a7.374,7.374,0,0,1-2.409,2.065c-.135.084-.588.66-.687.689-.746.208-1.625-.16-2.409,0-.01-3.8,1.828-5.743,2.409-8.949.154-.958-1.876.27-1.722-.689-.01-1.044,1.208-.856,2.067-1.032,1.592-.472,1.006-3.124,3.441-2.754" transform="translate(6899.664 -8229.256)"/>
    <path id="パス_6333" data-name="パス 6333" class="cls-2" d="M146.539,107.36c1.4,2.032.538,4.858-.346,6.884-.068.157-.324-.025-.343.344-.022.406-1.06,1.182-1.722,1.721-.1.085-.248.645-.343.689-.183.082-.517-.1-.689,0-.126.073-.6.668-.687.689a6.536,6.536,0,0,1-4.474-.689c-1.43-2.391-.623-4.666.343-6.884.069-.157.325.025.344-.344a22.64,22.64,0,0,1,2.065-2.409c.126-.085.6.112.69,0,.031-.04-.045-.323,0-.343.123-.06.6.1.687,0,.467-.572,3.163-.638,4.474.343m-3.443.344c-.184.674-1.351,1.234-1.378,1.721-.025.532-.524,1.03-.687,1.378-.828,1.746-1.96,3.9-1.032,5.851,2.237.319,3.386-2.791,3.786-3.786a17.6,17.6,0,0,0,.689-2.065c.25-1.107.626-2.138,0-3.1Z" transform="translate(6923.646 -8228.811)"/>
    <path id="パス_6334" data-name="パス 6334" class="cls-2" d="M160.428,107.379c.337,2.047-.259,2.582-1.376,3.443-.217.165-.481.55-.689.687-.412.274-.885.171-1.376.344-.079.028-.088.28-.346.344a13.011,13.011,0,0,1-2.751.687c.069,1.078-.235,2.528.341,3.1,2.3.461,2.58-1.092,4.131-1.378.2.545-.227,1.238-.689,1.722-.273.283-.7.1-1.033.344-.452.338-.278.5-1.032.687a8.2,8.2,0,0,1-3.443.344c.009-.428-.511-.455-.687-.689s-.115-1.147-.344-1.376a1.021,1.021,0,0,1-.345-1.033.757.757,0,0,1,.345-.343c.141-.894-.1-1.4.344-2.065a32.509,32.509,0,0,1,1.721-3.1,7.4,7.4,0,0,1,1.032-.689c.217-.165.482-.55.69-.687.308-.205.644-.136,1.032-.344.121-.066.617-.674.687-.689a4.531,4.531,0,0,1,3.787.689m-6.2,4.474c2.007-.466,4.335-2.234,3.787-4.13-2.357.28-2.82,2.457-3.787,4.13" transform="translate(6930.408 -8228.829)"/>
    <path id="パス_6335" data-name="パス 6335" class="cls-2" d="M54.685,107.233c-.532,3.6-2.453,5.807-3.1,9.293.178.66.565.049.689,0,.684-.278,1.463-1.161,2.409-1.378.328.674-.6.9-1.033,1.378-.966,1.068-1.969,2.442-4.817,2.065a5.491,5.491,0,0,1,.687-3.1c-.294-1.038-1.548,1.676-2.409,1.721-.306.016-.746.523-1.032.689a4.381,4.381,0,0,1-3.1.689c-.3-.279-.2-.943-.689-1.033a5.809,5.809,0,0,1,.689-2.409c.049-.123-.094-.61,0-.689.04-.031.325.043.344,0,.058-.124-.1-.605,0-.687a4.417,4.417,0,0,0,1.032-1.378c.124-.19.323.054.344-.344a8.331,8.331,0,0,1,1.378-1.719,16.427,16.427,0,0,1,1.376-1.378c.591-.41,1.679-.238,2.065-1.032.991.04,2.252-.189,2.754.343-.288-1.439,1.577-1.762,2.409-1.032m-5.163,1.721c-.219.9-1.5,1.279-2.065,2.065-.195.27-.207.794-.344,1.032a4.106,4.106,0,0,0-.689,1.378c-.262,1.053-1.451,2.507-.687,3.441,1.023.07,1.429-1.116,2.065-1.721.228-.217.665.1.689-.344.021-.4.163-.154.344-.344a6.735,6.735,0,0,0,1.376-2.065,10.083,10.083,0,0,1,.689-1.376,2.279,2.279,0,0,0,.343-1.721,2.241,2.241,0,0,0-1.721-.344" transform="translate(6876.451 -8228.684)"/>
    <path id="パス_6336" data-name="パス 6336" class="cls-2" d="M91.957,107.219c-.987,3.372-2.534,6.185-3.441,9.636,1.64.034,1.632-1.578,3.1-1.721.165.723-.749,1.971-1.378,2.409-.124.087-.6-.112-.689,0a3.164,3.164,0,0,1-3.786.689,7.127,7.127,0,0,1,1.033-3.1c0-.7-.979.322-1.376.689a11.064,11.064,0,0,1-1.378,1.376c-.222.148-.484.562-.687.689a4.346,4.346,0,0,1-3.1.689c-.153-.307-.3-.617-.689-.689-.493-1.327.639-2.5.689-3.443.022-.446.542-.428.687-.687.243-.43.066-.963.344-1.378.264-.389.69-.578,1.033-1.032a7.522,7.522,0,0,1,1.721-1.721c.249-.187.476-.544.689-.689.485-.332,1.415-.466,1.721-1.032,1.372-.3,2.543.514,3.1,0-.162-1.56,1.611-.939,2.409-.689M86.8,108.94a10.836,10.836,0,0,0-4.13,7.916c1.432-.012,2.153-1.465,2.754-2.065.274-.274.8-.379,1.032-.687.192-.255.208-.8.344-1.033.052-.088.241-.181.343-.344a12.083,12.083,0,0,0,1.378-3.1c-.657-.147-.623-.984-1.721-.689" transform="translate(6894.934 -8228.669)"/>
    <path id="パス_6337" data-name="パス 6337" class="cls-2" d="M106.389,107.219c-.987,3.372-2.534,6.185-3.441,9.636,1.64.034,1.632-1.578,3.1-1.721.2.541-.241,1.255-.689,1.721-.271.285-.7.1-1.033.344-.132.1-.22.624-.344.689-.394.207-.678.163-1.032.344a2.75,2.75,0,0,1-2.752,0,7.108,7.108,0,0,1,1.032-3.1c-.5-.69-.794.46-1.032.689-.352.334-.72.771-1.033,1.032-.216.18-.5.554-.689.689-.124.087-.6-.112-.689,0-.542.663-1.381,1.346-3.441,1.033-.9-2.216.246-4.341,1.376-5.852.2-.265.521-.46.689-.689.475-.644.611-1.309,1.033-1.719a9.087,9.087,0,0,1,1.032-.689c.249-.187.478-.544.689-.689.529-.361,1.357-.428,1.721-1.032,1.372-.3,2.543.514,3.1,0-.162-1.56,1.611-.939,2.409-.689m-5.162,1.721a10.605,10.605,0,0,0-4.13,7.916c1.432-.012,2.153-1.465,2.754-2.065.274-.274.8-.379,1.032-.687.192-.255.208-.8.344-1.033.052-.088.241-.181.344-.344a12.127,12.127,0,0,0,1.376-3.1c-.656-.147-.623-.984-1.721-.689" transform="translate(6902.186 -8228.669)"/>
    <path id="パス_6338" data-name="パス 6338" class="cls-2" d="M212.72,114.826c-2.111,1.447-3.125,3.988-6.882,3.787-.924-2.031-.027-3.849,1.032-5.508.1-.163.292-.256.344-.344.136-.231.15-.777.343-1.032a16.4,16.4,0,0,1,2.411-2.065c.888-.693,1.731-1.2,2.409-1.721.713.2,2.261-.427,2.406.343.939-.323.656-1.869,2.411-1.376a1.732,1.732,0,0,1,0,2.065,24.347,24.347,0,0,0-1.033,2.754,34.017,34.017,0,0,0-1.719,4.819c.175.66.563.049.687,0,.684-.279,1.464-1.161,2.409-1.378a3.445,3.445,0,0,1-.689,1.721c-.2.219-.812.139-1.032.344a4.085,4.085,0,0,1-2.067,1.378,2.9,2.9,0,0,1-2.065-.344,6.582,6.582,0,0,1,1.033-3.443m-.343-5.851A18.773,18.773,0,0,1,211,110.7c-.368.463-1.012,1-1.032,1.376s-.251.168-.346.344a11.572,11.572,0,0,0-.687,2.409c-.027.094-.274.063-.344.344-.27,1.078-.277,1.122,0,1.721.7.183.734-.481,1.032-.687.463-.32,1.065-.394,1.378-.689.255-.241.4-.454.687-.689.114-.093-.088-.564,0-.687.111-.151.554-.2.69-.344.3-.322.343-.75.687-1.033.112-.091-.087-.565,0-.689.2-.286.524-.281.687-.687a4.325,4.325,0,0,0,.344-2.065,2.238,2.238,0,0,0-1.719-.344" transform="translate(6957.621 -8228.704)"/>
    <path id="パス_6339" data-name="パス 6339" class="cls-2" d="M64.772,110.136c-2.086.479-1.577-1.635-3.441-1.378-.878.391-.418,1.125-.344,1.378a5.785,5.785,0,0,0,.344,1.032c.1.132.624.222.689.344.5.964,1.4,1.821,1.376,3.1a5.46,5.46,0,0,1-.344,1.721c-.168.3-.785.442-1.032.689-.544.542-.331.771-1.378,1.032-.84.211-5.115,1.182-3.786-2.409,2.155-.319,1.869,1.8,4.13,1.378,1.306-2.809-3.738-4.09-1.721-7.573a4.361,4.361,0,0,1,1.376-1.376c.072-.055.719-.7.689-.689,1.406-.338,4.383-.22,3.441,2.754" transform="translate(6883.571 -8228.487)"/>
    <path id="パス_6340" data-name="パス 6340" class="cls-2" d="M70.895,114.231c-.551-.636-1.111.782-1.721,1.376-.291.285-.746.4-1.033.689-.238.24-.418.858-.687,1.033-.338.219-.714.166-1.033.344-.181.1.045.323-.344.343a4.512,4.512,0,0,1-2.409.344c-.584-1.267-.171-2.329.344-3.786.027-.078.28-.088.344-.344.361-1.442,1.327-2.987,1.721-4.819-.975-.892-1.435,1.7-3.1,1.378-.039-.547.523-1.235,1.033-1.721.168-.16.527-.577.689-.689.123-.087.6.112.687,0a3.169,3.169,0,0,1,3.787-.689,15.351,15.351,0,0,1-1.378,4.474c-.533,1.346-1.223,2.682-1.721,4.13,1.569-.019,2.484-1.685,3.443-2.752.3-.335.759-.659,1.032-1.033.291-.4.437-.946.687-1.376.109-.186.325.048.346-.344.025-.5.654-.744.687-1.378.027-.5.654-.743.689-1.376.015-.282.385-.341.344-.689h2.065c-.521,3.5-2.126,5.9-3.1,8.949,1.176.9,2.267-2.278,3.443-1.376-.013.428-.485.455-.689.687-.109.126.117.572,0,.689-.207.208-.978.25-1.378.689a4.231,4.231,0,0,1-4.129,1.376,5.091,5.091,0,0,1,.687-2.754c.133-.2.244-1.045.689-1.376" transform="translate(6886.742 -8228.455)"/>
    <path id="パス_6341" data-name="パス 6341" class="cls-2" d="M84.927,108.382c.276,1.309-1.628.439-2.409.689.246,1.737-.47,2.513-.689,3.786a7,7,0,0,0-2.065,2.065c-1.156.451-2.559.653-3.441,1.378.424,1.5,1.986,1.6,3.1,2.409s2.64,1.348,2.754,2.752a3.315,3.315,0,0,1-2.409,3.1c-.123.049-.611-.1-.689,0a4.153,4.153,0,0,1-1.721.687c-2.233.285-5.115-.108-6.539-1.376-.481-3.234,1.667-3.841,3.786-4.474.873-.84-.725-.734-.343-2.065.6-.311.568-1.267,1.376-1.376-.684-.693-1.628-1.126-2.065-2.065-.463-1.255.648-2.691.689-3.443.03-.58,1-.7,1.032-1.376.022-.431,1.506-1.021,2.065-1.376a5.1,5.1,0,0,1,2.754-.344c.626.06,1.119.31,1.721.344.948.051,2.954-1.2,3.1.687m-6.2,0c-1.253,1.73-2.872,3.094-2.752,6.2,1.595.268,3.053-1.571,3.1-2.409.058-1.122,1.774-2.363,1.033-3.786Zm.689,13.079c-.238-.271-.741-.111-1.032-.344-.526-.421-.791-1-1.378-1.032-.753-.04-.794-.714-1.376,0-.087.1-.562-.07-.689,0a7.451,7.451,0,0,0-.687.689c-.559.5-1.075.879-1.033,1.721.452-.076.171.478.344.687.247.3.773.371,1.032.689.076.093.568-.045.689,0a4.89,4.89,0,0,0,3.1,0c.716-.287,1.5-.4,1.376-1.376-.273-.219-.111-.767-.344-1.033" transform="translate(6890.608 -8228.456)"/>
    <path id="パス_6342" data-name="パス 6342" class="cls-2" d="M121.363,108.07a3.118,3.118,0,0,1-1.376,3.443,11.662,11.662,0,0,1-3.1,1.376c-.081.028-.085.28-.343.344a4.14,4.14,0,0,1-1.722.345c.07,1.077-.232,2.526.344,3.1,2.158.323,2.618-1.054,4.13-1.376.034.927-.644,1.507-1.376,2.065-1.087.83-2.423,1.2-4.819,1.033-.1-.7-.931-.675-1.033-1.378a3.289,3.289,0,0,1-.343-2.409c0-.019.329-.081.343-.344a3.732,3.732,0,0,1,.344-1.721c.079-.166.325.033.344-.344.027-.5.656-.743.689-1.376a19.2,19.2,0,0,1,2.065-2.409c.431-.274.906-.1,1.376-.344.133-.067.6-.669.689-.687a4.519,4.519,0,0,1,3.786.687m-3.441.344c-.994,1.3-2.284,2.306-2.754,4.13,2-.642,3.777-1.5,3.786-4.13Z" transform="translate(6910.962 -8228.488)"/>
    <path id="パス_6343" data-name="パス 6343" class="cls-2" d="M186.048,113.9c-.431-.547-.5.485-.689.687-.578.613-1.256.878-2.065,1.722a5.844,5.844,0,0,1-1.721,1.376c-.181.1.046.323-.344.344a4.526,4.526,0,0,1-2.408.344c-.583-1.316-.165-2.353.341-3.787.03-.078.281-.087.346-.344a8.877,8.877,0,0,1,.344-1.376,22.369,22.369,0,0,0,1.376-3.441c-.975-.894-1.435,1.7-3.1,1.376-.126-.824,1.033-1.5,1.722-2.065,1.161-.952,2.188-2.034,4.474-1.032a15.439,15.439,0,0,1-1.376,4.474c-.536,1.345-1.225,2.68-1.722,4.13,1.5.111,2.171-1.484,3.1-2.409.261-.261.812-.4,1.032-.689s.189-.75.344-1.032c.1-.183.323.045.345-.344,0-.072-.038-.285,0-.344.225-.365.844-.7,1.032-1.032.211-.376.169-.69.346-1.033.256-.5.626-1.255,1.032-2.065h2.065a23.494,23.494,0,0,1-1.378,4.819c-.054.139-.323-.014-.344.344-.054,1.048-1.044,2.357-1.375,3.786a3.424,3.424,0,0,0,2.752-1.722c1,.869-.94,2.246-1.721,2.754a4.638,4.638,0,0,1-3.787,1.033,10.75,10.75,0,0,1,1.378-4.474" transform="translate(6944.024 -8228.462)"/>
    <path id="パス_6344" data-name="パス 6344" class="cls-2" d="M195.7,113.552a51.557,51.557,0,0,1-3.786,3.786,4.035,4.035,0,0,1-3.443,1.033c-.875-1.775.171-3.38.689-4.819s1.3-2.776,1.721-4.13c-1.634-.142-1.685,1.3-3.1,1.376-.127-.824,1.032-1.5,1.719-2.065,1.162-.952,2.189-2.034,4.476-1.032-.627,3.272-2.228,5.574-3.1,8.6,1.106.392,1.482-.851,2.065-1.378a7.573,7.573,0,0,0,2.065-2.408c.1-.183.325.045.346-.344.014-.3.52-.762.686-1.033a40.946,40.946,0,0,0,2.065-3.786h2.065c-.648,3.365-2.263,5.767-3.1,8.949.46.756.993-.4,1.378-.689.593-.445,1.014-1.081,1.719-1.033.2.671-.273,1.222-.687,1.722a6.817,6.817,0,0,1-5.162,2.065c-.141-2.2.915-3.214,1.376-4.819" transform="translate(6948.827 -8228.462)"/>
    <path id="パス_6345" data-name="パス 6345" class="cls-2" d="M105.55,4.546c2.125-.06,4.707-.575,3.786,2.409-.759-.042-.145-1.46-.343-2.065-1.047-.216-2.965.44-3.443-.344" transform="translate(6907.922 -8265.869)"/>
    <path id="パス_6346" data-name="パス 6346" class="cls-2" d="M102.12,9.8c.216-1.045-.44-2.965.344-3.441-.216,1.045.44,2.965-.344,3.441" transform="translate(6906.188 -8264.931)"/>
    <path id="パス_6347" data-name="パス 6347" class="cls-1" d="M152.169,5.929c-.4,0-.788,0-1.182,0,.394,0,.786,0,1.182,0" transform="translate(6930.525 -8265.146)"/>
    <path id="パス_6348" data-name="パス 6348" class="cls-1" d="M145.79,5.172c-.045.873-.057,1.777-.052,2.7,0-.922.008-1.828.052-2.7Z" transform="translate(6927.913 -8265.522)"/>
    <path id="パス_6349" data-name="パス 6349" class="cls-1" d="M175.593,19.163c-3.672-.228-8.259.458-11.357-.343.225-2.185-.454-5.273.343-6.884,3.317-.064,12.266.957,8.6-2.754-.719-.091-1.462-.159-2.216-.214-.723-.052-1.465-.091-2.213-.118-5.713.322-14.931,1.706-16.565.332-.8-.669-.295-3.509,0-3.441,4.814-1.9,15.954.888,15.144-5.508-5.9-1.2-12.525,2.532-18.587,3.443-.018.44-.44.476-.344,1.032-.094.475-.165.972-.222,1.482s-.093,1.024-.121,1.556c.276,3.756,1.731,9.41.343,11.074-.74.887-4.04.058-6.2.343-.907-.1-.886.719-1.033,1.378.37.32.109,1.27,1.033,1.032,4.936.229,10.783-.457,15.144.344v9.638c-1.556.738-4.425.162-6.54.344V30.306a3.964,3.964,0,0,1,0-.822v-5.5c.252-.939-.683-.692-.687-1.376h-2.409c-.018.44-.442.476-.344,1.033V35.685a1.629,1.629,0,0,0,.344,1.033c2.679.726,2.731-1.171,3.787-2.067h16.519c.359,1.477,1.147,2.528,3.443,2.067,1.123-3.247,1.123-10.867,0-14.112h-2.409c-1.4,1.809-.373,6.05-.687,8.949-1.727.8-4.93.118-7.228.344-.8-2.757-.117-7-.344-10.327h14.455a1.229,1.229,0,0,0,.344-2.409m-14.8-.343c-1.277,1.53-5.346.2-7.9,0h-1.054c.228-2.185-.452-5.273.346-6.884H160.7v.24h.046v2.215c.371,1.676.841,3.477.046,4.43" transform="translate(6925.644 -8268.096)"/>
    <path id="パス_6350" data-name="パス 6350" class="cls-1" d="M145.8,10.418c0,.256,0,.509,0,.764,0-.255,0-.508,0-.764" transform="translate(6927.944 -8262.913)"/>
    <path id="パス_6351" data-name="パス 6351" class="cls-1" d="M147.61,20.238" transform="translate(6928.845 -8258.028)"/>
    <path id="パス_6352" data-name="パス 6352" class="cls-1" d="M145.8,10.462c-.027-1.155-.052-2.309-.06-3.446.008,1.137.033,2.291.06,3.446" transform="translate(6927.914 -8264.605)"/>
    <path id="パス_6353" data-name="パス 6353" class="cls-1" d="M147.678,20.535a.393.393,0,0,0,.023.067.393.393,0,0,1-.023-.067" transform="translate(6928.879 -8257.88)"/>
    <path id="パス_6354" data-name="パス 6354" class="cls-1" d="M131.853,12.224c.632-1.089,1.6-3.287.689-4.819-.268-.076-.68-.009-.689-.344-2.6-.346-2.1,2.314-2.754,3.787-1.5,3.371-4.85,6.216-5.162,9.293,4.852.812,4.482-6.514,11.012-5.163.367,7.478-6.069,8.155-7.571,13.766,2.826.69,4.957-2.105,6.539-3.786a23.714,23.714,0,0,0,4.474-6.884V14.289c2.267-.831,6.718.523,6.2-3.1-4.284-1.042-8.224,1.159-12.734,1.032" transform="translate(6917.069 -8264.599)"/>
    <path id="パス_6355" data-name="パス 6355" class="cls-1" d="M147.844,16.455a2.829,2.829,0,0,1,.12.466,2.869,2.869,0,0,0-.12-.466" transform="translate(6928.962 -8259.91)"/>
    <path id="パス_6356" data-name="パス 6356" class="cls-1" d="M147.61,16.015a2.155,2.155,0,0,1,.292.508,2.155,2.155,0,0,0-.292-.508" transform="translate(6928.845 -8260.129)"/>
    <path id="パス_6357" data-name="パス 6357" class="cls-1" d="M147.934,17.836c-.013.106-.031.216-.048.322.016-.106.034-.214.048-.322" transform="translate(6928.982 -8259.223)"/>
    <path id="パス_6358" data-name="パス 6358" class="cls-1" d="M147.968,17.383c-.008.138-.018.277-.031.416.013-.139.024-.279.031-.416" transform="translate(6929.008 -8259.448)"/>
    <path id="パス_6359" data-name="パス 6359" class="cls-1" d="M147.94,16.841a4.017,4.017,0,0,1,.033.59,4.017,4.017,0,0,0-.033-.59" transform="translate(6929.009 -8259.718)"/>
    <path id="パス_6360" data-name="パス 6360" class="cls-1" d="M106.105,7.063c-.785.478-.127,2.4-.344,3.441-1.075,6.074-2.724,11.486-5.851,15.49-1.731,2.216-5.172,3.181-5.163,6.194,7.784-1.406,14.835-12.949,15.488-22.026.316-4.379-2.32-7.465-4.13-3.1" transform="translate(6902.547 -8265.632)"/>
    <path id="パス_6361" data-name="パス 6361" class="cls-1" d="M112.555,3.062c-1.924-.469-6.508-.831-7.916.344-.138,1.283.274,2.019,1.376,2.064.478.786,2.4.129,3.443.344.2.606-.416,2.023.343,2.067.687,11.933,4.964,20.276,13.08,24.78,1.947-.8,4.073-1.433,4.473-3.786-10.2-3.342-14.187-12.887-14.8-25.813" transform="translate(6907.456 -8266.794)"/>
    <path id="パス_6362" data-name="パス 6362" class="cls-1" d="M162.809,5.931h0c-3.11-.117-6.406-.048-9.684,0,3.275-.048,6.572-.12,9.681,0" transform="translate(6931.59 -8265.177)"/>
    <path id="パス_6363" data-name="パス 6363" class="cls-1" d="M148.319,14.855h.344V7.971c-.8,1.611-.118,4.7-.344,6.884" transform="translate(6929.17 -8264.13)"/>
    <path id="パス_6364" data-name="パス 6364" class="cls-1" d="M154.3,8.21V7.97h-.252c-.007.073,0,.162,0,.24Z" transform="translate(6932.046 -8264.131)"/>
    <path id="パス_6365" data-name="パス 6365" class="cls-1" d="M156.79,14.45h-7.938V8.21h7.938V7.97h-8.26v6.885h8.26Z" transform="translate(6929.303 -8264.131)"/>
    <path id="パス_6366" data-name="パス 6366" class="cls-1" d="M156.594,14.855h.344V7.971c-.8,1.611-.12,4.7-.344,6.884" transform="translate(6933.286 -8264.13)"/>
    <path id="パス_6367" data-name="パス 6367" class="cls-1" d="M167.932,12.93c-2.984-.8-7.454-.117-11.012-.343h-.344c3.1.8,7.685.115,11.357.343" transform="translate(6933.305 -8261.863)"/>
    <path id="パス_6368" data-name="パス 6368" class="cls-1" d="M141.864,14.425c4.247.8,9.982.115,14.8.344h.343c-4.361-.8-10.208-.115-15.144-.344" transform="translate(6925.987 -8260.948)"/>
    <path id="パス_6369" data-name="パス 6369" class="cls-1" d="M154.64,24.732V14.75c4.588-.228,10.093.458,14.111-.343H154.3c.228,3.329-.457,7.57.344,10.325" transform="translate(6932.143 -8260.929)"/>
    <path id="パス_6370" data-name="パス 6370" class="cls-1" d="M145.455,27.831V15.785a42.381,42.381,0,0,0,0,12.046" transform="translate(6927.559 -8260.243)"/>
    <path id="パス_6371" data-name="パス 6371" class="cls-1" d="M161.734,21.072h-7.227v.344c2.3-.226,5.5.454,7.227-.344" transform="translate(6932.276 -8257.613)"/>
    <path id="パス_6372" data-name="パス 6372" class="cls-1" d="M148.061,16.247c1.388-1.664-.069-7.318-.343-11.074-.046.873-.057,1.777-.054,2.7,0,.019,0,.04,0,.06.007,1.135.034,2.291.06,3.446.015.553.024,1.1.031,1.65q0,.382,0,.764c0,.834,0,1.661-.043,2.454-1.842.223-4.584-.452-5.854.343,2.156-.285,5.457.544,6.2-.343" transform="translate(6925.987 -8265.522)"/>
    <path id="パス_6373" data-name="パス 6373" class="cls-1" d="M145.893,4.134c-.057.5-.093,1.024-.121,1.556.028-.532.067-1.051.121-1.556" transform="translate(6927.931 -8266.039)"/>
    <path id="パス_6374" data-name="パス 6374" class="cls-1" d="M147.61,20.238" transform="translate(6928.845 -8258.028)"/>
    <path id="パス_6375" data-name="パス 6375" class="cls-1" d="M148.022,19.064c.017-.108.035-.216.048-.322.012-.088.019-.175.028-.262.015-.141.024-.28.032-.418,0-.073.006-.147.007-.22a4.217,4.217,0,0,0-.033-.59c-.006-.039-.018-.075-.024-.112a2.833,2.833,0,0,0-.12-.466c-.019-.051-.037-.1-.058-.151a2.21,2.21,0,0,0-.292-.508v5.5c.069-.753.276-1.608.412-2.453" transform="translate(6928.845 -8260.129)"/>
    <path id="パス_6376" data-name="パス 6376" class="cls-1" d="M147.61,24.618c2.114-.183,4.984.394,6.539-.344V14.636h-.343v9.638c-2.348-.674-4.638,1.111-5.852-.344a1.468,1.468,0,0,1-.222-.392c-.009-.022-.015-.045-.022-.067a2.163,2.163,0,0,1-.1-.445Z" transform="translate(6928.845 -8260.814)"/>
    <path id="パス_6377" data-name="パス 6377" class="cls-1" d="M161.8,6.028c-.722-.054-1.463-.091-2.21-.118h0c.747.027,1.488.066,2.212.118" transform="translate(6934.807 -8265.155)"/>
    <path id="パス_6378" data-name="パス 6378" class="cls-1" d="M148.672,7.276c1.634,1.373,10.852-.01,16.567-.334-3.11-.117-6.408-.045-9.681,0q-1.015.016-2.025.024c-.4,0-.788,0-1.181,0-1.243,0-2.477,0-3.679-.043v-3.1c-.295-.066-.8,2.772,0,3.443" transform="translate(6929.161 -8266.189)"/>
    <path id="パス_6379" data-name="パス 6379" class="cls-1" d="M156.853,13.634h-.3v.406H149c2.55.2,6.62,1.529,7.9,0,.8-.954.325-2.754-.047-4.43Z" transform="translate(6929.538 -8263.315)"/>
    <path id="パス_8755" data-name="パス 8755" class="cls-3" d="M.344,0H0" transform="translate(7077.489 -8249.276)"/>
    <path id="パス_8756" data-name="パス 8756" class="cls-3" d="M.708,0H0" transform="translate(7077.833 -8249.276)"/>
    <path id="パス_6380" data-name="パス 6380" class="cls-1" d="M154.048,8.21c0-.078-.009-.166,0-.24v.24Z" transform="translate(6932.046 -8264.131)"/>
  </g>
</svg>
