<svg xmlns="http://www.w3.org/2000/svg" xmlns:xlink="http://www.w3.org/1999/xlink" width="420.759" height="274.927" viewBox="0 0 420.759 274.927">
  <defs>
    <style>
      .cls-1 {
        fill: none;
      }

      .cls-2 {
        clip-path: url(#clip-path);
      }

      .cls-3 {
        fill: #bababa;
      }

      .cls-4 {
        fill: #edbc32;
      }

      .cls-5 {
        fill: #fce952;
      }

      .cls-6 {
        fill: #a4cced;
      }

      .cls-12, .cls-7 {
        fill: #282828;
      }

      .cls-8 {
        fill: #4aa3d5;
      }

      .cls-9 {
        fill: #6b6b6b;
      }

      .cls-10 {
        fill: #ffdbb0;
      }

      .cls-11 {
        clip-path: url(#clip-path-2);
      }

      .cls-12 {
        fill-rule: evenodd;
      }
    </style>
    <clipPath id="clip-path">
      <rect id="長方形_672" data-name="長方形 672" class="cls-1" width="416.394" height="210.593"/>
    </clipPath>
    <clipPath id="clip-path-2">
      <rect id="長方形_675" data-name="長方形 675" class="cls-1" width="152.401" height="55.819" transform="translate(0 0)"/>
    </clipPath>
  </defs>
  <g id="グループ_1007" data-name="グループ 1007" transform="translate(1799.759 -5507.27)">
    <g id="グループ_682" data-name="グループ 682" transform="translate(-1795.394 5571.604)">
      <g id="グループ_681" data-name="グループ 681" class="cls-2">
        <path id="パス_6715" data-name="パス 6715" class="cls-3" d="M212.178,95.279c.181-8.915,1.318-19.94,1.318-27,0-8.218.32-16.724.376-18.784.189-6.9-2.071-7.19-12.99-9.1-9.313-1.627-13.683-2.084-17.132-2.2-4.33-.147-11.86,1.761-16.378,3.228-2.69.874-8.564,2.687-12.237,4.109-.87.337-4.028,1.434-4.142,3.229-.156,2.462-.226,9.852-.317,13.45-.2,7.54-.307,17.51-.434,32.339-.036,6.3.434,10.176,3.928,11.986a71.757,71.757,0,0,0,9.667,3.186c1.72.481,3.549.985,5.377,1.444,6.463,1.627,12.61,3.241,15.1,3.338,3.766.147,6.025-1.174,12.614-4.4,2.062-1.011,8.126-5.537,10.354-7.191,3.449-2.561,4.823-3.987,4.895-7.631"/>
        <path id="パス_6716" data-name="パス 6716" class="cls-4" d="M187.059,53.761a7.683,7.683,0,0,1-.814-.042c-2.285-.248-11.765-1.733-27.416-4.3-.184-.03-.3-.171-.263-.315a.349.349,0,0,1,.4-.205c15.636,2.56,25.1,4.043,27.37,4.289,3.244.35,8.079-1.771,13.614-4.367a.4.4,0,0,1,.468.091.236.236,0,0,1-.116.365c-5.218,2.447-9.847,4.48-13.246,4.48"/>
        <path id="パス_6717" data-name="パス 6717" class="cls-4" d="M186.715,110.4h0a.308.308,0,0,1-.336-.27c.047-2.355.289-8.493.567-15.6.554-14.163,1.316-33.56,1.129-37.877a.3.3,0,0,1,.328-.275.322.322,0,0,1,.353.257c.188,4.334-.573,23.741-1.127,37.912-.28,7.1-.519,13.241-.567,15.591a.312.312,0,0,1-.342.262"/>
        <path id="パス_6718" data-name="パス 6718" class="cls-4" d="M183.99,75.554a.342.342,0,0,1-.064,0c-3.167-.365-18.423-2.845-29.839-4.984a.329.329,0,0,1-.253-.38.309.309,0,0,1,.358-.266c11.4,2.136,26.639,4.613,29.8,4.977a.326.326,0,0,1,.276.362.317.317,0,0,1-.276.291"/>
        <path id="パス_6719" data-name="パス 6719" class="cls-4" d="M183.385,89.146a.332.332,0,0,1-.063,0c-2.08-.24-8.369-1.465-15.649-2.885-4.193-.817-8.528-1.662-12.575-2.421a.328.328,0,0,1-.254-.38.311.311,0,0,1,.358-.266c4.051.759,8.387,1.6,12.579,2.422,7.269,1.417,13.547,2.641,15.6,2.877a.324.324,0,0,1,.276.362.316.316,0,0,1-.276.291"/>
        <path id="パス_6720" data-name="パス 6720" class="cls-4" d="M162.884,72.6a37.278,37.278,0,0,0,10.576,2.1c1.352.033,1.538-.04,1.552.474s.154,1.007-2.026.953a26.717,26.717,0,0,1-7.6-1.087,9.063,9.063,0,0,1-2.53-1.027c-.7-.737-.32-1.572.025-1.415"/>
        <path id="パス_6721" data-name="パス 6721" class="cls-4" d="M162.734,86.422a37.243,37.243,0,0,0,10.577,2.1c1.351.033,1.537-.04,1.552.474s.153,1.007-2.026.953a26.741,26.741,0,0,1-7.6-1.087,9.037,9.037,0,0,1-2.53-1.027c-.7-.737-.321-1.572.024-1.415"/>
        <path id="パス_6722" data-name="パス 6722" class="cls-5" d="M191.746,2.6c-.054,1.164-4.385,1.907-9.672,1.66s-9.53-1.39-9.476-2.554S176.983-.2,182.271.047s9.529,1.39,9.475,2.554"/>
        <rect id="長方形_670" data-name="長方形 670" class="cls-6" width="32.263" height="2.12" transform="translate(180.69 41.652) rotate(-89.135)"/>
        <path id="パス_6723" data-name="パス 6723" class="cls-5" d="M172.73,1.437c-.34.448-1.354,5.686-2.045,9.27S167.8,21.425,169.9,21.162c2.385-.3,3.657.62,5.962.5,2.673-.142,3.776.944,7.006,1.044,1.97.06,4.424-.657,5.664-.7a27.97,27.97,0,0,1,5.118.547c1.607.27,1.374-1.173.845-3.975-.509-2.7-2.087-15.155-2.783-16.2-.511-.767-4.973-1.306-7.994-1.321S173.823,0,172.73,1.437"/>
        <path id="パス_6724" data-name="パス 6724" class="cls-6" d="M190.3,41.981c-.076,1.919-3.917,3.325-8.578,3.139s-8.378-1.892-8.3-3.811S177.34,37.984,182,38.17s8.378,1.892,8.3,3.811"/>
        <path id="パス_6725" data-name="パス 6725" class="cls-6" d="M184.743,4.631a48.48,48.48,0,0,1-9.912-1.023.36.36,0,1,1,.169-.7c3.128.758,11.365,1.588,15.314.4a.36.36,0,1,1,.207.69,21.425,21.425,0,0,1-5.778.63"/>
        <path id="パス_6726" data-name="パス 6726" class="cls-6" d="M190.12,16.637a.36.36,0,0,1-.36-.36c0-1.5-.473-4.986-.817-7.532-.108-.792-.2-1.506-.274-2.063a.359.359,0,0,1,.312-.4.35.35,0,0,1,.4.313c.069.555.166,1.266.273,2.056.347,2.565.823,6.079.823,7.628a.36.36,0,0,1-.36.36"/>
        <path id="パス_6727" data-name="パス 6727" class="cls-6" d="M181.475,17.432a.36.36,0,0,1-.36-.36c0-.673.058-2.178.126-3.921.08-2.091.171-4.461.171-5.719a.36.36,0,0,1,.721,0c0,1.272-.092,3.649-.173,5.746-.064,1.664-.125,3.235-.125,3.894a.36.36,0,0,1-.36.36"/>
        <path id="パス_6728" data-name="パス 6728" class="cls-6" d="M173.823,17.432H173.8a.36.36,0,0,1-.334-.385c.1-1.451.815-7.488,1.395-11.063a.353.353,0,0,1,.413-.3.36.36,0,0,1,.3.413c-.577,3.557-1.285,9.558-1.388,11a.359.359,0,0,1-.359.334"/>
        <path id="パス_6729" data-name="パス 6729" class="cls-5" d="M182.3,44.342q-.945,0-1.992-.08a.361.361,0,0,1-.332-.387.351.351,0,0,1,.387-.332,17.266,17.266,0,0,0,5.4-.288,7.757,7.757,0,0,0,3.385-1.567.36.36,0,0,1,.559.454c-.86,1.06-3.474,1.738-3.769,1.812a15.175,15.175,0,0,1-3.639.388"/>
        <path id="パス_6730" data-name="パス 6730" class="cls-3" d="M372.9,38.922,247.329,22.54a27.173,27.173,0,0,0-11.694,1.153c-5.474,1.432-12.9,4.536-13.927,9.782l-11.947,61.3c-1.189,6.1,4.846,12.046,13.411,13.207l120.471,16.328s11.606,2.062,17.964.286c7.964-2.165,11.612-5.238,12.632-10.466l12.1-62.075c1.189-6.1-4.859-12.013-13.441-13.132"/>
        <path id="パス_6731" data-name="パス 6731" class="cls-4" d="M370.678,85.543l-.052,0c-.35.013-.581-.122-.517-.3.49-1.385,2.129-10.093,3.575-17.776,1.068-5.67,2.077-11.025,2.431-12.4.046-.175.357-.334.7-.361h.02c.351-.022.6.106.553.284-.351,1.359-1.359,6.709-2.426,12.373-1.449,7.7-3.091,16.418-3.591,17.831-.06.17-.365.319-.695.344"/>
        <path id="パス_6732" data-name="パス 6732" class="cls-3" d="M356.33,147.689c.508,3.773,3.867,7.029,7.437,7.029s6.93-3.256,7.438-7.029l3.334-24.782c.314-2.332-3.132-4.164-7.645-4.164H360.64c-4.512,0-7.958,1.832-7.644,4.164Z"/>
        <path id="パス_6733" data-name="パス 6733" class="cls-7" d="M8.762,170.326c.508,3.772,3.867,7.028,7.437,7.028s6.93-3.256,7.438-7.028l3.334-24.782c.314-2.332-3.132-4.164-7.645-4.164H13.072c-4.512,0-7.958,1.832-7.645,4.164Z"/>
        <path id="パス_6734" data-name="パス 6734" class="cls-7" d="M148.019,203.564c.508,3.773,3.867,7.029,7.437,7.029s6.93-3.256,7.438-7.029l3.334-24.782c.314-2.332-3.132-4.164-7.645-4.164h-6.254c-4.512,0-7.958,1.832-7.645,4.164Z"/>
        <path id="パス_6735" data-name="パス 6735" class="cls-4" d="M212.859,64.763C195.145,69.342,46.377,106.1,36.965,108.53s-26.08,5.085-27.5,10.747S4.5,140.148,3.948,142.668C2.767,148.019,6.584,152,13.541,153.59c22.339,5.1,95.269,23.264,110.524,26.836,17.47,4.092,30.25,6.684,54.85-.408,23.942-6.9,179.366-48.03,191.306-50.757,10.856-2.479,9.089-20.992,9.3-33.361.073-4.083-6.427-5.232-20.344-7.164-36.113-5.013-98.837-15.688-112.439-18.457-18.457-3.757-33.884-5.516-33.884-5.516"/>
        <path id="パス_6736" data-name="パス 6736" class="cls-3" d="M154.463,161.1c.506,0,.944-.008,1.3-.024,4.729-.211,20.591-3.955,33.337-6.964,2.878-.679,5.606-1.324,8.026-1.884a.561.561,0,0,0-.253-1.094c-2.421.561-5.151,1.206-8.031,1.886-12.7,3-28.5,6.729-33.129,6.935-4.709.211-22.919-.979-32.7-3.281a.562.562,0,0,0-.258,1.093c9.124,2.146,25.524,3.333,31.706,3.333"/>
        <path id="パス_6737" data-name="パス 6737" class="cls-3" d="M332.5,110.225a.561.561,0,0,1-.177-1.094c3-1,10.383-3.025,17.522-4.982,6-1.645,11.666-3.2,13.591-3.841a.561.561,0,1,1,.355,1.065c-1.953.651-7.635,2.208-13.649,3.858-6.793,1.863-14.492,3.975-17.465,4.966a.574.574,0,0,1-.177.028"/>
        <path id="パス_6738" data-name="パス 6738" class="cls-6" d="M261.125,50.717c7.051-1.235,64.068,8.187,77.448,12.441,6.043,4.613-16.835,32.287-34.408,32.118-9.284-2.158-64.092-11.9-70.557-15.614-2.743-5.625,17.156-28.411,27.517-28.945"/>
        <path id="パス_6739" data-name="パス 6739" class="cls-8" d="M310.089,90.686a.486.486,0,0,1-.222-.631c1.712-3.09,9.035-10.7,12.554-13.659q.956-.806,1.928-1.638a78.611,78.611,0,0,1,9.727-7.466.558.558,0,0,1,.7.16.417.417,0,0,1-.072.633,77.928,77.928,0,0,0-9.625,7.392c-.651.554-1.3,1.1-1.934,1.641-3.471,2.922-10.755,10.518-12.378,13.447a.477.477,0,0,1-.663.13l-.015-.009"/>
        <path id="パス_6740" data-name="パス 6740" class="cls-5" d="M41.33,104.555c12.267.546,28.842-7.7,48.914-13.6,14.724-4.331,47.635-15.157,71.886-16.023C184.738,74.121,191.144,62.8,208.9,65.4c8.242,1.206,34.413,12.112,43.738,14.723,14.4,4.032,44.628,9.534,69.72,11.693,17.7,1.522,24.251,10.826,25.983,19.487,3.532,17.662-11.259,22.518-20.786,25.549-8.359,2.66-28.081.784-46.137,4.852-22.4,5.047-21.785,6.916-41.795,13.931-10.21,3.58-21.709,15.338-41.33,15.325-16.447-.01-24.858,29.49-55.726,26.47-25.816-2.525-49.52-31.684-73.837-35.758C44.225,157.57,0,162.131,0,144.492c0-19.968,10.678-41.3,41.33-39.937"/>
        <path id="パス_6741" data-name="パス 6741" class="cls-3" d="M139.213,166c-4.665-.65-9.2-2.252-14.471-4.113-1.989-.7-4.046-1.429-6.267-2.16a.747.747,0,0,1-.476-.942.755.755,0,0,1,.942-.476c2.238.737,4.3,1.465,6.3,2.17,10.236,3.615,17.631,6.225,28.66,2.533,6.955-2.329,11.88-3.819,15.838-5.016,3.769-1.14,6.746-2.04,10.037-3.217a.747.747,0,1,1,.5,1.406c-3.327,1.188-6.32,2.094-10.108,3.24-3.949,1.194-8.862,2.68-15.8,5A32,32,0,0,1,139.213,166"/>
        <path id="パス_6742" data-name="パス 6742" class="cls-6" d="M81.15,90.519c13.424-6.929,41.552-9.061,48.811-10.847s16.342-4.418,23.2.767,41.865,10.588,55.347,14.245c11.152,3.026,41.509,14.541,50.626,17.054,9.506,2.621,12.329,7.817,12.992,17.755s8.793,12.843-3.032,17.755c-8.986,3.734-17.623,4.37-23.384,9.094s-19.732,9.367-26.789,7.668-11.416-13.164-16.083-18.061c-5.088-5.338-51.8-15.378-68.421-23.818-9.684-4.916-40.267-11.135-48.391-15.8S65.373,98.662,81.15,90.519"/>
        <path id="パス_6743" data-name="パス 6743" class="cls-3" d="M274.029,121.724a.654.654,0,0,1-.183-1.288c5.484-1.377,10.693-2.47,15.73-3.527,7.949-1.667,14.815-3.107,20.279-5.156a.654.654,0,0,1,.458,1.225c-5.556,2.083-12.466,3.533-20.469,5.212-5.024,1.053-10.22,2.143-15.679,3.515a.637.637,0,0,1-.136.019"/>
        <path id="パス_6744" data-name="パス 6744" class="cls-9" d="M145.744,81.766c-9.779-6.053-15.547-8.053-21.412-9.147-1.942-.362-6.819-2.892-10.485-2.088-4.391.964-5.393,2.9-11.074,3.486-2.719.277-6.093,5.8-5.906,10.323.16,3.889,3.427,7.165-1.246,8.32-3.369.833-5.284,5.918-1.307,10.561,3.752,4.382,9.324,3.09,18.134,3.117.976,0,1.866.02,2.692.044,4.029.739,8.183,1.275,11.175,1.517,7.165.578,21.669,2.083,27.157-5.58,1.856-2.591-2.136-17.092-7.728-20.553"/>
        <path id="パス_6745" data-name="パス 6745" class="cls-10" d="M112.135,106.061c2.636-5.006,2.749-18.642,4.034-20.219s3.918-2.322,5.641-5.405c1.349-2.416.822-4.367.465-7.171-.245-1.92-2.268.361-3.231-1.7-1.622-3.47-2.9-1.209-3.94-1.735-1.8-.908-2.279-1.207-3.029,1.388s-.57,4.4-.985,5.571c-.969,2.718-1.353,6.913-2.715,10.244a78.446,78.446,0,0,0-4.3,13.569c-1.275,6.229,5.421,10.463,8.057,5.458"/>
        <path id="パス_6746" data-name="パス 6746" class="cls-10" d="M91.71,104.241c-1.7-5.4.616-18.834-.366-20.613S87.9,80.644,86.757,77.3c-.9-2.617-.03-4.444.82-7.138.583-1.847,2.168.759,3.483-1.1,2.214-3.126,3.069-.674,4.186-1.006,1.93-.573,2.458-.781,2.733,1.906s-.224,4.436-.023,5.656c.468,2.849.1,7.045.845,10.565a78.4,78.4,0,0,1,1.81,14.118c.144,6.356-7.2,9.33-8.9,3.934"/>
        <path id="パス_6747" data-name="パス 6747" class="cls-10" d="M96.32,71.229a11.754,11.754,0,0,0,9.568,5.619,11,11,0,0,0,9.048-4.487,33.087,33.087,0,0,0,2.312-4.483c3.129-8.891,1.256-22.409-11.574-22.311-9.878.075-10.956,7.858-10.728,15.6.083,2.841-1,6.5,1.374,10.06"/>
        <path id="パス_6748" data-name="パス 6748" class="cls-7" d="M94.4,45.072A5.62,5.62,0,0,1,99.815,43c3.237.274,7.674.767,9.383-.669s4.5-1.916,5.877-1.322,3.419,3.8,3.461,5.658a3.381,3.381,0,0,0,3.243,3.427c1.853.051,3.758,1.587,3.805,3.257s-.125,4.54-1.455,5.709-3.139,2.881-2.807,4.281.984,4.663-.611,5.361-4.926.42-5.341-1.353-1.138-2.442-2.056-2.745-2.032-3.672-2.254-5.718-3.038-4.15-4.89-4.254-5.222,1.1-7.716.755-5.019-2.92-5.246-4.781a6.962,6.962,0,0,1,1.2-5.53"/>
        <path id="パス_6749" data-name="パス 6749" class="cls-10" d="M195.215,49.429c-1.49-2.71-2.079-2.081-3.737-.709a40.267,40.267,0,0,0-4.9,4.3c-1.456,1.9-5.693,10.888-7.328,13.617s-2.545,6.867-4.522,7.907-6.672,4.136-12.263,8.118c-4.247,3.026-7.22,4.594-6.756,5.635.51,1.422,5.006,7.759,7.276,8.136s11.323-6.668,14.5-9.711a20.688,20.688,0,0,0,4.976-6.478c.69-1.72,5.7-19.279,7.3-22.667a11.605,11.605,0,0,1,2.572-3.563c1.967-1.754,3.94-2.664,2.882-4.589"/>
        <path id="パス_6750" data-name="パス 6750" class="cls-10" d="M199.083,66.13c-2.074,1.2-7.264,11.266-9.152,13.826s-2.276,3.06-4.342,3.906a114.875,114.875,0,0,1-15.337,4.071c-5.133.918-6.841,3.335-6.478,4.416.372,1.464,2.347,9.18,4.57,9.772s15.34-5.927,18.892-6.869,4.249-1.3,5.1-2.942,8.908-18.158,9.429-21.865c.4-2.869,4.361-3.385,4.915-5.73,1.038-4.388-6.216.617-7.6,1.415"/>
        <path id="パス_6751" data-name="パス 6751" class="cls-8" d="M140.424,78.521c.258-1.784,12.868-1.827,19.656.746,6.071,2.3,10.4-6.823,12.34-2.945.929,1.86,4.227,6.744,4.881,7.7.375.546,1.768-.843,2.418.45.97,1.927,1,2.123,3.553,9.714.964,2.861,1.475,5.515-2.983,7.068s-7.584,2.652-11.382,4.2c-3.871,1.573-16.567,1.594-19.465.969-2.213-.478-2.828-6.327-3.3-13.067-.371-5.311-5.849-13.928-5.719-14.829"/>
        <path id="パス_6752" data-name="パス 6752" class="cls-8" d="M183.841,57.657c.485,1.638,3.757,3.272,4.792,2.62,3.186-2.008,3.043-8.011,7.876-8.52,3.91-.413,6.017-5.779,4.964-7.368-2.1-3.176-9.9-1.293-12.454,2.307-3.078,4.331-5.858,8.664-5.178,10.961"/>
        <path id="パス_6753" data-name="パス 6753" class="cls-8" d="M196.322,67.965c-.636,1.427,5.1,5.051,5.637,4.151,1.931-3.236,7.714-6,9.431-7.178,2.982-2.046,9.174-1.221,9.519-3.755.554-4.068-13.686-7.744-16.271-2.99s-7.437,7.8-8.316,9.772"/>
        <path id="パス_6754" data-name="パス 6754" class="cls-7" d="M166.017,87.156a3.957,3.957,0,0,1-.818-.144A4.077,4.077,0,0,1,163.533,86a2.951,2.951,0,0,0-1.77-.9.369.369,0,0,1-.313-.417.36.36,0,0,1,.418-.314,3.689,3.689,0,0,1,2.157,1.082,3.368,3.368,0,0,0,1.385.853c1.4.415,4.082-.256,5.526-.617l.327-.081a.369.369,0,0,1,.176.717l-.324.08a17.891,17.891,0,0,1-5.1.752"/>
        <path id="パス_6755" data-name="パス 6755" class="cls-7" d="M164.135,83.647a.37.37,0,0,1-.313-.229,7.2,7.2,0,0,1-.287-.878,2.283,2.283,0,0,0-.545-1.09.369.369,0,1,1,.561-.479,3.008,3.008,0,0,1,.7,1.375,6.708,6.708,0,0,0,.259.794.369.369,0,0,1-.2.481.364.364,0,0,1-.168.026"/>
        <path id="パス_6756" data-name="パス 6756" class="cls-10" d="M267.192,59.577c2.7-.279,3.245-7.9,1.569-8.936a4.376,4.376,0,0,1-1.074-3.019,21.546,21.546,0,0,1-.2-2.238c-.336-.051-3.683-.67-4.1-.769a14.732,14.732,0,0,1-1.2,2.8,4.546,4.546,0,0,1-1.426,1.663c-1.371.618-4.894,6.609-.692,9.415.062.041,4.592,1.343,7.123,1.082"/>
        <path id="パス_6757" data-name="パス 6757" class="cls-9" d="M248.061,86.764c-2.473-1.035-7.434,3.046-10.594,7.878-2.823,3.669-5.576,6.219-11.815,12.629-1.51,1.551.749,5.009,7.944,5.093,5.839.068,5.7-12.222,19.759-9.982,5.8.925,10.41,11.4,14.87,12.222,5.5,1.019,3.118-2.5,9.574-1.222,2.712.572,3.667,5.3,13.241,2.852,3.978-1.016-4.066-4.668-4.685-13.037-.815-11-5.093-13.24-8.963-17.314-4.664-4.909-19.042,3.557-29.331.881"/>
        <path id="パス_6758" data-name="パス 6758" class="cls-7" d="M273.3,26.292c1.177-.718,3.2-2.412,4.524-2.835A7.128,7.128,0,0,1,282.052,23c2.274.675,3.276,1.35,4,2.55.641,1.067.611,4.463-.382,6.326-1.007,2.588.256,4.194,1.106,5.28,1.205,1.543,4.2,2.536,3.269,3.532-2.719,2.917-4.882,2.449-6.719,1.08-5.915-4.409.761-8.5-2.752-11.388s-4.122-2.5-7.271-4.088"/>
        <path id="パス_6759" data-name="パス 6759" class="cls-10" d="M256.483,43.446a10.272,10.272,0,0,0,8.211,5.163,9.617,9.617,0,0,0,8.025-3.68,28.974,28.974,0,0,0,2.139-3.856c2.969-7.686,1.691-19.547-9.522-19.8-8.633-.2-9.781,6.575-9.787,13.347,0,2.485-1.046,5.656.934,8.827"/>
        <path id="パス_6760" data-name="パス 6760" class="cls-7" d="M271.842,22.111c-2.114-1.39-6.651-2.077-10.226-.913s-4.72,2.065-5.5,3.619-2.418,1.033-3.44,2.261-.362,4.085.931,5.051,3.834.533,5.408-.963c1.829-1.738,3.324-2.285,5.3-1.882s2.119,1.721,3.183,2.8,1.938.24,3.912.314,2.445,7.736,3.314,8.282c.924.581.951-1.473,1.852-2.906,2.252-3.582,1.55-8.192.7-10.375s-4.031-4.764-5.433-5.288"/>
        <path id="パス_6761" data-name="パス 6761" class="cls-10" d="M274.447,62.3c1.732-2.456,22.123-23.757,23.6-24.745s8.57-5.658,9.387-6.472,1.284-1.852.694-2.477c-.382-.4-1.124.3-1.325.168-.171-.164.293-.554.5-1.118.453-1.22.947-1.841-.253-2.231s-2.049-.274-2.021-1.1,2.117-1.78,1.447-2.666-1.911-.044-3.04.494a37.325,37.325,0,0,0-4.441,3.606,11.774,11.774,0,0,1-1.708,1.058c-.689.3-.941-1.393-1.9-1.364s-2.4,7.624-2.851,8.87c-.109.3-24.57,20.139-25.332,21.434-.938,1.593,7.165,6.652,7.245,6.539"/>
        <path id="パス_6762" data-name="パス 6762" class="cls-10" d="M251.049,59.178c-1.115-2.79-16.009-28.241-17.213-29.544s-7.024-7.491-7.63-8.472-.82-2.1-.1-2.571c.464-.3,1.022.556,1.249.471.2-.12-.156-.607-.229-1.2-.157-1.29-.494-2.009.764-2.11s2.056.208,2.22-.6-1.647-2.223-.789-2.929,1.869.4,2.843,1.185a37.358,37.358,0,0,1,3.482,4.539,11.74,11.74,0,0,0,1.417,1.425c.6.454,1.238-1.137,2.165-.886s.567,7.972.716,9.289c.037.318,19.228,25.289,19.669,26.726.543,1.768-8.513,4.808-8.564,4.68"/>
        <path id="パス_6763" data-name="パス 6763" class="cls-8" d="M279.454,46.322c-2.393-2.135-3.631-.421-9.377,3.084a9.326,9.326,0,0,1-6.183,1.4c-2.216-.3-3.669-2.446-5.259-3.135s-3.138-2.309-6.492-6.728c-2.466-3.249-2.9-3.243-8.09-.439-3.3,1.784-4.74,1.455-1.757,6.472,1.368,2.3,6.2,7.4,5.866,12.26-.584,8.431-3.148,13.26-4.065,19.5-.42,2.862-2.148,5.814,1.608,7.941,1.983,1.123,9.005,1.853,12.873,2.127,2.672.489,7.918,1.881,11.573,1.843,3.845-.04,9.3.251,10.386-1.786,1.4-2.637-3.419-5.351-4.67-10.747-1.671-7.206-.732-13.189.954-16.167,2.123-3.75,5.288-4.666,7.41-6.541,4.373-3.866.908-4.01-4.777-9.082"/>
        <path id="パス_6764" data-name="パス 6764" class="cls-10" d="M251.929,109.207c2.592-4.069,5.032-7.715,4.383-11.781-.3-1.9-6.216-11.543-14.874-.135-3.43,4.52-4.453,15.56-6.009,24.851-.95,5.025,1.019,3.972,2.139,4.278,1.1.3,3.851-.268,4.685-1.935a120.973,120.973,0,0,1,9.676-15.278"/>
        <path id="パス_6765" data-name="パス 6765" class="cls-8" d="M234.505,123.494c-.712,3.657.313,7.166-3.154,9.621a58.668,58.668,0,0,0-8.254,7.95c-2.915,3.543-1.553,7.7.474,7.449,2.483-.31,6.083-3.887,9.419-5.912,3.184-1.933,4.846-4.321,4.709-7.966,1.226-4.507,3.842-7.564,6.3-11.719,1.495-2.525-8.024-8.4-8.515-5.019-.321,2.208-.7,4.127-.982,5.6"/>
        <path id="パス_6766" data-name="パス 6766" class="cls-10" d="M266.469,110.414c.651-4,.709-6.87-1.039-10.412-.815-1.652-8.7-10.624-13.58,2.416-2.214,5.914,1.034,23.259,2.051,31.12.391,3.022,4.548,2.212,5.641-.584a47.247,47.247,0,0,0,2.334-7.975c1.07-4.668,4.563-14.544,4.593-14.565"/>
        <path id="パス_6767" data-name="パス 6767" class="cls-8" d="M252.9,130.035c.555,2.128,1.171,5.347-.171,7.944-1.754,3.395-4.013,9.675-3.366,13.574.751,4.529,2.452,6.152,4.36,5.328,2.339-1.009,3.995-4.317,4.074-8.221a9.23,9.23,0,0,1,1.7-4.807,9.666,9.666,0,0,0-.107-6.239c-.081-3.029,1.564-5.908,2.221-9.259s-9.676-4.329-9.37-2.513c.043.377.356,3.022.662,4.193"/>
        <path id="パス_6768" data-name="パス 6768" class="cls-3" d="M414.689,145.647c.181-8.915,1.318-19.94,1.318-27,0-8.218.32-16.724.376-18.783.189-6.9-2.07-7.191-12.99-9.1-9.313-1.627-13.683-2.084-17.131-2.2-4.33-.147-11.861,1.761-16.379,3.228-2.69.874-8.564,2.687-12.237,4.109-.87.337-4.028,1.434-4.142,3.229-.156,2.463-.226,9.852-.317,13.45-.2,7.54-.307,17.51-.434,32.339-.036,6.3.434,10.176,3.928,11.986a71.757,71.757,0,0,0,9.667,3.186c1.72.481,3.549.986,5.377,1.444,6.463,1.627,12.61,3.241,15.1,3.338,3.765.147,6.025-1.174,12.614-4.4,2.062-1.011,8.126-5.537,10.354-7.191,3.45-2.561,4.823-3.987,4.895-7.631"/>
        <path id="パス_6769" data-name="パス 6769" class="cls-4" d="M389.57,104.129a7.683,7.683,0,0,1-.814-.042c-2.285-.248-11.765-1.733-27.416-4.3-.184-.03-.3-.171-.263-.315a.349.349,0,0,1,.4-.2c15.636,2.56,25.1,4.043,27.37,4.289,3.244.35,8.079-1.771,13.614-4.367a.4.4,0,0,1,.468.091.236.236,0,0,1-.116.365c-5.219,2.447-9.847,4.48-13.246,4.48"/>
        <path id="パス_6770" data-name="パス 6770" class="cls-4" d="M389.226,160.771h-.005a.307.307,0,0,1-.336-.27c.047-2.354.288-8.493.566-15.6.556-14.163,1.316-33.56,1.129-37.877a.3.3,0,0,1,.33-.274.321.321,0,0,1,.352.256c.188,4.334-.573,23.741-1.128,37.912-.279,7.1-.519,13.241-.567,15.591a.311.311,0,0,1-.341.262"/>
        <path id="パス_6771" data-name="パス 6771" class="cls-4" d="M386.5,125.922a.341.341,0,0,1-.064,0c-3.167-.365-18.423-2.845-29.839-4.984a.329.329,0,0,1-.253-.381.309.309,0,0,1,.358-.265c11.4,2.136,26.639,4.613,29.8,4.977a.326.326,0,0,1,.276.362.317.317,0,0,1-.276.291"/>
        <path id="パス_6772" data-name="パス 6772" class="cls-4" d="M385.9,139.514a.342.342,0,0,1-.064,0c-2.08-.24-8.368-1.465-15.649-2.885-4.192-.817-8.528-1.662-12.575-2.421a.328.328,0,0,1-.253-.38.31.31,0,0,1,.358-.266c4.05.759,8.386,1.6,12.579,2.422,7.269,1.417,13.547,2.641,15.6,2.877a.326.326,0,0,1,.276.362.317.317,0,0,1-.276.291"/>
        <path id="パス_6773" data-name="パス 6773" class="cls-4" d="M365.395,122.966a37.278,37.278,0,0,0,10.576,2.1c1.352.033,1.538-.04,1.552.474s.154,1.007-2.026.953a26.717,26.717,0,0,1-7.6-1.087,9.063,9.063,0,0,1-2.53-1.027c-.7-.737-.32-1.572.025-1.415"/>
        <path id="パス_6774" data-name="パス 6774" class="cls-4" d="M365.245,136.789a37.279,37.279,0,0,0,10.576,2.1c1.352.033,1.538-.04,1.552.474s.154,1.007-2.026.953a26.754,26.754,0,0,1-7.6-1.087,9.063,9.063,0,0,1-2.53-1.027c-.7-.737-.32-1.572.025-1.415"/>
        <path id="パス_6775" data-name="パス 6775" class="cls-5" d="M394.257,52.969c-.054,1.164-4.385,1.907-9.672,1.66s-9.53-1.39-9.475-2.554,4.384-1.907,9.672-1.66,9.529,1.39,9.475,2.554"/>
        <rect id="長方形_671" data-name="長方形 671" class="cls-6" width="32.263" height="2.12" transform="translate(383.201 92.019) rotate(-89.135)"/>
        <path id="パス_6776" data-name="パス 6776" class="cls-5" d="M375.24,51.805c-.34.448-1.354,5.686-2.045,9.27s-2.883,10.718-.787,10.455c2.385-.3,3.657.62,5.962.5,2.673-.142,3.776.944,7.006,1.044,1.97.06,4.424-.658,5.664-.7a27.972,27.972,0,0,1,5.118.548c1.607.269,1.374-1.173.845-3.975-.509-2.695-2.087-15.155-2.783-16.2-.511-.767-4.973-1.306-7.994-1.321s-9.893-1.064-10.986.377"/>
        <path id="パス_6777" data-name="パス 6777" class="cls-6" d="M392.814,92.349c-.076,1.919-3.917,3.325-8.578,3.139s-8.379-1.892-8.3-3.811,3.916-3.325,8.578-3.139,8.377,1.892,8.3,3.811"/>
        <path id="パス_6778" data-name="パス 6778" class="cls-6" d="M387.254,55a48.48,48.48,0,0,1-9.912-1.023.36.36,0,1,1,.169-.7c3.129.758,11.365,1.588,15.314.4a.36.36,0,1,1,.207.69,21.425,21.425,0,0,1-5.778.63"/>
        <path id="パス_6779" data-name="パス 6779" class="cls-6" d="M392.631,67a.36.36,0,0,1-.36-.36c0-1.5-.473-4.986-.817-7.532-.108-.792-.205-1.506-.274-2.063a.359.359,0,0,1,.312-.4.35.35,0,0,1,.4.313c.069.555.166,1.266.273,2.056.347,2.565.823,6.079.823,7.628a.36.36,0,0,1-.36.36"/>
        <path id="パス_6780" data-name="パス 6780" class="cls-6" d="M383.986,67.8a.36.36,0,0,1-.36-.36c0-.673.058-2.178.126-3.921.08-2.091.171-4.461.171-5.719a.361.361,0,0,1,.721,0c0,1.272-.092,3.649-.173,5.746-.064,1.664-.125,3.235-.125,3.894a.36.36,0,0,1-.36.36"/>
        <path id="パス_6781" data-name="パス 6781" class="cls-6" d="M376.334,67.8h-.025a.36.36,0,0,1-.334-.385c.1-1.451.815-7.488,1.395-11.062a.353.353,0,0,1,.413-.3.36.36,0,0,1,.3.413c-.577,3.557-1.284,9.558-1.388,11a.359.359,0,0,1-.359.334"/>
        <path id="パス_6782" data-name="パス 6782" class="cls-5" d="M384.806,94.709c-.629,0-1.3-.027-1.992-.08a.362.362,0,0,1-.332-.387.351.351,0,0,1,.387-.332,17.266,17.266,0,0,0,5.4-.288,7.757,7.757,0,0,0,3.385-1.567.36.36,0,0,1,.559.454c-.86,1.06-3.474,1.738-3.769,1.812a15.175,15.175,0,0,1-3.639.388"/>
      </g>
    </g>
    <g id="グループ_694" data-name="グループ 694" transform="matrix(0.891, -0.454, 0.454, 0.891, -1799.759, 5576.458)">
      <g id="グループ_693" data-name="グループ 693" class="cls-11">
        <path id="パス_6794" data-name="パス 6794" class="cls-12" d="M11.78,11.565c-1.266-1.484-.2-5.987-3.2-6.772-1.821,2.8-1.142,16.822-6.467,15.893-3.764-.657-2.356-10.679,3.167-8.836C6.7,8.488,6.806,3.53,8.128.041c6.955-.736,7.789,8.623,3.652,11.524M8.71,3.333c2.555.391,2.805,2.7,4.03,4.2.553-3.427-.789-5.274-3.577-5.922.129.911-.4,1.036-.453,1.724M2.243,19.226C4.578,18.811,5,15.792,4.851,13.283c-3.108-.8-4.131,4.165-2.608,5.943"/>
        <path id="パス_6795" data-name="パス 6795" class="cls-12" d="M144.337,14.041c2.448.93,4.637,2.077,8.043,2.211.308,2.432-2.8,2.468-2.155,4.219-4.911,2.137-3.008,10.459-8.986,11.245a.807.807,0,0,0-.822-.665c-.483-.677,0-2.157,0-3.239,3.382-3.282,7.191-6.05,9.779-10.288a37.829,37.829,0,0,1-4.883-1.334c-2.138,2.921-4.861,7.793-8.052,10.744-1.731,1.6-2.514,2.855-5.736,1.533-.554-4.192,2.915-6.171,7.276-5.513,2.365-2.349,3.936-5.647,5.532-8.913M132.8,27.406c1.934.775,4.658-1.639,4.435-3.419-1.832.715-4.177.813-4.435,3.419m8.863,2.876c1.832-.009,3.455-3.553,2.764-4.456-1.032,1.39-3.342,2.1-2.764,4.456"/>
        <path id="パス_6796" data-name="パス 6796" class="cls-12" d="M31.5,14.851l.877.081c1.721,2.2,2.8,5.395,3.628,8.577.806,3.1,2.544,6.343,1.821,9-3.277-4.555-2.7-12.312-6.433-16.489a.8.8,0,0,1,.107-1.168"/>
        <path id="パス_6797" data-name="パス 6797" class="cls-12" d="M49.757,18c.345-.016.514.113.558.346,1.06,1.639.862,4.266.868,6.557.012,4.154-.484,8.915.013,12.661,2.216-2.067,4.058-7.945,7.467-7.557,6.011.685-2.515,15.37-4.768,16.638.183-3.275,3.206-6.844,4.789-10.453.616-1.4,1.7-3.5.111-4.406-4.71,1.254-5.669,7.018-8.346,10.714-1.627-1.262-.682-3.677-.684-5.362-.015-5.591-.385-11.7.2-18.235-.338-.079-.2-.555-.212-.9"/>
        <path id="パス_6798" data-name="パス 6798" class="cls-12" d="M20.1,20.28l.583.054c4.522,1.573,7.119,5.39,10.106,8.585,1.589,1.7,4.3,3.019,4.48,5.71-3.071-.963-4.689-4.475-7.028-6.828A33.747,33.747,0,0,0,20,21.448c-.434-.625.061-.368.107-1.168"/>
        <path id="パス_6799" data-name="パス 6799" class="cls-12" d="M124.646,36.077c.043,1.453-1.162,1.652-2.55,2.121a74.715,74.715,0,0,0-10.791,11.668c-1.809.31-1.737,2.883-4.062,2.571.474-2.535,3.167-3.806,4.942-5.728,3.542-3.835,6.372-8.706,11.32-11.031.622-.068.754.271,1.141.4"/>
        <path id="パス_6800" data-name="パス 6800" class="cls-12" d="M133.372,40.413c.342.7-.852,1.028-.107,1.168-2.224.868-4.333,1.233-6.4,2.356-3.007,1.634-5.5,4.548-8.685,4.794a26.918,26.918,0,0,1,15.191-8.318"/>
        <path id="パス_6801" data-name="パス 6801" class="cls-12" d="M104.071,38.9c.249.153.5.3.531.637-.736,3.577-3.364,6.181-5.239,8.94-1.756,2.585-3.234,6.391-6.565,7.346,1.159-3.254,3.8-4.724,5.133-7.772-.711-3.468-4.366-5.879-4.158-9.215,2.894,1.548,3.453,5.035,5.193,7.544,2.241-1.847,3.3-5.11,5.1-7.48"/>
        <path id="パス_6802" data-name="パス 6802" class="cls-12" d="M68.054,36.761c-.377,3.641.623,7.569.227,10.327-1.655.027-1.083-1.8-1.511-2.791-1.351-.106-2.371,2.981-5.468,1.854-2.222-4.479.5-11.139,6.752-9.39m-6.035,7.983c3.635.623,4.576-3.477,4.149-6.684-3.555-.467-4.7,3.245-4.149,6.684"/>
        <path id="パス_6803" data-name="パス 6803" class="cls-12" d="M89.065,48.41c-.706.321-2.363-.429-3.158-.88-.525,2.87-.1,4.872-.964,7.272-1.883-.9-1.067-4.1-.87-6.556.208-2.572.545-5.672.752-8.175,1.03-.138,1.258.391,1.38,1.01,3.668-6.432,7.565,4.95,2.86,7.329m-2.706-2.6a5.857,5.857,0,0,0,2.229,1.383c1.341-1.426,1.934-5.788.032-6.768a8.183,8.183,0,0,0-2.261,5.385"/>
        <path id="パス_6804" data-name="パス 6804" class="cls-12" d="M78.694,39.507c4.706,2.048,1.16,12.254-4.044,8.755-1.421,1.427-.315,5.89-2.9,5.915a53.86,53.86,0,0,1,3.307-13.533c.674-.02,1.091.172,1.113.691.768-.7,1.088-1.933,2.524-1.828M75.9,47.494c3.665.709,4.981-5.183,2.369-6.554-.807,2.028-3.728,3.964-2.369,6.554"/>
      </g>
    </g>
  </g>
</svg>
