<svg xmlns="http://www.w3.org/2000/svg" xmlns:xlink="http://www.w3.org/1999/xlink" width="394.288" height="358.274" viewBox="0 0 394.288 358.274">
  <defs>
    <style>
      .cls-1 {
        fill: none;
      }

      .cls-2 {
        fill: #306e1d;
      }

      .cls-3, .cls-8 {
        fill: #fce952;
      }

      .cls-4 {
        fill: #edbc32;
      }

      .cls-10, .cls-5 {
        fill: #282828;
      }

      .cls-6 {
        fill: #739f66;
      }

      .cls-10, .cls-6, .cls-7, .cls-8, .cls-9 {
        fill-rule: evenodd;
      }

      .cls-7 {
        fill: #fff;
      }

      .cls-9 {
        fill: #a4cced;
      }

      .cls-11 {
        clip-path: url(#clip-path);
      }
    </style>
    <clipPath id="clip-path">
      <rect id="長方形_689" data-name="長方形 689" class="cls-1" width="53.56" height="63.5" transform="translate(0 0)"/>
    </clipPath>
  </defs>
  <g id="グループ_1001" data-name="グループ 1001" transform="translate(1771.144 -3829.361)">
    <path id="パス_8630" data-name="パス 8630" class="cls-2" d="M12.312-11.124A8.949,8.949,0,0,0,8.5-9.072,3.956,3.956,0,0,0,7.2-6.228a3.4,3.4,0,0,0,1.134,2.5,3.49,3.49,0,0,0,2.466,1.1,1.846,1.846,0,0,0,1.422-.432A2.538,2.538,0,0,0,12.6-4.68v-6.228Q12.6-11.2,12.312-11.124ZM11.268,1.44A8.949,8.949,0,0,1,5.148-.774a6.979,6.979,0,0,1-2.52-5.454,7.754,7.754,0,0,1,2.538-5.616,15.11,15.11,0,0,1,7.146-3.672.362.362,0,0,0,.288-.4v-4.536a.286.286,0,0,0-.324-.324H6.12a1.839,1.839,0,0,1-1.35-.558,1.839,1.839,0,0,1-.558-1.35,1.839,1.839,0,0,1,.558-1.35,1.839,1.839,0,0,1,1.35-.558h6.156a.286.286,0,0,0,.324-.324V-27a1.97,1.97,0,0,1,.612-1.44,1.97,1.97,0,0,1,1.44-.612h.468a1.97,1.97,0,0,1,1.44.612A1.97,1.97,0,0,1,17.172-27v2.088q0,.324.288.324h5.688a1.9,1.9,0,0,1,1.368.558,1.81,1.81,0,0,1,.576,1.35,1.81,1.81,0,0,1-.576,1.35,1.9,1.9,0,0,1-1.368.558H17.46q-.288,0-.288.324v3.888q0,.288.324.288.576-.036,1.836-.036a13.87,13.87,0,0,1,8.6,2.484,7.35,7.35,0,0,1,3.276,6.012q0,7.668-8.28,9.4a2,2,0,0,1-1.584-.306,2.222,2.222,0,0,1-.936-1.35L20.376-.18a1.841,1.841,0,0,1,.27-1.476,1.955,1.955,0,0,1,1.242-.864,6.719,6.719,0,0,0,3.528-1.818A4.637,4.637,0,0,0,26.532-7.56a3.746,3.746,0,0,0-1.962-3.114,9.277,9.277,0,0,0-5.238-1.314q-1.26,0-1.836.036a.286.286,0,0,0-.324.324v7.2q0,3.312-1.3,4.59T11.268,1.44ZM30.6-24.444q1.944,2.628,3.384,4.932a1.861,1.861,0,0,1,.234,1.494,1.832,1.832,0,0,1-.882,1.206,2.018,2.018,0,0,1-1.512.2A1.957,1.957,0,0,1,30.6-17.5q-1.728-2.7-3.168-4.68a1.93,1.93,0,0,1-.36-1.44,1.793,1.793,0,0,1,.756-1.26,2.01,2.01,0,0,1,1.494-.342A1.868,1.868,0,0,1,30.6-24.444Zm17.46,3.492v-.108a2.192,2.192,0,0,1,.18-1.6,2.105,2.105,0,0,1,1.188-1.062A80.973,80.973,0,0,0,60.12-28.692,7.626,7.626,0,0,1,63.9-29.7h1.8a7.692,7.692,0,0,1,3.816,1.008,77.758,77.758,0,0,0,10.62,4.968,2.1,2.1,0,0,1,1.224,1.062,2.192,2.192,0,0,1,.18,1.6v.108a1.754,1.754,0,0,1-.936,1.188,1.842,1.842,0,0,1-1.512.072q-.72-.252-2.088-.828-.252-.072-.252.18V-9.252q0,.144.144.072a1.478,1.478,0,0,1,1.026-.342,1.407,1.407,0,0,1,.99.414l.432.432A1.807,1.807,0,0,1,79.9-7.308a1.655,1.655,0,0,1-.63,1.3A51.9,51.9,0,0,1,74.88-2.736a.171.171,0,0,0-.054.162.168.168,0,0,0,.09.126A42.3,42.3,0,0,0,79.272-.972a1.569,1.569,0,0,1,1.026.9A1.491,1.491,0,0,1,80.244,1.3l-.036.108a2.817,2.817,0,0,1-1.332,1.17,2.467,2.467,0,0,1-1.728.126A30.161,30.161,0,0,1,67.1-2.088q-.216-.144-.216.108L67-.936a2.11,2.11,0,0,1-.45,1.53,2.145,2.145,0,0,1-1.386.81Q58.248,2.448,51.012,2.952a2.018,2.018,0,0,1-1.422-.486,1.9,1.9,0,0,1-.7-1.35A1.807,1.807,0,0,1,49.32-.27a1.888,1.888,0,0,1,1.332-.666q.252,0,.828-.036t.828-.072q.324,0,.324-.36V-20.232q0-.252-.252-.18-.324.108-.936.36t-.936.36A1.842,1.842,0,0,1,49-19.764,1.754,1.754,0,0,1,48.06-20.952ZM66.132-2.592a.085.085,0,0,0,.09-.072.15.15,0,0,0-.054-.144,20.88,20.88,0,0,1-4.536-5,.537.537,0,0,0-.468-.288h-3.42a.286.286,0,0,0-.324.324V-1.8q0,.252.288.252Q61.6-1.944,66.132-2.592ZM57.744-11.52h13.9q.288,0,.288-.324v-1.62a.255.255,0,0,0-.288-.288h-13.9q-.324,0-.324.288v1.62A.286.286,0,0,0,57.744-11.52Zm-.324-5.688q0,.288.324.288h13.9a.255.255,0,0,0,.288-.288v-1.44a.255.255,0,0,0-.288-.288h-13.9q-.324,0-.324.288ZM75.312-7.92q.072-.072.036-.126A.121.121,0,0,0,75.24-8.1H66.78q-.072,0-.108.09a.191.191,0,0,0,0,.162,16.619,16.619,0,0,0,3.6,3.024.421.421,0,0,0,.54.036Q73.008-6.156,75.312-7.92Zm-10.8-18.756A64.892,64.892,0,0,1,57.06-22.5a.1.1,0,0,0-.036.072q0,.036.072.036h5.112q.324,0,.324-.288v-.612a1.94,1.94,0,0,1,.594-1.422,1.94,1.94,0,0,1,1.422-.594h.5a1.94,1.94,0,0,1,1.422.594,1.94,1.94,0,0,1,.594,1.422v.612q0,.288.324.288H72.5q.072,0,.072-.036a.1.1,0,0,0-.036-.072,64.892,64.892,0,0,1-7.452-4.176A.506.506,0,0,0,64.512-26.676Zm32.22,20.2a1.625,1.625,0,0,1-1.188-.5,1.625,1.625,0,0,1-.5-1.188,1.666,1.666,0,0,1,.5-1.224,1.625,1.625,0,0,1,1.188-.5H108.72a.255.255,0,0,0,.288-.288v-.828q0-.324-.288-.324H97.92a1.494,1.494,0,0,1-1.1-.45,1.494,1.494,0,0,1-.45-1.1,1.494,1.494,0,0,1,.45-1.1,1.494,1.494,0,0,1,1.1-.45h10.8q.288,0,.288-.324v-.576q0-.324-.288-.324H99.648a1.912,1.912,0,0,1-1.422-.612,2,2,0,0,1-.594-1.44V-20.88a2,2,0,0,1,.594-1.44,1.912,1.912,0,0,1,1.422-.612h9.072a.255.255,0,0,0,.288-.288v-.612a.255.255,0,0,0-.288-.288H97.164a1.7,1.7,0,0,1-1.242-.522,1.7,1.7,0,0,1-.522-1.242,1.7,1.7,0,0,1,.522-1.242,1.7,1.7,0,0,1,1.242-.522h11.592q.252,0,.252-.288a1.78,1.78,0,0,1,.558-1.332,1.87,1.87,0,0,1,1.35-.54h1.4a1.81,1.81,0,0,1,1.332.54,1.81,1.81,0,0,1,.54,1.332.255.255,0,0,0,.288.288h11.556a1.7,1.7,0,0,1,1.242.522,1.7,1.7,0,0,1,.522,1.242,1.7,1.7,0,0,1-.522,1.242,1.7,1.7,0,0,1-1.242.522H114.48a.255.255,0,0,0-.288.288v.612a.255.255,0,0,0,.288.288h9.072a1.912,1.912,0,0,1,1.422.612,2,2,0,0,1,.594,1.44v3.168a2,2,0,0,1-.594,1.44,1.912,1.912,0,0,1-1.422.612H114.48q-.288,0-.288.324v.576q0,.324.288.324h9.468a2,2,0,0,1,1.44.594A1.912,1.912,0,0,1,126-12.42v2.268q0,.252.288.252h.18a1.625,1.625,0,0,1,1.188.5,1.666,1.666,0,0,1,.5,1.224,1.625,1.625,0,0,1-.5,1.188,1.625,1.625,0,0,1-1.188.5h-.18q-.288,0-.288.252V-2.34a1.912,1.912,0,0,1-.612,1.422,2,2,0,0,1-1.44.594h-1.224a1.334,1.334,0,0,1-1.008-.414,1.382,1.382,0,0,1-.4-.99.191.191,0,0,0-.216-.216H114.48a.255.255,0,0,0-.288.288q0,1.224-.054,1.944a4.326,4.326,0,0,1-.306,1.332,2.3,2.3,0,0,1-.594.9,2.834,2.834,0,0,1-1.062.486,7.813,7.813,0,0,1-1.584.252q-.864.054-2.3.054-.792,0-3.6-.108a1.808,1.808,0,0,1-1.278-.594,2.008,2.008,0,0,1-.558-1.314,1.553,1.553,0,0,1,.5-1.242,1.631,1.631,0,0,1,1.26-.486q1.4.072,3.1.072a3.12,3.12,0,0,0,1.134-.108q.162-.108.162-.792v-.36q0-.324-.288-.324H97.884a1.452,1.452,0,0,1-1.062-.45,1.452,1.452,0,0,1-.45-1.062,1.452,1.452,0,0,1,.45-1.062,1.452,1.452,0,0,1,1.062-.45H108.72q.288,0,.288-.324v-.9a.255.255,0,0,0-.288-.288Zm17.46-13.212v1.044a.255.255,0,0,0,.288.288h6.12a.255.255,0,0,0,.288-.288v-1.044a.255.255,0,0,0-.288-.288h-6.12A.255.255,0,0,0,114.192-19.692Zm0,8.676v.828a.255.255,0,0,0,.288.288h6.552a.255.255,0,0,0,.288-.288v-.828q0-.324-.288-.324H114.48Q114.192-11.34,114.192-11.016Zm0,4.824v.9q0,.324.288.324h6.552q.288,0,.288-.324v-.9a.255.255,0,0,0-.288-.288H114.48A.255.255,0,0,0,114.192-6.192ZM108.72-18.36a.255.255,0,0,0,.288-.288v-1.044a.255.255,0,0,0-.288-.288H102.6a.255.255,0,0,0-.288.288v1.044a.255.255,0,0,0,.288.288Z" transform="translate(-1637.5 4075.554)"/>
    <g id="グループ_697" data-name="グループ 697" transform="translate(-2414 2228.216)">
      <g id="グループ_671" data-name="グループ 671" transform="translate(642.856 1601.144)">
        <g id="グループ_673" data-name="グループ 673">
          <path id="パス_6522" data-name="パス 6522" class="cls-3" d="M104.636,227.127a790.639,790.639,0,0,0-92.069,16.416q4.016-14.561,8.531-29.1Q10.782,202.7,0,191.2a844.32,844.32,0,0,1,98.337-17.533q3.15,26.731,6.3,53.464"/>
          <path id="パス_6523" data-name="パス 6523" class="cls-4" d="M104.636,227.127Q77.829,216.972,49.509,208.7q-4.863-26.475-9.727-52.948,30.012,7.929,58.555,17.908,3.15,26.731,6.3,53.464"/>
          <path id="パス_6524" data-name="パス 6524" class="cls-3" d="M289.652,227.127a790.639,790.639,0,0,1,92.069,16.416q-4.016-14.561-8.531-29.1,10.314-11.75,21.1-23.249a844.319,844.319,0,0,0-98.337-17.533q-3.15,26.731-6.3,53.464"/>
          <path id="パス_6525" data-name="パス 6525" class="cls-4" d="M289.652,227.127q26.807-10.155,55.127-18.424l9.726-52.948q-30.011,7.929-58.554,17.908-3.15,26.731-6.3,53.464"/>
          <path id="パス_6526" data-name="パス 6526" class="cls-3" d="M344.779,208.7a817.133,817.133,0,0,0-295.269,0q-4.863-26.474-9.727-52.948a870.94,870.94,0,0,1,314.723,0q-4.865,26.474-9.727,52.948"/>
          <path id="パス_6527" data-name="パス 6527" class="cls-5" d="M36.312,107.207a1.937,1.937,0,0,1-.57-.086l-8.907-2.706a1.965,1.965,0,1,1,1.14-3.761l8.906,2.707a1.965,1.965,0,0,1-.569,3.846"/>
          <path id="パス_6528" data-name="パス 6528" class="cls-5" d="M77.446,119.706a1.9,1.9,0,0,1-.573-.084L42.351,109.133a1.965,1.965,0,1,1,1.142-3.76l34.522,10.489a1.964,1.964,0,0,1-.569,3.844"/>
          <path id="パス_6529" data-name="パス 6529" class="cls-5" d="M71.237,74.31a1.952,1.952,0,0,1-1.122-.353L49.341,59.506a1.965,1.965,0,0,1,2.244-3.226L72.36,70.732a1.966,1.966,0,0,1-1.123,3.578"/>
          <path id="パス_6530" data-name="パス 6530" class="cls-5" d="M95.593,91.255a1.964,1.964,0,0,1-1.121-.351l-18.68-13a1.965,1.965,0,1,1,2.243-3.226l18.681,13a1.965,1.965,0,0,1-1.123,3.578"/>
          <path id="パス_6531" data-name="パス 6531" class="cls-5" d="M104.54,39.377a1.957,1.957,0,0,1-1.633-.869l-5.019-7.483a1.965,1.965,0,1,1,3.263-2.189l5.019,7.482a1.964,1.964,0,0,1-.536,2.725,1.943,1.943,0,0,1-1.094.334"/>
          <path id="パス_6532" data-name="パス 6532" class="cls-5" d="M126.5,72.123a1.975,1.975,0,0,1-1.635-.872L106.677,44.13a1.966,1.966,0,1,1,3.265-2.191l18.191,27.122a1.967,1.967,0,0,1-1.631,3.062"/>
          <path id="パス_6533" data-name="パス 6533" class="cls-5" d="M158.672,43.357a1.964,1.964,0,0,1-1.888-1.428l-10.1-35.5a1.964,1.964,0,1,1,3.778-1.075l10.1,35.5a1.962,1.962,0,0,1-1.351,2.426,2.008,2.008,0,0,1-.539.075"/>
          <path id="パス_6534" data-name="パス 6534" class="cls-5" d="M163.783,61.33A1.964,1.964,0,0,1,161.9,59.9L158.5,47.977a1.964,1.964,0,0,1,3.778-1.077l3.393,11.927a1.964,1.964,0,0,1-1.351,2.427,2.028,2.028,0,0,1-.54.076"/>
          <path id="パス_6535" data-name="パス 6535" class="cls-5" d="M196.2,26.632a1.963,1.963,0,0,1-1.96-1.878l-.53-11.908a1.964,1.964,0,0,1,3.925-.175l.529,11.908a1.963,1.963,0,0,1-1.876,2.051c-.028,0-.058,0-.088,0"/>
          <path id="パス_6536" data-name="パス 6536" class="cls-5" d="M197.634,58.876A1.962,1.962,0,0,1,195.675,57l-1.164-26.161a1.963,1.963,0,0,1,1.875-2.05,1.916,1.916,0,0,1,2.049,1.875L199.6,56.825a1.962,1.962,0,0,1-1.875,2.049c-.028,0-.058,0-.088,0"/>
          <path id="パス_6537" data-name="パス 6537" class="cls-5" d="M241.264,13.434a2.015,2.015,0,0,1-.407-.041,1.964,1.964,0,0,1-1.518-2.327l2-9.5a1.964,1.964,0,0,1,3.845.808l-2,9.5a1.964,1.964,0,0,1-1.921,1.56"/>
          <path id="パス_6538" data-name="パス 6538" class="cls-5" d="M231,62.31a2.012,2.012,0,0,1-.433-.046,1.968,1.968,0,0,1-1.487-2.348c3.245-14.472,6.151-28.3,8.887-42.289a1.964,1.964,0,1,1,3.854.755c-2.741,14.019-5.655,27.887-8.907,42.394A1.961,1.961,0,0,1,231,62.31"/>
          <path id="パス_6539" data-name="パス 6539" class="cls-5" d="M279.858,41.709a1.964,1.964,0,0,1-1.771-2.81l6.57-13.743a1.965,1.965,0,1,1,3.544,1.7l-6.568,13.737a1.967,1.967,0,0,1-1.775,1.118"/>
          <path id="パス_6540" data-name="パス 6540" class="cls-5" d="M264.843,73.1a1.965,1.965,0,0,1-1.771-2.814L275.3,44.717a1.965,1.965,0,0,1,3.545,1.7L266.618,71.988a1.974,1.974,0,0,1-1.775,1.116"/>
          <path id="パス_6541" data-name="パス 6541" class="cls-5" d="M325.989,52.1a1.963,1.963,0,0,1-1.5-3.23l7.533-8.93a1.965,1.965,0,0,1,3,2.536l-7.534,8.926a1.958,1.958,0,0,1-1.5.7"/>
          <path id="パス_6542" data-name="パス 6542" class="cls-5" d="M293.788,90.273a1.964,1.964,0,0,1-1.5-3.233l27.569-32.675a1.964,1.964,0,1,1,3,2.533L295.291,89.576a1.963,1.963,0,0,1-1.5.7"/>
          <path id="パス_6543" data-name="パス 6543" class="cls-5" d="M335.94,110.716a1.964,1.964,0,0,1-.815-3.752L366.07,92.9a1.965,1.965,0,1,1,1.628,3.576L336.752,110.54a1.922,1.922,0,0,1-.812.176"/>
          <path id="パス_6544" data-name="パス 6544" class="cls-5" d="M312.921,121.18a1.965,1.965,0,0,1-.815-3.753l16.913-7.685a1.964,1.964,0,0,1,1.625,3.577L313.734,121a1.943,1.943,0,0,1-.813.177"/>
          <path id="パス_6545" data-name="パス 6545" class="cls-6" d="M162.638,323.014c-8.717,4.116-14.248,9.391-20.822,14.287-1.721-7.637-.68-15.745-.745-23.347,8.123.791,15.358,5.609,21.567,9.06"/>
          <path id="パス_6546" data-name="パス 6546" class="cls-7" d="M174.916,328.687c7.913,2.182,15.626,4.773,24.822,4.265-5.769,7.355-12.129,14.495-17.819,21.878-3.619-7.185-3.389-16.785-7-26.143"/>
          <path id="パス_6547" data-name="パス 6547" class="cls-8" d="M214.932,332.51c7.009-.779,16.274-5.3,23.853-8.4a119.384,119.384,0,0,1-4.4,14.124c-1.662,4.575-3.065,9.226-4.822,13.8-4.513-7.28-9.638-13.263-14.631-19.522"/>
          <path id="パス_6548" data-name="パス 6548" class="cls-9" d="M275.561,315.131c-.979,8.3-.955,16.973-2.923,24.917-7.752-6.468-15.348-13.255-22.9-20.145,3.111-2.028,6.8-1.757,10.365-2.546,5.592-1.244,10.648-3.093,15.459-2.226"/>
          <path id="パス_6549" data-name="パス 6549" class="cls-10" d="M295.325,318.578c-9.587-3.722-19.119-6.913-31.194-4.369-1.954.412-12.6,3.059-13.75,3.533-7.59,3.115-26.761,11-28.681,11.6-5.285,1.638-11.721,1.645-17.024,1.826-5.765.2-11.495.358-16.478-.539-10.436-1.877-34.447-14.142-38.2-15.809-2.348-1.043-5.549-2.511-8.095-2.611a93.428,93.428,0,0,0-10.231,1.058c-5.7,1.382-10.592,4.478-15.233,6.239-7.546,2.858-15.478,2.969-20.03-1.664-.914-.931-.783-2.1-2.953-2.786,2.013,6.428,8.524,8.58,14.8,8.135,10.227-.727,21.358-9.945,31.3-8.927-.574,3.78-.973,21.486.726,26.245,7.91-5.719,14.666-11.86,24.571-16.851,2.118,2.112,6.278,2.254,8.066,4.306.628.719,5.7,26.455,8.127,30.315,2.533-1.349,16.3-19.174,21.893-25.521,3.028.455,6.638-.32,9.815-.181a190.968,190.968,0,0,1,13.432,17.547c1.427,2.137,2.482,5.078,4.635,5.794,1.131-3.578,8.138-25.412,10.541-32.739a47.192,47.192,0,0,0,6.488-2.591c6.571,5.521,23.549,21.24,26.365,22.263,2.058-8.709,2.244-19.008,3.372-27.486a40.893,40.893,0,0,1,20.031,6.96c1.752,1.14,3.616,3.3,6.026,2.881-.976-2.453-8.258-7.018-8.326-6.624M141.816,337.3c-1.72-7.637-.68-15.746-.744-23.347,8.123.791,15.357,5.609,21.566,9.06-8.717,4.116-14.248,9.391-20.822,14.287m40.1,17.53c-3.619-7.185-3.389-16.785-7-26.143,7.913,2.182,15.626,4.773,24.822,4.264-5.769,7.356-12.129,14.495-17.819,21.879m52.467-16.594c-1.662,4.574-3.065,9.225-4.822,13.8-4.513-7.28-9.638-13.263-14.631-19.522,7.009-.779,16.274-5.3,23.852-8.4a119.266,119.266,0,0,1-4.4,14.125m38.253,1.811c-7.752-6.468-15.349-13.255-22.9-20.145,3.111-2.028,6.8-1.757,10.364-2.546,5.592-1.245,10.649-3.093,15.46-2.226-.979,8.3-.955,16.972-2.923,24.917"/>
          <path id="パス_6550" data-name="パス 6550" class="cls-10" d="M61.211,301.494c3.226.158,2.567,4.2,4.349,5.8,2.959-.9,2.5-5.228,6.279-5.313-4.678,6.541-3.981,13.875,1.932,18.354-1.834,1.235-3.754-.876-5.8-.965-3.653,2.227.006,9.134-4.83,9.659-1.072-2.792-1.023-6.7-.965-10.626-2.428-.317-3.9.608-5.314,0,.788-3.4,3.982-4.393,5.314-7.245-.959-2.582-1.064-6.022-.969-9.66"/>
          <path id="パス_6551" data-name="パス 6551" class="cls-10" d="M331.142,303.655c.867-.062,1.02.59,1.934.483-.321,1.773-.514,3.671-.966,5.313,1.213,2.522,2.8.4,5.311.483-.166,2.734-2.945,2.85-4.345,4.347-.676,3.262,1.419,6.295,0,8.7-2.383.129-1.659-2.851-2.9-3.864-3.168,1.017-3.453,4.919-6.28,6.277-1.9-2.084.653-4.574,1.449-6.761-.275-2.462-3.86-1.614-3.863-4.347,6.064-.7,8.449-5.073,9.658-10.626"/>
        </g>
      </g>
    </g>
    <path id="パス_8631" data-name="パス 8631" class="cls-2" d="M-98.049-3.128c12.006.736,20.608-4.554,20.608-14.628,0-11.316-9.982-16.468-21.528-13.432ZM-84.2-17.756c-.092,6.348-6.026,7.636-9.062,7.59-.092-3.68-.092-14.4-.092-14.4C-89.861-25.76-84.111-23.736-84.2-17.756Zm26.5,14.49,6.9.138c0-1.2-.368-21.206-.368-21.206l-5.934-.092C-57.293-20.976-57.707-3.266-57.707-3.266Zm-.138-29.578a53.771,53.771,0,0,0,.966,5.658c2.116-.138,5.382-.69,5.382-.69l-.23-5.474ZM-10.971-3.22c.874-12.236.23-20.424-8.6-21.114-3.174-.276-6.532.874-8.142,3.818l.368-4.186h-6.716c.092,3.312.092,21.482.092,21.482l7.176-.046c-.046-3.082,0-5.06.046-6.946.138-4.784,1.978-6.486,4.37-6.624a4.052,4.052,0,0,1,4.462,3.174c.506,1.84.184,10.488.184,10.488Zm38.686,0c.874-12.236.23-20.424-8.6-21.114-3.174-.276-6.532.874-8.142,3.818l.368-4.186H4.623c.092,3.312.092,21.482.092,21.482l7.176-.046c-.046-3.082,0-5.06.046-6.946.138-4.784,1.978-6.486,4.37-6.624a4.052,4.052,0,0,1,4.462,3.174c.506,1.84.184,10.488.184,10.488ZM55.729-2.208c6.072-.414,9.982-4.6,10.764-10.718l-3.956-2.76c-.782,5.2-4.738,9.292-9.89,7.36,8.418-10.166,8.6-10.12,10.488-12.834-1.978-2.622-6.21-4.278-10.764-3.864-7.5.6-11.086,8.188-9.016,14.858A11.878,11.878,0,0,0,55.729-2.208ZM49.979-19.09c1.748-1.334,4.738-1.426,6.256,0l-7.268,7.36C46.851-14.168,48.047-17.664,49.979-19.09Zm37.766-.276.506-5.8-6.532.092c.092,4.37-.046,22.08-.046,22.08l7.36-.092c-.092-1.1-.6-11.04-.6-11.04.69-3.082,2.714-3.68,5.106-3.864a9.949,9.949,0,0,1,5.7,1.518l.23-7.544C92.759-25.806,89.079-23.46,87.745-19.366Z" transform="translate(-1574 4015.635)"/>
    <path id="パス_8632" data-name="パス 8632" class="cls-2" d="M15.594-11.592q0,.138-.253.345a.676.676,0,0,0-.276.46,1.213,1.213,0,0,1-.322.368q-.069.276-.46.345l-.414.322-.3.552h-.23a2.2,2.2,0,0,1-.414.437q-.069.023-.391.184l-.483.529-.644.46-.207.069-.207.368-.506.3-.253.253-.23.575-.851.943-.276.414-.115.23.138.23L8.717-3.8l.115.391-.184.529.046.322.161.644a1.236,1.236,0,0,0-.345.759,3.022,3.022,0,0,0,.057.483,3.012,3.012,0,0,1,.057.46L8.441.805l.046.575L8.4,1.587l.161.828-.184.276.161.414L8.4,3.312l.092.184a.659.659,0,0,1,.069.3V3.91L8.4,4.485l.138.621-.207.437.207.276V5.98a2.367,2.367,0,0,1-.265,1.3,1.084,1.084,0,0,1-.954.379l-.207-1.1L6.9,5.888l-.023-.437-.3-.184.207-.46-.092-.322.092-.69-.138-.736.069-.575V2.323a.989.989,0,0,1-.023-.184.676.676,0,0,1,.023-.161V1.84L6.6.782,6.716.276,6.647-.276l.138-.92-.207-.368.115-.552L6.67-2.553l-.184-.414a1.74,1.74,0,0,0,.184-.644.376.376,0,0,0-.046-.207l-.092-.414-.138-.391-.23-.184-.138-.207A4.034,4.034,0,0,1,4.991-6.026l-.368-.23-.322-.6-.92-.828L3.2-8l-.368-.46-.69-.552v-.23l-.345-.23q-.092-.575-.483-.575a1.777,1.777,0,0,1-.966-1.61l.115-.6H.736a.767.767,0,0,1,.506-.138,3.31,3.31,0,0,1,.966.207l.161.368.368.115.414.644.6.437.023.207.483.759.345.253L5.865-7.659l.414.529q.828.851,1.288,1.38v-.069a.872.872,0,0,1,.276-.575l-.023.115a1.926,1.926,0,0,1,.391-.6.813.813,0,0,1,.322-.506,1.489,1.489,0,0,1,.437-.506l.207-.092.069-.092a.808.808,0,0,1,.828-.6l.046.092.207-.391q.276-.069.23-.069.207-.253.345-.414l.161-.3a1.5,1.5,0,0,1,.989-.6v-.276l.161-.184.23-.184.138-.483a.208.208,0,0,0,.184.115q.207,0,.368-.552l.69-.3.368-.368.644.046.483-.138.207.483A3.393,3.393,0,0,1,15.594-11.592ZM25.829-9.315l-.23.3.184.552-.3.345-.115.483-.069.115.046.115a.656.656,0,0,1-.161.483l-.046.069v.092a.764.764,0,0,1,.069.3.4.4,0,0,1-.023.161l.023.092-.092.253.069.276L25-5.5l.069.322.138.161L25-4.83v.368l-.161.368.115.368-.138.184.23.161-.322.529-.023.069.23.046-.161.529v.092a1.092,1.092,0,0,1-.023.253l.023.069.368.046.3.46-.161.345.253-.023a1.481,1.481,0,0,1,.161.483l-.345.345a1.982,1.982,0,0,1-.46.322l-.391.207L24.38.276l-.23.138-.713-.828V-.805a2.976,2.976,0,0,1-.138-.851v-.138l-.138-1.357.184-.966-.138-.552-.391.644-.207.6-.184.092-.322.506-.575.529-.161.276-.506.437-.115.3-.736.46-.782.874-.437.092-.3.23a1.067,1.067,0,0,1-.874-.437,1.676,1.676,0,0,1-1.081-1.449l.115-.069-.023-.138L16.606-2l-.138-.3.138-.322.046-.483.161-.759v-.092a.2.2,0,0,1-.023-.092.757.757,0,0,1,.046-.23.478.478,0,0,1-.023-.184,1.765,1.765,0,0,1,.138-.529l.161-.069a.329.329,0,0,1-.138-.253A.32.32,0,0,1,17-5.451a.51.51,0,0,1-.023-.161.442.442,0,0,1,.276-.414,1.376,1.376,0,0,1,.253-.46l-.115-.184.276-.345v-.092a1.249,1.249,0,0,1,.3-.805l-.023-.414.092-.092v-.069a.177.177,0,0,1-.023-.069.312.312,0,0,1,.092-.23v-.138a3.01,3.01,0,0,1,.483-.69,4.773,4.773,0,0,0,.575-.805l.115.115.253-.115.115-.046.759-.345,1.771.092v.161l.552.115a.681.681,0,0,1,.69.345.676.676,0,0,1,.023-.161v-.092l.483.437.437.092.828-.207.3.575Zm-2.185,1.2-.092-.161-.184-.046L22.655-8.9l-.46-.069h-.368l-.046-.046-.184.069-.207-.115h-.6l.069.092-.529.184-.092.115-.069.023a3.314,3.314,0,0,0-.575.575l-.161.552-.092.207.23.322-.391.3.046.092a1.7,1.7,0,0,0-.253.851l-.184.23v.414l-.184.207-.046.207-.069.046v.322l-.069.115a1.652,1.652,0,0,1-.046.437l.046.115-.207.437.092.138-.161.23.161.437-.253.322.046.437v.069l.092.046.115-.023a2.8,2.8,0,0,1,.23-.207l-.046-.184L18.814-2l.069-.161,1.357-1.1.138-.046.161-.391a2.654,2.654,0,0,0,.391-.184l.138-.368h.184l-.069-.391.322-.046a1.6,1.6,0,0,1,.149-.23,2.356,2.356,0,0,1,.219-.253l1.173-1.564.184-.345-.023-.092.161-.253.046-.253.207-.184Zm11.983-.138q0,.207-.414.391a.783.783,0,0,1-.345.207,3.116,3.116,0,0,0-.46.23l-.483-.161a1.529,1.529,0,0,1-.943.276l-.276-.069L32.5-7.2h-.621l-.391.253A1.413,1.413,0,0,0,31-7.038a1.039,1.039,0,0,1-.322.092.572.572,0,0,1-.253-.069l-.069.874.023.644-.069.8.046.874.069.414v.322l.322.69a.221.221,0,0,0-.069.161q0,.161.506.253l.046.276.161.069.276.184.184.138a1.938,1.938,0,0,1,.322-.046,1.3,1.3,0,0,1,.414.069,2.544,2.544,0,0,0,.391-.322.608.608,0,0,1,.391-.184h.069a.177.177,0,0,0,.069.023,1.058,1.058,0,0,1,.736-.575,1.138,1.138,0,0,1,.8.3v.161A.93.93,0,0,1,34.5-.9a1.112,1.112,0,0,1-.874.621l-.276.253h-.3l-.529.138a2.315,2.315,0,0,1-.529.046A.965.965,0,0,1,31.6.069h-.3L30.5-.368l-.207-.069-.483-.644-.276-.3-.506-1.15-.184-1.081.046-.276L28.7-4.14l.115-.322L28.7-4.968l.161-.161.046-.3L28.842-5.7l.046-.414L28.8-6.486l.115-.115v-.368l-.161-.069-.437.092-.414-.3H27.83q-.69,0-.69-.736V-8.05l-.276-.437L27.3-8.9l.575.092.3-.046.437.115h.483V-9.2l-.3-.644.3-.161-.115-.345L29-11.063l-.184-.3a.877.877,0,0,1-.161-.46.7.7,0,0,1,.115-.414l.069-.322.184-.184a5.745,5.745,0,0,1,.828-.115.7.7,0,0,1,.8.667l-.069.115a.713.713,0,0,1,.138.391.691.691,0,0,1-.023.115l-.046.138-.023.161.092.3-.023.115.046.322-.207.276.115.46-.092.552.184.207-.184.414.713-.092,1.265.115,1.012-.161.345.023.115-.023h.9Q35.627-8.763,35.627-8.257Zm9.591,6.371-.276.322-.253.6-.184.138-.161.322-.46.046-.3.3h-.46l-.276.23L42.6,0l-.3.069V.253L41.446.184l-.368.023L40.8.345l-.23-.138q.23-.023.368-.023-.184.023-1.1.092L39.767.253,39.583.23l-.3.161a2.187,2.187,0,0,0-.506-.207q-.506-.046-.667-.046h-.184a2.443,2.443,0,0,0-.345-.023.817.817,0,0,0-.368.092L36.892,0l-.184-.046a.9.9,0,0,1-.253-.069Q35.6-.207,35.6-1.541v-.207l.437-.322.552-.207.414.207h.322V-2a.716.716,0,0,1,.368.368l.184.023v.3l.3.069.069.046,2.944-.184.713-.115h.069l.046-.115.322-.046.046-.069a2.912,2.912,0,0,0,.9-.276l.023-.115a.9.9,0,0,1-.092-.161l-.115.023-.3-.23H42.6l-.115-.161.069-.092-.253.046L42.113-2.9a.807.807,0,0,1-.23.023,1.655,1.655,0,0,1-.6-.115h-.207l-.161-.069-.322.115-.184-.207h-.069L40.02-3.4l-.713-.276-.23-.184L38.2-4.025l-.092-.161L37.467-4.6l-.345-.759-.276-.391-.092-1.2.092-.138A1.635,1.635,0,0,1,37.214-8a.575.575,0,0,0,.345-.529L37.9-8.6a.9.9,0,0,1,.368-.345l.345-.276,1.449-.552.253-.069.46-.046.759-.207,1.449.092.046.115a1.143,1.143,0,0,1,.46.368v.115l.368.23-.161.552-.046.207a.636.636,0,0,1-.644.575.665.665,0,0,1-.621-.391V-8.3l-.276-.023-.322.092-.3-.207-.161.115a.919.919,0,0,0-.552.184,1.017,1.017,0,0,0-.667.276h-.3l-.207.161-.322.069-.046.046-.138.069-.207.207-.069.023-.207.322-.253.138a2.847,2.847,0,0,0-.115.506,1.2,1.2,0,0,0,.08.426.68.68,0,0,0,.311.219v.115l.3.161a1.814,1.814,0,0,1,.552.3h.46l.3.253.529.069.207.138.9.253L42-4.14,42.09-4.3a1.84,1.84,0,0,1,.805.276l.414.069.046.161h.368l.644.368a1.213,1.213,0,0,0,.506.552l.253.161-.069.276a.829.829,0,0,1,.161.483Zm14.674.552a1.055,1.055,0,0,1-.414.667L59.294-.6l-.161.207-.414.115q-.115.161-.23.161a.066.066,0,0,1-.046-.023h-.069a2.7,2.7,0,0,1-1.219.253h-.184L56.4,0l-.391-.184L55.131-.92l-.184-.621-.368-.3a.505.505,0,0,0,.069-.3,1.142,1.142,0,0,0-.184-.46l.069-.552v-.092a2.175,2.175,0,0,0-.161-.713l.138-.69-.3.6L53.866-4l-.046.483a.967.967,0,0,1-.437.092l-.253.552-.3.345a.632.632,0,0,1-.322.23l-.069.046-.828.851H51.52L51.083-.9l-.414.207-.23.3L49.91-.23l-.759.3-.46-.23a.651.651,0,0,1-.644-.414L47.84-.69a.989.989,0,0,1,.023-.184v-.161L47.5-1.357l.092-.138-.276-.644.092-.092-.046-.046v-.138a.378.378,0,0,1-.023-.115,1.672,1.672,0,0,1,.069-.483l.023-.6-.092-.483a.633.633,0,0,0,.115-.322.418.418,0,0,0-.138-.3l.253-.184v-.276l-.092-.759.253-1.472a4.265,4.265,0,0,0-.207-1.081q.069-.736.966-.805l.184.069.322.046.414.46-.138.6-.046.989.069.759-.138.276.069.184-.115.368v.23l-.046.069a.7.7,0,0,1,.023.207,2.258,2.258,0,0,1-.092.621l.115.161-.092.345.046.276v.322a.521.521,0,0,1,.115.345.817.817,0,0,1-.092.368v.092A2.436,2.436,0,0,1,49.2-2l.207.207q.138-.092.322-.23a.427.427,0,0,1,.322-.3v-.23a2.2,2.2,0,0,0,.437-.069l.046-.207.391-.161.069-.069a1.5,1.5,0,0,1,.529-.3V-3.45l.437-.322a.9.9,0,0,1,.575-.575,1.889,1.889,0,0,1,.345-.3l.3-.391v-.069l.092-.046.207-.092.115-.322.483-.207.092-.023.161-.161v-.207l.138-.046a.786.786,0,0,1,.368-.552l.345-.782.115-.414.046-.092h.092l.161-.115-.138-.046a3.719,3.719,0,0,0,.391-.874l.667-.023.529.437.23.368-.253.989-.345.46-.276.9-.23.138v.345l-.138.253.069.414-.184.161.092.736.046,1.035h.115v.6l.322.391.3.161.023.115a1.764,1.764,0,0,1,.391.115l.575.046.345-.092.621-.3a1.024,1.024,0,0,1,.46-.092Q59.892-1.932,59.892-1.334ZM72.358-2.852,72.174-2l.046.276-.046.069a1.012,1.012,0,0,1,.092.414.612.612,0,0,1-.069.276V-.92q0,.276-.207,2.254l-.046.437v.092l-.046.092-.023.092.023.138-.069.069-.069.138h-.092l.023.115-.046.138a.552.552,0,0,1-.115.322l-.115.368a1.3,1.3,0,0,1-.23.46,5.585,5.585,0,0,1-.575.8l-.391.3-.437.368-.345.161-.276.207-.184.046a2.542,2.542,0,0,1-1.035.3L67.8,5.957l-.207.092v.046a2.988,2.988,0,0,1-.667.092h-.9l-.552-.115L65,6.164l-.23-.207-.69-.069-.46-.414-.345-.184a1.505,1.505,0,0,1-1.058-1.219l.046-.092-.069-.368q.276-.437.506-.46a.69.69,0,0,1,.368-.115l.425.069a8.039,8.039,0,0,0,.886.092l-.046.345.276.184V4l-.184.23,1.058.322.529-.115V4.6l.161-.046h.046q.023,0,.3.046l.023.092.23-.115a2.871,2.871,0,0,1,1.1-.138,1.507,1.507,0,0,0,.23-.184.691.691,0,0,1,.115.023h.138q.138,0,.276-.276a.09.09,0,0,0,.092.069.224.224,0,0,0,.115-.046.237.237,0,0,1,.092-.046h.046l.736-.644.345-.529.023-.3.253-.322.023-.3.138-.276L70.61.989l.184-.575A2.735,2.735,0,0,1,70.771,0a3.831,3.831,0,0,1,.138-1.012l-.092-.368V-2.507L70.633-2.9v-.644l-.184-.483.023-.736-.023-.115-.161.046-.138.345-.345.3-.414.667-.6.414-.644.667a6.064,6.064,0,0,1-1.288,1.012l-.23.276-.345.207-.322.161-.3.3L65.3-.3a1.008,1.008,0,0,1-.529.253A1.993,1.993,0,0,1,63.618.3h-.253a1.736,1.736,0,0,1-.322.023A1.226,1.226,0,0,1,62.767.3L62.353.276l-.6-.575-.437-.575-.184-.483-.161-.92.092-.667.23-.782-.046-.253.207-.713.207-.414a2.44,2.44,0,0,0,.092-.713l.506-.943a.968.968,0,0,1,.345-.391l.23-.391.276-.3a1.113,1.113,0,0,1,.368-.529.545.545,0,0,0,.264-.345q.08-.253.862-.46l-.115.023.115-.046q.069-.115.322-.46l.276.046.207-.138a1.171,1.171,0,0,1,.782-.322h.161l.6-.23.345.115h.414l.253.138a.5.5,0,0,1,.368.207l.322.322.092.046.046.092L69-9.062l.023.115-.069.368L69-8.326l-.3.46-.667.092-.345-.552-.322-.115L67.206-8.6h-.23q-.115.046-.483.23l-.023.184h-.575a.708.708,0,0,1-.506.368,2.571,2.571,0,0,1-.276.161l-.184.437-.161.023-.023.207h-.322l-.3.483-.253.161-.092.322-.345.483-.046.46-.276.276-.253.989-.184.184.023.253-.276.874.069.276-.023.276a.829.829,0,0,1,.161.483l.161.046.069.138a.907.907,0,0,1,.506.092,3.43,3.43,0,0,1,1.127-.345.967.967,0,0,1,.391-.472q.253-.149,1.035-.563l.069.023a.521.521,0,0,1,.138-.345,3.292,3.292,0,0,0,.414-.184.406.406,0,0,0,.207-.3l.368-.092.23-.207.575-.782.161.092a5.164,5.164,0,0,1,.506-.621l.552-.644.046-.3a3.955,3.955,0,0,0,.644-1.472l-.115-.483-.184-.322.138-.345-.184-.253-.046-.322-.069-.23.23-.414a1.42,1.42,0,0,1,.529-.184,1.18,1.18,0,0,1,.552.207l.161.3.3.23.046.506q.069.207.161.621a.978.978,0,0,1,.115.483v.161l.046.138.253.368-.069.414.138.184A.867.867,0,0,1,71.9-6a1.092,1.092,0,0,1-.023.253l.207.069-.161.575.092.437a.943.943,0,0,1,.115.414,1.252,1.252,0,0,1-.115.46l.138.115ZM84.226-9.315l-.23.3.184.552-.3.345-.115.483-.069.115.046.115a.656.656,0,0,1-.161.483l-.046.069v.092a.764.764,0,0,1,.069.3.4.4,0,0,1-.023.161l.023.092-.092.253.069.276L83.4-5.5l.069.322.138.161L83.4-4.83v.368l-.161.368.115.368-.138.184.23.161-.322.529-.023.069.23.046-.161.529v.092a1.092,1.092,0,0,1-.023.253l.023.069.368.046.3.46-.161.345.253-.023a1.481,1.481,0,0,1,.161.483l-.345.345a1.982,1.982,0,0,1-.46.322l-.391.207L82.777.276l-.23.138-.713-.828V-.805a2.976,2.976,0,0,1-.138-.851v-.138l-.138-1.357.184-.966L81.6-4.669l-.391.644-.207.6-.184.092-.322.506-.575.529-.161.276-.506.437-.115.3-.736.46-.782.874-.437.092-.3.23a1.067,1.067,0,0,1-.874-.437,1.676,1.676,0,0,1-1.081-1.449l.115-.069-.023-.138L75-2l-.138-.3L75-2.622l.046-.483.161-.759v-.092a.2.2,0,0,1-.023-.092.757.757,0,0,1,.046-.23.479.479,0,0,1-.023-.184,1.765,1.765,0,0,1,.138-.529l.161-.069a.329.329,0,0,1-.138-.253.32.32,0,0,1,.023-.138.51.51,0,0,1-.023-.161.442.442,0,0,1,.276-.414,1.376,1.376,0,0,1,.253-.46l-.115-.184.276-.345v-.092a1.249,1.249,0,0,1,.3-.805l-.023-.414.092-.092v-.069a.177.177,0,0,1-.023-.069.312.312,0,0,1,.092-.23v-.138a3.01,3.01,0,0,1,.483-.69,4.773,4.773,0,0,0,.575-.805l.115.115.253-.115.115-.046.759-.345,1.771.092v.161l.552.115a.681.681,0,0,1,.69.345.676.676,0,0,1,.023-.161v-.092l.483.437.437.092.828-.207.3.575Zm-2.185,1.2-.092-.161-.184-.046L81.052-8.9l-.46-.069h-.368l-.046-.046-.184.069-.207-.115h-.6l.069.092-.529.184-.092.115-.069.023a3.314,3.314,0,0,0-.575.575l-.161.552-.092.207.23.322-.391.3.046.092a1.7,1.7,0,0,0-.253.851l-.184.23v.414L77-4.9l-.046.207-.069.046v.322l-.069.115a1.652,1.652,0,0,1-.046.437l.046.115-.207.437.092.138-.161.23.161.437-.253.322.046.437v.069l.092.046.115-.023a2.8,2.8,0,0,1,.23-.207l-.046-.184L77.211-2l.069-.161,1.357-1.1.138-.046.161-.391a2.653,2.653,0,0,0,.391-.184l.138-.368h.184l-.069-.391.322-.046a1.6,1.6,0,0,1,.149-.23,2.356,2.356,0,0,1,.218-.253l1.173-1.564.184-.345L81.6-7.176l.161-.253.046-.253.207-.184Zm11.983-.138q0,.207-.414.391a.783.783,0,0,1-.345.207,3.116,3.116,0,0,0-.46.23l-.483-.161a1.529,1.529,0,0,1-.943.276L91.1-7.383,90.9-7.2h-.621l-.391.253a1.413,1.413,0,0,0-.483-.092,1.039,1.039,0,0,1-.322.092.573.573,0,0,1-.253-.069l-.069.874.023.644-.069.8.046.874.069.414v.322l.322.69a.221.221,0,0,0-.069.161q0,.161.506.253l.046.276.161.069.276.184.184.138a1.938,1.938,0,0,1,.322-.046,1.3,1.3,0,0,1,.414.069,2.544,2.544,0,0,0,.391-.322.608.608,0,0,1,.391-.184h.069a.176.176,0,0,0,.069.023,1.058,1.058,0,0,1,.736-.575,1.138,1.138,0,0,1,.805.3v.161A.93.93,0,0,1,92.9-.9a1.112,1.112,0,0,1-.874.621l-.276.253h-.3l-.529.138a2.315,2.315,0,0,1-.529.046A.965.965,0,0,1,90,.069h-.3l-.805-.437-.207-.069-.483-.644-.276-.3-.506-1.15-.184-1.081.046-.276L87.1-4.14l.115-.322L87.1-4.968l.161-.161.046-.3L87.239-5.7l.046-.414-.092-.368.115-.115v-.368l-.161-.069-.437.092-.414-.3h-.069q-.69,0-.69-.736V-8.05l-.276-.437L85.7-8.9l.575.092.3-.046.437.115h.483V-9.2l-.3-.644.3-.161-.115-.345.023-.713-.184-.3a.877.877,0,0,1-.161-.46.7.7,0,0,1,.115-.414l.069-.322.184-.184a5.745,5.745,0,0,1,.828-.115.7.7,0,0,1,.805.667l-.069.115a.713.713,0,0,1,.138.391.691.691,0,0,1-.023.115l-.046.138-.023.161.092.3-.023.115.046.322-.207.276.115.46-.092.552.184.207-.184.414.713-.092,1.265.115,1.012-.161.345.023.115-.023h.9Q94.024-8.763,94.024-8.257Zm10.143-1.058-.23.3.184.552-.3.345-.115.483-.069.115.046.115a.656.656,0,0,1-.161.483l-.046.069v.092a.764.764,0,0,1,.069.3.4.4,0,0,1-.023.161l.023.092-.092.253.069.276-.184.184.069.322.138.161-.207.184v.368l-.161.368.115.368-.138.184.23.161-.322.529-.023.069.23.046-.161.529v.092a1.092,1.092,0,0,1-.023.253l.023.069.368.046.3.46-.161.345.253-.023a1.481,1.481,0,0,1,.161.483l-.345.345a1.982,1.982,0,0,1-.46.322l-.391.207-.115-.115-.23.138-.713-.828V-.805a2.976,2.976,0,0,1-.138-.851v-.138L101.5-3.151l.184-.966-.138-.552-.391.644-.207.6-.184.092-.322.506-.575.529-.161.276-.506.437-.115.3-.736.46-.782.874-.437.092-.3.23a1.067,1.067,0,0,1-.874-.437,1.676,1.676,0,0,1-1.081-1.449l.115-.069-.023-.138L94.944-2l-.138-.3.138-.322.046-.483.161-.759v-.092a.2.2,0,0,1-.023-.092.757.757,0,0,1,.046-.23.479.479,0,0,1-.023-.184,1.765,1.765,0,0,1,.138-.529l.161-.069a.329.329,0,0,1-.138-.253.32.32,0,0,1,.023-.138.51.51,0,0,1-.023-.161.442.442,0,0,1,.276-.414,1.376,1.376,0,0,1,.253-.46l-.115-.184L96-7.015v-.092a1.249,1.249,0,0,1,.3-.805l-.023-.414.092-.092v-.069a.177.177,0,0,1-.023-.069.312.312,0,0,1,.092-.23v-.138a3.01,3.01,0,0,1,.483-.69,4.773,4.773,0,0,0,.575-.805l.115.115.253-.115.115-.046.759-.345,1.771.092v.161l.552.115a.681.681,0,0,1,.69.345.676.676,0,0,1,.023-.161v-.092l.483.437.437.092.828-.207.3.575Zm-2.185,1.2-.092-.161-.184-.046-.713-.575-.46-.069h-.368l-.046-.046-.184.069-.207-.115h-.6l.069.092-.529.184-.092.115-.069.023a3.314,3.314,0,0,0-.575.575l-.161.552-.092.207.23.322-.391.3.046.092a1.7,1.7,0,0,0-.253.851l-.184.23v.414l-.184.207-.046.207-.069.046v.322l-.069.115a1.652,1.652,0,0,1-.046.437l.046.115-.207.437.092.138-.161.23.161.437-.253.322.046.437v.069l.092.046.115-.023a2.8,2.8,0,0,1,.23-.207l-.046-.184L97.152-2l.069-.161,1.357-1.1.138-.046.161-.391a2.653,2.653,0,0,0,.391-.184l.138-.368h.184l-.069-.391.322-.046a1.6,1.6,0,0,1,.149-.23,2.356,2.356,0,0,1,.218-.253l1.173-1.564.184-.345-.023-.092.161-.253.046-.253.207-.184Zm18.4,6.417-.138.253a1.25,1.25,0,0,1-.46,1.035.46.46,0,0,1-.161.368l-.115.253-.3.207-.138.253-.92.483-.437.115-.667.046-.368-.161-.3.023-.3-.207-.23-.023-.92-.483L114.1-.23q-.368-.322-1.1-.92l-.506-.69-.414-.345-.069-.161L111.8-2.6a10.351,10.351,0,0,0-.713-.782l-.391-.138-.437-.874.069-.345a.888.888,0,0,1,.736-.828l.437.138.368.368.391.253h.368l.092.069a1.577,1.577,0,0,1,.3.023,4.206,4.206,0,0,1,.805-.253l.207-.046.138-.3h.552a.956.956,0,0,1,.529-.23h.046q.069-.161.184-.391l.437-.207.184-.184.345-.575h.161a4.366,4.366,0,0,0,.184-.644L117-7.682l-.161-.092.092-.391a.421.421,0,0,0-.253-.161l-.276.092-.092-.184-.23-.092-.069-.092q-.345-.046-.989-.092v-.092l-.138.092a1.258,1.258,0,0,0-.276-.046,2.043,2.043,0,0,0-.874.322h-.322a3.239,3.239,0,0,0-.989.437l-.506.161-.713.575-.667.667v.092l-.437.759-.138.437-.092.046v.092q-.069.138-.115.253l-.138.069.046.069-.069.115a.256.256,0,0,0-.023.115.286.286,0,0,0,.092.207q0,.483-.23.621a.408.408,0,0,0-.046.184.256.256,0,0,0,.023.115,1.18,1.18,0,0,1-.161.644.842.842,0,0,0-.138.161l.069.345-.069.46.023.368a1.758,1.758,0,0,0-.184.667q.046.23.046.253a.769.769,0,0,1-.287.529.817.817,0,0,1-.541.276.942.942,0,0,1-.667-.391l-.253-.713.069-.414-.069-.9.069-.23v-.736l.046-.3v-.253q0-.46.046-.932t.046-.494v-.391l.023-.207V-6.3l.069-.184-.069-.276.092-.759v-.805l-.092-.46.115-.184-.023-.092-.092-1.242-.161-.759v-.207l.138-.782-.092-.3-.046-.552q-.046-.552-.046-.483,0-.8,1.265-.851l.506-.276-.092,1.127.092.644-.161.667.046.736.115.414-.069.391.046.552-.069.46.115.483-.046.115.092.23L109-8.05v.138l.115.437Q109-7.429,109-7.13l-.069.552.046.207.276-.483.138-.529.322-.529a.612.612,0,0,1,.161-.414h.253l.184-.391.529-.253a1.865,1.865,0,0,1,.736-.46l.138-.115.368-.184.3-.069a4.069,4.069,0,0,1,2.093-.552l1.794.138.368.207.184.023.391.414.023-.138a.867.867,0,0,1,.437.437q.115-.023.092-.023a.306.306,0,0,1,.184.069l.483.989-.023.115a.943.943,0,0,1,.115.414,1.042,1.042,0,0,1-.253.644v.138l-.322.851-.483.667-.138.023-.276.368a.529.529,0,0,1-.391-.138v.368l-.184.115-.138.253-.414.115q-.092.023-.207.207a12.082,12.082,0,0,1-1.771.621,1.878,1.878,0,0,1-.265-.035,1.966,1.966,0,0,0-.333-.034.32.32,0,0,0-.138.023q.023.069.253.506l.3.184.414.736.621.368.046.092.207.115.3.345.552.437.736.3.414.115.3-.023.161-.069a1.984,1.984,0,0,0,.874-.368l.391-.713.23-.276.138-.414a1.856,1.856,0,0,1,.552-.115A.686.686,0,0,1,120.382-1.7Zm8.119-.184a1.13,1.13,0,0,1-.414.69,1.432,1.432,0,0,1-.345.6l-.138.023-.253.437-.414.069L126.5.207l-.23.414-.253-.046a1.615,1.615,0,0,1-.414.138l-.138.207A.7.7,0,0,0,125.258.9q-.3,0-.575.414l-.322-.276a1.226,1.226,0,0,1-.276.023,1.243,1.243,0,0,1-.506-.092h-.391L123,.851a1.309,1.309,0,0,1-1.1-.667V.115l-.276-.138-.138-.391L121.21-.6V-.943l-.276-1.012.046-.828.092-.368v-.483L121.187-4l-.023-.161.161-.276-.046.046a.979.979,0,0,1,.115-.437v-.115l-.069-.552a.893.893,0,0,1,.345-.69.32.32,0,0,0,.023-.138,1.835,1.835,0,0,0-.08-.379,1.779,1.779,0,0,1-.08-.4,1.37,1.37,0,0,1,.138-.575.6.6,0,0,0,.529.276h.069a.649.649,0,0,1,.207-.207,2.884,2.884,0,0,1,.506-.966l.092-.092a2.859,2.859,0,0,1,.138-.529h.184l.046-.115.184-.046a1.753,1.753,0,0,1,.15-.219,5.415,5.415,0,0,1,.494-.287,1,1,0,0,1,.276-.3,1.785,1.785,0,0,1,.23-.092l.092-.138a3.608,3.608,0,0,1,.782-.207.684.684,0,0,1,.345.092l.115-.023.161.092a3.625,3.625,0,0,0,.552.345l.391.3v.092a1.4,1.4,0,0,1,.529,1.173l-.069.23.069.759-.207.138-.23.6-.437.483-.023.368a11.194,11.194,0,0,1-1.357.851.711.711,0,0,1-.644.322h-.069l-.437.276h-.368l-.552.23L123-4.485h-.046a5.045,5.045,0,0,0-.092.552l-.184.138-.023.276-.138.391q.069.552.069.713l-.092.069a2.95,2.95,0,0,1-.023.437.177.177,0,0,1-.023.069v.069a.343.343,0,0,0,.184.3.464.464,0,0,0,.23.345l.161.138.506.138v.069l.184.046.782.046.46-.069.23-.161.138-.046.23-.345.115-.023.575-.184a.751.751,0,0,1,.3-.276l.069-.115a.589.589,0,0,0,.529-.483,1.121,1.121,0,0,1,.828-.322h.092A1.443,1.443,0,0,1,128.5-1.886ZM126.224-8.51a1.129,1.129,0,0,0-.069-.276l-.115-.023-.046.023H125.9a.2.2,0,0,1-.092.023.176.176,0,0,1-.069-.023h-.069l-.23.161-.207.023-.115.046-.391.506-.253.184-.368.644-.207.138a1.3,1.3,0,0,1-.322.667l-.092.161a1.048,1.048,0,0,1,.575-.161l.161-.069.069-.207.322.023.184-.276h.138l.253.092L125.3-7.2h.161v-.253l.3-.069.069-.069.046-.207.3-.437A.743.743,0,0,0,126.224-8.51Zm27.209.552-.276.23q.069.092.253.322l-.874.552h-.092a.9.9,0,0,1-.3-.069l-.276.23-.391-.046-.414.345-.391-.23-.483.138-.46.276a.256.256,0,0,0-.115-.023q-.184,0-.207.115l-.184.759a.582.582,0,0,1,.092.276.985.985,0,0,1-.069.345l-.069.184.092.046a1.29,1.29,0,0,1-.184.69,3.612,3.612,0,0,1,.184.506l-.207.161.023.828-.207,1.2-.023.23a2.824,2.824,0,0,1,.046.368v.115l.092.23.023.414a2.2,2.2,0,0,1-.115.345q-.023.782-1.127.828L147.729.9l-.184-.3-.138-.414V-.621l-.161-.483.069-.046-.069-.345V-2.07l.069-.9-.046-.805.138-.46v-.529a2.274,2.274,0,0,1,.057-.437,2.236,2.236,0,0,0,.058-.414.775.775,0,0,0-.138-.437l-.046-.069-.069.046-.3-.092a2.926,2.926,0,0,1-.782.115,2.085,2.085,0,0,1-.368-.023l-.989.3-1.058-.115q-.414-.046-.575-.046a3.06,3.06,0,0,0-.828.161h-.092l-.529.23-.368-.253-.575.115-.069-.046-.092.046-.46-.023-.046.184-.644-.253-.575.069v1.058l-.069.529.115.437-.184.345.161.322-.161.989.092.3-.046.552.207.46-.092.207.046.276q-.023.506-.575.506-.943,0-.943-1.7l-.322-.391-.115-.276a.892.892,0,0,1,.138-.506l.046-.391-.069-.23-.115-1.794V-5.5l-.046-.069-.46-.253-.069-1.127.644-.368a3.13,3.13,0,0,0,.115-.92,3.037,3.037,0,0,0-.115-.9l.138.069-.023-.322.138-.483-.138-.805V-11.2l.161-.805.9-.483.437.322.483.161.069.506.207.3q-.115.322-.207.667a4.24,4.24,0,0,1,.069.782,5.02,5.02,0,0,1-.161,1.265l.207.437-.23.322v.276l.207.069.552-.069.391.046.621-.069.184.069a1.292,1.292,0,0,1,.253-.023,1.258,1.258,0,0,1,.276.046l.046.023h.345l.357-.023q.334-.023.678-.023l.368-.23.345.207.345.023.115.023a1.293,1.293,0,0,1,.3-.046h.115l2.438-.253.345.023.115-.069-.115-.391.115-.345-.161-.943.161-.3-.414-1.1-.046-.161-.092-.115q.023-.046.092-.207l.046-.092v-.092q0-.184.368-.345l.23-.644.644.115.276.161.644-.138v.322l.276-.069v1.081l-.115.184.184.46v.3l.115.368-.184.437.069.3-.115,1.058v.161l.483-.023.9-.207.437.046.276-.046h.506a.863.863,0,0,1,.391-.092.891.891,0,0,1,.345.092Zm7.889,2.576-.138.414a5.045,5.045,0,0,1-.069.943l-.138.23v.253l-.115.161-.069.322-.253.253-.161.575-.184.069-.092.253-.276.161-.184.391-.276.138-.023.276-.437.161a1.309,1.309,0,0,1-.736.529l-.092.023a.981.981,0,0,1-.851.483,1.008,1.008,0,0,1-.529.138l-.23.161-.23.069-.3.23-.3-.023-.322.092-.391-.161L153.939.69l-.345-.529-.506-.529.115-.368-.345-.782.161-.3-.115-.552.115-.345a3.736,3.736,0,0,1-.046-.46.825.825,0,0,1,.23-.644,2.526,2.526,0,0,1,.3-.759h.115l-.046-.161.069-.322v-.345a1.184,1.184,0,0,0,.207-.276L153.778-6v-.092a1.474,1.474,0,0,0,.161-.667l.483-.667.058-.046a1.256,1.256,0,0,0,.1-.092l-.023-.092h.092L155-8.05l.023-.529.575-.207a.992.992,0,0,0,.414-.69h.3a.977.977,0,0,1,.46-.138.863.863,0,0,1,.391.092l.253.023.6-.23.322.3.253.161h.184l.345.184h.184a7.321,7.321,0,0,1,.69.759l.046.115.161.092.483.621.437,1.081v.23ZM159.8-4.83l-.023-.115a.591.591,0,0,1-.184-.345l.069-.115-.207-.437.046-.437-.092-.115q-.3-.23-.322-.368-.207-.092-.207-.46l-.138-.023-.276-.46-.207-.161-.483-.184L157.6-8.1a.185.185,0,0,1-.184-.092l-.46.506-.3.644-.483.253-.069.253-.23.115-.092.6-.276.138a2.186,2.186,0,0,0-.092.6l-.368.345.115.069a.662.662,0,0,1-.207.483,4.774,4.774,0,0,1-.184.46v.184l-.069.092.023.276-.253.621.046.115v.644l-.092.322.023.322.207.3.322.115.115.046.184-.092.6.046.092-.23h.092q.138,0,.161.069l.207-.069.184.069.3-.207.046-.069.207-.046a1.681,1.681,0,0,1,.759-.506l.046-.115.46-.322.253-.368.368-.184.023-.115.115-.253v-.3l.276-.23.092-.161.115-.138a1.464,1.464,0,0,1-.092-.391.854.854,0,0,1,.138-.437Zm10.35-3.427q0,.207-.414.391a.783.783,0,0,1-.345.207,3.115,3.115,0,0,0-.46.23l-.483-.161a1.529,1.529,0,0,1-.943.276l-.276-.069-.207.184H166.4l-.391.253a1.413,1.413,0,0,0-.483-.092,1.039,1.039,0,0,1-.322.092.572.572,0,0,1-.253-.069l-.069.874.023.644-.069.8.046.874.069.414v.322l.322.69a.221.221,0,0,0-.069.161q0,.161.506.253l.046.276.161.069.276.184.184.138a1.938,1.938,0,0,1,.322-.046,1.3,1.3,0,0,1,.414.069,2.544,2.544,0,0,0,.391-.322.608.608,0,0,1,.391-.184h.069a.176.176,0,0,0,.069.023,1.058,1.058,0,0,1,.736-.575,1.138,1.138,0,0,1,.805.3v.161a.93.93,0,0,1-.552.989,1.112,1.112,0,0,1-.874.621l-.276.253h-.3l-.529.138a2.315,2.315,0,0,1-.529.046.965.965,0,0,1-.391-.092h-.3l-.8-.437-.207-.069-.483-.644-.276-.3-.506-1.15-.184-1.081.046-.276-.184-.253.115-.322-.115-.506.161-.161.046-.3-.069-.276.046-.414-.092-.368.115-.115v-.368l-.161-.069-.437.092-.414-.3h-.069q-.69,0-.69-.736V-8.05l-.276-.437.437-.414.575.092.3-.046.437.115h.483V-9.2l-.3-.644.3-.161-.115-.345.023-.713-.184-.3a.877.877,0,0,1-.161-.46.7.7,0,0,1,.115-.414l.069-.322.184-.184a5.745,5.745,0,0,1,.828-.115.7.7,0,0,1,.805.667l-.069.115a.713.713,0,0,1,.138.391.691.691,0,0,1-.023.115l-.046.138-.023.161.092.3-.023.115.046.322-.207.276.115.46-.092.552.184.207-.184.414.713-.092,1.265.115,1.012-.161.345.023.115-.023h.9Q170.154-8.763,170.154-8.257Zm8.234,6.371a1.13,1.13,0,0,1-.414.69,1.432,1.432,0,0,1-.345.6l-.138.023-.253.437-.414.069-.437.276-.23.414L175.9.575a1.615,1.615,0,0,1-.414.138l-.138.207A.7.7,0,0,0,175.145.9q-.3,0-.575.414l-.322-.276a1.226,1.226,0,0,1-.276.023,1.243,1.243,0,0,1-.506-.092h-.391l-.184-.115a1.309,1.309,0,0,1-1.1-.667V.115l-.276-.138-.138-.391L171.1-.6V-.943l-.276-1.012.046-.828.092-.368v-.483L171.074-4l-.023-.161.161-.276-.046.046a.979.979,0,0,1,.115-.437v-.115l-.069-.552a.893.893,0,0,1,.345-.69.32.32,0,0,0,.023-.138A1.835,1.835,0,0,0,171.5-6.7a1.779,1.779,0,0,1-.081-.4,1.371,1.371,0,0,1,.138-.575.6.6,0,0,0,.529.276h.069a.649.649,0,0,1,.207-.207,2.884,2.884,0,0,1,.506-.966l.092-.092A2.86,2.86,0,0,1,173.1-9.2h.184l.046-.115.184-.046a1.755,1.755,0,0,1,.15-.219,5.414,5.414,0,0,1,.494-.287,1,1,0,0,1,.276-.3,1.786,1.786,0,0,1,.23-.092l.092-.138a3.608,3.608,0,0,1,.782-.207.684.684,0,0,1,.345.092l.115-.023.161.092a3.625,3.625,0,0,0,.552.345l.391.3v.092a1.4,1.4,0,0,1,.529,1.173l-.069.23.069.759-.207.138-.23.6-.437.483-.023.368a11.193,11.193,0,0,1-1.357.851.711.711,0,0,1-.644.322h-.069l-.437.276h-.368l-.552.23-.414-.207h-.046a5.044,5.044,0,0,0-.092.552l-.184.138-.023.276-.138.391q.069.552.069.713l-.092.069a2.949,2.949,0,0,1-.023.437.177.177,0,0,1-.023.069v.069a.343.343,0,0,0,.184.3.465.465,0,0,0,.23.345l.161.138.506.138v.069l.184.046.782.046.46-.069.23-.161.138-.046.23-.345.115-.023.575-.184a.751.751,0,0,1,.3-.276l.069-.115a.589.589,0,0,0,.529-.483,1.121,1.121,0,0,1,.828-.322h.092A1.443,1.443,0,0,1,178.388-1.886ZM176.111-8.51a1.129,1.129,0,0,0-.069-.276l-.115-.023-.046.023h-.092a.2.2,0,0,1-.092.023.177.177,0,0,1-.069-.023h-.069l-.23.161-.207.023-.115.046-.391.506-.253.184-.368.644-.207.138a1.3,1.3,0,0,1-.322.667l-.092.161a1.048,1.048,0,0,1,.575-.161l.161-.069.069-.207.322.023.184-.276h.138l.253.092.115-.345h.161v-.253l.3-.069.069-.069.046-.207.3-.437A.743.743,0,0,0,176.111-8.51Zm10.1,6a.525.525,0,0,1-.184.414,2.4,2.4,0,0,1-.6.575l-.23.161-.207.276-.207.092-.322.207-.23.023-.092.092a1.38,1.38,0,0,0-.713.46.526.526,0,0,1-.3.115.51.51,0,0,1-.161-.023,1.978,1.978,0,0,1-1.012.23,1.641,1.641,0,0,1-.69-.092l-.414-.23-.138-.23V-.506a.57.57,0,0,0-.253-.483l-.092-.46-.184-.207-.115-.851-.023-.506.023-.368.046-.138a.659.659,0,0,1-.069-.3q.115-.966.115-1.219l-.207-.414.207-.345.069-.575-.046-.391.138-.345-.138-.46.207-.322.023-.207V-8.9l.069-.161-.023-.966.069-.989-.092-.184-.023-.69.069-.621-.069-.23.138-1.38a3.955,3.955,0,0,0,.851-.23.682.682,0,0,1,.6.391l.046.184.345.345-.184.483.046.092a2,2,0,0,1-.115.575l.046.483.115.437-.161.483a2.107,2.107,0,0,1-.115.713,2.325,2.325,0,0,1-.046.368l-.023.138.207.253-.092.253a1.269,1.269,0,0,1,.046.253,1.06,1.06,0,0,1-.092.368l.046.207-.138.736v.483l-.161.483.092.437-.092,1.012.069.115-.115.529-.046.644a.961.961,0,0,0-.046.161q0,.391-.023.644l.115.322-.046.345.138.3L181.792-2a1.026,1.026,0,0,1,.253.368h.207l.3.092.138-.184.207-.023a.73.73,0,0,1,.207-.046h.069a.589.589,0,0,0,.368-.23l.138-.069a.832.832,0,0,1,.529-.345q.115-.092.437-.368a.524.524,0,0,1,.391-.483.666.666,0,0,0,.46-.115.893.893,0,0,1,.587.241A1.188,1.188,0,0,1,186.208-2.507Zm19.136-8.671q0,.437-.667.46l-.414.184-.414-.092-.6.322a1.947,1.947,0,0,0-.736-.253q-.023,0-.2.035a1.6,1.6,0,0,1-.311.035,1.226,1.226,0,0,1-.276-.023l-.506.161-.115-.023-.046.023-1.265.023-.138.23-.575-.184-.23.115-.552.046-.345-.069q-.207.023-.4.057t-.219.035l-.3.046-.138.092.138.414.184.483-.092.368.23.184-.184.276a1.293,1.293,0,0,1,.046.3,1.461,1.461,0,0,1-.115.506l-.069.759.368.023.736-.184.322.184h.184a.691.691,0,0,0,.115.023h.069l.138-.138.713-.115.506.184q.368-.092.529-.115h.759l.437-.092.253.138.345-.046a2.44,2.44,0,0,1,.276-.023l1.334-.161.161.069a.51.51,0,0,1,.161-.023,1.09,1.09,0,0,1,.391.092,1.313,1.313,0,0,1,.3.736.6.6,0,0,1-.023.184l-.437.069-.391.207h-.345l-.184.161-.644-.046-.575.161-.667.115-.138-.023-.046.046-.874-.092-.3.115-.414-.046a2.007,2.007,0,0,1-.851.161h-.207q-.115.023-.483.138l-.483-.276-.138.115a.8.8,0,0,1-.322.161l-.437-.046H196.9q-.046.23-.138,1.38a1.558,1.558,0,0,1,.092.483l-.23.575.138.276-.184.368.069.345-.115.207q-.3,1.564-.414,2-.184.69-.414.805l-.506-.253h-.621l.161-.713V.138L194.879,0l.046-.3.023-.115L194.9-.437V-.713l-.207-.23.046-.138a1.879,1.879,0,0,1,.184-.851l-.092-.092.046-.276-.069-.322.138-.368-.046-.828.161-.805-.115-.276v-.115l-.368.138-.529-.276-.23.046a2.3,2.3,0,0,1-.276.046q-.644,0-.644-.759a.854.854,0,0,1,.966-.966q.483,0,.69.023l.644.069-.046-.184.023-.736-.138-.046.092-1.4-.23-.621-.023-.207-.161-.092-.736.414-.368-.506a.7.7,0,0,1-.414-.713.663.663,0,0,0,.138-.322v-.529l.644.046a1.555,1.555,0,0,1,.874-.345q-.023,0,.667.092.414-.046,1.518-.115l.828.115.621-.023.092-.069a.684.684,0,0,1,.345-.092.574.574,0,0,1,.253.046l.092.023q.207-.023.621-.081t.621-.08l.023.069.138.115h.092a2.1,2.1,0,0,0,.322-.035,2.068,2.068,0,0,1,.3-.035h.069l.621.092.667.069a3.3,3.3,0,0,1,.644-.069,1.373,1.373,0,0,1,.437.069h.391a1.449,1.449,0,0,1,.46-.069Q205.344-11.914,205.344-11.178Zm13.685,9.844a1.055,1.055,0,0,1-.414.667l-.184.069-.161.207-.414.115q-.115.161-.23.161a.066.066,0,0,1-.046-.023h-.069a2.7,2.7,0,0,1-1.219.253h-.184L215.533,0l-.391-.184-.874-.736-.184-.621-.368-.3a.505.505,0,0,0,.069-.3,1.142,1.142,0,0,0-.184-.46l.069-.552v-.092a2.175,2.175,0,0,0-.161-.713l.138-.69-.3.6L213-4l-.046.483a.967.967,0,0,1-.437.092l-.253.552-.3.345a.632.632,0,0,1-.322.23l-.069.046-.828.851h-.092L210.22-.9l-.414.207-.23.3-.529.161-.759.3-.46-.23a.651.651,0,0,1-.644-.414l-.207-.115A.989.989,0,0,1,207-.874v-.161l-.368-.322.092-.138-.276-.644.092-.092-.046-.046v-.138a.378.378,0,0,1-.023-.115,1.672,1.672,0,0,1,.069-.483l.023-.6-.092-.483a.633.633,0,0,0,.115-.322.418.418,0,0,0-.138-.3L206.7-4.9v-.276l-.092-.759.253-1.472a4.265,4.265,0,0,0-.207-1.081q.069-.736.966-.805l.184.069.322.046.414.46-.138.6-.046.989.069.759-.138.276.069.184-.115.368v.23l-.046.069a.7.7,0,0,1,.023.207,2.258,2.258,0,0,1-.092.621l.115.161-.092.345.046.276v.322a.521.521,0,0,1,.115.345.816.816,0,0,1-.092.368v.092a2.435,2.435,0,0,1,.115.506l.207.207q.138-.092.322-.23a.427.427,0,0,1,.322-.3v-.23a2.2,2.2,0,0,0,.437-.069l.046-.207.391-.161.069-.069a1.5,1.5,0,0,1,.529-.3V-3.45l.437-.322a.9.9,0,0,1,.575-.575,1.889,1.889,0,0,1,.345-.3l.3-.391v-.069l.092-.046.207-.092.115-.322.483-.207L213.3-5.8l.161-.161v-.207l.138-.046a.786.786,0,0,1,.368-.552l.345-.782.115-.414.046-.092h.092l.161-.115-.138-.046a3.719,3.719,0,0,0,.391-.874l.667-.023.529.437.23.368-.253.989-.345.46-.276.9-.23.138v.345l-.138.253.069.414-.184.161.092.736.046,1.035h.115v.6l.322.391.3.161.023.115a1.764,1.764,0,0,1,.391.115l.575.046.345-.092.621-.3a1.024,1.024,0,0,1,.46-.092Q219.029-1.932,219.029-1.334Zm14.214,0a1.055,1.055,0,0,1-.414.667l-.184.069-.161.207-.414.115q-.115.161-.23.161a.066.066,0,0,1-.046-.023h-.069a2.7,2.7,0,0,1-1.219.253h-.184L229.747,0l-.391-.184-.874-.736-.184-.621-.368-.3a.505.505,0,0,0,.069-.3,1.142,1.142,0,0,0-.184-.46l.069-.552v-.092a2.175,2.175,0,0,0-.161-.713l.138-.69-.3.6L227.217-4l-.046.483a.967.967,0,0,1-.437.092l-.253.552-.3.345a.632.632,0,0,1-.322.23l-.069.046-.828.851h-.092l-.437.506-.414.207-.23.3-.529.161-.759.3-.46-.23a.651.651,0,0,1-.644-.414l-.207-.115a.989.989,0,0,1,.023-.184v-.161l-.368-.322.092-.138-.276-.644.092-.092-.046-.046v-.138a.378.378,0,0,1-.023-.115,1.672,1.672,0,0,1,.069-.483l.023-.6-.092-.483a.633.633,0,0,0,.115-.322.418.418,0,0,0-.138-.3l.253-.184v-.276l-.092-.759.253-1.472a4.265,4.265,0,0,0-.207-1.081q.069-.736.966-.805l.184.069.322.046.414.46-.138.6-.046.989.069.759-.138.276.069.184-.115.368v.23l-.046.069a.7.7,0,0,1,.023.207,2.258,2.258,0,0,1-.092.621l.115.161-.092.345.046.276v.322a.521.521,0,0,1,.115.345.816.816,0,0,1-.092.368v.092a2.435,2.435,0,0,1,.115.506l.207.207q.138-.092.322-.23a.427.427,0,0,1,.322-.3v-.23a2.2,2.2,0,0,0,.437-.069l.046-.207.391-.161.069-.069a1.5,1.5,0,0,1,.529-.3V-3.45l.437-.322a.9.9,0,0,1,.575-.575,1.89,1.89,0,0,1,.345-.3l.3-.391v-.069l.092-.046.207-.092.115-.322.483-.207.092-.023.161-.161v-.207l.138-.046a.786.786,0,0,1,.368-.552l.345-.782.115-.414.046-.092h.092l.161-.115-.138-.046a3.719,3.719,0,0,0,.391-.874l.667-.023.529.437.23.368-.253.989-.345.46-.276.9-.23.138v.345l-.138.253.069.414-.184.161.092.736.046,1.035h.115v.6l.322.391.3.161.023.115a1.764,1.764,0,0,1,.391.115l.575.046.345-.092.621-.3a1.024,1.024,0,0,1,.46-.092Q233.243-1.932,233.243-1.334Zm14.9-.368-.138.253a1.25,1.25,0,0,1-.46,1.035.46.46,0,0,1-.161.368l-.115.253-.3.207-.138.253-.92.483-.437.115-.667.046-.368-.161-.3.023-.3-.207-.23-.023L242.7.46l-.828-.69q-.368-.322-1.1-.92l-.506-.69-.414-.345-.069-.161-.207-.253a10.348,10.348,0,0,0-.713-.782l-.391-.138-.437-.874.069-.345a.888.888,0,0,1,.736-.828l.437.138.368.368.391.253h.368l.092.069a1.577,1.577,0,0,1,.3.023,4.207,4.207,0,0,1,.805-.253l.207-.046.138-.3h.552a.955.955,0,0,1,.529-.23h.046q.069-.161.184-.391l.437-.207.184-.184.345-.575h.161a4.367,4.367,0,0,0,.184-.644l.207-.138-.161-.092.092-.391a.421.421,0,0,0-.253-.161l-.276.092-.092-.184-.23-.092-.069-.092q-.345-.046-.989-.092v-.092l-.138.092a1.258,1.258,0,0,0-.276-.046,2.043,2.043,0,0,0-.874.322h-.322a3.238,3.238,0,0,0-.989.437l-.506.161-.713.575-.667.667v.092l-.437.759-.138.437-.092.046v.092q-.069.138-.115.253l-.138.069.046.069-.069.115a.256.256,0,0,0-.023.115.286.286,0,0,0,.092.207q0,.483-.23.621a.408.408,0,0,0-.046.184.256.256,0,0,0,.023.115,1.18,1.18,0,0,1-.161.644.841.841,0,0,0-.138.161l.069.345-.069.46.023.368a1.758,1.758,0,0,0-.184.667q.046.23.046.253a.769.769,0,0,1-.288.529.817.817,0,0,1-.54.276.942.942,0,0,1-.667-.391l-.253-.713.069-.414-.069-.9.069-.23v-.736l.046-.3v-.253q0-.46.046-.932t.046-.494v-.391l.023-.207V-6.3l.069-.184-.069-.276.092-.759v-.805l-.092-.46.115-.184-.023-.092-.092-1.242-.161-.759v-.207l.138-.782-.092-.3-.046-.552q-.046-.552-.046-.483,0-.8,1.265-.851l.506-.276-.092,1.127.092.644-.161.667.046.736.115.414-.069.391.046.552-.069.46.115.483-.046.115.092.23-.115.644v.138l.115.437q-.115.046-.115.345l-.069.552.046.207.276-.483.138-.529.322-.529a.612.612,0,0,1,.161-.414h.253l.184-.391.529-.253a1.865,1.865,0,0,1,.736-.46l.138-.115.368-.184.3-.069a4.07,4.07,0,0,1,2.093-.552l1.794.138.368.207.184.023.391.414L245-9.706a.867.867,0,0,1,.437.437q.115-.023.092-.023a.306.306,0,0,1,.184.069l.483.989-.023.115a.942.942,0,0,1,.115.414,1.042,1.042,0,0,1-.253.644v.138l-.322.851-.483.667-.138.023-.276.368a.529.529,0,0,1-.391-.138v.368l-.184.115-.138.253-.414.115q-.092.023-.207.207a12.082,12.082,0,0,1-1.771.621,1.878,1.878,0,0,1-.264-.035,1.966,1.966,0,0,0-.333-.034.32.32,0,0,0-.138.023q.023.069.253.506l.3.184.414.736.621.368.046.092.207.115.3.345.552.437.736.3.414.115.3-.023.161-.069a1.984,1.984,0,0,0,.874-.368l.391-.713.23-.276.138-.414a1.856,1.856,0,0,1,.552-.115A.686.686,0,0,1,248.147-1.7Zm10.028-7.613-.23.3.184.552-.3.345-.115.483-.069.115.046.115a.656.656,0,0,1-.161.483l-.046.069v.092a.764.764,0,0,1,.069.3.394.394,0,0,1-.023.161l.023.092-.092.253.069.276-.184.184.069.322.138.161-.207.184v.368l-.161.368.115.368-.138.184.23.161-.322.529-.023.069.23.046-.161.529v.092a1.091,1.091,0,0,1-.023.253l.023.069.368.046.3.46-.161.345.253-.023a1.481,1.481,0,0,1,.161.483l-.345.345a1.982,1.982,0,0,1-.46.322l-.391.207-.115-.115-.23.138-.713-.828V-.805a2.977,2.977,0,0,1-.138-.851v-.138l-.138-1.357.184-.966-.138-.552-.391.644-.207.6-.184.092-.322.506-.575.529-.161.276-.506.437-.115.3-.736.46-.782.874-.437.092-.3.23a1.067,1.067,0,0,1-.874-.437,1.676,1.676,0,0,1-1.081-1.449L249-1.587l-.023-.138L248.952-2l-.138-.3.138-.322L249-3.105l.161-.759v-.092a.2.2,0,0,1-.023-.092.757.757,0,0,1,.046-.23.478.478,0,0,1-.023-.184,1.765,1.765,0,0,1,.138-.529l.161-.069a.329.329,0,0,1-.138-.253.32.32,0,0,1,.023-.138.51.51,0,0,1-.023-.161.442.442,0,0,1,.276-.414,1.377,1.377,0,0,1,.253-.46l-.115-.184.276-.345v-.092a1.249,1.249,0,0,1,.3-.805l-.023-.414.092-.092v-.069a.177.177,0,0,1-.023-.069.312.312,0,0,1,.092-.23v-.138a3.009,3.009,0,0,1,.483-.69,4.773,4.773,0,0,0,.575-.805l.115.115.253-.115.115-.046.759-.345,1.771.092v.161l.552.115a.681.681,0,0,1,.69.345.676.676,0,0,1,.023-.161v-.092l.483.437.437.092.828-.207.3.575Zm-2.185,1.2L255.9-8.28l-.184-.046L255-8.9l-.46-.069h-.368l-.046-.046-.184.069-.207-.115h-.6l.069.092-.529.184-.092.115-.069.023a3.314,3.314,0,0,0-.575.575l-.161.552-.092.207.23.322-.391.3.046.092a1.7,1.7,0,0,0-.253.851l-.184.23v.414l-.184.207-.046.207-.069.046v.322l-.069.115a1.653,1.653,0,0,1-.046.437l.046.115-.207.437.092.138-.161.23.161.437-.253.322.046.437v.069l.092.046.115-.023a2.8,2.8,0,0,1,.23-.207l-.046-.184L251.16-2l.069-.161,1.357-1.1.138-.046.161-.391a2.653,2.653,0,0,0,.391-.184l.138-.368h.184l-.069-.391.322-.046a1.6,1.6,0,0,1,.15-.23,2.355,2.355,0,0,1,.219-.253l1.173-1.564.184-.345-.023-.092.161-.253.046-.253.207-.184Z" transform="translate(-1704 4110.663)"/>
    <g id="グループ_713" data-name="グループ 713" transform="translate(-1600.78 3900.217)">
      <g id="グループ_712" data-name="グループ 712" class="cls-11">
        <path id="パス_7095" data-name="パス 7095" class="cls-10" d="M3.914,21.572c.608-1.616-1.1-6.188-.74-8.589,3.734-.831,2.614,5.191,4.45,7.509.1-3.257-1.745-8.619.015-10.318,1.708,2.644,3.726,8.993,4.814,13.943.849,3.859,1.239,7.166-1.481,8.733,1.181,4.329,2.184,9.215,3.423,14.348,1.459,6.047,3.886,12.554,1.974,16.278-1.494.249-2.122-1.5-2.5-2.54-3.108-8.5-3.713-18.064-6.7-26.475-.446-.962-1.8-.273-2.492-.783C2.433,30.114,1.292,25.057.524,20.3c-.376-2.337-1.01-4.936.1-6.57,1.851.773,2.362,5.165,3.291,7.846M4.7,25.118c-2.346-1.6-1.775-6.007-3.59-8.01.827,5.081,1.573,11.959,4.659,16,.84-.109,2.1-.986,2.455-.211,1.8,10,4.721,19.493,7.513,29.256.067-9.319-3.857-19.281-5.988-29.2.308-1.26,1.853-1.839,2.407-2.964-.889-5.538-1.463-10.635-4.128-15.9-.412,2.958,2.494,7.734.314,9.72-2.472-1.638-2.247-6.993-4.159-9.1-.042,2.914,2.732,8.148.517,10.413"/>
        <path id="パス_7096" data-name="パス 7096" class="cls-10" d="M40.289,17.771c2.349,4.2,4.864,8.675,7.133,13.268,2.2,4.459,5.33,8.731,6.139,13.305-2.585.466-3.5-2.851-4.567-4.455-3.707-5.577-7.5-12.3-11.238-17.857a8.571,8.571,0,0,0-2.918.346C29.013,18.557,26.656,8.418,22.82.974c.554-.086.063-.745.493-.9,1.661-.694,5.357,3.64,6.829,5.308,3.893,4.418,6.51,9.511,10.147,12.388m-5.623,3.148c1.114-.019,2.332-.23,3.447-.249,4.5,5.4,7.644,13.286,12.205,18.583-3.492-6.095-5.477-12.161-8.88-17.539-1.264-2-3.236-3.553-4.607-5.451-3.983-5.505-7.754-11-12.717-15.163,3.08,6.227,5.8,15.516,10.552,19.819"/>
      </g>
    </g>
  </g>
</svg>
