<svg xmlns="http://www.w3.org/2000/svg" width="394.288" height="358.274" viewBox="0 0 394.288 358.274">
  <defs>
    <style>
      .cls-1 {
        fill: #306e1d;
      }

      .cls-2, .cls-7 {
        fill: #fce952;
      }

      .cls-3 {
        fill: #edbc32;
      }

      .cls-4, .cls-9 {
        fill: #282828;
      }

      .cls-5 {
        fill: #739f66;
      }

      .cls-5, .cls-6, .cls-7, .cls-8, .cls-9 {
        fill-rule: evenodd;
      }

      .cls-6 {
        fill: #fff;
      }

      .cls-8 {
        fill: #a4cced;
      }

      .cls-10 {
        fill: #40682b;
      }
    </style>
  </defs>
  <g id="グループ_1149" data-name="グループ 1149" transform="translate(5106.144 1227.302)">
    <path id="パス_8778" data-name="パス 8778" class="cls-1" d="M4.428-18a1.912,1.912,0,0,1-1.422-.612,2,2,0,0,1-.594-1.44v-.108a2,2,0,0,1,.594-1.44,1.912,1.912,0,0,1,1.422-.612h10.8q.324,0,.324-.288v-4.752a1.94,1.94,0,0,1,.594-1.422,1.94,1.94,0,0,1,1.422-.594h.864a1.94,1.94,0,0,1,1.422.594,1.94,1.94,0,0,1,.594,1.422V-22.5q0,.288.324.288h10.8a1.912,1.912,0,0,1,1.422.612,2,2,0,0,1,.594,1.44v.108a2,2,0,0,1-.594,1.44A1.912,1.912,0,0,1,31.572-18H21.024q-.36,0-.288.324,1.62,10.332,11.736,16.02a1.742,1.742,0,0,1,.9,1.188,1.708,1.708,0,0,1-.288,1.44l-.288.36a2.3,2.3,0,0,1-1.368.936,2.116,2.116,0,0,1-1.62-.216A26.266,26.266,0,0,1,23.094-3.42a28.082,28.082,0,0,1-4.77-7.488.129.129,0,0,0-.126-.072.129.129,0,0,0-.126.072A28.389,28.389,0,0,1,13.122-3.4a27.056,27.056,0,0,1-6.93,5.49,2.122,2.122,0,0,1-1.638.2A2.373,2.373,0,0,1,3.2,1.332L2.916.972a1.708,1.708,0,0,1-.288-1.44,1.742,1.742,0,0,1,.9-1.188q10.116-5.688,11.736-16.02Q15.336-18,14.976-18Zm53.46-1.008-.144-.288a2.316,2.316,0,0,1-.252-1.638,2.5,2.5,0,0,1,.864-1.422,27.858,27.858,0,0,0,4.428-4.68,2.373,2.373,0,0,1,1.35-.954,2.337,2.337,0,0,1,1.638.126l.036.036a1.847,1.847,0,0,1,1.008,1.134A1.671,1.671,0,0,1,66.6-25.2a27.234,27.234,0,0,1-6.084,6.768,1.646,1.646,0,0,1-1.44.324A1.742,1.742,0,0,1,57.888-19.008Zm19.44-.324a71.868,71.868,0,0,0-5.58-5.8,1.7,1.7,0,0,1-.558-1.332,1.655,1.655,0,0,1,.63-1.3l.108-.036a2.606,2.606,0,0,1,1.6-.54,2.228,2.228,0,0,1,1.53.576,63.164,63.164,0,0,1,5.508,5.544,1.92,1.92,0,0,1,.5,1.494,2.077,2.077,0,0,1-.72,1.422l-.18.18a1.813,1.813,0,0,1-1.458.5A1.952,1.952,0,0,1,77.328-19.332Zm3.132,6.12a3.087,3.087,0,0,1,1.1,1.4,2.867,2.867,0,0,1,.126,1.764l-.144.612a1.274,1.274,0,0,1-.864.99,1.283,1.283,0,0,1-1.3-.162l-.072-.036q-.216-.144-.216.144v9.5a1.97,1.97,0,0,1-.612,1.44,1.97,1.97,0,0,1-1.44.612H75.852a1.382,1.382,0,0,1-1.008-.432,1.422,1.422,0,0,1-.432-1.044.191.191,0,0,0-.216-.216H64.3a.191.191,0,0,0-.216.216,1.441,1.441,0,0,1-.432,1.026,1.394,1.394,0,0,1-1.044.45H61.56a1.97,1.97,0,0,1-1.44-.612,1.97,1.97,0,0,1-.612-1.44v-9.36a.177.177,0,0,0-.09-.162.12.12,0,0,0-.162.018.838.838,0,0,1-.216.144.838.838,0,0,0-.216.144,1.325,1.325,0,0,1-1.368.108q-.216-.072-.216.108a1.547,1.547,0,0,1-.108.864A47.188,47.188,0,0,1,53.352,1.4a1.765,1.765,0,0,1-1.242.9,1.9,1.9,0,0,1-1.53-.288L50.22,1.8A2.037,2.037,0,0,1,49.356.5a2.16,2.16,0,0,1,.216-1.548A54.014,54.014,0,0,0,53.1-8.676,1.911,1.911,0,0,1,54.144-9.81a1.98,1.98,0,0,1,1.548-.054l.144.036a1.977,1.977,0,0,1,.54.324q.036.036.108,0a.071.071,0,0,0,.036-.108l-.072-.324A2.751,2.751,0,0,1,57.708-13,40.171,40.171,0,0,0,65.7-19.944a4.366,4.366,0,0,1,3.384-1.584h.576a4.3,4.3,0,0,1,3.348,1.548A46.634,46.634,0,0,0,80.46-13.212ZM74.412-2.52V-7.848a.286.286,0,0,0-.324-.324h-9.72q-.288,0-.288.324V-2.52a.255.255,0,0,0,.288.288h9.72Q74.412-2.232,74.412-2.52Zm.324-9.468q.072,0,.108-.09t-.036-.126a48.275,48.275,0,0,1-5.256-5.544q-.216-.252-.4,0A45.542,45.542,0,0,1,64.008-12.2q-.072.036-.036.126t.108.09ZM50.76-24.66A1.942,1.942,0,0,1,50-25.992a1.843,1.843,0,0,1,.432-1.476l.072-.036a2.1,2.1,0,0,1,1.422-.774,2.117,2.117,0,0,1,1.53.414q2.052,1.584,2.808,2.232a2.077,2.077,0,0,1,.72,1.422,2.1,2.1,0,0,1-.468,1.53l-.108.108a1.858,1.858,0,0,1-1.35.7,2,2,0,0,1-1.458-.486Q51.7-23.94,50.76-24.66ZM49.212-16.7a1.955,1.955,0,0,1-.756-1.35,1.87,1.87,0,0,1,.432-1.494l.036-.036a2.171,2.171,0,0,1,1.4-.774,2.021,2.021,0,0,1,1.548.378q1.512,1.116,3.528,2.88a2.01,2.01,0,0,1,.7,1.422,2.171,2.171,0,0,1-.486,1.53l-.108.108a1.76,1.76,0,0,1-1.332.7,1.907,1.907,0,0,1-1.44-.486Q51.984-14.472,49.212-16.7Zm47.628.144a1.9,1.9,0,0,1-1.368-.558,1.81,1.81,0,0,1-.576-1.35,1.869,1.869,0,0,1,.576-1.368,1.869,1.869,0,0,1,1.368-.576h.9a.255.255,0,0,0,.288-.288v-5.94a1.97,1.97,0,0,1,.612-1.44,1.97,1.97,0,0,1,1.44-.612h.54a1.912,1.912,0,0,1,1.422.612,2,2,0,0,1,.594,1.44v5.94q0,.288.324.288h.936a1.869,1.869,0,0,1,1.368.576,1.869,1.869,0,0,1,.576,1.368,1.81,1.81,0,0,1-.576,1.35,1.9,1.9,0,0,1-1.368.558h-.936q-.324,0-.324.288v9.72q0,.288.324.216,1.08-.36,1.584-.54h.108a.232.232,0,0,0,.18-.324,1.335,1.335,0,0,1,.036-1.008,1.5,1.5,0,0,1,.684-.756,25.9,25.9,0,0,0,3.384-2.376.071.071,0,0,0,.036-.108.115.115,0,0,0-.108-.072h-2.016a1.608,1.608,0,0,1-1.206-.5,1.655,1.655,0,0,1-.486-1.188,1.655,1.655,0,0,1,.486-1.188,1.608,1.608,0,0,1,1.206-.5H126.5a1.608,1.608,0,0,1,1.206.5,1.655,1.655,0,0,1,.486,1.188,1.655,1.655,0,0,1-.486,1.188,1.608,1.608,0,0,1-1.206.5H114.336a.733.733,0,0,0-.54.216q-.252.288-.828.864-.18.18.108.18h12.24a1.97,1.97,0,0,1,1.44.612,1.97,1.97,0,0,1,.612,1.44v.9a34.867,34.867,0,0,1-.486,6.768,5.368,5.368,0,0,1-1.4,3.024,4.26,4.26,0,0,1-2.754.756q-.468,0-2.268-.072a1.94,1.94,0,0,1-1.35-.612,2.234,2.234,0,0,1-.63-1.4,1.544,1.544,0,0,1,.5-1.26,1.706,1.706,0,0,1,1.3-.468q.4.036,1.008.036a1.155,1.155,0,0,0,.954-.378,3.89,3.89,0,0,0,.486-1.692,31.619,31.619,0,0,0,.18-3.942V-6.8q0-.216-.252-.216a.354.354,0,0,0-.324.18,28.532,28.532,0,0,1-3.564,5.076,31.275,31.275,0,0,1-4.68,4.464,2.17,2.17,0,0,1-1.458.414,2.1,2.1,0,0,1-1.386-.63,1.447,1.447,0,0,1-.432-1.224,1.577,1.577,0,0,1,.648-1.152,29.483,29.483,0,0,0,6.66-6.84.143.143,0,0,0,.018-.18.173.173,0,0,0-.162-.108h-1.548a.584.584,0,0,0-.5.252,32.614,32.614,0,0,1-9.18,7.7,2.187,2.187,0,0,1-1.494.252,2.108,2.108,0,0,1-1.278-.756,1.332,1.332,0,0,1-.306-1.17,1.374,1.374,0,0,1,.7-.99A32.516,32.516,0,0,0,111.24-6.8q.072-.036.018-.126a.152.152,0,0,0-.126-.09h-2.016a1.079,1.079,0,0,0-.576.18,10.366,10.366,0,0,1-.9.576,1.522,1.522,0,0,1-1.08.252.223.223,0,0,0-.252.252,2.364,2.364,0,0,1-.288,1.4,2.09,2.09,0,0,1-1.044.936,67.6,67.6,0,0,1-7.7,2.736,1.694,1.694,0,0,1-1.458-.234A1.718,1.718,0,0,1,95.04-2.16v-.072a2.14,2.14,0,0,1,.4-1.566,2.155,2.155,0,0,1,1.332-.882q.144-.036.468-.108T97.7-4.9a.37.37,0,0,0,.324-.4v-10.98a.255.255,0,0,0-.288-.288Zm12.024-11.988h15.552a1.94,1.94,0,0,1,1.422.594,1.94,1.94,0,0,1,.594,1.422v8.424a2,2,0,0,1-.594,1.44,1.912,1.912,0,0,1-1.422.612H108.864a1.912,1.912,0,0,1-1.422-.612,2,2,0,0,1-.594-1.44v-8.424a1.94,1.94,0,0,1,.594-1.422A1.94,1.94,0,0,1,108.864-28.548Zm12.78,9.324V-20.3a.255.255,0,0,0-.288-.288h-9.648q-.324,0-.324.288v1.08a.286.286,0,0,0,.324.324h9.648Q121.644-18.9,121.644-19.224Zm0-4.392v-1.008q0-.324-.288-.324h-9.648a.286.286,0,0,0-.324.324v1.008a.286.286,0,0,0,.324.324h9.648Q121.644-23.292,121.644-23.616Z" transform="translate(-4975 -981.109)"/>
    <path id="パス_6522" data-name="パス 6522" class="cls-2" d="M104.636,227.127a790.639,790.639,0,0,0-92.069,16.416q4.016-14.561,8.531-29.1Q10.782,202.7,0,191.2a844.32,844.32,0,0,1,98.337-17.533q3.15,26.731,6.3,53.464" transform="translate(-5106.144 -1227.303)"/>
    <path id="パス_6523" data-name="パス 6523" class="cls-3" d="M104.636,227.127Q77.829,216.972,49.509,208.7q-4.863-26.475-9.727-52.948,30.012,7.929,58.555,17.908,3.15,26.731,6.3,53.464" transform="translate(-5106.144 -1227.303)"/>
    <path id="パス_6524" data-name="パス 6524" class="cls-2" d="M289.652,227.127a790.639,790.639,0,0,1,92.069,16.416q-4.016-14.561-8.531-29.1,10.314-11.75,21.1-23.249a844.319,844.319,0,0,0-98.337-17.533q-3.15,26.731-6.3,53.464" transform="translate(-5106.144 -1227.303)"/>
    <path id="パス_6525" data-name="パス 6525" class="cls-3" d="M289.652,227.127q26.807-10.155,55.127-18.424l9.726-52.948q-30.011,7.929-58.554,17.908-3.15,26.731-6.3,53.464" transform="translate(-5106.144 -1227.303)"/>
    <path id="パス_6526" data-name="パス 6526" class="cls-2" d="M344.779,208.7a817.133,817.133,0,0,0-295.269,0q-4.863-26.474-9.727-52.948a870.94,870.94,0,0,1,314.723,0q-4.865,26.474-9.727,52.948" transform="translate(-5106.144 -1227.303)"/>
    <path id="パス_6527" data-name="パス 6527" class="cls-4" d="M36.312,107.207a1.937,1.937,0,0,1-.57-.086l-8.907-2.706a1.965,1.965,0,1,1,1.14-3.761l8.906,2.707a1.965,1.965,0,0,1-.569,3.846" transform="translate(-5106.144 -1227.303)"/>
    <path id="パス_6528" data-name="パス 6528" class="cls-4" d="M77.446,119.706a1.9,1.9,0,0,1-.573-.084L42.351,109.133a1.965,1.965,0,1,1,1.142-3.76l34.522,10.489a1.964,1.964,0,0,1-.569,3.844" transform="translate(-5106.144 -1227.303)"/>
    <path id="パス_6529" data-name="パス 6529" class="cls-4" d="M71.237,74.31a1.952,1.952,0,0,1-1.122-.353L49.341,59.506a1.965,1.965,0,0,1,2.244-3.226L72.36,70.732a1.966,1.966,0,0,1-1.123,3.578" transform="translate(-5106.144 -1227.303)"/>
    <path id="パス_6530" data-name="パス 6530" class="cls-4" d="M95.593,91.255a1.964,1.964,0,0,1-1.121-.351l-18.68-13a1.965,1.965,0,1,1,2.243-3.226l18.681,13a1.965,1.965,0,0,1-1.123,3.578" transform="translate(-5106.144 -1227.303)"/>
    <path id="パス_6531" data-name="パス 6531" class="cls-4" d="M104.54,39.377a1.957,1.957,0,0,1-1.633-.869l-5.019-7.483a1.965,1.965,0,1,1,3.263-2.189l5.019,7.482a1.964,1.964,0,0,1-.536,2.725,1.943,1.943,0,0,1-1.094.334" transform="translate(-5106.144 -1227.303)"/>
    <path id="パス_6532" data-name="パス 6532" class="cls-4" d="M126.5,72.123a1.975,1.975,0,0,1-1.635-.872L106.677,44.13a1.966,1.966,0,1,1,3.265-2.191l18.191,27.122a1.967,1.967,0,0,1-1.631,3.062" transform="translate(-5106.144 -1227.303)"/>
    <path id="パス_6533" data-name="パス 6533" class="cls-4" d="M158.672,43.357a1.964,1.964,0,0,1-1.888-1.428l-10.1-35.5a1.964,1.964,0,1,1,3.778-1.075l10.1,35.5a1.962,1.962,0,0,1-1.351,2.426,2.008,2.008,0,0,1-.539.075" transform="translate(-5106.144 -1227.303)"/>
    <path id="パス_6534" data-name="パス 6534" class="cls-4" d="M163.783,61.33A1.964,1.964,0,0,1,161.9,59.9L158.5,47.977a1.964,1.964,0,0,1,3.778-1.077l3.393,11.927a1.964,1.964,0,0,1-1.351,2.427,2.028,2.028,0,0,1-.54.076" transform="translate(-5106.144 -1227.303)"/>
    <path id="パス_6535" data-name="パス 6535" class="cls-4" d="M196.2,26.632a1.963,1.963,0,0,1-1.96-1.878l-.53-11.908a1.964,1.964,0,0,1,3.925-.175l.529,11.908a1.963,1.963,0,0,1-1.876,2.051c-.028,0-.058,0-.088,0" transform="translate(-5106.144 -1227.303)"/>
    <path id="パス_6536" data-name="パス 6536" class="cls-4" d="M197.634,58.876A1.962,1.962,0,0,1,195.675,57l-1.164-26.161a1.963,1.963,0,0,1,1.875-2.05,1.916,1.916,0,0,1,2.049,1.875L199.6,56.825a1.962,1.962,0,0,1-1.875,2.049c-.028,0-.058,0-.088,0" transform="translate(-5106.144 -1227.303)"/>
    <path id="パス_6537" data-name="パス 6537" class="cls-4" d="M241.264,13.434a2.015,2.015,0,0,1-.407-.041,1.964,1.964,0,0,1-1.518-2.327l2-9.5a1.964,1.964,0,0,1,3.845.808l-2,9.5a1.964,1.964,0,0,1-1.921,1.56" transform="translate(-5106.144 -1227.303)"/>
    <path id="パス_6538" data-name="パス 6538" class="cls-4" d="M231,62.31a2.012,2.012,0,0,1-.433-.046,1.968,1.968,0,0,1-1.487-2.348c3.245-14.472,6.151-28.3,8.887-42.289a1.964,1.964,0,1,1,3.854.755c-2.741,14.019-5.655,27.887-8.907,42.394A1.961,1.961,0,0,1,231,62.31" transform="translate(-5106.144 -1227.303)"/>
    <path id="パス_6539" data-name="パス 6539" class="cls-4" d="M279.858,41.709a1.964,1.964,0,0,1-1.771-2.81l6.57-13.743a1.965,1.965,0,1,1,3.544,1.7l-6.568,13.737a1.967,1.967,0,0,1-1.775,1.118" transform="translate(-5106.144 -1227.303)"/>
    <path id="パス_6540" data-name="パス 6540" class="cls-4" d="M264.843,73.1a1.965,1.965,0,0,1-1.771-2.814L275.3,44.717a1.965,1.965,0,0,1,3.545,1.7L266.618,71.988a1.974,1.974,0,0,1-1.775,1.116" transform="translate(-5106.144 -1227.303)"/>
    <path id="パス_6541" data-name="パス 6541" class="cls-4" d="M325.989,52.1a1.963,1.963,0,0,1-1.5-3.23l7.533-8.93a1.965,1.965,0,0,1,3,2.536l-7.534,8.926a1.958,1.958,0,0,1-1.5.7" transform="translate(-5106.144 -1227.303)"/>
    <path id="パス_6542" data-name="パス 6542" class="cls-4" d="M293.788,90.273a1.964,1.964,0,0,1-1.5-3.233l27.569-32.675a1.964,1.964,0,1,1,3,2.533L295.291,89.576a1.963,1.963,0,0,1-1.5.7" transform="translate(-5106.144 -1227.303)"/>
    <path id="パス_6543" data-name="パス 6543" class="cls-4" d="M335.94,110.716a1.964,1.964,0,0,1-.815-3.752L366.07,92.9a1.965,1.965,0,1,1,1.628,3.576L336.752,110.54a1.922,1.922,0,0,1-.812.176" transform="translate(-5106.144 -1227.303)"/>
    <path id="パス_6544" data-name="パス 6544" class="cls-4" d="M312.921,121.18a1.965,1.965,0,0,1-.815-3.753l16.913-7.685a1.964,1.964,0,0,1,1.625,3.577L313.734,121a1.943,1.943,0,0,1-.813.177" transform="translate(-5106.144 -1227.303)"/>
    <path id="パス_6545" data-name="パス 6545" class="cls-5" d="M162.638,323.014c-8.717,4.116-14.248,9.391-20.822,14.287-1.721-7.637-.68-15.745-.745-23.347,8.123.791,15.358,5.609,21.567,9.06" transform="translate(-5106.144 -1227.303)"/>
    <path id="パス_6546" data-name="パス 6546" class="cls-6" d="M174.916,328.687c7.913,2.182,15.626,4.773,24.822,4.265-5.769,7.355-12.129,14.495-17.819,21.878-3.619-7.185-3.389-16.785-7-26.143" transform="translate(-5106.144 -1227.303)"/>
    <path id="パス_6547" data-name="パス 6547" class="cls-7" d="M214.932,332.51c7.009-.779,16.274-5.3,23.853-8.4a119.384,119.384,0,0,1-4.4,14.124c-1.662,4.575-3.065,9.226-4.822,13.8-4.513-7.28-9.638-13.263-14.631-19.522" transform="translate(-5106.144 -1227.303)"/>
    <path id="パス_6548" data-name="パス 6548" class="cls-8" d="M275.561,315.131c-.979,8.3-.955,16.973-2.923,24.917-7.752-6.468-15.348-13.255-22.9-20.145,3.111-2.028,6.8-1.757,10.365-2.546,5.592-1.244,10.648-3.093,15.459-2.226" transform="translate(-5106.144 -1227.303)"/>
    <path id="パス_6549" data-name="パス 6549" class="cls-9" d="M295.325,318.578c-9.587-3.722-19.119-6.913-31.194-4.369-1.954.412-12.6,3.059-13.75,3.533-7.59,3.115-26.761,11-28.681,11.6-5.285,1.638-11.721,1.645-17.024,1.826-5.765.2-11.495.358-16.478-.539-10.436-1.877-34.447-14.142-38.2-15.809-2.348-1.043-5.549-2.511-8.095-2.611a93.428,93.428,0,0,0-10.231,1.058c-5.7,1.382-10.592,4.478-15.233,6.239-7.546,2.858-15.478,2.969-20.03-1.664-.914-.931-.783-2.1-2.953-2.786,2.013,6.428,8.524,8.58,14.8,8.135,10.227-.727,21.358-9.945,31.3-8.927-.574,3.78-.973,21.486.726,26.245,7.91-5.719,14.666-11.86,24.571-16.851,2.118,2.112,6.278,2.254,8.066,4.306.628.719,5.7,26.455,8.127,30.315,2.533-1.349,16.3-19.174,21.893-25.521,3.028.455,6.638-.32,9.815-.181a190.968,190.968,0,0,1,13.432,17.547c1.427,2.137,2.482,5.078,4.635,5.794,1.131-3.578,8.138-25.412,10.541-32.739a47.192,47.192,0,0,0,6.488-2.591c6.571,5.521,23.549,21.24,26.365,22.263,2.058-8.709,2.244-19.008,3.372-27.486a40.893,40.893,0,0,1,20.031,6.96c1.752,1.14,3.616,3.3,6.026,2.881-.976-2.453-8.258-7.018-8.326-6.624M141.816,337.3c-1.72-7.637-.68-15.746-.744-23.347,8.123.791,15.357,5.609,21.566,9.06-8.717,4.116-14.248,9.391-20.822,14.287m40.1,17.53c-3.619-7.185-3.389-16.785-7-26.143,7.913,2.182,15.626,4.773,24.822,4.264-5.769,7.356-12.129,14.495-17.819,21.879m52.467-16.594c-1.662,4.574-3.065,9.225-4.822,13.8-4.513-7.28-9.638-13.263-14.631-19.522,7.009-.779,16.274-5.3,23.852-8.4a119.266,119.266,0,0,1-4.4,14.125m38.253,1.811c-7.752-6.468-15.349-13.255-22.9-20.145,3.111-2.028,6.8-1.757,10.364-2.546,5.592-1.245,10.649-3.093,15.46-2.226-.979,8.3-.955,16.972-2.923,24.917" transform="translate(-5106.144 -1227.303)"/>
    <path id="パス_6550" data-name="パス 6550" class="cls-9" d="M61.211,301.494c3.226.158,2.567,4.2,4.349,5.8,2.959-.9,2.5-5.228,6.279-5.313-4.678,6.541-3.981,13.875,1.932,18.354-1.834,1.235-3.754-.876-5.8-.965-3.653,2.227.006,9.134-4.83,9.659-1.072-2.792-1.023-6.7-.965-10.626-2.428-.317-3.9.608-5.314,0,.788-3.4,3.982-4.393,5.314-7.245-.959-2.582-1.064-6.022-.969-9.66" transform="translate(-5106.144 -1227.303)"/>
    <path id="パス_6551" data-name="パス 6551" class="cls-9" d="M331.142,303.655c.867-.062,1.02.59,1.934.483-.321,1.773-.514,3.671-.966,5.313,1.213,2.522,2.8.4,5.311.483-.166,2.734-2.945,2.85-4.345,4.347-.676,3.262,1.419,6.295,0,8.7-2.383.129-1.659-2.851-2.9-3.864-3.168,1.017-3.453,4.919-6.28,6.277-1.9-2.084.653-4.574,1.449-6.761-.275-2.462-3.86-1.614-3.863-4.347,6.064-.7,8.449-5.073,9.658-10.626" transform="translate(-5106.144 -1227.303)"/>
    <path id="パス_8777" data-name="パス 8777" class="cls-1" d="M-133.238-20.956c-.062,1.24-.062,1.4.186,18.724,2.015.124,7.44.186,7.44.186l.31-3.875-3.534.062c.155-3.5.124-8.122.372-15.159Zm28.365,3.844-5.239-.062.155,2.046a6.409,6.409,0,0,0-4.371-1.612c-4.867-.155-8.308,4.743-7.068,9.362,2.046,7.657,10.664,6.138,12.648,3.813a5.707,5.707,0,0,0,8.122-.186C-105.9-4.123-106.02-8.215-104.873-17.112ZM-113.491-6.2a2.957,2.957,0,0,1-3.348-2.635,3.065,3.065,0,0,1,3.472-3.6,2.984,2.984,0,0,1,2.79,2.914A3.006,3.006,0,0,1-113.491-6.2Zm18.786-6.851.341-3.906-4.4.062c.062,2.945-.031,14.88-.031,14.88l4.96-.062c-.062-.744-.4-7.44-.4-7.44.465-2.077,1.829-2.48,3.441-2.6A6.7,6.7,0,0,1-86.955-11.1l.155-5.084C-91.326-17.391-93.806-15.81-94.705-13.051Zm22.072-2.883.5-3.007-4.247-.186.217,2.759c-5.394-.279-7.812,3.534-7.5,7.657a6.628,6.628,0,0,0,7.626,6.355C-75.95.31-75.733,1.4-77.221,1.4-78.771,1.4-79.36-.93-79.36-.93l-2.387,2.356a5.041,5.041,0,0,0,4.774,4c4.836.031,4.464-4.4,3.813-8.277,2.728-.651,4.805-2.914,4.929-6.51A6.54,6.54,0,0,0-72.633-15.934Zm-2.945,9.889a3.125,3.125,0,0,1-3.286-3.038,2.974,2.974,0,0,1,2.976-3.441A3.051,3.051,0,0,1-72.6-9.548,3.172,3.172,0,0,1-75.578-6.045Zm23.5,4.557c4.092-.279,6.727-3.1,7.254-7.223l-2.666-1.86c-.527,3.5-3.193,6.262-6.665,4.96,5.673-6.851,5.8-6.82,7.068-8.649-1.333-1.767-4.185-2.883-7.254-2.6-5.053.4-7.471,5.518-6.076,10.013A8,8,0,0,0-52.08-1.488Zm-3.875-11.377a3.532,3.532,0,0,1,4.216,0l-4.9,4.96A3.509,3.509,0,0,1-55.955-12.865ZM-25.2-16.213a8.06,8.06,0,0,0-3.968.713c.062-.744.155-1.674.155-1.674l-5.115.093c.155,5.642-.062,20.832-.062,20.832h5.27L-29.7-2.6c4.061,1.209,10.6-.124,10.726-6.479C-18.879-12.927-21.111-15.81-25.2-16.213Zm.992,7.223C-24.4-6.82-26.567-5.7-29.264-6.045l-.031-5.673a3.444,3.444,0,0,1,2.6-.713A2.912,2.912,0,0,1-24.211-8.99Zm12.431,7.1a6.21,6.21,0,0,0,4.9-2.635c0,.31-.341,2.6-.341,2.6l4,.031c.062-.775-.062-14.508-.062-14.508l-4.371.093C-6.913-8-9.455-6.231-10.788-6.293c-3.875.186-2.759-5.735-2.449-10.106l-4.433-.093C-18.879-4.681-15.624-1.86-11.78-1.891ZM9.548-16.771c-2.294-.062-4.774,1.085-5.363,3.379l.5-8.68H-.093c.031,4.433.186,20.15.186,20.15L3.41-1.953l.558-2.821A6.225,6.225,0,0,0,8.99-1.953c2.883.186,6.727-1.674,7.1-7.254A6.908,6.908,0,0,0,9.548-16.771Zm-.9,10.633a3.2,3.2,0,0,1-3.1-3.41,3.056,3.056,0,0,1,2.883-3.131A2.97,2.97,0,0,1,11.594-9.61C11.656-7.223,10.23-6.014,8.649-6.138ZM20.584-20.956c-.062,1.24-.062,1.4.186,18.724,2.015.124,7.44.186,7.44.186l.31-3.875-3.534.062c.155-3.5.124-8.122.372-15.159ZM33.945-2.2l4.65.093c0-.806-.248-14.291-.248-14.291l-4-.062C34.224-14.136,33.945-2.2,33.945-2.2Zm-.093-19.933a36.237,36.237,0,0,0,.651,3.813c1.426-.093,3.627-.465,3.627-.465l-.155-3.689ZM53.1-13.144l-.4-3.968c-8.432-.9-11.067,4.836-10.23,9.114a7.7,7.7,0,0,0,7.192,6.386c3.627.248,7.44-1.7,8.122-5.983L54.56-9.92a3.853,3.853,0,0,1-4.495,4,3.7,3.7,0,0,1-3.224-3.534C46.81-13.02,50.22-14.2,53.1-13.144Zm25.389-3.627c-2.294-.062-4.774,1.085-5.363,3.379l.5-8.68H68.851c.031,4.433.186,20.15.186,20.15l3.317-.031.558-2.821a6.225,6.225,0,0,0,5.022,2.821c2.883.186,6.727-1.674,7.1-7.254A6.908,6.908,0,0,0,78.492-16.771Zm-.9,10.633a3.2,3.2,0,0,1-3.1-3.41,3.056,3.056,0,0,1,2.883-3.131A2.97,2.97,0,0,1,80.538-9.61C80.6-7.223,79.174-6.014,77.593-6.138ZM104.47-17.112l-5.239-.062.155,2.046a6.409,6.409,0,0,0-4.371-1.612C90.148-16.9,86.707-12,87.947-7.378,89.993.279,98.611-1.24,100.6-3.565a5.707,5.707,0,0,0,8.122-.186C103.447-4.123,103.323-8.215,104.47-17.112ZM95.852-6.2A2.957,2.957,0,0,1,92.5-8.835a3.065,3.065,0,0,1,3.472-3.6,2.984,2.984,0,0,1,2.79,2.914A3.006,3.006,0,0,1,95.852-6.2Zm22.072,4.185c2.759.372,4.774-1.178,6.138-3.534l-2.325-3.007c-.31,1.023-1.333,2.635-2.852,2.387-1.488-.248-1.364-1.209-1.178-6.913,1.209.062,3.906-.186,3.906-.186l.031-3.193-3.565-.031.155-3.751-4.185-.31-.062,4-3.689-.031.124,3.255c1.395.155,2.945.5,2.945.5C113.243-8.587,112.809-2.7,117.924-2.015ZM137.3-16.74a5.518,5.518,0,0,0-5.518,3.255l-.031-7.874-4.185-.031c.093.682-.062,19.189-.062,19.189H132s-.031-4.96.031-6.665a3.4,3.4,0,0,1,2.759-3.348,2.472,2.472,0,0,1,2.79,2.48c.155,2.046-.062,7.564-.062,7.564l5.146.062c.155-4.991-.093-9.517-.651-11.1C141.081-15.841,139.19-16.461,137.3-16.74Z" transform="translate(-4910 -1042.028)"/>
    <path id="パス_8779" data-name="パス 8779" class="cls-1" d="M15.594-11.592q0,.138-.253.345a.676.676,0,0,0-.276.46,1.213,1.213,0,0,1-.322.368q-.069.276-.46.345l-.414.322-.3.552h-.23a2.2,2.2,0,0,1-.414.437q-.069.023-.391.184l-.483.529-.644.46-.207.069-.207.368-.506.3-.253.253-.23.575-.851.943-.276.414-.115.23.138.23L8.717-3.8l.115.391-.184.529.046.322.161.644a1.236,1.236,0,0,0-.345.759,3.022,3.022,0,0,0,.057.483,3.012,3.012,0,0,1,.057.46L8.441.805l.046.575L8.4,1.587l.161.828-.184.276.161.414L8.4,3.312l.092.184a.659.659,0,0,1,.069.3V3.91L8.4,4.485l.138.621-.207.437.207.276V5.98a2.367,2.367,0,0,1-.265,1.3,1.084,1.084,0,0,1-.954.379l-.207-1.1L6.9,5.888l-.023-.437-.3-.184.207-.46-.092-.322.092-.69-.138-.736.069-.575V2.323a.989.989,0,0,1-.023-.184.676.676,0,0,1,.023-.161V1.84L6.6.782,6.716.276,6.647-.276l.138-.92-.207-.368.115-.552L6.67-2.553l-.184-.414a1.74,1.74,0,0,0,.184-.644.376.376,0,0,0-.046-.207l-.092-.414-.138-.391-.23-.184-.138-.207A4.034,4.034,0,0,1,4.991-6.026l-.368-.23-.322-.6-.92-.828L3.2-8l-.368-.46-.69-.552v-.23l-.345-.23q-.092-.575-.483-.575a1.777,1.777,0,0,1-.966-1.61l.115-.6H.736a.767.767,0,0,1,.506-.138,3.31,3.31,0,0,1,.966.207l.161.368.368.115.414.644.6.437.023.207.483.759.345.253L5.865-7.659l.414.529q.828.851,1.288,1.38v-.069a.872.872,0,0,1,.276-.575l-.023.115a1.926,1.926,0,0,1,.391-.6.813.813,0,0,1,.322-.506,1.489,1.489,0,0,1,.437-.506l.207-.092.069-.092a.808.808,0,0,1,.828-.6l.046.092.207-.391q.276-.069.23-.069.207-.253.345-.414l.161-.3a1.5,1.5,0,0,1,.989-.6v-.276l.161-.184.23-.184.138-.483a.208.208,0,0,0,.184.115q.207,0,.368-.552l.69-.3.368-.368.644.046.483-.138.207.483A3.393,3.393,0,0,1,15.594-11.592ZM25.829-9.315l-.23.3.184.552-.3.345-.115.483-.069.115.046.115a.656.656,0,0,1-.161.483l-.046.069v.092a.764.764,0,0,1,.069.3.4.4,0,0,1-.023.161l.023.092-.092.253.069.276L25-5.5l.069.322.138.161L25-4.83v.368l-.161.368.115.368-.138.184.23.161-.322.529-.023.069.23.046-.161.529v.092a1.092,1.092,0,0,1-.023.253l.023.069.368.046.3.46-.161.345.253-.023a1.481,1.481,0,0,1,.161.483l-.345.345a1.982,1.982,0,0,1-.46.322l-.391.207L24.38.276l-.23.138-.713-.828V-.805a2.976,2.976,0,0,1-.138-.851v-.138l-.138-1.357.184-.966-.138-.552-.391.644-.207.6-.184.092-.322.506-.575.529-.161.276-.506.437-.115.3-.736.46-.782.874-.437.092-.3.23a1.067,1.067,0,0,1-.874-.437,1.676,1.676,0,0,1-1.081-1.449l.115-.069-.023-.138L16.606-2l-.138-.3.138-.322.046-.483.161-.759v-.092a.2.2,0,0,1-.023-.092.757.757,0,0,1,.046-.23.478.478,0,0,1-.023-.184,1.765,1.765,0,0,1,.138-.529l.161-.069a.329.329,0,0,1-.138-.253A.32.32,0,0,1,17-5.451a.51.51,0,0,1-.023-.161.442.442,0,0,1,.276-.414,1.376,1.376,0,0,1,.253-.46l-.115-.184.276-.345v-.092a1.249,1.249,0,0,1,.3-.805l-.023-.414.092-.092v-.069a.177.177,0,0,1-.023-.069.312.312,0,0,1,.092-.23v-.138a3.01,3.01,0,0,1,.483-.69,4.773,4.773,0,0,0,.575-.805l.115.115.253-.115.115-.046.759-.345,1.771.092v.161l.552.115a.681.681,0,0,1,.69.345.676.676,0,0,1,.023-.161v-.092l.483.437.437.092.828-.207.3.575Zm-2.185,1.2-.092-.161-.184-.046L22.655-8.9l-.46-.069h-.368l-.046-.046-.184.069-.207-.115h-.6l.069.092-.529.184-.092.115-.069.023a3.314,3.314,0,0,0-.575.575l-.161.552-.092.207.23.322-.391.3.046.092a1.7,1.7,0,0,0-.253.851l-.184.23v.414l-.184.207-.046.207-.069.046v.322l-.069.115a1.652,1.652,0,0,1-.046.437l.046.115-.207.437.092.138-.161.23.161.437-.253.322.046.437v.069l.092.046.115-.023a2.8,2.8,0,0,1,.23-.207l-.046-.184L18.814-2l.069-.161,1.357-1.1.138-.046.161-.391a2.654,2.654,0,0,0,.391-.184l.138-.368h.184l-.069-.391.322-.046a1.6,1.6,0,0,1,.149-.23,2.356,2.356,0,0,1,.219-.253l1.173-1.564.184-.345-.023-.092.161-.253.046-.253.207-.184Zm11.983-.138q0,.207-.414.391a.783.783,0,0,1-.345.207,3.116,3.116,0,0,0-.46.23l-.483-.161a1.529,1.529,0,0,1-.943.276l-.276-.069L32.5-7.2h-.621l-.391.253A1.413,1.413,0,0,0,31-7.038a1.039,1.039,0,0,1-.322.092.572.572,0,0,1-.253-.069l-.069.874.023.644-.069.8.046.874.069.414v.322l.322.69a.221.221,0,0,0-.069.161q0,.161.506.253l.046.276.161.069.276.184.184.138a1.938,1.938,0,0,1,.322-.046,1.3,1.3,0,0,1,.414.069,2.544,2.544,0,0,0,.391-.322.608.608,0,0,1,.391-.184h.069a.177.177,0,0,0,.069.023,1.058,1.058,0,0,1,.736-.575,1.138,1.138,0,0,1,.8.3v.161A.93.93,0,0,1,34.5-.9a1.112,1.112,0,0,1-.874.621l-.276.253h-.3l-.529.138a2.315,2.315,0,0,1-.529.046A.965.965,0,0,1,31.6.069h-.3L30.5-.368l-.207-.069-.483-.644-.276-.3-.506-1.15-.184-1.081.046-.276L28.7-4.14l.115-.322L28.7-4.968l.161-.161.046-.3L28.842-5.7l.046-.414L28.8-6.486l.115-.115v-.368l-.161-.069-.437.092-.414-.3H27.83q-.69,0-.69-.736V-8.05l-.276-.437L27.3-8.9l.575.092.3-.046.437.115h.483V-9.2l-.3-.644.3-.161-.115-.345L29-11.063l-.184-.3a.877.877,0,0,1-.161-.46.7.7,0,0,1,.115-.414l.069-.322.184-.184a5.745,5.745,0,0,1,.828-.115.7.7,0,0,1,.8.667l-.069.115a.713.713,0,0,1,.138.391.691.691,0,0,1-.023.115l-.046.138-.023.161.092.3-.023.115.046.322-.207.276.115.46-.092.552.184.207-.184.414.713-.092,1.265.115,1.012-.161.345.023.115-.023h.9Q35.627-8.763,35.627-8.257Zm9.591,6.371-.276.322-.253.6-.184.138-.161.322-.46.046-.3.3h-.46l-.276.23L42.6,0l-.3.069V.253L41.446.184l-.368.023L40.8.345l-.23-.138q.23-.023.368-.023-.184.023-1.1.092L39.767.253,39.583.23l-.3.161a2.187,2.187,0,0,0-.506-.207q-.506-.046-.667-.046h-.184a2.443,2.443,0,0,0-.345-.023.817.817,0,0,0-.368.092L36.892,0l-.184-.046a.9.9,0,0,1-.253-.069Q35.6-.207,35.6-1.541v-.207l.437-.322.552-.207.414.207h.322V-2a.716.716,0,0,1,.368.368l.184.023v.3l.3.069.069.046,2.944-.184.713-.115h.069l.046-.115.322-.046.046-.069a2.912,2.912,0,0,0,.9-.276l.023-.115a.9.9,0,0,1-.092-.161l-.115.023-.3-.23H42.6l-.115-.161.069-.092-.253.046L42.113-2.9a.807.807,0,0,1-.23.023,1.655,1.655,0,0,1-.6-.115h-.207l-.161-.069-.322.115-.184-.207h-.069L40.02-3.4l-.713-.276-.23-.184L38.2-4.025l-.092-.161L37.467-4.6l-.345-.759-.276-.391-.092-1.2.092-.138A1.635,1.635,0,0,1,37.214-8a.575.575,0,0,0,.345-.529L37.9-8.6a.9.9,0,0,1,.368-.345l.345-.276,1.449-.552.253-.069.46-.046.759-.207,1.449.092.046.115a1.143,1.143,0,0,1,.46.368v.115l.368.23-.161.552-.046.207a.636.636,0,0,1-.644.575.665.665,0,0,1-.621-.391V-8.3l-.276-.023-.322.092-.3-.207-.161.115a.919.919,0,0,0-.552.184,1.017,1.017,0,0,0-.667.276h-.3l-.207.161-.322.069-.046.046-.138.069-.207.207-.069.023-.207.322-.253.138a2.847,2.847,0,0,0-.115.506,1.2,1.2,0,0,0,.08.426.68.68,0,0,0,.311.219v.115l.3.161a1.814,1.814,0,0,1,.552.3h.46l.3.253.529.069.207.138.9.253L42-4.14,42.09-4.3a1.84,1.84,0,0,1,.805.276l.414.069.046.161h.368l.644.368a1.213,1.213,0,0,0,.506.552l.253.161-.069.276a.829.829,0,0,1,.161.483Zm14.674.552a1.055,1.055,0,0,1-.414.667L59.294-.6l-.161.207-.414.115q-.115.161-.23.161a.066.066,0,0,1-.046-.023h-.069a2.7,2.7,0,0,1-1.219.253h-.184L56.4,0l-.391-.184L55.131-.92l-.184-.621-.368-.3a.505.505,0,0,0,.069-.3,1.142,1.142,0,0,0-.184-.46l.069-.552v-.092a2.175,2.175,0,0,0-.161-.713l.138-.69-.3.6L53.866-4l-.046.483a.967.967,0,0,1-.437.092l-.253.552-.3.345a.632.632,0,0,1-.322.23l-.069.046-.828.851H51.52L51.083-.9l-.414.207-.23.3L49.91-.23l-.759.3-.46-.23a.651.651,0,0,1-.644-.414L47.84-.69a.989.989,0,0,1,.023-.184v-.161L47.5-1.357l.092-.138-.276-.644.092-.092-.046-.046v-.138a.378.378,0,0,1-.023-.115,1.672,1.672,0,0,1,.069-.483l.023-.6-.092-.483a.633.633,0,0,0,.115-.322.418.418,0,0,0-.138-.3l.253-.184v-.276l-.092-.759.253-1.472a4.265,4.265,0,0,0-.207-1.081q.069-.736.966-.805l.184.069.322.046.414.46-.138.6-.046.989.069.759-.138.276.069.184-.115.368v.23l-.046.069a.7.7,0,0,1,.023.207,2.258,2.258,0,0,1-.092.621l.115.161-.092.345.046.276v.322a.521.521,0,0,1,.115.345.817.817,0,0,1-.092.368v.092A2.436,2.436,0,0,1,49.2-2l.207.207q.138-.092.322-.23a.427.427,0,0,1,.322-.3v-.23a2.2,2.2,0,0,0,.437-.069l.046-.207.391-.161.069-.069a1.5,1.5,0,0,1,.529-.3V-3.45l.437-.322a.9.9,0,0,1,.575-.575,1.889,1.889,0,0,1,.345-.3l.3-.391v-.069l.092-.046.207-.092.115-.322.483-.207.092-.023.161-.161v-.207l.138-.046a.786.786,0,0,1,.368-.552l.345-.782.115-.414.046-.092h.092l.161-.115-.138-.046a3.719,3.719,0,0,0,.391-.874l.667-.023.529.437.23.368-.253.989-.345.46-.276.9-.23.138v.345l-.138.253.069.414-.184.161.092.736.046,1.035h.115v.6l.322.391.3.161.023.115a1.764,1.764,0,0,1,.391.115l.575.046.345-.092.621-.3a1.024,1.024,0,0,1,.46-.092Q59.892-1.932,59.892-1.334ZM72.358-2.852,72.174-2l.046.276-.046.069a1.012,1.012,0,0,1,.092.414.612.612,0,0,1-.069.276V-.92q0,.276-.207,2.254l-.046.437v.092l-.046.092-.023.092.023.138-.069.069-.069.138h-.092l.023.115-.046.138a.552.552,0,0,1-.115.322l-.115.368a1.3,1.3,0,0,1-.23.46,5.585,5.585,0,0,1-.575.8l-.391.3-.437.368-.345.161-.276.207-.184.046a2.542,2.542,0,0,1-1.035.3L67.8,5.957l-.207.092v.046a2.988,2.988,0,0,1-.667.092h-.9l-.552-.115L65,6.164l-.23-.207-.69-.069-.46-.414-.345-.184a1.505,1.505,0,0,1-1.058-1.219l.046-.092-.069-.368q.276-.437.506-.46a.69.69,0,0,1,.368-.115l.425.069a8.039,8.039,0,0,0,.886.092l-.046.345.276.184V4l-.184.23,1.058.322.529-.115V4.6l.161-.046h.046q.023,0,.3.046l.023.092.23-.115a2.871,2.871,0,0,1,1.1-.138,1.507,1.507,0,0,0,.23-.184.691.691,0,0,1,.115.023h.138q.138,0,.276-.276a.09.09,0,0,0,.092.069.224.224,0,0,0,.115-.046.237.237,0,0,1,.092-.046h.046l.736-.644.345-.529.023-.3.253-.322.023-.3.138-.276L70.61.989l.184-.575A2.735,2.735,0,0,1,70.771,0a3.831,3.831,0,0,1,.138-1.012l-.092-.368V-2.507L70.633-2.9v-.644l-.184-.483.023-.736-.023-.115-.161.046-.138.345-.345.3-.414.667-.6.414-.644.667a6.064,6.064,0,0,1-1.288,1.012l-.23.276-.345.207-.322.161-.3.3L65.3-.3a1.008,1.008,0,0,1-.529.253A1.993,1.993,0,0,1,63.618.3h-.253a1.736,1.736,0,0,1-.322.023A1.226,1.226,0,0,1,62.767.3L62.353.276l-.6-.575-.437-.575-.184-.483-.161-.92.092-.667.23-.782-.046-.253.207-.713.207-.414a2.44,2.44,0,0,0,.092-.713l.506-.943a.968.968,0,0,1,.345-.391l.23-.391.276-.3a1.113,1.113,0,0,1,.368-.529.545.545,0,0,0,.264-.345q.08-.253.862-.46l-.115.023.115-.046q.069-.115.322-.46l.276.046.207-.138a1.171,1.171,0,0,1,.782-.322h.161l.6-.23.345.115h.414l.253.138a.5.5,0,0,1,.368.207l.322.322.092.046.046.092L69-9.062l.023.115-.069.368L69-8.326l-.3.46-.667.092-.345-.552-.322-.115L67.206-8.6h-.23q-.115.046-.483.23l-.023.184h-.575a.708.708,0,0,1-.506.368,2.571,2.571,0,0,1-.276.161l-.184.437-.161.023-.023.207h-.322l-.3.483-.253.161-.092.322-.345.483-.046.46-.276.276-.253.989-.184.184.023.253-.276.874.069.276-.023.276a.829.829,0,0,1,.161.483l.161.046.069.138a.907.907,0,0,1,.506.092,3.43,3.43,0,0,1,1.127-.345.967.967,0,0,1,.391-.472q.253-.149,1.035-.563l.069.023a.521.521,0,0,1,.138-.345,3.292,3.292,0,0,0,.414-.184.406.406,0,0,0,.207-.3l.368-.092.23-.207.575-.782.161.092a5.164,5.164,0,0,1,.506-.621l.552-.644.046-.3a3.955,3.955,0,0,0,.644-1.472l-.115-.483-.184-.322.138-.345-.184-.253-.046-.322-.069-.23.23-.414a1.42,1.42,0,0,1,.529-.184,1.18,1.18,0,0,1,.552.207l.161.3.3.23.046.506q.069.207.161.621a.978.978,0,0,1,.115.483v.161l.046.138.253.368-.069.414.138.184A.867.867,0,0,1,71.9-6a1.092,1.092,0,0,1-.023.253l.207.069-.161.575.092.437a.943.943,0,0,1,.115.414,1.252,1.252,0,0,1-.115.46l.138.115ZM84.226-9.315l-.23.3.184.552-.3.345-.115.483-.069.115.046.115a.656.656,0,0,1-.161.483l-.046.069v.092a.764.764,0,0,1,.069.3.4.4,0,0,1-.023.161l.023.092-.092.253.069.276L83.4-5.5l.069.322.138.161L83.4-4.83v.368l-.161.368.115.368-.138.184.23.161-.322.529-.023.069.23.046-.161.529v.092a1.092,1.092,0,0,1-.023.253l.023.069.368.046.3.46-.161.345.253-.023a1.481,1.481,0,0,1,.161.483l-.345.345a1.982,1.982,0,0,1-.46.322l-.391.207L82.777.276l-.23.138-.713-.828V-.805a2.976,2.976,0,0,1-.138-.851v-.138l-.138-1.357.184-.966L81.6-4.669l-.391.644-.207.6-.184.092-.322.506-.575.529-.161.276-.506.437-.115.3-.736.46-.782.874-.437.092-.3.23a1.067,1.067,0,0,1-.874-.437,1.676,1.676,0,0,1-1.081-1.449l.115-.069-.023-.138L75-2l-.138-.3L75-2.622l.046-.483.161-.759v-.092a.2.2,0,0,1-.023-.092.757.757,0,0,1,.046-.23.479.479,0,0,1-.023-.184,1.765,1.765,0,0,1,.138-.529l.161-.069a.329.329,0,0,1-.138-.253.32.32,0,0,1,.023-.138.51.51,0,0,1-.023-.161.442.442,0,0,1,.276-.414,1.376,1.376,0,0,1,.253-.46l-.115-.184.276-.345v-.092a1.249,1.249,0,0,1,.3-.805l-.023-.414.092-.092v-.069a.177.177,0,0,1-.023-.069.312.312,0,0,1,.092-.23v-.138a3.01,3.01,0,0,1,.483-.69,4.773,4.773,0,0,0,.575-.805l.115.115.253-.115.115-.046.759-.345,1.771.092v.161l.552.115a.681.681,0,0,1,.69.345.676.676,0,0,1,.023-.161v-.092l.483.437.437.092.828-.207.3.575Zm-2.185,1.2-.092-.161-.184-.046L81.052-8.9l-.46-.069h-.368l-.046-.046-.184.069-.207-.115h-.6l.069.092-.529.184-.092.115-.069.023a3.314,3.314,0,0,0-.575.575l-.161.552-.092.207.23.322-.391.3.046.092a1.7,1.7,0,0,0-.253.851l-.184.23v.414L77-4.9l-.046.207-.069.046v.322l-.069.115a1.652,1.652,0,0,1-.046.437l.046.115-.207.437.092.138-.161.23.161.437-.253.322.046.437v.069l.092.046.115-.023a2.8,2.8,0,0,1,.23-.207l-.046-.184L77.211-2l.069-.161,1.357-1.1.138-.046.161-.391a2.653,2.653,0,0,0,.391-.184l.138-.368h.184l-.069-.391.322-.046a1.6,1.6,0,0,1,.149-.23,2.356,2.356,0,0,1,.218-.253l1.173-1.564.184-.345L81.6-7.176l.161-.253.046-.253.207-.184Zm11.983-.138q0,.207-.414.391a.783.783,0,0,1-.345.207,3.116,3.116,0,0,0-.46.23l-.483-.161a1.529,1.529,0,0,1-.943.276L91.1-7.383,90.9-7.2h-.621l-.391.253a1.413,1.413,0,0,0-.483-.092,1.039,1.039,0,0,1-.322.092.573.573,0,0,1-.253-.069l-.069.874.023.644-.069.8.046.874.069.414v.322l.322.69a.221.221,0,0,0-.069.161q0,.161.506.253l.046.276.161.069.276.184.184.138a1.938,1.938,0,0,1,.322-.046,1.3,1.3,0,0,1,.414.069,2.544,2.544,0,0,0,.391-.322.608.608,0,0,1,.391-.184h.069a.176.176,0,0,0,.069.023,1.058,1.058,0,0,1,.736-.575,1.138,1.138,0,0,1,.805.3v.161A.93.93,0,0,1,92.9-.9a1.112,1.112,0,0,1-.874.621l-.276.253h-.3l-.529.138a2.315,2.315,0,0,1-.529.046A.965.965,0,0,1,90,.069h-.3l-.805-.437-.207-.069-.483-.644-.276-.3-.506-1.15-.184-1.081.046-.276L87.1-4.14l.115-.322L87.1-4.968l.161-.161.046-.3L87.239-5.7l.046-.414-.092-.368.115-.115v-.368l-.161-.069-.437.092-.414-.3h-.069q-.69,0-.69-.736V-8.05l-.276-.437L85.7-8.9l.575.092.3-.046.437.115h.483V-9.2l-.3-.644.3-.161-.115-.345.023-.713-.184-.3a.877.877,0,0,1-.161-.46.7.7,0,0,1,.115-.414l.069-.322.184-.184a5.745,5.745,0,0,1,.828-.115.7.7,0,0,1,.805.667l-.069.115a.713.713,0,0,1,.138.391.691.691,0,0,1-.023.115l-.046.138-.023.161.092.3-.023.115.046.322-.207.276.115.46-.092.552.184.207-.184.414.713-.092,1.265.115,1.012-.161.345.023.115-.023h.9Q94.024-8.763,94.024-8.257Zm10.143-1.058-.23.3.184.552-.3.345-.115.483-.069.115.046.115a.656.656,0,0,1-.161.483l-.046.069v.092a.764.764,0,0,1,.069.3.4.4,0,0,1-.023.161l.023.092-.092.253.069.276-.184.184.069.322.138.161-.207.184v.368l-.161.368.115.368-.138.184.23.161-.322.529-.023.069.23.046-.161.529v.092a1.092,1.092,0,0,1-.023.253l.023.069.368.046.3.46-.161.345.253-.023a1.481,1.481,0,0,1,.161.483l-.345.345a1.982,1.982,0,0,1-.46.322l-.391.207-.115-.115-.23.138-.713-.828V-.805a2.976,2.976,0,0,1-.138-.851v-.138L101.5-3.151l.184-.966-.138-.552-.391.644-.207.6-.184.092-.322.506-.575.529-.161.276-.506.437-.115.3-.736.46-.782.874-.437.092-.3.23a1.067,1.067,0,0,1-.874-.437,1.676,1.676,0,0,1-1.081-1.449l.115-.069-.023-.138L94.944-2l-.138-.3.138-.322.046-.483.161-.759v-.092a.2.2,0,0,1-.023-.092.757.757,0,0,1,.046-.23.479.479,0,0,1-.023-.184,1.765,1.765,0,0,1,.138-.529l.161-.069a.329.329,0,0,1-.138-.253.32.32,0,0,1,.023-.138.51.51,0,0,1-.023-.161.442.442,0,0,1,.276-.414,1.376,1.376,0,0,1,.253-.46l-.115-.184L96-7.015v-.092a1.249,1.249,0,0,1,.3-.805l-.023-.414.092-.092v-.069a.177.177,0,0,1-.023-.069.312.312,0,0,1,.092-.23v-.138a3.01,3.01,0,0,1,.483-.69,4.773,4.773,0,0,0,.575-.805l.115.115.253-.115.115-.046.759-.345,1.771.092v.161l.552.115a.681.681,0,0,1,.69.345.676.676,0,0,1,.023-.161v-.092l.483.437.437.092.828-.207.3.575Zm-2.185,1.2-.092-.161-.184-.046-.713-.575-.46-.069h-.368l-.046-.046-.184.069-.207-.115h-.6l.069.092-.529.184-.092.115-.069.023a3.314,3.314,0,0,0-.575.575l-.161.552-.092.207.23.322-.391.3.046.092a1.7,1.7,0,0,0-.253.851l-.184.23v.414l-.184.207-.046.207-.069.046v.322l-.069.115a1.652,1.652,0,0,1-.046.437l.046.115-.207.437.092.138-.161.23.161.437-.253.322.046.437v.069l.092.046.115-.023a2.8,2.8,0,0,1,.23-.207l-.046-.184L97.152-2l.069-.161,1.357-1.1.138-.046.161-.391a2.653,2.653,0,0,0,.391-.184l.138-.368h.184l-.069-.391.322-.046a1.6,1.6,0,0,1,.149-.23,2.356,2.356,0,0,1,.218-.253l1.173-1.564.184-.345-.023-.092.161-.253.046-.253.207-.184Zm18.4,6.417-.138.253a1.25,1.25,0,0,1-.46,1.035.46.46,0,0,1-.161.368l-.115.253-.3.207-.138.253-.92.483-.437.115-.667.046-.368-.161-.3.023-.3-.207-.23-.023-.92-.483L114.1-.23q-.368-.322-1.1-.92l-.506-.69-.414-.345-.069-.161L111.8-2.6a10.351,10.351,0,0,0-.713-.782l-.391-.138-.437-.874.069-.345a.888.888,0,0,1,.736-.828l.437.138.368.368.391.253h.368l.092.069a1.577,1.577,0,0,1,.3.023,4.206,4.206,0,0,1,.805-.253l.207-.046.138-.3h.552a.956.956,0,0,1,.529-.23h.046q.069-.161.184-.391l.437-.207.184-.184.345-.575h.161a4.366,4.366,0,0,0,.184-.644L117-7.682l-.161-.092.092-.391a.421.421,0,0,0-.253-.161l-.276.092-.092-.184-.23-.092-.069-.092q-.345-.046-.989-.092v-.092l-.138.092a1.258,1.258,0,0,0-.276-.046,2.043,2.043,0,0,0-.874.322h-.322a3.239,3.239,0,0,0-.989.437l-.506.161-.713.575-.667.667v.092l-.437.759-.138.437-.092.046v.092q-.069.138-.115.253l-.138.069.046.069-.069.115a.256.256,0,0,0-.023.115.286.286,0,0,0,.092.207q0,.483-.23.621a.408.408,0,0,0-.046.184.256.256,0,0,0,.023.115,1.18,1.18,0,0,1-.161.644.842.842,0,0,0-.138.161l.069.345-.069.46.023.368a1.758,1.758,0,0,0-.184.667q.046.23.046.253a.769.769,0,0,1-.287.529.817.817,0,0,1-.541.276.942.942,0,0,1-.667-.391l-.253-.713.069-.414-.069-.9.069-.23v-.736l.046-.3v-.253q0-.46.046-.932t.046-.494v-.391l.023-.207V-6.3l.069-.184-.069-.276.092-.759v-.805l-.092-.46.115-.184-.023-.092-.092-1.242-.161-.759v-.207l.138-.782-.092-.3-.046-.552q-.046-.552-.046-.483,0-.8,1.265-.851l.506-.276-.092,1.127.092.644-.161.667.046.736.115.414-.069.391.046.552-.069.46.115.483-.046.115.092.23L109-8.05v.138l.115.437Q109-7.429,109-7.13l-.069.552.046.207.276-.483.138-.529.322-.529a.612.612,0,0,1,.161-.414h.253l.184-.391.529-.253a1.865,1.865,0,0,1,.736-.46l.138-.115.368-.184.3-.069a4.069,4.069,0,0,1,2.093-.552l1.794.138.368.207.184.023.391.414.023-.138a.867.867,0,0,1,.437.437q.115-.023.092-.023a.306.306,0,0,1,.184.069l.483.989-.023.115a.943.943,0,0,1,.115.414,1.042,1.042,0,0,1-.253.644v.138l-.322.851-.483.667-.138.023-.276.368a.529.529,0,0,1-.391-.138v.368l-.184.115-.138.253-.414.115q-.092.023-.207.207a12.082,12.082,0,0,1-1.771.621,1.878,1.878,0,0,1-.265-.035,1.966,1.966,0,0,0-.333-.034.32.32,0,0,0-.138.023q.023.069.253.506l.3.184.414.736.621.368.046.092.207.115.3.345.552.437.736.3.414.115.3-.023.161-.069a1.984,1.984,0,0,0,.874-.368l.391-.713.23-.276.138-.414a1.856,1.856,0,0,1,.552-.115A.686.686,0,0,1,120.382-1.7Zm8.119-.184a1.13,1.13,0,0,1-.414.69,1.432,1.432,0,0,1-.345.6l-.138.023-.253.437-.414.069L126.5.207l-.23.414-.253-.046a1.615,1.615,0,0,1-.414.138l-.138.207A.7.7,0,0,0,125.258.9q-.3,0-.575.414l-.322-.276a1.226,1.226,0,0,1-.276.023,1.243,1.243,0,0,1-.506-.092h-.391L123,.851a1.309,1.309,0,0,1-1.1-.667V.115l-.276-.138-.138-.391L121.21-.6V-.943l-.276-1.012.046-.828.092-.368v-.483L121.187-4l-.023-.161.161-.276-.046.046a.979.979,0,0,1,.115-.437v-.115l-.069-.552a.893.893,0,0,1,.345-.69.32.32,0,0,0,.023-.138,1.835,1.835,0,0,0-.08-.379,1.779,1.779,0,0,1-.08-.4,1.37,1.37,0,0,1,.138-.575.6.6,0,0,0,.529.276h.069a.649.649,0,0,1,.207-.207,2.884,2.884,0,0,1,.506-.966l.092-.092a2.859,2.859,0,0,1,.138-.529h.184l.046-.115.184-.046a1.753,1.753,0,0,1,.15-.219,5.415,5.415,0,0,1,.494-.287,1,1,0,0,1,.276-.3,1.785,1.785,0,0,1,.23-.092l.092-.138a3.608,3.608,0,0,1,.782-.207.684.684,0,0,1,.345.092l.115-.023.161.092a3.625,3.625,0,0,0,.552.345l.391.3v.092a1.4,1.4,0,0,1,.529,1.173l-.069.23.069.759-.207.138-.23.6-.437.483-.023.368a11.194,11.194,0,0,1-1.357.851.711.711,0,0,1-.644.322h-.069l-.437.276h-.368l-.552.23L123-4.485h-.046a5.045,5.045,0,0,0-.092.552l-.184.138-.023.276-.138.391q.069.552.069.713l-.092.069a2.95,2.95,0,0,1-.023.437.177.177,0,0,1-.023.069v.069a.343.343,0,0,0,.184.3.464.464,0,0,0,.23.345l.161.138.506.138v.069l.184.046.782.046.46-.069.23-.161.138-.046.23-.345.115-.023.575-.184a.751.751,0,0,1,.3-.276l.069-.115a.589.589,0,0,0,.529-.483,1.121,1.121,0,0,1,.828-.322h.092A1.443,1.443,0,0,1,128.5-1.886ZM126.224-8.51a1.129,1.129,0,0,0-.069-.276l-.115-.023-.046.023H125.9a.2.2,0,0,1-.092.023.176.176,0,0,1-.069-.023h-.069l-.23.161-.207.023-.115.046-.391.506-.253.184-.368.644-.207.138a1.3,1.3,0,0,1-.322.667l-.092.161a1.048,1.048,0,0,1,.575-.161l.161-.069.069-.207.322.023.184-.276h.138l.253.092L125.3-7.2h.161v-.253l.3-.069.069-.069.046-.207.3-.437A.743.743,0,0,0,126.224-8.51Zm27.209.552-.276.23q.069.092.253.322l-.874.552h-.092a.9.9,0,0,1-.3-.069l-.276.23-.391-.046-.414.345-.391-.23-.483.138-.46.276a.256.256,0,0,0-.115-.023q-.184,0-.207.115l-.184.759a.582.582,0,0,1,.092.276.985.985,0,0,1-.069.345l-.069.184.092.046a1.29,1.29,0,0,1-.184.69,3.612,3.612,0,0,1,.184.506l-.207.161.023.828-.207,1.2-.023.23a2.824,2.824,0,0,1,.046.368v.115l.092.23.023.414a2.2,2.2,0,0,1-.115.345q-.023.782-1.127.828L147.729.9l-.184-.3-.138-.414V-.621l-.161-.483.069-.046-.069-.345V-2.07l.069-.9-.046-.805.138-.46v-.529a2.274,2.274,0,0,1,.057-.437,2.236,2.236,0,0,0,.058-.414.775.775,0,0,0-.138-.437l-.046-.069-.069.046-.3-.092a2.926,2.926,0,0,1-.782.115,2.085,2.085,0,0,1-.368-.023l-.989.3-1.058-.115q-.414-.046-.575-.046a3.06,3.06,0,0,0-.828.161h-.092l-.529.23-.368-.253-.575.115-.069-.046-.092.046-.46-.023-.046.184-.644-.253-.575.069v1.058l-.069.529.115.437-.184.345.161.322-.161.989.092.3-.046.552.207.46-.092.207.046.276q-.023.506-.575.506-.943,0-.943-1.7l-.322-.391-.115-.276a.892.892,0,0,1,.138-.506l.046-.391-.069-.23-.115-1.794V-5.5l-.046-.069-.46-.253-.069-1.127.644-.368a3.13,3.13,0,0,0,.115-.92,3.037,3.037,0,0,0-.115-.9l.138.069-.023-.322.138-.483-.138-.805V-11.2l.161-.805.9-.483.437.322.483.161.069.506.207.3q-.115.322-.207.667a4.24,4.24,0,0,1,.069.782,5.02,5.02,0,0,1-.161,1.265l.207.437-.23.322v.276l.207.069.552-.069.391.046.621-.069.184.069a1.292,1.292,0,0,1,.253-.023,1.258,1.258,0,0,1,.276.046l.046.023h.345l.357-.023q.334-.023.678-.023l.368-.23.345.207.345.023.115.023a1.293,1.293,0,0,1,.3-.046h.115l2.438-.253.345.023.115-.069-.115-.391.115-.345-.161-.943.161-.3-.414-1.1-.046-.161-.092-.115q.023-.046.092-.207l.046-.092v-.092q0-.184.368-.345l.23-.644.644.115.276.161.644-.138v.322l.276-.069v1.081l-.115.184.184.46v.3l.115.368-.184.437.069.3-.115,1.058v.161l.483-.023.9-.207.437.046.276-.046h.506a.863.863,0,0,1,.391-.092.891.891,0,0,1,.345.092Zm7.889,2.576-.138.414a5.045,5.045,0,0,1-.069.943l-.138.23v.253l-.115.161-.069.322-.253.253-.161.575-.184.069-.092.253-.276.161-.184.391-.276.138-.023.276-.437.161a1.309,1.309,0,0,1-.736.529l-.092.023a.981.981,0,0,1-.851.483,1.008,1.008,0,0,1-.529.138l-.23.161-.23.069-.3.23-.3-.023-.322.092-.391-.161L153.939.69l-.345-.529-.506-.529.115-.368-.345-.782.161-.3-.115-.552.115-.345a3.736,3.736,0,0,1-.046-.46.825.825,0,0,1,.23-.644,2.526,2.526,0,0,1,.3-.759h.115l-.046-.161.069-.322v-.345a1.184,1.184,0,0,0,.207-.276L153.778-6v-.092a1.474,1.474,0,0,0,.161-.667l.483-.667.058-.046a1.256,1.256,0,0,0,.1-.092l-.023-.092h.092L155-8.05l.023-.529.575-.207a.992.992,0,0,0,.414-.69h.3a.977.977,0,0,1,.46-.138.863.863,0,0,1,.391.092l.253.023.6-.23.322.3.253.161h.184l.345.184h.184a7.321,7.321,0,0,1,.69.759l.046.115.161.092.483.621.437,1.081v.23ZM159.8-4.83l-.023-.115a.591.591,0,0,1-.184-.345l.069-.115-.207-.437.046-.437-.092-.115q-.3-.23-.322-.368-.207-.092-.207-.46l-.138-.023-.276-.46-.207-.161-.483-.184L157.6-8.1a.185.185,0,0,1-.184-.092l-.46.506-.3.644-.483.253-.069.253-.23.115-.092.6-.276.138a2.186,2.186,0,0,0-.092.6l-.368.345.115.069a.662.662,0,0,1-.207.483,4.774,4.774,0,0,1-.184.46v.184l-.069.092.023.276-.253.621.046.115v.644l-.092.322.023.322.207.3.322.115.115.046.184-.092.6.046.092-.23h.092q.138,0,.161.069l.207-.069.184.069.3-.207.046-.069.207-.046a1.681,1.681,0,0,1,.759-.506l.046-.115.46-.322.253-.368.368-.184.023-.115.115-.253v-.3l.276-.23.092-.161.115-.138a1.464,1.464,0,0,1-.092-.391.854.854,0,0,1,.138-.437Zm10.35-3.427q0,.207-.414.391a.783.783,0,0,1-.345.207,3.115,3.115,0,0,0-.46.23l-.483-.161a1.529,1.529,0,0,1-.943.276l-.276-.069-.207.184H166.4l-.391.253a1.413,1.413,0,0,0-.483-.092,1.039,1.039,0,0,1-.322.092.572.572,0,0,1-.253-.069l-.069.874.023.644-.069.8.046.874.069.414v.322l.322.69a.221.221,0,0,0-.069.161q0,.161.506.253l.046.276.161.069.276.184.184.138a1.938,1.938,0,0,1,.322-.046,1.3,1.3,0,0,1,.414.069,2.544,2.544,0,0,0,.391-.322.608.608,0,0,1,.391-.184h.069a.176.176,0,0,0,.069.023,1.058,1.058,0,0,1,.736-.575,1.138,1.138,0,0,1,.805.3v.161a.93.93,0,0,1-.552.989,1.112,1.112,0,0,1-.874.621l-.276.253h-.3l-.529.138a2.315,2.315,0,0,1-.529.046.965.965,0,0,1-.391-.092h-.3l-.8-.437-.207-.069-.483-.644-.276-.3-.506-1.15-.184-1.081.046-.276-.184-.253.115-.322-.115-.506.161-.161.046-.3-.069-.276.046-.414-.092-.368.115-.115v-.368l-.161-.069-.437.092-.414-.3h-.069q-.69,0-.69-.736V-8.05l-.276-.437.437-.414.575.092.3-.046.437.115h.483V-9.2l-.3-.644.3-.161-.115-.345.023-.713-.184-.3a.877.877,0,0,1-.161-.46.7.7,0,0,1,.115-.414l.069-.322.184-.184a5.745,5.745,0,0,1,.828-.115.7.7,0,0,1,.805.667l-.069.115a.713.713,0,0,1,.138.391.691.691,0,0,1-.023.115l-.046.138-.023.161.092.3-.023.115.046.322-.207.276.115.46-.092.552.184.207-.184.414.713-.092,1.265.115,1.012-.161.345.023.115-.023h.9Q170.154-8.763,170.154-8.257Zm8.234,6.371a1.13,1.13,0,0,1-.414.69,1.432,1.432,0,0,1-.345.6l-.138.023-.253.437-.414.069-.437.276-.23.414L175.9.575a1.615,1.615,0,0,1-.414.138l-.138.207A.7.7,0,0,0,175.145.9q-.3,0-.575.414l-.322-.276a1.226,1.226,0,0,1-.276.023,1.243,1.243,0,0,1-.506-.092h-.391l-.184-.115a1.309,1.309,0,0,1-1.1-.667V.115l-.276-.138-.138-.391L171.1-.6V-.943l-.276-1.012.046-.828.092-.368v-.483L171.074-4l-.023-.161.161-.276-.046.046a.979.979,0,0,1,.115-.437v-.115l-.069-.552a.893.893,0,0,1,.345-.69.32.32,0,0,0,.023-.138A1.835,1.835,0,0,0,171.5-6.7a1.779,1.779,0,0,1-.081-.4,1.371,1.371,0,0,1,.138-.575.6.6,0,0,0,.529.276h.069a.649.649,0,0,1,.207-.207,2.884,2.884,0,0,1,.506-.966l.092-.092A2.86,2.86,0,0,1,173.1-9.2h.184l.046-.115.184-.046a1.755,1.755,0,0,1,.15-.219,5.414,5.414,0,0,1,.494-.287,1,1,0,0,1,.276-.3,1.786,1.786,0,0,1,.23-.092l.092-.138a3.608,3.608,0,0,1,.782-.207.684.684,0,0,1,.345.092l.115-.023.161.092a3.625,3.625,0,0,0,.552.345l.391.3v.092a1.4,1.4,0,0,1,.529,1.173l-.069.23.069.759-.207.138-.23.6-.437.483-.023.368a11.193,11.193,0,0,1-1.357.851.711.711,0,0,1-.644.322h-.069l-.437.276h-.368l-.552.23-.414-.207h-.046a5.044,5.044,0,0,0-.092.552l-.184.138-.023.276-.138.391q.069.552.069.713l-.092.069a2.949,2.949,0,0,1-.023.437.177.177,0,0,1-.023.069v.069a.343.343,0,0,0,.184.3.465.465,0,0,0,.23.345l.161.138.506.138v.069l.184.046.782.046.46-.069.23-.161.138-.046.23-.345.115-.023.575-.184a.751.751,0,0,1,.3-.276l.069-.115a.589.589,0,0,0,.529-.483,1.121,1.121,0,0,1,.828-.322h.092A1.443,1.443,0,0,1,178.388-1.886ZM176.111-8.51a1.129,1.129,0,0,0-.069-.276l-.115-.023-.046.023h-.092a.2.2,0,0,1-.092.023.177.177,0,0,1-.069-.023h-.069l-.23.161-.207.023-.115.046-.391.506-.253.184-.368.644-.207.138a1.3,1.3,0,0,1-.322.667l-.092.161a1.048,1.048,0,0,1,.575-.161l.161-.069.069-.207.322.023.184-.276h.138l.253.092.115-.345h.161v-.253l.3-.069.069-.069.046-.207.3-.437A.743.743,0,0,0,176.111-8.51Zm10.1,6a.525.525,0,0,1-.184.414,2.4,2.4,0,0,1-.6.575l-.23.161-.207.276-.207.092-.322.207-.23.023-.092.092a1.38,1.38,0,0,0-.713.46.526.526,0,0,1-.3.115.51.51,0,0,1-.161-.023,1.978,1.978,0,0,1-1.012.23,1.641,1.641,0,0,1-.69-.092l-.414-.23-.138-.23V-.506a.57.57,0,0,0-.253-.483l-.092-.46-.184-.207-.115-.851-.023-.506.023-.368.046-.138a.659.659,0,0,1-.069-.3q.115-.966.115-1.219l-.207-.414.207-.345.069-.575-.046-.391.138-.345-.138-.46.207-.322.023-.207V-8.9l.069-.161-.023-.966.069-.989-.092-.184-.023-.69.069-.621-.069-.23.138-1.38a3.955,3.955,0,0,0,.851-.23.682.682,0,0,1,.6.391l.046.184.345.345-.184.483.046.092a2,2,0,0,1-.115.575l.046.483.115.437-.161.483a2.107,2.107,0,0,1-.115.713,2.325,2.325,0,0,1-.046.368l-.023.138.207.253-.092.253a1.269,1.269,0,0,1,.046.253,1.06,1.06,0,0,1-.092.368l.046.207-.138.736v.483l-.161.483.092.437-.092,1.012.069.115-.115.529-.046.644a.961.961,0,0,0-.046.161q0,.391-.023.644l.115.322-.046.345.138.3L181.792-2a1.026,1.026,0,0,1,.253.368h.207l.3.092.138-.184.207-.023a.73.73,0,0,1,.207-.046h.069a.589.589,0,0,0,.368-.23l.138-.069a.832.832,0,0,1,.529-.345q.115-.092.437-.368a.524.524,0,0,1,.391-.483.666.666,0,0,0,.46-.115.893.893,0,0,1,.587.241A1.188,1.188,0,0,1,186.208-2.507Zm19.136-8.671q0,.437-.667.46l-.414.184-.414-.092-.6.322a1.947,1.947,0,0,0-.736-.253q-.023,0-.2.035a1.6,1.6,0,0,1-.311.035,1.226,1.226,0,0,1-.276-.023l-.506.161-.115-.023-.046.023-1.265.023-.138.23-.575-.184-.23.115-.552.046-.345-.069q-.207.023-.4.057t-.219.035l-.3.046-.138.092.138.414.184.483-.092.368.23.184-.184.276a1.293,1.293,0,0,1,.046.3,1.461,1.461,0,0,1-.115.506l-.069.759.368.023.736-.184.322.184h.184a.691.691,0,0,0,.115.023h.069l.138-.138.713-.115.506.184q.368-.092.529-.115h.759l.437-.092.253.138.345-.046a2.44,2.44,0,0,1,.276-.023l1.334-.161.161.069a.51.51,0,0,1,.161-.023,1.09,1.09,0,0,1,.391.092,1.313,1.313,0,0,1,.3.736.6.6,0,0,1-.023.184l-.437.069-.391.207h-.345l-.184.161-.644-.046-.575.161-.667.115-.138-.023-.046.046-.874-.092-.3.115-.414-.046a2.007,2.007,0,0,1-.851.161h-.207q-.115.023-.483.138l-.483-.276-.138.115a.8.8,0,0,1-.322.161l-.437-.046H196.9q-.046.23-.138,1.38a1.558,1.558,0,0,1,.092.483l-.23.575.138.276-.184.368.069.345-.115.207q-.3,1.564-.414,2-.184.69-.414.805l-.506-.253h-.621l.161-.713V.138L194.879,0l.046-.3.023-.115L194.9-.437V-.713l-.207-.23.046-.138a1.879,1.879,0,0,1,.184-.851l-.092-.092.046-.276-.069-.322.138-.368-.046-.828.161-.805-.115-.276v-.115l-.368.138-.529-.276-.23.046a2.3,2.3,0,0,1-.276.046q-.644,0-.644-.759a.854.854,0,0,1,.966-.966q.483,0,.69.023l.644.069-.046-.184.023-.736-.138-.046.092-1.4-.23-.621-.023-.207-.161-.092-.736.414-.368-.506a.7.7,0,0,1-.414-.713.663.663,0,0,0,.138-.322v-.529l.644.046a1.555,1.555,0,0,1,.874-.345q-.023,0,.667.092.414-.046,1.518-.115l.828.115.621-.023.092-.069a.684.684,0,0,1,.345-.092.574.574,0,0,1,.253.046l.092.023q.207-.023.621-.081t.621-.08l.023.069.138.115h.092a2.1,2.1,0,0,0,.322-.035,2.068,2.068,0,0,1,.3-.035h.069l.621.092.667.069a3.3,3.3,0,0,1,.644-.069,1.373,1.373,0,0,1,.437.069h.391a1.449,1.449,0,0,1,.46-.069Q205.344-11.914,205.344-11.178Zm13.685,9.844a1.055,1.055,0,0,1-.414.667l-.184.069-.161.207-.414.115q-.115.161-.23.161a.066.066,0,0,1-.046-.023h-.069a2.7,2.7,0,0,1-1.219.253h-.184L215.533,0l-.391-.184-.874-.736-.184-.621-.368-.3a.505.505,0,0,0,.069-.3,1.142,1.142,0,0,0-.184-.46l.069-.552v-.092a2.175,2.175,0,0,0-.161-.713l.138-.69-.3.6L213-4l-.046.483a.967.967,0,0,1-.437.092l-.253.552-.3.345a.632.632,0,0,1-.322.23l-.069.046-.828.851h-.092L210.22-.9l-.414.207-.23.3-.529.161-.759.3-.46-.23a.651.651,0,0,1-.644-.414l-.207-.115A.989.989,0,0,1,207-.874v-.161l-.368-.322.092-.138-.276-.644.092-.092-.046-.046v-.138a.378.378,0,0,1-.023-.115,1.672,1.672,0,0,1,.069-.483l.023-.6-.092-.483a.633.633,0,0,0,.115-.322.418.418,0,0,0-.138-.3L206.7-4.9v-.276l-.092-.759.253-1.472a4.265,4.265,0,0,0-.207-1.081q.069-.736.966-.805l.184.069.322.046.414.46-.138.6-.046.989.069.759-.138.276.069.184-.115.368v.23l-.046.069a.7.7,0,0,1,.023.207,2.258,2.258,0,0,1-.092.621l.115.161-.092.345.046.276v.322a.521.521,0,0,1,.115.345.816.816,0,0,1-.092.368v.092a2.435,2.435,0,0,1,.115.506l.207.207q.138-.092.322-.23a.427.427,0,0,1,.322-.3v-.23a2.2,2.2,0,0,0,.437-.069l.046-.207.391-.161.069-.069a1.5,1.5,0,0,1,.529-.3V-3.45l.437-.322a.9.9,0,0,1,.575-.575,1.889,1.889,0,0,1,.345-.3l.3-.391v-.069l.092-.046.207-.092.115-.322.483-.207L213.3-5.8l.161-.161v-.207l.138-.046a.786.786,0,0,1,.368-.552l.345-.782.115-.414.046-.092h.092l.161-.115-.138-.046a3.719,3.719,0,0,0,.391-.874l.667-.023.529.437.23.368-.253.989-.345.46-.276.9-.23.138v.345l-.138.253.069.414-.184.161.092.736.046,1.035h.115v.6l.322.391.3.161.023.115a1.764,1.764,0,0,1,.391.115l.575.046.345-.092.621-.3a1.024,1.024,0,0,1,.46-.092Q219.029-1.932,219.029-1.334Zm14.214,0a1.055,1.055,0,0,1-.414.667l-.184.069-.161.207-.414.115q-.115.161-.23.161a.066.066,0,0,1-.046-.023h-.069a2.7,2.7,0,0,1-1.219.253h-.184L229.747,0l-.391-.184-.874-.736-.184-.621-.368-.3a.505.505,0,0,0,.069-.3,1.142,1.142,0,0,0-.184-.46l.069-.552v-.092a2.175,2.175,0,0,0-.161-.713l.138-.69-.3.6L227.217-4l-.046.483a.967.967,0,0,1-.437.092l-.253.552-.3.345a.632.632,0,0,1-.322.23l-.069.046-.828.851h-.092l-.437.506-.414.207-.23.3-.529.161-.759.3-.46-.23a.651.651,0,0,1-.644-.414l-.207-.115a.989.989,0,0,1,.023-.184v-.161l-.368-.322.092-.138-.276-.644.092-.092-.046-.046v-.138a.378.378,0,0,1-.023-.115,1.672,1.672,0,0,1,.069-.483l.023-.6-.092-.483a.633.633,0,0,0,.115-.322.418.418,0,0,0-.138-.3l.253-.184v-.276l-.092-.759.253-1.472a4.265,4.265,0,0,0-.207-1.081q.069-.736.966-.805l.184.069.322.046.414.46-.138.6-.046.989.069.759-.138.276.069.184-.115.368v.23l-.046.069a.7.7,0,0,1,.023.207,2.258,2.258,0,0,1-.092.621l.115.161-.092.345.046.276v.322a.521.521,0,0,1,.115.345.816.816,0,0,1-.092.368v.092a2.435,2.435,0,0,1,.115.506l.207.207q.138-.092.322-.23a.427.427,0,0,1,.322-.3v-.23a2.2,2.2,0,0,0,.437-.069l.046-.207.391-.161.069-.069a1.5,1.5,0,0,1,.529-.3V-3.45l.437-.322a.9.9,0,0,1,.575-.575,1.89,1.89,0,0,1,.345-.3l.3-.391v-.069l.092-.046.207-.092.115-.322.483-.207.092-.023.161-.161v-.207l.138-.046a.786.786,0,0,1,.368-.552l.345-.782.115-.414.046-.092h.092l.161-.115-.138-.046a3.719,3.719,0,0,0,.391-.874l.667-.023.529.437.23.368-.253.989-.345.46-.276.9-.23.138v.345l-.138.253.069.414-.184.161.092.736.046,1.035h.115v.6l.322.391.3.161.023.115a1.764,1.764,0,0,1,.391.115l.575.046.345-.092.621-.3a1.024,1.024,0,0,1,.46-.092Q233.243-1.932,233.243-1.334Zm14.9-.368-.138.253a1.25,1.25,0,0,1-.46,1.035.46.46,0,0,1-.161.368l-.115.253-.3.207-.138.253-.92.483-.437.115-.667.046-.368-.161-.3.023-.3-.207-.23-.023L242.7.46l-.828-.69q-.368-.322-1.1-.92l-.506-.69-.414-.345-.069-.161-.207-.253a10.348,10.348,0,0,0-.713-.782l-.391-.138-.437-.874.069-.345a.888.888,0,0,1,.736-.828l.437.138.368.368.391.253h.368l.092.069a1.577,1.577,0,0,1,.3.023,4.207,4.207,0,0,1,.805-.253l.207-.046.138-.3h.552a.955.955,0,0,1,.529-.23h.046q.069-.161.184-.391l.437-.207.184-.184.345-.575h.161a4.367,4.367,0,0,0,.184-.644l.207-.138-.161-.092.092-.391a.421.421,0,0,0-.253-.161l-.276.092-.092-.184-.23-.092-.069-.092q-.345-.046-.989-.092v-.092l-.138.092a1.258,1.258,0,0,0-.276-.046,2.043,2.043,0,0,0-.874.322h-.322a3.238,3.238,0,0,0-.989.437l-.506.161-.713.575-.667.667v.092l-.437.759-.138.437-.092.046v.092q-.069.138-.115.253l-.138.069.046.069-.069.115a.256.256,0,0,0-.023.115.286.286,0,0,0,.092.207q0,.483-.23.621a.408.408,0,0,0-.046.184.256.256,0,0,0,.023.115,1.18,1.18,0,0,1-.161.644.841.841,0,0,0-.138.161l.069.345-.069.46.023.368a1.758,1.758,0,0,0-.184.667q.046.23.046.253a.769.769,0,0,1-.288.529.817.817,0,0,1-.54.276.942.942,0,0,1-.667-.391l-.253-.713.069-.414-.069-.9.069-.23v-.736l.046-.3v-.253q0-.46.046-.932t.046-.494v-.391l.023-.207V-6.3l.069-.184-.069-.276.092-.759v-.805l-.092-.46.115-.184-.023-.092-.092-1.242-.161-.759v-.207l.138-.782-.092-.3-.046-.552q-.046-.552-.046-.483,0-.8,1.265-.851l.506-.276-.092,1.127.092.644-.161.667.046.736.115.414-.069.391.046.552-.069.46.115.483-.046.115.092.23-.115.644v.138l.115.437q-.115.046-.115.345l-.069.552.046.207.276-.483.138-.529.322-.529a.612.612,0,0,1,.161-.414h.253l.184-.391.529-.253a1.865,1.865,0,0,1,.736-.46l.138-.115.368-.184.3-.069a4.07,4.07,0,0,1,2.093-.552l1.794.138.368.207.184.023.391.414L245-9.706a.867.867,0,0,1,.437.437q.115-.023.092-.023a.306.306,0,0,1,.184.069l.483.989-.023.115a.942.942,0,0,1,.115.414,1.042,1.042,0,0,1-.253.644v.138l-.322.851-.483.667-.138.023-.276.368a.529.529,0,0,1-.391-.138v.368l-.184.115-.138.253-.414.115q-.092.023-.207.207a12.082,12.082,0,0,1-1.771.621,1.878,1.878,0,0,1-.264-.035,1.966,1.966,0,0,0-.333-.034.32.32,0,0,0-.138.023q.023.069.253.506l.3.184.414.736.621.368.046.092.207.115.3.345.552.437.736.3.414.115.3-.023.161-.069a1.984,1.984,0,0,0,.874-.368l.391-.713.23-.276.138-.414a1.856,1.856,0,0,1,.552-.115A.686.686,0,0,1,248.147-1.7Zm10.028-7.613-.23.3.184.552-.3.345-.115.483-.069.115.046.115a.656.656,0,0,1-.161.483l-.046.069v.092a.764.764,0,0,1,.069.3.394.394,0,0,1-.023.161l.023.092-.092.253.069.276-.184.184.069.322.138.161-.207.184v.368l-.161.368.115.368-.138.184.23.161-.322.529-.023.069.23.046-.161.529v.092a1.091,1.091,0,0,1-.023.253l.023.069.368.046.3.46-.161.345.253-.023a1.481,1.481,0,0,1,.161.483l-.345.345a1.982,1.982,0,0,1-.46.322l-.391.207-.115-.115-.23.138-.713-.828V-.805a2.977,2.977,0,0,1-.138-.851v-.138l-.138-1.357.184-.966-.138-.552-.391.644-.207.6-.184.092-.322.506-.575.529-.161.276-.506.437-.115.3-.736.46-.782.874-.437.092-.3.23a1.067,1.067,0,0,1-.874-.437,1.676,1.676,0,0,1-1.081-1.449L249-1.587l-.023-.138L248.952-2l-.138-.3.138-.322L249-3.105l.161-.759v-.092a.2.2,0,0,1-.023-.092.757.757,0,0,1,.046-.23.478.478,0,0,1-.023-.184,1.765,1.765,0,0,1,.138-.529l.161-.069a.329.329,0,0,1-.138-.253.32.32,0,0,1,.023-.138.51.51,0,0,1-.023-.161.442.442,0,0,1,.276-.414,1.377,1.377,0,0,1,.253-.46l-.115-.184.276-.345v-.092a1.249,1.249,0,0,1,.3-.805l-.023-.414.092-.092v-.069a.177.177,0,0,1-.023-.069.312.312,0,0,1,.092-.23v-.138a3.009,3.009,0,0,1,.483-.69,4.773,4.773,0,0,0,.575-.805l.115.115.253-.115.115-.046.759-.345,1.771.092v.161l.552.115a.681.681,0,0,1,.69.345.676.676,0,0,1,.023-.161v-.092l.483.437.437.092.828-.207.3.575Zm-2.185,1.2L255.9-8.28l-.184-.046L255-8.9l-.46-.069h-.368l-.046-.046-.184.069-.207-.115h-.6l.069.092-.529.184-.092.115-.069.023a3.314,3.314,0,0,0-.575.575l-.161.552-.092.207.23.322-.391.3.046.092a1.7,1.7,0,0,0-.253.851l-.184.23v.414l-.184.207-.046.207-.069.046v.322l-.069.115a1.653,1.653,0,0,1-.046.437l.046.115-.207.437.092.138-.161.23.161.437-.253.322.046.437v.069l.092.046.115-.023a2.8,2.8,0,0,1,.23-.207l-.046-.184L251.16-2l.069-.161,1.357-1.1.138-.046.161-.391a2.653,2.653,0,0,0,.391-.184l.138-.368h.184l-.069-.391.322-.046a1.6,1.6,0,0,1,.15-.23,2.355,2.355,0,0,1,.219-.253l1.173-1.564.184-.345-.023-.092.161-.253.046-.253.207-.184Z" transform="translate(-5040 -946)"/>
    <path id="パス_7097" data-name="パス 7097" class="cls-1" d="M49.893,26.338c-.311,1.217,12.625,5.055,6.984,12.747-3.112,4.243-21.453,4.648-27.164,4.556-5.933-.1-24.052-.313-27.164-4.556-5.641-7.692,7.3-11.53,6.984-12.747C9,24.261-4.457,31.311,1.532,40c3.366,4.88,19.729,5.22,28.181,5.3,8.4-.078,24.816-.418,28.181-5.3,5.989-8.685-7.47-15.735-8-13.658" transform="translate(-4938 -1149.387)"/>
    <path id="パス_7097_-_アウトライン" data-name="パス 7097 - アウトライン" class="cls-10" d="M29.713,45.794h0a142.335,142.335,0,0,1-16.056-.852,40.668,40.668,0,0,1-7.645-1.6C3.579,42.529,1.98,41.526,1.12,40.28a7.861,7.861,0,0,1-.653-8.541,13.1,13.1,0,0,1,4.2-4.533,8.727,8.727,0,0,1,4.177-1.734c.889,0,1.118.519,1.175.743.174.68-.6,1.146-2.144,2.075-2.23,1.342-5.6,3.37-6.168,6.2a5.439,5.439,0,0,0,1.247,4.3c1.52,2.073,7.3,3.1,11.887,3.6,5.529.6,11.41.7,14.569.746l.312.005c.447.007.937.011,1.458.011a124.234,124.234,0,0,0,14.286-.806c7.644-.956,10.205-2.461,11.008-3.556a5.439,5.439,0,0,0,1.247-4.3c-.568-2.829-3.938-4.856-6.168-6.2-1.543-.929-2.318-1.395-2.144-2.075.057-.223.286-.743,1.175-.743a8.727,8.727,0,0,1,4.177,1.734,13.1,13.1,0,0,1,4.2,4.533,7.861,7.861,0,0,1-.653,8.541c-.859,1.246-2.46,2.249-4.895,3.066a40.829,40.829,0,0,1-7.658,1.6,142.3,142.3,0,0,1-16.035.852ZM8.843,26.472A7.875,7.875,0,0,0,5.23,28.031,12.086,12.086,0,0,0,1.352,32.2a6.832,6.832,0,0,0,.591,7.508C3.317,41.7,7.3,43.13,13.778,43.95a141.411,141.411,0,0,0,15.935.844,141.378,141.378,0,0,0,15.914-.844A39.86,39.86,0,0,0,53.093,42.4c2.191-.735,3.668-1.639,4.39-2.685a6.832,6.832,0,0,0,.591-7.509A12.086,12.086,0,0,0,54.2,28.031a7.875,7.875,0,0,0-3.612-1.559H50.57c.328.256.963.638,1.5.96,2.381,1.432,5.978,3.6,6.633,6.858a6.386,6.386,0,0,1-1.421,5.091c-.747,1.018-2.225,1.853-4.521,2.553a44.005,44.005,0,0,1-7.17,1.4,125.277,125.277,0,0,1-14.41.814c-.526,0-1.022,0-1.474-.011l-.312-.005c-3.176-.051-9.087-.145-14.661-.752-7.056-.768-11.173-2.077-12.585-4A6.386,6.386,0,0,1,.725,34.29c.655-3.261,4.252-5.426,6.633-6.858.536-.322,1.171-.7,1.5-.961Z" transform="translate(-4938 -1149.387)"/>
    <path id="パス_7098" data-name="パス 7098" class="cls-1" d="M16.023,32.426a.922.922,0,0,1-.581-.195.558.558,0,0,1,.014-.914c7.9-6.137,3.493-13.168,1.233-15.906-4.51-5.462-1.242-11.281,3.7-14.377a.956.956,0,0,1,1.14.109.564.564,0,0,1-.137.908C17.015,4.793,14.1,9.921,18.045,14.7c5.247,6.354,4.717,12.748-1.455,17.542a.927.927,0,0,1-.567.184" transform="translate(-4938 -1149.387)"/>
    <path id="パス_7098_-_アウトライン" data-name="パス 7098 - アウトライン" class="cls-10" d="M16.023,32.926a1.417,1.417,0,0,1-.9-.308,1.057,1.057,0,0,1,.024-1.7c2.562-1.991,4-4.248,4.272-6.708.4-3.612-1.782-6.866-3.118-8.484a9.931,9.931,0,0,1-1.942-3.562,8.038,8.038,0,0,1-.21-3.53A10.062,10.062,0,0,1,16.217,4.1,15.081,15.081,0,0,1,20.126.61,1.436,1.436,0,0,1,20.892.4a1.4,1.4,0,0,1,1,.4,1.061,1.061,0,0,1,.31.868,1.125,1.125,0,0,1-.538.815,12.542,12.542,0,0,0-3.239,2.879,7.975,7.975,0,0,0-1.654,3.6,6.642,6.642,0,0,0,1.664,5.428,17.33,17.33,0,0,1,2.988,5.028,10.9,10.9,0,0,1,.653,4.956,10.392,10.392,0,0,1-1.561,4.388A15.2,15.2,0,0,1,16.9,32.637,1.425,1.425,0,0,1,16.023,32.926ZM20.892,1.4a.446.446,0,0,0-.235.062,14.074,14.074,0,0,0-3.649,3.251A9.077,9.077,0,0,0,15.139,8.8a7.708,7.708,0,0,0,1.936,6.3c1.436,1.74,3.781,5.254,3.341,9.231-.3,2.74-1.868,5.225-4.653,7.388-.035.027-.051.054-.052.067a.113.113,0,0,0,.047.065.468.468,0,0,0,.524,0c2.872-2.231,4.485-4.785,4.8-7.591a9.906,9.906,0,0,0-.6-4.5,16.34,16.34,0,0,0-2.82-4.734,7.7,7.7,0,0,1-1.88-6.224,8.96,8.96,0,0,1,1.851-4.053,13.551,13.551,0,0,1,3.5-3.114c.056-.035.074-.07.075-.083a.082.082,0,0,0-.029-.05A.409.409,0,0,0,20.892,1.4Z" transform="translate(-4938 -1149.387)"/>
    <path id="パス_7099" data-name="パス 7099" class="cls-1" d="M27.377,32.6a.92.92,0,0,1-.581-.2.559.559,0,0,1,.014-.915c7.9-6.136,3.493-13.167,1.233-15.9C23.533,10.124,26.8,4.3,31.745,1.209a.956.956,0,0,1,1.14.109.564.564,0,0,1-.137.908c-4.379,2.742-7.3,7.87-3.349,12.649,5.247,6.354,4.717,12.748-1.455,17.542a.925.925,0,0,1-.567.184" transform="translate(-4938 -1149.387)"/>
    <path id="パス_7099_-_アウトライン" data-name="パス 7099 - アウトライン" class="cls-10" d="M27.377,33.1a1.413,1.413,0,0,1-.9-.309,1.058,1.058,0,0,1,.024-1.7c2.563-1.991,4-4.247,4.273-6.708.4-3.611-1.782-6.866-3.118-8.484a9.931,9.931,0,0,1-1.942-3.562,8.038,8.038,0,0,1-.21-3.53,10.062,10.062,0,0,1,2.066-4.54A15.081,15.081,0,0,1,31.48.785,1.436,1.436,0,0,1,32.246.57a1.4,1.4,0,0,1,1,.4,1.061,1.061,0,0,1,.31.868,1.125,1.125,0,0,1-.538.815,12.542,12.542,0,0,0-3.239,2.879,7.975,7.975,0,0,0-1.654,3.6,6.642,6.642,0,0,0,1.664,5.428,17.33,17.33,0,0,1,2.988,5.028,10.9,10.9,0,0,1,.653,4.956,10.392,10.392,0,0,1-1.561,4.388,15.2,15.2,0,0,1-3.614,3.883A1.425,1.425,0,0,1,27.377,33.1ZM32.246,1.57a.446.446,0,0,0-.235.062,14.074,14.074,0,0,0-3.649,3.251,9.077,9.077,0,0,0-1.87,4.088,7.708,7.708,0,0,0,1.936,6.3c1.437,1.74,3.781,5.254,3.341,9.231-.3,2.739-1.868,5.225-4.653,7.387a.119.119,0,0,0-.052.068c0,.01.01.034.047.065a.468.468,0,0,0,.524,0c2.872-2.231,4.485-4.785,4.8-7.591a9.906,9.906,0,0,0-.6-4.5,16.34,16.34,0,0,0-2.82-4.734,7.7,7.7,0,0,1-1.88-6.224,8.96,8.96,0,0,1,1.851-4.053,13.551,13.551,0,0,1,3.5-3.114c.056-.035.074-.07.075-.083a.082.082,0,0,0-.029-.05A.409.409,0,0,0,32.246,1.57Z" transform="translate(-4938 -1149.387)"/>
    <path id="パス_7100" data-name="パス 7100" class="cls-1" d="M39.467,31.531a.92.92,0,0,1-.581-.195.559.559,0,0,1,.014-.915c7.9-6.136,3.493-13.167,1.233-15.9-4.51-5.462-1.242-11.281,3.7-14.377a.956.956,0,0,1,1.14.109.564.564,0,0,1-.137.908c-4.379,2.742-7.3,7.87-3.349,12.649,5.247,6.354,4.717,12.748-1.455,17.542a.927.927,0,0,1-.567.184" transform="translate(-4938 -1149.387)"/>
    <path id="パス_7100_-_アウトライン" data-name="パス 7100 - アウトライン" class="cls-10" d="M39.467,32.031a1.413,1.413,0,0,1-.9-.309,1.058,1.058,0,0,1,.024-1.7c2.563-1.991,4-4.247,4.273-6.708.4-3.611-1.782-6.866-3.118-8.484a9.931,9.931,0,0,1-1.942-3.562,8.038,8.038,0,0,1-.21-3.53A10.062,10.062,0,0,1,39.661,3.2,15.081,15.081,0,0,1,43.57-.285,1.436,1.436,0,0,1,44.336-.5a1.4,1.4,0,0,1,1,.4,1.061,1.061,0,0,1,.31.868,1.125,1.125,0,0,1-.538.815,12.542,12.542,0,0,0-3.239,2.879,7.975,7.975,0,0,0-1.654,3.6,6.642,6.642,0,0,0,1.664,5.428,17.33,17.33,0,0,1,2.988,5.028,10.9,10.9,0,0,1,.653,4.956,10.392,10.392,0,0,1-1.561,4.388,15.2,15.2,0,0,1-3.614,3.883A1.425,1.425,0,0,1,39.467,32.031ZM44.336.5A.446.446,0,0,0,44.1.562a14.073,14.073,0,0,0-3.649,3.251A9.077,9.077,0,0,0,38.583,7.9a7.708,7.708,0,0,0,1.936,6.3c1.437,1.74,3.781,5.254,3.341,9.231-.3,2.739-1.868,5.225-4.653,7.387a.119.119,0,0,0-.052.068c0,.01.01.034.047.065a.468.468,0,0,0,.524,0c2.872-2.231,4.485-4.785,4.8-7.591a9.906,9.906,0,0,0-.6-4.5,16.34,16.34,0,0,0-2.82-4.734A7.7,7.7,0,0,1,39.224,7.9a8.96,8.96,0,0,1,1.851-4.053,13.551,13.551,0,0,1,3.5-3.114c.056-.035.074-.07.075-.083A.082.082,0,0,0,44.619.6.409.409,0,0,0,44.336.5Z" transform="translate(-4938 -1149.387)"/>
  </g>
</svg>
