<svg xmlns="http://www.w3.org/2000/svg" xmlns:xlink="http://www.w3.org/1999/xlink" width="230.576" height="241.891" viewBox="0 0 230.576 241.891">
  <defs>
    <style>
      .cls-1 {
        fill: none;
      }

      .cls-2 {
        clip-path: url(#clip-path);
      }

      .cls-3 {
        fill: #282828;
      }

      .cls-4 {
        fill: #bababa;
      }

      .cls-5 {
        fill: #6b6b6b;
      }

      .cls-6 {
        fill: #fbd8b5;
      }

      .cls-7 {
        fill: #edbc32;
      }

      .cls-8 {
        fill: #fce952;
      }

      .cls-9 {
        fill: #a4cced;
      }

      .cls-10 {
        fill: #4aa3d5;
      }

      .cls-11 {
        clip-path: url(#clip-path-2);
      }
    </style>
    <clipPath id="clip-path">
      <rect id="長方形_668" data-name="長方形 668" class="cls-1" width="186.728" height="225.598"/>
    </clipPath>
    <clipPath id="clip-path-2">
      <rect id="長方形_702" data-name="長方形 702" class="cls-1" width="102.224" height="60.476" transform="translate(0 0)"/>
    </clipPath>
  </defs>
  <g id="グループ_931" data-name="グループ 931" transform="translate(-48.888 -983.32)">
    <g id="グループ_678" data-name="グループ 678" transform="translate(92.736 999.613)">
      <g id="グループ_677" data-name="グループ 677" class="cls-2">
        <path id="パス_6630" data-name="パス 6630" class="cls-3" d="M5.513,221.135c.152,1.958-.672,3.953-1.907,4.25-1.294.312-2.3-1.39-2.209-3.555.084-1.923,1.026-3.429,2.076-3.545,1.011-.111,1.9,1.1,2.04,2.85"/>
        <path id="パス_6631" data-name="パス 6631" class="cls-4" d="M37.381,154.006v56.482a5.707,5.707,0,0,1-2.848,4.922c-2.216,1.558-6.487,3.257-8.3,4.386a17.967,17.967,0,0,1-7.629,2.055l-.007.007c-1.37.114-2.793.168-4.2.168-4.459,0-7.885-.518-9.772-2.4S1.712,158.58,1.712,158.58a6.015,6.015,0,0,1,.222-2.68l.007-.007c.329-.638,1.068-1.215,2.686-1.941,3.432-1.544,14.124-5.359,14.191-5.359a8.259,8.259,0,0,1,2.324-.3H31.666a5.732,5.732,0,0,1,5.715,5.715"/>
        <path id="パス_6632" data-name="パス 6632" class="cls-5" d="M21.948,160.178v56.481a5.733,5.733,0,0,1-3.345,5.192l-.006.007a5.8,5.8,0,0,1-2.364.51H5.709A5.726,5.726,0,0,1,0,216.659V160.178A5.7,5.7,0,0,1,1.934,155.9l.007-.007a5.688,5.688,0,0,1,3.768-1.43H16.233a5.732,5.732,0,0,1,5.715,5.715"/>
        <rect id="長方形_664" data-name="長方形 664" class="cls-3" width="21.948" height="3.6" transform="translate(0 174.06)"/>
        <rect id="長方形_665" data-name="長方形 665" class="cls-3" width="21.948" height="3.6" transform="translate(0 199.178)"/>
        <path id="パス_6633" data-name="パス 6633" class="cls-6" d="M6.011,179.375h9.925v-7.03H6.011Zm8.624-.922H7.312v-5.187h7.323Z"/>
        <path id="パス_6634" data-name="パス 6634" class="cls-6" d="M6.011,204.493h9.925v-7.03H6.011Zm8.624-.922H7.312v-5.187h7.323Z"/>
        <path id="パス_6635" data-name="パス 6635" class="cls-3" d="M37.381,168.56v3.519L21.948,177.64v-3.519Z"/>
        <path id="パス_6636" data-name="パス 6636" class="cls-3" d="M37.381,193.652v3.519l-15.433,5.561v-3.519Z"/>
        <path id="パス_6637" data-name="パス 6637" class="cls-6" d="M27.126,174.78c0,3.156-.593,5.738-1.317,5.738s-1.317-2.582-1.317-5.738.593-5.739,1.317-5.739,1.317,2.583,1.317,5.739"/>
        <path id="パス_6638" data-name="パス 6638" class="cls-3" d="M26.238,170.814a.443.443,0,1,1-.429-.557.505.505,0,0,1,.429.557"/>
        <path id="パス_6639" data-name="パス 6639" class="cls-3" d="M26.238,178.745a.443.443,0,1,1-.429-.557.505.505,0,0,1,.429.557"/>
        <path id="パス_6640" data-name="パス 6640" class="cls-6" d="M27.126,199.435c0,3.156-.593,5.738-1.317,5.738s-1.317-2.582-1.317-5.738.593-5.738,1.317-5.738,1.317,2.582,1.317,5.738"/>
        <path id="パス_6641" data-name="パス 6641" class="cls-3" d="M26.238,195.469a.443.443,0,1,1-.429-.557.505.505,0,0,1,.429.557"/>
        <path id="パス_6642" data-name="パス 6642" class="cls-3" d="M26.238,203.4a.443.443,0,1,1-.429-.557.505.505,0,0,1,.429.557"/>
        <path id="パス_6643" data-name="パス 6643" class="cls-3" d="M12.914,183.424v9.985a1.014,1.014,0,0,1-.591.918h0a1.024,1.024,0,0,1-.418.09H10.043a1.013,1.013,0,0,1-1.009-1.009v-9.985a1.007,1.007,0,0,1,.342-.756h0a1,1,0,0,1,.666-.253H11.9a1.013,1.013,0,0,1,1.01,1.01"/>
        <path id="パス_6644" data-name="パス 6644" class="cls-3" d="M25.37,221.311c.152,1.958-.672,3.953-1.907,4.25-1.294.312-2.3-1.39-2.209-3.555.084-1.923,1.026-3.429,2.076-3.545,1.011-.111,1.9,1.1,2.04,2.85"/>
        <path id="パス_6645" data-name="パス 6645" class="cls-3" d="M38.744,215.09c.152,1.959-.672,3.953-1.907,4.25-1.294.312-2.3-1.39-2.209-3.555.084-1.923,1.026-3.429,2.076-3.545,1.011-.111,1.9,1.1,2.04,2.85"/>
        <path id="パス_6646" data-name="パス 6646" class="cls-3" d="M25.069,149.223l-7.807,3.354a3.87,3.87,0,0,1-1.181.257h0a2.463,2.463,0,0,1-.4-.006l-1.457-.161c-.436-.048-.435-.24,0-.427l7.807-3.353a3.593,3.593,0,0,1,.86-.225h0a3.055,3.055,0,0,1,.72-.027l1.457.161c.436.048.436.24,0,.427"/>
        <rect id="長方形_666" data-name="長方形 666" class="cls-3" width="3.085" height="1.248" transform="translate(13.904 152.49)"/>
        <rect id="長方形_667" data-name="長方形 667" class="cls-3" width="3.085" height="1.248" transform="translate(22.302 148.936)"/>
        <path id="パス_6647" data-name="パス 6647" class="cls-6" d="M136.524,42.941c-.194-.82-10.453,17.411-13.077,11.713-1.563-3.4-4.429-7.347-4.852-8.34a3.156,3.156,0,0,1,.391-3.611c.549-.743,1.668-2.652,2.323-3.816s.481-1.984-.236-2.147-1.069.887-2.419,2.273-1.213.368-1.724-.554-1.643-5.676-2.279-6.647-1.214-2.238-2.173-1.858.237,2.147-.138,2.812-.99.166-2.13-.1-1.048.461-1.277,1.646.063,1.327-.7,2.016-.647.993-.393,1.9,2.046,2.7,3.46,4.355,1.965,3.333,2.848,5.44c.442,1.055,1,3.089,1.7,4.695.776,1.778,2.538,5.806,3.382,7.722a8.343,8.343,0,0,0,8.475,4.972c6.725-.508,14.37-15.591,15.14-15.884,0,0-5.961-5.041-6.326-6.586"/>
        <path id="パス_6648" data-name="パス 6648" class="cls-3" d="M174.793,30.122c10.929,1.571,10.1,21.474,9.43,30.49-.6,8.134,4.563,11.019,1.558,15.582-4.246,6.447-30.148,5.591-34.2,3.272s-6.441-42.826,2.042-48.255c10.209-6.534,21.167-1.089,21.167-1.089"/>
        <path id="パス_6649" data-name="パス 6649" class="cls-7" d="M147.3,31.438c2.329-1.913,2.634-.166,5.3-1.165s2.44-1.331,4.88-.443,3.186-1.517,5.547-.555c5.99,2.44,12.161,3.011,14.01,7.517,4.326,10.538,3.459,11-1.089,10.89s-13.92-7.093-18.689-6.871-10.372,2.025-11.7.028-3.04-5.469,1.747-9.4"/>
        <path id="パス_6650" data-name="パス 6650" class="cls-6" d="M152.206,26.369c.292,0,4.125.274,4.49.24a26.965,26.965,0,0,0,.986,3.634c.365.754,3.012,5.073,3.377,5.45-4.235,3.634-10.149,3.154-13-.137.767-.377,3.1-4.457,3.432-5.948.241-1.093.712-2.828.712-3.239"/>
        <path id="パス_6651" data-name="パス 6651" class="cls-6" d="M161.418,18.632C161.4,12.055,158.784,4.34,150.85,4.846s-9.834,9.013-9.017,15.539c-.395-.349-1.315-.378-1.247.7a3.439,3.439,0,0,0,.971,2.014,3.885,3.885,0,0,0,1.863,1.06,9.421,9.421,0,0,0,2.544,3.822,11.491,11.491,0,0,0,6.9,2.591c2.072-.076,4.525-2.084,5.774-3.623a13.722,13.722,0,0,0,2.318-4.132,2.788,2.788,0,0,0,1.487-1.329,4.207,4.207,0,0,0,.294-2.432.863.863,0,0,0-1.318-.421"/>
        <path id="パス_6652" data-name="パス 6652" class="cls-3" d="M145.627,1.833A5.745,5.745,0,0,0,148.552.542c1.353-1.07,3.658-.223,5.509-.229s4.79,2.445,5.59,2.959c2.176,1.395,3.291,4.454,4.005,6.987a14.208,14.208,0,0,1,.327,5.134c-.253,1.307-1.508,2.446-2.181,3.331s-.824,2.937-1.393,1.065.335-3.862-3.779-3.252c-2.66.394-7.534-5.01-8.825-5.882s-2,1.03-2.51,1.792-1.638,2.8-2.249,3.789.782,6.436-.96,5.156c-1.6-1.173-1.668-2.1-3.5-5.792-1.237-2.491.382-6.53.918-8.712a6.469,6.469,0,0,1,6.122-5.055"/>
        <path id="パス_6653" data-name="パス 6653" class="cls-6" d="M177.671,203.346a5.876,5.876,0,0,1-.467-1.022c-.72-2.262-1.337-52.55-1.748-54.093,0,0-10.284-.617-10.181,1.646s5.553,53.887,4.525,55.841a6.9,6.9,0,0,1-1.51,1.613c3.613.82,6.563-1.571,9.381-3.985"/>
        <path id="パス_6654" data-name="パス 6654" class="cls-3" d="M177.671,203.346c-2.818,2.414-5.768,4.805-9.381,3.985-2.636,2.268-7.746,5.55-9.6,7.642-2.365,2.674,2.468,3.6,4.628,2.982s13.677-4.833,16.043-7.4c2.031-2.208-.485-5.021-1.693-7.205"/>
        <path id="パス_6655" data-name="パス 6655" class="cls-3" d="M133.331,207.011c-2.244,1.281-6.169,1.666-8.368,3.334-2.982,2.262-5.553,5.759,1.543,6.273s14.191-3.5,15.734-5.759c1.51-2.214-1.21-2.952-1.326-4.14a17.171,17.171,0,0,1-7.583.292"/>
        <path id="パス_6656" data-name="パス 6656" class="cls-6" d="M149.438,147.408s-11.209-3.188-11.518-1.954-2.159,56.767-2.982,59.749a3.1,3.1,0,0,1-1.608,1.808,17.185,17.185,0,0,0,7.583-.292c0-.026-.01-.05-.01-.077,0-1.234,9.152-57.383,8.535-59.234"/>
        <path id="パス_6657" data-name="パス 6657" class="cls-4" d="M177.513,91.567c.926,1.234.236,106.458-.175,107.59s-4.671,2.163-7.654,2.163-7.988-47.65-8.317-52.061c-.3-4.089-4.216-30.954-4.216-31.983s-.823-4.113-1.337,1.44-13.716,83.39-14.332,84.933-4.247-.107-6.407-.416-2.6-56.339-2.194-58.191,5.657-50.6,6.479-51.521,38.153-1.954,38.153-1.954"/>
        <path id="パス_6658" data-name="パス 6658" class="cls-8" d="M143.062,35.154c1.775-1.22,4.9-2.777,5.408-2.635s2.073,6.1,3.993,6.24,7.022-5,7.571-5.824,5.553.011,8.541,1.221c5.805,2.35,9.189,8.43,10.914,10.531,2.871,3.495,3.33,7.4,2.723,13.476-.306,3.063-5.106,10-4.492,14.7.526,4.032,2.255,23,2.144,30.321-.024,1.577-2.725,5.248-8.072,5.18s-8.874-2.108-11.315-3.217c-1.97-.9-11.541-.728-14.42-.111s-8.411,1.38-9.1-2c-1.553-7.654,2.228-17.883,2.3-22.2s.031-12.835-.188-14.514c-.552-4.213.036-9.426-2.39-6.221-2.858,3.777-7.792-5.545-8.1-7.385-.408-2.45.789-2.741,3.676-6.806,1.016-1.431,5.925-7.541,10.806-10.758"/>
        <path id="パス_6659" data-name="パス 6659" class="cls-7" d="M139.519,93.5c1.123-1.788,2.953-2.485,3.785-5.624s-.166-4.36,2.5-4.534,4.825.174,8.32.174,8.485-1.221,9.317.349-.665,3.662.5,5.406,2,4.534,2.995,6.278,0,4.011-4.492,3.314-7.82-1.57-10.649-1.57-8.652,1.744-11.148,1.744-3.7-1.962-1.123-5.537"/>
        <path id="パス_6660" data-name="パス 6660" class="cls-3" d="M164.322,33.037a8.825,8.825,0,0,0-3.363-.283s-.736,7.336-.662,10.776a21.253,21.253,0,0,0,2.586,10.958c1.053,1.9.749-4.551.749-7.418,0-2.723.479-5.307.395-7.712-.065-1.86.254-4.911.3-6.321"/>
        <path id="パス_6661" data-name="パス 6661" class="cls-3" d="M142.051,36.067a2.349,2.349,0,0,1,2.728-1.929s-1.345,17.394-2.179,20.214c-.635,2.15-2.53,6.854-4.151,7.622a5.125,5.125,0,0,1,.341-4.083c2.314-4.424,2.905-13.119,3.131-15.178.173-1.592.071-5.435.13-6.646"/>
        <path id="パス_6662" data-name="パス 6662" class="cls-7" d="M148.608,31.6c.915,0,.89-1.276,1.527.277s.386,1.8,1.135,2.718,1.775.028,2.08,2.662c.108.935,1.546,1.122.388,1.858-1.83,1.165-2.634-1.026-4.8-1.109s-2.181-2.1-2.8-2.635c-1.026-.887-1.525-1.469-.194-2.3s1.83-1.47,2.662-1.47"/>
        <path id="パス_6663" data-name="パス 6663" class="cls-7" d="M152.768,37.65c-.111-1.026-.194-2.468,2.052-2.8s2.5-.86,3.411-2.191,1.165-1.83,2.5-2.163,8.43.8,8.513,1.886,1.341,1.7.111,2.551c-2.551,1.775-4.991.222-7.875.444-2.3.177-2.08,2.191-3.827,2.607s-2.884,2.246-4.881-.333"/>
        <path id="パス_6664" data-name="パス 6664" class="cls-9" d="M75.856,41.859c-6.659.883-13.219,3.918-16.425,8.681-4.764,7.078-1.906,9.392-4.22,15.245A20.929,20.929,0,0,0,54.258,76.4c.551,3.082,8.576,5.717,14.021,5.036,5.561-.695,21.675-3.231,23.481-7.855S96.745,58.9,96.177,53.429,93.385,46.37,90.854,44.4c-3.675-2.859-12.642-2.889-15-2.543"/>
        <path id="パス_6665" data-name="パス 6665" class="cls-3" d="M93.031,40.333A7.23,7.23,0,0,1,85.147,39.2c-3.7-3.7,2.967-4.644,4.338-6.359,1-1.255,2.2-3.839,3.2-4.625s2.442-6.645,4.288-1.252c.485,1.418-.35,2.564.2,5.17.172.807,1.506,2,.7,3.168-.965,1.4-2.335,1.073-2.775,1.968s.263,2.273-2.072,3.066"/>
        <path id="パス_6666" data-name="パス 6666" class="cls-6" d="M75.864,31.862c.953,3.691,3.369,6.074,5.768,6.764a12.563,12.563,0,0,0,7.308-.191,12.054,12.054,0,0,0,4.424-3.575,7.616,7.616,0,0,0,1-2.764c.376-2.322,1.921-1.837,1.63-6.829-.088-1.515-1.262-8.691-7.628-10.9-5.6-1.945-14.494,9.774-12.5,17.5"/>
        <path id="パス_6667" data-name="パス 6667" class="cls-3" d="M89.476,22.484c2.737-2.891,5.8,6.607,6.913,4.658C99.361,21.96,93.911,15.36,91.4,14.06c-3.5-1.812-13.746-.708-16.518,4.022-2.208,3.767-1.47,5.456-4,6.817-1.448.779-1.133,2.923-.769,4.915.523,2.855-2.64,2.244-.942,4.606,2.11,2.935,5.426,2.77,7.829,2.048,1.852-.556,1.173-5.067-.157-6.325-1.711-2.588-1.1-3.328-.456-4.062s2.254-.931,2.5-.061c1.213,4.325.834.212,2.1-.39,3.446-1.634,1.188,2.221,8.488-3.146"/>
        <path id="パス_6668" data-name="パス 6668" class="cls-3" d="M105.8,211.272c1.674,2.251,2.348,2.438,1.5,4.343s-4.087,4.6-7.725,2.472-4.784-2.168-7.774-6.527-4.219-9.174-2.14-10,5.56-1.012,7.192,1.138,8.947,8.577,8.947,8.577"/>
        <path id="パス_6669" data-name="パス 6669" class="cls-6" d="M86.36,144.506s10.842-2.265,11.051-1.074-1.758,54.326-1.21,56.845v0a20.427,20.427,0,0,0,6.931,8.289c3.49,2.467,6.189,4.706,2.064,5.916s-7.792.836-11.3-2.152-3.659-6.635-4.056-10.01A4.215,4.215,0,0,1,90,200.5c-.5-4.435-4.321-54.348-3.638-56"/>
        <path id="パス_6670" data-name="パス 6670" class="cls-3" d="M105.216,209.981c-1.933-.134-2.722-.44-4.927,1.672s-2.836,2.017-3.411,3.015-1.32.538-2.227-.383-1.661.193.56-2.745,4.655-4.571,5.982-4.36a6.775,6.775,0,0,1,4.023,2.8"/>
        <path id="パス_6671" data-name="パス 6671" class="cls-3" d="M78.633,215.086c1.813,2.141,2.5,2.285,1.771,4.24s-3.79,4.844-7.554,2.953-4.911-1.862-8.17-6.024-4.788-8.89-2.766-9.848,5.485-1.361,7.249.683,9.47,8,9.47,8"/>
        <path id="パス_6672" data-name="パス 6672" class="cls-6" d="M62.085,205.8a5.686,5.686,0,0,1,1.472-2.168,1.834,1.834,0,0,1,0-.29c.264-2.241,10.456-48.856,11.11-50.225,0,0,9.715,1.226,9.223,3.321s-12.12,45.12-12.437,46.4a12.778,12.778,0,0,1-1.261,3.491c.764.862,1.472,1.7,2.068,2.292,1.832,1.817,7.845,6.223,6.55,8.052s-4.41,5.232-9.116,1.6-8.643-9.868-7.611-12.479"/>
        <path id="パス_6673" data-name="パス 6673" class="cls-3" d="M77.479,213.147c-1.921-.255-2.689-.61-5.023,1.36s-2.956,1.835-3.593,2.795-1.351.454-2.2-.522-1.67.088.731-2.705,4.932-4.269,6.243-3.976a6.772,6.772,0,0,1,3.84,3.048"/>
        <path id="パス_6674" data-name="パス 6674" class="cls-6" d="M85.075,31.262c-.3-.021-4.3.013-4.671-.051-.2.671,1.444,6.119.291,7.713C77.069,43.939,65.546,43.435,61.609,50c-4.166,6.944,4.04,10.147,7.589,11.228-.113.29,6.475.141,10.186.154.727,0,9.1,2.932,14.352-1.543.693-.591,1-10.244.168-13.31-.695-2.546-7.195-5.026-7.73-7.524a34.7,34.7,0,0,1-.6-4.114c-.167-1.223-.526-3.171-.5-3.625"/>
        <path id="パス_6675" data-name="パス 6675" class="cls-5" d="M43.581,174.65c2.639-4.4,2.886-14.635,4.938-18.056,1.047-1.744,4.372-7.213,3.7-10.648-.926-4.938.913-12,.463-12.809-1.915-4.308,4.476-23.182,6.22-33C60.043,93.729,64.6,85,65.186,80.9c.475-3.322,1.08-22.222,3.781-24.151,2.407-1.719,12.886-2.469,16.2-3.009,2.055-.335,9.65-2.692,9.958-.068.162,1.378.842,5.88.919,7.963C95.78,67.085,91.721,77.9,91.884,78.97c.678,4.456,4.082,15.313,4.661,18.11.734,3.547,5.37,25.255,5.833,27.493.849,2.623-1.389,6.79.617,12.962.772,3.7,3.557,9.284,4.012,10.263,2.425,5.214,1.333,16.018,4.167,24.229S122,183.27,114.2,189.036s-33.841,3.421-41.758-.293-18.669.1-24.924.978-6.578-10.673-3.939-15.071"/>
        <path id="パス_6676" data-name="パス 6676" class="cls-9" d="M73.241,41.763c2.542,0,2.821-2.065,4.658.2s3.262,8.293,4.7,9.577,3.484,1.168,6.133,3.04,3.614,2.922,3.8,5.359.944,5.213.7,6.838-1.611,1.7-3.622,1.435-2.852-.63-2.471-2.825-1-8.123-2.932-9.643-6.858-4.553-8.849-5.885-5.94-1.57-6.782-5.493c-.346-1.607,2.524-2.051,4.666-2.6"/>
        <path id="パス_6677" data-name="パス 6677" class="cls-9" d="M91.1,42.676c-1.667.246-2.148,3.628-4.534,5.49s-5.25,3.653-7.731,6.638-4.531,2.035-6.7,7.08-3.082,7.776-.744,8.75,4.364,2.211,5.3-.809.195-5.116,2.249-7.362,1.7-6.15,4.063-7.112,3.736-4.621,6.156-4.609,5.049-2.578,6.2-3.734-1.915-3.146-4.254-4.332"/>
        <path id="パス_6678" data-name="パス 6678" class="cls-4" d="M75.085,92.465c.039-2.033-.67-10.132-.862-11.211-.443-2.48-2.612-8.755-4.447-8.867-2.79-.17-1.879-.938-1.259-1.531,1.532-1.463,3.166.4,4.107,1.421a14.26,14.26,0,0,1,2.705,4.712,43.736,43.736,0,0,1,2.02,8.355c.25,2.243,1.084,5.142,1,7.393-.027.757-3.271-.05-3.267-.272"/>
        <path id="パス_6679" data-name="パス 6679" class="cls-9" d="M91.5,10.656a17.062,17.062,0,0,0-2.259-2.047,11.623,11.623,0,0,0-4.521-2.061C76.223,5.4,74.81,9.174,71.366,15.7c-.488.924-1.963,1.881-3.825,2.8,8.652.056,17.47-2.32,23.957-7.845"/>
        <path id="パス_6680" data-name="パス 6680" class="cls-5" d="M91.5,10.656c-6.487,5.525-15.305,7.9-23.957,7.845-.177.088-.352.176-.536.262A25.473,25.473,0,0,0,94.5,13.2a1.391,1.391,0,0,1-.453-.174A20.158,20.158,0,0,1,91.5,10.656"/>
        <path id="パス_6681" data-name="パス 6681" class="cls-9" d="M98.052,13.012A19.346,19.346,0,0,1,94.5,13.2a25.473,25.473,0,0,1-27.49,5.562c-.86.408-1.784.808-2.726,1.194C60,21.71,61.125,25.972,63.795,28.4c4.564,4.149,11.537,2.181,14.78,1.045C86.7,26.6,82.327,23.417,89.9,20.552c3.383-1.278,2.9,3.749,8.146,2.257,4.943-1.406,4.088-2.7,4.48-4.063.574-2,1.3-6.057-4.476-5.734"/>
        <path id="パス_6682" data-name="パス 6682" class="cls-10" d="M91.284,51.9c.407,2.314,0,3.947.136,7.623s-1.09,4.492-.409,9.392-2.313,8.576,2.315,9.392a57.881,57.881,0,0,1,11.57,3.539c5.308,2.042,6.8,1.634,9.391.273,2.059-1.084,5.581-1.634,10.074-3.131s6.261-.681,6.261-4.084c0-5.174-1.36-13.612-1.088-16.879s-.137-6.67-.137-8.847-2.45-2.315-5.308-1.089a68.071,68.071,0,0,1-8.848,3.4c-2.315.544-4.764,1.769-7.35.408a80.107,80.107,0,0,0-13.068-4.628c-1.906-.272-2.816-.529-3.539,4.628"/>
        <path id="パス_6683" data-name="パス 6683" class="cls-6" d="M167.919,58.265c-1.657-1.24-2.488-2.335-3.267-1.531a68.415,68.415,0,0,1-9.188,8.473c-1.821,1.292-6.876,1.358-11.124,1.835-1.872.211-6.37.414-7.63-.714a6.81,6.81,0,0,1-1.864-2.062c-.448-.821-1.726-2.662-2.516-3.76s-1.618-1.288-2.074-.7.36,1.36,1.059,3.191-.18,1.272-1.244,1.348-5.916-.908-7.079-.738-2.574.163-2.633,1.205,2.074.7,2.525,1.325-.27.981-1,1.913-.023,1.16.968,1.875,1.247.507,1.556,1.5.637,1.017,1.581,1.171,3.358-.727,5.477-1.323a14.513,14.513,0,0,1,2-.45,21.707,21.707,0,0,1,5.927.917c6.606,1.885,13.54,2.32,24.041-2.961,4.36-3.629,7.744-6.015,7.148-6.988a13.7,13.7,0,0,0-2.656-3.527"/>
        <path id="パス_6684" data-name="パス 6684" class="cls-4" d="M85.851,101c-.216.275-.421.532-.608.766-.17.211-.322.4-.462.562-.69.813-1.439,1.784-2.194,2.8-.187.258-.374.521-.561.784-1.228,1.7-2.416,3.468-3.334,4.831-.2.292-.38.567-.55.813-.041.053-.07.105-.1.152-.836,1.228-2.129,3-3.433,4.656-.193.245-.38.485-.579.725a26.731,26.731,0,0,1-3.012,3.328c-1.082.877-3.2.713-5.557.134q-1.07-.263-2.175-.614c-3.036-.965-6.089-2.287-7.662-2.79-1.082-.351-2.112-.631-3.123-.906-.971-.263-1.93-.527-2.9-.831a27.021,27.021,0,0,1-3.093-1.187c-1.948-.895-2.615-3.884-2.855-6.913-.017-.269-.035-.538-.046-.8-.094-1.637-.077-3.234-.082-4.468-.006-.474-.012-1.111-.018-1.866,0-.31,0-.637-.006-.982-.011-1.884,0-4.258.106-6.615.011-.258.023-.509.035-.766.082-1.714.222-3.381.427-4.82.046-.3.093-.6.146-.877.339-1.842.83-3.147,1.55-3.386.333-.433,5.486.894,9.779,2.082,1.363.374,2.626.737,3.632,1.023,1.076.3,1.854.532,2.1.6.181.088,8.591,2.684,10.083,3.129.941.286,2.977.947,5.328,1.731,1,.333,2.059.69,3.117,1.047,3.989,1.363,7.949,2.766,8.651,3.158.912.509-1.047,3.469-2.6,5.5"/>
        <path id="パス_6685" data-name="パス 6685" class="cls-8" d="M85.851,101c-.216.275-.421.532-.608.766-1.053-.678-2.088-1.38-3.135-2.059-.24-.158-.486-.315-.731-.479-.345-.217-.7-.433-1.047-.649A35.115,35.115,0,0,0,75.5,96.144c-.344-.147-.69-.281-1.04-.41a35.954,35.954,0,0,0-3.65-1.152c-.287-.076-.573-.146-.86-.211-.357-.087-.719-.169-1.082-.245-2.4-.533-4.825-.924-7.235-1.427-.3-.059-.6-.129-.906-.193-.059-.012-.123-.03-.182-.041-2.316-.521-4.6-1.17-6.848-1.9-.369-.123-.737-.24-1.1-.369-1.3-.438-2.6-.912-3.9-1.392-.34-.128-.685-.263-1.024-.391-1.211-.463-2.41-.942-3.614-1.422.046-.3.093-.6.146-.877,1.216.485,2.439.971,3.661,1.445.328.128.649.257.977.38q1.895.718,3.807,1.386c.164.058.334.111.5.17.194.064.392.128.585.193,2.27.754,4.562,1.415,6.89,1.965.363.087.731.175,1.1.251.526.117,1.052.228,1.585.334,1.86.368,3.737.7,5.6,1.087.369.077.737.152,1.1.24,1.123.252,2.246.538,3.346.883q.641.193,1.263.422c.351.122.7.257,1.053.391a37.282,37.282,0,0,1,6.206,3.153c.111.064.216.129.321.2l.392.251c1.088.708,2.164,1.433,3.252,2.135"/>
        <path id="パス_6686" data-name="パス 6686" class="cls-8" d="M82.587,105.127c-.187.257-.374.521-.561.784a33.918,33.918,0,0,0-5.276-2.591c-.322-.135-.638-.258-.959-.375-1.486-.555-3-1.035-4.521-1.491-.357-.1-.714-.205-1.071-.31-1.783-.5-3.579-.983-5.363-1.486-.351-.1-.7-.2-1.047-.3-.556-.158-1.117-.327-1.672-.5-1.849-.573-3.644-1.281-5.422-2.023-.31-.123-.62-.258-.93-.387-1.31-.549-2.621-1.117-3.942-1.649-.515-.2-1.03-.409-1.556-.6-.351-.129-.7-.252-1.059-.375a28.128,28.128,0,0,0-3.62-.965c-.368-.07-.731-.134-1.1-.181-.293-.041-.585-.076-.878-.1.012-.258.024-.509.035-.767q.465.036.93.088c.374.047.743.1,1.112.164a26.3,26.3,0,0,1,3.649.9c.363.111.725.234,1.088.362.912.316,1.819.673,2.708,1.041l2.889,1.211c.316.135.632.269.954.4a69.166,69.166,0,0,0,6.813,2.491l.176.053c.351.1.7.205,1.047.3,1.778.5,3.568.965,5.351,1.451l1.053.3c.965.275,1.93.561,2.889.871.591.193,1.176.392,1.755.614.322.112.643.234.959.363a40.128,40.128,0,0,1,5.574,2.708"/>
        <path id="パス_6687" data-name="パス 6687" class="cls-8" d="M78.692,110.742c-.2.292-.38.567-.55.813-.462-.2-.924-.38-1.386-.55-.328-.123-.655-.234-.983-.345-.912-.31-1.836-.591-2.766-.86l-1.064-.3c-.872-.246-1.743-.485-2.609-.743q-1.482-.438-2.948-.912c-.374-.123-.743-.246-1.111-.369-2.03-.666-4.042-1.374-6.053-2.093-.176-.065-.351-.123-.527-.188-.333-.116-.667-.239-1-.356-1.854-.661-3.708-1.328-5.574-1.966-.386-.134-.772-.269-1.158-.4-1.433-.486-2.878-.96-4.328-1.4-.38-.117-.766-.234-1.146-.345-.661-.193-1.322-.386-1.983-.562,0-.31,0-.637-.006-.982.667.175,1.328.357,1.989.55.38.105.766.222,1.146.333q2.045.614,4.071,1.292c.082.03.164.053.245.082.386.129.767.258,1.147.392,1.953.661,3.889,1.357,5.831,2.053.339.117.673.24,1.012.357,2.135.76,4.269,1.521,6.416,2.234.368.129.743.252,1.111.369,1.638.538,3.287,1.052,4.948,1.52l.684.193c.363.1.726.205,1.083.31,1.005.287,2.006.591,2.988.924.334.106.661.223.983.345.515.188,1.029.386,1.538.6"/>
        <path id="パス_6688" data-name="パス 6688" class="cls-8" d="M74.6,116.362c-.193.246-.38.485-.579.725l-1.486-.474h-.005c-.328-.1-.656-.21-.977-.315q-1.755-.562-3.51-1.141c-.345-.111-.7-.228-1.04-.345q-3.2-1.053-6.37-2.146c-.345-.117-.684-.234-1.023-.351-.813-.281-1.621-.562-2.428-.849-1.251-.438-2.515-.9-3.784-1.356-.333-.123-.666-.24-1-.357H52.4c-1.286-.456-2.579-.895-3.889-1.281q-.544-.167-1.088-.316c-.614-.169-1.228-.327-1.842-.468-.4-.093-.8-.175-1.2-.251-.24-.047-.48-.094-.726-.129-.017-.269-.035-.538-.046-.8.21.029.415.064.62.1h.006c.409.07.818.152,1.228.24.7.146,1.392.31,2.088.5.356.094.707.193,1.064.293l.053.017c1.316.38,2.614.807,3.913,1.252.333.111.672.228,1.006.351,1.789.626,3.567,1.281,5.357,1.9.293.1.585.2.877.3.345.123.7.24,1.041.362q3.177,1.089,6.352,2.153c.351.111.7.228,1.041.339.4.134.79.263,1.188.392.807.263,1.608.526,2.415.783l.994.316c.585.187,1.17.375,1.755.556"/>
        <path id="パス_6689" data-name="パス 6689" class="cls-8" d="M48.363,86.163a10.8,10.8,0,0,0-.854,3.648c-.008.149,1.112.023,1.13-.3a10.492,10.492,0,0,1,.837-3.548c.079-.183-.384-.113-.449-.1a1.8,1.8,0,0,0-.431.133c-.077.036-.2.088-.233.17"/>
        <path id="パス_6690" data-name="パス 6690" class="cls-8" d="M52.8,88.057a25.906,25.906,0,0,0-.238,3.744c0,.259,1.134.073,1.13-.3a24.967,24.967,0,0,1,.229-3.615c.031-.223-.332-.192-.468-.169a1.438,1.438,0,0,0-.429.139c-.072.039-.212.114-.224.2"/>
        <path id="パス_6691" data-name="パス 6691" class="cls-8" d="M60.7,90.329a21.243,21.243,0,0,1-.49,4.175c-.092.418,1.045.241,1.129-.143a21.329,21.329,0,0,0,.491-4.175c0-.248-.3-.263-.488-.239-.162.02-.638.146-.642.382"/>
        <path id="パス_6692" data-name="パス 6692" class="cls-8" d="M68.928,92.5a17.959,17.959,0,0,1-.34,3.723c-.041.206.349.151.458.131a1.62,1.62,0,0,0,.43-.136c.069-.035.212-.1.229-.185a18.558,18.558,0,0,0,.353-3.836c0-.212-1.134-.038-1.13.3"/>
        <path id="パス_6693" data-name="パス 6693" class="cls-8" d="M74.766,93.971a26.428,26.428,0,0,1-.83,3.916c-.081.275.334.381.521.367a.668.668,0,0,0,.623-.454,26.441,26.441,0,0,0,.83-3.917c.077-.57-1.076-.419-1.144.088"/>
        <path id="パス_6694" data-name="パス 6694" class="cls-8" d="M82.186,97.949a27.532,27.532,0,0,0-2.037,3.548c-.1.205.386.168.464.154.209-.037.552-.117.655-.334A26.51,26.51,0,0,1,83.219,97.9c.135-.2-.12-.244-.28-.235a1.1,1.1,0,0,0-.753.283"/>
        <path id="パス_6695" data-name="パス 6695" class="cls-8" d="M76.512,100.489,75.4,104.3c-.06.206.362.154.46.136a1.578,1.578,0,0,0,.429-.136c.076-.038.2-.1.229-.188l1.11-3.807c.06-.207-.363-.155-.46-.137a1.553,1.553,0,0,0-.43.137c-.075.038-.2.1-.228.187"/>
        <path id="パス_6696" data-name="パス 6696" class="cls-8" d="M70.714,98.862a16.557,16.557,0,0,0-.706,4.5c0,.256.293.29.5.267.173-.02.634-.152.638-.4a16.594,16.594,0,0,1,.705-4.5c.076-.253-.347-.283-.5-.266-.234.026-.563.145-.638.4"/>
        <path id="パス_6697" data-name="パス 6697" class="cls-8" d="M64.383,96.09q-.383,2.571-1.008,5.1c-.11.445,1.031.282,1.133-.129q.625-2.523,1.008-5.1c.07-.472-1.072-.284-1.133.129"/>
        <path id="パス_6698" data-name="パス 6698" class="cls-8" d="M56.376,94.02a22.839,22.839,0,0,1-1.316,4.394c-.082.2.38.143.457.13.185-.032.575-.114.66-.319a22.929,22.929,0,0,0,1.316-4.4c.04-.205-.348-.147-.458-.13-.146.026-.621.123-.659.321"/>
        <path id="パス_6699" data-name="パス 6699" class="cls-8" d="M49.43,91.892a16.794,16.794,0,0,1-.68,3.877c-.08.269.335.381.52.362a.677.677,0,0,0,.624-.452,16.848,16.848,0,0,0,.68-3.877c.032-.578-1.116-.412-1.144.09"/>
        <path id="パス_6700" data-name="パス 6700" class="cls-8" d="M44.7,90.806q-.215,1.84-.427,3.68c-.063.541,1.085.37,1.14-.1q.213-1.841.427-3.681c.063-.541-1.085-.37-1.14.1"/>
        <path id="パス_6701" data-name="パス 6701" class="cls-8" d="M45.488,98.853v2.887a.449.449,0,0,0,.532.408c.236-.022.617-.185.617-.478V98.783a.449.449,0,0,0-.532-.408c-.236.022-.617.185-.617.478"/>
        <path id="パス_6702" data-name="パス 6702" class="cls-8" d="M51.008,99.359q-.092,1.842-.032,3.686c.009.27.27.381.518.354.2-.022.634-.171.625-.447q-.06-1.844.032-3.686c.028-.572-1.118-.4-1.143.093"/>
        <path id="パス_6703" data-name="パス 6703" class="cls-8" d="M58.211,102.563a38.03,38.03,0,0,1-1.186,4.578c-.082.249.352.275.492.258.235-.027.558-.143.639-.392a37.863,37.863,0,0,0,1.187-4.579c.086-.446-1.054-.266-1.132.135"/>
        <path id="パス_6704" data-name="パス 6704" class="cls-8" d="M65.508,104.632l-.408,4.977c-.049.594,1.1.447,1.146-.08l.408-4.977c.049-.6-1.1-.447-1.146.08"/>
        <path id="パス_6705" data-name="パス 6705" class="cls-8" d="M72.274,106.82a19.311,19.311,0,0,1-.505,3.483c-.067.277.321.414.528.394a.657.657,0,0,0,.619-.47,19.147,19.147,0,0,0,.5-3.483c.032-.606-1.119-.459-1.147.076"/>
        <path id="パス_6706" data-name="パス 6706" class="cls-8" d="M76.453,109.19q-.627,1.353-1.255,2.706c-.115.249.107.459.347.482a.74.74,0,0,0,.735-.348l1.254-2.706c.116-.249-.106-.459-.346-.482a.742.742,0,0,0-.735.348"/>
        <path id="パス_6707" data-name="パス 6707" class="cls-8" d="M72.195,114.306a14.764,14.764,0,0,1-.885,2.582c-.109.242.1.412.331.427a.787.787,0,0,0,.739-.333,16.079,16.079,0,0,0,.955-2.781c.064-.265-.329-.348-.511-.327a.69.69,0,0,0-.629.432"/>
        <path id="パス_6708" data-name="パス 6708" class="cls-8" d="M67.741,111.788q-.462,1.9-.925,3.8c-.067.276.323.4.526.385a.66.66,0,0,0,.621-.465l.924-3.8c.067-.275-.322-.4-.526-.385a.661.661,0,0,0-.62.465"/>
        <path id="パス_6709" data-name="パス 6709" class="cls-8" d="M60.071,110.121a20.306,20.306,0,0,1-.831,3.465c-.2.605.922.571,1.076.114a21.564,21.564,0,0,0,.9-3.673c.083-.552-1.069-.4-1.143.094"/>
        <path id="パス_6710" data-name="パス 6710" class="cls-8" d="M52.9,107.378q-.507,2.388-1.015,4.774c-.064.3,1.053.124,1.119-.183q.507-2.387,1.015-4.774c.064-.3-1.054-.124-1.119.183"/>
        <path id="パス_6711" data-name="パス 6711" class="cls-8" d="M47.659,106.739a18.27,18.27,0,0,0-.377,2.992c-.012.257.295.309.5.282s.625-.15.636-.406a18.476,18.476,0,0,1,.377-2.992c.1-.468-1.045-.3-1.134.124"/>
        <path id="パス_6712" data-name="パス 6712" class="cls-8" d="M44.121,106.133a14.674,14.674,0,0,1,.378,2.394c.007.1.154.164.227.185a.827.827,0,0,0,.425-.012c.224-.066.5-.208.478-.476a14.691,14.691,0,0,0-.378-2.394c-.061-.249-.469-.227-.652-.173s-.541.219-.478.476"/>
        <path id="パス_6713" data-name="パス 6713" class="cls-6" d="M70.865,51.629c.681,1.77.156,6.035-.745,10.807-.852,4.514-3.141,8.994-3.036,9.237.533,1.235,7.708.5,10.888.05,1.865-.267,4.924-.454,6.237-1.52a6.81,6.81,0,0,0,1.96-1.97c.487-.8,1.852-2.577,2.694-3.635s1.678-1.209,2.105-.6-.425,1.341-1.21,3.136.117,1.279,1.177,1.406,5.953-.623,7.106-.4,2.564.286,2.572,1.33-2.1.6-2.586,1.2.223.992.911,1.959S98.9,73.8,97.88,74.463s-1.269.447-1.625,1.423-.686.986-1.636,1.094-3.32-.887-5.407-1.585a14.5,14.5,0,0,0-1.972-.545,21.677,21.677,0,0,0-5.965.631c-6.688,1.565-19.756,7.87-22.543.044-.459-2.716-.4-17.368,1.652-22.263,2.352-5.6,8.3-3.811,10.481-1.633"/>
        <path id="パス_6714" data-name="パス 6714" class="cls-4" d="M57.554,86.938c.806-1.867,3.725-7.556,4.347-8.459,1.43-2.074,5.354-4.8,6.984-5.651,1.5-.782,1.026-1.344,1.064-2.2s-1.6-.2-2.876.343a14.239,14.239,0,0,0-4.413,3.169,43.8,43.8,0,0,0-5.3,6.768,31.18,31.18,0,0,0-2.806,4.788c-.289.7,2.91,1.447,3,1.243"/>
      </g>
    </g>
    <g id="グループ_749" data-name="グループ 749" transform="translate(48.888 983.32)">
      <g id="グループ_748" data-name="グループ 748" class="cls-11">
        <path id="パス_7244" data-name="パス 7244" class="cls-3" d="M17.565,53.326c1.088,3.668,3.424,5.46,6.947,5.54a18.6,18.6,0,0,0,10.755-3.515c2.36-1.552,4.642-3.243,7.1-4.626,5.131-2.889,8.948-2.762,14.2.327.469-1.777,1.009-3.476,1.361-5.213A6.712,6.712,0,0,1,63.455,40.1c3.354-.655,6.769-1.01,10.167-1.393,3-.337,6.083-.148,8.757-1.97,3.541-2.413,5.55-5.529,4.816-9.989-.049-.3-.08-.6-.1-.9a2.861,2.861,0,0,1,.165-.56c3.323,1.742,5.5-.53,7.857-2.31C98.925,20.1,101,16.36,100.834,11.532c-.105-3.05-.692-5.879-4.2-6.916-.216-.064-.334-.458-.56-.791,1.121-1.377,2.217-.73,3.041.159a10.5,10.5,0,0,1,3.108,7.349c-.056,7.89-4.784,13.426-12.833,16.5-.179.068-.324.227.088-.071-1.058,2.577-1.626,4.75-2.763,6.567-2.708,4.332-7.024,5.793-11.91,6.063a82.518,82.518,0,0,0-8.743.79c-6.236,1.02-9.291,6.611-6.971,12.486.318.8,1.111,1.557-.042,2.563-.41-.325-1-.579-1.25-1.023-2.945-5.239-9.521-6.4-15.391-2.747-3.343,2.082-6.612,4.3-10.049,6.207A13.249,13.249,0,0,1,21.814,59.9,8.827,8.827,0,0,1,16.7,55.815c-5.154,2.261-10.231,2.9-14.311-1.536-2.857-3.106-3.061-6.913-1.1-9.611-.273,4.529.022,8.522,4.519,10.684,4.32,2.078,8.013.592,11.754-2.026"/>
        <path id="パス_7245" data-name="パス 7245" class="cls-3" d="M23.341,37.017c.8.922,1.313,1.578,1.889,2.176A11,11,0,0,0,27,40.8a4.4,4.4,0,0,0,4.873-.029,4.076,4.076,0,0,0,1.165-3.309,24.451,24.451,0,0,0-2.951-9.731c-.7,1.293-1.176,2.274-1.749,3.193a3.893,3.893,0,0,1-7.155-.806,11.29,11.29,0,0,1,.184-8.051c1.4-3.584,7.062-4.126,9.416-1.021a2.655,2.655,0,0,1,.369.933c1.006,3.845,2.132,7.665,2.948,11.55a29,29,0,0,1,.434,6.41c-.028,1.69-1.151,2.57-2.846,2.885-4.468.831-6.771-.643-8.342-5.811M21.682,26.39a24.583,24.583,0,0,0,1.7,3.936,1.837,1.837,0,0,0,2.7.483c2.283-1.469,3.473-6.985,2-9.25a1.971,1.971,0,0,0-2.592-.906c-2.353.757-3.463,2.455-3.82,5.737"/>
        <path id="パス_7246" data-name="パス 7246" class="cls-3" d="M61.322,22.114a13.137,13.137,0,0,0-.683,1.144c-.66,1.386-1.365,2.7-3.243,2.459s-3.858-1.787-3.936-3.723a43.639,43.639,0,0,1,.57-7.77c.19-1.343,1.285-1.79,2.619-1.343.608.2,1.212.415,2.363.81C58.266,10.865,57.581,8.5,57.051,6.1A5.545,5.545,0,0,1,57.4,4.092c.549.43,1.445.767,1.591,1.307.829,3.073,1.5,6.191,2.184,9.3.693,3.128,1.422,6.224,4.6,7.973-2,2.431-2.972-.393-4.447-.559m-5.611-7.389a37.869,37.869,0,0,0-.639,5.314,4.458,4.458,0,0,0,1.213,2.634c1.014,1.1,2.035.847,2.715-.428,1.469-2.757.389-5.7-3.289-7.52"/>
        <path id="パス_7247" data-name="パス 7247" class="cls-3" d="M43.83,20.98a18.93,18.93,0,0,1,.582-2.625c.6-1.459,2.547-2.743,3.711-2.547,1.437.243,2.627,1.846,2.88,3.67.17,1.23.626,2.424.757,3.655a8.7,8.7,0,0,1-.085,3.672A3.653,3.653,0,0,1,49.454,29a3.34,3.34,0,0,1-2.823-1.319,63.277,63.277,0,0,1-2.8-6.7m5.87,5.77a8.136,8.136,0,0,0-.542-7.078c-.681-1.366-1.873-1.371-3.077-.683-.034,4.335.773,6.169,3.619,7.761"/>
        <path id="パス_7248" data-name="パス 7248" class="cls-3" d="M42.934,26.811a20.869,20.869,0,0,1-.329,2.595c-.563,2.01-2.352,2.7-3.942,1.351a10.418,10.418,0,0,1-3.508-8.548,4.1,4.1,0,0,1,3.368-3.4A2.989,2.989,0,0,1,41.7,21.35c.535,1.969.908,3.983,1.236,5.461m-5.2-6.031c-1.291,4.166-.3,6.714,2.985,8.171a7.228,7.228,0,0,0-.356-6.718c-.381-.719-1.674-.955-2.629-1.453"/>
        <path id="パス_7249" data-name="パス 7249" class="cls-3" d="M71.573,0c1.113,5.7,2.075,10.633,3.081,15.789-1.723-.062-1.888-1.335-2.089-2.295Q71.372,7.823,70.426,2.1c-.071-.426.5-.96,1.147-2.1"/>
        <path id="パス_7250" data-name="パス 7250" class="cls-3" d="M68.088,14.695c-2.382-1.03-4.1-5.3-4.563-12.5.8.844,1.472,1.227,1.627,1.761,1.055,3.62,2,7.272,2.936,10.742"/>
        <path id="パス_7251" data-name="パス 7251" class="cls-3" d="M67.921,21.226c1.389-.464,2.133-.963,2.448-.769a2.022,2.022,0,0,1,.733,2.82l-3.181-2.051"/>
        <path id="パス_7252" data-name="パス 7252" class="cls-3" d="M76.921,21.445c-.7.32-1.166.7-1.37.593-.4-.217-.661-.706-.979-1.083.325-.2.708-.632.963-.566.413.107.743.538,1.386,1.056"/>
      </g>
    </g>
  </g>
</svg>
