<svg id="グループ_999" data-name="グループ 999" xmlns="http://www.w3.org/2000/svg" xmlns:xlink="http://www.w3.org/1999/xlink" width="306.098" height="195.633" viewBox="0 0 306.098 195.633">
  <defs>
    <style>
      .cls-1 {
        fill: none;
      }

      .cls-2 {
        clip-path: url(#clip-path);
      }

      .cls-3 {
        fill: #a0634a;
      }

      .cls-4 {
        fill: #ffdbb0;
      }

      .cls-5 {
        fill: #ca7d93;
      }

      .cls-6 {
        fill: #d8735b;
      }

      .cls-7 {
        fill: #7194b8;
      }

      .cls-8 {
        fill: #6a89a5;
      }

      .cls-9 {
        fill: #e59b5e;
      }

      .cls-10 {
        fill: #c68554;
      }

      .cls-11 {
        fill: #fdd23e;
      }

      .cls-12 {
        fill: #2f253f;
      }

      .cls-13 {
        fill: #af7185;
      }

      .cls-14 {
        fill: #ffd56e;
      }

      .cls-15 {
        fill: #aa998a;
      }

      .cls-16 {
        fill: #c86b37;
      }

      .cls-17 {
        fill: #998a7f;
      }

      .cls-18 {
        fill: #606060;
      }

      .cls-19 {
        fill: #cdb893;
      }
    </style>
    <clipPath id="clip-path">
      <rect id="長方形_962" data-name="長方形 962" class="cls-1" width="306.098" height="195.633"/>
    </clipPath>
  </defs>
  <g id="グループ_998" data-name="グループ 998" class="cls-2">
    <path id="パス_8540" data-name="パス 8540" class="cls-3" d="M97.061,125.362a15.53,15.53,0,0,0,6.547,2.277,41.118,41.118,0,0,0,6.562.428,42.511,42.511,0,0,0,12.587-2.131,44.9,44.9,0,0,0,21.1-14.74,36.984,36.984,0,0,0,4.283-6.563,22.741,22.741,0,0,0,2-8.54c.07-.908-1.4-.324-1.448.325a22.325,22.325,0,0,1-1.529,7.434,30.781,30.781,0,0,1-3.506,5.781,42.49,42.49,0,0,1-8.706,8.781,41.6,41.6,0,0,1-22.574,8.31,40.634,40.634,0,0,1-6.906-.206,15.959,15.959,0,0,1-7.231-2.274c-.544-.363-1.788.713-1.184,1.117" transform="translate(-27.289 -26.93)"/>
    <path id="パス_8541" data-name="パス 8541" class="cls-4" d="M254.407,66.34c-.539.065-2.141.815-2.515.313s-1.531-.711-2.144-.848-.658.46-.771.992-.434.437-1.351.3a1.144,1.144,0,0,0-1.371.815c-.042.292.259.6-.066,1.112s.1.987.31,1.31.712.689.594,1.089.583.825.9,1.223.792-.029,2.348.3,1.986-.982,2.446-1.8a3.654,3.654,0,0,1,1.459-1.608c.282-.092,2.478-.343,3.144-.427a28.624,28.624,0,0,1-1.078-3.21c-.95.219-1.836.425-1.908.445" transform="translate(-69.3 -18.527)"/>
    <path id="パス_8542" data-name="パス 8542" class="cls-3" d="M213.3,73.778a72.426,72.426,0,0,0,14.847-5.494,13.688,13.688,0,0,1,7.132-1.741,11.679,11.679,0,0,1,6.418,2.522,12.188,12.188,0,0,1,4.054,6.149c.227.791,2.011.311,1.784-.478a13.107,13.107,0,0,0-9.841-9.184,13.906,13.906,0,0,0-7.661.565c-2.649.966-5.109,2.415-7.718,3.488a63.791,63.791,0,0,1-9.329,3c-1.106.267-.788,1.44.315,1.174" transform="translate(-59.789 -18.377)"/>
    <path id="パス_8543" data-name="パス 8543" class="cls-5" d="M280.119,42.355c-.318-2.246-2.254-2.445-4.427-3.774-1.669-1.119-3.7,5.806-4.366,8.71-.966,4.223-.917,5.67-3.618,6.675-1.7.631-5.436,1.442-7.4,1.886-.432.1-2.371.58-1.959,2.516.245,1.093.488,4.314,2.1,4.21a73.187,73.187,0,0,0,10.886-2.419c4.862-.869,8.97-16.465,8.781-17.8" transform="translate(-72.741 -10.831)"/>
    <path id="パス_8544" data-name="パス 8544" class="cls-4" d="M282.271,23.489c.179-.022,2.551-.139,2.772-.189.14.392.414,3.46.445,4,.053.925,4.164,4.99,3.871,6.281-.235.466-9.8,3.832-7.765.871,2.539-3.7.471-8.361.505-8.8.058-.732.2-1.9.171-2.169" transform="translate(-79.224 -6.562)"/>
    <path id="パス_8545" data-name="パス 8545" class="cls-6" d="M292.458,7.346a17.541,17.541,0,0,1,2.5-2.065,4.313,4.313,0,0,1,2.506-.611,3.615,3.615,0,0,1,2.608,1.215,5.261,5.261,0,0,1,.274,3.837,2.958,2.958,0,0,0,1.085,3.088c.848.832,2.728,1.193,2.248,1.866-1.4,1.971-2.742,1.861-3.956,1.184-3.909-2.182-.218-5.175-2.562-6.633s-2.679-1.177-4.7-1.881" transform="translate(-82.363 -1.307)"/>
    <path id="パス_8546" data-name="パス 8546" class="cls-4" d="M286.493,18.591a6.628,6.628,0,0,1-4.633,4.3,9.449,9.449,0,0,1-5.229-.537,8.24,8.24,0,0,1-2.912-2.687,4.949,4.949,0,0,1-.513-1.941c-.1-1.606-1.243-1.361-.669-4.752.175-1.03,1.542-5.863,6.271-7.019,4.157-1.017,9.682,7.478,7.685,12.64" transform="translate(-76.708 -1.652)"/>
    <path id="パス_8547" data-name="パス 8547" class="cls-6" d="M271.606,10.587a5,5,0,0,1,2.078-3.407C275.352,6.1,275.1,4.8,277,4.057a10.837,10.837,0,0,1,6.5-.533c2.274.823,3.215,1.737,3.752,2.942s2.965,8.34-2.317,13.7c-.844.858-1.568,1.074-2.37-1.032.113-1.56.728-3.49.318-4.027s-1.277-.159-1.695.323c-1.05,1.215-.93.666-2.353-.968-1.736-1.993-7.3.114-7.232-3.879" transform="translate(-76.49 -0.914)"/>
    <path id="パス_8548" data-name="パス 8548" class="cls-7" d="M272.264,5.391a14.994,14.994,0,0,0,1.13-1.307A11.343,11.343,0,0,1,279.225.1c2.093-.463,5,.84,6.33,2a10.277,10.277,0,0,1,3.031,6.037c.022.961-5.259.445-7.934.406a2.655,2.655,0,0,0-1.01.173c-2.74-.475-6.477-.647-7.378-3.326" transform="translate(-76.676 0)"/>
    <path id="パス_8549" data-name="パス 8549" class="cls-8" d="M267.143,9.878A14.177,14.177,0,0,0,270.559,7.5c.9,2.68,4.638,2.851,7.378,3.327-1.733.664-2.1,3.088-6.43,3.564-4.858.633-6.53-3.282-4.364-4.516" transform="translate(-74.971 -2.113)"/>
    <path id="パス_8550" data-name="パス 8550" class="cls-9" d="M312.348,226.567c.265-2.169,7.894-14.592,12.167-27,4.363-12.661,8.565-19.131,7.626-24.66-.782-4.608-4.351-17.255-7.39-17.61-3.241-.38-23.586-2.83-18.082,14.308,1.971,6.139,9.086,11.961,8.491,18.712-.821,9.313-2.231,19.887-5.466,25.514a76.012,76.012,0,0,0-4.086,7.759,37.074,37.074,0,0,1-2.927,5.894c3.575.542,5.531,3.824,7.914,6.129,1.995-1.629,1.531-7.216,1.755-9.05" transform="translate(-85.241 -44.205)"/>
    <path id="パス_8551" data-name="パス 8551" class="cls-3" d="M301.437,257.919a8.981,8.981,0,0,1-1.106,1.383,8.9,8.9,0,0,0-.879,1.014c-1.231,1.655-1.675,3.481-.493,3.841,1.261.384,6.325,1.2,9.1.487a3.723,3.723,0,0,0,1.146-.47c.053-.036.1-.086.147-.126-2.383-2.3-4.339-5.587-7.914-6.128" transform="translate(-83.999 -72.636)"/>
    <path id="パス_8552" data-name="パス 8552" class="cls-9" d="M243.126,150.571c-3.226-1.259-20.66-15.13-23.229-14.1-1.588.636-17.533,30.565-16,37.628,2.613,12.077,9.126,20.62,9.161,30.06a81.19,81.19,0,0,0,1.014,9.4,26.542,26.542,0,0,1-.041,5.028,23.334,23.334,0,0,1,9.593,2.5c.019-.034.047-.07.064-.1.035-.07.059-.139.088-.21.968-2.28-.348-4.522-1.069-6.21a27.974,27.974,0,0,1-2.2-6.015c-.474-2.383.85-14.261-1.986-27.055s29.822-28.886,24.6-30.923" transform="translate(-57.392 -38.418)"/>
    <path id="パス_8553" data-name="パス 8553" class="cls-3" d="M217.292,253.437a8.82,8.82,0,0,0-.292,1.787c-.107,1.843.432,3.355,1.541,3.1,1.468-.344,7.521-2.7,8.8-5.016a23.321,23.321,0,0,0-9.592-2.5,16.507,16.507,0,0,1-.452,2.63" transform="translate(-61.108 -70.633)"/>
    <path id="パス_8554" data-name="パス 8554" class="cls-3" d="M231.946,260.525a9.211,9.211,0,0,1-.925,1.642,8.821,8.821,0,0,0-.9,1.526c-.782,1.692-.835,3.317.3,3.478a26.864,26.864,0,0,0,7.487-.436,8.456,8.456,0,0,0,1.876-.632c-2.477-2.033-4.345-5.1-7.835-5.577" transform="translate(-64.646 -73.37)"/>
    <path id="パス_8555" data-name="パス 8555" class="cls-9" d="M250.605,168.841c-2.552-2.34-8.923-6.04-11.691-6.01-1.71.019-3.851,2.062-3.121,3.84,2.175,5.3,5.234,43.072,1.853,51.887a76.054,76.054,0,0,0-2.831,8.29,37.785,37.785,0,0,1-1.929,6.164c3.491.477,5.358,3.544,7.835,5.577a3.275,3.275,0,0,0,.75-.5c1.918-1.779.521-7.46.457-9.351-.074-2.181,4.932-15.47,6.917-28.424s5.889-27.686,1.76-31.474" transform="translate(-65.586 -45.857)"/>
    <path id="パス_8556" data-name="パス 8556" class="cls-3" d="M370.688,108.2c3.878-8.281,17.672-13.574,25.01-4.559s5.241,17.61,5.032,25.577-1.468,15.514,5.451,17.611,1.887,3.774-2.1,4.192c-10.225,1.077-16.143-13.417-15.934-22.852s-7.608-30.558-17.611-14.466c-6.067,9.761-1.208-2.606.149-5.5" transform="translate(-103.514 -27.863)"/>
    <path id="パス_8557" data-name="パス 8557" class="cls-3" d="M193.531,40.537c-2.149-2.578,4.613-2.516,8.281-1.573s6.6,2.1,5.451,2.726-3.774,1.048-1.782,2.2,3.459,1.887,5.031,3.983,1.573,3.983,0,3.669-2.935-.21-.1,2.1,4.612,4.088,3.355,4.088-2.935.838-1.049,2.1,6.919,4.193,5.347,4.3-2.621.733-1.363,1.991,2.621,2.935,2.2,3.669-2.2,1.886-1.05,3.669,2.412,1.258,2.621,2.83a6.318,6.318,0,0,0,2.405,4.431c1.573,1.153,4.3,2.411,4.613,3.983s-1.253,5.108-3.663,5.213-1.888-.42-5.766-5.032S201.6,55.737,200.135,50.705s-6.08-9.539-6.6-10.168" transform="translate(-54.387 -10.805)"/>
    <path id="パス_8558" data-name="パス 8558" class="cls-9" d="M313.084,120.9c3.459-7.076,4.986-14.748,3.3-22.013C313.4,85.99,304.559,78.577,293.225,77.21c-12.159-1.468-29.77,7.547-44.026,7.547-8.658,0-30.071,3.882-37.527-.21-4.14-2.272-9.161-6.131-10.355-8.814A89.31,89.31,0,0,1,195.523,61.2c-.1-.455-.733-3.313-.948-4.237-2.4-10.395-4.465-15.291-13.229-17.225-6.429-1.422-15.168,1.99-19.608,11.424-3.708,7.883-6.171,14.707-9.238,21.352-1.38,2.974-7.1,7.95-1.854,13.056s10.172,2.644,12.883-.616c6.789-8.161,12.2-10.733,14.179-5.96.254.612.5,1.3.753,2.039a71.812,71.812,0,0,0,4.069,14.837c1.584,5.032,5.161,12.2,7.282,16.769,4.537,9.753.43,14.29,11.6,21.247,11.284,7.022,42.53,7.549,55.784,6.693,9.983-.647,16.136-6.792,26.772,2.545,10.073,8.855,15.226,5.935,15.743,10.53.239,2.123-1.608,15.92-2.492,19.072-1.626,5.8-4.777,17.918-6.08,20.051,0,0-1.358,2.446-2.392,4.316,3.733.8,6.368,4.264,9.71,6.173a88.728,88.728,0,0,0,1.379-9.728c.477-3.019,5.889-21.207,6.4-23.1,1.048-3.856,3.139-8.669,4.56-13.208,1.611-4.009,2.626-6.405,3.3-8.137,1.027-2.644-1.685-6.361-3.218-10.742-2.2-6.289-.129-12.689,2.2-17.454" transform="translate(-41.813 -11.103)"/>
    <path id="パス_8559" data-name="パス 8559" class="cls-3" d="M341.8,260.989c-1.489,2.489-.745,7.335.126,7.427a21.713,21.713,0,0,0,9.629-1.18c.426-.057.795-.922,1.109-2.16-3.342-1.909-5.977-5.372-9.71-6.173l-1.154,2.087" transform="translate(-96.02 -72.913)"/>
    <path id="パス_8560" data-name="パス 8560" class="cls-9" d="M174.056,37.867c2.922,2.167,5.3,6.478,4.794,9.85s-7.705,1.478-8.3-1.057c-.657-2.8-1.42-5.46-4.96-10.061-1.756-2.282,3.784-2.2,8.467,1.269" transform="translate(-46.54 -9.869)"/>
    <path id="パス_8561" data-name="パス 8561" class="cls-3" d="M178.751,37.64c-1.758-.293-3.236-.64-4.186.886s-1.475,2.363-3.361,3.1-4.088,3.145-4.088,4.4-.459,1.783,1.363,2.412c3.04,1.048,2.516-1.887,4.4-1.677s2.306.315,3.039-1.048,1.153-1.258,2.726-1.573.943-1.153,1.468-2.2,2.83-2.516,2.2-3.46-2.935-.733-3.564-.838" transform="translate(-47.049 -10.528)"/>
    <path id="パス_8562" data-name="パス 8562" class="cls-9" d="M190.878,32.4c2.289,3.448,4.2,7.454,2.351,10.866s-12.61.662-11.531-2.1c2-5.114,3.547-8.2.612-13.4-1.609-2.853,4.9-.894,8.568,4.632" transform="translate(-51.149 -7.453)"/>
    <path id="パス_8563" data-name="パス 8563" class="cls-3" d="M155.193,81.972c.722.068,4.476,2.826,7.39,5.9,2.2,2.319,4.412,4.381,5.464,6.25.354.629-1.022,2.555-2.162,1.3-1.408-1.553-2.241-2.555-4.167-4.756a29.936,29.936,0,0,0-7.116-6.093c-1.114-.664.59-2.595.59-2.595" transform="translate(-43.433 -23.085)"/>
    <path id="パス_8564" data-name="パス 8564" class="cls-3" d="M199.708,66.73,165.793,86.308l-1.41-2.451,34.672-20.021c.216.924.43,1.884.653,2.894" transform="translate(-46.294 -17.978)"/>
    <path id="パス_8565" data-name="パス 8565" class="cls-3" d="M171.431,67.952a1.484,1.484,0,0,1,2.358-1.31c.787.524,1.613,2.51.472,3.04a2.022,2.022,0,0,1-2.83-1.73" transform="translate(-48.278 -18.695)"/>
    <path id="パス_8566" data-name="パス 8566" class="cls-3" d="M153.409,96.45c.931-.227.731,1.7.208,2.137s-1.616.92-1.5-.059.61-1.913,1.288-2.078" transform="translate(-42.838 -27.157)"/>
    <path id="パス_8567" data-name="パス 8567" class="cls-10" d="M338.821,185.85a.306.306,0,0,1-.154-.042,19.941,19.941,0,0,1-2.487-1.965c-2.233-1.927-5.293-4.567-8.493-5.367a.308.308,0,1,1,.149-.6c3.342.835,6.465,3.53,8.746,5.5a20.206,20.206,0,0,0,2.393,1.9.308.308,0,0,1-.154.575" transform="translate(-92.219 -50.092)"/>
    <path id="パス_8568" data-name="パス 8568" class="cls-10" d="M226.487,172.411a.3.3,0,0,1-.085-.012,31.692,31.692,0,0,1-11.692-6.922.308.308,0,0,1,.443-.428,30.944,30.944,0,0,0,11.421,6.758.308.308,0,0,1-.085.6" transform="translate(-60.443 -46.455)"/>
    <path id="パス_8569" data-name="パス 8569" class="cls-11" d="M262.635,100.241a87.27,87.27,0,0,0,19.5,0c9.644-1.048,19.707-5.451,20.965-2.935s2.726,14.256,2.516,20.755,4.285,17.879-1.048,20.546c-4.613,2.307-15.1,3.774-21.594,4.4-4.871.471-19.916,1.493-19.916-4.612,0-4.822-1.258-10.9-1.677-17.821s-2.306-20.755,1.258-20.336" transform="translate(-73.364 -27.188)"/>
    <path id="パス_8570" data-name="パス 8570" class="cls-12" d="M293.088,130.558c-.172-.223-4.42-5.664-4.862-6.667,0,0-4.228,1.96-3.919,3.483s4.186,4.19,3.7,5.623c-.106.312-2.284,2.471-2.715,2.977a44.743,44.743,0,0,0-3.836,4.471c-1.321,2.062,2.053,2.18,3.453,1.533s8.762-4.722,10.094-6.715c1.144-1.712-.859-3.353-1.909-4.706" transform="translate(-79.178 -34.891)"/>
    <path id="パス_8571" data-name="パス 8571" class="cls-3" d="M269.167,102.252a106.443,106.443,0,0,0,11.894,26.909c.238.384,1.389-.022,1.1-.491a105.682,105.682,0,0,1-11.8-26.737c-.134-.471-1.323-.151-1.19.319" transform="translate(-75.801 -28.642)"/>
    <rect id="長方形_961" data-name="長方形 961" class="cls-3" width="2.492" height="8.473" transform="translate(204.599 100.493) rotate(-41.225)"/>
    <path id="パス_8572" data-name="パス 8572" class="cls-7" d="M301.26,86.97c.323,2.851-1.681,8.877-6.3,9.927-2.8.636-13.068.407-13.293,3.672-.254,3.69,9.585,12.872,8.418,14.659-.372.57-6.006,3.807-7.547,3.121s-7.111-9.651-9.143-12.7c-1.742-2.612-6.429-7.762-4.935-10.886,1.065-2.226,3.919-3.193,9.047-5.636,2.046-.974-2.594-8.5,3.58-10.063,6.045-1.527,19.028-2.211,20.173,7.906" transform="translate(-75.523 -22.018)"/>
    <path id="パス_8573" data-name="パス 8573" class="cls-5" d="M302.438,65.37a33.768,33.768,0,0,1-4.064-10.121c-.465-1.942-1.667-6.314-2.447-9.613-.739-3.126-6.6-11.8-5.091-11.412,2.184.57,4.631,4.417,7.409-.446.871-1.524-1.887-1.089-5.951-2.1-3.386-.846-4.97-2.442-7.33-.8-2.4,1.669-2.935,2.922-3.846,3.411-1.742,1.6-2.029,3.927-2.594,6.97-.381,2.047.872,7.239.912,7.772.255,3.459.21,8.734.172,9.378-.155,2.676-1.022,5.111-1.21,6.8-.238,2.141-.027,7.929,4.325,6.69,5.49-1.563,10.218,1.435,16.154,1.42,5.557-.71,6.653-2.883,3.56-7.947" transform="translate(-78.385 -8.494)"/>
    <path id="パス_8574" data-name="パス 8574" class="cls-13" d="M279.681,59.887h-.009a.214.214,0,0,1-.2-.223c.036-.818-.116-4.047-.181-4.872a27.01,27.01,0,0,0-.467-2.692,18.725,18.725,0,0,1-.44-2.695.213.213,0,1,1,.426,0,19.14,19.14,0,0,0,.432,2.61,27.325,27.325,0,0,1,.474,2.743c.068.856.219,4.075.182,4.924a.213.213,0,0,1-.213.2" transform="translate(-78.398 -13.854)"/>
    <path id="パス_8575" data-name="パス 8575" class="cls-3" d="M165.2,89.008a18.428,18.428,0,0,0,6.6,4.052,53.659,53.659,0,0,0,7.236,2.285A58.094,58.094,0,0,0,193.907,96.9a59.068,59.068,0,0,0,28.676-8.095A42.432,42.432,0,0,0,229.6,83.74a22.187,22.187,0,0,0,5.118-7.61c.384-.851-1.464-.71-1.738-.1a21.525,21.525,0,0,1-4.213,6.687,34.832,34.832,0,0,1-5.881,4.539,53.028,53.028,0,0,1-12.737,5.927,56.876,56.876,0,0,1-28.174,1.513,53.77,53.77,0,0,1-7.7-2.171,19.178,19.178,0,0,1-7.37-4.246c-.489-.5-2.251.172-1.706.732" transform="translate(-46.495 -21.271)"/>
    <path id="パス_8576" data-name="パス 8576" class="cls-4" d="M265.569,75.938c-.539.07-2.134.833-2.513.335s-1.537-.7-2.15-.83-.654.466-.764,1-.429.442-1.347.31a1.142,1.142,0,0,0-1.363.827c-.041.292.264.6-.058,1.113s.111.986.322,1.307.718.682.6,1.083.591.82.913,1.215.791-.034,2.351.28,1.978-1,2.43-1.825a3.648,3.648,0,0,1,1.445-1.62c.27-.091,2.3-.343,3.053-.442a9.351,9.351,0,0,0-.71-3.287c-1.057.253-2.134.512-2.213.535" transform="translate(-72.45 -21.235)"/>
    <path id="パス_8577" data-name="パス 8577" class="cls-5" d="M285.344,56.656c-3.121-1.161-3.057-2.73-4.354.435-1.772,4.322-1.561,5.312-3.919,6.967a55.875,55.875,0,0,1-5.613,3.338c-.345.179-2.29,1.348-2.951,1.693-.708.218,1.028,1.956,1.4,2.83.272.635,1.295,2.48,1.935,2.443.739-.042,5.443-2.249,9.8-4.862,3.991-2.685,4.337-5.278,4.917-6.5,1.81-3.807,1.9-4.6-1.216-6.346" transform="translate(-75.571 -15.553)"/>
    <path id="パス_8578" data-name="パス 8578" class="cls-13" d="M280.073,74.555a.213.213,0,0,1-.09-.407l.323-.149c2.028-.935,5.422-2.5,6.9-4.432a23.018,23.018,0,0,0,2.891-5.792c.08-.213.155-.412.225-.59a.213.213,0,0,1,.4.154c-.069.177-.143.374-.223.586a23.355,23.355,0,0,1-2.951,5.9c-1.546,2.014-5,3.608-7.063,4.56l-.322.149a.212.212,0,0,1-.09.02" transform="translate(-78.815 -17.756)"/>
    <path id="パス_8579" data-name="パス 8579" class="cls-13" d="M281.285,64.226a.213.213,0,0,1-.134-.379c1.116-.909,2.657-4.712,3.237-6.143.078-.193.14-.346.184-.451a.215.215,0,0,1,.279-.114.212.212,0,0,1,.113.279c-.043.1-.1.256-.182.446-.647,1.6-2.162,5.335-3.363,6.313a.21.21,0,0,1-.134.048" transform="translate(-79.157 -16.087)"/>
    <path id="パス_8580" data-name="パス 8580" class="cls-4" d="M23.964,115.654c-3.473.874-11.064,2.5-12.048,3.149s-3.777,2.182-5.568,3.162c-.729.4-2,.3-4.521.031-1.113-.12.343-1.282-.784-1.96-1.9-1.139-.523-1.74-.764-2.369-.415-1.088-.557-1.383.98-1.659a13.511,13.511,0,0,1,3.261-.234c.715.04,1.79-.144.785-.981s-1.5-1.357-1.487-2.276.685-1.11,1.786.035c1.563,1.052,4.06,1.3,5.074,1.682s9.411-3.282,11.522-4.159,4.937,4.781,1.764,5.58" transform="translate(0 -30.974)"/>
    <path id="パス_8581" data-name="パス 8581" class="cls-6" d="M55.674,63.144a19.875,19.875,0,0,0-3.479-1.154,4.883,4.883,0,0,0-2.894.383c-1.407.82-1.966,1.433-2.252,2.352a5.953,5.953,0,0,0,1.284,4.157,3.349,3.349,0,0,1,.122,3.7c-.553,1.225-2.388,2.375-1.606,2.889,2.288,1.5,3.654.838,4.657-.374,3.228-3.9-1.891-5.547-.019-8.044s2.343-2.34,4.185-3.91" transform="translate(-13.14 -17.444)"/>
    <path id="パス_8582" data-name="パス 8582" class="cls-4" d="M61.246,62.016a6.915,6.915,0,0,0,6.082,2.905,9.535,9.535,0,0,0,5-2.387,9.147,9.147,0,0,0,1.96-3.841,5.8,5.8,0,0,0-.162-2.222c-.456-1.723.763-1.865-.978-5.232-.529-1.022-3.555-5.63-8.647-5.2-4.476.379-7.022,11.24-3.257,15.975" transform="translate(-16.735 -12.958)"/>
    <path id="パス_8583" data-name="パス 8583" class="cls-6" d="M66.516,50.881c1-2.847,6.052,2.787,6.225,1.093.459-4.506-5.351-7.4-7.492-7.521-2.985-.174-9.738,3.751-10.2,7.882-.367,3.289.124,6.469,2.189,7.776,1.562.989,2.863,3.124,4,2.835.515-.131.2-2.4-1.106-2.864-1.983-1.264-1.789-1.965-1.568-2.672s1.274-1.34,1.711-.813c2.175,2.621.643-.111,1.335-.919,1.882-2.195,1.507,1.172,4.907-4.8" transform="translate(-15.472 -12.518)"/>
    <path id="パス_8584" data-name="パス 8584" class="cls-4" d="M75.768,82.145c.717-3.707-1.08-6.016-4.048-7.6-2.266-1.208-2.069-3.2-2.249-4.674-.111-.9-.415-2.756-.425-3.039-.189.006-2.556.392-2.793.376a11.007,11.007,0,0,1-2.687,6.737c-.958,1.019-5.4.308-4.752,5.756-.188,9.278,15.443,7.366,16.954,2.446" transform="translate(-16.545 -18.821)"/>
    <path id="パス_8585" data-name="パス 8585" class="cls-4" d="M104.414,119.2a30.31,30.31,0,0,1-.994,6.131c-.606,2.027-3.108,2.457-3.652,3.251-.517.414-1.1,1.642-.332,2.023.376.187.556-.243.68.058,0,0-.792.853-.676,1.455.124.653.33,1.555.79,1.733.721.28.6.6,1.677.687.787.067.7.3,1.527.75.362.2,2.263.631,2.722.247.4-.339.78-1.444,1.905-2.976s-.585-4.633-.5-5.724c.115-1.522,1.243-5.739,1.756-9.24.394-3.6-.335-8.351-1.227-10.179-1.486-3.046-3.98.412-4.952.212-.192.866,1.345,8.909,1.277,11.571" transform="translate(-27.9 -29.896)"/>
    <path id="パス_8586" data-name="パス 8586" class="cls-14" d="M90.448,98.644c-.213-3.86-1.744-6.177-3.747-8.557C85.127,88.351,76.433,81.161,71.37,78.81c-1.9-.777-4.815-1.837-4.861-1.855-1.291-.752-2.881-2.1-3.728-1.68s-2.5,2.918-3.292,2.942c-.919.029-2.453-.968-3.828-2.221-.883-.8-2.327.407-3.34,1.4-1.184.594-7.136,4.223-8.662,5.8a55.046,55.046,0,0,0-8.342,11.174c-3.123,5.151-2.138,2.348-4.619,3.708-1.665.7.352,4.381,2.376,6.554.807.866,6.336.922,9.367-2.365,2.1-2.279,3.343-4.471,4.121-4.293.654.237-.066,4.418-.366,5.973-.736,4.148-1.32,11.294-2.249,15.655-.016,9,30.285,6.289,30.382-1.6-.227-3.068.374-6.07.338-7.344-.088-3.153-1.976-14.806-.179-15.57,1.115-.474,6.3,1.414,6.829,2.759.483,1.238.761,7.6,2.227,13.266.3,1.17,7.348.312,8.266-.9.487-.643-.965-4.393-1.361-11.561" transform="translate(-8.471 -21.177)"/>
    <path id="パス_8587" data-name="パス 8587" class="cls-11" d="M32.8,114.989c.764.568,1.02.447,1.618-.357s1.062-1.707,2-1.427a1.161,1.161,0,0,0,1.634-.8,2.593,2.593,0,0,0-.193-2.4c-.654-.8-.688-1.033-1.4-3.017s-2.088-4.468-2.972-4.4-1.134.4-1.265,1.14-.884.488-1.669.424a2.23,2.23,0,0,0-1.916,1.176c-.165.5-1.058,2.96.148,3.858a6.733,6.733,0,0,1,2.016,3.165,8,8,0,0,0,2,2.631" transform="translate(-7.932 -28.893)"/>
    <path id="パス_8588" data-name="パス 8588" class="cls-15" d="M81.39,142.755c-.185-3.135-1.492-7.717-2.678-11.35-.295-4.981-.134-10.212-1.968-11.312-1.284-.771-2.427-4.428-3.49-6.633-1.925-3.993-1.31-17.473-2.881-18.745-.907-.735-18.252-.995-18.992.318-.654,1.162,1.159,11.221-1.259,17.51-1.061,2.761-4.609,5.276-4.764,8.973-.009.2-.185,1.579-.471,3.72-.217,1.081-.391,2.034-.5,2.787C43.2,136,42.11,151.3,41.68,153.416c-.58,2.858-5.879,25.52-3.685,32.771a4.964,4.964,0,0,0,8.034,2.209c7.335-5.909,9.893-17.572,10.63-21.864.917-5.338,1.644-13.942,3.212-13.768,2.309.256-2.251,16.2-.122,21.44.67,1.649,13.492,16.059,16.012,15.335,5.751-1.653.342-17.513,2.29-24.457.9-3.192,3.981-11.423,3.339-22.326" transform="translate(-10.551 -26.502)"/>
    <path id="パス_8589" data-name="パス 8589" class="cls-16" d="M50.905,131.847a.756.756,0,1,1-.71-.8.755.755,0,0,1,.71.8" transform="translate(-13.911 -36.906)"/>
    <path id="パス_8590" data-name="パス 8590" class="cls-16" d="M50.248,136.048a.756.756,0,1,1-.71-.8.755.755,0,0,1,.71.8" transform="translate(-13.726 -38.089)"/>
    <path id="パス_8591" data-name="パス 8591" class="cls-16" d="M48.205,137.354a.217.217,0,0,1-.007-.432c1.245-.117,1.709-.268,2-.926a29.836,29.836,0,0,0,.853-3.694c.121-.619.236-1.2.335-1.658a.217.217,0,1,1,.423.092c-.1.453-.212,1.034-.333,1.649a28.778,28.778,0,0,1-.883,3.786c-.382.862-1.007,1.055-2.356,1.182a.178.178,0,0,1-.034,0" transform="translate(-13.518 -36.745)"/>
    <path id="パス_8592" data-name="パス 8592" class="cls-16" d="M90.617,132.441a.755.755,0,1,0,.691-.815.755.755,0,0,0-.691.815" transform="translate(-25.519 -37.068)"/>
    <path id="パス_8593" data-name="パス 8593" class="cls-16" d="M91.371,136.626a.755.755,0,1,0,.691-.815.755.755,0,0,0-.691.815" transform="translate(-25.732 -38.247)"/>
    <path id="パス_8594" data-name="パス 8594" class="cls-16" d="M92.536,137.911a.216.216,0,0,0,0-.432c-1.247-.088-1.715-.228-2.022-.879a29.705,29.705,0,0,1-.939-3.673c-.136-.616-.264-1.2-.374-1.65a.217.217,0,0,0-.421.1c.109.45.236,1.029.371,1.641a28.726,28.726,0,0,0,.971,3.764c.4.853,1.032,1.031,2.383,1.126h.033" transform="translate(-25 -36.924)"/>
    <path id="パス_8595" data-name="パス 8595" class="cls-16" d="M50.334,128.292a.184.184,0,0,1-.239.035.17.17,0,0,1,.025-.243l.649-.677a.177.177,0,0,1,.251-.046.169.169,0,0,1-.026.243l-.649.677-.011.01" transform="translate(-14.097 -35.858)"/>
    <path id="パス_8596" data-name="パス 8596" class="cls-16" d="M53.544,124.994a.185.185,0,0,1-.235.06.17.17,0,0,1,0-.244l.577-.74a.177.177,0,0,1,.245-.07.17.17,0,0,1,0,.244l-.577.74-.009.011" transform="translate(-14.999 -34.914)"/>
    <path id="パス_8597" data-name="パス 8597" class="cls-16" d="M56.218,120.909a.184.184,0,0,1-.21.121.17.17,0,0,1-.066-.235l.352-.869c.045-.118.138-.163.216-.135a.171.171,0,0,1,.066.235l-.353.869-.006.014" transform="translate(-15.749 -33.734)"/>
    <path id="パス_8598" data-name="パス 8598" class="cls-16" d="M57.52,116.078c-.02.1-.1.177-.175.169s-.136-.1-.121-.212l.133-.929c.014-.125.095-.192.177-.183s.136.1.121.212l-.132.929,0,.014" transform="translate(-16.115 -32.365)"/>
    <path id="パス_8599" data-name="パス 8599" class="cls-16" d="M58.071,111.638a.185.185,0,0,1-.152.189c-.083,0-.148-.085-.146-.2l.015-.937c0-.126.07-.2.153-.2s.148.085.147.2l-.016.937v.015" transform="translate(-16.27 -31.117)"/>
    <path id="パス_8600" data-name="パス 8600" class="cls-16" d="M58.094,103.775a.184.184,0,0,1-.129.205c-.081.012-.157-.067-.169-.177l-.093-.933c-.016-.126.046-.209.128-.221s.157.067.168.177l.094.933v.015" transform="translate(-16.25 -28.908)"/>
    <path id="パス_8601" data-name="パス 8601" class="cls-16" d="M58.22,99.881a.185.185,0,0,1-.134.2c-.082.011-.155-.07-.164-.18l-.073-.935c-.013-.126.051-.208.133-.218s.155.071.165.181l.073.935v.015" transform="translate(-16.291 -27.81)"/>
    <path id="パス_8602" data-name="パス 8602" class="cls-16" d="M87.648,125.606a.185.185,0,0,0,.223.094.171.171,0,0,0,.036-.241l-.46-.818c-.059-.112-.157-.144-.231-.107a.171.171,0,0,0-.036.241l.46.818.008.013" transform="translate(-24.543 -35.068)"/>
    <path id="パス_8603" data-name="パス 8603" class="cls-16" d="M86.209,122.234a.185.185,0,0,0,.218.106.17.17,0,0,0,.049-.239l-.416-.841c-.053-.115-.149-.152-.226-.119a.17.17,0,0,0-.048.238l.415.841.007.013" transform="translate(-24.152 -34.113)"/>
    <path id="パス_8604" data-name="パス 8604" class="cls-16" d="M85.048,118.541a.185.185,0,0,0,.205.129.171.171,0,0,0,.075-.233l-.323-.881c-.041-.119-.133-.167-.211-.142a.17.17,0,0,0-.074.233l.322.881.006.014" transform="translate(-23.855 -33.065)"/>
    <path id="パス_8605" data-name="パス 8605" class="cls-16" d="M84.509,115.071a.185.185,0,0,0,.186.156c.081-.013.129-.112.106-.22l-.2-.917c-.024-.124-.108-.184-.19-.17s-.129.112-.106.221l.2.917,0,.014" transform="translate(-23.741 -32.082)"/>
    <path id="パス_8606" data-name="パス 8606" class="cls-16" d="M83.949,110.779a.185.185,0,0,0,.156.186c.083,0,.147-.088.142-.2l-.036-.937c0-.126-.074-.2-.157-.2s-.146.088-.142.2l.036.937v.015" transform="translate(-23.631 -30.874)"/>
    <path id="パス_8607" data-name="パス 8607" class="cls-16" d="M83.3,102.267a.186.186,0,0,0,.157.185c.083,0,.145-.089.141-.2l-.04-.937c0-.126-.075-.2-.158-.2s-.146.088-.142.2l.04.937v.015" transform="translate(-23.447 -28.477)"/>
    <path id="パス_8608" data-name="パス 8608" class="cls-16" d="M83.02,98.778c.014.1.085.182.164.179s.142-.094.134-.2l-.076-.935c-.007-.126-.083-.2-.166-.193s-.142.094-.134.2l.077.935v.015" transform="translate(-23.358 -27.493)"/>
    <path id="パス_8609" data-name="パス 8609" class="cls-16" d="M89.41,128.984a.186.186,0,0,0,.224.094.171.171,0,0,0,.035-.241l-.46-.818c-.059-.111-.157-.144-.231-.107a.17.17,0,0,0-.035.241l.459.818.008.013" transform="translate(-25.039 -36.019)"/>
    <path id="パス_8610" data-name="パス 8610" class="cls-16" d="M58.114,107.426a.184.184,0,0,1-.129.205c-.082.012-.157-.067-.168-.177l-.093-.933c-.016-.126.046-.209.129-.221s.157.067.167.177l.094.933v.015" transform="translate(-16.255 -29.937)"/>
    <path id="パス_8611" data-name="パス 8611" class="cls-16" d="M83.61,106.548a.186.186,0,0,0,.157.185c.083,0,.145-.089.141-.2l-.04-.937c0-.126-.075-.2-.158-.2s-.146.088-.142.2l.04.937v.015" transform="translate(-23.535 -29.682)"/>
    <path id="パス_8612" data-name="パス 8612" class="cls-16" d="M63.117,95.832a.185.185,0,0,1-.2-.142c-.007-.082.077-.152.187-.156l.937-.034c.126-.007.2.06.211.142s-.077.152-.187.157l-.937.034h-.015" transform="translate(-17.72 -26.895)"/>
    <path id="パス_8613" data-name="パス 8613" class="cls-16" d="M67.073,95.575a.185.185,0,0,1-.2-.142c-.007-.082.077-.152.188-.156L68,95.243c.126-.007.205.06.212.142s-.077.152-.187.157l-.937.034h-.015" transform="translate(-18.834 -26.822)"/>
    <path id="パス_8614" data-name="パス 8614" class="cls-16" d="M71.721,95.563a.185.185,0,0,1-.2-.142c-.007-.082.077-.152.188-.156l.937-.034c.126-.007.205.06.212.142s-.077.152-.187.157l-.937.034h-.015" transform="translate(-20.143 -26.819)"/>
    <path id="パス_8615" data-name="パス 8615" class="cls-16" d="M76.658,95.688a.185.185,0,0,1-.2-.142c-.007-.082.077-.152.187-.156l.937-.034c.126-.007.205.06.211.142s-.077.152-.187.157l-.936.034h-.016" transform="translate(-21.533 -26.854)"/>
    <path id="パス_8616" data-name="パス 8616" class="cls-17" d="M61.17,101.148c1.787-.055,11.2-.118,12.44-.157s1.491.411,1.656,3.228,1.56,7.655-.93,7.656-11.049-.116-12.527-.146-1.157-2.176-1.307-4.536-.653-6,.668-6.046" transform="translate(-16.977 -28.441)"/>
    <path id="パス_8617" data-name="パス 8617" class="cls-12" d="M35.773,247.5c.095-4.839,9.285-27.193,8.916-28.676-.483-1.945-12.222-4.317-12.909-3.382-3.141,4.275-2.529,27.408-3.8,29.219a8.322,8.322,0,0,1-1.529,1.4c-3.748,2.227-6.766.285-7.359,2.322-.4,1.361-1.157,2.256.826,3.7,3.718,2.7,15.176,2.5,15.684-.226.121-.648.144-3.21.167-4.349" transform="translate(-5.243 -60.615)"/>
    <path id="パス_8618" data-name="パス 8618" class="cls-12" d="M105.753,237.194A15.37,15.37,0,0,1,103.2,235.3c-1.768-1.838-11.162-23.562-12.536-25.559-.642-1.079-12.864,5.613-11.322,8,2.708,4.192,17.982,20.67,17.784,23.9-.042.7-1.539,2.041-2.317,3.138-1.612,2.276-1.294,3.593.738,4.459,1.019.435,4.9-.421,6.761-2.7,2.639-3.236,5.79-8.049,3.447-9.342" transform="translate(-22.306 -59.036)"/>
    <path id="パス_8619" data-name="パス 8619" class="cls-6" d="M60.782,94.443a.735.735,0,1,1-.757-.712.735.735,0,0,1,.757.712" transform="translate(-16.704 -26.397)"/>
    <path id="パス_8620" data-name="パス 8620" class="cls-15" d="M55.728,79.757c-.139-.6,3.4-1.606,3.492-.649.126,1.348.969,7.145,1.036,8.223.06.988-1.777.776-2.764.926-.889.136-1.428-7.054-1.764-8.5" transform="translate(-15.693 -22.167)"/>
    <path id="パス_8621" data-name="パス 8621" class="cls-15" d="M84.259,79.424c.271-.939-3.031-2.062-3.169-.738-.142,1.346-1.25,7.437-1.465,8.5-.1.514,1.557.7,2.455.764s1.767-7.1,2.179-8.522" transform="translate(-22.423 -21.989)"/>
    <path id="パス_8622" data-name="パス 8622" class="cls-18" d="M59.325,94.881A1.03,1.03,0,0,1,58.31,94.3a2.179,2.179,0,0,1-.129-1.167c-.173,0-.422.027-.593.045a.774.774,0,0,1-.986-.929v-.083c0-.651,2.387-.906,3.813-1a3.27,3.27,0,0,0,.353-.046.637.637,0,0,1,.56.068.752.752,0,0,1,.177.62c-.008.743-.662.865-1.095.945-.1.019-.2.037-.3.062.006.028.1.233.159.356a1.426,1.426,0,0,1,.194.645,1.309,1.309,0,0,1-.94,1.041,1.886,1.886,0,0,1-.2.019m.165-.28h0ZM58.1,92.61a.676.676,0,0,1,.528.129.411.411,0,0,1,.1.27l-.009.069a2.064,2.064,0,0,0,.059.978c.134.254.326.332.675.282a.843.843,0,0,0,.489-.55A1.409,1.409,0,0,0,59.8,93.4a1.023,1.023,0,0,1-.152-.828.485.485,0,0,1,.333-.263c.106-.029.221-.05.336-.072.511-.1.659-.163.662-.43a1.425,1.425,0,0,0-.006-.18l-.113.019a3.892,3.892,0,0,1-.407.052,13.763,13.763,0,0,0-3.319.549v.01c0,.141,0,.315.049.362.017.016.095.065.354.037.23-.024.417-.042.57-.047m-.972-.441v0" transform="translate(-15.94 -25.654)"/>
    <path id="パス_8623" data-name="パス 8623" class="cls-18" d="M80.108,94.6a1.033,1.033,0,0,1-.774-.874,2.184,2.184,0,0,1,.254-1.146c-.163-.057-.408-.111-.577-.149a.774.774,0,0,1-.631-1.2l.027-.078c.206-.617,2.552-.087,3.932.284a3.455,3.455,0,0,0,.35.07.638.638,0,0,1,.508.245.75.75,0,0,1-.034.644c-.246.7-.9.6-1.34.541-.1-.015-.2-.03-.3-.037,0,.028.021.254.036.389a1.437,1.437,0,0,1-.025.673,1.31,1.31,0,0,1-1.226.682,2,2,0,0,1-.2-.048m.247-.212.006,0Zm-.67-2.332c.249.077.392.157.458.293a.412.412,0,0,1,0,.286l-.03.063a2.056,2.056,0,0,0-.259.945c.045.284.2.42.547.485a.841.841,0,0,0,.641-.363,1.4,1.4,0,0,0-.012-.414,1.027,1.027,0,0,1,.124-.833.485.485,0,0,1,.4-.142c.111.007.226.024.342.04.514.075.677.058.766-.193a1.536,1.536,0,0,0,.053-.172l-.113-.019a3.927,3.927,0,0,1-.4-.082,13.777,13.777,0,0,0-3.32-.552l0,.009c-.045.133-.1.3-.07.358.011.021.069.092.323.149.226.052.408.1.555.14m-.777-.731v0" transform="translate(-22.043 -25.591)"/>
    <path id="パス_8624" data-name="パス 8624" class="cls-18" d="M56.057,85.185a.786.786,0,0,1-.317-.092.437.437,0,0,1-.209-.275,1.093,1.093,0,0,1,.044-.875c.2-.3.587-.364,1.289-.478.261-.042.571-.092.935-.164.213-.042.421-.091.617-.135.724-.166,1.248-.285,1.562-.066a.532.532,0,0,1,.222.384l.009.073c.088.688-.133.83-1.059,1.031-.147.032-.361.089-.611.155a8.589,8.589,0,0,1-2.482.442M57.9,83.82c-.37.074-.687.124-.953.167a2.12,2.12,0,0,0-.932.248c-.027.042-.045.154.029.457a10.421,10.421,0,0,0,2.358-.46c.26-.069.483-.128.635-.162.5-.107.636-.172.665-.208a1.171,1.171,0,0,0-.019-.238l-.009-.077c-.111-.1-.731.04-1.141.134-.2.047-.414.1-.633.139" transform="translate(-15.62 -23.369)"/>
    <path id="パス_8625" data-name="パス 8625" class="cls-18" d="M80,84.108a.792.792,0,0,1-.264-.2.435.435,0,0,1-.1-.33,1.094,1.094,0,0,1,.35-.8c.294-.212.677-.134,1.374.007.259.053.567.116.932.175.215.036.426.065.626.091.736.1,1.269.173,1.485.489a.532.532,0,0,1,.073.437l-.017.072c-.16.675-.417.731-1.354.592-.149-.022-.369-.044-.627-.07A8.594,8.594,0,0,1,80,84.108M82.2,83.48c-.373-.062-.687-.126-.951-.179a2.11,2.11,0,0,0-.96-.1c-.04.029-.1.129-.134.438a10.4,10.4,0,0,0,2.369.4c.267.027.5.051.651.073a1.7,1.7,0,0,0,.7.039,1.132,1.132,0,0,0,.067-.229l.018-.075c-.069-.134-.7-.221-1.114-.277-.2-.027-.422-.057-.642-.093" transform="translate(-22.426 -23.275)"/>
    <path id="パス_8626" data-name="パス 8626" class="cls-6" d="M81.745,94.315a.735.735,0,1,1-.758-.712.735.735,0,0,1,.758.712" transform="translate(-22.607 -26.361)"/>
    <path id="パス_8627" data-name="パス 8627" class="cls-19" d="M44.28,54.28A8.817,8.817,0,0,0,55,53.976c3.154-3.018,2.526-4.936,8.59-7.541,2.706-1.168,3.8,2.435,8.18,1.549,2.392-.483,4.37-2.21,4.611-3.247.356-1.52-.082-4.667-4.814-4.061a17.953,17.953,0,0,1-2.917.366,1.294,1.294,0,0,1-.382-.1,7.66,7.66,0,0,1-1.1-.728c-.355-.269-.737-.575-1.124-.876a13.182,13.182,0,0,0-1.975-1.375,10.056,10.056,0,0,0-3.837-1.246c-7.051-.314-8,2.578-10.454,7.646a2.142,2.142,0,0,1-.374.517,7.614,7.614,0,0,1-1.532,1.179c-.332.21-.7.419-1.081.629-.143.074-.28.152-.429.227-.68.359-1.42.713-2.172,1.063-3.418,1.571-2.248,4.667.086,6.3" transform="translate(-11.843 -10.335)"/>
    <path id="パス_8628" data-name="パス 8628" class="cls-11" d="M50.157,47.442c2.14-.032,4.365-.083,7.253-.342l.223-.024c4.311-.473,10.251-3.354,12.921-4.751a7.749,7.749,0,0,1-1.1-.727c-2.866,1.464-8.292,4-12.151,4.353-2.157.2-3.95.27-5.612.312a7.622,7.622,0,0,1-1.532,1.179" transform="translate(-14.125 -11.715)"/>
    <path id="パス_8629" data-name="パス 8629" class="cls-11" d="M102.029,118.658c-.749.587-.7.866-.083,1.655s1.367,1.476.85,2.3a1.161,1.161,0,0,0,.338,1.786,2.59,2.59,0,0,0,2.364.446c.943-.42,1.178-.392,3.279-.552s4.86-.836,5.026-1.708a1.154,1.154,0,0,0-.767-1.521c-.675-.32-.238-.981.031-1.721a2.231,2.231,0,0,0-.63-2.159c-.44-.292-2.576-1.8-3.76-.874a6.726,6.726,0,0,1-3.585,1.11,8.015,8.015,0,0,0-3.065,1.233" transform="translate(-28.578 -32.673)"/>
  </g>
</svg>
