<svg xmlns="http://www.w3.org/2000/svg" xmlns:xlink="http://www.w3.org/1999/xlink" width="314.313" height="201.116" viewBox="0 0 314.313 201.116">
  <defs>
    <style>
      .cls-1 {
        fill: none;
      }

      .cls-2 {
        fill: #e8f2ff;
      }

      .cls-3 {
        clip-path: url(#clip-path);
      }

      .cls-4 {
        fill: #fff;
      }

      .cls-5 {
        fill: #8cb97f;
      }

      .cls-6 {
        fill: #bababa;
      }

      .cls-7 {
        fill: #80ad74;
      }
    </style>
    <clipPath id="clip-path">
      <rect id="長方形_720" data-name="長方形 720" class="cls-1" width="177.258" height="129.843"/>
    </clipPath>
  </defs>
  <g id="グループ_784" data-name="グループ 784" transform="translate(-552.753 -1956.187)">
    <path id="パス_7449" data-name="パス 7449" class="cls-2" d="M.033,72.636c-1.489,32.451,47.183,53.736,151.864,34.386S302.853,42.237,297.552,22.013,246.767-8.244,152.348,8.325,1.522,40.185.033,72.636Z" transform="translate(845.238 2125.332) rotate(-169)"/>
    <g id="グループ_782" data-name="グループ 782" transform="translate(633.137 1972.56) rotate(21)">
      <g id="グループ_781" data-name="グループ 781" class="cls-3" transform="translate(0 0)">
        <path id="パス_7439" data-name="パス 7439" class="cls-4" d="M2.459,12.949a4.515,4.515,0,0,1-.225-.855A4.164,4.164,0,0,1,5.57,7.243,4,4,0,0,1,9.093,8.462c.038-.015.074-.034.112-.05a6.71,6.71,0,0,1-.33-1.252A6.088,6.088,0,0,1,13.753.072a5.859,5.859,0,0,1,5.3,1.941A5.114,5.114,0,0,1,22.042.441c2.528-.4,4.854,1,5.2,3.126A3.4,3.4,0,0,1,27,5.439a4.853,4.853,0,0,1,5,4.008,4.881,4.881,0,0,1-4.147,5.513,5.107,5.107,0,0,1-.754.065,11.217,11.217,0,0,1-6.66,3.475,11.692,11.692,0,0,1-6.142-.608,7.875,7.875,0,0,1-4.151,1.958,7.777,7.777,0,0,1-4.839-.709,4.868,4.868,0,0,1-.76.185c-2.2.352-4.214-.855-4.509-2.694a3.534,3.534,0,0,1,2.423-3.685" transform="translate(105.941 8.885)"/>
        <path id="パス_7440" data-name="パス 7440" class="cls-4" d="M3.208,10.97a5.774,5.774,0,0,1-.556-1.143A6.377,6.377,0,0,1,6.836,1.856a6.75,6.75,0,0,1,6.068.722,6.173,6.173,0,0,1,3-2.187c2.686-.953,5.437-.1,6.144,1.894a3.073,3.073,0,0,1,.038,1.871c2.65-.613,5.272.547,6.068,2.795.867,2.448-.762,5.258-3.639,6.276a6.363,6.363,0,0,1-.81.231A13.574,13.574,0,0,1,17.015,18.3a13.807,13.807,0,0,1-7.855.551A8.563,8.563,0,0,1,8,19.364C4.586,20.57,1.1,19.5.21,16.986c-.747-2.105.558-4.563,3-6.016" transform="translate(12.129 44.895)"/>
        <path id="パス_7441" data-name="パス 7441" class="cls-5" d="M24.962.888A112.082,112.082,0,0,0,18.04,11.635c-4.2,7.333-10.894,6.923-15.5,6.71C-2.81,29.8.816,38.08,8.541,45.135l21.033-7.71a18.2,18.2,0,0,0,8.579-7.4,21.8,21.8,0,0,0,3.578-11.2L42.024,0a22.307,22.307,0,0,0-8.348,3.86C31.986,4.7,28.56,2.077,24.962.888" transform="translate(109.608 44.397)"/>
        <path id="パス_7442" data-name="パス 7442" class="cls-6" d="M19.311,0a55.349,55.349,0,0,0-7.928,1.295C6.692,2.813,4.139,5.484,0,9.6c4.178,1.015,8.156,3.26,10.115,2.539a31.009,31.009,0,0,1,9.7-3.3l-.5-8.482Z" transform="matrix(0.996, -0.087, 0.087, 0.996, 130.771, 38.896)"/>
        <path id="パス_7448" data-name="パス 7448" class="cls-6" d="M20.021,0A32.237,32.237,0,0,0,13.6,2.172C8.91,4.236,4.139,9.368,0,14.969c4.178,1.38,8.156,4.431,10.115,3.451a25.923,25.923,0,0,1,9.7-4.481L20.021.5Z" transform="translate(146.391 28.144) rotate(30)"/>
        <path id="パス_7443" data-name="パス 7443" class="cls-6" d="M18.213,9.676c1.64,0,4.921,4.921,8.2,3.281.949-.949,1.351-2.993,2.155-4.549C23.62,5.78,19.833,4.2,15.8,2.13,8.468-1.627,6.8.042,3.875,3.606A69.923,69.923,0,0,0,0,9.507c6.455,2.246,11.1-1.252,18.213.17" transform="translate(87.339 46.783)"/>
        <path id="パス_7444" data-name="パス 7444" class="cls-7" d="M82.093,9.438A150.292,150.292,0,0,0,66.792,0c-.8,1.556-1.206,3.6-2.155,4.549-3.281,1.64-6.563-3.281-8.2-3.281C49.324-.154,44.676,3.345,38.221,1.1c-5.108,8.329-13.052,22.34-14.778,25.925C21.147,31.848,4.593,50.058,0,56.145a6.9,6.9,0,0,0,1.821,2.871l12.961-4.759L90.066,26.63a18.2,18.2,0,0,0,8.579-7.4C95.25,16.59,90.426,15.2,82.093,9.438" transform="translate(49.117 55.19)"/>
        <path id="パス_7445" data-name="パス 7445" class="cls-6" d="M18.5,6.611c1.64,1.64,1.64,3.281,3.281,4.921,2.968.991,5.929-.413,7.817-2.759-1.135-1.212-2.351-2.467-3.8-3.867C18.882-1.8,12.187-.964,5.906,3.427A38.239,38.239,0,0,0,0,9.651a18.036,18.036,0,0,1,2.1,3.523C8.661,16.455,11.943,3.33,18.5,6.611" transform="translate(21.425 87.579)"/>
        <path id="パス_7446" data-name="パス 7446" class="cls-5" d="M51.029,2.693c-1.888,2.345-4.849,3.749-7.817,2.761-1.64-1.642-1.64-3.283-3.281-4.923-6.563-3.281-9.844,9.844-16.405,6.563a18.13,18.13,0,0,0-2.1-3.523C14.7,11.8,5.207,25.553,0,33.128a1.652,1.652,0,0,0,.263.33c2.33,2.591,5.973,3.494,9.991,2.018L63.9,15.787A183.5,183.5,0,0,1,51.029,2.693" transform="translate(0 93.659)"/>
      </g>
    </g>
    <path id="パス_7447" data-name="パス 7447" class="cls-5" d="M68.9,45.22c-2.549-3.167-6.547-5.062-10.554-3.727-2.215,2.217-2.215,4.432-4.43,6.647-8.862,4.43-13.291-13.291-22.151-8.862a24.479,24.479,0,0,1-2.835,4.756C19.853,32.929,7.03,14.354,0,4.127a2.231,2.231,0,0,1,.355-.445C3.5.183,8.419-1.036,13.844.958L86.277,27.54A247.762,247.762,0,0,0,68.9,45.22" transform="translate(809.488 2093.749) rotate(159)"/>
  </g>
</svg>
